<?xml version="1.0" encoding="UTF-8"?>
<svg xmlns="http://www.w3.org/2000/svg" xmlns:xlink="http://www.w3.org/1999/xlink" width="24" height="24" viewBox="0 0 24 24">
<path fill-rule="nonzero" fill="rgb(0%, 0%, 0%)" fill-opacity="1" d="M 3.578125 0.589844 L 12 9.011719 L 20.378906 0.632812 C 20.753906 0.234375 21.273438 0.0078125 21.820312 0 C 23.023438 0 24 0.976562 24 2.183594 C 24.011719 2.722656 23.796875 3.242188 23.410156 3.621094 L 14.925781 12 L 23.410156 20.488281 C 23.769531 20.839844 23.980469 21.316406 24 21.816406 C 24 23.023438 23.023438 24 21.820312 24 C 21.257812 24.023438 20.710938 23.808594 20.3125 23.410156 L 12 14.988281 L 3.601562 23.390625 C 3.226562 23.773438 2.71875 23.992188 2.183594 24 C 0.976562 24 0 23.023438 0 21.816406 C -0.0117188 21.277344 0.203125 20.757812 0.589844 20.378906 L 9.078125 12 L 0.589844 3.511719 C 0.230469 3.160156 0.0195312 2.683594 0 2.183594 C 0 0.976562 0.976562 0 2.183594 0 C 2.707031 0.0078125 3.207031 0.21875 3.578125 0.589844 Z M 3.578125 0.589844 "/>
</svg>
