<?xml version="1.0" encoding="UTF-8"?>
<svg xmlns="http://www.w3.org/2000/svg" xmlns:xlink="http://www.w3.org/1999/xlink" width="24" height="24" viewBox="0 0 24 24">
<path fill-rule="nonzero" fill="rgb(0%, 0%, 0%)" fill-opacity="1" d="M 12 4.304688 L 13.710938 8.59375 L 14.113281 9.601562 L 18.910156 9.601562 L 15.710938 12.398438 L 14.910156 13.105469 L 15.28125 14.113281 L 16.878906 19.121094 L 12.910156 16.289062 L 12 15.648438 L 11.089844 16.289062 L 7.054688 19.121094 L 8.65625 14.113281 L 8.992188 13.105469 L 8.191406 12.398438 L 4.992188 9.601562 L 9.792969 9.601562 L 10.191406 8.59375 Z M 12 0 L 8.800781 8 L 0.800781 8 L 7.199219 13.601562 L 4 23.199219 L 12 17.601562 L 20 23.199219 L 16.800781 13.601562 L 23.199219 8 L 15.199219 8 Z M 12 0 "/>
</svg>
