<?xml version="1.0" encoding="UTF-8"?>
<svg xmlns="http://www.w3.org/2000/svg" xmlns:xlink="http://www.w3.org/1999/xlink" width="24" height="24" viewBox="0 0 24 24">
<path fill-rule="nonzero" fill="rgb(0%, 0%, 0%)" fill-opacity="1" d="M 13.269531 3.667969 C 13.894531 3.042969 14.90625 3.042969 15.53125 3.667969 L 22.730469 10.867188 C 23.355469 11.492188 23.355469 12.507812 22.730469 13.132812 L 15.53125 20.332031 C 14.90625 20.957031 13.894531 20.957031 13.269531 20.332031 C 12.644531 19.707031 12.644531 18.695312 13.269531 18.070312 L 17.601562 13.601562 L 2.402344 13.601562 C 1.515625 13.601562 0.800781 12.882812 0.800781 12 C 0.800781 11.117188 1.515625 10.398438 2.402344 10.398438 L 17.601562 10.398438 L 13.269531 5.929688 C 12.644531 5.304688 12.644531 4.292969 13.269531 3.667969 Z M 13.269531 3.667969 "/>
</svg>
