<?xml version="1.0" encoding="UTF-8"?>
<svg xmlns="http://www.w3.org/2000/svg" xmlns:xlink="http://www.w3.org/1999/xlink" width="20.307692" height="24" viewBox="0 0 20.307692 24">
<path fill-rule="nonzero" fill="rgb(0%, 0%, 0%)" fill-opacity="1" d="M 9.300781 0.371094 L 0.230469 10.523438 C 0.09375 10.679688 0.0117188 10.875 0 11.078125 C -0.0078125 11.28125 0.0546875 11.464844 0.179688 11.628906 L 9.242188 23.558594 C 9.347656 23.695312 9.484375 23.804688 9.640625 23.882812 C 9.800781 23.960938 9.976562 24 10.15625 24 C 10.332031 24 10.507812 23.960938 10.667969 23.882812 C 10.824219 23.804688 10.960938 23.695312 11.066406 23.558594 L 20.128906 11.628906 C 20.253906 11.464844 20.316406 11.28125 20.308594 11.078125 C 20.296875 10.875 20.214844 10.679688 20.078125 10.523438 L 11.007812 0.371094 C 10.902344 0.253906 10.773438 0.160156 10.625 0.0976562 C 10.476562 0.0351562 10.316406 0 10.15625 0 C 9.992188 0 9.832031 0.0351562 9.683594 0.0976562 C 9.535156 0.160156 9.40625 0.253906 9.300781 0.371094 Z M 9.300781 0.371094 "/>
</svg>
