<?xml version="1.0" encoding="UTF-8"?>
<svg xmlns="http://www.w3.org/2000/svg" xmlns:xlink="http://www.w3.org/1999/xlink" width="24" height="24" viewBox="0 0 24 24">
<path fill-rule="nonzero" fill="rgb(0%, 0%, 0%)" fill-opacity="1" d="M 8.1875 4.507812 C 9.230469 3.625 10.644531 3.199219 12 3.199219 C 13.355469 3.199219 14.769531 3.625 15.8125 4.507812 C 16.8125 5.351562 17.601562 6.71875 17.601562 8.90625 C 17.601562 9.503906 17.355469 10.4375 16.816406 11.667969 C 16.296875 12.855469 15.578125 14.160156 14.789062 15.453125 C 13.828125 17.027344 12.796875 18.527344 11.972656 19.695312 C 11.136719 18.527344 10.105469 16.996094 9.152344 15.398438 C 8.375 14.09375 7.667969 12.78125 7.160156 11.597656 C 6.636719 10.371094 6.398438 9.460938 6.398438 8.90625 C 6.398438 6.71875 7.1875 5.351562 8.1875 4.507812 Z M 12.972656 21.046875 C 15.132812 18.019531 19.199219 12.066406 19.199219 8.90625 C 19.199219 3.660156 15.324219 1.601562 12 1.601562 C 8.675781 1.601562 4.800781 3.660156 4.800781 8.90625 C 4.800781 11.917969 8.761719 18.011719 10.988281 21.066406 C 11.394531 21.625 11.742188 22.082031 12 22.398438 C 12.089844 22.273438 12.195312 22.128906 12.316406 21.960938 C 12.503906 21.703125 12.726562 21.394531 12.972656 21.046875 Z M 12.972656 21.046875 "/>
</svg>
