<?xml version="1.0" encoding="UTF-8"?>
<svg xmlns="http://www.w3.org/2000/svg" xmlns:xlink="http://www.w3.org/1999/xlink" width="24" height="24" viewBox="0 0 24 24">
<path fill-rule="nonzero" fill="rgb(0%, 0%, 0%)" fill-opacity="1" d="M 16.800781 1.601562 C 14.554688 1.53125 12.558594 3.027344 12 5.203125 C 11.441406 3.027344 9.445312 1.53125 7.199219 1.601562 C 4.429688 1.515625 3.578125 4.476562 4.507812 6.398438 L 2.398438 6.398438 C 1.957031 6.398438 1.601562 6.757812 1.601562 7.199219 L 1.601562 8.800781 C 1.601562 9.242188 1.957031 9.601562 2.398438 9.601562 L 21.601562 9.601562 C 22.042969 9.601562 22.398438 9.242188 22.398438 8.800781 L 22.398438 7.199219 C 22.398438 6.757812 22.042969 6.398438 21.601562 6.398438 L 19.511719 6.398438 C 20.480469 4.503906 19.667969 1.601562 16.863281 1.601562 C 16.84375 1.601562 16.820312 1.601562 16.800781 1.601562 Z M 17.09375 6.398438 L 13.601562 6.398438 C 13.601562 4.632812 15.035156 3.203125 16.800781 3.203125 C 18.679688 3.203125 19.011719 6.199219 17.09375 6.398438 Z M 10.398438 6.398438 L 6.867188 6.398438 C 5.210938 6.210938 5.113281 3.367188 6.933594 3.203125 C 7.019531 3.195312 7.109375 3.195312 7.199219 3.203125 C 8.964844 3.203125 10.398438 4.632812 10.398438 6.398438 Z M 3.199219 11.203125 L 3.199219 18.402344 C 3.199219 19.726562 4.273438 20.800781 5.601562 20.800781 L 10.398438 20.800781 L 10.398438 11.203125 Z M 13.601562 11.203125 L 13.601562 20.800781 L 18.398438 20.800781 C 19.726562 20.800781 20.800781 19.726562 20.800781 18.402344 L 20.800781 11.203125 Z M 13.601562 11.203125 "/>
</svg>
