<?xml version="1.0" encoding="UTF-8"?>
<svg xmlns="http://www.w3.org/2000/svg" xmlns:xlink="http://www.w3.org/1999/xlink" width="24" height="24" viewBox="0 0 24 24">
<path fill-rule="nonzero" fill="rgb(0%, 0%, 0%)" fill-opacity="1" d="M 15.199219 11.199219 C 14.457031 10.753906 13.753906 10.246094 13.097656 9.683594 L 9.617188 5.152344 C 9.507812 5.011719 9.359375 4.902344 9.191406 4.847656 C 9.019531 4.789062 8.835938 4.785156 8.664062 4.832031 C 8.492188 4.878906 8.335938 4.980469 8.222656 5.117188 C 8.105469 5.253906 8.035156 5.421875 8.015625 5.601562 L 8 5.601562 L 8 8 L 5.132812 8 C 5.027344 8 4.921875 7.980469 4.824219 7.9375 C 4.726562 7.898438 4.636719 7.839844 4.5625 7.761719 C 4.5625 7.761719 4 6.398438 3.199219 6.398438 L 2.398438 6.398438 C 2.1875 6.398438 1.984375 6.484375 1.835938 6.632812 C 1.683594 6.785156 1.601562 6.988281 1.601562 7.199219 L 1.601562 14.398438 L 10.398438 14.398438 C 12.800781 14.398438 13.601562 16 16 16 L 22.398438 16 L 22.398438 15.199219 C 22.398438 12.800781 16.875 12.152344 15.199219 11.199219 Z M 15.199219 17.601562 C 14.339844 17.574219 13.496094 17.328125 12.757812 16.886719 C 11.796875 16.328125 10.710938 16.023438 9.601562 16 L 1.601562 16 L 1.601562 18.398438 C 1.601562 18.613281 1.683594 18.816406 1.835938 18.964844 C 1.984375 19.117188 2.1875 19.199219 2.398438 19.199219 L 8.800781 19.199219 C 9.011719 19.199219 9.214844 19.117188 9.367188 18.964844 C 9.515625 18.816406 9.601562 18.613281 9.601562 18.398438 L 9.601562 17.601562 C 10.460938 17.625 11.304688 17.871094 12.042969 18.316406 C 13.003906 18.871094 14.089844 19.175781 15.199219 19.199219 L 21.601562 19.199219 C 21.8125 19.199219 22.015625 19.117188 22.164062 18.964844 C 22.316406 18.816406 22.398438 18.613281 22.398438 18.398438 L 22.398438 17.601562 Z M 15.199219 17.601562 "/>
</svg>
