<?xml version="1.0" encoding="UTF-8"?>
<svg xmlns="http://www.w3.org/2000/svg" xmlns:xlink="http://www.w3.org/1999/xlink" width="24" height="24" viewBox="0 0 24 24">
<path fill-rule="nonzero" fill="rgb(0%, 0%, 0%)" fill-opacity="1" d="M 7.988281 2.53125 C 8.0625 2.097656 7.765625 1.683594 7.332031 1.609375 C 6.894531 1.539062 6.484375 1.832031 6.410156 2.269531 L 3.210938 21.46875 C 3.136719 21.90625 3.433594 22.316406 3.867188 22.390625 C 4.304688 22.460938 4.714844 22.167969 4.789062 21.730469 L 5.859375 15.300781 C 7.152344 15.488281 8.542969 15.550781 9.640625 16.320312 C 10.320312 16.808594 11.105469 17.128906 11.933594 17.253906 C 13.476562 17.484375 14.859375 16.636719 16.386719 16.878906 L 18.449219 17.1875 C 18.867188 17.25 19.296875 16.933594 19.359375 16.515625 L 20.773438 7.023438 L 20.78125 7.015625 C 20.839844 6.597656 20.515625 6.171875 20.097656 6.113281 L 18.035156 5.804688 C 16.496094 5.574219 15.109375 6.398438 13.582031 6.167969 C 12.898438 6.066406 12.246094 5.804688 11.679688 5.410156 C 10.5 4.582031 9.089844 4.445312 7.703125 4.25 Z M 7.046875 8.191406 L 7.570312 5.039062 C 8.53125 5.167969 9.542969 5.242188 10.433594 5.628906 L 9.960938 8.773438 C 9.050781 8.398438 8.019531 8.324219 7.046875 8.191406 Z M 5.992188 14.507812 L 6.519531 11.351562 C 7.511719 11.492188 8.5625 11.558594 9.492188 11.941406 L 9.972656 8.777344 C 11.023438 9.210938 11.828125 9.953125 13 10.125 L 13.480469 6.957031 C 14.664062 7.136719 15.640625 6.675781 16.773438 6.582031 L 16.292969 9.726562 C 15.160156 9.824219 14.175781 10.304688 13 10.128906 L 12.539062 13.292969 C 11.363281 13.117188 10.558594 12.371094 9.503906 11.941406 L 9.023438 15.105469 C 8.070312 14.722656 7.003906 14.652344 5.992188 14.507812 Z M 12.542969 13.292969 C 13.714844 13.472656 14.703125 12.988281 15.839844 12.894531 L 16.292969 9.726562 C 17.339844 9.632812 18.414062 9.90625 19.441406 10.0625 L 18.996094 13.222656 C 17.964844 13.070312 16.890625 12.792969 15.839844 12.894531 L 15.363281 16.054688 C 14.226562 16.128906 13.226562 16.632812 12.0625 16.453125 Z M 12.542969 13.292969 "/>
</svg>
