<?xml version="1.0" encoding="UTF-8"?>
<svg xmlns="http://www.w3.org/2000/svg" xmlns:xlink="http://www.w3.org/1999/xlink" width="24" height="24" viewBox="0 0 24 24">
<path fill-rule="nonzero" fill="rgb(0%, 0%, 0%)" fill-opacity="1" d="M 4.796875 4.910156 C 4.796875 4.910156 5.097656 3.210938 6.398438 3.210938 L 8.007812 3.210938 L 8.007812 2.765625 C 8.007812 2.550781 8.089844 2.347656 8.242188 2.199219 C 8.390625 2.046875 8.59375 1.964844 8.808594 1.964844 L 15.179688 1.964844 C 15.394531 1.964844 15.597656 2.046875 15.746094 2.199219 C 15.898438 2.347656 15.980469 2.550781 15.980469 2.765625 L 15.980469 3.210938 L 17.597656 3.210938 C 17.792969 3.210938 17.984375 3.25 18.160156 3.332031 C 18.335938 3.414062 18.492188 3.53125 18.617188 3.679688 C 18.90625 4.035156 19.105469 4.457031 19.195312 4.910156 C 19.195312 4.910156 19.695312 7.425781 20.144531 9.578125 L 18.644531 9.578125 L 17.601562 4.800781 L 6.371094 4.792969 L 5.332031 9.578125 L 3.8125 9.578125 Z M 22.398438 12.773438 C 22.398438 13.195312 22.230469 13.605469 21.929688 13.902344 C 21.628906 14.203125 21.222656 14.371094 20.796875 14.371094 L 19.195312 20.730469 C 19.195312 20.730469 18.898438 22.394531 17.597656 22.394531 L 6.398438 22.394531 C 5.097656 22.394531 4.796875 20.730469 4.796875 20.730469 L 3.171875 14.367188 C 2.75 14.359375 2.351562 14.1875 2.058594 13.882812 C 1.765625 13.582031 1.601562 13.179688 1.605469 12.757812 C 1.609375 12.335938 1.777344 11.933594 2.074219 11.636719 C 2.375 11.34375 2.777344 11.175781 3.195312 11.171875 L 20.796875 11.171875 C 21.222656 11.171875 21.628906 11.339844 21.929688 11.640625 C 22.226562 11.941406 22.398438 12.347656 22.398438 12.773438 Z M 8.050781 19.40625 L 8.046875 17.609375 L 7.421875 15.148438 C 7.390625 14.921875 7.273438 14.71875 7.089844 14.582031 C 6.910156 14.441406 6.679688 14.382812 6.457031 14.414062 C 6.230469 14.445312 6.023438 14.5625 5.886719 14.746094 C 5.75 14.925781 5.6875 15.15625 5.71875 15.382812 L 6.046875 17.613281 L 6.347656 19.640625 C 6.363281 19.75 6.398438 19.859375 6.457031 19.957031 C 6.515625 20.054688 6.589844 20.140625 6.679688 20.207031 C 6.769531 20.277344 6.871094 20.328125 6.980469 20.355469 C 7.089844 20.382812 7.203125 20.390625 7.316406 20.375 C 7.429688 20.359375 7.535156 20.324219 7.632812 20.265625 C 7.730469 20.210938 7.816406 20.132812 7.882812 20.042969 C 7.953125 19.953125 8.003906 19.851562 8.03125 19.742188 C 8.058594 19.632812 8.066406 19.519531 8.050781 19.40625 Z M 11.253906 15.253906 C 11.253906 15.140625 11.230469 15.03125 11.1875 14.925781 C 11.144531 14.824219 11.082031 14.730469 11.003906 14.648438 C 10.921875 14.570312 10.828125 14.507812 10.726562 14.464844 C 10.621094 14.421875 10.511719 14.398438 10.398438 14.398438 L 10.394531 14.402344 L 10.382812 14.398438 C 10.273438 14.398438 10.167969 14.421875 10.070312 14.460938 C 9.972656 14.503906 9.882812 14.566406 9.808594 14.640625 C 9.726562 14.71875 9.660156 14.816406 9.613281 14.921875 C 9.570312 15.027344 9.546875 15.140625 9.546875 15.253906 L 9.546875 19.542969 C 9.542969 19.65625 9.566406 19.765625 9.609375 19.871094 C 9.648438 19.976562 9.710938 20.074219 9.792969 20.152344 C 9.871094 20.234375 9.964844 20.296875 10.070312 20.339844 C 10.175781 20.382812 10.285156 20.40625 10.398438 20.40625 C 10.511719 20.40625 10.625 20.382812 10.726562 20.339844 C 10.832031 20.296875 10.925781 20.234375 11.007812 20.152344 C 11.085938 20.074219 11.148438 19.976562 11.191406 19.871094 C 11.234375 19.765625 11.253906 19.65625 11.253906 19.542969 Z M 14.449219 15.253906 C 14.449219 15.082031 14.398438 14.917969 14.300781 14.777344 C 14.203125 14.636719 14.070312 14.527344 13.910156 14.464844 C 13.8125 14.421875 13.703125 14.398438 13.597656 14.398438 C 13.488281 14.398438 13.382812 14.421875 13.28125 14.464844 C 13.121094 14.527344 12.988281 14.636719 12.890625 14.777344 C 12.792969 14.917969 12.742188 15.082031 12.742188 15.253906 L 12.742188 19.542969 C 12.742188 19.652344 12.765625 19.765625 12.808594 19.867188 C 12.851562 19.972656 12.914062 20.066406 12.992188 20.144531 C 13.070312 20.222656 13.167969 20.285156 13.269531 20.328125 C 13.375 20.371094 13.484375 20.394531 13.597656 20.394531 C 13.707031 20.394531 13.820312 20.371094 13.921875 20.328125 C 14.027344 20.285156 14.121094 20.222656 14.199219 20.144531 C 14.277344 20.066406 14.339844 19.972656 14.382812 19.867188 C 14.425781 19.765625 14.449219 19.652344 14.449219 19.542969 Z M 18.265625 15.382812 C 18.28125 15.269531 18.273438 15.15625 18.246094 15.046875 C 18.21875 14.9375 18.167969 14.835938 18.097656 14.746094 C 18.03125 14.65625 17.945312 14.578125 17.847656 14.523438 C 17.75 14.464844 17.640625 14.429688 17.53125 14.414062 C 17.417969 14.398438 17.304688 14.40625 17.195312 14.433594 C 17.085938 14.464844 16.984375 14.511719 16.894531 14.582031 C 16.804688 14.648438 16.726562 14.734375 16.671875 14.832031 C 16.613281 14.929688 16.578125 15.039062 16.5625 15.148438 L 15.9375 17.589844 L 15.933594 19.40625 C 15.917969 19.519531 15.925781 19.632812 15.953125 19.742188 C 15.980469 19.851562 16.03125 19.953125 16.101562 20.042969 C 16.167969 20.132812 16.253906 20.210938 16.351562 20.265625 C 16.449219 20.324219 16.558594 20.359375 16.667969 20.375 C 16.78125 20.390625 16.894531 20.382812 17.003906 20.355469 C 17.113281 20.328125 17.214844 20.277344 17.304688 20.207031 C 17.394531 20.140625 17.46875 20.054688 17.527344 19.957031 C 17.585938 19.859375 17.621094 19.75 17.636719 19.640625 Z M 18.265625 15.382812 "/>
</svg>
