<?xml version="1.0" encoding="UTF-8"?>
<svg xmlns="http://www.w3.org/2000/svg" xmlns:xlink="http://www.w3.org/1999/xlink" width="24" height="24" viewBox="0 0 24 24">
<path fill-rule="nonzero" fill="rgb(0%, 0%, 0%)" fill-opacity="1" d="M 19.167969 15.167969 L 18.015625 14.015625 C 17.300781 14.851562 16.421875 15.527344 15.433594 16.007812 C 14.445312 16.488281 13.371094 16.757812 12.273438 16.800781 C 11.175781 16.839844 10.078125 16.65625 9.058594 16.257812 C 8.035156 15.855469 7.105469 15.25 6.328125 14.472656 C 5.550781 13.695312 4.945312 12.765625 4.542969 11.742188 C 4.144531 10.71875 3.957031 9.625 4 8.527344 C 4.042969 7.429688 4.3125 6.355469 4.792969 5.363281 C 5.269531 4.375 5.949219 3.496094 6.785156 2.785156 L 5.628906 1.628906 C 4.222656 2.875 3.214844 4.507812 2.726562 6.320312 C 2.242188 8.136719 2.296875 10.050781 2.890625 11.835938 C 3.484375 13.617188 4.585938 15.183594 6.066406 16.34375 C 7.542969 17.503906 9.328125 18.207031 11.199219 18.359375 L 11.199219 20.800781 L 10.398438 20.800781 C 10.1875 20.800781 9.984375 20.882812 9.835938 21.035156 C 9.683594 21.183594 9.601562 21.386719 9.601562 21.601562 C 9.601562 21.8125 9.683594 22.015625 9.835938 22.164062 C 9.984375 22.316406 10.1875 22.398438 10.398438 22.398438 L 13.601562 22.398438 C 13.8125 22.398438 14.015625 22.316406 14.164062 22.164062 C 14.316406 22.015625 14.398438 21.8125 14.398438 21.601562 C 14.398438 21.386719 14.316406 21.183594 14.164062 21.035156 C 14.015625 20.882812 13.8125 20.800781 13.601562 20.800781 L 12.800781 20.800781 L 12.800781 18.355469 C 15.253906 18.152344 17.535156 17.011719 19.167969 15.167969 Z M 12 14.398438 C 13.109375 14.398438 14.191406 14.070312 15.109375 13.457031 C 16.03125 12.839844 16.75 11.964844 17.171875 10.941406 C 17.597656 9.917969 17.707031 8.792969 17.492188 7.707031 C 17.277344 6.621094 16.742188 5.625 15.960938 4.839844 C 15.175781 4.058594 14.179688 3.523438 13.09375 3.308594 C 12.007812 3.089844 10.878906 3.203125 9.855469 3.625 C 8.832031 4.050781 7.960938 4.769531 7.34375 5.6875 C 6.726562 6.609375 6.398438 7.691406 6.398438 8.800781 C 6.398438 10.285156 6.988281 11.710938 8.039062 12.761719 C 9.089844 13.808594 10.515625 14.398438 12 14.398438 Z M 13.601562 6.398438 L 14.183594 5.453125 C 14.734375 5.816406 15.1875 6.3125 15.5 6.894531 L 15.199219 8 L 13.601562 8 Z M 10.648438 5.050781 L 12 6.398438 L 12 8 L 12.800781 9.601562 L 15.902344 9.601562 C 15.773438 10.242188 15.488281 10.847656 15.066406 11.351562 C 14.648438 11.859375 14.113281 12.253906 13.503906 12.503906 L 12.800781 11.199219 L 10.398438 11.199219 L 8.078125 8 C 8.21875 7.328125 8.53125 6.707031 8.980469 6.1875 C 9.429688 5.671875 10.003906 5.28125 10.648438 5.050781 Z M 10.648438 5.050781 "/>
</svg>
