<?xml version="1.0" encoding="UTF-8"?>
<svg xmlns="http://www.w3.org/2000/svg" xmlns:xlink="http://www.w3.org/1999/xlink" width="24" height="24" viewBox="0 0 24 24">
<path fill-rule="nonzero" fill="rgb(0%, 0%, 0%)" fill-opacity="1" d="M 12 4 C 7.59375 4 4 7.59375 4 12 C 4 16.40625 7.59375 20 12 20 C 16.40625 20 20 16.40625 20 12 C 20 7.59375 16.40625 4 12 4 Z M 12 6.285156 C 15.167969 6.285156 17.714844 8.832031 17.714844 12 C 17.714844 15.167969 15.167969 17.714844 12 17.714844 C 8.832031 17.714844 6.285156 15.167969 6.285156 12 C 6.285156 8.832031 8.832031 6.285156 12 6.285156 Z M 11.714844 7.679688 C 11.652344 7.683594 11.59375 7.695312 11.535156 7.714844 C 11.132812 7.800781 10.847656 8.160156 10.855469 8.570312 L 10.855469 12.429688 L 11.214844 12.679688 L 13.5 14.394531 C 13.734375 14.644531 14.097656 14.730469 14.421875 14.613281 C 14.742188 14.492188 14.964844 14.195312 14.980469 13.851562 C 15 13.507812 14.808594 13.1875 14.5 13.035156 L 12.570312 11.570312 L 12.570312 8.570312 C 12.582031 8.339844 12.496094 8.109375 12.332031 7.941406 C 12.171875 7.773438 11.949219 7.679688 11.714844 7.679688 Z M 11.714844 7.679688 "/>
</svg>
