<?xml version="1.0" encoding="UTF-8"?>
<svg xmlns="http://www.w3.org/2000/svg" xmlns:xlink="http://www.w3.org/1999/xlink" width="24" height="24" viewBox="0 0 24 24">
<path fill-rule="nonzero" fill="rgb(0%, 0%, 0%)" fill-opacity="1" d="M 13.90625 16.226562 L 13.90625 13.601562 C 13.90625 13.386719 13.820312 13.183594 13.671875 13.035156 C 13.519531 12.882812 13.316406 12.800781 13.105469 12.800781 L 11.503906 12.800781 C 11.292969 12.800781 11.089844 12.882812 10.941406 13.035156 C 10.789062 13.183594 10.707031 13.386719 10.707031 13.601562 L 10.707031 16.226562 C 9.488281 16.535156 8.394531 17.199219 7.550781 18.128906 C 6.710938 19.0625 6.160156 20.21875 5.972656 21.460938 C 5.957031 21.578125 5.964844 21.695312 5.996094 21.808594 C 6.027344 21.921875 6.082031 22.023438 6.160156 22.113281 C 6.234375 22.203125 6.328125 22.273438 6.433594 22.324219 C 6.542969 22.371094 6.65625 22.398438 6.773438 22.398438 L 17.847656 22.398438 C 17.964844 22.398438 18.082031 22.371094 18.1875 22.324219 C 18.296875 22.273438 18.390625 22.203125 18.464844 22.113281 C 18.542969 22.023438 18.597656 21.921875 18.628906 21.808594 C 18.660156 21.695312 18.667969 21.578125 18.648438 21.460938 C 18.460938 20.21875 17.910156 19.058594 17.066406 18.128906 C 16.222656 17.199219 15.125 16.535156 13.90625 16.226562 Z M 21.328125 10.046875 L 17.328125 2.046875 C 17.261719 1.914062 17.160156 1.800781 17.035156 1.722656 C 16.90625 1.640625 16.761719 1.601562 16.613281 1.601562 L 8 1.601562 C 7.851562 1.601562 7.703125 1.640625 7.578125 1.71875 C 7.453125 1.796875 7.351562 1.910156 7.285156 2.042969 L 3.285156 10.042969 C 3.222656 10.164062 3.195312 10.296875 3.199219 10.433594 C 3.207031 10.570312 3.246094 10.703125 3.316406 10.816406 C 3.390625 10.933594 3.488281 11.03125 3.605469 11.097656 C 3.726562 11.164062 3.859375 11.199219 3.996094 11.199219 L 17.105469 11.199219 L 17.105469 13.601562 C 17.105469 13.8125 17.191406 14.015625 17.339844 14.164062 C 17.488281 14.316406 17.695312 14.398438 17.90625 14.398438 C 18.117188 14.398438 18.320312 14.316406 18.472656 14.164062 C 18.621094 14.015625 18.707031 13.8125 18.707031 13.601562 L 18.707031 11.199219 L 20.617188 11.199219 C 20.75 11.199219 20.882812 11.164062 21.003906 11.097656 C 21.121094 11.03125 21.21875 10.933594 21.292969 10.820312 C 21.363281 10.703125 21.402344 10.574219 21.410156 10.4375 C 21.414062 10.300781 21.386719 10.167969 21.328125 10.046875 Z M 21.328125 10.046875 "/>
</svg>
