<?xml version="1.0" encoding="UTF-8"?>
<svg xmlns="http://www.w3.org/2000/svg" xmlns:xlink="http://www.w3.org/1999/xlink" width="24" height="24" viewBox="0 0 24 24">
<path fill-rule="nonzero" fill="rgb(0%, 0%, 0%)" fill-opacity="1" d="M 20 11.199219 L 19.199219 11.199219 C 19.171875 11.203125 19.148438 11.210938 19.121094 11.214844 C 19.011719 10.175781 18.675781 9.167969 18.136719 8.269531 C 17.597656 7.371094 16.867188 6.601562 16 6.015625 L 16 2.398438 C 16 2.1875 15.914062 1.984375 15.765625 1.835938 C 15.617188 1.683594 15.414062 1.601562 15.199219 1.601562 L 8.800781 1.601562 C 8.585938 1.601562 8.382812 1.683594 8.234375 1.835938 C 8.085938 1.984375 8 2.1875 8 2.398438 L 8 6.015625 C 7.015625 6.675781 6.210938 7.5625 5.652344 8.609375 C 5.09375 9.652344 4.804688 10.816406 4.804688 12 C 4.804688 13.183594 5.09375 14.347656 5.652344 15.390625 C 6.210938 16.4375 7.015625 17.324219 8 17.984375 L 8 21.601562 C 8 21.8125 8.085938 22.015625 8.234375 22.164062 C 8.382812 22.316406 8.585938 22.398438 8.800781 22.398438 L 15.199219 22.398438 C 15.414062 22.398438 15.617188 22.316406 15.765625 22.164062 C 15.914062 22.015625 16 21.8125 16 21.601562 L 16 17.984375 C 16.867188 17.398438 17.597656 16.628906 18.136719 15.730469 C 18.675781 14.832031 19.011719 13.824219 19.121094 12.785156 C 19.148438 12.789062 19.171875 12.796875 19.199219 12.800781 L 20 12.800781 C 20.210938 12.800781 20.414062 12.714844 20.566406 12.566406 C 20.714844 12.414062 20.800781 12.210938 20.800781 12 C 20.800781 11.789062 20.714844 11.585938 20.566406 11.433594 C 20.414062 11.285156 20.210938 11.199219 20 11.199219 Z M 12 17.601562 C 10.890625 17.601562 9.808594 17.273438 8.890625 16.65625 C 7.96875 16.039062 7.25 15.167969 6.828125 14.144531 C 6.402344 13.121094 6.292969 11.992188 6.507812 10.90625 C 6.722656 9.820312 7.257812 8.824219 8.039062 8.039062 C 8.824219 7.257812 9.820312 6.722656 10.90625 6.507812 C 11.992188 6.292969 13.121094 6.402344 14.144531 6.828125 C 15.167969 7.25 16.039062 7.96875 16.65625 8.890625 C 17.273438 9.808594 17.601562 10.890625 17.601562 12 C 17.601562 13.484375 17.011719 14.910156 15.960938 15.960938 C 14.910156 17.011719 13.484375 17.601562 12 17.601562 Z M 14.398438 11.199219 L 12.800781 11.199219 L 12.800781 8.800781 C 12.800781 8.585938 12.714844 8.382812 12.566406 8.234375 C 12.414062 8.085938 12.210938 8 12 8 C 11.789062 8 11.585938 8.085938 11.433594 8.234375 C 11.285156 8.382812 11.199219 8.585938 11.199219 8.800781 L 11.199219 12 C 11.199219 12.210938 11.285156 12.414062 11.433594 12.566406 C 11.585938 12.714844 11.789062 12.800781 12 12.800781 L 14.398438 12.800781 C 14.613281 12.800781 14.816406 12.714844 14.964844 12.566406 C 15.117188 12.414062 15.199219 12.210938 15.199219 12 C 15.199219 11.789062 15.117188 11.585938 14.964844 11.433594 C 14.816406 11.285156 14.613281 11.199219 14.398438 11.199219 Z M 14.398438 11.199219 "/>
</svg>
