<?xml version="1.0" encoding="UTF-8"?>
<svg xmlns="http://www.w3.org/2000/svg" xmlns:xlink="http://www.w3.org/1999/xlink" width="24" height="24" viewBox="0 0 24 24">
<path fill-rule="nonzero" fill="rgb(0%, 0%, 0%)" fill-opacity="1" d="M 1.601562 4.398438 C 1.601562 4.082031 1.726562 3.777344 1.953125 3.550781 C 2.175781 3.328125 2.480469 3.199219 2.800781 3.199219 L 4.582031 3.199219 C 4.726562 3.199219 4.871094 3.226562 5.003906 3.277344 L 10.421875 5.308594 C 10.648438 5.394531 10.847656 5.546875 10.984375 5.75 C 11.125 5.949219 11.199219 6.1875 11.199219 6.433594 L 11.199219 15.96875 C 11.199219 16.210938 11.125 16.449219 10.984375 16.652344 C 10.847656 16.851562 10.648438 17.003906 10.421875 17.089844 L 4.800781 19.199219 L 4.800781 19.601562 C 4.800781 19.917969 4.671875 20.222656 4.449219 20.449219 C 4.222656 20.671875 3.917969 20.800781 3.601562 20.800781 L 2.800781 20.800781 C 2.480469 20.800781 2.175781 20.671875 1.953125 20.449219 C 1.726562 20.222656 1.601562 19.917969 1.601562 19.601562 Z M 6.398438 13.578125 L 6.398438 5.785156 C 6.398438 5.703125 6.375 5.625 6.328125 5.558594 C 6.28125 5.492188 6.21875 5.441406 6.140625 5.410156 L 5.339844 5.113281 C 5.28125 5.089844 5.214844 5.082031 5.152344 5.089844 C 5.085938 5.097656 5.027344 5.121094 4.972656 5.15625 C 4.917969 5.195312 4.875 5.242188 4.84375 5.300781 C 4.816406 5.359375 4.800781 5.421875 4.800781 5.488281 L 4.800781 13.84375 C 4.800781 14.117188 5.066406 14.308594 5.328125 14.222656 L 6.128906 13.957031 C 6.207031 13.929688 6.277344 13.878906 6.324219 13.8125 C 6.375 13.742188 6.398438 13.660156 6.398438 13.578125 Z M 8 6.6875 L 8 12.777344 C 8 12.84375 8.015625 12.90625 8.042969 12.960938 C 8.074219 13.019531 8.113281 13.066406 8.167969 13.105469 C 8.21875 13.144531 8.277344 13.167969 8.339844 13.175781 C 8.402344 13.1875 8.46875 13.179688 8.527344 13.160156 L 9.328125 12.894531 C 9.40625 12.867188 9.476562 12.816406 9.527344 12.746094 C 9.574219 12.679688 9.601562 12.597656 9.601562 12.511719 L 9.601562 6.984375 C 9.601562 6.902344 9.574219 6.824219 9.527344 6.757812 C 9.484375 6.691406 9.417969 6.640625 9.339844 6.609375 L 8.539062 6.3125 C 8.480469 6.289062 8.414062 6.28125 8.351562 6.289062 C 8.285156 6.296875 8.226562 6.320312 8.171875 6.359375 C 8.121094 6.394531 8.074219 6.445312 8.046875 6.5 C 8.015625 6.558594 8 6.625 8 6.6875 Z M 22.398438 4.398438 C 22.398438 4.082031 22.273438 3.777344 22.046875 3.550781 C 21.824219 3.328125 21.519531 3.199219 21.199219 3.199219 L 19.417969 3.199219 C 19.273438 3.199219 19.132812 3.226562 18.996094 3.277344 L 13.578125 5.308594 C 13.351562 5.394531 13.152344 5.546875 13.015625 5.75 C 12.875 5.949219 12.800781 6.1875 12.800781 6.433594 L 12.800781 15.96875 C 12.800781 16.210938 12.875 16.449219 13.015625 16.652344 C 13.152344 16.851562 13.351562 17.003906 13.578125 17.089844 L 19.199219 19.199219 L 19.199219 19.601562 C 19.199219 20.261719 19.738281 20.800781 20.398438 20.800781 L 21.199219 20.800781 C 21.519531 20.800781 21.824219 20.671875 22.046875 20.449219 C 22.273438 20.222656 22.398438 19.917969 22.398438 19.601562 Z M 17.871094 13.957031 C 17.792969 13.929688 17.722656 13.878906 17.675781 13.8125 C 17.625 13.742188 17.601562 13.660156 17.601562 13.578125 L 17.601562 5.785156 C 17.601562 5.703125 17.625 5.625 17.671875 5.558594 C 17.71875 5.492188 17.78125 5.441406 17.859375 5.410156 L 18.660156 5.113281 C 18.71875 5.089844 18.785156 5.082031 18.847656 5.089844 C 18.914062 5.097656 18.972656 5.121094 19.027344 5.15625 C 19.082031 5.195312 19.125 5.242188 19.152344 5.300781 C 19.183594 5.359375 19.199219 5.421875 19.199219 5.488281 L 19.199219 13.84375 C 19.199219 13.910156 19.183594 13.972656 19.15625 14.027344 C 19.128906 14.085938 19.085938 14.132812 19.035156 14.167969 C 18.980469 14.207031 18.921875 14.230469 18.859375 14.242188 C 18.796875 14.25 18.730469 14.246094 18.671875 14.222656 Z M 16 6.6875 L 16 12.777344 C 16 12.839844 15.984375 12.902344 15.957031 12.960938 C 15.925781 13.019531 15.886719 13.066406 15.832031 13.105469 C 15.78125 13.140625 15.722656 13.164062 15.660156 13.175781 C 15.597656 13.183594 15.53125 13.179688 15.472656 13.160156 L 14.671875 12.890625 C 14.59375 12.863281 14.523438 12.8125 14.476562 12.746094 C 14.425781 12.675781 14.398438 12.597656 14.398438 12.511719 L 14.398438 6.984375 C 14.398438 6.902344 14.425781 6.824219 14.472656 6.757812 C 14.515625 6.691406 14.582031 6.640625 14.660156 6.609375 L 15.460938 6.3125 C 15.519531 6.289062 15.585938 6.28125 15.648438 6.289062 C 15.714844 6.296875 15.773438 6.320312 15.828125 6.359375 C 15.878906 6.394531 15.925781 6.445312 15.953125 6.5 C 15.984375 6.558594 16 6.621094 16 6.6875 Z M 16 6.6875 "/>
</svg>
