<?xml version="1.0" encoding="UTF-8"?>
<svg xmlns="http://www.w3.org/2000/svg" xmlns:xlink="http://www.w3.org/1999/xlink" width="24" height="24" viewBox="0 0 24 24">
<path fill-rule="nonzero" fill="rgb(0%, 0%, 0%)" fill-opacity="1" d="M 7.214844 14.207031 C 7.0625 14.359375 6.976562 14.566406 6.976562 14.785156 C 6.976562 15 7.0625 15.207031 7.214844 15.359375 L 8.367188 16.511719 L 4.910156 20 L 4.320312 19.40625 C 3.675781 18.804688 3.277344 17.984375 3.199219 17.105469 L 3.199219 14.785156 C 3.273438 13.898438 3.671875 13.070312 4.320312 12.464844 L 12.433594 4.351562 C 13.035156 3.691406 13.863281 3.28125 14.753906 3.199219 L 17.070312 3.199219 C 17.960938 3.28125 18.789062 3.691406 19.390625 4.351562 L 19.96875 4.929688 L 16.496094 8.414062 L 15.328125 7.246094 C 15.175781 7.09375 14.96875 7.011719 14.753906 7.011719 C 14.535156 7.011719 14.328125 7.09375 14.175781 7.246094 Z M 6.609375 21.761719 C 6.898438 22.066406 7.304688 22.246094 7.726562 22.257812 C 8.152344 22.269531 8.5625 22.109375 8.871094 21.816406 C 8.890625 21.800781 8.910156 21.78125 8.929688 21.761719 L 10.078125 20.609375 C 10.386719 20.316406 10.566406 19.914062 10.578125 19.488281 C 10.589844 19.066406 10.429688 18.652344 10.136719 18.347656 C 10.121094 18.328125 10.101562 18.308594 10.078125 18.289062 Z M 18.207031 10.113281 C 18.5 10.417969 18.902344 10.597656 19.328125 10.609375 C 19.75 10.621094 20.164062 10.460938 20.46875 10.171875 C 20.488281 10.152344 21.679688 8.960938 21.679688 8.960938 C 21.988281 8.667969 22.167969 8.265625 22.175781 7.839844 C 22.1875 7.417969 22.03125 7.003906 21.738281 6.699219 C 21.71875 6.679688 21.699219 6.660156 21.679688 6.640625 Z M 18.207031 10.113281 "/>
</svg>
