<?xml version="1.0" encoding="UTF-8"?>
<svg xmlns="http://www.w3.org/2000/svg" xmlns:xlink="http://www.w3.org/1999/xlink" width="24" height="24" viewBox="0 0 24 24">
<path fill-rule="nonzero" fill="rgb(0%, 0%, 0%)" fill-opacity="1" d="M 16 3.199219 L 16 2.398438 C 16 2.1875 15.914062 1.984375 15.765625 1.835938 C 15.617188 1.683594 15.414062 1.601562 15.199219 1.601562 C 14.988281 1.601562 14.785156 1.683594 14.632812 1.835938 C 14.484375 1.984375 14.398438 2.1875 14.398438 2.398438 L 14.398438 3.199219 L 8 3.199219 C 7.574219 3.199219 7.167969 3.367188 6.867188 3.667969 C 6.570312 3.96875 6.398438 4.375 6.398438 4.800781 L 6.398438 20.800781 C 6.398438 21.222656 6.570312 21.632812 6.867188 21.929688 C 7.167969 22.230469 7.574219 22.398438 8 22.398438 L 16 22.398438 C 16.425781 22.398438 16.832031 22.230469 17.132812 21.929688 C 17.429688 21.632812 17.601562 21.222656 17.601562 20.800781 L 17.601562 4.800781 C 17.601562 4.375 17.429688 3.96875 17.132812 3.667969 C 16.832031 3.367188 16.425781 3.199219 16 3.199219 Z M 9.601562 20.800781 L 8 20.800781 L 8 19.199219 L 9.601562 19.199219 Z M 9.601562 17.601562 L 8 17.601562 L 8 16 L 9.601562 16 Z M 9.601562 14.398438 L 8 14.398438 L 8 12.800781 L 9.601562 12.800781 Z M 12.800781 20.800781 L 11.199219 20.800781 L 11.199219 19.199219 L 12.800781 19.199219 Z M 12.800781 17.601562 L 11.199219 17.601562 L 11.199219 16 L 12.800781 16 Z M 12.800781 14.398438 L 11.199219 14.398438 L 11.199219 12.800781 L 12.800781 12.800781 Z M 16 20.800781 L 14.398438 20.800781 L 14.398438 19.199219 L 16 19.199219 Z M 16 17.601562 L 14.398438 17.601562 L 14.398438 16 L 16 16 Z M 16 14.398438 L 14.398438 14.398438 L 14.398438 12.800781 L 16 12.800781 Z M 16 10.398438 C 16 10.613281 15.914062 10.816406 15.765625 10.964844 C 15.617188 11.117188 15.414062 11.199219 15.199219 11.199219 L 8.800781 11.199219 C 8.585938 11.199219 8.382812 11.117188 8.234375 10.964844 C 8.085938 10.816406 8 10.613281 8 10.398438 L 8 5.601562 C 8 5.386719 8.085938 5.183594 8.234375 5.035156 C 8.382812 4.882812 8.585938 4.800781 8.800781 4.800781 L 15.199219 4.800781 C 15.414062 4.800781 15.617188 4.882812 15.765625 5.035156 C 15.914062 5.183594 16 5.386719 16 5.601562 Z M 16 10.398438 "/>
</svg>
