<?xml version="1.0" encoding="UTF-8"?>
<svg xmlns="http://www.w3.org/2000/svg" xmlns:xlink="http://www.w3.org/1999/xlink" width="24" height="24" viewBox="0 0 24 24">
<path fill-rule="nonzero" fill="rgb(0%, 0%, 0%)" fill-opacity="1" d="M 7.199219 6.398438 L 7.199219 3.199219 C 7.199219 2.316406 7.917969 1.601562 8.800781 1.601562 L 15.199219 1.601562 C 16.082031 1.601562 16.800781 2.316406 16.800781 3.199219 L 16.800781 6.398438 L 19.199219 6.398438 C 20.082031 6.398438 20.800781 7.117188 20.800781 8 L 20.800781 17.601562 C 20.800781 18.484375 20.082031 19.199219 19.199219 19.199219 L 4.800781 19.199219 C 3.917969 19.199219 3.199219 18.484375 3.199219 17.601562 L 3.199219 8 C 3.199219 7.117188 3.917969 6.398438 4.800781 6.398438 Z M 8.800781 3.199219 L 8.800781 6.398438 L 15.199219 6.398438 L 15.199219 3.199219 Z M 8.800781 3.199219 "/>
</svg>
