<?xml version="1.0" encoding="UTF-8"?>
<svg xmlns="http://www.w3.org/2000/svg" xmlns:xlink="http://www.w3.org/1999/xlink" width="24" height="24" viewBox="0 0 24 24">
<path fill-rule="nonzero" fill="rgb(0%, 0%, 0%)" fill-opacity="1" d="M 19.199219 13.601562 C 19.199219 17.578125 15.976562 20.800781 12 20.800781 C 8.023438 20.800781 4.800781 17.578125 4.800781 13.601562 C 4.800781 10.644531 6.585938 8.105469 9.136719 7 L 9.417969 7.21875 L 10.65625 8.179688 C 8.21875 8.789062 6.398438 10.976562 6.398438 13.601562 C 6.398438 16.6875 8.914062 19.199219 12 19.199219 C 15.085938 19.199219 17.601562 16.6875 17.601562 13.601562 C 17.601562 10.976562 15.78125 8.789062 13.34375 8.179688 L 14.863281 7 C 17.414062 8.109375 19.199219 10.644531 19.199219 13.601562 Z M 12 7.199219 L 16 4.089844 L 14.398438 1.601562 L 9.601562 1.601562 L 8 4.089844 L 10.398438 5.957031 Z M 12 7.199219 "/>
</svg>
