<?xml version="1.0" encoding="UTF-8"?>
<svg xmlns="http://www.w3.org/2000/svg" xmlns:xlink="http://www.w3.org/1999/xlink" width="24" height="24" viewBox="0 0 24 24">
<path fill-rule="nonzero" fill="rgb(0%, 0%, 0%)" fill-opacity="1" d="M 6.285156 5.144531 C 4.953125 5.144531 4 6.050781 4 7.429688 L 4 20 L 12 20 L 12 11 C 12 11 13 10.855469 13 12 L 13 16.570312 C 13 18.855469 15.132812 19 15.429688 19 C 15.742188 19 17.855469 18.855469 17.855469 16.570312 L 17.855469 12 C 17.855469 12 19.441406 12.019531 19.429688 8.605469 L 18.570312 8.605469 L 18.570312 6.320312 C 18.570312 5.671875 17.714844 5.675781 17.714844 6.285156 L 17.714844 8.570312 L 16.570312 8.570312 L 16.570312 6.285156 C 16.570312 5.660156 15.714844 5.664062 15.714844 6.285156 L 15.714844 8.570312 L 14.855469 8.570312 C 14.871094 11.984375 16.429688 12 16.429688 12 L 16.429688 16.570312 C 16.429688 17.570312 15.550781 17.570312 15.429688 17.570312 C 15.304688 17.570312 14.429688 17.523438 14.429688 16.570312 L 14.429688 12 C 14.429688 10.535156 13.144531 9.570312 12 9.570312 L 12 7.429688 C 12 6.03125 11.066406 5.144531 9.714844 5.144531 Z M 7.429688 8.570312 L 9.714844 8.570312 L 8.285156 10.855469 L 10 10.855469 L 6.855469 15.429688 L 6.285156 15.429688 L 7.429688 12 L 6 12 Z M 7.429688 8.570312 "/>
</svg>
