<?xml version="1.0" encoding="UTF-8"?>
<svg xmlns="http://www.w3.org/2000/svg" xmlns:xlink="http://www.w3.org/1999/xlink" width="24" height="24" viewBox="0 0 24 24">
<path fill-rule="nonzero" fill="rgb(0%, 0%, 0%)" fill-opacity="1" d="M 14.285156 4 C 13.425781 4.5625 12.855469 5.539062 12.855469 6.644531 C 12.855469 7.859375 13.5625 8.90625 14.570312 9.429688 L 14.570312 18.285156 C 14.570312 19.289062 15.167969 20 16 20 C 16.832031 20 17.429688 19.308594 17.429688 18.285156 L 17.429688 9.429688 C 18.4375 8.90625 19.144531 7.859375 19.144531 6.644531 C 19.144531 5.539062 18.574219 4.5625 17.714844 4 L 17.714844 5.714844 L 16 7.429688 L 14.285156 5.714844 C 14.285156 5.714844 14.285156 3.996094 14.285156 4 Z M 8.570312 4 C 7.941406 4 7.429688 4.433594 7.429688 4.855469 L 5.714844 4.855469 L 4.285156 6.855469 L 5.714844 8.855469 L 7.429688 8.855469 L 7.429688 18.570312 C 7.429688 19.355469 7.859375 20 8.570312 20 C 9.285156 20 9.714844 19.394531 9.714844 18.570312 L 9.714844 8.855469 L 12 8.855469 L 12 4.855469 L 9.714844 4.855469 C 9.714844 4.425781 9.285156 4 8.570312 4 Z M 16 17.714844 C 16.316406 17.714844 16.570312 17.96875 16.570312 18.285156 C 16.570312 18.601562 16.316406 18.855469 16 18.855469 C 15.683594 18.855469 15.429688 18.601562 15.429688 18.285156 C 15.429688 17.96875 15.683594 17.714844 16 17.714844 Z M 16 17.714844 "/>
</svg>
