<?xml version="1.0" encoding="UTF-8"?>
<svg xmlns="http://www.w3.org/2000/svg" xmlns:xlink="http://www.w3.org/1999/xlink" width="24" height="24" viewBox="0 0 24 24">
<path fill-rule="nonzero" fill="rgb(0%, 0%, 0%)" fill-opacity="1" d="M 22.398438 9.601562 L 22.398438 18.398438 C 22.398438 18.839844 22.042969 19.199219 21.601562 19.199219 C 21.160156 19.199219 20.800781 18.839844 20.800781 18.398438 L 20.800781 15.199219 C 20.800781 13.875 19.726562 12.800781 18.398438 12.800781 L 16 12.800781 L 16 3.199219 C 16 2.316406 15.285156 1.601562 14.398438 1.601562 L 4.800781 1.601562 C 3.917969 1.601562 3.199219 2.316406 3.199219 3.199219 L 3.199219 20.800781 C 3.199219 21.683594 3.917969 22.398438 4.800781 22.398438 L 14.398438 22.398438 C 15.285156 22.398438 16 21.683594 16 20.800781 L 16 14.398438 L 18.398438 14.398438 C 18.839844 14.398438 19.199219 14.757812 19.199219 15.199219 L 19.199219 18.398438 C 19.199219 19.726562 20.273438 20.800781 21.601562 20.800781 C 22.925781 20.800781 24 19.726562 24 18.398438 L 24 8 C 24 7.117188 23.285156 6.398438 22.398438 6.398438 L 22.398438 3.984375 C 22.390625 3.546875 22.035156 3.199219 21.601562 3.199219 C 21.148438 3.207031 20.789062 3.578125 20.796875 4.03125 C 20.796875 4.046875 20.796875 4.0625 20.800781 4.078125 L 20.800781 8 C 20.800781 8.882812 21.515625 9.601562 22.398438 9.601562 C 23.285156 9.601562 24 8.882812 24 8 C 24 7.117188 23.285156 6.398438 22.398438 6.398438 Z M 14.398438 10.398438 C 14.398438 10.839844 14.042969 11.199219 13.601562 11.199219 L 5.601562 11.199219 C 5.160156 11.199219 4.800781 10.839844 4.800781 10.398438 L 4.800781 5.601562 C 4.800781 5.160156 5.160156 4.800781 5.601562 4.800781 L 13.601562 4.800781 C 14.042969 4.800781 14.398438 5.160156 14.398438 5.601562 Z M 14.398438 10.398438 "/>
</svg>
