<?xml version="1.0" encoding="UTF-8"?>
<svg xmlns="http://www.w3.org/2000/svg" xmlns:xlink="http://www.w3.org/1999/xlink" width="24" height="24" viewBox="0 0 24 24">
<path fill-rule="nonzero" fill="rgb(0%, 0%, 0%)" fill-opacity="1" d="M 23.199219 11.199219 L 23.199219 12.800781 L 21.601562 12.800781 L 21.601562 16 L 20 16 L 20 17.601562 L 17.601562 17.601562 L 17.601562 12.800781 L 6.398438 12.800781 L 6.398438 17.601562 L 4 17.601562 L 4 16 L 2.398438 16 L 2.398438 12.800781 L 0.800781 12.800781 L 0.800781 11.199219 L 2.398438 11.199219 L 2.398438 8 L 4 8 L 4 6.398438 L 6.398438 6.398438 L 6.398438 11.199219 L 17.601562 11.199219 L 17.601562 6.398438 L 20 6.398438 L 20 8 L 21.601562 8 L 21.601562 11.199219 Z M 23.199219 11.199219 "/>
</svg>
