<?xml version="1.0" encoding="UTF-8"?>
<svg xmlns="http://www.w3.org/2000/svg" xmlns:xlink="http://www.w3.org/1999/xlink" width="24" height="24" viewBox="0 0 24 24">
<path fill-rule="nonzero" fill="rgb(0%, 0%, 0%)" fill-opacity="1" d="M 2.398438 1.601562 C 3.320312 1.636719 4.207031 1.96875 4.925781 2.542969 C 5.644531 3.117188 6.160156 3.910156 6.398438 4.800781 L 7.199219 0 L 8 4.800781 C 8.238281 3.910156 8.753906 3.117188 9.472656 2.542969 C 10.195312 1.96875 11.078125 1.636719 12 1.601562 C 11.679688 1.648438 10.398438 2.015625 10.398438 4.800781 L 10.398438 4.933594 C 10.382812 5.765625 10.035156 6.554688 9.433594 7.128906 C 8.835938 7.703125 8.03125 8.019531 7.199219 8 L 7.066406 8 C 6.234375 7.980469 5.445312 7.636719 4.871094 7.035156 C 4.296875 6.433594 3.980469 5.632812 4 4.800781 C 4 2.019531 2.71875 1.648438 2.398438 1.601562 Z M 19.21875 17.601562 L 24.019531 16.800781 L 19.21875 16 C 20.109375 15.761719 20.894531 15.246094 21.46875 14.523438 C 22.042969 13.804688 22.367188 12.917969 22.398438 12 C 22.351562 12.320312 22.003906 13.601562 19.21875 13.601562 C 18.371094 13.601562 17.554688 13.9375 16.957031 14.539062 C 16.355469 15.136719 16.019531 15.953125 16.019531 16.800781 C 16.019531 17.648438 16.355469 18.460938 16.957031 19.0625 C 17.554688 19.664062 18.371094 20 19.21875 20 C 22 20 22.351562 21.28125 22.398438 21.601562 C 22.367188 20.679688 22.042969 19.796875 21.46875 19.074219 C 20.894531 18.355469 20.109375 17.839844 19.21875 17.601562 Z M 15.5 8.875 C 15.078125 8.875 14.667969 8.707031 14.371094 8.40625 C 14.070312 8.109375 13.902344 7.699219 13.902344 7.277344 C 13.902344 6.851562 14.070312 6.445312 14.371094 6.144531 C 14.667969 5.84375 15.078125 5.675781 15.5 5.675781 C 15.078125 5.675781 14.667969 5.507812 14.371094 5.207031 C 14.070312 4.90625 13.902344 4.5 13.902344 4.078125 C 13.902344 3.652344 14.070312 3.246094 14.371094 2.945312 C 14.667969 2.644531 15.078125 2.476562 15.5 2.476562 C 15.78125 2.480469 16.050781 2.554688 16.292969 2.699219 C 16.53125 2.839844 16.730469 3.042969 16.863281 3.289062 L 16.902344 3.269531 C 16.785156 3.050781 16.71875 2.804688 16.714844 2.558594 C 16.714844 2.132812 16.882812 1.726562 17.183594 1.425781 C 17.484375 1.128906 17.890625 0.957031 18.316406 0.957031 C 18.738281 0.957031 19.144531 1.128906 19.445312 1.425781 C 19.746094 1.726562 19.914062 2.132812 19.914062 2.558594 C 19.910156 2.804688 19.847656 3.050781 19.730469 3.269531 L 19.761719 3.285156 C 19.894531 3.042969 20.09375 2.84375 20.332031 2.703125 C 20.570312 2.5625 20.84375 2.488281 21.121094 2.484375 C 21.542969 2.480469 21.953125 2.644531 22.257812 2.9375 C 22.5625 3.234375 22.734375 3.640625 22.738281 4.066406 C 22.746094 4.488281 22.582031 4.898438 22.285156 5.203125 C 21.988281 5.503906 21.585938 5.679688 21.160156 5.683594 C 21.585938 5.691406 21.988281 5.863281 22.285156 6.167969 C 22.582031 6.472656 22.746094 6.878906 22.738281 7.304688 C 22.734375 7.730469 22.5625 8.132812 22.257812 8.429688 C 21.953125 8.726562 21.542969 8.890625 21.121094 8.886719 C 20.84375 8.882812 20.570312 8.808594 20.332031 8.667969 C 20.09375 8.527344 19.894531 8.324219 19.761719 8.085938 L 19.734375 8.097656 C 19.847656 8.316406 19.910156 8.558594 19.914062 8.804688 C 19.914062 9.226562 19.746094 9.632812 19.445312 9.933594 C 19.144531 10.234375 18.738281 10.402344 18.316406 10.402344 C 17.890625 10.402344 17.484375 10.234375 17.183594 9.933594 C 16.882812 9.632812 16.714844 9.226562 16.714844 8.804688 C 16.71875 8.558594 16.78125 8.316406 16.894531 8.097656 L 16.863281 8.082031 C 16.730469 8.324219 16.53125 8.527344 16.292969 8.671875 C 16.050781 8.8125 15.78125 8.890625 15.5 8.894531 Z M 16.636719 5.683594 C 16.636719 6.015625 16.738281 6.34375 16.921875 6.617188 C 17.105469 6.894531 17.371094 7.109375 17.675781 7.234375 C 17.984375 7.363281 18.324219 7.394531 18.648438 7.332031 C 18.972656 7.265625 19.273438 7.105469 19.507812 6.871094 C 19.742188 6.632812 19.902344 6.335938 19.96875 6.007812 C 20.03125 5.683594 20 5.34375 19.871094 5.039062 C 19.746094 4.730469 19.527344 4.46875 19.253906 4.28125 C 18.976562 4.097656 18.652344 4 18.320312 4 C 18.097656 4 17.878906 4.042969 17.675781 4.128906 C 17.472656 4.214844 17.285156 4.339844 17.128906 4.496094 C 16.972656 4.652344 16.851562 4.835938 16.765625 5.042969 C 16.683594 5.246094 16.640625 5.464844 16.640625 5.683594 Z M 7.914062 18.308594 L 7.089844 17.488281 L 14.226562 10.359375 C 13.96875 10.261719 13.722656 10.125 13.503906 9.953125 L 6.523438 16.921875 L 5.691406 16.089844 C 6.699219 14.035156 7.429688 11.851562 7.859375 9.601562 C 7.640625 9.632812 7.421875 9.652344 7.199219 9.65625 C 7.132812 9.65625 7.082031 9.644531 7.019531 9.640625 C 6.570312 11.632812 5.894531 13.566406 5.007812 15.410156 L 4.414062 14.816406 C 4.371094 14.769531 4.3125 14.738281 4.253906 14.71875 C 4.191406 14.699219 4.125 14.695312 4.0625 14.710938 C 4 14.722656 3.941406 14.75 3.890625 14.789062 C 3.839844 14.832031 3.800781 14.882812 3.777344 14.941406 L 0.371094 23.113281 C 0.355469 23.15625 0.34375 23.207031 0.34375 23.253906 C 0.34375 23.359375 0.386719 23.460938 0.460938 23.539062 C 0.535156 23.613281 0.636719 23.65625 0.742188 23.65625 C 0.796875 23.652344 0.851562 23.644531 0.902344 23.625 L 9.0625 20.226562 C 9.125 20.199219 9.175781 20.160156 9.214844 20.113281 C 9.257812 20.0625 9.285156 20.003906 9.296875 19.9375 C 9.308594 19.875 9.304688 19.8125 9.289062 19.75 C 9.269531 19.6875 9.234375 19.632812 9.191406 19.585938 L 8.59375 18.992188 C 10.4375 18.105469 12.378906 17.429688 14.375 16.980469 C 14.375 16.886719 14.351562 16.8125 14.351562 16.714844 C 14.355469 16.523438 14.375 16.332031 14.398438 16.140625 C 12.152344 16.574219 9.96875 17.300781 7.914062 18.308594 Z M 7.914062 18.308594 "/>
</svg>
