<?xml version="1.0" encoding="UTF-8"?>
<svg xmlns="http://www.w3.org/2000/svg" xmlns:xlink="http://www.w3.org/1999/xlink" width="24" height="24" viewBox="0 0 24 24">
<path fill-rule="nonzero" fill="rgb(0%, 0%, 0%)" fill-opacity="1" d="M 17.136719 4.800781 L 12.558594 0.238281 C 12.25 -0.0742188 11.742188 -0.0742188 11.429688 0.234375 L 6.863281 4.800781 L 2.398438 4.800781 C 1.957031 4.800781 1.601562 5.160156 1.601562 5.601562 L 1.601562 20 C 1.601562 20.441406 1.957031 20.800781 2.398438 20.800781 L 21.601562 20.800781 C 22.042969 20.800781 22.398438 20.441406 22.398438 20 L 22.398438 5.601562 C 22.398438 5.160156 22.042969 4.800781 21.601562 4.800781 Z M 12 1.9375 L 14.863281 4.800781 L 9.136719 4.800781 Z M 20.800781 19.199219 L 3.199219 19.199219 L 3.199219 6.398438 L 20.800781 6.398438 Z M 8 11.199219 C 7.117188 11.199219 6.398438 10.484375 6.398438 9.601562 C 6.398438 8.714844 7.117188 8 8 8 C 8.882812 8 9.601562 8.714844 9.601562 9.601562 C 9.601562 10.484375 8.882812 11.199219 8 11.199219 Z M 19.199219 17.601562 L 7.199219 17.601562 L 9.601562 12.800781 L 11.601562 16.800781 L 15.199219 9.601562 Z M 19.199219 17.601562 "/>
</svg>
