<?xml version="1.0" encoding="UTF-8"?>
<svg xmlns="http://www.w3.org/2000/svg" xmlns:xlink="http://www.w3.org/1999/xlink" width="24" height="24" viewBox="0 0 24 24">
<path fill-rule="nonzero" fill="rgb(0%, 0%, 0%)" fill-opacity="1" d="M 4.800781 8 C 5.984375 8 7.019531 7.355469 7.570312 6.398438 L 19.199219 6.398438 C 20.082031 6.398438 20.800781 5.683594 20.800781 4.800781 C 20.800781 3.917969 20.082031 3.199219 19.199219 3.199219 L 7.570312 3.199219 C 7.019531 2.242188 5.984375 1.601562 4.800781 1.601562 C 3.617188 1.601562 2.582031 2.242188 2.027344 3.199219 L 4.800781 3.199219 L 4.800781 6.398438 L 2.027344 6.398438 C 2.582031 7.355469 3.617188 8 4.800781 8 Z M 3.433594 14.964844 C 3.285156 15.117188 3.199219 15.320312 3.199219 15.53125 L 3.199219 21.601562 C 3.199219 22.042969 3.558594 22.398438 4 22.398438 L 6.398438 22.398438 C 6.84375 22.398438 7.199219 22.042969 7.199219 21.601562 L 7.199219 20.800781 L 16.800781 20.800781 L 16.800781 21.601562 C 16.800781 22.042969 17.160156 22.398438 17.601562 22.398438 L 20 22.398438 C 20.441406 22.398438 20.800781 22.042969 20.800781 21.601562 L 20.800781 15.53125 C 20.800781 15.320312 20.714844 15.117188 20.566406 14.964844 L 19.199219 13.601562 L 17.03125 9.988281 C 16.886719 9.746094 16.628906 9.601562 16.347656 9.601562 L 7.652344 9.601562 C 7.371094 9.601562 7.113281 9.746094 6.96875 9.988281 L 4.800781 13.601562 Z M 17.8125 14.398438 L 6.1875 14.398438 L 8.105469 11.199219 L 15.894531 11.199219 Z M 8.800781 17.324219 L 8.800781 17.921875 C 8.800781 18.183594 8.585938 18.398438 8.320312 18.398438 L 5.28125 18.398438 C 5.015625 18.398438 4.800781 18.183594 4.800781 17.921875 L 4.800781 16.585938 C 4.800781 16.28125 5.078125 16.054688 5.375 16.113281 L 8.285156 16.695312 C 8.585938 16.757812 8.800781 17.019531 8.800781 17.324219 Z M 19.199219 16.78125 L 19.199219 17.921875 C 19.199219 18.183594 18.984375 18.398438 18.71875 18.398438 L 15.679688 18.398438 C 15.414062 18.398438 15.199219 18.183594 15.199219 17.921875 L 15.199219 17.195312 C 15.199219 16.964844 15.363281 16.769531 15.585938 16.722656 L 18.433594 16.152344 C 18.832031 16.074219 19.199219 16.375 19.199219 16.78125 Z M 19.199219 16.78125 "/>
</svg>
