<?xml version="1.0" encoding="UTF-8"?>
<svg xmlns="http://www.w3.org/2000/svg" xmlns:xlink="http://www.w3.org/1999/xlink" width="24" height="24" viewBox="0 0 24 24">
<path fill-rule="nonzero" fill="rgb(0%, 0%, 0%)" fill-opacity="1" d="M 0.800781 4 C 0.320312 4 0 4.320312 0 4.800781 L 0 20 C 0 20.480469 0.320312 20.800781 0.800781 20.800781 C 1.28125 20.800781 1.601562 20.480469 1.601562 20 L 1.601562 17.601562 L 22.398438 17.601562 L 22.398438 20 C 22.398438 20.480469 22.71875 20.800781 23.199219 20.800781 C 23.679688 20.800781 24 20.480469 24 20 L 24 16.800781 C 24 16.320312 23.679688 16 23.199219 16 L 1.601562 16 L 1.601562 4.800781 C 1.601562 4.320312 1.28125 4 0.800781 4 Z M 5.601562 4.800781 C 4.320312 4.800781 3.199219 5.921875 3.199219 7.199219 C 3.199219 8.480469 4.320312 9.601562 5.601562 9.601562 C 6.878906 9.601562 8 8.480469 8 7.199219 C 8 5.921875 6.878906 4.800781 5.601562 4.800781 Z M 11.199219 6.398438 C 8.800781 6.398438 8.800781 8.800781 8.800781 8.800781 L 8.800781 11.199219 L 4 11.199219 C 3.519531 11.199219 3.199219 11.519531 3.199219 12 L 3.199219 13.601562 C 3.199219 14.078125 3.519531 14.398438 4 14.398438 L 24 14.398438 L 24 10.398438 C 24 6.398438 20 6.398438 20 6.398438 Z M 11.199219 6.398438 "/>
</svg>
