<?xml version="1.0" encoding="UTF-8"?>
<svg xmlns="http://www.w3.org/2000/svg" xmlns:xlink="http://www.w3.org/1999/xlink" width="24" height="24" viewBox="0 0 24 24">
<path fill-rule="nonzero" fill="rgb(0%, 0%, 0%)" fill-opacity="1" d="M 6.285156 4 L 4 7.429688 C 4 8.621094 4.261719 9.714844 6 9.714844 C 7.738281 9.714844 7.996094 8.570312 8 7.429688 L 9.429688 4 Z M 10.855469 4 L 10 7.429688 C 10 8.589844 10.183594 9.714844 12 9.714844 C 13.816406 9.714844 13.996094 8.542969 14 7.429688 L 13.144531 4 Z M 14.570312 4 L 16 7.429688 C 16 8.597656 16.371094 9.714844 18 9.714844 C 19.628906 9.714844 20 8.550781 20 7.429688 L 17.714844 4 Z M 5.144531 10.855469 L 5.144531 20 L 18.855469 20 L 18.855469 10.855469 Z M 8.570312 13.144531 L 15.429688 13.144531 C 16.074219 13.144531 16.570312 13.71875 16.570312 14.285156 L 16.570312 16.570312 L 7.429688 16.570312 L 7.429688 14.285156 C 7.429688 13.667969 8.007812 13.144531 8.570312 13.144531 Z M 8.570312 13.144531 "/>
</svg>
