<?xml version="1.0" encoding="UTF-8"?>
<svg xmlns="http://www.w3.org/2000/svg" xmlns:xlink="http://www.w3.org/1999/xlink" width="24" height="24" viewBox="0 0 24 24">
<path fill-rule="nonzero" fill="rgb(0%, 0%, 0%)" fill-opacity="1" d="M 12.800781 1.601562 L 9.601562 4.800781 L 4.800781 4.800781 C 4.800781 4.800781 3.199219 4.800781 3.199219 6.398438 L 3.199219 20.800781 C 3.199219 22.398438 4.800781 22.398438 4.800781 22.398438 L 19.199219 22.398438 C 19.199219 22.398438 20.800781 22.398438 20.800781 20.800781 L 20.800781 3.199219 C 20.800781 1.601562 19.199219 1.601562 19.199219 1.601562 Z M 13.601562 3.199219 L 16.800781 3.199219 C 17.242188 3.199219 17.601562 3.558594 17.601562 4 C 17.601562 4.441406 17.242188 4.800781 16.800781 4.800781 L 13.601562 4.800781 C 13.15625 4.800781 12.800781 4.441406 12.800781 4 C 12.800781 3.558594 13.15625 3.199219 13.601562 3.199219 Z M 12 9.601562 C 14.652344 9.601562 16.800781 11.75 16.800781 14.398438 C 16.800781 17.050781 14.652344 19.199219 12 19.199219 C 9.347656 19.199219 7.199219 17.050781 7.199219 14.398438 C 7.199219 11.75 9.347656 9.601562 12 9.601562 Z M 12 9.601562 "/>
</svg>
