<?xml version="1.0" encoding="UTF-8"?>
<svg xmlns="http://www.w3.org/2000/svg" xmlns:xlink="http://www.w3.org/1999/xlink" width="24" height="24" viewBox="0 0 24 24">
<path fill-rule="nonzero" fill="rgb(0%, 0%, 0%)" fill-opacity="1" d="M 1.730469 15.902344 C 1.578125 15.789062 1.601562 15.597656 1.601562 15.597656 L 2.441406 5.601562 C 2.441406 5.601562 2.453125 5.488281 2.503906 5.433594 C 2.535156 5.398438 2.574219 5.347656 2.648438 5.316406 C 3.492188 4.972656 8.085938 2.484375 10.398438 4.800781 C 10.785156 5.246094 11.199219 5.898438 11.199219 6.398438 L 11.199219 14.859375 C 11.199219 14.859375 11.210938 15.039062 11.046875 15.148438 C 11.007812 15.175781 10.847656 15.246094 10.660156 15.152344 C 7.101562 13.371094 3.121094 15.398438 2.121094 15.933594 C 1.917969 16.039062 1.761719 15.925781 1.730469 15.902344 Z M 21.878906 15.933594 C 20.878906 15.398438 16.898438 13.371094 13.339844 15.152344 C 13.152344 15.246094 12.992188 15.175781 12.953125 15.148438 C 12.789062 15.039062 12.800781 14.859375 12.800781 14.859375 L 12.800781 6.398438 C 12.800781 5.898438 13.214844 5.246094 13.601562 4.800781 C 15.914062 2.484375 20.480469 4.972656 21.324219 5.316406 C 21.398438 5.347656 21.4375 5.398438 21.46875 5.433594 C 21.515625 5.488281 21.527344 5.601562 21.527344 5.601562 L 22.398438 15.597656 C 22.398438 15.597656 22.421875 15.789062 22.269531 15.902344 C 22.238281 15.925781 22.082031 16.039062 21.878906 15.933594 Z M 14.183594 20.296875 C 14.238281 20.285156 14.335938 20.226562 14.371094 20.175781 C 14.410156 20.117188 14.433594 20.074219 14.441406 20 C 14.519531 18.5 17.039062 17.101562 21.875 19.953125 C 22 20.023438 22.144531 20.015625 22.265625 19.925781 C 22.402344 19.828125 22.398438 19.65625 22.398438 19.65625 L 22.398438 18.769531 C 22.398438 18.769531 22.402344 18.648438 22.355469 18.582031 C 22.324219 18.53125 22.28125 18.476562 22.207031 18.445312 C 18.96875 16.339844 14.871094 15.410156 12.792969 18.1875 C 12.761719 18.257812 12.734375 18.289062 12.675781 18.335938 C 12.585938 18.40625 12.472656 18.398438 12.472656 18.398438 L 11.539062 18.398438 C 11.539062 18.398438 11.425781 18.40625 11.335938 18.335938 C 11.277344 18.289062 11.25 18.257812 11.21875 18.1875 C 9.140625 15.410156 5.042969 16.296875 1.804688 18.398438 C 1.730469 18.433594 1.6875 18.488281 1.65625 18.539062 C 1.609375 18.605469 1.613281 18.726562 1.613281 18.726562 L 1.613281 19.613281 C 1.613281 19.613281 1.609375 19.78125 1.746094 19.882812 C 1.867188 19.972656 2.011719 19.980469 2.136719 19.910156 C 6.972656 17.058594 9.492188 18.5 9.570312 20 C 9.578125 20.074219 9.601562 20.117188 9.640625 20.175781 C 9.675781 20.226562 9.773438 20.285156 9.828125 20.296875 C 10.984375 20.585938 12.65625 20.699219 14.183594 20.296875 Z M 14.183594 20.296875 "/>
</svg>
