<?xml version="1.0" encoding="UTF-8"?>
<svg xmlns="http://www.w3.org/2000/svg" xmlns:xlink="http://www.w3.org/1999/xlink" width="24" height="24" viewBox="0 0 24 24">
<path fill-rule="nonzero" fill="rgb(0%, 0%, 0%)" fill-opacity="1" d="M 21.328125 8 L 18.398438 8 L 17.777344 4.273438 C 17.519531 3.121094 16.652344 2.207031 15.519531 1.886719 C 14.960938 1.707031 14.378906 1.609375 13.792969 1.601562 L 10.207031 1.601562 C 9.621094 1.609375 9.039062 1.707031 8.480469 1.886719 C 7.347656 2.207031 6.480469 3.121094 6.222656 4.273438 L 5.601562 8 L 2.671875 8 C 2.230469 7.996094 1.871094 8.351562 1.867188 8.796875 C 1.867188 8.878906 1.878906 8.960938 1.902344 9.039062 L 4.910156 19.121094 C 5.226562 20.121094 6.152344 20.800781 7.199219 20.800781 L 16.800781 20.800781 C 17.839844 20.792969 18.757812 20.113281 19.070312 19.121094 L 22.078125 9.039062 C 22.210938 8.617188 21.976562 8.167969 21.558594 8.035156 C 21.484375 8.011719 21.40625 8 21.328125 8 Z M 7.230469 8 L 7.808594 4.527344 C 7.9375 3.949219 8.40625 3.503906 8.992188 3.40625 C 9.386719 3.285156 9.796875 3.214844 10.207031 3.199219 L 13.792969 3.199219 C 14.210938 3.210938 14.625 3.28125 15.023438 3.40625 C 15.609375 3.503906 16.078125 3.949219 16.207031 4.527344 L 16.769531 8 L 7.167969 8 Z M 7.230469 8 "/>
</svg>
