<?xml version="1.0" encoding="UTF-8"?>
<svg xmlns="http://www.w3.org/2000/svg" xmlns:xlink="http://www.w3.org/1999/xlink" width="24" height="24" viewBox="0 0 24 24">
<path fill-rule="nonzero" fill="rgb(0%, 0%, 0%)" fill-opacity="1" d="M 7.429688 6.285156 C 6.285156 6.285156 5.144531 7.429688 5.144531 8.570312 C 7.429688 8.570312 8.570312 10.371094 8.570312 12 L 15.429688 12 C 15.429688 10.265625 16.570312 8.570312 18.855469 8.570312 C 18.855469 7.429688 17.714844 6.285156 16.570312 6.285156 Z M 5.144531 9.714844 C 4 9.714844 4 10.855469 4 10.855469 C 4 11.449219 4.550781 12 5.144531 12 L 5.144531 15.429688 C 5.144531 16.164062 5.625 16.570312 6.285156 16.570312 L 6.855469 16.570312 C 6.855469 16.570312 6.855469 17.714844 8 17.714844 C 9.144531 17.714844 9.144531 16.570312 9.144531 16.570312 L 14.855469 16.570312 C 14.855469 16.570312 14.855469 17.714844 16 17.714844 C 17.144531 17.714844 17.144531 16.570312 17.144531 16.570312 L 17.714844 16.570312 C 18.296875 16.570312 18.855469 16.019531 18.855469 15.429688 L 18.855469 12 C 19.421875 12 20 11.558594 20 10.855469 C 20 10.855469 20 9.714844 18.855469 9.714844 C 17.714844 9.714844 16.570312 10.855469 16.570312 13.144531 L 7.429688 13.144531 C 7.429688 10.855469 6.285156 9.714844 5.144531 9.714844 Z M 5.144531 9.714844 "/>
</svg>
