<?xml version="1.0" encoding="UTF-8"?>
<svg xmlns="http://www.w3.org/2000/svg" xmlns:xlink="http://www.w3.org/1999/xlink" width="24" height="24" viewBox="0 0 24 24">
<path fill-rule="nonzero" fill="rgb(0%, 0%, 0%)" fill-opacity="1" d="M 2.855469 6.097656 C 3.253906 5.304688 4.066406 4.800781 4.957031 4.800781 C 5.582031 4.800781 6.179688 5.046875 6.621094 5.488281 L 7.765625 6.632812 C 8.078125 6.945312 8.078125 7.453125 7.765625 7.765625 C 7.453125 8.078125 6.945312 8.078125 6.632812 7.765625 L 5.488281 6.621094 C 5.347656 6.480469 5.15625 6.398438 4.957031 6.398438 C 4.675781 6.398438 4.414062 6.558594 4.285156 6.816406 L 2.09375 11.199219 L 8.394531 11.199219 C 9.703125 11.199219 10.796875 12.105469 11.105469 13.320312 C 11.382812 13.253906 11.679688 13.199219 12 13.199219 C 12.320312 13.199219 12.617188 13.253906 12.894531 13.320312 C 13.203125 12.105469 14.296875 11.199219 15.601562 11.199219 L 21.90625 11.199219 L 19.714844 6.816406 C 19.585938 6.558594 19.324219 6.398438 19.042969 6.398438 C 18.84375 6.398438 18.652344 6.480469 18.511719 6.621094 L 17.367188 7.765625 C 17.054688 8.078125 16.546875 8.078125 16.234375 7.765625 C 15.921875 7.453125 15.921875 6.945312 16.234375 6.632812 L 17.378906 5.488281 C 17.820312 5.046875 18.417969 4.800781 19.042969 4.800781 C 19.933594 4.800781 20.746094 5.304688 21.144531 6.097656 L 23.90625 11.617188 L 23.90625 11.621094 C 23.964844 11.734375 24 11.863281 24 12 L 24 13.601562 C 24 14.042969 23.640625 14.398438 23.199219 14.398438 L 22.398438 14.398438 L 22.398438 15.199219 C 22.398438 17.742188 20.796875 19.199219 18 19.199219 L 17.199219 19.199219 C 14.402344 19.199219 12.800781 17.742188 12.800781 15.199219 L 12.800781 14.945312 C 12.558594 14.871094 12.269531 14.800781 12 14.800781 C 11.730469 14.800781 11.441406 14.871094 11.199219 14.945312 L 11.199219 15.199219 C 11.199219 17.742188 9.597656 19.199219 6.800781 19.199219 L 6 19.199219 C 3.203125 19.199219 1.601562 17.742188 1.601562 15.199219 L 1.601562 14.398438 L 0.796875 14.398438 C 0.359375 14.398438 0 14.042969 0 13.601562 L 0 12 C 0 11.863281 0.0351562 11.734375 0.09375 11.621094 L 0.09375 11.617188 Z M 15.601562 12.800781 C 14.9375 12.800781 14.398438 13.339844 14.398438 14.003906 L 14.398438 15.199219 C 14.398438 16.316406 14.71875 17.601562 17.199219 17.601562 L 18 17.601562 C 20.480469 17.601562 20.800781 16.316406 20.800781 15.199219 L 20.800781 14.003906 C 20.800781 13.339844 20.257812 12.800781 19.59375 12.800781 Z M 4.40625 12.800781 C 3.742188 12.800781 3.199219 13.339844 3.199219 14.003906 L 3.199219 15.199219 C 3.199219 16.316406 3.519531 17.601562 6 17.601562 L 6.800781 17.601562 C 9.28125 17.601562 9.601562 16.316406 9.601562 15.199219 L 9.601562 14.003906 C 9.601562 13.339844 9.058594 12.800781 8.394531 12.800781 Z M 4.40625 12.800781 "/>
</svg>
