<?xml version="1.0" encoding="UTF-8"?>
<svg xmlns="http://www.w3.org/2000/svg" xmlns:xlink="http://www.w3.org/1999/xlink" width="24" height="24" viewBox="0 0 24 24">
<path fill-rule="nonzero" fill="rgb(0%, 0%, 0%)" fill-opacity="1" d="M 21.601562 5.601562 L 20 5.601562 L 20 4.003906 C 20 3.558594 19.640625 3.199219 19.195312 3.199219 L 2.40625 3.199219 C 1.960938 3.199219 1.601562 3.558594 1.601562 4.003906 L 1.601562 8.796875 C 1.601562 9.238281 1.960938 9.601562 2.40625 9.601562 L 19.195312 9.601562 C 19.640625 9.601562 20 9.238281 20 8.796875 L 20 7.199219 L 20.800781 7.199219 L 20.800781 12.164062 L 11.019531 14.421875 C 10.65625 14.503906 10.398438 14.828125 10.398438 15.199219 L 10.398438 17.613281 C 9.953125 17.644531 9.601562 18.003906 9.601562 18.460938 L 9.601562 23.140625 C 9.601562 23.617188 9.984375 24 10.460938 24 L 11.941406 24 C 12.414062 24 12.800781 23.617188 12.800781 23.140625 L 12.800781 18.460938 C 12.800781 18.003906 12.445312 17.644531 12 17.613281 L 12 15.835938 L 21.78125 13.578125 C 22.140625 13.496094 22.398438 13.171875 22.398438 12.800781 L 22.398438 6.398438 C 22.398438 5.957031 22.042969 5.601562 21.601562 5.601562 Z M 21.601562 5.601562 "/>
</svg>
