<?xml version="1.0" encoding="UTF-8"?>
<svg xmlns="http://www.w3.org/2000/svg" xmlns:xlink="http://www.w3.org/1999/xlink" width="24" height="24" viewBox="0 0 24 24">
<path fill-rule="nonzero" fill="rgb(0%, 0%, 0%)" fill-opacity="1" d="M 15.199219 6.398438 L 16.910156 3.9375 C 17.007812 3.945312 17.105469 3.945312 17.199219 3.9375 C 18.304688 3.933594 19.199219 3.039062 19.199219 1.933594 C 19.199219 0.832031 18.300781 -0.0664062 17.199219 -0.0625 C 16.09375 -0.0625 15.199219 0.832031 15.199219 1.9375 C 15.199219 1.957031 15.199219 1.980469 15.199219 2 C 15.199219 2 15.199219 2.113281 15.199219 2.160156 L 11.199219 6.398438 Z M 19.199219 9.601562 L 19.199219 8 L 4.800781 8 L 4.800781 9.601562 L 7.199219 15.199219 L 4.800781 20.800781 L 4.800781 22.398438 L 19.199219 22.398438 L 19.199219 20.800781 L 17.601562 15.199219 Z M 16 16 L 12.800781 16 L 12.800781 19.199219 L 11.199219 19.199219 L 11.199219 16 L 8 16 L 8 14.398438 L 11.199219 14.398438 L 11.199219 11.199219 L 12.800781 11.199219 L 12.800781 14.398438 L 16 14.398438 Z M 16 16 "/>
</svg>
