<?xml version="1.0" encoding="UTF-8"?>
<svg xmlns="http://www.w3.org/2000/svg" xmlns:xlink="http://www.w3.org/1999/xlink" width="24" height="24" viewBox="0 0 24 24">
<path fill-rule="nonzero" fill="rgb(0%, 0%, 0%)" fill-opacity="1" d="M 21.601562 5.84375 C 21.601562 6.191406 21.425781 6.515625 21.136719 6.710938 L 12 12.800781 L 2.863281 6.710938 C 2.574219 6.515625 2.398438 6.191406 2.398438 5.84375 C 2.398438 5.265625 2.867188 4.800781 3.441406 4.800781 L 20.558594 4.800781 C 21.132812 4.800781 21.601562 5.265625 21.601562 5.84375 Z M 21.601562 9.546875 L 21.601562 17.601562 C 21.601562 18.484375 20.882812 19.199219 20 19.199219 L 4 19.199219 C 3.117188 19.199219 2.398438 18.484375 2.398438 17.601562 L 2.398438 9.546875 C 2.398438 9.226562 2.757812 9.039062 3.023438 9.214844 L 12 15.199219 L 20.976562 9.214844 C 21.242188 9.039062 21.601562 9.226562 21.601562 9.546875 Z M 21.601562 9.546875 "/>
</svg>
