<?xml version="1.0" encoding="UTF-8"?>
<svg xmlns="http://www.w3.org/2000/svg" xmlns:xlink="http://www.w3.org/1999/xlink" width="24" height="24" viewBox="0 0 24 24">
<path fill-rule="nonzero" fill="rgb(0%, 0%, 0%)" fill-opacity="1" d="M 4 4 L 4 5.144531 L 5.144531 5.144531 L 6.285156 16.570312 L 17.714844 16.570312 L 17.714844 15.429688 L 7.429688 15.429688 L 7.285156 14.285156 L 17.714844 14.285156 L 20 7.429688 L 6.679688 7.429688 L 6.285156 4 Z M 7.429688 17.714844 C 6.796875 17.714844 6.285156 18.226562 6.285156 18.855469 C 6.285156 19.488281 6.796875 20 7.429688 20 C 8.058594 20 8.570312 19.488281 8.570312 18.855469 C 8.570312 18.226562 8.058594 17.714844 7.429688 17.714844 Z M 16.570312 17.714844 C 15.941406 17.714844 15.429688 18.226562 15.429688 18.855469 C 15.429688 19.488281 15.941406 20 16.570312 20 C 17.203125 20 17.714844 19.488281 17.714844 18.855469 C 17.714844 18.226562 17.203125 17.714844 16.570312 17.714844 Z M 16.570312 17.714844 "/>
</svg>
