<?xml version="1.0" encoding="UTF-8"?>
<svg xmlns="http://www.w3.org/2000/svg" xmlns:xlink="http://www.w3.org/1999/xlink" width="24" height="24" viewBox="0 0 24 24">
<path fill-rule="nonzero" fill="rgb(0%, 0%, 0%)" fill-opacity="1" d="M 4.800781 2.398438 C 4.800781 3.035156 5.054688 3.648438 5.503906 4.097656 C 5.953125 4.546875 6.5625 4.800781 7.199219 4.800781 C 7.835938 4.800781 8.445312 4.546875 8.898438 4.097656 C 9.347656 3.648438 9.601562 3.035156 9.601562 2.398438 C 9.601562 1.761719 9.347656 1.152344 8.898438 0.703125 C 8.445312 0.253906 7.835938 0 7.199219 0 C 6.5625 0 5.953125 0.253906 5.503906 0.703125 C 5.054688 1.152344 4.800781 1.761719 4.800781 2.398438 Z M 18.398438 0 C 19.035156 0 19.648438 0.253906 20.097656 0.703125 C 20.546875 1.152344 20.800781 1.761719 20.800781 2.398438 C 20.800781 3.035156 20.546875 3.648438 20.097656 4.097656 C 19.648438 4.546875 19.035156 4.800781 18.398438 4.800781 C 17.761719 4.800781 17.152344 4.546875 16.703125 4.097656 C 16.253906 3.648438 16 3.035156 16 2.398438 C 16 1.761719 16.253906 1.152344 16.703125 0.703125 C 17.152344 0.253906 17.761719 0 18.398438 0 Z M 5.265625 6.398438 C 4.980469 6.398438 4.703125 6.476562 4.460938 6.617188 C 4.21875 6.757812 4.015625 6.960938 3.875 7.207031 L 0.90625 12.402344 C 0.851562 12.496094 0.8125 12.597656 0.800781 12.703125 C 0.785156 12.808594 0.789062 12.914062 0.816406 13.019531 C 0.84375 13.121094 0.890625 13.21875 0.957031 13.300781 C 1.019531 13.386719 1.101562 13.457031 1.195312 13.511719 C 1.285156 13.5625 1.386719 13.597656 1.496094 13.609375 C 1.601562 13.625 1.707031 13.613281 1.808594 13.585938 C 1.914062 13.554688 2.007812 13.507812 2.089844 13.441406 C 2.175781 13.375 2.242188 13.289062 2.292969 13.195312 L 4.554688 9.242188 C 3.546875 12.019531 2.5625 14.804688 1.601562 17.601562 L 4.800781 17.601562 L 4.800781 21.601562 C 4.800781 21.8125 4.882812 22.015625 5.035156 22.164062 C 5.183594 22.316406 5.386719 22.398438 5.601562 22.398438 C 5.8125 22.398438 6.015625 22.316406 6.164062 22.164062 C 6.316406 22.015625 6.398438 21.8125 6.398438 21.601562 L 6.398438 17.601562 L 8 17.601562 L 8 21.601562 C 8 21.8125 8.085938 22.015625 8.234375 22.164062 C 8.382812 22.316406 8.585938 22.398438 8.800781 22.398438 C 9.011719 22.398438 9.214844 22.316406 9.367188 22.164062 C 9.515625 22.015625 9.601562 21.8125 9.601562 21.601562 L 9.601562 17.601562 L 12.800781 17.601562 L 9.765625 9.097656 L 12.105469 13.195312 C 12.15625 13.289062 12.226562 13.375 12.308594 13.441406 C 12.390625 13.507812 12.488281 13.554688 12.589844 13.585938 C 12.691406 13.613281 12.800781 13.625 12.90625 13.609375 C 13.011719 13.597656 13.113281 13.5625 13.207031 13.511719 C 13.300781 13.457031 13.378906 13.386719 13.445312 13.300781 C 13.507812 13.21875 13.558594 13.121094 13.582031 13.019531 C 13.609375 12.914062 13.617188 12.808594 13.601562 12.703125 C 13.585938 12.597656 13.550781 12.496094 13.496094 12.402344 L 10.523438 7.207031 C 10.386719 6.960938 10.183594 6.757812 9.9375 6.617188 C 9.695312 6.476562 9.417969 6.398438 9.136719 6.398438 Z M 14.398438 7.199219 C 14.398438 6.988281 14.484375 6.785156 14.632812 6.632812 C 14.785156 6.484375 14.988281 6.398438 15.199219 6.398438 L 21.601562 6.398438 C 21.8125 6.398438 22.015625 6.484375 22.164062 6.632812 C 22.316406 6.785156 22.398438 6.988281 22.398438 7.199219 L 22.398438 15.199219 C 22.398438 15.414062 22.316406 15.617188 22.164062 15.765625 C 22.015625 15.914062 21.8125 16 21.601562 16 C 21.386719 16 21.183594 15.914062 21.035156 15.765625 C 20.882812 15.617188 20.800781 15.414062 20.800781 15.199219 L 20.800781 21.601562 C 20.800781 21.8125 20.714844 22.015625 20.566406 22.164062 C 20.414062 22.316406 20.210938 22.398438 20 22.398438 C 19.789062 22.398438 19.585938 22.316406 19.433594 22.164062 C 19.285156 22.015625 19.199219 21.8125 19.199219 21.601562 L 19.199219 15.199219 L 17.601562 15.199219 L 17.601562 21.601562 C 17.601562 21.8125 17.515625 22.015625 17.367188 22.164062 C 17.214844 22.316406 17.011719 22.398438 16.800781 22.398438 C 16.585938 22.398438 16.382812 22.316406 16.234375 22.164062 C 16.085938 22.015625 16 21.8125 16 21.601562 L 16 15.199219 C 16 15.414062 15.914062 15.617188 15.765625 15.765625 C 15.617188 15.914062 15.414062 16 15.199219 16 C 14.988281 16 14.785156 15.914062 14.632812 15.765625 C 14.484375 15.617188 14.398438 15.414062 14.398438 15.199219 Z M 14.398438 7.199219 "/>
</svg>
