<?xml version="1.0" encoding="UTF-8"?>
<svg xmlns="http://www.w3.org/2000/svg" xmlns:xlink="http://www.w3.org/1999/xlink" width="24" height="24" viewBox="0 0 24 24">
<path fill-rule="nonzero" fill="rgb(0%, 0%, 0%)" fill-opacity="1" d="M 12 9.601562 C 8 9.601562 7.199219 13.246094 7.199219 15.152344 C 6.222656 15.480469 5.304688 15.960938 4.480469 16.574219 C 3.808594 17.085938 3.367188 17.835938 3.246094 18.667969 C 3.128906 19.5 3.339844 20.347656 3.839844 21.023438 C 4.363281 21.683594 5.121094 22.117188 5.953125 22.234375 C 6.785156 22.351562 7.632812 22.148438 8.320312 21.664062 C 9.40625 20.929688 10.6875 20.542969 12 20.558594 C 13.3125 20.542969 14.59375 20.929688 15.679688 21.664062 C 16.339844 22.191406 17.179688 22.4375 18.019531 22.347656 C 18.859375 22.257812 19.628906 21.839844 20.160156 21.183594 C 20.421875 20.875 20.621094 20.515625 20.746094 20.128906 C 20.867188 19.742188 20.914062 19.335938 20.882812 18.933594 C 20.847656 18.527344 20.734375 18.136719 20.546875 17.773438 C 20.363281 17.414062 20.109375 17.09375 19.796875 16.832031 C 19.761719 16.796875 19.71875 16.765625 19.679688 16.734375 L 19.519531 16.574219 C 18.667969 16.003906 17.753906 15.527344 16.800781 15.152344 C 16.800781 13.265625 16 9.601562 12 9.601562 Z M 3.328125 6.878906 C 2.761719 7.164062 2.320312 7.648438 2.097656 8.242188 C 1.871094 8.835938 1.875 9.492188 2.113281 10.078125 C 2.160156 10.71875 2.457031 11.308594 2.941406 11.726562 C 3.421875 12.148438 4.050781 12.359375 4.6875 12.320312 C 5.253906 12.035156 5.695312 11.550781 5.921875 10.957031 C 6.144531 10.363281 6.140625 9.707031 5.902344 9.121094 C 5.855469 8.484375 5.558594 7.890625 5.074219 7.472656 C 4.59375 7.054688 3.964844 6.839844 3.328125 6.878906 Z M 20.6875 6.878906 C 21.253906 7.164062 21.695312 7.648438 21.921875 8.242188 C 22.144531 8.835938 22.140625 9.492188 21.902344 10.078125 C 21.855469 10.71875 21.558594 11.308594 21.074219 11.726562 C 20.59375 12.148438 19.964844 12.359375 19.328125 12.320312 C 18.761719 12.035156 18.320312 11.550781 18.097656 10.957031 C 17.871094 10.363281 17.875 9.707031 18.113281 9.121094 C 18.160156 8.484375 18.457031 7.890625 18.941406 7.472656 C 19.421875 7.054688 20.050781 6.839844 20.6875 6.878906 Z M 8.128906 2.078125 C 7.039062 2.222656 6.527344 3.582031 6.910156 5.070312 C 6.996094 5.710938 7.300781 6.304688 7.769531 6.75 C 8.238281 7.195312 8.84375 7.46875 9.488281 7.519531 C 10.574219 7.375 11.089844 6.015625 10.703125 4.527344 C 10.617188 3.886719 10.316406 3.296875 9.847656 2.851562 C 9.378906 2.40625 8.773438 2.132812 8.128906 2.078125 Z M 15.886719 2.078125 C 16.976562 2.222656 17.488281 3.582031 17.105469 5.070312 C 17.019531 5.714844 16.714844 6.308594 16.242188 6.753906 C 15.769531 7.199219 15.160156 7.472656 14.511719 7.519531 C 13.425781 7.390625 12.910156 6.015625 13.296875 4.527344 C 13.382812 3.882812 13.6875 3.289062 14.15625 2.84375 C 14.628906 2.398438 15.242188 2.128906 15.886719 2.078125 Z M 15.886719 2.078125 "/>
</svg>
