<?xml version="1.0" encoding="UTF-8"?>
<svg xmlns="http://www.w3.org/2000/svg" xmlns:xlink="http://www.w3.org/1999/xlink" width="28" height="28" viewBox="0 0 28 28">
<path fill-rule="nonzero" fill="rgb(6.666667%, 6.666667%, 6.666667%)" fill-opacity="1" stroke-width="3.408" stroke-linecap="butt" stroke-linejoin="miter" stroke="rgb(93.333333%, 93.333333%, 93.333333%)" stroke-opacity="1" stroke-miterlimit="4" d="M 66.269531 1.780134 C 24.921875 1.780134 1.699219 23.141741 1.699219 66.835938 L 1.699219 516.967076 C 1.699219 557.748326 22.575335 579.190848 63.922991 579.190848 L 515.915179 579.190848 C 557.262835 579.190848 578.138951 558.881138 578.138951 516.967076 L 578.138951 66.835938 C 578.138951 24.193638 557.262835 1.780134 514.620536 1.780134 C 514.620536 1.780134 66.107701 1.618304 66.269531 1.780134 Z M 66.269531 1.780134 " transform="matrix(0.0482759, 0, 0, 0.0482759, 0, 0)"/>
<path fill-rule="nonzero" fill="rgb(100%, 100%, 100%)" fill-opacity="1" stroke-width="4.715513" stroke-linecap="butt" stroke-linejoin="miter" stroke="rgb(100%, 100%, 100%)" stroke-opacity="1" stroke-miterlimit="4" d="M 267.991071 50.733817 C 266.615513 50.733817 265.239955 50.814732 264.026228 50.895647 C 257.876674 51.381138 250.189732 53.323103 247.276786 55.184152 C 246.063058 55.912388 243.554688 57.449777 241.774554 58.420759 C 237.081473 61.171875 225.834263 73.390067 220.817522 81.319754 C 217.580915 86.336496 214.101562 92.162388 212.887835 94.266183 C 212.645089 94.751674 211.107701 97.017299 209.489397 99.282924 C 207.871094 101.467634 206.010045 104.542411 205.200893 105.998884 C 204.391741 107.455357 203.582589 108.669085 203.339844 108.75 C 203.097098 108.75 201.640625 110.93471 200.022321 113.523996 C 192.901786 125.013951 184.082031 135.856585 180.602679 137.474888 C 175.909598 139.578683 167.979911 146.861049 163.529576 153.091518 C 161.911272 155.276228 159.241071 158.998326 157.541853 161.263951 C 153.819754 166.361607 147.670201 176.88058 145.566406 181.897321 C 144.676339 183.920201 143.219866 187.399554 142.329799 189.503348 C 140.387835 194.034598 137.070312 203.097098 136.908482 204.472656 C 136.827567 204.958147 136.342076 206.738281 135.77567 208.356585 C 135.290179 209.974888 134.561942 212.564174 134.157366 214.101562 C 133.75279 215.719866 132.781808 219.280134 132.053571 222.19308 C 131.24442 225.025112 130.516183 228.261719 130.273438 229.313616 C 130.111607 230.446429 129.868862 231.417411 129.787946 231.498326 C 129.626116 231.660156 128.493304 236.757812 127.603237 241.936384 C 127.441406 242.907366 127.198661 243.878348 127.03683 244.040179 C 126.71317 244.444754 124.123884 262.488839 124.285714 263.459821 C 124.366629 264.026228 124.366629 264.592634 124.204799 264.754464 C 124.123884 264.916295 123.800223 266.858259 123.638393 269.042969 C 123.476562 271.308594 123.233817 273.978795 123.152902 275.111607 C 123.071987 276.163504 122.910156 278.510045 122.829241 280.209263 C 122.748326 281.908482 122.50558 284.255022 122.424665 285.46875 C 122.18192 288.786272 122.020089 290.566406 122.020089 293.074777 C 121.939174 294.288504 121.858259 295.340402 121.777344 295.421317 C 121.615513 295.664062 121.210938 305.131138 121.291853 307.558594 C 121.372768 308.853237 121.453683 310.714286 121.453683 311.685268 C 121.615513 321.314174 122.748326 333.208705 124.609375 345.345982 C 125.742188 352.628348 126.389509 359.101562 126.308594 362.580915 C 126.308594 365.493862 126.308594 365.493862 124.933036 365.089286 C 124.204799 364.84654 122.50558 364.037388 121.130022 363.309152 C 119.754464 362.580915 117.65067 361.690848 116.517857 361.367188 C 115.304129 361.043527 114.171317 360.638951 114.009487 360.477121 C 113.766741 360.234375 111.177455 359.667969 108.183594 359.182478 C 105.189732 358.696987 102.114955 357.96875 101.467634 357.645089 C 99.040179 356.512277 92.162388 354.974888 88.683036 354.732143 C 81.077009 354.165737 73.228237 356.997768 70.477121 361.286272 C 68.049665 365.008371 66.512277 371.157924 66.916853 375.689174 C 67.483259 381.919643 70.881696 394.704241 72.33817 396.079799 C 72.419085 396.160714 72.823661 396.969866 73.066406 397.859933 C 73.632812 399.478237 75.574777 402.714844 78.811384 407.488839 C 79.782366 409.026228 80.834263 410.806362 81.077009 411.372768 C 81.5625 412.50558 86.336496 419.05971 93.780692 428.526786 C 95.884487 431.277902 98.069196 434.190848 98.635603 434.919085 C 99.040179 435.485491 104.05692 440.178571 110.93471 446.570871 C 129.22154 445.680804 148.964844 445.680804 168.141741 447.622768 C 233.27846 454.095982 263.621652 456.280692 324.388951 447.622768 C 337.49721 445.761719 351.900112 443.981585 366.707589 442.444196 C 373.180804 440.421317 377.954799 438.641183 381.919643 436.861049 C 383.214286 436.294643 385.31808 435.404576 386.531808 435 C 393.652344 432.329799 409.99721 423.105469 416.065848 418.331473 C 417.684152 417.03683 419.626116 415.661272 420.354353 415.256696 C 423.833705 413.395647 428.526786 409.107143 436.537388 400.449219 C 445.195312 391.063058 445.357143 390.739397 450.454799 381.515067 C 454.015067 375.041853 466.233259 362.33817 473.272879 357.80692 C 474.243862 357.240513 476.266741 355.78404 477.885045 354.570312 C 482.739955 350.767299 485.571987 348.74442 487.19029 347.692522 C 488.080357 347.207031 489.375 346.236049 490.184152 345.588728 C 490.912388 344.941406 492.692522 343.484933 494.148996 342.433036 C 507.014509 332.96596 516.319754 324.308036 520.608259 317.753906 C 523.116629 313.789062 524.896763 308.610491 526.029576 301.40904 C 526.838728 295.906808 526.838728 295.259487 525.46317 287.977121 C 523.602121 278.024554 519.880022 267.748326 516.319754 262.8125 C 510.979353 255.287388 507.66183 252.131696 499.408482 246.710379 C 495.929129 244.444754 488.161272 240.884487 486.623884 240.803571 C 486.057478 240.803571 485.410156 240.641741 485.167411 240.398996 C 484.924665 240.15625 481.445312 239.508929 477.480469 239.023438 C 473.515625 238.457031 470.117188 237.890625 469.955357 237.728795 C 469.227121 237.081473 478.451451 228.666295 480.959821 227.776228 C 482.173549 227.290737 483.791853 228.099888 487.433036 230.851004 C 489.941406 232.792969 491.72154 233.197545 494.06808 232.469308 C 494.958147 232.226562 499.974888 230.93192 505.396205 229.556362 C 519.718192 226.157924 520.446429 225.915179 520.608259 225.186942 C 520.851004 224.296875 519.960938 223.002232 514.135045 216.124442 C 511.222098 212.645089 508.470982 209.327567 507.985491 208.680246 C 504.910714 204.877232 496.333705 196.462054 478.289621 179.550781 C 455.228795 157.946429 392.438616 100.092076 390.092076 98.311942 C 389.282924 97.745536 383.861607 93.052455 378.197545 87.954799 C 361.771763 73.390067 342.02846 57.126116 337.254464 54.294085 C 334.988839 52.999442 334.746094 53.242188 334.017857 58.016183 C 333.694196 60.119978 332.723214 63.761161 331.994978 66.188616 C 329.405692 73.956473 328.030134 78.892299 327.949219 80.510603 C 327.787388 82.533482 329.729353 86.336496 332.561384 89.330357 C 333.775112 90.625 334.827009 92.081473 334.907924 92.486049 C 335.069754 94.023438 332.723214 97.988281 328.920201 102.600446 C 325.117188 107.131696 325.117188 107.212612 324.874442 105.189732 C 324.388951 101.305804 322.042411 89.734933 321.476004 88.197545 C 319.37221 82.776228 314.598214 75.655692 308.934152 69.587054 C 304.645647 64.893973 294.53125 57.854353 288.462612 55.265067 C 284.578683 53.565848 279.076451 51.866629 278.75279 52.271205 C 278.59096 52.352121 278.105469 52.271205 277.619978 52.02846 C 276.40625 51.300223 272.117746 50.814732 267.991071 50.733817 Z M 273.331473 67.240513 C 277.377232 67.159598 281.827567 68.049665 285.226004 69.829799 C 288.624442 71.609933 289.190848 72.095424 293.641183 76.383929 C 298.253348 80.915179 298.496094 81.157924 300.357143 84.880022 C 303.998326 92.000558 305.454799 97.664621 305.373884 104.05692 C 305.292969 108.75 303.917411 117.165179 303.189174 117.97433 C 302.865513 118.378906 302.541853 119.026228 302.460938 119.511719 C 302.218192 121.453683 299.305246 126.227679 296.473214 129.383371 C 292.993862 133.105469 292.912946 133.186384 285.954241 133.75279 C 272.279576 134.966518 266.615513 134.561942 250.998884 131.163504 C 248.166853 130.597098 245.092076 129.949777 244.282924 129.787946 C 243.392857 129.545201 240.884487 128.978795 238.780692 128.493304 C 236.595982 127.926897 233.44029 127.360491 231.821987 127.117746 C 230.203683 126.955915 228.342634 126.551339 227.695312 126.227679 C 226.157924 125.661272 225.834263 125.256696 225.753348 124.285714 C 225.591518 123.152902 227.290737 118.621652 228.585379 116.598772 C 229.718192 114.899554 232.064732 110.772879 233.844866 107.374442 C 234.330357 106.322545 235.78683 103.895089 237.081473 101.953125 C 238.295201 99.930246 240.15625 96.855469 241.289062 94.99442 C 248.571429 82.371652 258.766741 71.933594 266.777344 68.454241 C 268.638393 67.726004 270.904018 67.321429 273.331473 67.240513 Z M 479.098772 260.46596 C 487.109375 260.62779 494.715402 262.893415 499.813058 267.101004 C 504.344308 270.823103 507.823661 276.163504 508.632812 280.694754 C 509.441964 285.226004 508.309152 293.479353 506.286272 298.496094 C 504.748884 302.299107 504.506138 302.703683 498.113839 309.662388 C 492.935268 315.245536 490.750558 317.268415 488.242188 318.886719 C 486.462054 320.100446 483.710938 321.88058 482.254464 322.932478 C 480.797991 323.90346 477.96596 325.845424 475.94308 327.059152 C 474.001116 328.353795 470.926339 330.295759 469.308036 331.428571 C 464.938616 334.341518 459.193638 337.254464 457.170759 337.578125 C 454.905134 337.901786 454.743304 337.739955 454.500558 334.907924 C 454.338728 332.723214 450.697545 317.834821 449.241071 313.222656 C 448.108259 309.581473 445.518973 297.120536 445.033482 292.670201 C 443.819754 280.856585 447.946429 270.256696 455.47154 266.049107 C 462.511161 262.084263 471.007254 260.304129 479.098772 260.46596 Z M 479.098772 260.46596 " transform="matrix(0.0482759, 0, 0, 0.0482759, 0, 0)"/>
<path fill="none" stroke-width="40" stroke-linecap="square" stroke-linejoin="bevel" stroke="rgb(100%, 100%, 100%)" stroke-opacity="1" stroke-miterlimit="4" d="M 55.912388 502.645089 C 81.72433 498.59933 128.655134 493.178013 172.511161 497.547433 C 237.647879 504.020647 267.991071 506.205357 328.758371 497.547433 C 382.405134 489.860491 456.442522 483.872768 501.350446 487.109375 " transform="matrix(0.0482759, 0, 0, 0.0482759, 0, 0)"/>
</svg>
