<?xml version="1.0" encoding="UTF-8"?>
<svg xmlns="http://www.w3.org/2000/svg" xmlns:xlink="http://www.w3.org/1999/xlink" width="28" height="28" viewBox="0 0 28 28">
<path fill-rule="nonzero" fill="rgb(6.666667%, 6.666667%, 6.666667%)" fill-opacity="1" stroke-width="3.408" stroke-linecap="butt" stroke-linejoin="miter" stroke="rgb(93.333333%, 93.333333%, 93.333333%)" stroke-opacity="1" stroke-miterlimit="4" d="M 66.269531 1.780134 C 24.921875 1.780134 1.699219 23.141741 1.699219 66.835938 L 1.699219 516.967076 C 1.699219 557.748326 22.575335 579.190848 63.922991 579.190848 L 515.915179 579.190848 C 557.262835 579.190848 578.138951 558.881138 578.138951 516.967076 L 578.138951 66.835938 C 578.138951 24.193638 557.262835 1.780134 514.620536 1.780134 C 514.620536 1.780134 66.107701 1.618304 66.269531 1.780134 Z M 66.269531 1.780134 " transform="matrix(0.0482759, 0, 0, 0.0482759, 0, 0)"/>
<path fill-rule="nonzero" fill="rgb(100%, 100%, 100%)" fill-opacity="1" stroke-width="5.362806" stroke-linecap="butt" stroke-linejoin="miter" stroke="rgb(100%, 100%, 100%)" stroke-opacity="1" stroke-miterlimit="4" d="M 243.878348 546.824777 C 242.907366 546.582031 238.861607 545.93471 234.977679 545.287388 C 221.464844 543.021763 212.402344 541.322545 211.107701 540.675223 C 210.460379 540.351562 208.194754 539.704241 206.171875 539.21875 C 199.779576 537.681362 195.733817 536.467634 193.953683 535.577567 C 193.063616 535.092076 192.173549 534.6875 191.930804 534.6875 C 189.665179 534.6875 176.961496 526.515067 171.702009 521.741071 C 167.898996 518.261719 164.419643 511.950335 163.610491 507.014509 C 162.639509 501.269531 166.928013 492.854353 173.724888 487.433036 C 176.88058 485.00558 183.839286 481.040737 186.671317 480.069754 C 187.561384 479.827009 190.636161 478.046875 193.468192 476.185826 C 196.381138 474.243862 199.051339 472.706473 199.375 472.706473 C 199.698661 472.706473 200.912388 472.220982 202.207031 471.573661 C 203.420759 470.926339 205.848214 470.117188 207.547433 469.631696 C 209.246652 469.227121 211.269531 468.498884 212.078683 468.175223 C 213.535156 467.446987 213.535156 467.446987 211.350446 465.019531 C 208.680246 462.02567 203.097098 457.170759 196.542969 451.911272 C 185.61942 443.172433 175.585938 434.190848 168.060826 426.261161 C 167.251674 425.452009 165.714286 423.914621 164.662388 422.862723 C 162.720424 420.920759 155.761719 412.667411 155.761719 412.34375 C 155.761719 412.18192 155.033482 411.291853 154.0625 410.239955 C 152.201451 408.055246 150.987723 406.517857 148.641183 403.523996 C 147.751116 402.472098 146.051897 400.287388 144.83817 398.830915 C 143.624442 397.293527 142.006138 395.270647 141.196987 394.299665 C 140.46875 393.328683 138.526786 390.820312 136.989397 388.878348 C 135.452009 386.855469 134.157366 385.075335 134.157366 384.832589 C 134.157366 384.589844 133.75279 384.104353 133.267299 383.699777 C 132.296317 382.97154 120.563616 365.898438 120.563616 365.332031 C 120.563616 365.170201 119.99721 364.118304 119.349888 363.147321 C 116.113281 358.049665 113.11942 353.032924 113.11942 352.790179 C 113.11942 352.628348 112.553013 351.576451 111.905692 350.524554 C 111.258371 349.472656 109.397321 346.236049 107.859933 343.242188 C 106.241629 340.248326 104.299665 336.445312 103.409598 334.827009 C 102.519531 333.208705 101.143973 330.457589 100.334821 328.758371 C 99.52567 326.978237 98.554688 325.198103 98.231027 324.712612 C 97.34096 323.417969 93.133371 313.222656 91.272321 307.96317 C 90.382254 305.454799 88.925781 301.489955 88.116629 299.143415 C 86.012835 293.317522 83.018973 279.723772 82.209821 272.603237 C 81.886161 269.447545 81.238839 264.268973 80.834263 261.194196 C 79.782366 252.536272 80.834263 240.398996 83.099888 234.977679 C 84.799107 230.93192 83.828125 215.072545 80.915179 199.941406 C 80.267857 196.542969 79.863281 193.549107 80.025112 193.387277 C 80.186942 193.225446 79.944196 191.526228 79.458705 189.665179 C 78.973214 187.885045 78.244978 183.839286 77.840402 180.683594 C 77.435826 177.608817 77.03125 174.53404 76.86942 173.967634 C 76.222098 171.216518 74.68471 163.691406 73.470982 156.975446 C 71.609933 146.456473 71.529018 127.603237 73.390067 121.696429 C 74.118304 119.511719 75.008371 116.356027 75.412946 114.737723 C 76.464844 110.93471 81.319754 103.409598 86.174665 98.231027 C 89.977679 94.185268 96.369978 89.168527 98.392857 88.683036 C 98.959263 88.521205 99.52567 88.27846 99.52567 88.035714 C 99.52567 87.469308 105.432478 84.637277 109.963728 83.099888 C 117.003348 80.591518 130.920759 78.649554 138.12221 79.21596 C 147.508371 79.944196 156.975446 82.290737 162.96317 85.203683 C 164.662388 86.012835 175.505022 93.861607 178.822545 96.774554 C 180.602679 98.231027 180.602679 98.231027 180.279018 91.434152 C 179.874442 84.637277 178.822545 79.539621 177.527902 78.406808 C 177.123326 78.083147 175.100446 77.678571 173.077567 77.516741 C 168.384487 77.19308 163.853237 75.655692 162.396763 73.794643 C 161.263951 72.33817 158.674665 67.159598 154.790737 58.663504 C 153.577009 56.074219 151.473214 52.271205 150.178571 50.248326 C 147.103795 45.717076 147.103795 45.3125 150.016741 44.665179 C 156.166295 43.289621 185.214844 41.671317 210.217634 41.266741 C 218.875558 41.104911 226.967076 40.862165 228.099888 40.700335 C 231.498326 40.376674 328.515625 40.295759 364.522879 40.61942 C 392.681362 40.94308 406.275112 41.347656 411.858259 42.156808 C 412.667411 42.237723 417.522321 42.885045 422.619978 43.532366 C 432.81529 44.827009 434.595424 45.231585 435.080915 46.202567 C 435.485491 46.930804 435 47.65904 425.694754 61.576451 C 422.215402 66.835938 418.978795 71.852679 418.493304 72.742746 C 417.03683 75.170201 415.256696 76.141183 411.615513 76.464844 C 406.517857 76.950335 404.575893 77.597656 403.847656 78.892299 C 402.472098 81.643415 401.177455 95.722656 402.391183 95.722656 C 402.633929 95.722656 405.951451 93.618862 409.673549 91.029576 C 413.395647 88.359375 416.794085 86.25558 417.198661 86.25558 C 417.522321 86.25558 418.250558 85.93192 418.736049 85.527344 C 420.030692 84.313616 429.255022 81.319754 433.867188 80.591518 C 445.033482 78.730469 450.212054 78.811384 460.488281 80.996094 C 467.285156 82.371652 478.289621 88.035714 487.513951 94.913504 C 494.229911 99.930246 494.877232 100.496652 498.356585 105.756138 C 502.96875 112.633929 505.477121 118.297991 506.367188 123.557478 C 507.904576 132.377232 506.771763 146.780134 503.292411 164.662388 C 502.96875 166.685268 502.564174 169.193638 502.402344 170.326451 C 502.321429 171.459263 501.916853 173.239397 501.593192 174.37221 C 500.945871 176.476004 500.217634 180.359933 499.003906 187.237723 C 498.680246 189.503348 498.113839 192.335379 497.790179 193.630022 C 495.362723 202.773438 494.877232 222.840402 496.900112 230.93192 C 499.813058 242.583705 499.813058 242.988281 499.813058 257.553013 C 499.893973 270.904018 499.246652 278.186384 497.790179 282.393973 C 497.466518 283.28404 496.900112 285.954241 496.495536 288.300781 C 495.119978 296.87779 488.565848 317.1875 484.68192 324.874442 C 484.034598 326.25 482.901786 328.59654 482.254464 330.133929 C 480.231585 334.988839 477.318638 340.571987 472.949219 348.097098 C 471.978237 349.796317 471.169085 351.333705 471.169085 351.657366 C 471.169085 352.142857 470.359933 353.680246 464.37221 363.551897 C 460.973772 369.21596 446.975446 389.606585 443.253348 394.38058 C 441.635045 396.484375 435.080915 405.061384 433.219866 407.569754 C 430.46875 411.210938 407.731585 435.485491 400.206473 442.686942 C 398.426339 444.386161 395.270647 447.541853 393.166853 449.564732 C 391.063058 451.668527 388.392857 453.934152 387.260045 454.662388 C 386.046317 455.30971 383.861607 457.170759 382.243304 458.789062 C 380.625 460.326451 377.631138 463.239397 375.446429 465.181362 C 373.342634 467.123326 371.643415 468.822545 371.643415 468.90346 C 371.643415 469.06529 374.313616 470.117188 377.631138 471.25 C 383.376116 473.272879 388.878348 476.185826 395.998884 480.878906 C 397.698103 482.011719 400.691964 483.630022 402.633929 484.439174 C 415.418527 490.022321 422.619978 501.755022 419.868862 512.435826 C 417.603237 521.25558 406.113281 530.479911 390.496652 536.063058 C 378.116629 540.432478 359.910714 544.640067 345.345982 546.501116 C 340.814732 547.067522 246.629464 547.391183 243.878348 546.824777 Z M 468.660714 189.098772 C 470.117188 187.237723 472.706473 180.440848 474.082031 174.614955 C 474.567522 172.34933 475.61942 168.384487 476.266741 165.795201 C 476.994978 163.205915 477.885045 159.402902 478.370536 157.460938 C 478.775112 155.438058 479.665179 151.87779 480.231585 149.53125 C 481.121652 146.132812 481.364397 142.81529 481.364397 134.157366 C 481.364397 123.476562 481.283482 122.910156 479.665179 118.540737 C 477.480469 112.795759 471.978237 105.027902 467.770647 101.791295 C 463.724888 98.635603 456.685268 96.855469 449.969308 97.260045 C 434.919085 98.150112 417.765067 113.200335 412.101004 130.516183 C 409.026228 139.821429 413.719308 151.87779 423.914621 160.859375 C 427.717634 164.176897 439.450335 172.672991 443.253348 174.857701 C 448.108259 177.527902 462.592076 187.156808 464.37221 188.856027 C 466.799665 191.040737 467.042411 191.040737 468.660714 189.098772 Z M 113.928571 189.260603 C 114.656808 188.936942 116.517857 187.885045 118.055246 186.833147 C 119.592634 185.78125 122.667411 183.839286 124.852121 182.625558 C 127.03683 181.330915 129.545201 179.955357 130.435268 179.388951 C 131.24442 178.90346 134.319196 177.123326 137.151228 175.424107 C 152.848772 166.199777 157.865513 162.234933 168.384487 150.664062 C 173.724888 144.757254 173.805804 144.676339 173.805804 138.850446 C 173.805804 133.995536 172.511161 127.765067 171.216518 125.984933 C 170.892857 125.580357 170.650112 124.69029 170.650112 124.204799 C 170.650112 122.829241 165.228795 114.818638 161.668527 110.853795 C 156.894531 105.432478 151.230469 101.87221 142.81529 98.635603 C 138.28404 97.017299 137.879464 96.936384 130.597098 96.693638 C 123.557478 96.531808 122.748326 96.612723 118.459821 97.745536 C 111.824777 99.52567 104.461496 105.351562 102.03404 110.853795 C 97.907366 119.916295 97.583705 136.503906 101.143973 152.686942 C 101.629464 155.033482 102.438616 159.079241 102.924107 161.749442 C 103.409598 164.338728 104.137835 167.49442 104.461496 168.708147 C 105.594308 172.915737 106.808036 178.256138 107.212612 180.521763 C 107.698103 183.191964 109.720982 188.289621 110.691964 189.179688 C 111.582031 189.907924 112.148438 189.907924 113.928571 189.260603 Z M 113.928571 189.260603 " transform="matrix(0.0482759, 0, 0, 0.0482759, 0, 0)"/>
</svg>
