<?xml version="1.0" encoding="UTF-8"?>
<svg xmlns="http://www.w3.org/2000/svg" xmlns:xlink="http://www.w3.org/1999/xlink" width="28" height="28" viewBox="0 0 28 28">
<defs>
<filter id="filter-remove-color" x="0%" y="0%" width="100%" height="100%">
<feColorMatrix color-interpolation-filters="sRGB" values="0 0 0 0 1 0 0 0 0 1 0 0 0 0 1 0 0 0 1 0" />
</filter>
<mask id="mask-0">
<g filter="url(#filter-remove-color)">
<rect x="-2.8" y="-2.8" width="33.6" height="33.6" fill="rgb(0%, 0%, 0%)" fill-opacity="0.1"/>
</g>
</mask>
<clipPath id="clip-0">
<rect x="0" y="0" width="28" height="28"/>
</clipPath>
<g id="source-12" clip-path="url(#clip-0)">
<path fill-rule="evenodd" fill="rgb(100%, 100%, 100%)" fill-opacity="1" d="M 4.742188 14.964844 L 4.445312 17.925781 L 6.371094 20.296875 L 12 23.035156 L 18.222656 23.035156 L 21.925781 20.445312 L 23.480469 17.777344 L 24 14.445312 L 21.332031 10.667969 L 19.777344 8.59375 L 16.074219 7.777344 L 14.222656 14.59375 L 10.222656 15.183594 Z M 4.742188 14.964844 "/>
</g>
<mask id="mask-1">
<g filter="url(#filter-remove-color)">
<rect x="-2.8" y="-2.8" width="33.6" height="33.6" fill="rgb(0%, 0%, 0%)" fill-opacity="0.1"/>
</g>
</mask>
<clipPath id="clip-1">
<rect x="0" y="0" width="28" height="28"/>
</clipPath>
<g id="source-16" clip-path="url(#clip-1)">
<path fill-rule="evenodd" fill="rgb(100%, 100%, 100%)" fill-opacity="1" d="M 8 20.742188 L 12.59375 14.59375 L 17.257812 15.183594 L 21.554688 12.222656 L 23.332031 13.109375 L 24.148438 16.445312 L 22.59375 19.851562 L 16 16 L 14.445312 17.851562 L 14.742188 22.816406 L 11.554688 22.964844 Z M 8 20.742188 "/>
</g>
</defs>
<path fill-rule="nonzero" fill="rgb(6.666667%, 6.666667%, 6.666667%)" fill-opacity="1" stroke-width="3.408" stroke-linecap="butt" stroke-linejoin="miter" stroke="rgb(93.333333%, 93.333333%, 93.333333%)" stroke-opacity="1" stroke-miterlimit="4" d="M 66.269531 1.780134 C 24.921875 1.780134 1.699219 23.141741 1.699219 66.835938 L 1.699219 516.967076 C 1.699219 557.748326 22.575335 579.190848 63.922991 579.190848 L 515.915179 579.190848 C 557.262835 579.190848 578.138951 558.881138 578.138951 516.967076 L 578.138951 66.835938 C 578.138951 24.193638 557.262835 1.780134 514.620536 1.780134 C 514.620536 1.780134 66.107701 1.618304 66.269531 1.780134 Z M 66.269531 1.780134 " transform="matrix(0.0482759, 0, 0, 0.0482759, 0, 0)"/>
<path fill-rule="nonzero" fill="rgb(100%, 100%, 100%)" fill-opacity="1" d="M 12.496094 6.195312 C 11.660156 6.203125 10.808594 6.339844 9.871094 6.855469 C 9.714844 6.902344 9.386719 7.417969 9.085938 7.75 C 8.113281 8.828125 7.933594 10.359375 8.628906 11.648438 C 9.347656 12.992188 9.226562 13.917969 8.292969 14.207031 C 7.894531 14.328125 7.722656 14.296875 6.847656 13.953125 C 6.300781 13.738281 5.65625 13.5625 5.414062 13.566406 C 4.738281 13.570312 4.085938 13.976562 3.730469 14.613281 C 3.464844 15.089844 3.417969 15.304688 3.414062 16.132812 C 3.410156 17.191406 3.539062 17.566406 4.402344 19.023438 C 5.277344 20.507812 6.574219 21.839844 8.066406 22.789062 C 9.09375 23.445312 10.984375 24.136719 12.109375 24.285156 C 13.234375 24.429688 14.960938 24.6875 17.835938 24.183594 C 19.976562 23.6875 22.097656 22.335938 23.234375 21.027344 C 24.375 19.722656 24.574219 19.140625 24.859375 17.734375 C 25.207031 16.027344 24.730469 13.679688 23.679688 11.890625 C 22.988281 10.71875 21.738281 9.332031 20.800781 8.699219 C 19.199219 7.613281 16.324219 6.527344 14.449219 6.300781 C 13.785156 6.261719 13.144531 6.191406 12.496094 6.195312 Z M 12.101562 7.820312 C 13.242188 7.820312 14.167969 8.75 14.167969 9.890625 C 14.167969 11.035156 13.242188 11.964844 12.101562 11.964844 C 10.957031 11.964844 10.027344 11.035156 10.027344 9.890625 C 10.027344 8.75 10.957031 7.820312 12.101562 7.820312 Z M 17.910156 8.769531 C 17.953125 8.769531 18 8.769531 18.050781 8.773438 C 18.664062 8.800781 19.21875 9.011719 19.453125 9.308594 C 19.71875 9.644531 20.109375 11.355469 20.03125 11.84375 C 19.964844 12.230469 19.105469 13.304688 18.859375 13.304688 C 18.800781 13.304688 18.6875 13.328125 18.605469 13.359375 C 18.523438 13.390625 18.277344 13.335938 18.058594 13.242188 C 17.84375 13.144531 17.53125 13.0625 17.363281 13.058594 C 16.851562 13.042969 16.527344 12.789062 16.277344 12.21875 C 15.890625 11.335938 15.953125 10.8125 16.519531 10.164062 C 16.78125 9.863281 17.125 9.421875 17.285156 9.183594 C 17.507812 8.851562 17.605469 8.769531 17.910156 8.769531 Z M 21.574219 13.9375 C 21.652344 13.9375 21.742188 13.941406 21.839844 13.949219 C 23.105469 14.050781 23.472656 14.546875 23.140625 15.714844 C 23.042969 16.066406 22.933594 16.578125 22.90625 16.851562 C 22.777344 17.976562 22.113281 18.476562 21.242188 18.09375 C 19.742188 17.429688 19.746094 17.429688 19.5625 16.644531 C 19.375 15.847656 19.441406 15.675781 20.257812 14.859375 C 20.480469 14.640625 20.773438 14.332031 20.910156 14.175781 C 21.0625 14 21.234375 13.933594 21.574219 13.9375 Z M 6.59375 15.863281 C 6.605469 15.863281 6.613281 15.863281 6.625 15.863281 C 6.769531 15.871094 7.242188 15.894531 7.675781 15.914062 C 8.105469 15.929688 8.523438 15.992188 8.601562 16.050781 C 8.792969 16.183594 9.300781 17.347656 9.300781 17.640625 C 9.300781 18.007812 8.996094 18.417969 8.257812 19.03125 C 7.675781 19.519531 7.496094 19.601562 7.035156 19.601562 C 6.484375 19.601562 6.046875 19.296875 6.046875 18.914062 C 6.046875 18.820312 5.914062 18.460938 5.753906 18.113281 C 5.5 17.566406 5.480469 17.429688 5.585938 17.03125 C 5.730469 16.472656 6.246094 15.882812 6.59375 15.863281 Z M 16.542969 17.699219 C 16.761719 17.699219 17.050781 17.796875 17.5 17.972656 C 17.777344 18.082031 18.15625 18.21875 18.339844 18.277344 C 18.601562 18.355469 18.746094 18.542969 18.980469 19.089844 C 19.539062 20.390625 19.34375 21.003906 18.296875 21.257812 C 17.980469 21.335938 17.539062 21.484375 17.316406 21.59375 C 16.402344 22.03125 15.691406 21.621094 15.546875 20.566406 C 15.296875 18.746094 15.296875 18.75 15.800781 18.175781 C 16.070312 17.867188 16.242188 17.714844 16.5 17.699219 C 16.515625 17.699219 16.527344 17.699219 16.542969 17.699219 Z M 11.894531 17.828125 C 12.140625 17.824219 12.34375 17.910156 12.726562 18.128906 C 13.332031 18.480469 13.90625 19.152344 13.90625 19.503906 C 13.90625 19.597656 13.804688 19.902344 13.683594 20.179688 C 13.558594 20.457031 13.457031 20.773438 13.453125 20.882812 C 13.453125 20.992188 13.320312 21.25 13.164062 21.453125 C 12.914062 21.777344 12.78125 21.832031 12.101562 21.886719 C 11.460938 21.9375 11.316406 21.914062 11.257812 21.742188 C 11.222656 21.628906 10.960938 21.402344 10.679688 21.242188 C 10.332031 21.046875 10.117188 20.816406 10.015625 20.535156 C 9.6875 19.648438 9.984375 18.429688 10.546875 18.335938 C 10.695312 18.3125 10.894531 18.214844 10.988281 18.117188 C 11.082031 18.023438 11.375 17.90625 11.636719 17.855469 C 11.730469 17.839844 11.816406 17.828125 11.894531 17.828125 Z M 11.894531 17.828125 "/>
<path fill-rule="evenodd" fill="rgb(100%, 100%, 100%)" fill-opacity="1" d="M 9.183594 3.917969 L 8.082031 4.417969 L 12.832031 13.757812 L 13.898438 13.484375 Z M 18.167969 22.160156 L 17.238281 22.414062 L 18.796875 25.480469 C 18.972656 25.875 19.769531 25.515625 19.636719 25.136719 Z M 18.167969 22.160156 "/>
<path fill-rule="evenodd" fill="rgb(100%, 100%, 100%)" fill-opacity="1" d="M 8.039062 4.25 C 6.96875 3.296875 7.144531 2.195312 7.242188 1.332031 C 7.671875 1.691406 7.984375 1.871094 8.691406 2.515625 C 9.195312 2.976562 8.988281 3.378906 9.101562 3.832031 Z M 8.039062 4.25 "/>
<path fill-rule="evenodd" fill="rgb(100%, 100%, 100%)" fill-opacity="1" d="M 11.121094 3.933594 L 15.378906 27.125 C 15.433594 27.550781 16.378906 27.433594 16.363281 27.03125 L 12.429688 3.761719 Z M 11.121094 3.933594 "/>
<path fill-rule="evenodd" fill="rgb(100%, 100%, 100%)" fill-opacity="1" d="M 11.128906 3.757812 C 10.328125 2.542969 10.871094 1.539062 11.253906 0.738281 C 11.582031 1.203125 11.847656 1.460938 12.371094 2.277344 C 12.746094 2.863281 12.402344 3.1875 12.371094 3.65625 Z M 11.128906 3.757812 "/>
<g mask="url(#mask-0)">
<use xlink:href="#source-12"/>
</g>
<g mask="url(#mask-1)">
<use xlink:href="#source-16"/>
</g>
</svg>
