<?xml version="1.0" encoding="UTF-8"?>
<svg xmlns="http://www.w3.org/2000/svg" xmlns:xlink="http://www.w3.org/1999/xlink" width="28" height="28" viewBox="0 0 28 28">
<path fill-rule="nonzero" fill="rgb(6.666667%, 6.666667%, 6.666667%)" fill-opacity="1" stroke-width="3.408" stroke-linecap="butt" stroke-linejoin="miter" stroke="rgb(93.333333%, 93.333333%, 93.333333%)" stroke-opacity="1" stroke-miterlimit="4" d="M 66.269531 1.780134 C 24.921875 1.780134 1.699219 23.141741 1.699219 66.835938 L 1.699219 516.967076 C 1.699219 557.748326 22.575335 579.190848 63.922991 579.190848 L 515.915179 579.190848 C 557.262835 579.190848 578.138951 558.881138 578.138951 516.967076 L 578.138951 66.835938 C 578.138951 24.193638 557.262835 1.780134 514.620536 1.780134 C 514.620536 1.780134 66.107701 1.618304 66.269531 1.780134 Z M 66.269531 1.780134 " transform="matrix(0.0482759, 0, 0, 0.0482759, 0, 0)"/>
<path fill-rule="evenodd" fill="rgb(100%, 100%, 100%)" fill-opacity="1" d="M 1.117188 25.609375 L 26.921875 25.5625 L 25.515625 23.132812 L 2.617188 23.132812 Z M 1.117188 25.609375 "/>
<path fill="none" stroke-width="60.798347" stroke-linecap="butt" stroke-linejoin="miter" stroke="rgb(100%, 100%, 100%)" stroke-opacity="1" stroke-miterlimit="4" d="M 93.376116 489.941406 L 93.376116 144.595424 " transform="matrix(0.0482759, 0, 0, 0.0482759, 0, 0)"/>
<path fill="none" stroke-width="60.576653" stroke-linecap="butt" stroke-linejoin="miter" stroke="rgb(100%, 100%, 100%)" stroke-opacity="1" stroke-miterlimit="4" d="M 489.53683 498.680246 L 489.53683 155.923549 " transform="matrix(0.0482759, 0, 0, 0.0482759, 0, 0)"/>
<path fill-rule="evenodd" fill="rgb(100%, 100%, 100%)" fill-opacity="1" d="M 1.179688 5.257812 L 26.933594 5.257812 L 14.175781 0.933594 Z M 1.179688 5.257812 "/>
<path fill-rule="nonzero" fill="rgb(100%, 100%, 100%)" fill-opacity="1" stroke-width="29.522991" stroke-linecap="square" stroke-linejoin="miter" stroke="rgb(100%, 100%, 100%)" stroke-opacity="1" stroke-miterlimit="4" d="M 42.885045 106.969866 L 539.299665 106.969866 L 539.299665 151.068638 L 42.885045 151.068638 Z M 42.885045 106.969866 " transform="matrix(0.0482759, 0, 0, 0.0482759, 0, 0)"/>
<path fill-rule="nonzero" fill="rgb(100%, 100%, 100%)" fill-opacity="1" d="M 13.199219 11.511719 C 12.753906 11.515625 12.304688 11.589844 11.808594 11.863281 C 11.726562 11.886719 11.550781 12.160156 11.390625 12.335938 C 10.875 12.90625 10.78125 13.714844 11.148438 14.398438 C 11.53125 15.113281 11.464844 15.601562 10.972656 15.753906 C 10.761719 15.820312 10.667969 15.800781 10.207031 15.621094 C 9.914062 15.507812 9.574219 15.414062 9.449219 15.414062 C 9.089844 15.417969 8.742188 15.632812 8.554688 15.96875 C 8.414062 16.222656 8.390625 16.335938 8.386719 16.773438 C 8.386719 17.335938 8.453125 17.535156 8.910156 18.304688 C 9.375 19.09375 10.0625 19.796875 10.851562 20.300781 C 11.394531 20.648438 12.398438 21.015625 12.992188 21.089844 C 13.589844 21.167969 14.503906 21.304688 16.027344 21.039062 C 17.160156 20.773438 18.28125 20.058594 18.886719 19.367188 C 19.488281 18.675781 19.59375 18.367188 19.746094 17.625 C 19.929688 16.71875 19.679688 15.476562 19.121094 14.527344 C 18.753906 13.90625 18.09375 13.171875 17.597656 12.835938 C 16.75 12.261719 15.222656 11.6875 14.230469 11.566406 C 13.882812 11.546875 13.542969 11.507812 13.199219 11.511719 Z M 12.988281 12.375 C 13.59375 12.375 14.085938 12.863281 14.085938 13.46875 C 14.085938 14.074219 13.59375 14.566406 12.988281 14.566406 C 12.382812 14.566406 11.890625 14.074219 11.890625 13.46875 C 11.890625 12.863281 12.382812 12.375 12.988281 12.375 Z M 16.066406 12.875 C 16.085938 12.875 16.113281 12.875 16.140625 12.875 C 16.464844 12.890625 16.757812 13.003906 16.882812 13.160156 C 17.023438 13.339844 17.230469 14.246094 17.1875 14.503906 C 17.152344 14.707031 16.699219 15.277344 16.566406 15.277344 C 16.535156 15.277344 16.476562 15.289062 16.433594 15.304688 C 16.390625 15.320312 16.257812 15.292969 16.144531 15.242188 C 16.03125 15.191406 15.863281 15.148438 15.777344 15.144531 C 15.503906 15.136719 15.332031 15.003906 15.199219 14.703125 C 14.996094 14.234375 15.03125 13.957031 15.328125 13.613281 C 15.46875 13.453125 15.648438 13.222656 15.734375 13.09375 C 15.851562 12.917969 15.90625 12.875 16.066406 12.875 Z M 18.007812 15.613281 C 18.046875 15.613281 18.09375 15.613281 18.148438 15.617188 C 18.816406 15.671875 19.011719 15.933594 18.835938 16.554688 C 18.78125 16.738281 18.726562 17.011719 18.710938 17.15625 C 18.644531 17.753906 18.289062 18.015625 17.832031 17.8125 C 17.035156 17.460938 17.039062 17.460938 16.941406 17.046875 C 16.839844 16.625 16.875 16.53125 17.308594 16.101562 C 17.425781 15.984375 17.582031 15.820312 17.652344 15.738281 C 17.734375 15.644531 17.824219 15.609375 18.007812 15.613281 Z M 10.070312 16.632812 C 10.078125 16.632812 10.082031 16.632812 10.089844 16.632812 C 10.164062 16.636719 10.414062 16.648438 10.644531 16.660156 C 10.875 16.667969 11.09375 16.703125 11.136719 16.730469 C 11.234375 16.800781 11.507812 17.417969 11.507812 17.574219 C 11.507812 17.769531 11.34375 17.984375 10.953125 18.308594 C 10.644531 18.566406 10.546875 18.613281 10.304688 18.613281 C 10.011719 18.613281 9.78125 18.453125 9.78125 18.246094 C 9.78125 18.199219 9.710938 18.007812 9.628906 17.824219 C 9.492188 17.535156 9.480469 17.460938 9.539062 17.25 C 9.617188 16.953125 9.886719 16.640625 10.070312 16.632812 Z M 15.339844 17.605469 C 15.457031 17.605469 15.609375 17.65625 15.847656 17.75 C 15.996094 17.808594 16.195312 17.878906 16.292969 17.910156 C 16.429688 17.953125 16.507812 18.050781 16.632812 18.339844 C 16.925781 19.03125 16.824219 19.355469 16.269531 19.488281 C 16.101562 19.53125 15.867188 19.609375 15.75 19.667969 C 15.265625 19.898438 14.890625 19.679688 14.8125 19.125 C 14.683594 18.160156 14.683594 18.160156 14.949219 17.855469 C 15.089844 17.691406 15.183594 17.613281 15.320312 17.605469 C 15.328125 17.605469 15.332031 17.605469 15.339844 17.605469 Z M 12.878906 17.671875 C 13.007812 17.671875 13.117188 17.714844 13.320312 17.832031 C 13.640625 18.019531 13.945312 18.375 13.945312 18.558594 C 13.945312 18.609375 13.890625 18.773438 13.824219 18.917969 C 13.761719 19.066406 13.707031 19.234375 13.707031 19.289062 C 13.703125 19.347656 13.636719 19.484375 13.550781 19.59375 C 13.417969 19.765625 13.351562 19.792969 12.988281 19.820312 C 12.648438 19.851562 12.574219 19.835938 12.542969 19.746094 C 12.523438 19.6875 12.382812 19.566406 12.234375 19.480469 C 12.050781 19.375 11.9375 19.257812 11.882812 19.105469 C 11.710938 18.636719 11.867188 17.992188 12.164062 17.941406 C 12.246094 17.929688 12.351562 17.878906 12.398438 17.828125 C 12.449219 17.773438 12.605469 17.714844 12.742188 17.6875 C 12.792969 17.679688 12.835938 17.671875 12.878906 17.671875 Z M 12.878906 17.671875 "/>
<path fill-rule="evenodd" fill="rgb(100%, 100%, 100%)" fill-opacity="1" d="M 11.460938 10.242188 L 15.382812 22.128906 C 15.445312 22.347656 15.890625 22.226562 15.851562 22.015625 L 12.078125 10.070312 Z M 11.460938 10.242188 "/>
<path fill-rule="evenodd" fill="rgb(100%, 100%, 100%)" fill-opacity="1" d="M 11.449219 10.152344 C 10.964844 9.566406 11.148438 9.003906 11.269531 8.558594 C 11.460938 8.78125 11.613281 8.902344 11.929688 9.296875 C 12.15625 9.578125 12.019531 9.769531 12.039062 10.019531 Z M 11.449219 10.152344 "/>
<path fill-rule="evenodd" fill="rgb(100%, 100%, 100%)" fill-opacity="1" d="M 12.46875 10.3125 L 14.722656 22.597656 C 14.753906 22.820312 15.253906 22.761719 15.246094 22.546875 L 13.160156 10.222656 Z M 12.46875 10.3125 "/>
<path fill-rule="evenodd" fill="rgb(100%, 100%, 100%)" fill-opacity="1" d="M 12.472656 10.222656 C 12.050781 9.578125 12.335938 9.046875 12.539062 8.621094 C 12.714844 8.867188 12.855469 9.003906 13.132812 9.4375 C 13.332031 9.746094 13.148438 9.917969 13.128906 10.167969 Z M 12.472656 10.222656 "/>
</svg>
