<?xml version="1.0" encoding="UTF-8"?>
<svg xmlns="http://www.w3.org/2000/svg" xmlns:xlink="http://www.w3.org/1999/xlink" width="28" height="28" viewBox="0 0 28 28">
<path fill-rule="nonzero" fill="rgb(6.666667%, 6.666667%, 6.666667%)" fill-opacity="1" stroke-width="3.408" stroke-linecap="butt" stroke-linejoin="miter" stroke="rgb(93.333333%, 93.333333%, 93.333333%)" stroke-opacity="1" stroke-miterlimit="4" d="M 66.269531 1.780134 C 24.921875 1.780134 1.699219 23.141741 1.699219 66.835938 L 1.699219 516.967076 C 1.699219 557.748326 22.575335 579.190848 63.922991 579.190848 L 515.915179 579.190848 C 557.262835 579.190848 578.138951 558.881138 578.138951 516.967076 L 578.138951 66.835938 C 578.138951 24.193638 557.262835 1.780134 514.620536 1.780134 C 514.620536 1.780134 66.107701 1.618304 66.269531 1.780134 Z M 66.269531 1.780134 " transform="matrix(0.0482759, 0, 0, 0.0482759, 0, 0)"/>
<path fill-rule="evenodd" fill="rgb(100%, 100%, 100%)" fill-opacity="1" stroke-width="1" stroke-linecap="butt" stroke-linejoin="round" stroke="rgb(100%, 100%, 100%)" stroke-opacity="1" stroke-miterlimit="4" d="M -472.503908 479.500074 C -451.71736 457.58801 -429.408752 435.611987 -389.372636 414.403462 C -408.711737 418.420034 -427.051053 426.14618 -442.659617 439.232018 C -456.65659 450.974736 -468.445084 462.512788 -478.472766 473.807798 C -478.472766 473.807798 -480.919998 476.928956 -478.472766 479.500074 C -476.040456 482.083984 -472.369609 479.640782 -472.503908 479.500074 Z M -472.503908 479.500074 " transform="matrix(0.261775, 0, 0, 0.305375, 127.275819, -122.919731)"/>
<path fill-rule="evenodd" fill="rgb(100%, 100%, 100%)" fill-opacity="1" stroke-width="1" stroke-linecap="butt" stroke-linejoin="miter" stroke="rgb(100%, 100%, 100%)" stroke-opacity="1" stroke-miterlimit="4" d="M -473.593225 471.095972 C -473.593225 471.095972 -479.562083 468.512063 -479.159185 462.960495 C -478.741365 457.396135 -474.667619 452.791148 -469.803 452.381816 C -463.416321 451.831775 -459.357498 455.899514 -459.357498 455.899514 L -464.237039 461.604582 C -464.237039 461.604582 -469.803 456.577471 -472.638207 459.839337 C -475.488337 463.088411 -471.966711 469.740059 -471.966711 469.740059 Z M -473.593225 471.095972 " transform="matrix(0.261775, 0, 0, 0.305375, 127.275819, -122.919731)"/>
<path fill-rule="nonzero" fill="rgb(100%, 100%, 100%)" fill-opacity="1" stroke-width="1" stroke-linecap="round" stroke-linejoin="round" stroke="rgb(100%, 100%, 100%)" stroke-opacity="1" stroke-miterlimit="4" d="M -453.386745 463.370742 C -453.386745 465.530285 -455.148441 467.297183 -457.315328 467.297183 C -459.482215 467.297183 -461.243912 465.530285 -461.243912 463.370742 C -461.243912 461.196097 -459.482215 459.429198 -457.315328 459.429198 C -455.148441 459.429198 -453.386745 461.196097 -453.386745 463.370742 Z M -453.386745 463.370742 " transform="matrix(0.221732, 0, 0, 0.258663, 109.034377, -101.274812)"/>
<path fill-rule="evenodd" fill="rgb(100%, 100%, 100%)" fill-opacity="1" stroke-width="0.99991" stroke-linecap="butt" stroke-linejoin="round" stroke="rgb(100%, 100%, 100%)" stroke-opacity="1" stroke-miterlimit="4" d="M -472.515528 479.500074 C -451.728979 457.58801 -429.40545 435.611987 -389.369334 414.403462 C -408.708434 418.420034 -427.047751 426.14618 -442.656315 439.232018 C -456.653287 450.974736 -468.456704 462.512788 -478.469464 473.807798 C -478.469464 473.807798 -480.916695 476.928956 -478.469464 479.500074 C -476.037154 482.083984 -472.366306 479.640782 -472.515528 479.500074 Z M -472.515528 479.500074 " transform="matrix(-0.261775, 0, 0, 0.305375, -99.142142, -122.919731)"/>
<path fill-rule="evenodd" fill="rgb(100%, 100%, 100%)" fill-opacity="1" stroke-width="1" stroke-linecap="butt" stroke-linejoin="miter" stroke="rgb(100%, 100%, 100%)" stroke-opacity="1" stroke-miterlimit="4" d="M -473.589922 471.095972 C -473.589922 471.095972 -479.55878 468.512063 -479.155882 462.960495 C -478.752984 457.396135 -474.664317 452.791148 -469.799697 452.381816 C -463.427941 451.831775 -459.354195 455.899514 -459.354195 455.899514 L -464.233737 461.604582 C -464.233737 461.604582 -469.799697 456.577471 -472.649827 459.839337 C -475.485035 463.088411 -471.963408 469.740059 -471.963408 469.740059 Z M -473.589922 471.095972 " transform="matrix(-0.261775, 0, 0, 0.305375, -99.142142, -122.919731)"/>
<path fill-rule="nonzero" fill="rgb(100%, 100%, 100%)" fill-opacity="1" stroke-width="1" stroke-linecap="round" stroke-linejoin="round" stroke="rgb(100%, 100%, 100%)" stroke-opacity="1" stroke-miterlimit="4" d="M -453.382846 463.370742 C -453.382846 465.530285 -455.144542 467.297183 -457.311429 467.297183 C -459.495933 467.297183 -461.25763 465.530285 -461.25763 463.370742 C -461.25763 461.196097 -459.495933 459.429198 -457.311429 459.429198 C -455.144542 459.429198 -453.382846 461.196097 -453.382846 463.370742 Z M -453.382846 463.370742 " transform="matrix(-0.221732, 0, 0, 0.258663, -80.9007, -101.274812)"/>
</svg>
