<?xml version="1.0" encoding="UTF-8"?>
<svg xmlns="http://www.w3.org/2000/svg" xmlns:xlink="http://www.w3.org/1999/xlink" width="28" height="28" viewBox="0 0 28 28">
<path fill-rule="nonzero" fill="rgb(6.666667%, 6.666667%, 6.666667%)" fill-opacity="1" stroke-width="3.408" stroke-linecap="butt" stroke-linejoin="miter" stroke="rgb(93.333333%, 93.333333%, 93.333333%)" stroke-opacity="1" stroke-miterlimit="4" d="M 66.269531 1.780134 C 24.921875 1.780134 1.699219 23.141741 1.699219 66.835938 L 1.699219 516.967076 C 1.699219 557.748326 22.575335 579.190848 63.922991 579.190848 L 515.915179 579.190848 C 557.262835 579.190848 578.138951 558.800223 578.138951 516.967076 L 578.138951 66.835938 C 578.138951 24.193638 557.262835 1.780134 514.620536 1.780134 C 514.620536 1.780134 66.107701 1.618304 66.269531 1.780134 Z M 66.269531 1.780134 " transform="matrix(0.0482759, 0, 0, 0.0482759, 0, 0)"/>
<path fill-rule="evenodd" fill="rgb(100%, 100%, 100%)" fill-opacity="1" stroke-width="10" stroke-linecap="round" stroke-linejoin="round" stroke="rgb(100%, 100%, 100%)" stroke-opacity="1" stroke-miterlimit="4" d="M 46.364397 530.479911 L 119.916295 215.072545 L 167.332589 215.072545 L 191.607143 288.705357 L 240.803571 288.705357 L 263.945312 215.719866 L 313.141741 215.072545 L 336.283482 288.058036 L 384.266183 289.919085 L 407.488839 215.800781 L 456.604353 216.286272 L 529.589844 532.260045 Z M 46.364397 530.479911 " transform="matrix(0.0482759, 0, 0, 0.0482759, 0, 0)"/>
<path fill-rule="evenodd" fill="rgb(100%, 100%, 100%)" fill-opacity="1" d="M 13.5 2.3125 C 13.5 3.710938 13.496094 5.109375 13.492188 6.511719 C 16.320312 8.078125 18.78125 6.496094 21.429688 6.488281 C 21.429688 5.074219 21.429688 3.660156 21.429688 2.246094 C 18.785156 1.78125 16.144531 3.621094 13.5 2.3125 Z M 13.5 2.3125 "/>
<path fill="none" stroke-width="15" stroke-linecap="butt" stroke-linejoin="miter" stroke="rgb(100%, 100%, 100%)" stroke-opacity="1" stroke-miterlimit="4" d="M 287.491629 90.382254 L 287.491629 300.033482 L 281.180246 300.033482 " transform="matrix(0.0482759, 0, 0, 0.0482759, 0, 0)"/>
</svg>
