<?xml version="1.0" encoding="UTF-8"?>
<svg xmlns="http://www.w3.org/2000/svg" xmlns:xlink="http://www.w3.org/1999/xlink" width="28" height="28" viewBox="0 0 28 28">
<path fill-rule="nonzero" fill="rgb(6.666667%, 6.666667%, 6.666667%)" fill-opacity="1" stroke-width="3.408" stroke-linecap="butt" stroke-linejoin="miter" stroke="rgb(93.333333%, 93.333333%, 93.333333%)" stroke-opacity="1" stroke-miterlimit="4" d="M 66.269531 1.780134 C 24.921875 1.780134 1.699219 23.141741 1.699219 66.835938 L 1.699219 516.967076 C 1.699219 557.748326 22.575335 579.190848 63.922991 579.190848 L 515.915179 579.190848 C 557.262835 579.190848 578.138951 558.800223 578.138951 516.967076 L 578.138951 66.835938 C 578.138951 24.193638 557.262835 1.780134 514.620536 1.780134 C 514.620536 1.780134 66.107701 1.618304 66.269531 1.780134 Z M 66.269531 1.780134 " transform="matrix(0.0482759, 0, 0, 0.0482759, 0, 0)"/>
<path fill-rule="evenodd" fill="rgb(100%, 100%, 100%)" fill-opacity="1" stroke-width="17.886341" stroke-linecap="round" stroke-linejoin="round" stroke="rgb(100%, 100%, 100%)" stroke-opacity="1" stroke-miterlimit="4" d="M 87.550223 153.577009 C 148.641183 200.588728 209.732143 247.600446 270.823103 294.612165 C 346.55971 254.559152 422.296317 214.506138 497.952009 174.453125 C 437.022879 128.412388 376.09375 82.452567 315.164621 36.492746 C 239.266183 75.493862 163.367746 114.575893 87.550223 153.577009 Z M 296.068638 122.34375 C 314.760045 121.453683 335.717076 130.678013 342.02846 149.53125 C 348.90625 167.65625 333.936942 186.266741 317.106585 191.849888 C 295.987723 199.375 267.910156 196.219308 254.882812 176.152344 C 245.415737 163.367746 249.21875 144.757254 261.032366 134.885603 C 270.499442 126.470424 283.445871 122.50558 296.068638 122.34375 Z M 296.068638 122.34375 " transform="matrix(0.0482759, 0, 0, 0.0482759, 0, 0)"/>
<path fill-rule="evenodd" fill="rgb(100%, 100%, 100%)" fill-opacity="1" stroke-width="17.886341" stroke-linecap="round" stroke-linejoin="round" stroke="rgb(100%, 100%, 100%)" stroke-opacity="1" stroke-miterlimit="4" d="M 75.979353 184.243862 C 79.054129 253.75 79.458705 323.337054 82.695312 392.843192 C 139.821429 443.172433 198.646763 491.478795 255.853795 541.808036 C 255.206473 467.689732 254.559152 393.571429 253.91183 319.453125 C 194.601004 273.816964 135.209263 228.180804 75.898438 182.544643 L 75.979353 183.59654 Z M 118.055246 243.311942 C 139.012277 243.635603 153.738839 263.217076 158.189174 282.070312 C 164.662388 299.386161 154.871652 323.660714 134.966518 325.845424 C 112.957589 326.816406 96.531808 306.102121 92.80971 286.116071 C 86.417411 268.476562 97.826451 244.040179 118.055246 243.311942 Z M 190.959821 398.426339 C 212.159598 398.426339 226.5625 418.412388 231.25558 437.265625 C 237.486049 454.257812 228.342634 477.561384 209.246652 480.717076 C 188.451451 482.982701 172.268415 464.291295 166.847098 445.923549 C 160.373884 429.902344 165.228795 408.459821 181.654576 400.691964 C 184.486607 399.235491 187.723214 398.58817 190.959821 398.426339 Z M 190.959821 398.426339 " transform="matrix(0.0482759, 0, 0, 0.0482759, 0, 0)"/>
<path fill-rule="evenodd" fill="rgb(100%, 100%, 100%)" fill-opacity="1" stroke-width="17.886341" stroke-linecap="round" stroke-linejoin="round" stroke="rgb(100%, 100%, 100%)" stroke-opacity="1" stroke-miterlimit="4" d="M 285.226004 321.71875 C 285.873326 395.270647 286.520647 468.822545 287.167969 542.374442 C 361.043527 499.246652 435 456.199777 508.875558 413.071987 C 509.765625 342.675781 510.655692 272.279576 511.545759 201.883371 C 436.132812 241.855469 360.638951 281.746652 285.226004 321.71875 Z M 480.393415 242.50279 C 496.09096 241.936384 508.309152 257.472098 506.852679 272.603237 C 506.043527 294.126674 489.53683 313.222656 469.874442 320.181362 C 454.419643 324.631696 434.595424 314.355469 434.271763 297.120536 C 431.601562 270.580357 453.853237 244.52567 480.393415 242.50279 Z M 416.632254 335.15067 C 431.925223 334.584263 444.0625 349.553571 442.929688 364.361049 C 442.686942 385.803571 426.503906 405.304129 406.922433 412.586496 C 391.305804 417.522321 370.753348 407.327009 370.429688 389.52567 C 367.840402 363.066406 390.172991 337.092634 416.632254 335.15067 Z M 352.061942 424.966518 C 367.19308 424.966518 378.763951 439.69308 377.712054 454.338728 C 377.388393 476.023996 360.800781 495.443638 341.057478 502.564174 C 325.521763 507.176339 305.616629 497.061942 305.212054 479.665179 C 302.380022 452.882254 325.279018 426.342076 352.061942 424.966518 Z M 352.061942 424.966518 " transform="matrix(0.0482759, 0, 0, 0.0482759, 0, 0)"/>
</svg>
