<?xml version="1.0" encoding="UTF-8"?>
<svg xmlns="http://www.w3.org/2000/svg" xmlns:xlink="http://www.w3.org/1999/xlink" width="28" height="28" viewBox="0 0 28 28">
<path fill-rule="nonzero" fill="rgb(6.666667%, 6.666667%, 6.666667%)" fill-opacity="1" stroke-width="3.408" stroke-linecap="butt" stroke-linejoin="miter" stroke="rgb(93.333333%, 93.333333%, 93.333333%)" stroke-opacity="1" stroke-miterlimit="4" d="M 66.269531 1.780134 C 24.921875 1.780134 1.699219 23.141741 1.699219 66.835938 L 1.699219 516.967076 C 1.699219 557.748326 22.575335 579.190848 63.922991 579.190848 L 515.915179 579.190848 C 557.262835 579.190848 578.138951 558.881138 578.138951 516.967076 L 578.138951 66.835938 C 578.138951 24.193638 557.262835 1.780134 514.620536 1.780134 C 514.620536 1.780134 66.107701 1.618304 66.269531 1.780134 Z M 66.269531 1.780134 " transform="matrix(0.0482759, 0, 0, 0.0482759, 0, 0)"/>
<path fill-rule="nonzero" fill="rgb(100%, 100%, 100%)" fill-opacity="1" stroke-width="6" stroke-linecap="round" stroke-linejoin="round" stroke="rgb(100%, 100%, 100%)" stroke-opacity="1" stroke-miterlimit="4" d="M 49.277344 232.712054 L 49.68192 136.018415 L 81.805246 136.018415 L 81.805246 168.141741 L 114.009487 168.141741 L 114.009487 136.018415 L 146.132812 136.018415 L 146.132812 168.141741 L 178.337054 168.141741 L 178.337054 136.018415 L 210.460379 136.018415 L 210.460379 232.469308 L 178.337054 232.469308 L 178.337054 296.796875 L 210.460379 296.796875 L 210.460379 264.673549 L 242.583705 264.673549 L 242.583705 296.796875 L 274.787946 296.796875 L 274.787946 264.673549 L 306.911272 264.673549 L 306.911272 361.124442 L 310.795201 361.124442 L 310.795201 373.342634 L 242.583705 373.342634 L 242.583705 457.65625 L 81.805246 457.65625 L 81.805246 232.469308 L 49.277344 232.792969 Z M 49.277344 232.712054 " transform="matrix(0.0482759, 0, 0, 0.0482759, 0, 0)"/>
<path fill-rule="nonzero" fill="rgb(100%, 100%, 100%)" fill-opacity="1" stroke-width="6" stroke-linecap="round" stroke-linejoin="round" stroke="rgb(100%, 100%, 100%)" stroke-opacity="1" stroke-miterlimit="4" d="M 532.260045 232.712054 L 531.855469 136.018415 L 499.813058 136.018415 L 499.813058 168.141741 L 467.689732 168.141741 L 467.689732 136.018415 L 435.566406 136.018415 L 435.566406 168.141741 L 403.44308 168.141741 L 403.44308 136.018415 L 371.319754 136.018415 L 371.319754 232.469308 L 403.44308 232.469308 L 403.44308 296.796875 L 371.319754 296.796875 L 371.319754 264.673549 L 339.196429 264.673549 L 339.196429 296.796875 L 307.073103 296.796875 L 307.073103 264.673549 L 274.949777 264.673549 L 274.949777 361.124442 L 291.051897 361.124442 L 291.051897 373.342634 L 339.196429 373.342634 L 339.196429 457.65625 L 499.813058 457.65625 L 499.813058 232.469308 L 532.260045 232.792969 Z M 532.260045 232.712054 " transform="matrix(0.0482759, 0, 0, 0.0482759, 0, 0)"/>
</svg>
