<?xml version="1.0" encoding="UTF-8"?>
<svg xmlns="http://www.w3.org/2000/svg" xmlns:xlink="http://www.w3.org/1999/xlink" width="28" height="28" viewBox="0 0 28 28">
<defs>
<filter id="filter-remove-color" x="0%" y="0%" width="100%" height="100%">
<feColorMatrix color-interpolation-filters="sRGB" values="0 0 0 0 1 0 0 0 0 1 0 0 0 0 1 0 0 0 1 0" />
</filter>
<mask id="mask-0">
<g filter="url(#filter-remove-color)">
<rect x="-2.8" y="-2.8" width="33.6" height="33.6" fill="rgb(0%, 0%, 0%)" fill-opacity="0.331731"/>
</g>
</mask>
<clipPath id="clip-0">
<rect x="0" y="0" width="28" height="28"/>
</clipPath>
<g id="source-26" clip-path="url(#clip-0)">
<path fill-rule="nonzero" fill="rgb(100%, 100%, 100%)" fill-opacity="1" d="M 6.300781 5.816406 L 12.503906 2.832031 L 15.363281 8.777344 L 9.160156 11.765625 Z M 6.300781 5.816406 "/>
</g>
<mask id="mask-1">
<g filter="url(#filter-remove-color)">
<rect x="-2.8" y="-2.8" width="33.6" height="33.6" fill="rgb(0%, 0%, 0%)" fill-opacity="0.331731"/>
</g>
</mask>
<clipPath id="clip-1">
<rect x="0" y="0" width="28" height="28"/>
</clipPath>
<g id="source-30" clip-path="url(#clip-1)">
<path fill-rule="nonzero" fill="rgb(100%, 100%, 100%)" fill-opacity="1" d="M 9.445312 12.351562 L 15.648438 9.367188 L 18.507812 15.3125 L 12.304688 18.296875 Z M 9.445312 12.351562 "/>
</g>
<mask id="mask-2">
<g filter="url(#filter-remove-color)">
<rect x="-2.8" y="-2.8" width="33.6" height="33.6" fill="rgb(0%, 0%, 0%)" fill-opacity="0.331731"/>
</g>
</mask>
<clipPath id="clip-2">
<rect x="0" y="0" width="28" height="28"/>
</clipPath>
<g id="source-34" clip-path="url(#clip-2)">
<path fill-rule="nonzero" fill="rgb(100%, 100%, 100%)" fill-opacity="1" d="M 12.585938 18.886719 L 18.792969 15.898438 L 21.652344 21.847656 L 15.449219 24.832031 Z M 12.585938 18.886719 "/>
</g>
</defs>
<path fill-rule="nonzero" fill="rgb(6.666667%, 6.666667%, 6.666667%)" fill-opacity="1" stroke-width="3.408" stroke-linecap="butt" stroke-linejoin="miter" stroke="rgb(93.333333%, 93.333333%, 93.333333%)" stroke-opacity="1" stroke-miterlimit="4" d="M 66.269531 1.780134 C 24.921875 1.780134 1.699219 23.141741 1.699219 66.835938 L 1.699219 516.967076 C 1.699219 557.748326 22.575335 579.190848 63.922991 579.190848 L 515.915179 579.190848 C 557.262835 579.190848 578.138951 558.800223 578.138951 516.967076 L 578.138951 66.835938 C 578.138951 24.193638 557.262835 1.780134 514.620536 1.780134 C 514.620536 1.780134 66.107701 1.618304 66.269531 1.780134 Z M 66.269531 1.780134 " transform="matrix(0.0482759, 0, 0, 0.0482759, 0, 0)"/>
<path fill-rule="nonzero" fill="rgb(100%, 100%, 100%)" fill-opacity="1" d="M 4.714844 6.097656 L 14.382812 26.195312 L 23.457031 21.828125 L 13.789062 1.730469 Z M 6.300781 5.816406 L 12.503906 2.832031 L 15.363281 8.78125 L 9.160156 11.765625 Z M 5.339844 6.582031 L 6.003906 6.261719 L 6.523438 7.335938 L 5.855469 7.65625 Z M 13.015625 2.886719 L 13.683594 2.566406 L 14.199219 3.640625 L 13.535156 3.960938 Z M 6.519531 9.03125 L 7.183594 8.710938 L 7.703125 9.785156 L 7.035156 10.105469 Z M 14.195312 5.335938 L 14.863281 5.015625 L 15.378906 6.09375 L 14.714844 6.414062 Z M 7.699219 11.480469 L 8.363281 11.160156 L 8.882812 12.238281 L 8.214844 12.558594 Z M 15.375 7.789062 L 16.042969 7.46875 L 16.558594 8.542969 L 15.894531 8.863281 Z M 9.445312 12.351562 L 15.648438 9.367188 L 18.507812 15.3125 L 12.304688 18.296875 Z M 8.875 13.933594 L 9.542969 13.613281 L 10.058594 14.6875 L 9.394531 15.007812 Z M 16.554688 10.238281 L 17.21875 9.917969 L 17.738281 10.992188 L 17.070312 11.3125 Z M 10.054688 16.382812 L 10.722656 16.0625 L 11.238281 17.136719 L 10.574219 17.457031 Z M 17.734375 12.6875 L 18.398438 12.367188 L 18.917969 13.445312 L 18.25 13.765625 Z M 11.234375 18.832031 L 11.902344 18.511719 L 12.417969 19.589844 L 11.753906 19.910156 Z M 18.914062 15.136719 L 19.578125 14.816406 L 20.097656 15.894531 L 19.429688 16.214844 Z M 12.589844 18.886719 L 18.792969 15.902344 L 21.652344 21.847656 L 15.449219 24.832031 Z M 12.414062 21.28125 L 13.078125 20.960938 L 13.597656 22.039062 L 12.929688 22.359375 Z M 20.089844 17.589844 L 20.757812 17.269531 L 21.273438 18.34375 L 20.609375 18.664062 Z M 13.59375 23.734375 L 14.257812 23.414062 L 14.777344 24.488281 L 14.109375 24.808594 Z M 21.269531 20.039062 L 21.9375 19.71875 L 22.453125 20.792969 L 21.789062 21.113281 Z M 21.269531 20.039062 "/>
<g mask="url(#mask-0)">
<use xlink:href="#source-26"/>
</g>
<g mask="url(#mask-1)">
<use xlink:href="#source-30"/>
</g>
<g mask="url(#mask-2)">
<use xlink:href="#source-34"/>
</g>
</svg>
