<?xml version="1.0" encoding="UTF-8"?>
<svg xmlns="http://www.w3.org/2000/svg" xmlns:xlink="http://www.w3.org/1999/xlink" width="28" height="28" viewBox="0 0 28 28">
<defs>
<filter id="filter-remove-color" x="0%" y="0%" width="100%" height="100%">
<feColorMatrix color-interpolation-filters="sRGB" values="0 0 0 0 1 0 0 0 0 1 0 0 0 0 1 0 0 0 1 0" />
</filter>
<mask id="mask-0">
<g filter="url(#filter-remove-color)">
<rect x="-2.8" y="-2.8" width="33.6" height="33.6" fill="rgb(0%, 0%, 0%)" fill-opacity="0.331731"/>
</g>
</mask>
<clipPath id="clip-0">
<rect x="0" y="0" width="28" height="28"/>
</clipPath>
<g id="source-8" clip-path="url(#clip-0)">
<path fill-rule="nonzero" fill="rgb(100%, 100%, 100%)" fill-opacity="1" d="M 14.0625 2.839844 C 13.941406 2.917969 13.820312 2.988281 13.691406 3.050781 C 12.648438 3.515625 11.296875 3.28125 10.265625 3.71875 C 9.21875 4.148438 8.519531 5.226562 7.542969 5.648438 C 6.621094 6.035156 5.527344 5.769531 4.617188 6.136719 L 7.007812 11.101562 L 15.964844 6.792969 Z M 14.0625 2.839844 "/>
</g>
<mask id="mask-1">
<g filter="url(#filter-remove-color)">
<rect x="-2.8" y="-2.8" width="33.6" height="33.6" fill="rgb(0%, 0%, 0%)" fill-opacity="0.331731"/>
</g>
</mask>
<clipPath id="clip-1">
<rect x="0" y="0" width="28" height="28"/>
</clipPath>
<g id="source-12" clip-path="url(#clip-1)">
<path fill-rule="nonzero" fill="rgb(100%, 100%, 100%)" fill-opacity="1" d="M 7.414062 11.949219 L 16.371094 7.640625 L 20.5 16.226562 L 11.546875 20.535156 Z M 7.414062 11.949219 "/>
</g>
<mask id="mask-2">
<g filter="url(#filter-remove-color)">
<rect x="-2.8" y="-2.8" width="33.6" height="33.6" fill="rgb(0%, 0%, 0%)" fill-opacity="0.331731"/>
</g>
</mask>
<clipPath id="clip-2">
<rect x="0" y="0" width="28" height="28"/>
</clipPath>
<g id="source-16" clip-path="url(#clip-2)">
<path fill-rule="nonzero" fill="rgb(100%, 100%, 100%)" fill-opacity="1" d="M 20.910156 17.074219 L 11.953125 21.382812 L 13.949219 25.53125 C 14.789062 25.316406 15.742188 25.488281 16.5625 25.144531 C 17.535156 24.726562 18.238281 23.644531 19.289062 23.214844 C 20.316406 22.777344 21.667969 23.011719 22.710938 22.546875 C 22.9375 22.441406 23.144531 22.296875 23.34375 22.136719 Z M 20.910156 17.074219 "/>
</g>
</defs>
<path fill-rule="nonzero" fill="rgb(6.666667%, 6.666667%, 6.666667%)" fill-opacity="1" stroke-width="3.408" stroke-linecap="butt" stroke-linejoin="miter" stroke="rgb(93.333333%, 93.333333%, 93.333333%)" stroke-opacity="1" stroke-miterlimit="4" d="M 66.269531 1.780134 C 24.921875 1.780134 1.699219 23.141741 1.699219 66.835938 L 1.699219 516.967076 C 1.699219 557.748326 22.575335 579.190848 63.922991 579.190848 L 515.915179 579.190848 C 557.262835 579.190848 578.138951 558.800223 578.138951 516.967076 L 578.138951 66.835938 C 578.138951 24.193638 557.262835 1.780134 514.620536 1.780134 C 514.620536 1.780134 66.107701 1.618304 66.269531 1.780134 Z M 66.269531 1.780134 " transform="matrix(0.0482759, 0, 0, 0.0482759, 0, 0)"/>
<path fill-rule="nonzero" fill="rgb(100%, 100%, 100%)" fill-opacity="1" d="M 15.902344 1.226562 C 15.71875 1.359375 15.546875 1.503906 15.382812 1.660156 L 15.984375 2.914062 L 15.023438 3.378906 L 14.570312 2.433594 C 14.40625 2.582031 14.238281 2.71875 14.0625 2.839844 L 15.964844 6.792969 L 7.007812 11.101562 L 4.617188 6.136719 C 4.574219 6.152344 4.535156 6.171875 4.496094 6.191406 C 4.09375 6.386719 3.726562 6.71875 3.375 7.070312 L 4.152344 6.695312 L 4.898438 8.246094 L 3.9375 8.710938 L 3.222656 7.222656 C 3.09375 7.351562 2.964844 7.480469 2.835938 7.605469 L 12.101562 26.859375 C 12.292969 26.664062 12.488281 26.46875 12.683594 26.289062 L 12.449219 26.402344 L 11.699219 24.847656 L 12.664062 24.382812 L 13.335938 25.785156 C 13.394531 25.75 13.457031 25.71875 13.515625 25.6875 C 13.65625 25.621094 13.800781 25.570312 13.949219 25.535156 L 11.953125 21.382812 L 20.910156 17.074219 L 23.34375 22.136719 C 23.96875 21.636719 24.496094 20.949219 25.199219 20.546875 Z M 16.9375 4.898438 L 17.6875 6.453125 L 16.726562 6.914062 L 15.976562 5.363281 Z M 16.371094 7.640625 L 20.503906 16.226562 L 11.546875 20.535156 L 7.414062 11.949219 Z M 18.640625 8.4375 L 19.390625 9.988281 L 18.425781 10.453125 L 17.679688 8.898438 Z M 5.855469 10.230469 L 6.601562 11.785156 L 5.640625 12.25 L 4.890625 10.695312 Z M 20.34375 11.972656 L 21.089844 13.527344 L 20.128906 13.992188 L 19.382812 12.4375 Z M 7.554688 13.769531 L 8.304688 15.324219 L 7.34375 15.785156 L 6.59375 14.234375 Z M 22.046875 15.511719 L 22.792969 17.066406 L 21.832031 17.527344 L 21.085938 15.976562 Z M 9.257812 17.308594 L 10.007812 18.863281 L 9.046875 19.324219 L 8.296875 17.769531 Z M 23.75 19.050781 L 24.496094 20.605469 L 23.535156 21.066406 L 22.789062 19.511719 Z M 10.960938 20.847656 L 11.710938 22.398438 L 10.746094 22.863281 L 10 21.308594 Z M 10.960938 20.847656 "/>
<g mask="url(#mask-0)">
<use xlink:href="#source-8"/>
</g>
<g mask="url(#mask-1)">
<use xlink:href="#source-12"/>
</g>
<g mask="url(#mask-2)">
<use xlink:href="#source-16"/>
</g>
</svg>
