<?xml version="1.0" encoding="UTF-8"?>
<svg xmlns="http://www.w3.org/2000/svg" xmlns:xlink="http://www.w3.org/1999/xlink" width="28" height="28" viewBox="0 0 28 28">
<path fill-rule="nonzero" fill="rgb(6.666667%, 6.666667%, 6.666667%)" fill-opacity="1" stroke-width="3.408" stroke-linecap="butt" stroke-linejoin="miter" stroke="rgb(93.333333%, 93.333333%, 93.333333%)" stroke-opacity="1" stroke-miterlimit="4" d="M 66.269531 1.780134 C 24.921875 1.780134 1.699219 23.141741 1.699219 66.835938 L 1.699219 516.967076 C 1.699219 557.748326 22.575335 579.190848 63.922991 579.190848 L 515.915179 579.190848 C 557.262835 579.190848 578.138951 558.881138 578.138951 516.967076 L 578.138951 66.835938 C 578.138951 24.193638 557.262835 1.780134 514.620536 1.780134 C 514.620536 1.780134 66.107701 1.618304 66.269531 1.780134 Z M 66.269531 1.780134 " transform="matrix(0.0482759, 0, 0, 0.0482759, 0, 0)"/>
<path fill-rule="evenodd" fill="rgb(100%, 100%, 100%)" fill-opacity="1" d="M 25.136719 23.695312 C 24.9375 23.75 24.683594 23.742188 24.351562 23.671875 C 24.011719 23.597656 23.707031 23.230469 23.144531 23.257812 C 22.566406 23.277344 21.753906 23.792969 20.964844 23.792969 C 20.167969 23.777344 19.273438 23.234375 18.460938 23.234375 C 17.648438 23.238281 16.910156 23.800781 16.132812 23.820312 C 15.34375 23.820312 14.554688 23.292969 13.777344 23.28125 C 12.992188 23.261719 12.246094 23.75 11.511719 23.746094 C 10.789062 23.730469 10.144531 23.210938 9.429688 23.234375 C 8.691406 23.261719 7.882812 23.832031 7.164062 23.867188 C 6.4375 23.878906 5.777344 23.335938 5.136719 23.332031 C 4.488281 23.320312 3.761719 23.726562 3.324219 23.820312 C 2.890625 23.90625 2.613281 23.902344 2.507812 23.839844 L 2.507812 25.351562 C 2.613281 25.414062 2.890625 25.417969 3.324219 25.328125 C 3.761719 25.238281 4.488281 24.832031 5.136719 24.84375 C 5.777344 24.847656 6.4375 25.390625 7.164062 25.378906 C 7.882812 25.34375 8.691406 24.773438 9.429688 24.746094 C 10.144531 24.722656 10.789062 25.242188 11.511719 25.253906 C 12.246094 25.261719 12.992188 24.773438 13.777344 24.792969 C 14.554688 24.804688 15.34375 25.332031 16.132812 25.328125 C 16.910156 25.3125 17.648438 24.75 18.460938 24.746094 C 19.273438 24.746094 20.167969 25.285156 20.964844 25.304688 C 21.753906 25.304688 22.566406 24.789062 23.144531 24.769531 C 23.707031 24.75 24.011719 25.105469 24.351562 25.183594 C 24.683594 25.253906 24.9375 25.265625 25.136719 25.207031 Z M 25.136719 23.695312 "/>
<path fill-rule="evenodd" fill="rgb(100%, 100%, 100%)" fill-opacity="1" d="M 8.214844 5.003906 L 8.195312 5.003906 L 8.140625 5.011719 L 8.121094 5.011719 L 8.066406 5.019531 L 7.96875 5.039062 L 7.914062 5.054688 L 7.894531 5.058594 L 7.835938 5.078125 L 7.757812 5.109375 L 7.742188 5.117188 L 7.664062 5.148438 L 7.605469 5.179688 L 7.589844 5.1875 L 7.53125 5.222656 L 7.515625 5.230469 L 7.457031 5.269531 L 7.441406 5.28125 L 7.378906 5.324219 L 7.367188 5.332031 L 7.304688 5.378906 L 7.292969 5.390625 L 7.269531 5.410156 L 7.152344 5.589844 L 7.15625 5.800781 L 7.277344 5.972656 L 7.476562 6.050781 L 7.679688 6.003906 L 7.734375 5.964844 L 7.75 5.953125 L 7.796875 5.914062 L 7.804688 5.910156 L 7.808594 5.90625 L 7.84375 5.878906 L 7.855469 5.875 L 7.859375 5.871094 L 7.890625 5.851562 L 7.898438 5.847656 L 7.90625 5.839844 L 7.949219 5.816406 L 7.976562 5.804688 L 8.019531 5.785156 L 8.035156 5.777344 L 8.058594 5.769531 L 8.097656 5.753906 L 8.105469 5.753906 L 8.117188 5.75 L 8.148438 5.742188 L 8.152344 5.742188 L 8.171875 5.738281 L 8.207031 5.730469 L 8.210938 5.730469 L 8.226562 5.726562 L 8.328125 5.726562 L 8.363281 5.730469 L 8.378906 5.730469 L 8.390625 5.734375 L 8.394531 5.734375 L 8.425781 5.742188 L 8.429688 5.742188 L 8.488281 5.753906 L 8.550781 5.777344 L 8.625 5.808594 L 8.671875 5.832031 L 8.878906 5.875 L 9.074219 5.792969 L 9.1875 5.613281 L 9.1875 5.402344 L 9.066406 5.230469 L 9.007812 5.195312 L 8.945312 5.160156 L 8.921875 5.148438 L 8.828125 5.109375 L 8.804688 5.097656 L 8.707031 5.0625 L 8.675781 5.054688 L 8.578125 5.03125 L 8.550781 5.027344 L 8.5 5.019531 L 8.484375 5.015625 L 8.433594 5.007812 L 8.414062 5.007812 L 8.359375 5.003906 L 8.339844 5.003906 L 8.289062 5 L 8.269531 5 Z M 9.277344 5.632812 L 9.105469 5.753906 L 9.027344 5.953125 L 9.074219 6.15625 L 9.113281 6.210938 L 9.148438 6.253906 L 9.15625 6.265625 L 9.160156 6.269531 L 9.207031 6.332031 L 9.210938 6.332031 L 9.25 6.390625 L 9.253906 6.394531 L 9.257812 6.402344 L 9.371094 6.585938 L 9.375 6.59375 L 9.488281 6.78125 L 9.492188 6.789062 L 9.605469 6.988281 L 9.609375 6.992188 L 9.71875 7.195312 L 9.722656 7.199219 L 9.820312 7.382812 L 9.96875 7.535156 L 10.175781 7.574219 L 10.371094 7.496094 L 10.488281 7.316406 L 10.488281 7.105469 L 10.460938 7.046875 L 10.359375 6.855469 L 10.359375 6.851562 L 10.242188 6.636719 L 10.238281 6.632812 L 10.117188 6.421875 L 10.117188 6.417969 L 9.992188 6.214844 L 9.988281 6.210938 L 9.867188 6.011719 L 9.863281 6.003906 L 9.851562 5.984375 L 9.84375 5.972656 L 9.800781 5.914062 L 9.792969 5.902344 L 9.726562 5.816406 L 9.714844 5.800781 L 9.667969 5.746094 L 9.488281 5.632812 Z M 6.773438 5.964844 L 6.726562 6.015625 L 6.722656 6.023438 L 6.65625 6.117188 L 6.652344 6.128906 L 6.523438 6.328125 L 6.515625 6.339844 L 6.390625 6.550781 L 6.386719 6.558594 L 6.265625 6.777344 L 6.261719 6.785156 L 6.144531 7.011719 L 6.136719 7.019531 L 6.023438 7.25 L 6.019531 7.257812 L 5.984375 7.335938 L 5.953125 7.542969 L 6.046875 7.734375 L 6.226562 7.839844 L 6.4375 7.828125 L 6.605469 7.699219 L 6.640625 7.644531 L 6.671875 7.570312 L 6.675781 7.5625 L 6.785156 7.347656 L 6.789062 7.339844 L 6.898438 7.128906 L 6.902344 7.121094 L 7.015625 6.917969 L 7.019531 6.910156 L 7.132812 6.71875 L 7.140625 6.707031 L 7.253906 6.527344 L 7.257812 6.523438 L 7.261719 6.515625 L 7.3125 6.441406 L 7.316406 6.441406 L 7.316406 6.4375 L 7.320312 6.433594 L 7.316406 6.429688 L 7.382812 6.238281 L 7.328125 6.035156 L 7.171875 5.898438 L 6.960938 5.871094 Z M 10.246094 7.574219 L 10.121094 7.746094 L 10.113281 7.957031 L 10.136719 8.019531 L 10.164062 8.074219 L 10.164062 8.082031 L 10.269531 8.304688 L 10.273438 8.3125 L 10.375 8.542969 L 10.375 8.546875 L 10.476562 8.78125 L 10.480469 8.785156 L 10.578125 9.023438 L 10.578125 9.027344 L 10.679688 9.265625 L 10.679688 9.269531 L 10.703125 9.328125 L 10.832031 9.492188 L 11.035156 9.554688 L 11.234375 9.496094 L 11.371094 9.332031 L 11.394531 9.125 L 11.375 9.058594 L 11.351562 9 L 11.25 8.75 L 11.25 8.746094 L 11.144531 8.5 L 11.144531 8.496094 L 11.039062 8.253906 L 11.035156 8.25 L 10.929688 8.011719 L 10.929688 8.007812 L 10.820312 7.773438 L 10.816406 7.769531 L 10.789062 7.707031 L 10.648438 7.550781 L 10.441406 7.503906 Z M 5.875 7.816406 L 5.714844 7.953125 L 5.683594 8.015625 L 5.589844 8.246094 L 5.585938 8.25 L 5.488281 8.5 L 5.488281 8.503906 L 5.394531 8.753906 L 5.394531 8.757812 L 5.304688 9.003906 L 5.304688 9.007812 L 5.21875 9.253906 L 5.214844 9.257812 L 5.171875 9.390625 L 5.164062 9.601562 L 5.277344 9.78125 L 5.46875 9.867188 L 5.675781 9.832031 L 5.828125 9.683594 L 5.855469 9.625 L 5.898438 9.492188 L 5.902344 9.488281 L 5.984375 9.25 L 5.984375 9.246094 L 6.070312 9.007812 L 6.074219 9.003906 L 6.164062 8.761719 L 6.164062 8.757812 L 6.257812 8.519531 L 6.261719 8.515625 L 6.355469 8.285156 L 6.375 8.078125 L 6.273438 7.890625 L 6.085938 7.792969 Z M 11.105469 9.5625 L 10.964844 9.722656 L 10.941406 9.929688 L 10.957031 9.996094 L 10.964844 10.015625 L 10.96875 10.023438 L 11.148438 10.527344 L 11.152344 10.53125 L 11.324219 11.042969 L 11.425781 11.347656 L 11.546875 11.523438 L 11.742188 11.601562 L 11.949219 11.554688 L 12.09375 11.398438 L 12.128906 11.191406 L 12.113281 11.125 L 12.015625 10.820312 L 12.011719 10.816406 L 11.835938 10.292969 L 11.832031 10.289062 L 11.648438 9.773438 L 11.648438 9.769531 L 11.636719 9.742188 L 11.507812 9.574219 L 11.308594 9.507812 Z M 5.117188 9.878906 L 4.972656 10.03125 L 4.945312 10.089844 L 4.84375 10.429688 L 4.839844 10.433594 L 4.722656 10.851562 L 4.71875 10.855469 L 4.621094 11.230469 L 4.617188 11.234375 L 4.546875 11.5 L 4.558594 11.710938 L 4.683594 11.878906 L 4.878906 11.953125 L 5.085938 11.902344 L 5.226562 11.746094 L 5.25 11.679688 L 5.316406 11.417969 L 5.316406 11.414062 L 5.417969 11.050781 L 5.417969 11.046875 L 5.535156 10.640625 L 5.535156 10.636719 L 5.636719 10.300781 L 5.636719 10.089844 L 5.519531 9.917969 L 5.324219 9.835938 Z M 11.8125 11.613281 L 11.664062 11.761719 L 11.625 11.972656 L 11.640625 12.035156 L 11.65625 12.089844 L 11.65625 12.09375 L 11.808594 12.609375 L 11.8125 12.613281 L 11.957031 13.128906 L 11.957031 13.132812 L 12.03125 13.417969 L 12.144531 13.59375 L 12.335938 13.679688 L 12.546875 13.644531 L 12.699219 13.5 L 12.742188 13.292969 L 12.734375 13.226562 L 12.65625 12.941406 L 12.65625 12.9375 L 12.507812 12.414062 L 12.503906 12.410156 L 12.351562 11.882812 L 12.347656 11.878906 L 12.332031 11.820312 L 12.214844 11.648438 L 12.019531 11.566406 Z M 12.40625 13.695312 L 12.253906 13.839844 L 12.203125 14.046875 L 12.214844 14.113281 L 12.226562 14.152344 L 12.226562 14.15625 L 12.347656 14.65625 L 12.351562 14.65625 L 12.464844 15.148438 L 12.46875 15.148438 L 12.546875 15.511719 L 12.652344 15.695312 L 12.84375 15.789062 L 13.050781 15.761719 L 13.210938 15.621094 L 13.265625 15.417969 L 13.253906 15.351562 L 13.171875 14.984375 L 13.171875 14.980469 L 13.054688 14.488281 L 13.054688 14.484375 L 12.929688 13.980469 L 12.929688 13.976562 L 12.917969 13.933594 L 12.808594 13.75 L 12.613281 13.664062 Z M 12.914062 15.804688 L 12.75 15.941406 L 12.695312 16.144531 L 12.699219 16.210938 L 12.765625 16.53125 L 12.851562 16.957031 L 12.929688 17.363281 L 12.925781 17.363281 L 12.972656 17.625 L 13.070312 17.8125 L 13.253906 17.914062 L 13.464844 17.898438 L 13.628906 17.765625 L 13.695312 17.5625 L 13.6875 17.496094 L 13.640625 17.234375 L 13.640625 17.230469 L 13.5625 16.824219 L 13.5625 16.820312 L 13.476562 16.386719 L 13.410156 16.066406 L 13.308594 15.878906 L 13.121094 15.78125 Z M 13.324219 17.9375 L 13.15625 18.0625 L 13.089844 18.265625 L 13.09375 18.332031 L 13.109375 18.433594 L 13.109375 18.4375 L 13.152344 18.734375 L 13.191406 19.003906 L 13.21875 19.242188 L 13.21875 19.246094 L 13.238281 19.4375 L 13.238281 19.449219 L 13.25 19.609375 L 13.253906 19.722656 L 13.324219 19.925781 L 13.488281 20.050781 L 13.699219 20.066406 L 13.882812 19.957031 L 13.972656 19.765625 L 13.976562 19.699219 L 13.972656 19.570312 L 13.972656 19.554688 L 13.960938 19.382812 L 13.960938 19.375 L 13.941406 19.167969 L 13.9375 19.160156 L 13.910156 18.917969 L 13.910156 18.914062 L 13.871094 18.640625 L 13.871094 18.632812 L 13.828125 18.328125 L 13.824219 18.324219 L 13.808594 18.21875 L 13.714844 18.027344 L 13.535156 17.921875 Z M 13.324219 17.9375 "/>
<path fill-rule="evenodd" fill="rgb(100%, 100%, 100%)" fill-opacity="1" d="M 19.632812 5.003906 L 19.613281 5.003906 L 19.5625 5.007812 L 19.542969 5.007812 L 19.492188 5.015625 L 19.476562 5.019531 L 19.421875 5.027344 L 19.398438 5.03125 L 19.300781 5.054688 L 19.269531 5.0625 L 19.171875 5.097656 L 19.144531 5.109375 L 19.054688 5.148438 L 19.03125 5.160156 L 18.964844 5.195312 L 18.816406 5.34375 L 18.773438 5.550781 L 18.855469 5.746094 L 19.03125 5.859375 L 19.242188 5.859375 L 19.304688 5.832031 L 19.34375 5.8125 L 19.425781 5.777344 L 19.488281 5.753906 L 19.546875 5.742188 L 19.550781 5.742188 L 19.582031 5.734375 L 19.585938 5.734375 L 19.597656 5.730469 L 19.613281 5.730469 L 19.648438 5.726562 L 19.75 5.726562 L 19.761719 5.730469 L 19.769531 5.730469 L 19.804688 5.738281 L 19.824219 5.742188 L 19.835938 5.742188 L 19.839844 5.746094 L 19.878906 5.753906 L 19.917969 5.769531 L 19.941406 5.777344 L 19.957031 5.785156 L 19.980469 5.792969 L 20 5.804688 L 20.027344 5.816406 L 20.070312 5.839844 L 20.078125 5.847656 L 20.085938 5.851562 L 20.117188 5.871094 L 20.132812 5.878906 L 20.164062 5.90625 L 20.214844 5.941406 L 20.226562 5.953125 L 20.242188 5.964844 L 20.433594 6.046875 L 20.640625 6.007812 L 20.792969 5.859375 L 20.835938 5.65625 L 20.753906 5.457031 L 20.707031 5.410156 L 20.683594 5.390625 L 20.671875 5.378906 L 20.609375 5.332031 L 20.59375 5.324219 L 20.535156 5.28125 L 20.523438 5.269531 L 20.460938 5.230469 L 20.445312 5.222656 L 20.386719 5.1875 L 20.371094 5.179688 L 20.3125 5.148438 L 20.234375 5.117188 L 20.21875 5.109375 L 20.140625 5.078125 L 20.082031 5.058594 L 20.066406 5.054688 L 20.007812 5.039062 L 19.988281 5.035156 L 19.933594 5.023438 L 19.914062 5.019531 L 19.855469 5.011719 L 19.835938 5.011719 L 19.78125 5.003906 L 19.761719 5.003906 L 19.707031 5 L 19.6875 5 Z M 18.355469 5.699219 L 18.308594 5.746094 L 18.261719 5.800781 L 18.25 5.816406 L 18.183594 5.902344 L 18.175781 5.914062 L 18.132812 5.972656 L 18.125 5.984375 L 18.113281 6.003906 L 18.109375 6.011719 L 17.984375 6.210938 L 17.984375 6.214844 L 17.863281 6.417969 L 17.859375 6.421875 L 17.738281 6.632812 L 17.734375 6.636719 L 17.621094 6.851562 L 17.617188 6.855469 L 17.515625 7.046875 L 17.472656 7.25 L 17.558594 7.445312 L 17.734375 7.5625 L 17.945312 7.558594 L 18.117188 7.441406 L 18.15625 7.382812 L 18.253906 7.199219 L 18.253906 7.195312 L 18.367188 6.992188 L 18.371094 6.988281 L 18.484375 6.789062 L 18.488281 6.78125 L 18.601562 6.59375 L 18.605469 6.585938 L 18.71875 6.402344 L 18.722656 6.394531 L 18.726562 6.390625 L 18.765625 6.332031 L 18.769531 6.332031 L 18.8125 6.269531 L 18.820312 6.261719 L 18.824219 6.253906 L 18.863281 6.210938 L 18.945312 6.019531 L 18.90625 5.8125 L 18.757812 5.660156 L 18.550781 5.617188 Z M 20.6875 5.984375 L 20.597656 6.171875 L 20.628906 6.382812 L 20.65625 6.433594 L 20.660156 6.441406 L 20.714844 6.515625 L 20.71875 6.523438 L 20.722656 6.527344 L 20.835938 6.707031 L 20.84375 6.71875 L 20.957031 6.910156 L 20.960938 6.917969 L 21.074219 7.121094 L 21.078125 7.128906 L 21.1875 7.339844 L 21.191406 7.347656 L 21.300781 7.5625 L 21.304688 7.570312 L 21.335938 7.644531 L 21.476562 7.796875 L 21.683594 7.847656 L 21.882812 7.777344 L 22.007812 7.609375 L 22.015625 7.398438 L 21.992188 7.335938 L 21.953125 7.257812 L 21.953125 7.25 L 21.835938 7.019531 L 21.835938 7.011719 L 21.714844 6.785156 L 21.710938 6.777344 L 21.589844 6.558594 L 21.582031 6.550781 L 21.457031 6.339844 L 21.453125 6.328125 L 21.324219 6.128906 L 21.320312 6.117188 L 21.253906 6.023438 L 21.25 6.015625 L 21.246094 6.015625 L 21.078125 5.886719 L 20.867188 5.875 Z M 17.386719 7.523438 L 17.21875 7.648438 L 17.1875 7.707031 L 17.15625 7.769531 L 17.15625 7.773438 L 17.046875 8.007812 L 17.042969 8.011719 L 16.9375 8.25 L 16.9375 8.253906 L 16.832031 8.496094 L 16.832031 8.5 L 16.726562 8.746094 L 16.726562 8.75 L 16.625 9 L 16.601562 9.058594 L 16.585938 9.269531 L 16.6875 9.453125 L 16.875 9.550781 L 17.085938 9.523438 L 17.246094 9.386719 L 17.273438 9.328125 L 17.296875 9.269531 L 17.296875 9.265625 L 17.394531 9.027344 L 17.398438 9.023438 L 17.496094 8.785156 L 17.5 8.78125 L 17.597656 8.546875 L 17.601562 8.542969 L 17.707031 8.3125 L 17.707031 8.304688 L 17.8125 8.082031 L 17.8125 8.074219 L 17.839844 8.019531 L 17.871094 7.808594 L 17.78125 7.621094 L 17.597656 7.511719 Z M 21.753906 7.847656 L 21.625 8.011719 L 21.601562 8.222656 L 21.621094 8.285156 L 21.714844 8.515625 L 21.714844 8.519531 L 21.808594 8.757812 L 21.8125 8.761719 L 21.902344 9.003906 L 21.902344 9.007812 L 21.988281 9.246094 L 21.992188 9.25 L 22.074219 9.488281 L 22.074219 9.492188 L 22.121094 9.625 L 22.242188 9.792969 L 22.441406 9.867188 L 22.644531 9.820312 L 22.789062 9.664062 L 22.820312 9.457031 L 22.804688 9.390625 L 22.761719 9.257812 L 22.757812 9.253906 L 22.675781 9.007812 L 22.671875 9.003906 L 22.582031 8.757812 L 22.582031 8.753906 L 22.488281 8.503906 L 22.484375 8.5 L 22.390625 8.25 L 22.386719 8.246094 L 22.292969 8.015625 L 22.160156 7.847656 L 21.957031 7.789062 Z M 16.527344 9.539062 L 16.367188 9.683594 L 16.339844 9.742188 L 16.328125 9.769531 L 16.328125 9.773438 L 16.140625 10.289062 L 16.140625 10.292969 L 15.960938 10.816406 L 15.960938 10.820312 L 15.863281 11.125 L 15.859375 11.335938 L 15.972656 11.515625 L 16.167969 11.597656 L 16.375 11.558594 L 16.527344 11.410156 L 16.550781 11.347656 L 16.648438 11.050781 L 16.652344 11.042969 L 16.824219 10.53125 L 16.824219 10.527344 L 17.007812 10.023438 L 17.007812 10.015625 L 17.015625 9.996094 L 17.03125 9.785156 L 16.921875 9.601562 L 16.734375 9.511719 Z M 22.511719 9.878906 L 22.363281 10.03125 L 22.324219 10.234375 L 22.339844 10.300781 L 22.4375 10.636719 L 22.441406 10.640625 L 22.558594 11.046875 L 22.558594 11.050781 L 22.65625 11.414062 L 22.660156 11.417969 L 22.726562 11.679688 L 22.835938 11.859375 L 23.027344 11.949219 L 23.238281 11.914062 L 23.390625 11.769531 L 23.4375 11.566406 L 23.425781 11.5 L 23.359375 11.234375 L 23.359375 11.230469 L 23.253906 10.855469 L 23.253906 10.851562 L 23.132812 10.433594 L 23.132812 10.429688 L 23.03125 10.089844 L 22.914062 9.917969 L 22.71875 9.835938 Z M 15.816406 11.609375 L 15.671875 11.761719 L 15.644531 11.820312 L 15.625 11.878906 L 15.625 11.882812 L 15.472656 12.410156 L 15.46875 12.414062 L 15.320312 12.9375 L 15.320312 12.941406 L 15.242188 13.226562 L 15.25 13.4375 L 15.375 13.609375 L 15.570312 13.683594 L 15.777344 13.632812 L 15.921875 13.476562 L 15.941406 13.417969 L 16.019531 13.132812 L 16.019531 13.128906 L 16.164062 12.613281 L 16.167969 12.609375 L 16.320312 12.09375 L 16.320312 12.089844 L 16.335938 12.035156 L 16.335938 11.824219 L 16.21875 11.648438 L 16.023438 11.566406 Z M 15.222656 13.710938 L 15.082031 13.867188 L 15.058594 13.933594 L 15.046875 13.976562 L 15.046875 13.980469 L 14.921875 14.484375 L 14.921875 14.488281 L 14.804688 14.980469 L 14.804688 14.984375 L 14.722656 15.351562 L 14.734375 15.5625 L 14.867188 15.726562 L 15.066406 15.792969 L 15.269531 15.734375 L 15.40625 15.574219 L 15.425781 15.511719 L 15.507812 15.148438 L 15.511719 15.148438 L 15.625 14.65625 L 15.75 14.15625 L 15.75 14.152344 L 15.761719 14.113281 L 15.75 13.902344 L 15.625 13.730469 L 15.425781 13.660156 Z M 14.71875 15.835938 L 14.585938 16 L 14.566406 16.066406 L 14.5 16.386719 L 14.414062 16.820312 L 14.414062 16.824219 L 14.335938 17.230469 L 14.335938 17.234375 L 14.289062 17.496094 L 14.3125 17.707031 L 14.449219 17.867188 L 14.65625 17.921875 L 14.855469 17.855469 L 14.984375 17.6875 L 15 17.625 L 15.046875 17.367188 L 15.046875 17.363281 L 15.125 16.957031 L 15.207031 16.53125 L 15.210938 16.53125 L 15.273438 16.210938 L 15.257812 16 L 15.121094 15.839844 L 14.921875 15.777344 Z M 14.308594 17.984375 L 14.183594 18.152344 L 14.167969 18.21875 L 14.152344 18.324219 L 14.152344 18.328125 L 14.105469 18.632812 L 14.105469 18.640625 L 14.066406 18.914062 L 14.066406 18.917969 L 14.039062 19.160156 L 14.039062 19.167969 L 14.015625 19.375 L 14.015625 19.382812 L 14.003906 19.554688 L 14.003906 19.570312 L 14 19.699219 L 14.054688 19.90625 L 14.210938 20.042969 L 14.421875 20.070312 L 14.609375 19.972656 L 14.714844 19.789062 L 14.722656 19.722656 L 14.726562 19.609375 L 14.738281 19.449219 L 14.757812 19.246094 L 14.757812 19.242188 L 14.785156 19.003906 L 14.820312 18.738281 L 14.820312 18.734375 L 14.867188 18.4375 L 14.867188 18.433594 L 14.882812 18.332031 L 14.855469 18.125 L 14.714844 17.964844 L 14.507812 17.914062 Z M 14.308594 17.984375 "/>
<path fill-rule="evenodd" fill="rgb(100%, 100%, 100%)" fill-opacity="1" d="M 18.042969 12.183594 L 18.019531 12.1875 L 17.953125 12.195312 L 17.925781 12.199219 L 17.863281 12.210938 L 17.839844 12.21875 L 17.777344 12.234375 L 17.757812 12.242188 L 17.699219 12.261719 L 17.621094 12.292969 L 17.605469 12.300781 L 17.550781 12.324219 L 17.535156 12.335938 L 17.484375 12.363281 L 17.46875 12.371094 L 17.421875 12.398438 L 17.40625 12.410156 L 17.316406 12.472656 L 17.300781 12.488281 L 17.253906 12.523438 L 17.148438 12.691406 L 17.15625 12.886719 L 17.28125 13.039062 L 17.46875 13.097656 L 17.652344 13.03125 L 17.664062 13.023438 L 17.710938 12.984375 L 17.761719 12.949219 L 17.796875 12.925781 L 17.8125 12.917969 L 17.832031 12.90625 L 17.871094 12.886719 L 17.882812 12.882812 L 17.886719 12.878906 L 17.910156 12.871094 L 17.949219 12.859375 L 18.003906 12.84375 L 18.011719 12.839844 L 18.050781 12.832031 L 18.082031 12.832031 L 18.109375 12.828125 L 18.117188 12.828125 L 18.167969 12.832031 L 18.195312 12.835938 L 18.199219 12.835938 L 18.253906 12.847656 L 18.292969 12.859375 L 18.296875 12.859375 L 18.355469 12.886719 L 18.414062 12.917969 L 18.425781 12.921875 L 18.472656 12.957031 L 18.664062 13.003906 L 18.847656 12.9375 L 18.957031 12.773438 L 18.953125 12.578125 L 18.835938 12.421875 L 18.824219 12.410156 L 18.75 12.367188 L 18.726562 12.351562 L 18.648438 12.308594 L 18.625 12.296875 L 18.546875 12.265625 L 18.519531 12.253906 L 18.445312 12.230469 L 18.417969 12.222656 L 18.34375 12.203125 L 18.3125 12.199219 L 18.242188 12.191406 L 18.210938 12.1875 L 18.140625 12.183594 Z M 18.839844 12.949219 L 18.777344 13.136719 L 18.832031 13.324219 L 18.839844 13.335938 L 18.886719 13.398438 L 18.894531 13.40625 L 18.964844 13.503906 L 18.96875 13.511719 L 19.035156 13.613281 L 19.039062 13.621094 L 19.105469 13.726562 L 19.109375 13.734375 L 19.175781 13.84375 L 19.179688 13.847656 L 19.242188 13.960938 L 19.246094 13.96875 L 19.308594 14.082031 L 19.308594 14.085938 L 19.371094 14.207031 L 19.375 14.210938 L 19.429688 14.328125 L 19.433594 14.332031 L 19.460938 14.390625 L 19.59375 14.535156 L 19.785156 14.578125 L 19.964844 14.496094 L 20.066406 14.328125 L 20.050781 14.132812 L 20.046875 14.121094 L 20.015625 14.054688 L 19.949219 13.921875 L 19.949219 13.914062 L 19.882812 13.789062 L 19.878906 13.78125 L 19.8125 13.65625 L 19.808594 13.648438 L 19.738281 13.523438 L 19.734375 13.519531 L 19.660156 13.398438 L 19.660156 13.390625 L 19.582031 13.269531 L 19.578125 13.265625 L 19.5 13.148438 L 19.496094 13.140625 L 19.417969 13.027344 L 19.410156 13.019531 L 19.359375 12.949219 L 19.199219 12.832031 L 19 12.832031 Z M 16.789062 13.070312 L 16.78125 13.082031 L 16.714844 13.179688 L 16.710938 13.183594 L 16.558594 13.410156 L 16.554688 13.421875 L 16.410156 13.65625 L 16.40625 13.664062 L 16.265625 13.910156 L 16.261719 13.917969 L 16.128906 14.167969 L 16.121094 14.175781 L 16.09375 14.230469 L 16.0625 14.425781 L 16.152344 14.601562 L 16.324219 14.695312 L 16.519531 14.667969 L 16.664062 14.535156 L 16.671875 14.523438 L 16.699219 14.46875 L 16.828125 14.230469 L 16.832031 14.222656 L 16.960938 13.996094 L 16.96875 13.988281 L 17.101562 13.769531 L 17.246094 13.546875 L 17.25 13.539062 L 17.3125 13.453125 L 17.371094 13.265625 L 17.308594 13.078125 L 17.148438 12.960938 L 16.953125 12.957031 Z M 19.8125 14.59375 L 19.699219 14.757812 L 19.707031 14.953125 L 19.714844 14.96875 L 19.75 15.058594 L 19.75 15.0625 L 19.835938 15.28125 L 19.835938 15.289062 L 19.910156 15.492188 L 19.914062 15.496094 L 19.976562 15.679688 L 19.976562 15.683594 L 20.027344 15.84375 L 20.03125 15.847656 L 20.101562 16.078125 L 20.125 16.15625 L 20.234375 16.320312 L 20.417969 16.390625 L 20.609375 16.339844 L 20.734375 16.1875 L 20.75 15.992188 L 20.746094 15.980469 L 20.722656 15.898438 L 20.722656 15.890625 L 20.648438 15.652344 L 20.644531 15.644531 L 20.589844 15.476562 L 20.589844 15.472656 L 20.523438 15.28125 L 20.519531 15.277344 L 20.441406 15.0625 L 20.441406 15.054688 L 20.351562 14.828125 L 20.351562 14.820312 L 20.3125 14.726562 L 20.183594 14.574219 L 19.996094 14.523438 Z M 15.953125 14.671875 L 15.816406 14.8125 L 15.808594 14.824219 L 15.742188 14.972656 L 15.738281 14.980469 L 15.621094 15.25 L 15.621094 15.253906 L 15.507812 15.523438 L 15.507812 15.53125 L 15.402344 15.804688 L 15.398438 15.808594 L 15.3125 16.042969 L 15.304688 16.238281 L 15.410156 16.40625 L 15.589844 16.476562 L 15.78125 16.429688 L 15.910156 16.28125 L 15.917969 16.265625 L 16.003906 16.035156 L 16.003906 16.03125 L 16.109375 15.769531 L 16.109375 15.765625 L 16.214844 15.503906 L 16.328125 15.242188 L 16.332031 15.234375 L 16.398438 15.09375 L 16.417969 14.894531 L 16.324219 14.722656 L 16.148438 14.636719 Z M 15.222656 16.496094 L 15.101562 16.652344 L 15.09375 16.664062 L 15.019531 16.894531 L 15.019531 16.898438 L 14.9375 17.15625 L 14.9375 17.160156 L 14.863281 17.414062 L 14.863281 17.417969 L 14.789062 17.664062 L 14.789062 17.667969 L 14.722656 17.910156 L 14.722656 17.914062 L 14.71875 17.921875 L 14.730469 18.117188 L 14.851562 18.273438 L 15.042969 18.328125 L 15.226562 18.261719 L 15.339844 18.101562 L 15.34375 18.085938 L 15.347656 18.078125 L 15.410156 17.84375 L 15.480469 17.597656 L 15.554688 17.347656 L 15.558594 17.34375 L 15.636719 17.09375 L 15.636719 17.089844 L 15.710938 16.863281 L 15.710938 16.667969 L 15.597656 16.507812 L 15.410156 16.441406 Z M 14.675781 18.378906 L 14.5625 18.539062 L 14.5625 18.554688 L 14.554688 18.582031 L 14.554688 18.585938 L 14.507812 18.785156 L 14.507812 18.792969 L 14.433594 19.152344 L 14.429688 19.15625 L 14.402344 19.316406 L 14.402344 19.320312 L 14.378906 19.460938 L 14.375 19.46875 L 14.359375 19.59375 L 14.355469 19.601562 L 14.34375 19.707031 L 14.339844 19.71875 L 14.332031 19.804688 L 14.332031 19.824219 L 14.328125 19.890625 L 14.382812 20.078125 L 14.535156 20.203125 L 14.730469 20.21875 L 14.898438 20.113281 L 14.972656 19.929688 L 14.976562 19.914062 L 14.976562 19.867188 L 14.984375 19.789062 L 14.984375 19.777344 L 14.996094 19.6875 L 14.996094 19.679688 L 15.015625 19.570312 L 15.015625 19.5625 L 15.035156 19.433594 L 15.039062 19.433594 L 15.066406 19.28125 L 15.066406 19.277344 L 15.140625 18.929688 L 15.140625 18.925781 L 15.183594 18.734375 L 15.183594 18.730469 L 15.1875 18.707031 L 15.175781 18.507812 L 15.046875 18.359375 L 14.859375 18.308594 Z M 14.675781 18.378906 "/>
<path fill-rule="evenodd" fill="rgb(100%, 100%, 100%)" fill-opacity="1" d="M 9.636719 12.1875 L 9.609375 12.191406 L 9.535156 12.199219 L 9.503906 12.203125 L 9.433594 12.222656 L 9.40625 12.230469 L 9.328125 12.253906 L 9.300781 12.265625 L 9.222656 12.296875 L 9.199219 12.308594 L 9.121094 12.351562 L 9.097656 12.367188 L 9.027344 12.410156 L 8.898438 12.5625 L 8.886719 12.761719 L 8.988281 12.925781 L 9.167969 13.003906 L 9.359375 12.964844 L 9.375 12.957031 L 9.425781 12.921875 L 9.488281 12.890625 L 9.546875 12.863281 L 9.554688 12.859375 L 9.589844 12.847656 L 9.644531 12.835938 L 9.652344 12.835938 L 9.679688 12.832031 L 9.730469 12.828125 L 9.738281 12.828125 L 9.765625 12.832031 L 9.800781 12.832031 L 9.839844 12.839844 L 9.84375 12.84375 L 9.902344 12.859375 L 9.921875 12.863281 L 9.929688 12.867188 L 9.941406 12.871094 L 9.960938 12.878906 L 10.039062 12.917969 L 10.085938 12.949219 L 10.136719 12.984375 L 10.140625 12.992188 L 10.183594 13.023438 L 10.367188 13.097656 L 10.554688 13.050781 L 10.6875 12.898438 L 10.703125 12.703125 L 10.605469 12.535156 L 10.59375 12.523438 L 10.550781 12.488281 L 10.53125 12.472656 L 10.445312 12.410156 L 10.425781 12.398438 L 10.378906 12.371094 L 10.363281 12.363281 L 10.3125 12.335938 L 10.296875 12.324219 L 10.242188 12.300781 L 10.226562 12.292969 L 10.167969 12.269531 L 10.152344 12.261719 L 10.089844 12.242188 L 10.070312 12.234375 L 10.007812 12.21875 L 9.984375 12.210938 L 9.921875 12.199219 L 9.898438 12.195312 L 9.832031 12.1875 L 9.804688 12.183594 L 9.707031 12.183594 Z M 8.5 12.9375 L 8.488281 12.949219 L 8.4375 13.019531 L 8.429688 13.027344 L 8.351562 13.140625 L 8.347656 13.148438 L 8.269531 13.265625 L 8.265625 13.269531 L 8.191406 13.390625 L 8.1875 13.398438 L 8.113281 13.519531 L 8.109375 13.523438 L 8.039062 13.648438 L 8.035156 13.65625 L 7.96875 13.78125 L 7.96875 13.789062 L 7.902344 13.914062 L 7.832031 14.054688 L 7.800781 14.121094 L 7.777344 14.3125 L 7.871094 14.488281 L 8.046875 14.574219 L 8.242188 14.542969 L 8.382812 14.40625 L 8.386719 14.390625 L 8.414062 14.332031 L 8.417969 14.328125 L 8.476562 14.210938 L 8.476562 14.207031 L 8.539062 14.085938 L 8.542969 14.082031 L 8.605469 13.96875 L 8.605469 13.960938 L 8.671875 13.847656 L 8.671875 13.84375 L 8.738281 13.734375 L 8.742188 13.726562 L 8.808594 13.621094 L 8.8125 13.613281 L 8.882812 13.511719 L 8.886719 13.503906 L 8.953125 13.40625 L 8.960938 13.398438 L 9.007812 13.335938 L 9.070312 13.152344 L 9.015625 12.960938 L 8.863281 12.839844 L 8.664062 12.828125 Z M 10.550781 13.066406 L 10.480469 13.25 L 10.527344 13.4375 L 10.535156 13.453125 L 10.597656 13.539062 L 10.601562 13.546875 L 10.742188 13.757812 L 10.746094 13.769531 L 10.882812 13.988281 L 10.886719 13.996094 L 11.015625 14.222656 L 11.023438 14.230469 L 11.148438 14.46875 L 11.175781 14.523438 L 11.316406 14.664062 L 11.507812 14.695312 L 11.6875 14.609375 L 11.78125 14.4375 L 11.757812 14.246094 L 11.753906 14.230469 L 11.722656 14.167969 L 11.585938 13.917969 L 11.582031 13.910156 L 11.441406 13.664062 L 11.4375 13.65625 L 11.292969 13.421875 L 11.289062 13.410156 L 11.136719 13.183594 L 11.132812 13.179688 L 11.066406 13.082031 L 10.910156 12.964844 L 10.714844 12.957031 Z M 7.675781 14.566406 L 7.542969 14.710938 L 7.535156 14.726562 L 7.496094 14.820312 L 7.496094 14.828125 L 7.40625 15.054688 L 7.40625 15.0625 L 7.328125 15.277344 L 7.324219 15.28125 L 7.257812 15.472656 L 7.257812 15.476562 L 7.203125 15.644531 L 7.203125 15.652344 L 7.128906 15.890625 L 7.125 15.898438 L 7.101562 15.980469 L 7.109375 16.175781 L 7.226562 16.332031 L 7.414062 16.390625 L 7.601562 16.332031 L 7.71875 16.171875 L 7.722656 16.15625 L 7.746094 16.082031 L 7.746094 16.078125 L 7.816406 15.847656 L 7.820312 15.84375 L 7.871094 15.683594 L 7.875 15.679688 L 7.9375 15.492188 L 8.011719 15.289062 L 8.015625 15.28125 L 8.097656 15.0625 L 8.101562 15.058594 L 8.136719 14.96875 L 8.152344 14.773438 L 8.046875 14.601562 L 7.867188 14.523438 Z M 11.535156 14.714844 L 11.433594 14.882812 L 11.445312 15.078125 L 11.453125 15.09375 L 11.515625 15.234375 L 11.519531 15.242188 L 11.628906 15.5 L 11.632812 15.503906 L 11.738281 15.765625 L 11.742188 15.769531 L 11.84375 16.03125 L 11.929688 16.265625 L 12.050781 16.421875 L 12.242188 16.480469 L 12.429688 16.414062 L 12.542969 16.253906 L 12.542969 16.054688 L 12.535156 16.042969 L 12.449219 15.808594 L 12.449219 15.804688 L 12.34375 15.53125 L 12.339844 15.523438 L 12.230469 15.253906 L 12.226562 15.25 L 12.109375 14.980469 L 12.109375 14.972656 L 12.039062 14.824219 L 11.90625 14.679688 L 11.714844 14.636719 Z M 12.261719 16.5 L 12.144531 16.65625 L 12.132812 16.851562 L 12.136719 16.863281 L 12.210938 17.089844 L 12.210938 17.09375 L 12.214844 17.09375 L 12.289062 17.34375 L 12.292969 17.347656 L 12.367188 17.59375 L 12.367188 17.597656 L 12.4375 17.839844 L 12.4375 17.84375 L 12.5 18.078125 L 12.503906 18.085938 L 12.609375 18.253906 L 12.792969 18.328125 L 12.984375 18.28125 L 13.113281 18.132812 L 13.132812 17.9375 L 13.128906 17.921875 L 13.125 17.914062 L 13.125 17.910156 L 13.058594 17.667969 L 13.058594 17.664062 L 12.988281 17.417969 L 12.984375 17.414062 L 12.910156 17.160156 L 12.910156 17.15625 L 12.828125 16.898438 L 12.828125 16.894531 L 12.753906 16.664062 L 12.636719 16.503906 L 12.453125 16.441406 Z M 12.8125 18.351562 L 12.679688 18.496094 L 12.65625 18.691406 L 12.660156 18.707031 L 12.664062 18.730469 L 12.667969 18.734375 L 12.707031 18.925781 L 12.710938 18.929688 L 12.78125 19.28125 L 12.785156 19.28125 L 12.808594 19.429688 L 12.8125 19.433594 L 12.832031 19.570312 L 12.835938 19.570312 L 12.851562 19.6875 L 12.863281 19.789062 L 12.867188 19.789062 L 12.871094 19.847656 L 12.871094 19.867188 L 12.875 19.914062 L 12.941406 20.101562 L 13.101562 20.210938 L 13.300781 20.210938 L 13.457031 20.09375 L 13.519531 19.90625 L 13.519531 19.890625 L 13.515625 19.824219 L 13.515625 19.804688 L 13.507812 19.71875 L 13.507812 19.707031 L 13.492188 19.601562 L 13.492188 19.59375 L 13.472656 19.46875 L 13.472656 19.460938 L 13.449219 19.320312 L 13.445312 19.316406 L 13.417969 19.15625 L 13.417969 19.152344 L 13.34375 18.792969 L 13.339844 18.785156 L 13.296875 18.585938 L 13.292969 18.582031 L 13.289062 18.554688 L 13.183594 18.386719 L 13.003906 18.308594 Z M 12.8125 18.351562 "/>
<path fill-rule="evenodd" fill="rgb(100%, 100%, 100%)" fill-opacity="1" d="M 13.8125 2.265625 L 13.648438 2.441406 L 13.59375 2.660156 L 13.59375 4.511719 L 13.65625 4.746094 L 13.828125 4.914062 L 14.066406 4.972656 L 14.296875 4.90625 L 14.464844 4.726562 L 14.519531 4.511719 L 14.519531 2.660156 L 14.457031 2.425781 L 14.28125 2.253906 L 14.046875 2.195312 Z M 13.8125 5.042969 L 13.648438 5.21875 L 13.59375 5.4375 L 13.59375 7.289062 L 13.65625 7.523438 L 13.828125 7.691406 L 14.066406 7.75 L 14.296875 7.683594 L 14.464844 7.503906 L 14.519531 7.289062 L 14.519531 5.4375 L 14.457031 5.203125 L 14.28125 5.03125 L 14.046875 4.972656 Z M 13.8125 7.820312 L 13.648438 7.996094 L 13.59375 8.214844 L 13.59375 10.066406 L 13.65625 10.300781 L 13.828125 10.46875 L 14.066406 10.527344 L 14.296875 10.460938 L 14.464844 10.28125 L 14.519531 10.066406 L 14.519531 8.214844 L 14.457031 7.980469 L 14.28125 7.808594 L 14.046875 7.75 Z M 13.8125 10.597656 L 13.648438 10.773438 L 13.59375 10.992188 L 13.59375 12.839844 L 13.65625 13.078125 L 13.828125 13.246094 L 14.066406 13.304688 L 14.296875 13.238281 L 14.464844 13.058594 L 14.519531 12.839844 L 14.519531 10.992188 L 14.457031 10.757812 L 14.28125 10.585938 L 14.046875 10.527344 Z M 13.8125 13.375 L 13.648438 13.550781 L 13.59375 13.769531 L 13.59375 15.617188 L 13.65625 15.851562 L 13.828125 16.023438 L 14.066406 16.082031 L 14.296875 16.011719 L 14.464844 15.835938 L 14.519531 15.617188 L 14.519531 13.769531 L 14.457031 13.535156 L 14.28125 13.363281 L 14.046875 13.304688 Z M 13.8125 16.148438 L 13.648438 16.328125 L 13.59375 16.546875 L 13.59375 18.304688 L 13.65625 18.539062 L 13.828125 18.707031 L 14.066406 18.765625 L 14.296875 18.699219 L 14.464844 18.519531 L 14.519531 18.304688 L 14.519531 16.546875 L 14.457031 16.308594 L 14.28125 16.140625 L 14.046875 16.082031 Z M 13.8125 16.148438 "/>
<path fill-rule="nonzero" fill="rgb(100%, 100%, 100%)" fill-opacity="1" stroke-width="20" stroke-linecap="round" stroke-linejoin="bevel" stroke="rgb(100%, 100%, 100%)" stroke-opacity="1" stroke-miterlimit="4" d="M 206.333705 398.91183 L 370.510603 398.91183 L 370.510603 495.605469 L 206.333705 495.605469 Z M 206.333705 398.91183 " transform="matrix(0.0482759, 0, 0, 0.0482759, 0, 0)"/>
<path fill-rule="nonzero" fill="rgb(100%, 100%, 100%)" fill-opacity="1" stroke-width="17.342514" stroke-linecap="round" stroke-linejoin="bevel" stroke="rgb(100%, 100%, 100%)" stroke-opacity="1" stroke-miterlimit="4" d="M 168.222656 445.195312 L 413.314732 445.195312 L 413.314732 493.90625 L 168.222656 493.90625 Z M 168.222656 445.195312 " transform="matrix(0.0482759, 0, 0, 0.0482759, 0, 0)"/>
</svg>
