<?xml version="1.0" encoding="UTF-8"?>
<svg xmlns="http://www.w3.org/2000/svg" xmlns:xlink="http://www.w3.org/1999/xlink" width="28" height="28" viewBox="0 0 28 28">
<path fill-rule="nonzero" fill="rgb(6.666667%, 6.666667%, 6.666667%)" fill-opacity="1" stroke-width="3.408" stroke-linecap="butt" stroke-linejoin="miter" stroke="rgb(93.333333%, 93.333333%, 93.333333%)" stroke-opacity="1" stroke-miterlimit="4" d="M 66.269531 1.780134 C 24.921875 1.780134 1.699219 23.141741 1.699219 66.835938 L 1.699219 516.967076 C 1.699219 557.748326 22.575335 579.190848 63.922991 579.190848 L 515.915179 579.190848 C 557.262835 579.190848 578.138951 558.800223 578.138951 516.967076 L 578.138951 66.835938 C 578.138951 24.193638 557.262835 1.780134 514.620536 1.780134 C 514.620536 1.780134 66.107701 1.618304 66.269531 1.780134 Z M 66.269531 1.780134 " transform="matrix(0.0482759, 0, 0, 0.0482759, 0, 0)"/>
<path fill-rule="nonzero" fill="rgb(100%, 100%, 100%)" fill-opacity="1" d="M 12.441406 5.957031 C 12.441406 5.433594 12.613281 5.003906 12.953125 4.667969 C 13.292969 4.332031 13.730469 4.164062 14.261719 4.164062 C 14.835938 4.164062 15.3125 4.34375 15.691406 4.695312 C 16.070312 5.050781 16.257812 5.453125 16.257812 5.898438 C 16.257812 6.226562 16.183594 6.558594 16.03125 6.886719 C 15.882812 7.21875 15.644531 7.484375 15.320312 7.683594 C 14.992188 7.882812 14.660156 7.980469 14.320312 7.980469 C 13.855469 7.980469 13.425781 7.78125 13.03125 7.382812 C 12.636719 6.984375 12.441406 6.507812 12.441406 5.957031 Z M 10.402344 23.332031 L 10.375 22.386719 L 12.019531 22.167969 C 12.261719 22.097656 12.429688 22 12.523438 21.867188 C 12.613281 21.738281 12.660156 21.445312 12.660156 20.988281 L 12.660156 20.828125 C 12.660156 20.710938 12.667969 20.5 12.683594 20.191406 C 12.695312 19.886719 12.703125 19.617188 12.703125 19.386719 C 12.703125 19.199219 12.691406 18.847656 12.660156 18.320312 L 12.675781 17.59375 L 12.660156 16.910156 L 12.691406 14.535156 C 12.691406 14.234375 12.660156 13.921875 12.601562 13.601562 C 12.496094 13.457031 12.300781 13.332031 12.019531 13.222656 C 11.738281 13.117188 11.246094 13.039062 10.546875 12.992188 L 10.546875 12.175781 C 11.546875 12.117188 12.425781 11.910156 13.183594 11.550781 C 13.699219 11.316406 14.257812 10.902344 14.859375 10.3125 L 15.835938 10.3125 C 15.875 11.515625 15.894531 13.078125 15.894531 15 L 15.792969 20.945312 C 15.792969 21.351562 15.8125 21.71875 15.851562 22.050781 C 16.152344 22.15625 16.640625 22.265625 17.320312 22.371094 C 17.582031 22.410156 17.792969 22.457031 17.949219 22.515625 L 17.933594 23.316406 C 17.671875 23.328125 17.476562 23.332031 17.351562 23.332031 C 17.203125 23.332031 16.980469 23.324219 16.679688 23.304688 C 15.691406 23.253906 14.363281 23.230469 12.703125 23.230469 C 12.226562 23.230469 11.765625 23.246094 11.320312 23.28125 C 10.875 23.316406 10.566406 23.332031 10.402344 23.332031 Z M 10.402344 23.332031 "/>
</svg>
