<?xml version="1.0" encoding="UTF-8"?>
<svg xmlns="http://www.w3.org/2000/svg" xmlns:xlink="http://www.w3.org/1999/xlink" width="28" height="28" viewBox="0 0 28 28">
<defs>
<filter id="filter-remove-color" x="0%" y="0%" width="100%" height="100%">
<feColorMatrix color-interpolation-filters="sRGB" values="0 0 0 0 1 0 0 0 0 1 0 0 0 0 1 0 0 0 1 0" />
</filter>
<mask id="mask-0">
<g filter="url(#filter-remove-color)">
<rect x="-2.8" y="-2.8" width="33.6" height="33.6" fill="rgb(0%, 0%, 0%)" fill-opacity="0.01"/>
</g>
</mask>
<clipPath id="clip-0">
<rect x="0" y="0" width="28" height="28"/>
</clipPath>
<g id="source-9" clip-path="url(#clip-0)">
<path fill-rule="nonzero" fill="rgb(100%, 100%, 100%)" fill-opacity="1" d="M 24.15625 1.789062 C 17.246094 1.851562 10.332031 1.734375 3.421875 1.851562 C 2.699219 2.042969 2.386719 2.890625 2.503906 3.574219 C 2.578125 8.535156 2.4375 13.503906 2.582031 18.464844 C 2.808594 19.171875 3.664062 19.449219 4.34375 19.308594 C 11.105469 19.289062 17.867188 19.355469 24.625 19.269531 C 25.363281 19.078125 25.695312 18.207031 25.539062 17.511719 C 25.515625 12.574219 25.597656 7.636719 25.496094 2.703125 C 25.355469 2.117188 24.730469 1.761719 24.15625 1.789062 Z M 24.15625 1.789062 "/>
</g>
<mask id="mask-1">
<g filter="url(#filter-remove-color)">
<rect x="-2.8" y="-2.8" width="33.6" height="33.6" fill="rgb(0%, 0%, 0%)" fill-opacity="0.75"/>
</g>
</mask>
<clipPath id="clip-1">
<rect x="0" y="0" width="28" height="28"/>
</clipPath>
<g id="source-13" clip-path="url(#clip-1)">
<path fill-rule="nonzero" fill="rgb(100%, 100%, 100%)" fill-opacity="1" d="M 24.15625 1.789062 C 17.246094 1.851562 10.332031 1.734375 3.421875 1.851562 C 2.699219 2.042969 2.386719 2.890625 2.503906 3.574219 C 2.578125 8.535156 2.4375 13.503906 2.582031 18.464844 C 2.808594 19.171875 3.664062 19.449219 4.34375 19.308594 C 11.105469 19.289062 17.867188 19.355469 24.625 19.269531 C 25.363281 19.078125 25.695312 18.207031 25.539062 17.511719 C 25.515625 12.574219 25.597656 7.636719 25.496094 2.703125 C 25.355469 2.117188 24.730469 1.761719 24.15625 1.789062 Z M 13.882812 2.527344 C 13.953125 2.527344 14.019531 2.542969 14.078125 2.585938 C 15.25 4.164062 16.3125 5.828125 17.453125 7.429688 C 17.699219 7.617188 17.730469 8.128906 17.367188 8.195312 C 16.554688 7.984375 15.792969 7.59375 15.011719 7.277344 C 15.007812 8.308594 15.035156 9.355469 14.917969 10.378906 C 14.601562 10.6875 14.109375 10.527344 13.714844 10.546875 C 13.339844 10.507812 12.835938 10.707031 12.5625 10.34375 C 12.464844 9.335938 12.570312 8.3125 12.574219 7.296875 C 11.917969 7.566406 11.246094 7.800781 10.597656 8.082031 C 10.347656 8.3125 9.835938 8.113281 9.921875 7.746094 C 10.886719 6.320312 11.953125 4.949219 12.960938 3.546875 C 13.277344 3.226562 13.414062 2.714844 13.855469 2.527344 C 13.863281 2.527344 13.875 2.527344 13.882812 2.527344 Z M 16.515625 11.355469 C 16.761719 11.34375 17.027344 11.488281 17.027344 11.765625 C 17.027344 13.929688 17.070312 16.097656 17.011719 18.265625 C 16.828125 18.664062 16.296875 18.578125 15.953125 18.480469 C 14.796875 17.359375 13.714844 16.152344 12.589844 14.996094 C 12.585938 16.023438 12.625 17.050781 12.574219 18.074219 C 12.617188 18.414062 12.207031 18.5 11.949219 18.464844 C 11.566406 18.390625 11.167969 18.550781 10.800781 18.414062 C 10.46875 18.300781 10.585938 17.886719 10.546875 17.613281 C 10.578125 15.671875 10.507812 13.730469 10.574219 11.789062 C 10.5 11.464844 10.867188 11.359375 11.117188 11.359375 C 11.3125 11.355469 11.507812 11.386719 11.699219 11.414062 C 12.851562 12.457031 13.890625 13.636719 14.996094 14.734375 C 14.996094 14.066406 14.988281 13.398438 14.992188 12.726562 C 15.050781 12.316406 14.890625 11.859375 15.109375 11.480469 C 15.503906 11.253906 15.980469 11.433594 16.410156 11.367188 C 16.441406 11.359375 16.480469 11.355469 16.515625 11.355469 Z M 16.515625 11.355469 "/>
</g>
</defs>
<path fill-rule="nonzero" fill="rgb(6.666667%, 6.666667%, 6.666667%)" fill-opacity="1" stroke-width="3.408" stroke-linecap="butt" stroke-linejoin="miter" stroke="rgb(93.333333%, 93.333333%, 93.333333%)" stroke-opacity="1" stroke-miterlimit="4" d="M 66.269531 1.780134 C 24.921875 1.780134 1.699219 23.141741 1.699219 66.835938 L 1.699219 516.967076 C 1.699219 557.748326 22.575335 579.190848 63.922991 579.190848 L 515.915179 579.190848 C 557.262835 579.190848 578.138951 558.881138 578.138951 516.967076 L 578.138951 66.835938 C 578.138951 24.193638 557.262835 1.780134 514.620536 1.780134 C 514.620536 1.780134 66.107701 1.618304 66.269531 1.780134 Z M 66.269531 1.780134 " transform="matrix(0.0482759, 0, 0, 0.0482759, 0, 0)"/>
<path fill-rule="evenodd" fill="rgb(100%, 100%, 100%)" fill-opacity="1" stroke-width="20.077805" stroke-linecap="round" stroke-linejoin="round" stroke="rgb(100%, 100%, 100%)" stroke-opacity="1" stroke-miterlimit="4" d="M 484.358259 60.605469 L 504.748884 60.605469 L 504.748884 535.092076 L 484.520089 535.092076 Z M 484.358259 60.605469 " transform="matrix(0.0482759, 0, 0, 0.0482759, 0, 0)"/>
<path fill-rule="evenodd" fill="rgb(100%, 100%, 100%)" fill-opacity="1" stroke-width="20" stroke-linecap="round" stroke-linejoin="round" stroke="rgb(100%, 100%, 100%)" stroke-opacity="1" stroke-miterlimit="4" d="M 77.273996 62.628348 L 97.664621 62.628348 L 97.664621 533.392857 L 77.516741 533.392857 Z M 77.273996 62.628348 " transform="matrix(0.0482759, 0, 0, 0.0482759, 0, 0)"/>
<g mask="url(#mask-0)">
<use xlink:href="#source-9"/>
</g>
<g mask="url(#mask-1)">
<use xlink:href="#source-13"/>
</g>
</svg>
