<?xml version="1.0" encoding="UTF-8"?>
<svg xmlns="http://www.w3.org/2000/svg" xmlns:xlink="http://www.w3.org/1999/xlink" width="28" height="28" viewBox="0 0 28 28">
<defs>
<filter id="filter-remove-color" x="0%" y="0%" width="100%" height="100%">
<feColorMatrix color-interpolation-filters="sRGB" values="0 0 0 0 1 0 0 0 0 1 0 0 0 0 1 0 0 0 1 0" />
</filter>
<mask id="mask-0">
<g filter="url(#filter-remove-color)">
<rect x="-2.8" y="-2.8" width="33.6" height="33.6" fill="rgb(0%, 0%, 0%)" fill-opacity="0.75"/>
</g>
</mask>
<clipPath id="clip-0">
<rect x="0" y="0" width="28" height="28"/>
</clipPath>
<g id="source-7" clip-path="url(#clip-0)">
<path fill-rule="nonzero" fill="rgb(100%, 100%, 100%)" fill-opacity="1" d="M 7.695312 1.480469 C 6.957031 1.480469 6.328125 2.109375 6.328125 2.851562 L 6.328125 20.808594 C 6.332031 20.878906 22.144531 20.847656 22.144531 20.808594 L 22.144531 2.851562 C 22.144531 2.109375 21.515625 1.480469 20.773438 1.480469 Z M 10.394531 2.765625 C 10.449219 2.765625 10.496094 2.789062 10.535156 2.828125 C 10.574219 2.871094 10.59375 2.925781 10.59375 2.996094 C 10.59375 3.0625 10.574219 3.117188 10.535156 3.160156 C 10.496094 3.199219 10.449219 3.222656 10.394531 3.222656 C 10.339844 3.222656 10.292969 3.199219 10.253906 3.160156 C 10.214844 3.117188 10.195312 3.0625 10.195312 2.996094 C 10.195312 2.925781 10.214844 2.871094 10.253906 2.828125 C 10.292969 2.789062 10.339844 2.765625 10.394531 2.765625 Z M 13.554688 2.769531 C 13.613281 2.769531 13.65625 2.789062 13.695312 2.832031 C 13.734375 2.871094 13.753906 2.929688 13.753906 2.996094 C 13.753906 3.066406 13.734375 3.125 13.695312 3.164062 C 13.65625 3.203125 13.613281 3.222656 13.554688 3.222656 C 13.5 3.222656 13.453125 3.203125 13.414062 3.164062 C 13.386719 3.136719 13.371094 3.097656 13.363281 3.054688 C 13.359375 3.070312 13.355469 3.085938 13.347656 3.101562 C 13.332031 3.144531 13.3125 3.183594 13.285156 3.226562 C 13.261719 3.214844 13.234375 3.199219 13.203125 3.183594 C 13.167969 3.167969 13.132812 3.160156 13.089844 3.160156 C 13.054688 3.160156 13.027344 3.171875 13 3.195312 C 12.976562 3.214844 12.964844 3.25 12.964844 3.296875 L 12.964844 3.355469 L 13.265625 3.355469 L 13.265625 3.71875 L 12.964844 3.71875 L 12.964844 4.527344 L 12.5625 4.527344 L 12.5625 3.367188 C 12.5625 3.347656 12.558594 3.316406 12.5625 3.28125 C 12.5625 3.242188 12.5625 3.210938 12.566406 3.1875 C 12.585938 3.058594 12.628906 2.960938 12.707031 2.890625 C 12.78125 2.820312 12.886719 2.785156 13.019531 2.785156 C 13.046875 2.785156 13.074219 2.789062 13.105469 2.792969 C 13.136719 2.796875 13.164062 2.800781 13.195312 2.8125 C 13.242188 2.824219 13.285156 2.847656 13.320312 2.875 C 13.339844 2.894531 13.351562 2.914062 13.363281 2.941406 C 13.371094 2.898438 13.386719 2.859375 13.414062 2.832031 C 13.453125 2.789062 13.5 2.769531 13.554688 2.769531 Z M 13.363281 2.941406 C 13.359375 2.957031 13.355469 2.976562 13.355469 2.996094 C 13.355469 3.019531 13.359375 3.039062 13.363281 3.054688 C 13.367188 3.035156 13.371094 3.015625 13.371094 3.003906 C 13.371094 2.980469 13.367188 2.957031 13.363281 2.941406 Z M 11.242188 2.78125 C 11.269531 2.78125 11.300781 2.78125 11.332031 2.785156 C 11.363281 2.789062 11.390625 2.796875 11.417969 2.804688 C 11.46875 2.820312 11.511719 2.839844 11.546875 2.871094 C 11.582031 2.898438 11.597656 2.941406 11.597656 2.996094 C 11.597656 3.019531 11.589844 3.054688 11.574219 3.09375 C 11.558594 3.136719 11.535156 3.179688 11.511719 3.222656 C 11.488281 3.207031 11.460938 3.191406 11.429688 3.175781 C 11.394531 3.160156 11.355469 3.15625 11.316406 3.15625 C 11.28125 3.15625 11.25 3.164062 11.226562 3.1875 C 11.203125 3.207031 11.1875 3.242188 11.1875 3.289062 L 11.1875 3.347656 L 11.488281 3.347656 L 11.488281 3.710938 L 11.1875 3.710938 L 11.1875 4.519531 L 10.785156 4.519531 L 10.785156 3.359375 C 10.785156 3.339844 10.785156 3.3125 10.785156 3.273438 C 10.789062 3.238281 10.789062 3.207031 10.792969 3.183594 C 10.808594 3.050781 10.855469 2.953125 10.929688 2.882812 C 11.003906 2.8125 11.109375 2.78125 11.242188 2.78125 Z M 11.757812 2.796875 C 11.789062 2.796875 11.824219 2.800781 11.851562 2.808594 C 11.882812 2.816406 11.910156 2.828125 11.933594 2.847656 C 11.957031 2.867188 11.976562 2.890625 11.988281 2.921875 C 12.003906 2.957031 12.011719 3 12.011719 3.050781 L 12.011719 4.507812 C 11.953125 4.527344 11.90625 4.539062 11.863281 4.539062 C 11.800781 4.539062 11.753906 4.53125 11.71875 4.511719 C 11.683594 4.496094 11.65625 4.472656 11.640625 4.441406 C 11.625 4.414062 11.613281 4.378906 11.609375 4.34375 C 11.605469 4.304688 11.605469 4.261719 11.605469 4.222656 L 11.605469 2.8125 C 11.621094 2.8125 11.636719 2.808594 11.65625 2.804688 C 11.671875 2.804688 11.6875 2.800781 11.707031 2.796875 C 11.722656 2.796875 11.742188 2.796875 11.757812 2.796875 Z M 9.109375 2.828125 C 9.140625 2.828125 9.171875 2.832031 9.203125 2.839844 C 9.234375 2.847656 9.257812 2.859375 9.28125 2.878906 C 9.304688 2.898438 9.324219 2.921875 9.339844 2.957031 C 9.355469 2.988281 9.359375 3.03125 9.359375 3.082031 L 9.359375 3.863281 C 9.367188 3.828125 9.378906 3.792969 9.394531 3.757812 C 9.40625 3.726562 9.425781 3.691406 9.449219 3.65625 L 9.558594 3.488281 C 9.585938 3.449219 9.613281 3.417969 9.644531 3.386719 C 9.675781 3.359375 9.71875 3.347656 9.773438 3.347656 C 9.804688 3.347656 9.835938 3.351562 9.863281 3.359375 C 9.894531 3.371094 9.921875 3.382812 9.941406 3.394531 C 9.96875 3.410156 9.992188 3.429688 10.015625 3.445312 L 9.738281 3.910156 L 10.066406 4.511719 C 9.976562 4.554688 9.894531 4.578125 9.820312 4.578125 C 9.757812 4.578125 9.707031 4.5625 9.671875 4.535156 C 9.636719 4.507812 9.601562 4.472656 9.574219 4.429688 L 9.445312 4.210938 C 9.421875 4.175781 9.40625 4.140625 9.390625 4.109375 C 9.378906 4.074219 9.367188 4.039062 9.359375 4 L 9.359375 4.550781 L 8.953125 4.550781 L 8.953125 2.84375 C 8.96875 2.84375 8.988281 2.839844 9.003906 2.835938 C 9.019531 2.835938 9.035156 2.832031 9.054688 2.832031 C 9.074219 2.828125 9.089844 2.828125 9.109375 2.828125 Z M 8.503906 2.851562 C 8.535156 2.851562 8.566406 2.855469 8.597656 2.863281 C 8.628906 2.871094 8.65625 2.882812 8.679688 2.898438 C 8.703125 2.917969 8.71875 2.945312 8.734375 2.976562 C 8.75 3.011719 8.757812 3.054688 8.757812 3.105469 L 8.757812 4.5625 C 8.699219 4.582031 8.648438 4.59375 8.605469 4.59375 C 8.542969 4.59375 8.496094 4.585938 8.460938 4.566406 C 8.425781 4.546875 8.402344 4.527344 8.386719 4.496094 C 8.367188 4.46875 8.359375 4.433594 8.355469 4.394531 C 8.351562 4.359375 8.351562 4.316406 8.351562 4.277344 L 8.351562 2.867188 C 8.367188 2.867188 8.382812 2.863281 8.398438 2.859375 C 8.414062 2.855469 8.429688 2.855469 8.449219 2.851562 C 8.46875 2.851562 8.488281 2.851562 8.503906 2.851562 Z M 16.339844 2.851562 C 16.367188 2.851562 16.398438 2.855469 16.425781 2.859375 C 16.457031 2.863281 16.488281 2.867188 16.515625 2.875 C 16.566406 2.890625 16.605469 2.914062 16.640625 2.941406 C 16.667969 2.964844 16.683594 2.992188 16.691406 3.03125 L 16.691406 2.890625 C 16.707031 2.890625 16.726562 2.886719 16.742188 2.882812 C 16.757812 2.882812 16.773438 2.878906 16.792969 2.875 C 16.8125 2.875 16.828125 2.875 16.847656 2.875 C 16.878906 2.875 16.910156 2.878906 16.941406 2.882812 C 16.972656 2.890625 16.996094 2.90625 17.019531 2.921875 C 17.042969 2.941406 17.0625 2.96875 17.074219 3.003906 C 17.089844 3.035156 17.097656 3.078125 17.097656 3.128906 L 17.097656 4.585938 C 17.042969 4.605469 16.992188 4.617188 16.949219 4.617188 C 16.886719 4.617188 16.839844 4.609375 16.804688 4.589844 C 16.769531 4.574219 16.746094 4.550781 16.726562 4.519531 C 16.710938 4.492188 16.699219 4.457031 16.699219 4.421875 C 16.695312 4.382812 16.691406 4.339844 16.691406 4.300781 L 16.691406 3.09375 C 16.6875 3.117188 16.679688 3.140625 16.671875 3.167969 C 16.652344 3.207031 16.632812 3.25 16.605469 3.292969 C 16.585938 3.28125 16.558594 3.265625 16.523438 3.25 C 16.488281 3.234375 16.453125 3.226562 16.414062 3.226562 C 16.378906 3.226562 16.347656 3.238281 16.324219 3.261719 C 16.300781 3.28125 16.285156 3.316406 16.285156 3.363281 L 16.285156 3.421875 L 16.585938 3.421875 L 16.585938 3.78125 L 16.285156 3.78125 L 16.285156 4.59375 L 15.882812 4.59375 L 15.882812 3.433594 C 15.882812 3.414062 15.882812 3.382812 15.882812 3.347656 C 15.882812 3.308594 15.886719 3.277344 15.890625 3.253906 C 15.90625 3.125 15.953125 3.023438 16.027344 2.957031 C 16.101562 2.886719 16.207031 2.851562 16.339844 2.851562 Z M 16.691406 3.09375 C 16.691406 3.085938 16.695312 3.078125 16.695312 3.070312 C 16.695312 3.054688 16.695312 3.042969 16.691406 3.03125 Z M 18.933594 2.855469 C 18.957031 2.855469 18.988281 2.855469 19.019531 2.859375 C 19.046875 2.863281 19.078125 2.871094 19.105469 2.878906 C 19.15625 2.894531 19.195312 2.914062 19.230469 2.945312 C 19.265625 2.972656 19.285156 3.015625 19.285156 3.070312 C 19.285156 3.097656 19.277344 3.128906 19.261719 3.167969 C 19.246094 3.210938 19.222656 3.253906 19.195312 3.296875 C 19.175781 3.28125 19.148438 3.269531 19.113281 3.253906 C 19.082031 3.238281 19.042969 3.226562 19.003906 3.226562 C 18.96875 3.226562 18.9375 3.238281 18.914062 3.261719 C 18.890625 3.285156 18.878906 3.316406 18.878906 3.363281 L 18.878906 3.421875 L 19.175781 3.421875 L 19.175781 3.785156 L 18.878906 3.785156 L 18.878906 4.59375 L 18.472656 4.59375 L 18.472656 3.433594 C 18.472656 3.414062 18.472656 3.386719 18.472656 3.347656 C 18.472656 3.308594 18.476562 3.28125 18.480469 3.257812 C 18.496094 3.128906 18.542969 3.027344 18.617188 2.957031 C 18.691406 2.890625 18.796875 2.855469 18.933594 2.855469 Z M 15.496094 2.855469 C 15.527344 2.855469 15.558594 2.859375 15.589844 2.867188 C 15.621094 2.875 15.648438 2.886719 15.671875 2.90625 C 15.691406 2.925781 15.710938 2.949219 15.726562 2.984375 C 15.738281 3.015625 15.746094 3.058594 15.746094 3.113281 L 15.746094 4.578125 L 15.441406 4.578125 C 15.421875 4.578125 15.402344 4.570312 15.386719 4.5625 C 15.371094 4.550781 15.363281 4.523438 15.363281 4.488281 C 15.34375 4.515625 15.316406 4.542969 15.273438 4.566406 C 15.230469 4.589844 15.179688 4.601562 15.117188 4.601562 C 15.070312 4.601562 15.027344 4.59375 14.980469 4.574219 C 14.9375 4.558594 14.898438 4.527344 14.863281 4.480469 C 14.824219 4.4375 14.796875 4.375 14.773438 4.300781 C 14.75 4.222656 14.742188 4.125 14.742188 4.011719 C 14.742188 3.894531 14.75 3.796875 14.769531 3.714844 C 14.792969 3.632812 14.820312 3.566406 14.855469 3.515625 C 14.890625 3.464844 14.929688 3.429688 14.976562 3.40625 C 15.023438 3.386719 15.074219 3.375 15.121094 3.375 C 15.15625 3.375 15.183594 3.378906 15.210938 3.386719 C 15.234375 3.394531 15.257812 3.402344 15.273438 3.414062 C 15.292969 3.425781 15.308594 3.433594 15.320312 3.445312 C 15.332031 3.457031 15.339844 3.464844 15.34375 3.46875 L 15.34375 2.875 C 15.359375 2.871094 15.375 2.871094 15.394531 2.867188 C 15.410156 2.863281 15.425781 2.859375 15.441406 2.859375 C 15.460938 2.855469 15.476562 2.855469 15.496094 2.855469 Z M 17.414062 2.875 C 17.445312 2.875 17.476562 2.878906 17.507812 2.882812 C 17.539062 2.890625 17.566406 2.90625 17.585938 2.921875 C 17.609375 2.941406 17.628906 2.96875 17.644531 3.003906 C 17.65625 3.035156 17.664062 3.078125 17.664062 3.128906 L 17.664062 3.910156 C 17.671875 3.875 17.683594 3.839844 17.699219 3.804688 C 17.710938 3.769531 17.730469 3.734375 17.753906 3.703125 L 17.863281 3.535156 C 17.890625 3.496094 17.917969 3.460938 17.949219 3.433594 C 17.980469 3.40625 18.023438 3.390625 18.078125 3.390625 C 18.109375 3.390625 18.136719 3.398438 18.167969 3.40625 C 18.199219 3.417969 18.226562 3.429688 18.25 3.441406 C 18.273438 3.457031 18.296875 3.472656 18.320312 3.492188 L 18.042969 3.957031 L 18.371094 4.558594 C 18.28125 4.601562 18.199219 4.621094 18.125 4.621094 C 18.0625 4.621094 18.011719 4.609375 17.976562 4.582031 C 17.9375 4.554688 17.90625 4.519531 17.878906 4.472656 L 17.75 4.257812 C 17.726562 4.222656 17.710938 4.1875 17.695312 4.152344 C 17.683594 4.121094 17.671875 4.085938 17.664062 4.042969 L 17.664062 4.59375 L 17.257812 4.59375 L 17.257812 2.890625 C 17.273438 2.890625 17.292969 2.886719 17.308594 2.882812 C 17.324219 2.882812 17.339844 2.878906 17.359375 2.875 C 17.378906 2.875 17.394531 2.875 17.414062 2.875 Z M 20.011719 2.875 C 20.042969 2.875 20.074219 2.878906 20.105469 2.882812 C 20.136719 2.890625 20.164062 2.90625 20.183594 2.921875 C 20.207031 2.941406 20.226562 2.96875 20.242188 3.003906 C 20.253906 3.035156 20.261719 3.078125 20.261719 3.128906 L 20.261719 4.59375 L 19.957031 4.59375 C 19.9375 4.59375 19.917969 4.589844 19.902344 4.578125 C 19.886719 4.566406 19.878906 4.542969 19.878906 4.507812 C 19.859375 4.535156 19.828125 4.5625 19.789062 4.585938 C 19.746094 4.609375 19.695312 4.621094 19.632812 4.621094 C 19.585938 4.621094 19.542969 4.613281 19.496094 4.59375 C 19.453125 4.574219 19.414062 4.542969 19.375 4.5 C 19.339844 4.457031 19.3125 4.394531 19.289062 4.316406 C 19.265625 4.242188 19.257812 4.144531 19.257812 4.027344 C 19.257812 3.910156 19.265625 3.8125 19.285156 3.730469 C 19.308594 3.648438 19.335938 3.585938 19.371094 3.535156 C 19.40625 3.484375 19.445312 3.449219 19.492188 3.425781 C 19.539062 3.402344 19.585938 3.390625 19.636719 3.390625 C 19.671875 3.390625 19.699219 3.394531 19.726562 3.402344 C 19.75 3.410156 19.773438 3.421875 19.789062 3.433594 C 19.808594 3.441406 19.824219 3.453125 19.835938 3.464844 C 19.847656 3.472656 19.855469 3.480469 19.859375 3.488281 L 19.859375 2.890625 C 19.875 2.890625 19.890625 2.886719 19.910156 2.882812 C 19.925781 2.882812 19.941406 2.878906 19.957031 2.875 C 19.976562 2.875 19.992188 2.875 20.011719 2.875 Z M 14.273438 3.347656 C 14.386719 3.347656 14.484375 3.367188 14.566406 3.40625 C 14.601562 3.425781 14.632812 3.449219 14.65625 3.472656 C 14.679688 3.496094 14.691406 3.527344 14.691406 3.5625 C 14.691406 3.589844 14.683594 3.625 14.667969 3.664062 C 14.652344 3.707031 14.632812 3.746094 14.609375 3.78125 C 14.570312 3.746094 14.527344 3.714844 14.484375 3.691406 C 14.4375 3.667969 14.390625 3.65625 14.34375 3.65625 C 14.289062 3.65625 14.257812 3.675781 14.257812 3.71875 C 14.257812 3.742188 14.269531 3.761719 14.292969 3.777344 C 14.3125 3.789062 14.339844 3.800781 14.371094 3.8125 C 14.40625 3.820312 14.441406 3.832031 14.476562 3.84375 C 14.515625 3.855469 14.550781 3.875 14.582031 3.898438 C 14.617188 3.921875 14.644531 3.957031 14.664062 3.996094 C 14.6875 4.039062 14.695312 4.097656 14.695312 4.164062 C 14.695312 4.292969 14.660156 4.394531 14.582031 4.472656 C 14.503906 4.550781 14.394531 4.589844 14.25 4.589844 C 14.164062 4.589844 14.097656 4.582031 14.054688 4.566406 C 14.007812 4.550781 13.96875 4.535156 13.941406 4.519531 C 13.90625 4.496094 13.882812 4.472656 13.867188 4.449219 C 13.855469 4.425781 13.847656 4.398438 13.847656 4.371094 C 13.847656 4.328125 13.855469 4.289062 13.875 4.246094 C 13.890625 4.207031 13.910156 4.167969 13.933594 4.128906 C 13.949219 4.144531 13.96875 4.160156 13.988281 4.175781 C 14.007812 4.191406 14.03125 4.207031 14.054688 4.21875 C 14.082031 4.234375 14.105469 4.242188 14.132812 4.25 C 14.15625 4.257812 14.179688 4.261719 14.207031 4.261719 C 14.242188 4.261719 14.265625 4.253906 14.28125 4.242188 C 14.296875 4.226562 14.304688 4.207031 14.304688 4.1875 C 14.304688 4.164062 14.292969 4.144531 14.269531 4.128906 C 14.246094 4.113281 14.21875 4.101562 14.1875 4.089844 C 14.15625 4.078125 14.121094 4.066406 14.078125 4.050781 C 14.039062 4.039062 14.003906 4.015625 13.972656 3.992188 C 13.941406 3.964844 13.914062 3.933594 13.890625 3.890625 C 13.867188 3.851562 13.855469 3.796875 13.855469 3.730469 C 13.855469 3.667969 13.867188 3.609375 13.890625 3.5625 C 13.914062 3.511719 13.945312 3.472656 13.984375 3.441406 C 14.023438 3.410156 14.066406 3.386719 14.117188 3.371094 C 14.167969 3.355469 14.21875 3.347656 14.273438 3.347656 Z M 10.359375 3.347656 C 10.390625 3.347656 10.421875 3.351562 10.453125 3.359375 C 10.484375 3.367188 10.511719 3.378906 10.53125 3.398438 C 10.554688 3.417969 10.574219 3.441406 10.589844 3.476562 C 10.601562 3.507812 10.609375 3.550781 10.609375 3.605469 L 10.609375 4.464844 C 10.609375 4.5 10.609375 4.542969 10.605469 4.59375 C 10.601562 4.648438 10.597656 4.695312 10.585938 4.738281 C 10.574219 4.800781 10.550781 4.855469 10.519531 4.898438 C 10.488281 4.945312 10.453125 4.980469 10.414062 5.003906 C 10.375 5.03125 10.335938 5.050781 10.296875 5.0625 C 10.257812 5.074219 10.222656 5.078125 10.195312 5.078125 C 10.136719 5.078125 10.09375 5.066406 10.070312 5.039062 C 10.042969 5.011719 10.023438 4.972656 10.011719 4.921875 C 10.007812 4.902344 10.003906 4.878906 10.003906 4.855469 C 10 4.832031 10 4.800781 9.996094 4.757812 C 10.039062 4.753906 10.074219 4.746094 10.101562 4.730469 C 10.128906 4.714844 10.148438 4.699219 10.164062 4.675781 C 10.179688 4.652344 10.191406 4.625 10.195312 4.59375 C 10.199219 4.566406 10.203125 4.53125 10.203125 4.496094 L 10.203125 3.367188 C 10.21875 3.363281 10.238281 3.363281 10.253906 3.359375 C 10.269531 3.355469 10.285156 3.351562 10.304688 3.351562 C 10.320312 3.347656 10.339844 3.347656 10.359375 3.347656 Z M 13.519531 3.351562 C 13.554688 3.351562 13.582031 3.355469 13.613281 3.363281 C 13.644531 3.371094 13.671875 3.382812 13.695312 3.402344 C 13.714844 3.421875 13.734375 3.445312 13.75 3.480469 C 13.765625 3.511719 13.773438 3.554688 13.773438 3.605469 L 13.773438 4.46875 C 13.773438 4.503906 13.769531 4.546875 13.769531 4.601562 C 13.765625 4.652344 13.757812 4.699219 13.75 4.742188 C 13.734375 4.804688 13.710938 4.859375 13.679688 4.90625 C 13.648438 4.949219 13.613281 4.984375 13.574219 5.011719 C 13.539062 5.035156 13.496094 5.054688 13.457031 5.066406 C 13.417969 5.078125 13.386719 5.085938 13.355469 5.085938 C 13.300781 5.085938 13.257812 5.070312 13.230469 5.042969 C 13.203125 5.015625 13.183594 4.976562 13.175781 4.925781 C 13.171875 4.90625 13.167969 4.882812 13.164062 4.859375 C 13.164062 4.835938 13.160156 4.804688 13.15625 4.761719 C 13.203125 4.757812 13.238281 4.75 13.265625 4.734375 C 13.289062 4.71875 13.3125 4.699219 13.328125 4.679688 C 13.34375 4.65625 13.351562 4.628906 13.355469 4.601562 C 13.363281 4.570312 13.363281 4.535156 13.363281 4.5 L 13.363281 3.367188 C 13.382812 3.367188 13.398438 3.367188 13.417969 3.363281 C 13.429688 3.359375 13.449219 3.355469 13.464844 3.355469 C 13.484375 3.355469 13.503906 3.351562 13.519531 3.351562 Z M 15.273438 3.730469 C 15.230469 3.730469 15.195312 3.753906 15.179688 3.804688 C 15.164062 3.851562 15.152344 3.917969 15.152344 4.003906 C 15.152344 4.042969 15.15625 4.078125 15.160156 4.109375 C 15.164062 4.144531 15.171875 4.171875 15.179688 4.199219 C 15.191406 4.222656 15.207031 4.242188 15.222656 4.257812 C 15.238281 4.273438 15.257812 4.28125 15.28125 4.28125 C 15.296875 4.28125 15.3125 4.277344 15.320312 4.277344 C 15.332031 4.273438 15.335938 4.269531 15.339844 4.269531 L 15.339844 3.746094 C 15.332031 3.742188 15.324219 3.734375 15.308594 3.734375 C 15.296875 3.730469 15.285156 3.730469 15.273438 3.730469 Z M 19.773438 3.75 C 19.738281 3.753906 19.710938 3.777344 19.695312 3.820312 C 19.679688 3.871094 19.667969 3.9375 19.667969 4.019531 C 19.667969 4.058594 19.671875 4.09375 19.675781 4.128906 C 19.679688 4.160156 19.6875 4.191406 19.695312 4.214844 C 19.707031 4.238281 19.722656 4.261719 19.738281 4.277344 C 19.753906 4.289062 19.773438 4.296875 19.796875 4.296875 C 19.8125 4.296875 19.828125 4.296875 19.835938 4.292969 C 19.847656 4.292969 19.851562 4.289062 19.855469 4.289062 L 19.855469 3.765625 C 19.847656 3.757812 19.835938 3.753906 19.824219 3.75 C 19.8125 3.75 19.800781 3.75 19.789062 3.75 C 19.785156 3.75 19.777344 3.75 19.773438 3.75 Z M 11.289062 5.21875 C 11.320312 5.21875 11.351562 5.222656 11.382812 5.230469 C 11.410156 5.234375 11.441406 5.246094 11.460938 5.265625 C 11.484375 5.285156 11.503906 5.3125 11.519531 5.34375 C 11.53125 5.378906 11.539062 5.421875 11.539062 5.472656 L 11.539062 6.929688 C 11.484375 6.949219 11.433594 6.960938 11.390625 6.960938 C 11.328125 6.960938 11.28125 6.953125 11.246094 6.933594 C 11.210938 6.914062 11.183594 6.894531 11.167969 6.863281 C 11.152344 6.835938 11.140625 6.800781 11.136719 6.761719 C 11.132812 6.726562 11.132812 6.683594 11.132812 6.640625 L 11.132812 5.234375 C 11.148438 5.234375 11.164062 5.230469 11.183594 5.226562 C 11.199219 5.222656 11.214844 5.222656 11.234375 5.21875 C 11.25 5.21875 11.269531 5.21875 11.289062 5.21875 Z M 11.855469 5.21875 C 11.886719 5.21875 11.917969 5.222656 11.949219 5.230469 C 11.980469 5.234375 12.007812 5.246094 12.03125 5.265625 C 12.054688 5.285156 12.070312 5.3125 12.085938 5.34375 C 12.101562 5.378906 12.105469 5.421875 12.105469 5.472656 L 12.105469 6.253906 C 12.113281 6.21875 12.125 6.183594 12.140625 6.148438 C 12.15625 6.113281 12.175781 6.078125 12.195312 6.046875 L 12.304688 5.878906 C 12.332031 5.839844 12.359375 5.804688 12.390625 5.777344 C 12.421875 5.75 12.464844 5.734375 12.519531 5.734375 C 12.550781 5.734375 12.582031 5.742188 12.609375 5.75 C 12.640625 5.761719 12.667969 5.773438 12.691406 5.785156 C 12.714844 5.800781 12.738281 5.816406 12.761719 5.832031 L 12.484375 6.300781 L 12.8125 6.902344 C 12.726562 6.945312 12.644531 6.964844 12.566406 6.964844 C 12.503906 6.964844 12.453125 6.953125 12.417969 6.925781 C 12.382812 6.898438 12.347656 6.859375 12.324219 6.816406 L 12.191406 6.601562 C 12.167969 6.566406 12.152344 6.527344 12.136719 6.496094 C 12.125 6.464844 12.113281 6.429688 12.105469 6.386719 L 12.105469 6.9375 L 11.699219 6.9375 L 11.699219 5.234375 C 11.71875 5.234375 11.734375 5.230469 11.753906 5.226562 C 11.765625 5.222656 11.785156 5.222656 11.800781 5.21875 C 11.820312 5.21875 11.835938 5.21875 11.855469 5.21875 Z M 10.699219 5.230469 C 10.730469 5.230469 10.761719 5.230469 10.792969 5.238281 C 10.824219 5.246094 10.851562 5.261719 10.871094 5.277344 C 10.894531 5.296875 10.914062 5.324219 10.929688 5.355469 C 10.941406 5.390625 10.949219 5.433594 10.949219 5.484375 L 10.949219 6.949219 L 10.644531 6.949219 C 10.625 6.949219 10.605469 6.945312 10.589844 6.933594 C 10.574219 6.921875 10.566406 6.898438 10.566406 6.859375 C 10.546875 6.890625 10.515625 6.917969 10.476562 6.941406 C 10.433594 6.964844 10.382812 6.972656 10.320312 6.972656 C 10.273438 6.972656 10.230469 6.964844 10.183594 6.949219 C 10.140625 6.929688 10.101562 6.898438 10.0625 6.855469 C 10.027344 6.8125 10 6.75 9.976562 6.671875 C 9.953125 6.597656 9.941406 6.5 9.941406 6.382812 C 9.941406 6.265625 9.953125 6.167969 9.976562 6.085938 C 9.996094 6.003906 10.023438 5.941406 10.058594 5.890625 C 10.09375 5.839844 10.132812 5.804688 10.179688 5.78125 C 10.226562 5.757812 10.273438 5.746094 10.324219 5.746094 C 10.359375 5.746094 10.386719 5.75 10.414062 5.757812 C 10.4375 5.765625 10.460938 5.777344 10.480469 5.785156 C 10.496094 5.796875 10.511719 5.808594 10.523438 5.816406 C 10.535156 5.828125 10.542969 5.835938 10.546875 5.839844 L 10.546875 5.246094 C 10.5625 5.242188 10.578125 5.242188 10.597656 5.238281 C 10.613281 5.234375 10.628906 5.234375 10.644531 5.230469 C 10.664062 5.230469 10.679688 5.230469 10.699219 5.230469 Z M 9.585938 5.230469 C 9.613281 5.230469 9.640625 5.230469 9.671875 5.238281 C 9.699219 5.242188 9.730469 5.246094 9.757812 5.253906 C 9.808594 5.269531 9.847656 5.292969 9.882812 5.320312 C 9.917969 5.351562 9.9375 5.390625 9.9375 5.445312 C 9.9375 5.46875 9.929688 5.503906 9.914062 5.542969 C 9.898438 5.585938 9.875 5.628906 9.851562 5.671875 C 9.828125 5.65625 9.800781 5.640625 9.765625 5.628906 C 9.734375 5.613281 9.695312 5.605469 9.65625 5.605469 C 9.621094 5.605469 9.589844 5.617188 9.566406 5.636719 C 9.542969 5.660156 9.53125 5.691406 9.53125 5.742188 L 9.53125 5.800781 L 9.832031 5.800781 L 9.832031 6.160156 L 9.53125 6.160156 L 9.53125 6.972656 L 9.125 6.972656 L 9.125 5.8125 C 9.125 5.789062 9.125 5.761719 9.128906 5.722656 C 9.128906 5.6875 9.128906 5.65625 9.132812 5.632812 C 9.148438 5.503906 9.195312 5.402344 9.269531 5.332031 C 9.34375 5.265625 9.449219 5.230469 9.585938 5.230469 Z M 19.320312 5.261719 C 19.375 5.261719 19.421875 5.28125 19.460938 5.324219 C 19.5 5.363281 19.519531 5.421875 19.519531 5.488281 C 19.519531 5.558594 19.5 5.613281 19.460938 5.65625 C 19.421875 5.695312 19.375 5.714844 19.320312 5.714844 C 19.265625 5.714844 19.21875 5.695312 19.179688 5.65625 C 19.140625 5.613281 19.121094 5.558594 19.121094 5.488281 C 19.121094 5.421875 19.140625 5.363281 19.179688 5.324219 C 19.21875 5.28125 19.265625 5.261719 19.320312 5.261719 Z M 14.058594 5.261719 C 14.089844 5.261719 14.121094 5.265625 14.152344 5.273438 C 14.183594 5.28125 14.210938 5.292969 14.230469 5.3125 C 14.253906 5.332031 14.273438 5.355469 14.289062 5.390625 C 14.300781 5.421875 14.308594 5.464844 14.308594 5.515625 L 14.308594 6.296875 C 14.316406 6.261719 14.324219 6.226562 14.339844 6.191406 C 14.355469 6.15625 14.375 6.125 14.398438 6.089844 L 14.507812 5.921875 C 14.535156 5.882812 14.5625 5.851562 14.59375 5.820312 C 14.625 5.792969 14.667969 5.78125 14.722656 5.78125 C 14.753906 5.78125 14.785156 5.785156 14.8125 5.792969 C 14.84375 5.804688 14.867188 5.816406 14.890625 5.832031 C 14.917969 5.84375 14.941406 5.859375 14.964844 5.878906 L 14.6875 6.34375 L 15.015625 6.945312 C 14.925781 6.988281 14.84375 7.011719 14.769531 7.011719 C 14.707031 7.011719 14.65625 6.996094 14.621094 6.96875 C 14.582031 6.941406 14.550781 6.90625 14.523438 6.863281 L 14.394531 6.644531 C 14.371094 6.609375 14.351562 6.574219 14.339844 6.542969 C 14.324219 6.507812 14.316406 6.472656 14.308594 6.433594 L 14.308594 6.984375 L 13.902344 6.984375 L 13.902344 5.277344 C 13.917969 5.277344 13.9375 5.273438 13.953125 5.269531 C 13.96875 5.269531 13.984375 5.265625 14.003906 5.265625 C 14.019531 5.261719 14.039062 5.261719 14.058594 5.261719 Z M 15.53125 5.269531 C 15.558594 5.269531 15.589844 5.269531 15.617188 5.273438 C 15.648438 5.277344 15.679688 5.285156 15.707031 5.292969 C 15.757812 5.308594 15.796875 5.328125 15.832031 5.355469 C 15.867188 5.386719 15.886719 5.429688 15.886719 5.484375 C 15.886719 5.507812 15.878906 5.539062 15.863281 5.582031 C 15.84375 5.625 15.824219 5.667969 15.800781 5.710938 C 15.777344 5.695312 15.75 5.679688 15.714844 5.664062 C 15.679688 5.648438 15.644531 5.640625 15.605469 5.640625 C 15.570312 5.640625 15.539062 5.652344 15.515625 5.675781 C 15.492188 5.695312 15.476562 5.730469 15.476562 5.777344 L 15.476562 5.835938 L 15.777344 5.835938 L 15.777344 6.199219 L 15.476562 6.199219 L 15.476562 7.007812 L 15.074219 7.007812 L 15.074219 5.847656 C 15.074219 5.828125 15.074219 5.796875 15.074219 5.761719 C 15.078125 5.722656 15.078125 5.695312 15.082031 5.671875 C 15.097656 5.539062 15.144531 5.441406 15.21875 5.371094 C 15.292969 5.300781 15.398438 5.269531 15.53125 5.269531 Z M 17.5 5.304688 C 17.535156 5.304688 17.566406 5.304688 17.597656 5.3125 C 17.628906 5.320312 17.652344 5.332031 17.675781 5.351562 C 17.699219 5.371094 17.71875 5.394531 17.730469 5.429688 C 17.746094 5.460938 17.753906 5.507812 17.753906 5.558594 L 17.753906 7.023438 L 17.449219 7.023438 C 17.429688 7.023438 17.410156 7.015625 17.394531 7.007812 C 17.378906 6.996094 17.371094 6.972656 17.371094 6.933594 C 17.351562 6.960938 17.320312 6.988281 17.28125 7.011719 C 17.238281 7.035156 17.1875 7.046875 17.125 7.046875 C 17.078125 7.046875 17.035156 7.039062 16.988281 7.019531 C 16.945312 7.003906 16.902344 6.972656 16.867188 6.925781 C 16.832031 6.882812 16.804688 6.820312 16.78125 6.746094 C 16.757812 6.667969 16.746094 6.570312 16.746094 6.457031 C 16.746094 6.339844 16.757812 6.242188 16.777344 6.160156 C 16.796875 6.078125 16.828125 6.011719 16.863281 5.960938 C 16.898438 5.910156 16.9375 5.875 16.984375 5.851562 C 17.03125 5.832031 17.078125 5.820312 17.128906 5.820312 C 17.160156 5.820312 17.191406 5.824219 17.214844 5.832031 C 17.242188 5.839844 17.261719 5.847656 17.28125 5.859375 C 17.300781 5.871094 17.316406 5.878906 17.328125 5.890625 C 17.339844 5.902344 17.34375 5.910156 17.347656 5.914062 L 17.347656 5.320312 C 17.367188 5.316406 17.382812 5.316406 17.402344 5.3125 C 17.414062 5.308594 17.429688 5.304688 17.449219 5.304688 C 17.464844 5.300781 17.484375 5.304688 17.5 5.304688 Z M 18.070312 5.304688 C 18.101562 5.304688 18.132812 5.304688 18.164062 5.3125 C 18.195312 5.320312 18.222656 5.332031 18.242188 5.351562 C 18.265625 5.371094 18.285156 5.394531 18.300781 5.429688 C 18.3125 5.460938 18.320312 5.507812 18.320312 5.558594 L 18.320312 6.339844 C 18.328125 6.304688 18.339844 6.269531 18.355469 6.234375 C 18.367188 6.199219 18.386719 6.164062 18.410156 6.128906 L 18.519531 5.960938 C 18.546875 5.921875 18.574219 5.890625 18.605469 5.863281 C 18.636719 5.835938 18.679688 5.820312 18.734375 5.820312 C 18.765625 5.820312 18.792969 5.824219 18.824219 5.835938 C 18.855469 5.847656 18.882812 5.855469 18.90625 5.871094 C 18.929688 5.882812 18.953125 5.902344 18.976562 5.917969 L 18.699219 6.382812 L 19.027344 6.984375 C 18.9375 7.027344 18.855469 7.050781 18.78125 7.050781 C 18.71875 7.050781 18.667969 7.035156 18.632812 7.007812 C 18.597656 6.980469 18.5625 6.945312 18.535156 6.902344 L 18.40625 6.6875 C 18.382812 6.648438 18.367188 6.613281 18.351562 6.582031 C 18.339844 6.550781 18.328125 6.511719 18.320312 6.472656 L 18.320312 7.023438 L 17.914062 7.023438 L 17.914062 5.320312 C 17.929688 5.316406 17.949219 5.316406 17.964844 5.3125 C 17.980469 5.308594 17.996094 5.304688 18.015625 5.304688 C 18.035156 5.300781 18.050781 5.304688 18.070312 5.304688 Z M 13.339844 5.753906 C 13.5 5.753906 13.613281 5.792969 13.679688 5.867188 C 13.75 5.941406 13.78125 6.058594 13.78125 6.21875 L 13.78125 6.695312 C 13.78125 6.734375 13.785156 6.777344 13.792969 6.828125 C 13.796875 6.875 13.804688 6.917969 13.8125 6.953125 C 13.796875 6.957031 13.777344 6.960938 13.761719 6.96875 C 13.75 6.972656 13.734375 6.976562 13.71875 6.976562 C 13.707031 6.980469 13.691406 6.980469 13.675781 6.980469 C 13.660156 6.984375 13.640625 6.984375 13.621094 6.984375 C 13.511719 6.984375 13.449219 6.945312 13.429688 6.871094 C 13.410156 6.898438 13.375 6.925781 13.332031 6.945312 C 13.285156 6.96875 13.230469 6.980469 13.160156 6.980469 C 13.121094 6.980469 13.078125 6.972656 13.039062 6.960938 C 13 6.949219 12.96875 6.925781 12.9375 6.898438 C 12.90625 6.871094 12.882812 6.832031 12.867188 6.789062 C 12.847656 6.742188 12.839844 6.683594 12.839844 6.617188 C 12.839844 6.523438 12.863281 6.449219 12.902344 6.394531 C 12.945312 6.335938 12.992188 6.296875 13.050781 6.265625 C 13.113281 6.238281 13.171875 6.21875 13.238281 6.210938 C 13.300781 6.203125 13.351562 6.199219 13.398438 6.199219 L 13.398438 6.164062 C 13.398438 6.140625 13.394531 6.125 13.386719 6.109375 C 13.378906 6.097656 13.371094 6.085938 13.359375 6.078125 C 13.347656 6.070312 13.335938 6.066406 13.320312 6.066406 C 13.304688 6.0625 13.289062 6.058594 13.269531 6.058594 C 13.222656 6.058594 13.175781 6.066406 13.128906 6.082031 C 13.082031 6.097656 13.03125 6.121094 12.976562 6.15625 C 12.949219 6.117188 12.929688 6.082031 12.917969 6.046875 C 12.902344 6.007812 12.898438 5.984375 12.898438 5.964844 C 12.898438 5.941406 12.90625 5.917969 12.917969 5.894531 C 12.933594 5.875 12.960938 5.851562 13 5.828125 C 13.039062 5.804688 13.085938 5.785156 13.148438 5.773438 C 13.210938 5.761719 13.277344 5.753906 13.339844 5.753906 Z M 16.242188 5.816406 C 16.351562 5.816406 16.449219 5.835938 16.53125 5.878906 C 16.566406 5.894531 16.597656 5.917969 16.621094 5.941406 C 16.644531 5.96875 16.65625 5.996094 16.65625 6.03125 C 16.65625 6.058594 16.648438 6.09375 16.632812 6.132812 C 16.617188 6.175781 16.601562 6.214844 16.578125 6.25 C 16.535156 6.214844 16.492188 6.183594 16.449219 6.160156 C 16.402344 6.136719 16.359375 6.125 16.3125 6.125 C 16.253906 6.125 16.226562 6.144531 16.226562 6.183594 C 16.226562 6.210938 16.234375 6.230469 16.257812 6.246094 C 16.277344 6.257812 16.304688 6.269531 16.339844 6.28125 C 16.371094 6.289062 16.40625 6.300781 16.445312 6.3125 C 16.480469 6.324219 16.515625 6.34375 16.550781 6.367188 C 16.582031 6.390625 16.609375 6.425781 16.632812 6.46875 C 16.652344 6.507812 16.664062 6.5625 16.664062 6.632812 C 16.664062 6.761719 16.625 6.867188 16.550781 6.941406 C 16.472656 7.019531 16.359375 7.058594 16.214844 7.058594 C 16.128906 7.058594 16.066406 7.050781 16.019531 7.035156 C 15.972656 7.019531 15.933594 7.003906 15.910156 6.988281 C 15.875 6.964844 15.847656 6.941406 15.835938 6.917969 C 15.820312 6.890625 15.816406 6.867188 15.816406 6.839844 C 15.816406 6.796875 15.824219 6.753906 15.839844 6.714844 C 15.859375 6.675781 15.875 6.632812 15.898438 6.59375 C 15.914062 6.613281 15.933594 6.628906 15.953125 6.644531 C 15.976562 6.660156 15.996094 6.675781 16.023438 6.6875 C 16.046875 6.699219 16.070312 6.710938 16.097656 6.71875 C 16.121094 6.726562 16.148438 6.730469 16.171875 6.730469 C 16.207031 6.730469 16.234375 6.722656 16.246094 6.707031 C 16.261719 6.695312 16.269531 6.675781 16.269531 6.65625 C 16.269531 6.632812 16.257812 6.613281 16.234375 6.597656 C 16.214844 6.585938 16.1875 6.570312 16.15625 6.558594 C 16.121094 6.546875 16.085938 6.535156 16.046875 6.519531 C 16.007812 6.503906 15.972656 6.488281 15.9375 6.460938 C 15.90625 6.4375 15.878906 6.402344 15.855469 6.363281 C 15.835938 6.320312 15.824219 6.265625 15.824219 6.199219 C 15.824219 6.136719 15.835938 6.078125 15.855469 6.03125 C 15.878906 5.980469 15.910156 5.941406 15.949219 5.910156 C 15.988281 5.878906 16.035156 5.855469 16.082031 5.839844 C 16.132812 5.824219 16.1875 5.816406 16.242188 5.816406 Z M 19.28125 5.84375 C 19.316406 5.84375 19.347656 5.847656 19.378906 5.855469 C 19.410156 5.863281 19.433594 5.875 19.457031 5.894531 C 19.480469 5.914062 19.5 5.9375 19.515625 5.972656 C 19.527344 6.003906 19.535156 6.046875 19.535156 6.097656 L 19.535156 6.957031 C 19.535156 6.992188 19.535156 7.039062 19.53125 7.089844 C 19.527344 7.144531 19.523438 7.191406 19.511719 7.230469 C 19.496094 7.296875 19.476562 7.351562 19.445312 7.394531 C 19.414062 7.4375 19.378906 7.472656 19.339844 7.5 C 19.300781 7.527344 19.261719 7.546875 19.222656 7.558594 C 19.183594 7.570312 19.148438 7.574219 19.121094 7.574219 C 19.0625 7.574219 19.019531 7.5625 18.992188 7.535156 C 18.964844 7.507812 18.945312 7.46875 18.9375 7.417969 C 18.933594 7.394531 18.929688 7.375 18.929688 7.351562 C 18.925781 7.328125 18.925781 7.296875 18.921875 7.253906 C 18.964844 7.25 19 7.238281 19.027344 7.226562 C 19.054688 7.210938 19.074219 7.191406 19.089844 7.167969 C 19.105469 7.144531 19.117188 7.121094 19.121094 7.089844 C 19.128906 7.0625 19.128906 7.027344 19.128906 6.992188 L 19.128906 5.859375 C 19.144531 5.859375 19.164062 5.855469 19.179688 5.851562 C 19.195312 5.851562 19.210938 5.847656 19.230469 5.847656 C 19.25 5.84375 19.265625 5.84375 19.28125 5.84375 Z M 10.460938 6.105469 C 10.421875 6.109375 10.398438 6.132812 10.382812 6.175781 C 10.367188 6.226562 10.359375 6.292969 10.359375 6.375 C 10.359375 6.414062 10.359375 6.449219 10.363281 6.484375 C 10.367188 6.515625 10.375 6.546875 10.386719 6.570312 C 10.394531 6.59375 10.410156 6.617188 10.425781 6.628906 C 10.441406 6.644531 10.460938 6.652344 10.484375 6.652344 C 10.5 6.652344 10.515625 6.652344 10.523438 6.648438 C 10.535156 6.644531 10.539062 6.644531 10.542969 6.640625 L 10.542969 6.121094 C 10.535156 6.113281 10.527344 6.109375 10.511719 6.105469 C 10.5 6.105469 10.488281 6.105469 10.476562 6.105469 C 10.472656 6.105469 10.464844 6.101562 10.460938 6.105469 Z M 17.28125 6.175781 C 17.234375 6.175781 17.203125 6.199219 17.1875 6.25 C 17.167969 6.296875 17.160156 6.363281 17.160156 6.449219 C 17.160156 6.488281 17.164062 6.523438 17.167969 6.554688 C 17.171875 6.589844 17.175781 6.617188 17.1875 6.644531 C 17.199219 6.667969 17.210938 6.6875 17.226562 6.703125 C 17.246094 6.71875 17.265625 6.726562 17.289062 6.726562 C 17.304688 6.726562 17.320312 6.722656 17.328125 6.722656 C 17.335938 6.71875 17.34375 6.714844 17.347656 6.714844 L 17.347656 6.191406 C 17.339844 6.1875 17.328125 6.183594 17.316406 6.179688 C 17.304688 6.175781 17.292969 6.175781 17.28125 6.175781 Z M 13.402344 6.414062 C 13.378906 6.417969 13.351562 6.421875 13.332031 6.429688 C 13.308594 6.4375 13.285156 6.445312 13.269531 6.457031 C 13.253906 6.46875 13.242188 6.484375 13.230469 6.503906 C 13.21875 6.523438 13.214844 6.550781 13.214844 6.582031 C 13.214844 6.617188 13.222656 6.644531 13.238281 6.667969 C 13.257812 6.6875 13.28125 6.695312 13.3125 6.695312 C 13.335938 6.695312 13.355469 6.691406 13.375 6.675781 C 13.394531 6.664062 13.402344 6.644531 13.402344 6.617188 Z M 16.15625 10.117188 C 16.210938 10.117188 16.257812 10.136719 16.296875 10.179688 C 16.335938 10.21875 16.351562 10.273438 16.351562 10.34375 C 16.351562 10.414062 16.335938 10.46875 16.296875 10.511719 C 16.257812 10.550781 16.210938 10.570312 16.15625 10.570312 C 16.097656 10.570312 16.050781 10.550781 16.015625 10.511719 C 15.976562 10.46875 15.957031 10.414062 15.957031 10.34375 C 15.957031 10.273438 15.976562 10.21875 16.015625 10.179688 C 16.050781 10.136719 16.097656 10.117188 16.15625 10.117188 Z M 11.847656 10.140625 C 11.875 10.140625 11.90625 10.140625 11.9375 10.144531 C 11.964844 10.148438 11.996094 10.15625 12.023438 10.164062 C 12.074219 10.179688 12.113281 10.199219 12.152344 10.226562 C 12.1875 10.257812 12.203125 10.300781 12.203125 10.355469 C 12.203125 10.378906 12.195312 10.410156 12.175781 10.453125 C 12.160156 10.496094 12.140625 10.535156 12.117188 10.578125 C 12.09375 10.566406 12.066406 10.550781 12.03125 10.535156 C 12 10.519531 11.960938 10.511719 11.917969 10.511719 C 11.882812 10.511719 11.855469 10.523438 11.832031 10.546875 C 11.804688 10.566406 11.792969 10.601562 11.792969 10.648438 L 11.792969 10.707031 L 12.09375 10.707031 L 12.09375 11.070312 L 11.792969 11.070312 L 11.792969 11.878906 L 11.390625 11.878906 L 11.390625 10.71875 C 11.390625 10.699219 11.390625 10.667969 11.390625 10.632812 C 11.390625 10.59375 11.394531 10.566406 11.394531 10.542969 C 11.414062 10.410156 11.460938 10.3125 11.535156 10.242188 C 11.609375 10.171875 11.714844 10.140625 11.847656 10.140625 Z M 16.988281 10.140625 C 17.015625 10.140625 17.046875 10.140625 17.074219 10.144531 C 17.105469 10.148438 17.136719 10.15625 17.164062 10.164062 C 17.214844 10.179688 17.253906 10.199219 17.289062 10.226562 C 17.324219 10.257812 17.34375 10.300781 17.34375 10.355469 C 17.34375 10.378906 17.335938 10.410156 17.320312 10.453125 C 17.300781 10.496094 17.28125 10.535156 17.253906 10.578125 C 17.234375 10.566406 17.207031 10.550781 17.171875 10.535156 C 17.140625 10.519531 17.101562 10.511719 17.0625 10.511719 C 17.027344 10.511719 16.996094 10.523438 16.972656 10.546875 C 16.949219 10.566406 16.9375 10.601562 16.9375 10.648438 L 16.9375 10.707031 L 17.234375 10.707031 L 17.234375 11.070312 L 16.9375 11.070312 L 16.9375 11.878906 L 16.53125 11.878906 L 16.53125 10.71875 C 16.53125 10.699219 16.53125 10.667969 16.53125 10.632812 C 16.53125 10.59375 16.535156 10.566406 16.539062 10.542969 C 16.554688 10.410156 16.601562 10.3125 16.675781 10.242188 C 16.75 10.171875 16.855469 10.140625 16.988281 10.140625 Z M 13.273438 10.15625 C 13.308594 10.15625 13.335938 10.164062 13.367188 10.167969 C 13.398438 10.175781 13.425781 10.1875 13.449219 10.207031 C 13.472656 10.226562 13.492188 10.253906 13.503906 10.285156 C 13.519531 10.320312 13.527344 10.359375 13.527344 10.414062 L 13.527344 11.871094 C 13.472656 11.890625 13.421875 11.902344 13.375 11.902344 C 13.316406 11.902344 13.265625 11.890625 13.230469 11.875 C 13.199219 11.855469 13.171875 11.835938 13.15625 11.804688 C 13.136719 11.777344 13.128906 11.742188 13.125 11.703125 C 13.121094 11.664062 13.121094 11.625 13.121094 11.582031 L 13.121094 10.175781 C 13.136719 10.175781 13.152344 10.171875 13.171875 10.167969 C 13.183594 10.164062 13.203125 10.164062 13.21875 10.160156 C 13.238281 10.160156 13.257812 10.15625 13.273438 10.15625 Z M 13.839844 10.15625 C 13.875 10.15625 13.90625 10.164062 13.933594 10.167969 C 13.964844 10.175781 13.992188 10.1875 14.015625 10.207031 C 14.039062 10.226562 14.058594 10.253906 14.074219 10.285156 C 14.085938 10.320312 14.09375 10.359375 14.09375 10.414062 L 14.09375 11.195312 C 14.101562 11.160156 14.109375 11.125 14.125 11.089844 C 14.140625 11.054688 14.160156 11.019531 14.183594 10.984375 L 14.292969 10.816406 C 14.320312 10.78125 14.347656 10.746094 14.378906 10.71875 C 14.410156 10.6875 14.453125 10.675781 14.503906 10.675781 C 14.535156 10.675781 14.566406 10.679688 14.597656 10.691406 C 14.628906 10.703125 14.652344 10.714844 14.675781 10.726562 C 14.703125 10.742188 14.726562 10.757812 14.75 10.773438 L 14.46875 11.242188 L 14.800781 11.839844 C 14.710938 11.886719 14.628906 11.90625 14.554688 11.90625 C 14.488281 11.90625 14.441406 11.894531 14.40625 11.867188 C 14.367188 11.835938 14.335938 11.800781 14.308594 11.757812 L 14.179688 11.542969 C 14.15625 11.503906 14.136719 11.472656 14.125 11.4375 C 14.109375 11.40625 14.101562 11.367188 14.09375 11.328125 L 14.09375 11.878906 L 13.6875 11.878906 L 13.6875 10.175781 C 13.703125 10.175781 13.71875 10.171875 13.738281 10.167969 C 13.753906 10.164062 13.769531 10.164062 13.789062 10.160156 C 13.804688 10.160156 13.824219 10.15625 13.839844 10.15625 Z M 12.578125 10.675781 C 12.691406 10.675781 12.789062 10.695312 12.871094 10.734375 C 12.90625 10.753906 12.9375 10.773438 12.960938 10.800781 C 12.984375 10.824219 12.996094 10.855469 12.996094 10.890625 C 12.996094 10.917969 12.988281 10.953125 12.972656 10.992188 C 12.957031 11.035156 12.9375 11.070312 12.914062 11.109375 C 12.875 11.070312 12.832031 11.042969 12.785156 11.019531 C 12.742188 10.996094 12.695312 10.984375 12.648438 10.984375 C 12.589844 10.984375 12.5625 11.003906 12.5625 11.042969 C 12.5625 11.070312 12.574219 11.089844 12.59375 11.101562 C 12.617188 11.117188 12.644531 11.128906 12.675781 11.140625 C 12.710938 11.148438 12.746094 11.160156 12.78125 11.171875 C 12.820312 11.183594 12.855469 11.203125 12.886719 11.226562 C 12.921875 11.25 12.949219 11.285156 12.96875 11.328125 C 12.992188 11.367188 13 11.421875 13 11.492188 C 13 11.621094 12.964844 11.722656 12.886719 11.800781 C 12.808594 11.878906 12.699219 11.917969 12.554688 11.917969 C 12.46875 11.917969 12.402344 11.90625 12.355469 11.890625 C 12.308594 11.878906 12.273438 11.863281 12.246094 11.84375 C 12.210938 11.824219 12.1875 11.800781 12.171875 11.777344 C 12.160156 11.75 12.152344 11.726562 12.152344 11.699219 C 12.152344 11.65625 12.160156 11.613281 12.175781 11.574219 C 12.195312 11.535156 12.214844 11.492188 12.238281 11.453125 C 12.253906 11.472656 12.269531 11.488281 12.292969 11.503906 C 12.3125 11.519531 12.335938 11.535156 12.359375 11.546875 C 12.382812 11.558594 12.410156 11.570312 12.4375 11.578125 C 12.460938 11.585938 12.484375 11.585938 12.507812 11.585938 C 12.542969 11.585938 12.570312 11.582031 12.585938 11.566406 C 12.601562 11.554688 12.609375 11.535156 12.609375 11.515625 C 12.609375 11.492188 12.597656 11.472656 12.574219 11.457031 C 12.550781 11.441406 12.523438 11.429688 12.492188 11.417969 C 12.457031 11.40625 12.421875 11.394531 12.382812 11.378906 C 12.34375 11.363281 12.308594 11.347656 12.277344 11.320312 C 12.246094 11.296875 12.214844 11.261719 12.195312 11.222656 C 12.171875 11.179688 12.160156 11.125 12.160156 11.058594 C 12.160156 10.996094 12.171875 10.9375 12.195312 10.890625 C 12.21875 10.839844 12.25 10.800781 12.289062 10.769531 C 12.328125 10.738281 12.371094 10.714844 12.421875 10.699219 C 12.46875 10.683594 12.523438 10.675781 12.578125 10.675781 Z M 15.359375 10.675781 C 15.519531 10.675781 15.632812 10.710938 15.699219 10.785156 C 15.769531 10.859375 15.804688 10.980469 15.804688 11.140625 L 15.804688 11.613281 C 15.804688 11.65625 15.804688 11.699219 15.808594 11.746094 C 15.816406 11.796875 15.824219 11.835938 15.832031 11.871094 C 15.8125 11.878906 15.796875 11.882812 15.78125 11.886719 C 15.765625 11.890625 15.753906 11.894531 15.738281 11.898438 C 15.722656 11.902344 15.710938 11.902344 15.695312 11.902344 C 15.679688 11.902344 15.660156 11.90625 15.640625 11.90625 C 15.53125 11.90625 15.46875 11.867188 15.453125 11.792969 C 15.429688 11.820312 15.394531 11.84375 15.351562 11.867188 C 15.304688 11.890625 15.25 11.902344 15.179688 11.902344 C 15.140625 11.902344 15.097656 11.894531 15.0625 11.882812 C 15.023438 11.867188 14.988281 11.847656 14.957031 11.820312 C 14.929688 11.792969 14.90625 11.753906 14.886719 11.707031 C 14.871094 11.664062 14.859375 11.605469 14.859375 11.539062 C 14.859375 11.445312 14.878906 11.371094 14.921875 11.316406 C 14.964844 11.257812 15.015625 11.21875 15.074219 11.1875 C 15.132812 11.160156 15.191406 11.140625 15.253906 11.132812 C 15.316406 11.125 15.371094 11.121094 15.417969 11.121094 L 15.417969 11.085938 C 15.417969 11.0625 15.414062 11.042969 15.40625 11.03125 C 15.398438 11.015625 15.390625 11.007812 15.378906 11 C 15.367188 10.992188 15.355469 10.988281 15.339844 10.984375 C 15.324219 10.980469 15.304688 10.980469 15.289062 10.980469 C 15.242188 10.980469 15.195312 10.988281 15.148438 11.003906 C 15.101562 11.019531 15.050781 11.042969 14.996094 11.078125 C 14.96875 11.039062 14.949219 11 14.9375 10.964844 C 14.925781 10.929688 14.917969 10.902344 14.917969 10.886719 C 14.917969 10.863281 14.921875 10.839844 14.9375 10.816406 C 14.949219 10.796875 14.976562 10.773438 15.019531 10.75 C 15.054688 10.726562 15.105469 10.707031 15.167969 10.695312 C 15.230469 10.683594 15.292969 10.675781 15.359375 10.675781 Z M 16.117188 10.699219 C 16.152344 10.699219 16.183594 10.703125 16.214844 10.710938 C 16.242188 10.71875 16.269531 10.730469 16.292969 10.75 C 16.316406 10.765625 16.335938 10.792969 16.347656 10.828125 C 16.363281 10.859375 16.371094 10.902344 16.371094 10.953125 L 16.371094 11.8125 C 16.371094 11.851562 16.367188 11.894531 16.367188 11.945312 C 16.363281 12 16.355469 12.046875 16.347656 12.089844 C 16.332031 12.152344 16.308594 12.207031 16.277344 12.25 C 16.246094 12.296875 16.210938 12.332031 16.175781 12.355469 C 16.136719 12.382812 16.097656 12.402344 16.058594 12.414062 C 16.019531 12.425781 15.984375 12.429688 15.957031 12.429688 C 15.898438 12.429688 15.855469 12.417969 15.828125 12.390625 C 15.800781 12.363281 15.78125 12.324219 15.773438 12.273438 C 15.769531 12.25 15.765625 12.230469 15.761719 12.207031 C 15.761719 12.183594 15.757812 12.148438 15.757812 12.109375 C 15.800781 12.105469 15.835938 12.09375 15.863281 12.082031 C 15.890625 12.066406 15.910156 12.046875 15.925781 12.023438 C 15.941406 12.003906 15.949219 11.976562 15.957031 11.945312 C 15.960938 11.917969 15.964844 11.882812 15.964844 11.847656 L 15.964844 10.71875 C 15.980469 10.714844 15.996094 10.714844 16.015625 10.710938 C 16.027344 10.707031 16.046875 10.703125 16.0625 10.703125 C 16.082031 10.699219 16.101562 10.699219 16.117188 10.699219 Z M 15.421875 11.335938 C 15.398438 11.339844 15.375 11.34375 15.351562 11.351562 C 15.328125 11.355469 15.308594 11.367188 15.289062 11.378906 C 15.273438 11.390625 15.257812 11.40625 15.25 11.425781 C 15.238281 11.445312 15.234375 11.46875 15.234375 11.5 C 15.234375 11.539062 15.242188 11.566406 15.257812 11.585938 C 15.277344 11.609375 15.300781 11.617188 15.328125 11.617188 C 15.351562 11.617188 15.375 11.609375 15.394531 11.597656 C 15.414062 11.585938 15.421875 11.566406 15.421875 11.539062 Z M 12.21875 12.542969 C 12.273438 12.542969 12.324219 12.566406 12.363281 12.609375 C 12.398438 12.648438 12.417969 12.703125 12.417969 12.773438 C 12.417969 12.84375 12.398438 12.898438 12.363281 12.9375 C 12.324219 12.976562 12.273438 13 12.21875 13 C 12.164062 13 12.117188 12.976562 12.078125 12.9375 C 12.039062 12.898438 12.019531 12.84375 12.019531 12.773438 C 12.019531 12.703125 12.039062 12.648438 12.078125 12.609375 C 12.117188 12.566406 12.164062 12.542969 12.21875 12.542969 Z M 16.65625 12.542969 C 16.710938 12.542969 16.757812 12.566406 16.796875 12.609375 C 16.835938 12.648438 16.851562 12.703125 16.851562 12.773438 C 16.851562 12.84375 16.835938 12.898438 16.796875 12.9375 C 16.757812 12.976562 16.710938 13 16.65625 13 C 16.601562 13 16.550781 12.976562 16.511719 12.9375 C 16.480469 12.90625 16.464844 12.863281 16.460938 12.8125 C 16.457031 12.832031 16.449219 12.855469 16.4375 12.878906 C 16.421875 12.921875 16.402344 12.964844 16.375 13.007812 C 16.355469 12.996094 16.324219 12.980469 16.292969 12.964844 C 16.257812 12.949219 16.21875 12.941406 16.179688 12.941406 C 16.144531 12.941406 16.117188 12.953125 16.089844 12.972656 C 16.066406 12.996094 16.054688 13.03125 16.054688 13.078125 L 16.054688 13.136719 L 16.355469 13.136719 L 16.355469 13.496094 L 16.054688 13.496094 L 16.054688 14.308594 L 15.652344 14.308594 L 15.652344 13.148438 C 15.652344 13.125 15.652344 13.097656 15.652344 13.058594 C 15.652344 13.023438 15.652344 12.992188 15.65625 12.96875 C 15.675781 12.839844 15.71875 12.738281 15.796875 12.667969 C 15.871094 12.601562 15.976562 12.566406 16.109375 12.566406 C 16.136719 12.566406 16.164062 12.570312 16.195312 12.574219 C 16.226562 12.578125 16.253906 12.582031 16.285156 12.589844 C 16.332031 12.605469 16.375 12.628906 16.410156 12.65625 C 16.433594 12.679688 16.449219 12.707031 16.457031 12.742188 C 16.464844 12.6875 16.480469 12.640625 16.511719 12.609375 C 16.550781 12.566406 16.601562 12.542969 16.65625 12.542969 Z M 16.457031 12.742188 C 16.457031 12.75 16.457031 12.761719 16.457031 12.773438 C 16.457031 12.789062 16.457031 12.800781 16.460938 12.8125 C 16.460938 12.800781 16.460938 12.792969 16.460938 12.78125 C 16.460938 12.765625 16.460938 12.753906 16.457031 12.742188 Z M 18.40625 12.566406 C 18.433594 12.566406 18.460938 12.570312 18.492188 12.574219 C 18.523438 12.578125 18.550781 12.582031 18.582031 12.589844 C 18.628906 12.605469 18.671875 12.628906 18.707031 12.65625 C 18.742188 12.6875 18.757812 12.726562 18.757812 12.78125 C 18.757812 12.808594 18.75 12.839844 18.734375 12.878906 C 18.71875 12.921875 18.699219 12.964844 18.671875 13.007812 C 18.652344 12.996094 18.625 12.980469 18.589844 12.964844 C 18.554688 12.949219 18.519531 12.941406 18.476562 12.941406 C 18.441406 12.941406 18.414062 12.953125 18.386719 12.972656 C 18.363281 12.996094 18.351562 13.03125 18.351562 13.078125 L 18.351562 13.136719 L 18.652344 13.136719 L 18.652344 13.496094 L 18.351562 13.496094 L 18.351562 14.308594 L 17.945312 14.308594 L 17.945312 13.148438 C 17.945312 13.125 17.949219 13.097656 17.949219 13.058594 C 17.949219 13.023438 17.949219 12.992188 17.953125 12.96875 C 17.96875 12.839844 18.019531 12.738281 18.09375 12.667969 C 18.167969 12.601562 18.273438 12.566406 18.40625 12.566406 Z M 10.699219 12.585938 C 10.730469 12.585938 10.765625 12.589844 10.792969 12.597656 C 10.824219 12.605469 10.851562 12.617188 10.875 12.636719 C 10.898438 12.65625 10.914062 12.679688 10.929688 12.714844 C 10.945312 12.746094 10.949219 12.789062 10.949219 12.839844 L 10.949219 14.308594 L 10.644531 14.308594 C 10.625 14.308594 10.609375 14.300781 10.59375 14.292969 C 10.574219 14.28125 10.566406 14.253906 10.566406 14.21875 C 10.550781 14.246094 10.519531 14.273438 10.476562 14.296875 C 10.4375 14.320312 10.382812 14.332031 10.320312 14.332031 C 10.277344 14.332031 10.230469 14.324219 10.183594 14.304688 C 10.140625 14.285156 10.101562 14.253906 10.0625 14.210938 C 10.027344 14.167969 10 14.105469 9.976562 14.03125 C 9.953125 13.953125 9.941406 13.855469 9.941406 13.738281 C 9.941406 13.621094 9.953125 13.523438 9.976562 13.441406 C 9.996094 13.363281 10.023438 13.296875 10.058594 13.246094 C 10.09375 13.195312 10.136719 13.160156 10.183594 13.136719 C 10.226562 13.113281 10.273438 13.105469 10.324219 13.105469 C 10.359375 13.105469 10.386719 13.109375 10.414062 13.117188 C 10.4375 13.125 10.460938 13.132812 10.480469 13.144531 C 10.496094 13.152344 10.511719 13.164062 10.523438 13.175781 C 10.535156 13.183594 10.542969 13.191406 10.546875 13.199219 L 10.546875 12.601562 C 10.5625 12.601562 10.582031 12.597656 10.597656 12.59375 C 10.613281 12.59375 10.628906 12.589844 10.644531 12.589844 C 10.664062 12.585938 10.679688 12.585938 10.699219 12.585938 Z M 11.488281 13.105469 C 11.597656 13.105469 11.695312 13.125 11.78125 13.164062 C 11.816406 13.183594 11.847656 13.203125 11.871094 13.230469 C 11.894531 13.253906 11.90625 13.28125 11.90625 13.316406 C 11.90625 13.34375 11.898438 13.378906 11.882812 13.421875 C 11.867188 13.460938 11.847656 13.5 11.824219 13.539062 C 11.78125 13.5 11.738281 13.46875 11.695312 13.445312 C 11.648438 13.421875 11.605469 13.410156 11.558594 13.410156 C 11.5 13.410156 11.472656 13.429688 11.472656 13.472656 C 11.472656 13.496094 11.484375 13.519531 11.503906 13.53125 C 11.527344 13.546875 11.554688 13.558594 11.585938 13.566406 C 11.617188 13.578125 11.652344 13.589844 11.691406 13.601562 C 11.730469 13.613281 11.765625 13.628906 11.796875 13.65625 C 11.828125 13.679688 11.855469 13.710938 11.878906 13.753906 C 11.902344 13.796875 11.910156 13.851562 11.910156 13.917969 C 11.910156 14.046875 11.871094 14.152344 11.796875 14.230469 C 11.71875 14.304688 11.609375 14.34375 11.460938 14.34375 C 11.378906 14.34375 11.3125 14.335938 11.265625 14.320312 C 11.21875 14.304688 11.183594 14.289062 11.15625 14.273438 C 11.121094 14.253906 11.097656 14.230469 11.082031 14.207031 C 11.070312 14.179688 11.0625 14.152344 11.0625 14.125 C 11.0625 14.082031 11.070312 14.042969 11.085938 14 C 11.105469 13.960938 11.125 13.921875 11.144531 13.882812 C 11.160156 13.898438 11.179688 13.917969 11.203125 13.933594 C 11.222656 13.949219 11.246094 13.960938 11.269531 13.972656 C 11.292969 13.988281 11.320312 14 11.34375 14.007812 C 11.371094 14.011719 11.394531 14.015625 11.417969 14.015625 C 11.453125 14.015625 11.480469 14.007812 11.496094 13.996094 C 11.507812 13.980469 11.515625 13.964844 11.515625 13.945312 C 11.515625 13.917969 11.507812 13.898438 11.484375 13.886719 C 11.460938 13.871094 11.433594 13.859375 11.402344 13.847656 C 11.367188 13.835938 11.332031 13.820312 11.292969 13.808594 C 11.253906 13.792969 11.21875 13.773438 11.1875 13.75 C 11.152344 13.722656 11.125 13.691406 11.101562 13.648438 C 11.082031 13.605469 11.070312 13.554688 11.070312 13.488281 C 11.070312 13.421875 11.082031 13.363281 11.105469 13.316406 C 11.128906 13.269531 11.160156 13.230469 11.195312 13.199219 C 11.234375 13.164062 11.28125 13.140625 11.328125 13.125 C 11.378906 13.109375 11.433594 13.105469 11.488281 13.105469 Z M 13.066406 13.105469 C 13.148438 13.105469 13.21875 13.117188 13.277344 13.148438 C 13.335938 13.175781 13.382812 13.214844 13.417969 13.265625 C 13.453125 13.3125 13.480469 13.371094 13.496094 13.433594 C 13.511719 13.5 13.519531 13.566406 13.519531 13.636719 L 13.519531 13.667969 C 13.519531 13.683594 13.519531 13.699219 13.519531 13.714844 C 13.519531 13.726562 13.519531 13.742188 13.515625 13.753906 C 13.515625 13.765625 13.515625 13.777344 13.515625 13.78125 L 12.972656 13.78125 C 12.976562 13.84375 12.996094 13.898438 13.027344 13.941406 C 13.058594 13.984375 13.109375 14.003906 13.179688 14.003906 C 13.234375 14.003906 13.277344 13.992188 13.316406 13.972656 C 13.351562 13.953125 13.386719 13.929688 13.425781 13.898438 C 13.441406 13.929688 13.460938 13.96875 13.476562 14.007812 C 13.496094 14.050781 13.503906 14.089844 13.503906 14.121094 C 13.503906 14.148438 13.496094 14.175781 13.484375 14.199219 C 13.472656 14.222656 13.453125 14.246094 13.421875 14.269531 C 13.390625 14.289062 13.351562 14.308594 13.300781 14.324219 C 13.25 14.335938 13.1875 14.34375 13.109375 14.34375 C 13.054688 14.34375 12.996094 14.335938 12.933594 14.320312 C 12.867188 14.304688 12.808594 14.273438 12.753906 14.226562 C 12.699219 14.179688 12.65625 14.113281 12.621094 14.027344 C 12.582031 13.941406 12.566406 13.832031 12.566406 13.695312 C 12.566406 13.589844 12.578125 13.503906 12.609375 13.429688 C 12.636719 13.355469 12.675781 13.292969 12.722656 13.246094 C 12.769531 13.195312 12.824219 13.160156 12.882812 13.136719 C 12.945312 13.113281 13.003906 13.105469 13.066406 13.105469 Z M 14.136719 13.105469 C 14.230469 13.105469 14.308594 13.121094 14.375 13.152344 C 14.4375 13.183594 14.492188 13.226562 14.53125 13.285156 C 14.574219 13.339844 14.601562 13.402344 14.621094 13.476562 C 14.640625 13.550781 14.648438 13.628906 14.648438 13.710938 C 14.648438 13.792969 14.640625 13.875 14.621094 13.949219 C 14.601562 14.027344 14.570312 14.09375 14.53125 14.152344 C 14.488281 14.210938 14.433594 14.257812 14.371094 14.292969 C 14.304688 14.324219 14.222656 14.34375 14.128906 14.34375 C 14.035156 14.34375 13.957031 14.328125 13.890625 14.292969 C 13.828125 14.257812 13.773438 14.210938 13.730469 14.15625 C 13.691406 14.097656 13.660156 14.03125 13.640625 13.957031 C 13.621094 13.882812 13.613281 13.800781 13.613281 13.71875 C 13.613281 13.632812 13.625 13.554688 13.644531 13.476562 C 13.667969 13.402344 13.699219 13.339844 13.742188 13.285156 C 13.789062 13.226562 13.84375 13.183594 13.90625 13.152344 C 13.972656 13.121094 14.050781 13.105469 14.136719 13.105469 Z M 15.390625 13.105469 C 15.410156 13.105469 15.433594 13.105469 15.453125 13.109375 C 15.472656 13.113281 15.488281 13.125 15.503906 13.132812 C 15.519531 13.144531 15.535156 13.160156 15.542969 13.175781 C 15.554688 13.195312 15.558594 13.214844 15.558594 13.242188 C 15.558594 13.265625 15.554688 13.296875 15.550781 13.328125 C 15.546875 13.359375 15.539062 13.386719 15.53125 13.421875 C 15.519531 13.453125 15.511719 13.484375 15.5 13.515625 C 15.488281 13.546875 15.480469 13.574219 15.46875 13.597656 C 15.441406 13.570312 15.414062 13.550781 15.386719 13.535156 C 15.359375 13.523438 15.328125 13.515625 15.300781 13.515625 C 15.265625 13.515625 15.238281 13.527344 15.21875 13.546875 C 15.199219 13.570312 15.191406 13.597656 15.191406 13.628906 L 15.191406 14.308594 L 14.78125 14.308594 L 14.78125 13.148438 C 14.792969 13.144531 14.808594 13.140625 14.824219 13.136719 C 14.839844 13.132812 14.855469 13.132812 14.875 13.128906 C 14.894531 13.128906 14.914062 13.128906 14.941406 13.128906 C 15.0625 13.128906 15.136719 13.167969 15.167969 13.25 C 15.175781 13.234375 15.183594 13.21875 15.199219 13.203125 C 15.214844 13.183594 15.230469 13.167969 15.25 13.152344 C 15.269531 13.140625 15.289062 13.128906 15.3125 13.117188 C 15.339844 13.109375 15.363281 13.105469 15.390625 13.105469 Z M 17.40625 13.105469 C 17.515625 13.105469 17.613281 13.125 17.699219 13.164062 C 17.734375 13.183594 17.761719 13.203125 17.785156 13.230469 C 17.808594 13.253906 17.824219 13.28125 17.824219 13.316406 C 17.824219 13.34375 17.816406 13.378906 17.800781 13.421875 C 17.785156 13.460938 17.765625 13.5 17.742188 13.539062 C 17.699219 13.5 17.65625 13.46875 17.613281 13.445312 C 17.570312 13.421875 17.523438 13.410156 17.476562 13.410156 C 17.417969 13.410156 17.390625 13.429688 17.390625 13.472656 C 17.390625 13.496094 17.402344 13.519531 17.421875 13.53125 C 17.445312 13.546875 17.472656 13.558594 17.503906 13.566406 C 17.535156 13.578125 17.570312 13.589844 17.609375 13.601562 C 17.648438 13.613281 17.683594 13.628906 17.714844 13.65625 C 17.75 13.679688 17.777344 13.710938 17.796875 13.753906 C 17.820312 13.796875 17.828125 13.851562 17.828125 13.917969 C 17.828125 14.046875 17.789062 14.152344 17.714844 14.230469 C 17.636719 14.304688 17.527344 14.34375 17.378906 14.34375 C 17.296875 14.34375 17.230469 14.335938 17.183594 14.320312 C 17.136719 14.304688 17.101562 14.289062 17.074219 14.273438 C 17.039062 14.253906 17.015625 14.230469 17 14.207031 C 16.988281 14.179688 16.980469 14.152344 16.980469 14.125 C 16.980469 14.082031 16.988281 14.042969 17.003906 14 C 17.023438 13.960938 17.042969 13.921875 17.0625 13.882812 C 17.082031 13.898438 17.097656 13.917969 17.121094 13.933594 C 17.140625 13.949219 17.164062 13.960938 17.1875 13.972656 C 17.210938 13.988281 17.234375 14 17.261719 14.007812 C 17.289062 14.011719 17.3125 14.015625 17.335938 14.015625 C 17.371094 14.015625 17.398438 14.007812 17.414062 13.996094 C 17.425781 13.980469 17.433594 13.964844 17.433594 13.945312 C 17.433594 13.917969 17.425781 13.898438 17.402344 13.886719 C 17.378906 13.871094 17.351562 13.859375 17.320312 13.847656 C 17.285156 13.835938 17.25 13.820312 17.210938 13.808594 C 17.171875 13.792969 17.136719 13.773438 17.101562 13.75 C 17.070312 13.722656 17.042969 13.691406 17.023438 13.648438 C 17 13.605469 16.988281 13.554688 16.988281 13.488281 C 16.988281 13.421875 17 13.363281 17.023438 13.316406 C 17.046875 13.269531 17.078125 13.230469 17.117188 13.199219 C 17.152344 13.164062 17.199219 13.140625 17.25 13.125 C 17.296875 13.109375 17.351562 13.105469 17.40625 13.105469 Z M 12.183594 13.128906 C 12.214844 13.128906 12.246094 13.132812 12.277344 13.136719 C 12.308594 13.144531 12.335938 13.160156 12.359375 13.179688 C 12.382812 13.195312 12.398438 13.222656 12.414062 13.253906 C 12.429688 13.289062 12.4375 13.332031 12.4375 13.382812 L 12.4375 14.242188 C 12.4375 14.277344 12.433594 14.320312 12.429688 14.375 C 12.429688 14.425781 12.421875 14.472656 12.414062 14.515625 C 12.398438 14.582031 12.375 14.636719 12.34375 14.679688 C 12.3125 14.722656 12.277344 14.757812 12.238281 14.785156 C 12.199219 14.8125 12.160156 14.832031 12.121094 14.84375 C 12.082031 14.851562 12.050781 14.859375 12.019531 14.859375 C 11.960938 14.859375 11.917969 14.847656 11.890625 14.820312 C 11.867188 14.792969 11.847656 14.753906 11.839844 14.703125 C 11.835938 14.679688 11.832031 14.65625 11.828125 14.632812 C 11.828125 14.609375 11.824219 14.578125 11.820312 14.539062 C 11.863281 14.535156 11.898438 14.523438 11.925781 14.511719 C 11.953125 14.496094 11.976562 14.476562 11.992188 14.453125 C 12.003906 14.429688 12.015625 14.402344 12.019531 14.375 C 12.027344 14.34375 12.027344 14.3125 12.027344 14.277344 L 12.027344 13.144531 C 12.042969 13.144531 12.0625 13.140625 12.078125 13.136719 C 12.09375 13.132812 12.109375 13.132812 12.128906 13.128906 C 12.148438 13.128906 12.167969 13.128906 12.183594 13.128906 Z M 16.617188 13.128906 C 16.648438 13.128906 16.683594 13.132812 16.710938 13.136719 C 16.742188 13.144531 16.769531 13.160156 16.792969 13.179688 C 16.816406 13.195312 16.835938 13.222656 16.847656 13.253906 C 16.863281 13.289062 16.871094 13.332031 16.871094 13.382812 L 16.871094 14.242188 C 16.871094 14.277344 16.867188 14.320312 16.867188 14.375 C 16.863281 14.425781 16.855469 14.472656 16.847656 14.515625 C 16.832031 14.582031 16.808594 14.636719 16.777344 14.679688 C 16.746094 14.722656 16.710938 14.757812 16.671875 14.785156 C 16.632812 14.8125 16.597656 14.832031 16.558594 14.84375 C 16.519531 14.851562 16.484375 14.859375 16.457031 14.859375 C 16.398438 14.859375 16.355469 14.847656 16.328125 14.820312 C 16.300781 14.792969 16.28125 14.753906 16.273438 14.703125 C 16.269531 14.679688 16.265625 14.65625 16.261719 14.632812 C 16.261719 14.609375 16.257812 14.578125 16.257812 14.539062 C 16.300781 14.535156 16.335938 14.523438 16.363281 14.511719 C 16.390625 14.496094 16.410156 14.476562 16.425781 14.453125 C 16.4375 14.429688 16.449219 14.402344 16.457031 14.375 C 16.460938 14.34375 16.464844 14.3125 16.464844 14.277344 L 16.464844 13.144531 C 16.480469 13.144531 16.496094 13.140625 16.515625 13.136719 C 16.53125 13.132812 16.546875 13.132812 16.566406 13.128906 C 16.582031 13.128906 16.601562 13.128906 16.617188 13.128906 Z M 13.0625 13.40625 C 12.996094 13.40625 12.964844 13.464844 12.964844 13.582031 L 13.160156 13.582031 C 13.160156 13.515625 13.152344 13.46875 13.136719 13.445312 C 13.121094 13.417969 13.097656 13.40625 13.0625 13.40625 Z M 10.476562 13.460938 C 10.429688 13.460938 10.402344 13.484375 10.382812 13.535156 C 10.367188 13.582031 10.359375 13.648438 10.359375 13.730469 L 10.359375 13.734375 C 10.359375 13.773438 10.359375 13.808594 10.363281 13.839844 C 10.367188 13.875 10.375 13.902344 10.386719 13.925781 C 10.394531 13.953125 10.410156 13.972656 10.425781 13.988281 C 10.441406 14.003906 10.460938 14.007812 10.488281 14.007812 C 10.503906 14.007812 10.515625 14.007812 10.523438 14.007812 C 10.535156 14.003906 10.542969 14 10.546875 14 L 10.546875 13.476562 C 10.539062 13.46875 10.527344 13.46875 10.511719 13.464844 C 10.5 13.460938 10.488281 13.460938 10.476562 13.460938 Z M 14.132812 13.464844 C 14.109375 13.464844 14.089844 13.46875 14.074219 13.484375 C 14.058594 13.5 14.046875 13.519531 14.039062 13.542969 C 14.03125 13.566406 14.023438 13.59375 14.019531 13.625 C 14.015625 13.65625 14.015625 13.6875 14.015625 13.71875 C 14.015625 13.753906 14.015625 13.789062 14.019531 13.820312 C 14.023438 13.855469 14.03125 13.882812 14.039062 13.90625 C 14.046875 13.933594 14.0625 13.953125 14.074219 13.96875 C 14.089844 13.984375 14.109375 13.988281 14.132812 13.988281 C 14.152344 13.988281 14.171875 13.980469 14.1875 13.96875 C 14.203125 13.953125 14.214844 13.929688 14.222656 13.90625 C 14.230469 13.882812 14.238281 13.851562 14.238281 13.820312 C 14.242188 13.785156 14.246094 13.753906 14.246094 13.71875 C 14.246094 13.648438 14.238281 13.585938 14.21875 13.535156 C 14.203125 13.488281 14.175781 13.464844 14.132812 13.464844 Z M 10.757812 14.972656 C 10.8125 14.972656 10.859375 14.992188 10.898438 15.035156 C 10.9375 15.078125 10.957031 15.132812 10.957031 15.199219 C 10.957031 15.269531 10.9375 15.328125 10.898438 15.367188 C 10.859375 15.40625 10.8125 15.425781 10.757812 15.425781 C 10.703125 15.425781 10.65625 15.40625 10.617188 15.367188 C 10.578125 15.328125 10.558594 15.269531 10.558594 15.199219 C 10.558594 15.132812 10.578125 15.078125 10.617188 15.035156 C 10.65625 14.992188 10.703125 14.972656 10.757812 14.972656 Z M 9 14.996094 C 9.027344 14.996094 9.054688 14.996094 9.085938 15 C 9.117188 15.003906 9.144531 15.011719 9.175781 15.019531 C 9.222656 15.03125 9.265625 15.054688 9.300781 15.085938 C 9.335938 15.113281 9.351562 15.15625 9.351562 15.210938 C 9.351562 15.234375 9.34375 15.269531 9.328125 15.308594 C 9.3125 15.351562 9.292969 15.390625 9.265625 15.4375 C 9.246094 15.421875 9.214844 15.40625 9.179688 15.390625 C 9.148438 15.378906 9.109375 15.367188 9.070312 15.367188 C 9.035156 15.367188 9.003906 15.378906 8.980469 15.402344 C 8.957031 15.421875 8.945312 15.457031 8.945312 15.503906 L 8.945312 15.5625 L 9.246094 15.5625 L 9.246094 15.925781 L 8.945312 15.925781 L 8.945312 16.734375 L 8.539062 16.734375 L 8.539062 15.574219 C 8.539062 15.554688 8.542969 15.523438 8.542969 15.488281 C 8.542969 15.449219 8.542969 15.421875 8.546875 15.398438 C 8.5625 15.265625 8.609375 15.167969 8.683594 15.097656 C 8.761719 15.03125 8.863281 14.996094 9 14.996094 Z M 13.296875 14.996094 C 13.324219 14.996094 13.355469 14.996094 13.386719 15 C 13.417969 15.003906 13.445312 15.011719 13.472656 15.019531 C 13.523438 15.03125 13.566406 15.054688 13.601562 15.085938 C 13.636719 15.113281 13.652344 15.15625 13.652344 15.210938 C 13.652344 15.234375 13.644531 15.269531 13.628906 15.308594 C 13.609375 15.351562 13.589844 15.390625 13.566406 15.4375 C 13.542969 15.421875 13.515625 15.40625 13.484375 15.390625 C 13.449219 15.378906 13.410156 15.367188 13.371094 15.367188 C 13.335938 15.367188 13.304688 15.378906 13.28125 15.402344 C 13.257812 15.421875 13.246094 15.457031 13.246094 15.503906 L 13.246094 15.5625 L 13.542969 15.5625 L 13.542969 15.925781 L 13.246094 15.925781 L 13.246094 16.734375 L 12.839844 16.734375 L 12.839844 15.574219 C 12.839844 15.554688 12.839844 15.523438 12.839844 15.488281 C 12.84375 15.449219 12.84375 15.421875 12.847656 15.398438 C 12.863281 15.265625 12.910156 15.167969 12.984375 15.097656 C 13.058594 15.03125 13.164062 14.996094 13.296875 14.996094 Z M 9.507812 15.015625 C 9.539062 15.015625 9.570312 15.015625 9.601562 15.023438 C 9.632812 15.03125 9.660156 15.046875 9.683594 15.0625 C 9.707031 15.082031 9.722656 15.109375 9.738281 15.140625 C 9.753906 15.175781 9.757812 15.21875 9.757812 15.269531 L 9.757812 16.050781 C 9.765625 16.015625 9.777344 15.980469 9.792969 15.945312 C 9.808594 15.910156 9.824219 15.875 9.847656 15.84375 L 9.957031 15.675781 C 9.984375 15.636719 10.011719 15.601562 10.042969 15.574219 C 10.074219 15.546875 10.117188 15.53125 10.171875 15.53125 C 10.203125 15.53125 10.234375 15.539062 10.261719 15.546875 C 10.292969 15.558594 10.320312 15.570312 10.34375 15.582031 C 10.367188 15.597656 10.390625 15.613281 10.414062 15.628906 L 10.136719 16.097656 L 10.46875 16.699219 C 10.378906 16.742188 10.296875 16.761719 10.222656 16.761719 C 10.15625 16.761719 10.105469 16.75 10.070312 16.722656 C 10.035156 16.695312 10.003906 16.65625 9.976562 16.613281 L 9.84375 16.398438 C 9.820312 16.363281 9.804688 16.324219 9.789062 16.292969 C 9.777344 16.261719 9.765625 16.226562 9.757812 16.183594 L 9.757812 16.734375 L 9.351562 16.734375 L 9.351562 15.03125 C 9.371094 15.03125 9.386719 15.027344 9.40625 15.023438 C 9.417969 15.019531 9.4375 15.019531 9.453125 15.015625 C 9.472656 15.015625 9.488281 15.015625 9.507812 15.015625 Z M 11.289062 15.015625 C 11.320312 15.015625 11.351562 15.015625 11.382812 15.023438 C 11.414062 15.03125 11.441406 15.046875 11.464844 15.0625 C 11.488281 15.082031 11.503906 15.109375 11.519531 15.140625 C 11.535156 15.175781 11.539062 15.21875 11.539062 15.269531 L 11.539062 16.726562 C 11.484375 16.746094 11.433594 16.757812 11.390625 16.757812 C 11.328125 16.757812 11.28125 16.75 11.246094 16.730469 C 11.210938 16.710938 11.1875 16.6875 11.167969 16.660156 C 11.152344 16.628906 11.144531 16.597656 11.140625 16.558594 C 11.136719 16.523438 11.136719 16.480469 11.136719 16.4375 L 11.136719 15.03125 C 11.152344 15.03125 11.167969 15.027344 11.183594 15.023438 C 11.199219 15.019531 11.214844 15.019531 11.234375 15.015625 C 11.253906 15.015625 11.269531 15.015625 11.289062 15.015625 Z M 12.425781 15.015625 C 12.460938 15.015625 12.492188 15.015625 12.523438 15.023438 C 12.550781 15.03125 12.578125 15.046875 12.601562 15.0625 C 12.625 15.082031 12.644531 15.109375 12.65625 15.140625 C 12.671875 15.175781 12.679688 15.21875 12.679688 15.269531 L 12.679688 16.734375 L 12.375 16.734375 C 12.351562 16.734375 12.335938 16.730469 12.320312 16.71875 C 12.304688 16.707031 12.296875 16.683594 12.296875 16.644531 C 12.277344 16.675781 12.246094 16.699219 12.203125 16.722656 C 12.164062 16.75 12.113281 16.757812 12.050781 16.757812 C 12.003906 16.757812 11.957031 16.75 11.914062 16.734375 C 11.867188 16.714844 11.828125 16.683594 11.792969 16.640625 C 11.753906 16.59375 11.726562 16.535156 11.707031 16.457031 C 11.683594 16.378906 11.671875 16.285156 11.671875 16.167969 C 11.671875 16.050781 11.679688 15.953125 11.703125 15.871094 C 11.722656 15.789062 11.75 15.726562 11.785156 15.675781 C 11.820312 15.625 11.863281 15.589844 11.910156 15.566406 C 11.957031 15.542969 12.003906 15.53125 12.050781 15.53125 C 12.085938 15.53125 12.113281 15.535156 12.140625 15.542969 C 12.164062 15.550781 12.1875 15.5625 12.207031 15.570312 C 12.222656 15.582031 12.238281 15.59375 12.25 15.605469 C 12.261719 15.613281 12.269531 15.621094 12.273438 15.625 L 12.273438 15.03125 C 12.289062 15.03125 12.308594 15.027344 12.324219 15.023438 C 12.339844 15.019531 12.355469 15.019531 12.375 15.015625 C 12.390625 15.015625 12.410156 15.015625 12.425781 15.015625 Z M 17.714844 15.105469 C 17.808594 15.105469 17.890625 15.125 17.957031 15.160156 C 18.023438 15.199219 18.078125 15.253906 18.125 15.324219 C 18.167969 15.398438 18.199219 15.484375 18.21875 15.589844 C 18.238281 15.691406 18.25 15.808594 18.25 15.9375 C 18.25 16.207031 18.203125 16.410156 18.117188 16.554688 C 18.03125 16.699219 17.890625 16.769531 17.707031 16.769531 C 17.519531 16.769531 17.382812 16.703125 17.292969 16.5625 C 17.207031 16.425781 17.160156 16.214844 17.160156 15.9375 C 17.160156 15.8125 17.171875 15.695312 17.195312 15.59375 C 17.214844 15.492188 17.25 15.402344 17.292969 15.332031 C 17.339844 15.257812 17.394531 15.203125 17.464844 15.164062 C 17.535156 15.125 17.617188 15.105469 17.714844 15.105469 Z M 18.890625 15.105469 C 18.980469 15.105469 19.058594 15.125 19.125 15.15625 C 19.191406 15.191406 19.25 15.242188 19.292969 15.304688 C 19.339844 15.367188 19.371094 15.445312 19.394531 15.535156 C 19.414062 15.625 19.429688 15.726562 19.429688 15.839844 C 19.429688 16.003906 19.40625 16.148438 19.367188 16.265625 C 19.328125 16.386719 19.273438 16.480469 19.210938 16.554688 C 19.144531 16.628906 19.074219 16.683594 18.992188 16.71875 C 18.910156 16.753906 18.832031 16.769531 18.746094 16.769531 C 18.699219 16.769531 18.660156 16.765625 18.632812 16.757812 C 18.605469 16.75 18.578125 16.738281 18.5625 16.722656 C 18.542969 16.707031 18.53125 16.6875 18.527344 16.664062 C 18.519531 16.640625 18.515625 16.613281 18.515625 16.578125 C 18.515625 16.554688 18.519531 16.527344 18.523438 16.492188 C 18.527344 16.460938 18.527344 16.433594 18.53125 16.40625 C 18.558594 16.414062 18.582031 16.417969 18.597656 16.417969 C 18.617188 16.421875 18.636719 16.421875 18.660156 16.421875 C 18.691406 16.421875 18.722656 16.417969 18.753906 16.410156 C 18.785156 16.402344 18.816406 16.390625 18.84375 16.375 C 18.871094 16.355469 18.898438 16.332031 18.925781 16.300781 C 18.949219 16.273438 18.96875 16.234375 18.984375 16.1875 C 18.953125 16.210938 18.921875 16.226562 18.882812 16.238281 C 18.84375 16.246094 18.808594 16.25 18.777344 16.25 C 18.710938 16.25 18.65625 16.234375 18.605469 16.207031 C 18.558594 16.175781 18.519531 16.140625 18.484375 16.089844 C 18.453125 16.042969 18.425781 15.988281 18.410156 15.925781 C 18.394531 15.863281 18.386719 15.796875 18.386719 15.726562 C 18.386719 15.621094 18.402344 15.53125 18.425781 15.453125 C 18.453125 15.375 18.488281 15.3125 18.535156 15.257812 C 18.578125 15.207031 18.632812 15.167969 18.695312 15.144531 C 18.753906 15.117188 18.820312 15.105469 18.890625 15.105469 Z M 17.710938 15.476562 C 17.683594 15.476562 17.664062 15.484375 17.648438 15.5 C 17.632812 15.515625 17.617188 15.542969 17.609375 15.578125 C 17.597656 15.613281 17.589844 15.664062 17.585938 15.722656 C 17.582031 15.78125 17.582031 15.851562 17.582031 15.9375 C 17.582031 16.109375 17.589844 16.230469 17.609375 16.296875 C 17.628906 16.367188 17.664062 16.398438 17.710938 16.398438 C 17.734375 16.398438 17.75 16.394531 17.765625 16.378906 C 17.78125 16.363281 17.796875 16.335938 17.804688 16.300781 C 17.816406 16.261719 17.824219 16.214844 17.828125 16.15625 C 17.832031 16.097656 17.835938 16.023438 17.835938 15.9375 C 17.835938 15.851562 17.832031 15.78125 17.828125 15.722656 C 17.824219 15.664062 17.816406 15.613281 17.804688 15.578125 C 17.796875 15.542969 17.78125 15.515625 17.765625 15.5 C 17.75 15.484375 17.734375 15.476562 17.710938 15.476562 Z M 18.894531 15.480469 C 18.867188 15.480469 18.847656 15.5 18.828125 15.539062 C 18.808594 15.578125 18.800781 15.636719 18.800781 15.714844 C 18.800781 15.792969 18.808594 15.851562 18.832031 15.886719 C 18.855469 15.921875 18.886719 15.941406 18.925781 15.941406 C 18.957031 15.941406 18.984375 15.9375 19.007812 15.929688 C 19.011719 15.90625 19.011719 15.878906 19.011719 15.855469 C 19.015625 15.832031 19.015625 15.804688 19.015625 15.777344 C 19.015625 15.738281 19.011719 15.699219 19.011719 15.664062 C 19.007812 15.628906 19 15.597656 18.992188 15.570312 C 18.980469 15.542969 18.96875 15.519531 18.953125 15.503906 C 18.9375 15.488281 18.917969 15.480469 18.894531 15.480469 Z M 14.433594 15.53125 C 14.542969 15.53125 14.640625 15.550781 14.722656 15.589844 C 14.761719 15.609375 14.789062 15.632812 14.816406 15.65625 C 14.839844 15.679688 14.847656 15.710938 14.847656 15.746094 C 14.847656 15.773438 14.84375 15.808594 14.828125 15.847656 C 14.8125 15.890625 14.792969 15.929688 14.769531 15.964844 C 14.730469 15.929688 14.6875 15.898438 14.640625 15.875 C 14.597656 15.851562 14.550781 15.839844 14.503906 15.839844 C 14.445312 15.839844 14.417969 15.859375 14.417969 15.902344 C 14.417969 15.925781 14.429688 15.945312 14.449219 15.960938 C 14.472656 15.972656 14.5 15.984375 14.53125 15.996094 C 14.5625 16.003906 14.597656 16.015625 14.636719 16.027344 C 14.675781 16.039062 14.710938 16.058594 14.742188 16.082031 C 14.773438 16.105469 14.800781 16.140625 14.824219 16.179688 C 14.84375 16.222656 14.855469 16.28125 14.855469 16.347656 C 14.855469 16.476562 14.816406 16.578125 14.742188 16.65625 C 14.664062 16.734375 14.554688 16.769531 14.40625 16.769531 C 14.324219 16.769531 14.257812 16.765625 14.210938 16.75 C 14.164062 16.734375 14.128906 16.71875 14.101562 16.703125 C 14.066406 16.679688 14.039062 16.65625 14.027344 16.632812 C 14.011719 16.609375 14.007812 16.582031 14.007812 16.554688 C 14.007812 16.511719 14.015625 16.472656 14.03125 16.429688 C 14.050781 16.390625 14.070312 16.351562 14.089844 16.3125 C 14.105469 16.328125 14.125 16.34375 14.144531 16.359375 C 14.167969 16.375 14.191406 16.390625 14.214844 16.402344 C 14.238281 16.417969 14.265625 16.425781 14.289062 16.433594 C 14.316406 16.441406 14.339844 16.445312 14.363281 16.445312 C 14.398438 16.445312 14.425781 16.4375 14.4375 16.425781 C 14.453125 16.410156 14.460938 16.394531 14.460938 16.371094 C 14.460938 16.347656 14.449219 16.328125 14.429688 16.3125 C 14.40625 16.296875 14.378906 16.285156 14.34375 16.273438 C 14.3125 16.265625 14.277344 16.25 14.238281 16.234375 C 14.199219 16.222656 14.164062 16.199219 14.132812 16.175781 C 14.097656 16.148438 14.070312 16.117188 14.046875 16.074219 C 14.027344 16.035156 14.015625 15.980469 14.015625 15.914062 C 14.015625 15.851562 14.027344 15.792969 14.050781 15.746094 C 14.074219 15.695312 14.101562 15.65625 14.140625 15.625 C 14.179688 15.59375 14.222656 15.570312 14.273438 15.554688 C 14.324219 15.539062 14.378906 15.53125 14.433594 15.53125 Z M 15.433594 15.53125 C 15.589844 15.53125 15.703125 15.570312 15.773438 15.644531 C 15.839844 15.71875 15.875 15.835938 15.875 15.996094 L 15.875 16.472656 C 15.875 16.511719 15.878906 16.554688 15.882812 16.605469 C 15.890625 16.652344 15.898438 16.695312 15.90625 16.730469 C 15.886719 16.734375 15.871094 16.738281 15.855469 16.746094 C 15.839844 16.75 15.824219 16.75 15.8125 16.753906 C 15.796875 16.753906 15.78125 16.757812 15.765625 16.757812 C 15.75 16.761719 15.734375 16.757812 15.714844 16.757812 C 15.605469 16.757812 15.542969 16.722656 15.523438 16.648438 C 15.503906 16.675781 15.46875 16.699219 15.421875 16.722656 C 15.378906 16.746094 15.320312 16.757812 15.253906 16.757812 C 15.210938 16.757812 15.171875 16.75 15.132812 16.738281 C 15.09375 16.726562 15.058594 16.703125 15.03125 16.675781 C 15 16.648438 14.976562 16.609375 14.960938 16.566406 C 14.941406 16.519531 14.933594 16.460938 14.933594 16.394531 C 14.933594 16.300781 14.953125 16.226562 14.996094 16.171875 C 15.035156 16.113281 15.085938 16.074219 15.144531 16.042969 C 15.203125 16.015625 15.265625 15.996094 15.328125 15.988281 C 15.390625 15.980469 15.445312 15.976562 15.492188 15.976562 L 15.492188 15.941406 C 15.492188 15.917969 15.488281 15.902344 15.480469 15.886719 C 15.472656 15.875 15.464844 15.863281 15.453125 15.855469 C 15.441406 15.847656 15.425781 15.84375 15.410156 15.839844 C 15.398438 15.839844 15.378906 15.835938 15.363281 15.835938 C 15.316406 15.835938 15.269531 15.84375 15.222656 15.859375 C 15.175781 15.875 15.125 15.898438 15.066406 15.933594 C 15.042969 15.894531 15.023438 15.859375 15.007812 15.824219 C 14.996094 15.785156 14.988281 15.761719 14.988281 15.742188 C 14.988281 15.71875 14.996094 15.695312 15.011719 15.671875 C 15.023438 15.652344 15.050781 15.628906 15.09375 15.605469 C 15.128906 15.582031 15.179688 15.5625 15.242188 15.550781 C 15.304688 15.539062 15.367188 15.53125 15.433594 15.53125 Z M 16.683594 15.53125 C 16.726562 15.53125 16.769531 15.542969 16.8125 15.558594 C 16.859375 15.578125 16.898438 15.609375 16.933594 15.652344 C 16.96875 15.699219 17 15.757812 17.023438 15.832031 C 17.042969 15.910156 17.054688 16 17.054688 16.113281 C 17.054688 16.246094 17.042969 16.351562 17.019531 16.4375 C 16.996094 16.519531 16.964844 16.585938 16.929688 16.636719 C 16.890625 16.6875 16.847656 16.722656 16.800781 16.738281 C 16.753906 16.757812 16.707031 16.765625 16.660156 16.765625 C 16.625 16.765625 16.59375 16.761719 16.566406 16.753906 C 16.539062 16.746094 16.519531 16.734375 16.5 16.722656 C 16.480469 16.710938 16.464844 16.699219 16.457031 16.6875 C 16.445312 16.679688 16.441406 16.671875 16.4375 16.664062 L 16.4375 17.265625 L 16.035156 17.265625 L 16.035156 15.574219 C 16.046875 15.570312 16.0625 15.570312 16.082031 15.566406 C 16.09375 15.5625 16.109375 15.558594 16.128906 15.558594 C 16.148438 15.558594 16.171875 15.554688 16.195312 15.554688 C 16.316406 15.554688 16.394531 15.59375 16.421875 15.671875 C 16.445312 15.632812 16.476562 15.601562 16.519531 15.574219 C 16.5625 15.546875 16.617188 15.53125 16.683594 15.53125 Z M 10.722656 15.554688 C 10.753906 15.554688 10.785156 15.558594 10.816406 15.566406 C 10.847656 15.574219 10.875 15.585938 10.898438 15.605469 C 10.917969 15.625 10.9375 15.652344 10.953125 15.683594 C 10.96875 15.71875 10.972656 15.757812 10.972656 15.808594 L 10.972656 16.671875 C 10.972656 16.707031 10.972656 16.75 10.96875 16.804688 C 10.964844 16.855469 10.960938 16.902344 10.949219 16.945312 C 10.9375 17.007812 10.914062 17.0625 10.882812 17.109375 C 10.851562 17.152344 10.816406 17.1875 10.777344 17.214844 C 10.738281 17.238281 10.699219 17.257812 10.660156 17.269531 C 10.621094 17.28125 10.585938 17.289062 10.558594 17.289062 C 10.5 17.289062 10.457031 17.273438 10.429688 17.246094 C 10.402344 17.21875 10.386719 17.179688 10.375 17.128906 C 10.371094 17.109375 10.371094 17.085938 10.367188 17.0625 C 10.363281 17.039062 10.363281 17.007812 10.359375 16.964844 C 10.402344 16.960938 10.4375 16.953125 10.464844 16.9375 C 10.492188 16.921875 10.515625 16.902344 10.527344 16.882812 C 10.542969 16.859375 10.554688 16.832031 10.558594 16.804688 C 10.5625 16.773438 10.566406 16.738281 10.566406 16.703125 L 10.566406 15.570312 C 10.585938 15.570312 10.601562 15.570312 10.617188 15.566406 C 10.632812 15.5625 10.648438 15.558594 10.667969 15.558594 C 10.6875 15.558594 10.703125 15.554688 10.722656 15.554688 Z M 16.503906 15.878906 C 16.488281 15.878906 16.472656 15.878906 16.464844 15.882812 C 16.453125 15.886719 16.449219 15.886719 16.445312 15.890625 L 16.445312 16.378906 C 16.453125 16.386719 16.460938 16.390625 16.472656 16.394531 C 16.488281 16.394531 16.5 16.394531 16.511719 16.394531 C 16.554688 16.394531 16.589844 16.371094 16.605469 16.316406 C 16.621094 16.265625 16.628906 16.195312 16.628906 16.113281 C 16.628906 16.039062 16.621094 15.980469 16.601562 15.941406 C 16.585938 15.898438 16.550781 15.878906 16.503906 15.878906 Z M 12.1875 15.890625 C 12.152344 15.894531 12.125 15.917969 12.109375 15.960938 C 12.09375 16.007812 12.085938 16.074219 12.085938 16.160156 C 12.085938 16.199219 12.085938 16.234375 12.089844 16.269531 C 12.09375 16.300781 12.101562 16.328125 12.113281 16.355469 C 12.121094 16.378906 12.136719 16.402344 12.152344 16.414062 C 12.167969 16.429688 12.1875 16.4375 12.214844 16.4375 C 12.230469 16.4375 12.242188 16.4375 12.25 16.433594 C 12.261719 16.429688 12.269531 16.429688 12.273438 16.425781 L 12.273438 15.90625 C 12.265625 15.898438 12.253906 15.894531 12.242188 15.890625 C 12.226562 15.890625 12.214844 15.890625 12.203125 15.890625 C 12.199219 15.890625 12.195312 15.886719 12.1875 15.890625 Z M 15.496094 16.191406 C 15.472656 16.195312 15.445312 16.199219 15.421875 16.207031 C 15.398438 16.214844 15.378906 16.222656 15.363281 16.234375 C 15.34375 16.246094 15.332031 16.261719 15.324219 16.28125 C 15.3125 16.300781 15.304688 16.324219 15.304688 16.355469 C 15.304688 16.394531 15.316406 16.421875 15.332031 16.441406 C 15.347656 16.460938 15.375 16.472656 15.402344 16.472656 C 15.425781 16.472656 15.449219 16.46875 15.46875 16.453125 C 15.488281 16.441406 15.496094 16.421875 15.496094 16.394531 Z M 19.808594 16.320312 C 19.863281 16.320312 19.910156 16.339844 19.945312 16.382812 C 19.980469 16.421875 20 16.476562 20 16.542969 C 20 16.609375 19.980469 16.664062 19.949219 16.707031 C 19.914062 16.75 19.867188 16.769531 19.808594 16.769531 C 19.746094 16.769531 19.699219 16.75 19.664062 16.707031 C 19.628906 16.664062 19.613281 16.609375 19.613281 16.542969 C 19.613281 16.476562 19.632812 16.421875 19.667969 16.382812 C 19.707031 16.339844 19.75 16.320312 19.808594 16.320312 Z M 12.917969 17.402344 C 12.972656 17.402344 13.019531 17.421875 13.058594 17.460938 C 13.097656 17.503906 13.117188 17.558594 13.117188 17.628906 C 13.117188 17.699219 13.097656 17.753906 13.058594 17.792969 C 13.019531 17.835938 12.972656 17.855469 12.917969 17.855469 C 12.863281 17.855469 12.816406 17.835938 12.777344 17.792969 C 12.738281 17.753906 12.71875 17.699219 12.71875 17.628906 C 12.71875 17.558594 12.738281 17.503906 12.777344 17.460938 C 12.816406 17.421875 12.863281 17.402344 12.917969 17.402344 Z M 11.324219 17.421875 C 11.351562 17.421875 11.382812 17.425781 11.414062 17.429688 C 11.441406 17.433594 11.472656 17.4375 11.5 17.445312 C 11.550781 17.460938 11.589844 17.484375 11.625 17.511719 C 11.664062 17.542969 11.679688 17.582031 11.679688 17.640625 C 11.679688 17.664062 11.671875 17.695312 11.652344 17.738281 C 11.636719 17.777344 11.617188 17.820312 11.59375 17.863281 C 11.570312 17.851562 11.542969 17.835938 11.507812 17.820312 C 11.472656 17.804688 11.4375 17.796875 11.394531 17.796875 C 11.359375 17.796875 11.332031 17.808594 11.308594 17.828125 C 11.28125 17.851562 11.269531 17.886719 11.269531 17.933594 L 11.269531 17.992188 L 11.570312 17.992188 L 11.570312 18.351562 L 11.269531 18.351562 L 11.269531 19.164062 L 10.867188 19.164062 L 10.867188 18.003906 C 10.867188 17.980469 10.867188 17.953125 10.867188 17.917969 C 10.867188 17.878906 10.871094 17.847656 10.871094 17.824219 C 10.890625 17.695312 10.9375 17.59375 11.011719 17.527344 C 11.085938 17.457031 11.191406 17.421875 11.324219 17.421875 Z M 13.753906 17.421875 C 13.78125 17.421875 13.808594 17.425781 13.839844 17.429688 C 13.871094 17.433594 13.898438 17.4375 13.925781 17.445312 C 13.976562 17.460938 14.019531 17.484375 14.054688 17.511719 C 14.089844 17.542969 14.105469 17.582031 14.105469 17.640625 C 14.105469 17.664062 14.097656 17.695312 14.082031 17.738281 C 14.066406 17.777344 14.046875 17.820312 14.019531 17.863281 C 13.996094 17.851562 13.96875 17.835938 13.9375 17.820312 C 13.902344 17.804688 13.867188 17.796875 13.824219 17.796875 C 13.789062 17.796875 13.757812 17.808594 13.734375 17.828125 C 13.710938 17.851562 13.699219 17.886719 13.699219 17.933594 L 13.699219 17.992188 L 14 17.992188 L 14 18.351562 L 13.699219 18.351562 L 13.699219 19.164062 L 13.292969 19.164062 L 13.292969 18.003906 C 13.292969 17.980469 13.292969 17.953125 13.296875 17.917969 C 13.296875 17.878906 13.296875 17.847656 13.300781 17.824219 C 13.316406 17.695312 13.363281 17.59375 13.4375 17.527344 C 13.515625 17.457031 13.617188 17.421875 13.753906 17.421875 Z M 16.242188 17.441406 C 16.273438 17.441406 16.304688 17.445312 16.335938 17.453125 C 16.367188 17.460938 16.390625 17.472656 16.414062 17.492188 C 16.4375 17.511719 16.457031 17.535156 16.472656 17.570312 C 16.484375 17.601562 16.492188 17.644531 16.492188 17.699219 L 16.492188 18.480469 C 16.5 18.445312 16.511719 18.410156 16.527344 18.375 C 16.539062 18.339844 16.558594 18.304688 16.582031 18.269531 L 16.691406 18.101562 C 16.71875 18.0625 16.746094 18.03125 16.777344 18.003906 C 16.808594 17.972656 16.851562 17.957031 16.90625 17.957031 C 16.9375 17.957031 16.964844 17.964844 16.996094 17.976562 C 17.027344 17.984375 17.054688 17.996094 17.074219 18.011719 C 17.101562 18.023438 17.125 18.039062 17.148438 18.058594 L 16.871094 18.523438 L 17.199219 19.125 C 17.109375 19.167969 17.027344 19.191406 16.953125 19.191406 C 16.890625 19.191406 16.839844 19.175781 16.804688 19.148438 C 16.765625 19.121094 16.734375 19.085938 16.707031 19.042969 L 16.578125 18.824219 C 16.554688 18.789062 16.539062 18.753906 16.523438 18.722656 C 16.511719 18.691406 16.5 18.652344 16.492188 18.613281 L 16.492188 19.164062 L 16.085938 19.164062 L 16.085938 17.460938 C 16.101562 17.457031 16.121094 17.453125 16.136719 17.453125 C 16.152344 17.449219 16.167969 17.445312 16.1875 17.445312 C 16.207031 17.441406 16.222656 17.441406 16.242188 17.441406 Z M 17.453125 17.441406 C 17.488281 17.441406 17.519531 17.445312 17.550781 17.453125 C 17.582031 17.460938 17.605469 17.472656 17.628906 17.492188 C 17.652344 17.511719 17.671875 17.535156 17.6875 17.570312 C 17.699219 17.601562 17.707031 17.644531 17.707031 17.699219 L 17.707031 19.152344 C 17.652344 19.175781 17.601562 19.183594 17.558594 19.183594 C 17.496094 19.183594 17.449219 19.175781 17.414062 19.160156 C 17.378906 19.140625 17.351562 19.117188 17.335938 19.089844 C 17.320312 19.058594 17.308594 19.027344 17.304688 18.988281 C 17.300781 18.949219 17.300781 18.910156 17.300781 18.867188 L 17.300781 17.460938 C 17.316406 17.457031 17.332031 17.453125 17.351562 17.453125 C 17.367188 17.449219 17.382812 17.445312 17.402344 17.445312 C 17.417969 17.441406 17.4375 17.441406 17.453125 17.441406 Z M 12.148438 17.957031 C 12.230469 17.957031 12.300781 17.972656 12.359375 18.003906 C 12.417969 18.03125 12.464844 18.070312 12.5 18.121094 C 12.539062 18.167969 12.5625 18.222656 12.578125 18.289062 C 12.59375 18.355469 12.605469 18.421875 12.605469 18.496094 C 12.605469 18.503906 12.605469 18.511719 12.605469 18.527344 C 12.605469 18.539062 12.605469 18.554688 12.601562 18.566406 C 12.601562 18.582031 12.601562 18.597656 12.601562 18.609375 C 12.601562 18.625 12.601562 18.632812 12.597656 18.640625 L 12.054688 18.640625 C 12.0625 18.699219 12.082031 18.753906 12.113281 18.796875 C 12.144531 18.839844 12.191406 18.859375 12.261719 18.859375 C 12.316406 18.859375 12.363281 18.851562 12.398438 18.832031 C 12.4375 18.8125 12.472656 18.785156 12.507812 18.753906 C 12.527344 18.785156 12.542969 18.824219 12.5625 18.867188 C 12.578125 18.90625 12.589844 18.945312 12.589844 18.976562 C 12.589844 19.003906 12.582031 19.03125 12.570312 19.054688 C 12.558594 19.078125 12.535156 19.101562 12.503906 19.125 C 12.476562 19.144531 12.433594 19.164062 12.382812 19.175781 C 12.332031 19.191406 12.269531 19.199219 12.195312 19.199219 C 12.140625 19.199219 12.078125 19.191406 12.015625 19.175781 C 11.949219 19.160156 11.890625 19.128906 11.839844 19.082031 C 11.785156 19.035156 11.738281 18.96875 11.703125 18.882812 C 11.667969 18.796875 11.648438 18.6875 11.648438 18.550781 C 11.648438 18.449219 11.664062 18.359375 11.691406 18.285156 C 11.722656 18.210938 11.757812 18.148438 11.804688 18.101562 C 11.851562 18.050781 11.90625 18.015625 11.96875 17.992188 C 12.027344 17.96875 12.089844 17.957031 12.148438 17.957031 Z M 14.566406 17.957031 C 14.722656 17.957031 14.839844 17.996094 14.90625 18.070312 C 14.976562 18.144531 15.007812 18.261719 15.007812 18.425781 L 15.007812 18.898438 C 15.007812 18.9375 15.011719 18.984375 15.015625 19.03125 C 15.023438 19.078125 15.03125 19.121094 15.039062 19.15625 C 15.019531 19.164062 15.003906 19.167969 14.988281 19.171875 C 14.972656 19.175781 14.960938 19.179688 14.945312 19.183594 C 14.933594 19.183594 14.917969 19.1875 14.902344 19.1875 C 14.886719 19.1875 14.867188 19.1875 14.847656 19.1875 C 14.738281 19.1875 14.675781 19.152344 14.65625 19.078125 C 14.632812 19.105469 14.601562 19.128906 14.558594 19.152344 C 14.511719 19.175781 14.457031 19.183594 14.386719 19.183594 C 14.347656 19.183594 14.304688 19.179688 14.265625 19.164062 C 14.226562 19.152344 14.195312 19.132812 14.164062 19.105469 C 14.132812 19.074219 14.109375 19.039062 14.09375 18.992188 C 14.074219 18.945312 14.066406 18.890625 14.066406 18.824219 C 14.066406 18.730469 14.085938 18.65625 14.128906 18.601562 C 14.167969 18.542969 14.21875 18.5 14.277344 18.472656 C 14.339844 18.441406 14.398438 18.421875 14.460938 18.414062 C 14.523438 18.40625 14.578125 18.402344 14.625 18.402344 L 14.625 18.367188 C 14.625 18.347656 14.621094 18.328125 14.613281 18.316406 C 14.605469 18.300781 14.597656 18.289062 14.585938 18.28125 C 14.574219 18.277344 14.558594 18.273438 14.542969 18.269531 C 14.527344 18.265625 14.511719 18.265625 14.496094 18.265625 C 14.449219 18.265625 14.402344 18.273438 14.355469 18.289062 C 14.308594 18.304688 14.257812 18.328125 14.199219 18.359375 C 14.175781 18.324219 14.15625 18.285156 14.144531 18.25 C 14.128906 18.214844 14.125 18.1875 14.125 18.167969 C 14.125 18.144531 14.128906 18.125 14.144531 18.101562 C 14.15625 18.082031 14.1875 18.058594 14.226562 18.03125 C 14.265625 18.011719 14.3125 17.992188 14.375 17.976562 C 14.4375 17.964844 14.5 17.957031 14.566406 17.957031 Z M 15.546875 17.957031 C 15.65625 17.957031 15.753906 17.980469 15.835938 18.019531 C 15.871094 18.039062 15.902344 18.058594 15.925781 18.082031 C 15.949219 18.109375 15.960938 18.140625 15.960938 18.171875 C 15.960938 18.203125 15.953125 18.238281 15.9375 18.277344 C 15.921875 18.316406 15.902344 18.355469 15.882812 18.394531 C 15.839844 18.355469 15.796875 18.324219 15.753906 18.300781 C 15.707031 18.277344 15.664062 18.269531 15.617188 18.269531 C 15.558594 18.269531 15.53125 18.289062 15.53125 18.328125 C 15.53125 18.355469 15.542969 18.375 15.5625 18.386719 C 15.585938 18.402344 15.613281 18.414062 15.644531 18.421875 C 15.675781 18.433594 15.710938 18.445312 15.75 18.457031 C 15.789062 18.46875 15.824219 18.488281 15.855469 18.511719 C 15.886719 18.535156 15.914062 18.566406 15.9375 18.609375 C 15.957031 18.652344 15.96875 18.707031 15.96875 18.773438 C 15.96875 18.90625 15.929688 19.007812 15.855469 19.085938 C 15.777344 19.160156 15.664062 19.199219 15.519531 19.199219 C 15.433594 19.199219 15.371094 19.191406 15.324219 19.175781 C 15.277344 19.164062 15.238281 19.144531 15.214844 19.128906 C 15.175781 19.109375 15.152344 19.085938 15.140625 19.058594 C 15.128906 19.035156 15.121094 19.007812 15.121094 18.980469 C 15.121094 18.9375 15.128906 18.898438 15.144531 18.859375 C 15.160156 18.816406 15.179688 18.777344 15.203125 18.738281 C 15.21875 18.757812 15.238281 18.773438 15.257812 18.789062 C 15.277344 18.804688 15.304688 18.816406 15.328125 18.832031 C 15.351562 18.84375 15.375 18.851562 15.402344 18.859375 C 15.425781 18.867188 15.453125 18.871094 15.476562 18.871094 C 15.511719 18.871094 15.539062 18.867188 15.550781 18.851562 C 15.566406 18.839844 15.574219 18.820312 15.574219 18.800781 C 15.574219 18.773438 15.5625 18.757812 15.542969 18.742188 C 15.519531 18.726562 15.492188 18.714844 15.457031 18.703125 C 15.425781 18.691406 15.390625 18.675781 15.351562 18.664062 C 15.3125 18.648438 15.277344 18.628906 15.242188 18.605469 C 15.210938 18.578125 15.183594 18.546875 15.160156 18.503906 C 15.140625 18.464844 15.128906 18.410156 15.128906 18.34375 C 15.128906 18.277344 15.136719 18.222656 15.160156 18.171875 C 15.183594 18.125 15.214844 18.082031 15.253906 18.050781 C 15.292969 18.019531 15.335938 18 15.386719 17.984375 C 15.4375 17.96875 15.492188 17.957031 15.546875 17.957031 Z M 12.882812 17.984375 C 12.914062 17.984375 12.945312 17.988281 12.976562 17.996094 C 13.007812 18.003906 13.03125 18.015625 13.054688 18.035156 C 13.078125 18.050781 13.097656 18.078125 13.113281 18.109375 C 13.125 18.144531 13.132812 18.1875 13.132812 18.238281 L 13.132812 19.097656 C 13.132812 19.132812 13.132812 19.179688 13.128906 19.230469 C 13.125 19.28125 13.121094 19.332031 13.113281 19.371094 C 13.097656 19.4375 13.074219 19.492188 13.042969 19.535156 C 13.011719 19.578125 12.976562 19.613281 12.9375 19.640625 C 12.898438 19.667969 12.859375 19.6875 12.820312 19.699219 C 12.78125 19.710938 12.746094 19.714844 12.71875 19.714844 C 12.660156 19.714844 12.617188 19.703125 12.589844 19.675781 C 12.5625 19.648438 12.546875 19.609375 12.535156 19.554688 C 12.53125 19.535156 12.53125 19.511719 12.527344 19.488281 C 12.527344 19.464844 12.523438 19.433594 12.519531 19.394531 C 12.5625 19.390625 12.597656 19.378906 12.625 19.363281 C 12.652344 19.351562 12.675781 19.332031 12.6875 19.308594 C 12.703125 19.285156 12.714844 19.261719 12.71875 19.230469 C 12.722656 19.199219 12.726562 19.167969 12.726562 19.132812 L 12.726562 18 C 12.742188 18 12.761719 17.996094 12.777344 17.992188 C 12.792969 17.988281 12.808594 17.988281 12.828125 17.984375 C 12.847656 17.984375 12.863281 17.984375 12.882812 17.984375 Z M 12.144531 18.261719 C 12.082031 18.261719 12.050781 18.320312 12.050781 18.4375 L 12.242188 18.4375 C 12.242188 18.371094 12.238281 18.328125 12.222656 18.300781 C 12.207031 18.277344 12.179688 18.261719 12.144531 18.261719 Z M 14.628906 18.621094 C 14.601562 18.621094 14.578125 18.628906 14.558594 18.632812 C 14.535156 18.640625 14.511719 18.648438 14.496094 18.660156 C 14.480469 18.671875 14.464844 18.691406 14.457031 18.710938 C 14.445312 18.730469 14.441406 18.753906 14.441406 18.785156 C 14.441406 18.824219 14.449219 18.851562 14.464844 18.871094 C 14.484375 18.890625 14.503906 18.902344 14.535156 18.902344 C 14.558594 18.902344 14.582031 18.894531 14.601562 18.882812 C 14.621094 18.867188 14.628906 18.847656 14.628906 18.824219 Z M 14.628906 18.621094 "/>
</g>
<mask id="mask-1">
<g filter="url(#filter-remove-color)">
<rect x="-2.8" y="-2.8" width="33.6" height="33.6" fill="rgb(0%, 0%, 0%)" fill-opacity="0.75"/>
</g>
</mask>
<clipPath id="clip-1">
<rect x="0" y="0" width="28" height="28"/>
</clipPath>
<g id="source-11" clip-path="url(#clip-1)">
<path fill-rule="nonzero" fill="rgb(100%, 100%, 100%)" fill-opacity="1" stroke-width="12.944656" stroke-linecap="round" stroke-linejoin="round" stroke="rgb(100%, 100%, 100%)" stroke-opacity="1" stroke-miterlimit="4" d="M 129.868862 448.674665 L 457.089844 448.674665 L 475.376674 473.920201 L 111.824777 473.920201 Z M 129.868862 448.674665 " transform="matrix(0.0482759, 0, 0, 0.0482759, 0, 0)"/>
</g>
<mask id="mask-2">
<g filter="url(#filter-remove-color)">
<rect x="-2.8" y="-2.8" width="33.6" height="33.6" fill="rgb(0%, 0%, 0%)" fill-opacity="0.75"/>
</g>
</mask>
<clipPath id="clip-2">
<rect x="0" y="0" width="28" height="28"/>
</clipPath>
<g id="source-15" clip-path="url(#clip-2)">
<path fill-rule="nonzero" fill="rgb(100%, 100%, 100%)" fill-opacity="1" stroke-width="12.944656" stroke-linecap="round" stroke-linejoin="round" stroke="rgb(100%, 100%, 100%)" stroke-opacity="1" stroke-miterlimit="4" d="M 107.617188 542.212612 L 479.341518 542.212612 L 479.341518 498.680246 L 107.859933 498.680246 Z M 107.617188 542.212612 " transform="matrix(0.0482759, 0, 0, 0.0482759, 0, 0)"/>
</g>
</defs>
<path fill-rule="nonzero" fill="rgb(6.666667%, 6.666667%, 6.666667%)" fill-opacity="1" stroke-width="3.408" stroke-linecap="butt" stroke-linejoin="miter" stroke="rgb(93.333333%, 93.333333%, 93.333333%)" stroke-opacity="1" stroke-miterlimit="4" d="M 66.269531 1.780134 C 24.921875 1.780134 1.699219 23.141741 1.699219 66.835938 L 1.699219 516.967076 C 1.699219 557.748326 22.575335 579.190848 63.922991 579.190848 L 515.915179 579.190848 C 557.262835 579.190848 578.138951 558.881138 578.138951 516.967076 L 578.138951 66.835938 C 578.138951 24.193638 557.262835 1.780134 514.620536 1.780134 C 514.620536 1.780134 66.107701 1.618304 66.269531 1.780134 Z M 66.269531 1.780134 " transform="matrix(0.0482759, 0, 0, 0.0482759, 0, 0)"/>
<g mask="url(#mask-0)">
<use xlink:href="#source-7"/>
</g>
<g mask="url(#mask-1)">
<use xlink:href="#source-11"/>
</g>
<g mask="url(#mask-2)">
<use xlink:href="#source-15"/>
</g>
</svg>
