<?xml version="1.0" encoding="UTF-8"?>
<svg xmlns="http://www.w3.org/2000/svg" xmlns:xlink="http://www.w3.org/1999/xlink" width="28" height="28" viewBox="0 0 28 28">
<path fill-rule="nonzero" fill="rgb(6.666667%, 6.666667%, 6.666667%)" fill-opacity="1" stroke-width="3.408" stroke-linecap="butt" stroke-linejoin="miter" stroke="rgb(93.333333%, 93.333333%, 93.333333%)" stroke-opacity="1" stroke-miterlimit="4" d="M 66.269531 1.780134 C 24.921875 1.780134 1.699219 23.141741 1.699219 66.835938 L 1.699219 516.967076 C 1.699219 557.748326 22.575335 579.190848 63.922991 579.190848 L 515.915179 579.190848 C 557.262835 579.190848 578.138951 558.881138 578.138951 516.967076 L 578.138951 66.835938 C 578.138951 24.193638 557.262835 1.780134 514.620536 1.780134 C 514.620536 1.780134 66.107701 1.618304 66.269531 1.780134 Z M 66.269531 1.780134 " transform="matrix(0.0482759, 0, 0, 0.0482759, 0, 0)"/>
<path fill-rule="evenodd" fill="rgb(100%, 100%, 100%)" fill-opacity="1" stroke-width="18.022644" stroke-linecap="butt" stroke-linejoin="miter" stroke="rgb(100%, 100%, 100%)" stroke-opacity="1" stroke-miterlimit="4" d="M 35.845424 509.603795 L 540.756138 509.603795 M 53.565848 473.515625 L 522.792969 473.515625 M 71.609933 437.589286 L 504.748884 437.508371 " transform="matrix(0.0482759, 0, 0, 0.0482759, 0, 0)"/>
<path fill-rule="evenodd" fill="rgb(100%, 100%, 100%)" fill-opacity="1" stroke-width="36.045288" stroke-linecap="butt" stroke-linejoin="miter" stroke="rgb(100%, 100%, 100%)" stroke-opacity="1" stroke-miterlimit="4" d="M 71.771763 212.240513 L 504.829799 212.240513 M 108.426339 217.5 L 108.426339 440.340402 M 180.521763 217.5 L 180.521763 440.340402 M 252.617188 217.5 L 252.617188 440.340402 M 324.712612 217.5 L 324.712612 440.340402 M 396.808036 217.5 L 396.808036 440.340402 M 468.90346 217.5 L 468.90346 440.340402 " transform="matrix(0.0482759, 0, 0, 0.0482759, 0, 0)"/>
<path fill-rule="evenodd" fill="rgb(100%, 100%, 100%)" fill-opacity="1" d="M 3.476562 8.539062 L 3.476562 6.945312 L 13.816406 2.5625 L 24.261719 6.851562 L 24.261719 8.441406 L 13.71875 4.371094 Z M 6.300781 8.464844 L 13.894531 5.429688 L 21.28125 8.546875 L 18.289062 8.53125 L 13.871094 6.96875 L 9.464844 8.433594 Z M 6.300781 8.464844 "/>
</svg>
