<?xml version="1.0" encoding="UTF-8"?>
<svg xmlns="http://www.w3.org/2000/svg" xmlns:xlink="http://www.w3.org/1999/xlink" width="28" height="28" viewBox="0 0 28 28">
<defs>
<filter id="filter-remove-color" x="0%" y="0%" width="100%" height="100%">
<feColorMatrix color-interpolation-filters="sRGB" values="0 0 0 0 1 0 0 0 0 1 0 0 0 0 1 0 0 0 1 0" />
</filter>
<mask id="mask-0">
<g filter="url(#filter-remove-color)">
<rect x="-2.8" y="-2.8" width="33.6" height="33.6" fill="rgb(0%, 0%, 0%)" fill-opacity="0.5"/>
</g>
</mask>
<clipPath id="clip-0">
<rect x="0" y="0" width="28" height="28"/>
</clipPath>
<g id="source-16" clip-path="url(#clip-0)">
<path fill-rule="nonzero" fill="rgb(100%, 100%, 100%)" fill-opacity="1" stroke-width="6.703943" stroke-linecap="round" stroke-linejoin="round" stroke="rgb(100%, 100%, 100%)" stroke-opacity="1" stroke-miterlimit="4" d="M 244.201152 160.058317 L 235.27293 182.416387 L 279.914042 182.416387 L 234.147524 228.257933 C 216.441133 215.053167 193.707928 208.825919 171.80002 211.226786 C 149.892113 213.552625 129.034585 224.506579 114.554358 241.162591 C 100.149159 257.818602 92.346343 280.101645 93.096614 302.084579 C 93.921911 324.142541 103.375324 345.75034 118.905929 361.355972 C 134.511562 376.886578 156.119361 386.33999 178.177322 387.165288 C 200.160256 387.915559 222.443299 380.112742 239.099311 365.707543 C 255.755323 351.227317 266.709276 330.369788 269.035116 308.461881 C 271.435982 286.553974 265.208735 263.820769 252.003969 246.114378 L 297.845514 200.347859 L 297.845514 244.988972 L 320.203584 236.060749 L 320.203584 160.058317 Z M 181.628568 234.935343 C 198.284579 234.935343 214.865564 241.837834 226.644816 253.617086 C 238.424067 265.396337 245.326558 281.977322 245.326558 298.633334 C 245.326558 315.289345 238.424067 331.87033 226.644816 343.649582 C 214.865564 355.428833 198.284579 362.331324 181.628568 362.331324 C 164.972556 362.331324 148.391571 355.50386 136.61232 343.649582 C 124.758041 331.87033 117.930577 315.289345 117.930577 298.633334 C 117.930577 281.977322 124.758041 265.396337 136.61232 253.617086 C 148.391571 241.837834 164.972556 234.935343 181.628568 234.935343 Z M 181.628568 234.935343 " transform="matrix(0.0520645, 0, 0, 0.0520645, -0.233751, 1.631482)"/>
</g>
</defs>
<path fill-rule="nonzero" fill="rgb(6.666667%, 6.666667%, 6.666667%)" fill-opacity="1" stroke-width="3.408" stroke-linecap="butt" stroke-linejoin="miter" stroke="rgb(93.333333%, 93.333333%, 93.333333%)" stroke-opacity="1" stroke-miterlimit="4" d="M 66.269531 1.780134 C 24.921875 1.780134 1.699219 23.141741 1.699219 66.835938 L 1.699219 516.967076 C 1.699219 557.748326 22.575335 579.190848 63.922991 579.190848 L 515.915179 579.190848 C 557.262835 579.190848 578.138951 558.881138 578.138951 516.967076 L 578.138951 66.835938 C 578.138951 24.193638 557.262835 1.780134 514.620536 1.780134 C 514.620536 1.780134 66.107701 1.618304 66.269531 1.780134 Z M 66.269531 1.780134 " transform="matrix(0.0482759, 0, 0, 0.0482759, 0, 0)"/>
<path fill="none" stroke-width="74.199997" stroke-linecap="round" stroke-linejoin="round" stroke="rgb(100%, 100%, 100%)" stroke-opacity="1" stroke-miterlimit="4" d="M 259.022788 245.810056 L 238.015151 318.014626 " transform="matrix(0.0531801, 0, 0, 0.0531801, 7.826714, -1.974538)"/>
<path fill="none" stroke-width="32.599998" stroke-linecap="round" stroke-linejoin="round" stroke="rgb(100%, 100%, 100%)" stroke-opacity="1" stroke-miterlimit="4" d="M 304.34346 123.510351 L 331.668079 182.126065 L 289.505898 228.254723 " transform="matrix(0.0531801, 0, 0, 0.0531801, 7.826714, -1.974538)"/>
<path fill="none" stroke-width="41.299999" stroke-linecap="round" stroke-linejoin="round" stroke="rgb(100%, 100%, 100%)" stroke-opacity="1" stroke-miterlimit="4" d="M 283.04201 486.075723 L 290.020071 403.808053 " transform="matrix(0.0531801, 0, 0, 0.0531801, 7.826714, -1.974538)"/>
<path fill="none" stroke-width="45.099998" stroke-linecap="round" stroke-linejoin="round" stroke="rgb(100%, 100%, 100%)" stroke-opacity="1" stroke-miterlimit="4" d="M 253.293433 329.914057 L 289.432445 400.208843 " transform="matrix(0.0531801, 0, 0, 0.0531801, 7.826714, -1.974538)"/>
<path fill="none" stroke-width="45.099998" stroke-linecap="round" stroke-linejoin="round" stroke="rgb(100%, 100%, 100%)" stroke-opacity="1" stroke-miterlimit="4" d="M 220.900538 321.90765 L 193.649372 397.931791 " transform="matrix(0.0531801, 0, 0, 0.0531801, 7.826714, -1.974538)"/>
<path fill="none" stroke-width="45.306122" stroke-linecap="round" stroke-linejoin="round" stroke="rgb(100%, 100%, 100%)" stroke-opacity="1" stroke-miterlimit="4" d="M 192.0334 489.38112 L 193.061746 402.265534 " transform="matrix(0.0531801, 0, 0, 0.0531801, 7.826714, -1.974538)"/>
<path fill-rule="nonzero" fill="rgb(100%, 100%, 100%)" fill-opacity="1" stroke-width="45.099998" stroke-linecap="round" stroke-linejoin="round" stroke="rgb(100%, 100%, 100%)" stroke-opacity="1" stroke-miterlimit="4" d="M 260.712214 162.146774 C 251.310194 162.587494 247.564077 176.17635 255.350125 181.391532 C 262.475092 187.267794 274.227617 180.142827 272.317831 171.108074 C 271.436392 165.672531 266.221209 161.559148 260.712214 162.146774 Z M 260.712214 162.146774 " transform="matrix(0.0531801, 0, 0, 0.0531801, 7.826714, -1.974538)"/>
<path fill="none" stroke-width="32.599998" stroke-linecap="round" stroke-linejoin="round" stroke="rgb(100%, 100%, 100%)" stroke-opacity="1" stroke-miterlimit="4" d="M 213.041037 123.436897 L 188.728003 180.289733 L 248.004797 229.283069 " transform="matrix(0.0531801, 0, 0, 0.0531801, 7.826714, -1.974538)"/>
<path fill-rule="nonzero" fill="rgb(100%, 100%, 100%)" fill-opacity="1" stroke-width="6.703943" stroke-linecap="round" stroke-linejoin="round" stroke="rgb(100%, 100%, 100%)" stroke-opacity="1" stroke-miterlimit="4" d="M 188.981222 81.054802 L 180.052999 103.412872 L 224.694112 103.412872 L 178.927593 149.254418 C 161.221202 136.049652 138.487997 129.822404 116.58009 132.148244 C 94.672182 134.54911 73.739627 145.503064 59.334428 162.159076 C 44.929228 178.815087 37.126412 201.023103 37.876683 223.081064 C 38.701981 245.139026 48.080366 266.671798 63.685998 282.27743 C 79.291631 297.883063 100.89943 307.336475 122.957391 308.086746 C 144.940326 308.912044 167.148341 301.109227 183.87938 286.629001 C 200.535392 272.223802 211.489345 251.366273 213.815185 229.458366 C 216.216052 207.475432 209.988804 184.742227 196.784038 167.110863 L 242.625584 121.269317 L 242.625584 165.985457 L 264.908626 157.057234 L 264.908626 81.054802 Z M 126.408637 155.931828 C 143.064649 155.931828 159.645633 162.834319 171.424885 174.613571 C 183.204136 186.392822 190.031601 202.973807 190.031601 219.629819 C 190.031601 236.28583 183.204136 252.866815 171.424885 264.646067 C 159.645633 276.425318 143.064649 283.327809 126.408637 283.327809 C 109.677598 283.327809 93.171641 276.425318 81.317362 264.646067 C 69.538111 252.866815 62.710646 236.28583 62.710646 219.629819 C 62.710646 202.973807 69.538111 186.392822 81.317362 174.613571 C 93.171641 162.759292 109.677598 155.931828 126.408637 155.931828 Z M 126.408637 155.931828 " transform="matrix(0.0520645, 0, 0, 0.0520645, -0.233751, 1.631482)"/>
<g mask="url(#mask-0)">
<use xlink:href="#source-16"/>
</g>
</svg>
