<?xml version="1.0" encoding="UTF-8"?>
<svg xmlns="http://www.w3.org/2000/svg" xmlns:xlink="http://www.w3.org/1999/xlink" width="28" height="28" viewBox="0 0 28 28">
<path fill-rule="nonzero" fill="rgb(6.666667%, 6.666667%, 6.666667%)" fill-opacity="1" stroke-width="3.408" stroke-linecap="butt" stroke-linejoin="miter" stroke="rgb(93.333333%, 93.333333%, 93.333333%)" stroke-opacity="1" stroke-miterlimit="4" d="M 66.269531 1.780134 C 24.921875 1.780134 1.699219 23.141741 1.699219 66.835938 L 1.699219 516.967076 C 1.699219 557.748326 22.575335 579.190848 63.922991 579.190848 L 515.915179 579.190848 C 557.262835 579.190848 578.138951 558.881138 578.138951 516.967076 L 578.138951 66.835938 C 578.138951 24.193638 557.262835 1.780134 514.620536 1.780134 C 514.620536 1.780134 66.107701 1.618304 66.269531 1.780134 Z M 66.269531 1.780134 " transform="matrix(0.0482759, 0, 0, 0.0482759, 0, 0)"/>
<path fill-rule="nonzero" fill="rgb(100%, 100%, 100%)" fill-opacity="1" d="M 10.21875 13.734375 L 12.515625 8.089844 L 14.871094 8.089844 L 17.167969 13.734375 Z M 17.707031 8.089844 L 21.535156 8.089844 L 21.535156 5.992188 L 6.363281 5.992188 L 6.363281 8.089844 L 10.164062 8.089844 L 7.867188 13.734375 L 2.25 13.734375 L 2.25 15.832031 L 7.015625 15.832031 L 4.378906 22.410156 L 6.957031 22.410156 L 9.625 15.832031 L 18.246094 15.832031 L 20.910156 22.410156 L 23.519531 22.410156 L 20.855469 15.832031 L 25.648438 15.832031 L 25.648438 13.734375 L 20.003906 13.734375 Z M 17.707031 8.089844 "/>
</svg>
