<?xml version="1.0" encoding="UTF-8"?>
<svg xmlns="http://www.w3.org/2000/svg" xmlns:xlink="http://www.w3.org/1999/xlink" width="28" height="28" viewBox="0 0 28 28">
<path fill-rule="nonzero" fill="rgb(6.666667%, 6.666667%, 6.666667%)" fill-opacity="1" stroke-width="3.408" stroke-linecap="butt" stroke-linejoin="miter" stroke="rgb(93.333333%, 93.333333%, 93.333333%)" stroke-opacity="1" stroke-miterlimit="4" d="M 66.269531 1.780134 C 24.921875 1.780134 1.699219 23.141741 1.699219 66.835938 L 1.699219 516.967076 C 1.699219 557.748326 22.575335 579.190848 63.922991 579.190848 L 515.915179 579.190848 C 557.262835 579.190848 578.138951 558.881138 578.138951 516.967076 L 578.138951 66.835938 C 578.138951 24.193638 557.262835 1.780134 514.620536 1.780134 C 514.620536 1.780134 66.107701 1.618304 66.269531 1.780134 Z M 66.269531 1.780134 " transform="matrix(0.0482759, 0, 0, 0.0482759, 0, 0)"/>
<path fill-rule="nonzero" fill="rgb(100%, 100%, 100%)" fill-opacity="1" d="M 7.988281 21.003906 C 7.988281 22.339844 6.945312 23.425781 5.660156 23.425781 C 4.375 23.425781 3.332031 22.339844 3.332031 21.003906 C 3.332031 19.664062 4.375 18.582031 5.660156 18.582031 C 6.945312 18.582031 7.988281 19.664062 7.988281 21.003906 "/>
<path fill-rule="nonzero" fill="rgb(100%, 100%, 100%)" fill-opacity="1" d="M 14.757812 20.949219 C 14.757812 22.285156 13.714844 23.371094 12.429688 23.371094 C 11.144531 23.371094 10.105469 22.285156 10.105469 20.949219 C 10.105469 19.609375 11.144531 18.527344 12.429688 18.527344 C 13.714844 18.527344 14.757812 19.609375 14.757812 20.949219 "/>
<path fill-rule="nonzero" fill="rgb(100%, 100%, 100%)" fill-opacity="1" d="M 21.253906 20.894531 C 21.253906 22.230469 20.210938 23.316406 18.925781 23.316406 C 17.640625 23.316406 16.597656 22.230469 16.597656 20.894531 C 16.597656 19.554688 17.640625 18.472656 18.925781 18.472656 C 20.210938 18.472656 21.253906 19.554688 21.253906 20.894531 "/>
<path fill-rule="nonzero" fill="rgb(100%, 100%, 100%)" fill-opacity="1" d="M 25.960938 21.9375 C 25.960938 22.882812 25.226562 23.644531 24.320312 23.644531 C 23.414062 23.644531 22.679688 22.882812 22.679688 21.9375 C 22.679688 20.996094 23.414062 20.230469 24.320312 20.230469 C 25.226562 20.230469 25.960938 20.996094 25.960938 21.9375 "/>
<path fill-rule="evenodd" fill="rgb(100%, 100%, 100%)" fill-opacity="1" stroke-width="10" stroke-linecap="round" stroke-linejoin="round" stroke="rgb(100%, 100%, 100%)" stroke-opacity="1" stroke-miterlimit="4" d="M 53.404018 351.819196 C 53.404018 365.493862 53.404018 379.168527 53.404018 392.843192 C 190.636161 392.843192 327.787388 392.843192 465.019531 392.843192 C 465.019531 404.656808 465.019531 416.470424 465.019531 428.203125 C 492.045201 428.203125 518.989955 428.203125 546.015625 428.203125 C 546.015625 368.892299 546.015625 309.662388 546.015625 250.351562 C 533.473772 250.351562 520.93192 250.351562 508.390067 250.351562 C 508.390067 287.572545 508.390067 324.793527 508.390067 362.095424 C 488.970424 362.095424 469.550781 362.095424 450.212054 362.095424 C 450.212054 301.24721 450.212054 240.479911 450.212054 179.631696 C 468.417969 179.631696 486.704799 179.631696 504.910714 179.631696 C 504.910714 168.627232 504.910714 157.622768 504.910714 146.537388 C 471.492746 146.537388 438.074777 146.537388 404.575893 146.537388 C 404.575893 178.90346 404.575893 211.188616 404.575893 243.473772 C 376.821987 243.473772 349.06808 243.473772 321.395089 243.473772 C 319.048549 222.678571 307.882254 199.455915 284.983259 196.138393 C 261.356027 190.15067 232.388393 202.935268 227.047991 228.261719 C 227.452567 244.282924 217.580915 246.467634 204.715402 244.606585 C 189.260603 244.606585 173.805804 244.606585 158.270089 244.606585 C 158.270089 213.858817 158.270089 183.030134 158.270089 152.282366 C 141.196987 152.282366 124.123884 152.282366 106.969866 152.282366 C 106.969866 182.301897 106.969866 212.321429 106.969866 242.34096 C 97.907366 242.34096 88.763951 242.34096 79.620536 242.34096 C 62.304688 255.611049 55.184152 273.169643 54.53683 297.929688 C 56.236049 318.805804 66.350446 342.271205 79.620536 351.819196 C 70.881696 351.819196 62.142857 351.819196 53.404018 351.819196 Z M 53.404018 351.819196 " transform="matrix(0.0482759, 0, 0, 0.0482759, 0, 0)"/>
</svg>
