<?xml version="1.0" encoding="UTF-8"?>
<svg xmlns="http://www.w3.org/2000/svg" xmlns:xlink="http://www.w3.org/1999/xlink" width="28" height="28" viewBox="0 0 28 28">
<path fill-rule="nonzero" fill="rgb(6.666667%, 6.666667%, 6.666667%)" fill-opacity="1" stroke-width="3.408" stroke-linecap="butt" stroke-linejoin="miter" stroke="rgb(93.333333%, 93.333333%, 93.333333%)" stroke-opacity="1" stroke-miterlimit="4" d="M 66.269531 1.780134 C 24.921875 1.780134 1.699219 23.141741 1.699219 66.835938 L 1.699219 516.967076 C 1.699219 557.748326 22.575335 579.190848 63.922991 579.190848 L 515.915179 579.190848 C 557.262835 579.190848 578.138951 558.881138 578.138951 516.967076 L 578.138951 66.835938 C 578.138951 24.193638 557.262835 1.780134 514.620536 1.780134 C 514.620536 1.780134 66.107701 1.618304 66.269531 1.780134 Z M 66.269531 1.780134 " transform="matrix(0.0482759, 0, 0, 0.0482759, 0, 0)"/>
<path fill="none" stroke-width="20" stroke-linecap="butt" stroke-linejoin="miter" stroke="rgb(100%, 100%, 100%)" stroke-opacity="1" stroke-miterlimit="4" d="M 265.078125 131.001674 C 255.449219 131.001674 244.6875 138.688616 237.80971 145.16183 C 208.518415 167.65625 187.075893 183.839286 138.12221 197.02846 C 119.511719 202.611607 81.5625 195.814732 44.422433 193.144531 C 20.714286 189.422433 41.023996 231.821987 44.179688 249.05692 C 65.298549 315.164621 89.573103 382.000558 132.458147 437.427455 C 156.894531 464.614955 190.717076 488.323103 228.666295 487.918527 C 259.980469 485.329241 285.873326 460.164621 293.155692 430.145089 C 293.803013 428.12221 294.36942 426.09933 294.935826 423.995536 C 295.744978 420.920759 296.554129 417.765067 297.363281 414.609375 C 292.751116 407.407924 289.190848 399.397321 287.167969 391.063058 C 286.520647 389.040179 286.035156 387.017299 285.46875 384.99442 C 268.395647 321.233259 269.447545 254.235491 276.891741 189.179688 C 278.995536 178.741629 281.665737 168.384487 284.497768 158.189174 C 282.474888 151.635045 280.532924 145.080915 278.671875 138.526786 C 274.949777 133.024554 270.175781 130.920759 265.078125 131.001674 Z M 265.078125 131.001674 " transform="matrix(0.0482759, 0, 0, 0.0482759, 0, 0)"/>
<path fill-rule="evenodd" fill="rgb(100%, 100%, 100%)" fill-opacity="1" stroke-width="20" stroke-linecap="butt" stroke-linejoin="miter" stroke="rgb(100%, 100%, 100%)" stroke-opacity="1" stroke-miterlimit="4" d="M 313.869978 100.011161 C 306.102121 101.953125 307.154018 112.067522 304.645647 117.97433 C 293.155692 154.628906 281.665737 191.849888 281.180246 230.527344 C 277.700893 288.624442 279.966518 348.663504 300.195312 403.604911 C 312.089844 428.364955 340.733817 446.328125 368.487723 439.288504 C 407.65067 431.196987 438.803013 401.743862 459.193638 368.406808 C 497.223772 308.934152 518.74721 241.046317 538.247768 173.643973 C 538.652344 170.00279 540.108817 164.500558 537.924107 161.911272 C 519.151786 163.205915 500.217634 165.714286 481.283482 167.413504 C 460.731027 169.355469 439.69308 167.413504 420.435268 159.888393 C 386.046317 148.479353 355.703125 128.007812 328.191964 104.866071 C 323.90346 102.03404 318.967634 99.84933 313.869978 100.011161 Z M 375.365513 191.283482 C 391.629464 190.797991 399.073661 214.101562 387.988281 224.782366 C 373.018973 240.884487 349.553571 251.646205 327.463728 245.982143 C 313.950893 241.127232 306.263951 221.545759 316.621094 210.055804 C 332.885045 195.976562 356.188616 198.323103 375.365513 191.283482 Z M 441.311384 205.848214 C 458.465402 205.281808 470.926339 221.464844 473.111049 237.162388 C 477.561384 247.924107 485.491071 260.061384 479.907924 271.955915 C 475.78125 280.9375 464.129464 282.555804 455.714286 279.319196 C 435.647321 274.626116 422.215402 254.720982 421.810826 234.492188 C 420.030692 222.921317 425.452009 208.032924 438.317522 206.09096 C 439.288504 205.929129 440.340402 205.848214 441.311384 205.848214 Z M 374.880022 311.361607 C 395.998884 311.685268 415.337612 324.631696 427.717634 341.057478 C 435.566406 354.489397 431.844308 376.174665 415.904018 381.676897 C 404.899554 384.104353 397.698103 373.585379 388.959263 369.054129 C 374.960938 360.15346 357.159598 360.072545 341.866629 365.412946 C 334.341518 367.759487 324.227121 365.979353 321.314174 357.726004 C 316.459263 346.236049 323.417969 332.96596 333.451451 326.816406 C 345.345982 317.672991 359.748884 311.442522 374.880022 311.361607 Z M 374.880022 311.361607 " transform="matrix(0.0482759, 0, 0, 0.0482759, 0, 0)"/>
<path fill="none" stroke-width="20" stroke-linecap="butt" stroke-linejoin="miter" stroke="rgb(100%, 100%, 100%)" stroke-opacity="1" stroke-miterlimit="4" d="M 285.46875 384.99442 C 268.395647 321.233259 269.52846 254.235491 276.891741 189.179688 C 283.203125 158.75558 293.155692 129.302455 301.732701 99.52567 C 312.65625 83.423549 332.156808 96.289062 342.594866 106.160714 C 371.886161 128.655134 393.328683 144.757254 442.282366 157.946429 C 460.892857 163.610491 498.761161 156.732701 535.982143 154.0625 C 559.69029 150.421317 539.38058 192.739955 536.224888 209.974888 C 515.106027 276.082589 490.750558 342.918527 447.946429 398.345424 C 423.429129 425.532924 389.6875 449.321987 351.738281 448.836496 C 320.424107 446.24721 294.53125 421.082589 287.167969 391.063058 C 286.601562 389.040179 285.954241 387.017299 285.46875 384.99442 Z M 285.46875 384.99442 " transform="matrix(0.0482759, 0, 0, 0.0482759, 0, 0)"/>
<path fill-rule="nonzero" fill="rgb(100%, 100%, 100%)" fill-opacity="1" d="M 8.984375 20.242188 C 8.234375 20.136719 7.515625 19.691406 7.152344 19.011719 C 7.554688 18.566406 8.125 19.019531 8.59375 19.0625 C 9.683594 19.199219 10.703125 18.480469 11.234375 17.570312 C 11.578125 17.238281 11.625 16.339844 12.222656 16.472656 C 12.65625 16.710938 12.574219 17.261719 12.46875 17.660156 C 12.402344 18.195312 12.140625 18.671875 11.800781 19.078125 C 11.53125 19.441406 11.261719 19.855469 10.796875 19.972656 C 10.199219 20.085938 9.605469 20.367188 8.984375 20.242188 Z M 6.320312 14.40625 C 5.742188 14.066406 5.050781 13.859375 4.644531 13.296875 C 4.550781 12.652344 5.359375 12.234375 5.898438 12.484375 C 6.53125 12.683594 7.132812 13.046875 7.53125 13.585938 C 7.800781 14.070312 7.335938 14.832031 6.761719 14.582031 C 6.609375 14.535156 6.46875 14.464844 6.320312 14.40625 Z M 9.988281 13.21875 C 9.585938 12.691406 9.582031 11.773438 10.207031 11.410156 C 10.617188 11.136719 11.207031 10.953125 11.644531 11.273438 C 11.871094 11.742188 11.46875 12.175781 11.285156 12.585938 C 11.175781 12.996094 10.90625 13.460938 10.433594 13.503906 C 10.246094 13.507812 10.078125 13.378906 9.988281 13.21875 Z M 9.988281 13.21875 "/>
</svg>
