<?xml version="1.0" encoding="UTF-8"?>
<svg xmlns="http://www.w3.org/2000/svg" xmlns:xlink="http://www.w3.org/1999/xlink" width="28" height="28" viewBox="0 0 28 28">
<defs>
<filter id="filter-remove-color" x="0%" y="0%" width="100%" height="100%">
<feColorMatrix color-interpolation-filters="sRGB" values="0 0 0 0 1 0 0 0 0 1 0 0 0 0 1 0 0 0 1 0" />
</filter>
<mask id="mask-0">
<g filter="url(#filter-remove-color)">
<rect x="-2.8" y="-2.8" width="33.6" height="33.6" fill="rgb(0%, 0%, 0%)" fill-opacity="0.5"/>
</g>
</mask>
<clipPath id="clip-0">
<rect x="0" y="0" width="28" height="28"/>
</clipPath>
<g id="source-8" clip-path="url(#clip-0)">
<path fill-rule="nonzero" fill="rgb(100%, 100%, 100%)" fill-opacity="1" d="M 3.707031 4.960938 L 3.707031 8.675781 L 2.660156 8.675781 L 2.660156 9.640625 L 3.707031 9.640625 L 3.707031 11.960938 L 2.660156 11.960938 L 2.660156 12.925781 L 3.707031 12.925781 L 3.707031 15.242188 L 2.660156 15.242188 L 2.660156 16.207031 L 3.707031 16.207031 L 3.707031 18.523438 L 2.660156 18.523438 L 2.660156 19.492188 L 3.707031 19.492188 L 3.707031 21.808594 L 2.660156 21.808594 L 2.660156 22.773438 L 3.707031 22.773438 L 3.707031 23.875 L 4.671875 23.875 L 4.671875 22.773438 L 6.988281 22.773438 L 6.988281 23.875 L 7.957031 23.875 L 7.957031 22.773438 L 10.175781 22.773438 L 10.175781 23.875 L 11.140625 23.875 L 11.140625 22.773438 L 13.460938 22.773438 L 13.460938 23.875 L 14.425781 23.875 L 14.425781 22.773438 L 16.742188 22.773438 L 16.742188 23.875 L 17.707031 23.875 L 17.707031 22.773438 L 20.023438 22.773438 L 20.023438 23.875 L 20.988281 23.875 L 20.988281 22.773438 L 23.308594 22.773438 L 23.308594 23.875 L 24.273438 23.875 L 24.273438 19.152344 L 23.308594 19.152344 L 23.308594 19.160156 L 22.035156 18.523438 L 20.988281 18.523438 L 20.988281 18.285156 L 20.023438 18.285156 L 20.023438 18.523438 L 17.707031 18.523438 L 17.707031 16.160156 L 17.398438 16.160156 L 17.398438 15.242188 L 14.425781 15.242188 L 14.425781 12.683594 L 13.539062 12.683594 L 13.539062 11.960938 L 11.140625 11.960938 L 11.140625 9.113281 L 10.738281 9.113281 L 10.738281 8.675781 L 7.957031 8.675781 L 7.957031 6.214844 L 6.988281 6.214844 L 6.988281 8.675781 L 4.671875 8.675781 L 4.671875 4.960938 Z M 4.671875 9.640625 L 6.988281 9.640625 L 6.988281 11.960938 L 4.671875 11.960938 Z M 7.957031 9.640625 L 10.175781 9.640625 L 10.175781 11.960938 L 7.957031 11.960938 Z M 4.671875 12.925781 L 6.988281 12.925781 L 6.988281 15.242188 L 4.671875 15.242188 Z M 7.957031 12.925781 L 10.175781 12.925781 L 10.175781 15.242188 L 7.957031 15.242188 Z M 11.140625 12.925781 L 13.460938 12.925781 L 13.460938 15.242188 L 11.140625 15.242188 Z M 4.671875 16.207031 L 6.988281 16.207031 L 6.988281 18.523438 L 4.671875 18.523438 Z M 7.957031 16.207031 L 10.175781 16.207031 L 10.175781 18.523438 L 7.957031 18.523438 Z M 11.140625 16.207031 L 13.460938 16.207031 L 13.460938 18.523438 L 11.140625 18.523438 Z M 14.425781 16.207031 L 16.742188 16.207031 L 16.742188 18.523438 L 14.425781 18.523438 Z M 4.671875 19.492188 L 6.988281 19.492188 L 6.988281 21.808594 L 4.671875 21.808594 Z M 7.957031 19.492188 L 10.175781 19.492188 L 10.175781 21.808594 L 7.957031 21.808594 Z M 11.140625 19.492188 L 13.460938 19.492188 L 13.460938 21.808594 L 11.140625 21.808594 Z M 14.425781 19.492188 L 16.742188 19.492188 L 16.742188 21.808594 L 14.425781 21.808594 Z M 17.707031 19.492188 L 20.023438 19.492188 L 20.023438 21.808594 L 17.707031 21.808594 Z M 20.988281 19.492188 L 23.308594 19.492188 L 23.308594 21.808594 L 20.988281 21.808594 Z M 20.988281 19.492188 "/>
</g>
</defs>
<path fill-rule="nonzero" fill="rgb(6.666667%, 6.666667%, 6.666667%)" fill-opacity="1" stroke-width="3.408" stroke-linecap="butt" stroke-linejoin="miter" stroke="rgb(93.333333%, 93.333333%, 93.333333%)" stroke-opacity="1" stroke-miterlimit="4" d="M 66.269531 1.780134 C 24.921875 1.780134 1.699219 23.141741 1.699219 66.835938 L 1.699219 516.967076 C 1.699219 557.748326 22.575335 579.190848 63.922991 579.190848 L 515.915179 579.190848 C 557.262835 579.190848 578.138951 558.881138 578.138951 516.967076 L 578.138951 66.835938 C 578.138951 24.193638 557.262835 1.780134 514.620536 1.780134 C 514.620536 1.780134 66.107701 1.618304 66.269531 1.780134 Z M 66.269531 1.780134 " transform="matrix(0.0482759, 0, 0, 0.0482759, 0, 0)"/>
<path fill="none" stroke-width="17.799999" stroke-linecap="round" stroke-linejoin="round" stroke="rgb(100%, 100%, 100%)" stroke-opacity="1" stroke-miterlimit="4" d="M 56.397879 106.241629 C 109.559152 92.324219 181.654576 127.441406 284.255022 253.830915 C 386.936384 380.220424 454.905134 396.969866 520.770089 399.235491 " transform="matrix(0.0482759, 0, 0, 0.0482759, 0, 0)"/>
<g mask="url(#mask-0)">
<use xlink:href="#source-8"/>
</g>
<path fill-rule="nonzero" fill="rgb(100%, 100%, 100%)" fill-opacity="1" stroke-width="20" stroke-linecap="round" stroke-linejoin="round" stroke="rgb(100%, 100%, 100%)" stroke-opacity="1" stroke-miterlimit="4" d="M 202.935268 160.292969 C 224.620536 181.654576 246.224888 203.016183 267.910156 224.37779 C 280.613839 220.089286 293.560268 216.529018 300.599888 192.578125 C 279.885603 171.135603 259.090402 149.773996 238.376116 128.331473 C 214.667969 129.05971 209.893973 145.647321 202.935268 160.292969 Z M 202.935268 160.292969 " transform="matrix(0.0482759, 0, 0, 0.0482759, 0, 0)"/>
<path fill-rule="nonzero" fill="rgb(100%, 100%, 100%)" fill-opacity="1" d="M 14.613281 5.09375 C 14.613281 5.335938 14.484375 5.5625 14.273438 5.683594 C 14.0625 5.804688 13.800781 5.804688 13.59375 5.683594 C 13.382812 5.5625 13.25 5.335938 13.25 5.09375 C 13.25 4.851562 13.382812 4.625 13.59375 4.503906 C 13.800781 4.382812 14.0625 4.382812 14.273438 4.503906 C 14.484375 4.625 14.613281 4.851562 14.613281 5.09375 Z M 14.613281 5.09375 "/>
<path fill-rule="nonzero" fill="rgb(100%, 100%, 100%)" fill-opacity="1" d="M 15.816406 7.09375 C 15.820312 7.335938 15.6875 7.5625 15.476562 7.683594 C 15.265625 7.804688 15.007812 7.804688 14.796875 7.683594 C 14.585938 7.5625 14.457031 7.335938 14.457031 7.09375 C 14.457031 6.847656 14.585938 6.625 14.796875 6.503906 C 15.007812 6.378906 15.265625 6.378906 15.476562 6.503906 C 15.6875 6.625 15.820312 6.847656 15.816406 7.09375 Z M 15.816406 7.09375 "/>
<path fill-rule="nonzero" fill="rgb(100%, 100%, 100%)" fill-opacity="1" stroke-width="40.5" stroke-linecap="round" stroke-linejoin="miter" stroke="rgb(100%, 100%, 100%)" stroke-opacity="1" stroke-miterlimit="4" d="M 263.621652 130.839844 L 234.330357 160.131138 " transform="matrix(0.0482759, 0, 0, 0.0482759, 0, 0)"/>
<path fill-rule="nonzero" fill="rgb(100%, 100%, 100%)" fill-opacity="1" stroke-width="28.5" stroke-linecap="round" stroke-linejoin="miter" stroke="rgb(100%, 100%, 100%)" stroke-opacity="1" stroke-miterlimit="4" d="M 291.699219 166.766183 L 262.407924 196.057478 " transform="matrix(0.0482759, 0, 0, 0.0482759, 0, 0)"/>
<path fill-rule="nonzero" fill="rgb(100%, 100%, 100%)" fill-opacity="1" stroke-width="20" stroke-linecap="round" stroke-linejoin="round" stroke="rgb(100%, 100%, 100%)" stroke-opacity="1" stroke-miterlimit="4" d="M 325.359933 279.966518 C 348.339844 299.952567 371.319754 319.857701 394.299665 339.762835 C 406.679688 334.746094 419.383371 330.295759 424.885603 305.94029 C 402.795759 285.954241 380.705915 265.887277 358.616071 245.820312 C 335.069754 248.085938 331.347656 264.916295 325.359933 279.966518 Z M 325.359933 279.966518 " transform="matrix(0.0482759, 0, 0, 0.0482759, 0, 0)"/>
<path fill-rule="nonzero" fill="rgb(100%, 100%, 100%)" fill-opacity="1" d="M 20.191406 10.738281 C 20.207031 10.980469 20.09375 11.210938 19.890625 11.347656 C 19.6875 11.484375 19.425781 11.5 19.210938 11.390625 C 18.992188 11.28125 18.847656 11.066406 18.832031 10.824219 C 18.816406 10.582031 18.933594 10.347656 19.132812 10.210938 C 19.335938 10.078125 19.597656 10.0625 19.8125 10.167969 C 20.03125 10.277344 20.175781 10.492188 20.191406 10.738281 Z M 20.191406 10.738281 "/>
<path fill-rule="nonzero" fill="rgb(100%, 100%, 100%)" fill-opacity="1" d="M 21.519531 12.660156 C 21.539062 12.902344 21.421875 13.136719 21.21875 13.269531 C 21.015625 13.40625 20.757812 13.421875 20.539062 13.316406 C 20.320312 13.207031 20.175781 12.992188 20.164062 12.746094 C 20.148438 12.503906 20.261719 12.273438 20.464844 12.136719 C 20.667969 12 20.925781 11.984375 21.144531 12.09375 C 21.363281 12.203125 21.507812 12.417969 21.519531 12.660156 Z M 21.519531 12.660156 "/>
<path fill-rule="nonzero" fill="rgb(100%, 100%, 100%)" fill-opacity="1" stroke-width="40.5" stroke-linecap="round" stroke-linejoin="miter" stroke="rgb(100%, 100%, 100%)" stroke-opacity="1" stroke-miterlimit="4" d="M 381.029576 250.270647 L 353.680246 281.342076 " transform="matrix(0.0482759, 0, 0, 0.0482759, 0, 0)"/>
<path fill-rule="nonzero" fill="rgb(100%, 100%, 100%)" fill-opacity="1" stroke-width="28.5" stroke-linecap="round" stroke-linejoin="miter" stroke="rgb(100%, 100%, 100%)" stroke-opacity="1" stroke-miterlimit="4" d="M 411.291853 284.335938 L 383.942522 315.488281 " transform="matrix(0.0482759, 0, 0, 0.0482759, 0, 0)"/>
</svg>
