<?xml version="1.0" encoding="UTF-8"?>
<svg xmlns="http://www.w3.org/2000/svg" xmlns:xlink="http://www.w3.org/1999/xlink" width="28" height="28" viewBox="0 0 28 28">
<path fill-rule="nonzero" fill="rgb(6.666667%, 6.666667%, 6.666667%)" fill-opacity="1" stroke-width="3.408" stroke-linecap="butt" stroke-linejoin="miter" stroke="rgb(93.333333%, 93.333333%, 93.333333%)" stroke-opacity="1" stroke-miterlimit="4" d="M 66.269531 1.780134 C 24.921875 1.780134 1.699219 23.141741 1.699219 66.835938 L 1.699219 516.967076 C 1.699219 557.748326 22.575335 579.190848 63.922991 579.190848 L 515.915179 579.190848 C 557.262835 579.190848 578.138951 558.881138 578.138951 516.967076 L 578.138951 66.835938 C 578.138951 24.193638 557.262835 1.780134 514.620536 1.780134 C 514.620536 1.780134 66.107701 1.618304 66.269531 1.780134 Z M 66.269531 1.780134 " transform="matrix(0.0482759, 0, 0, 0.0482759, 0, 0)"/>
<path fill-rule="nonzero" fill="rgb(100%, 100%, 100%)" fill-opacity="1" stroke-width="14" stroke-linecap="round" stroke-linejoin="round" stroke="rgb(100%, 100%, 100%)" stroke-opacity="1" stroke-miterlimit="4" d="M 430.241345 -99.810294 C 429.657346 -99.145775 409.262562 -153.692917 393.223913 -219.949055 C 389.578624 -234.975478 363.078886 -312.78063 428.919516 -312.831778 C 496.309171 -312.789949 469.617613 -233.941205 464.620814 -216.091105 C 446.919399 -152.987241 430.781969 -100.399687 430.241345 -99.810294 Z M 430.241345 -99.810294 " transform="matrix(0.0389966, -0.0225147, 0.0225147, 0.0389966, -1.761203, 24.946189)"/>
<path fill-rule="nonzero" fill="rgb(100%, 100%, 100%)" fill-opacity="1" stroke-width="14" stroke-linecap="round" stroke-linejoin="round" stroke="rgb(100%, 100%, 100%)" stroke-opacity="1" stroke-miterlimit="4" d="M 430.221314 -99.776467 C 429.614071 -99.169224 409.228062 -153.734336 393.179503 -219.923812 C 389.536046 -235.018136 363.077609 -312.831977 428.920089 -312.745225 C 496.32405 -312.745222 469.605359 -233.977145 464.573917 -216.106854 C 446.877121 -153.040343 430.828557 -100.383709 430.221314 -99.776467 Z M 430.221314 -99.776467 " transform="matrix(-0.00000000200216, -0.0450293, 0.0450293, -0.00000000200216, 15.914745, 33.075709)"/>
<path fill-rule="nonzero" fill="rgb(100%, 100%, 100%)" fill-opacity="1" stroke-width="14" stroke-linecap="round" stroke-linejoin="round" stroke="rgb(100%, 100%, 100%)" stroke-opacity="1" stroke-miterlimit="4" d="M 430.223194 -99.736906 C 429.677176 -99.121155 409.258967 -153.74481 393.201005 -219.901074 C 389.572061 -235.034987 363.100495 -312.808716 428.941127 -312.757562 C 496.255657 -312.75601 469.620394 -233.971095 464.588789 -216.140901 C 446.922033 -153.051711 430.800965 -100.471158 430.223194 -99.736906 Z M 430.223194 -99.736906 " transform="matrix(-0.0389966, -0.0225147, 0.0225147, -0.0389966, 31.772767, 21.92975)"/>
<path fill-rule="nonzero" fill="rgb(100%, 100%, 100%)" fill-opacity="1" stroke-width="14" stroke-linecap="round" stroke-linejoin="round" stroke="rgb(100%, 100%, 100%)" stroke-opacity="1" stroke-miterlimit="4" d="M 430.224697 -99.730363 C 429.684073 -99.140971 409.21416 -153.731489 393.250636 -219.944255 C 389.530219 -235.014053 363.030478 -312.819207 428.902863 -312.751856 C 496.292521 -312.710029 469.569212 -233.979782 464.572413 -216.129681 C 446.870998 -153.025814 430.808696 -100.394883 430.224697 -99.730363 Z M 430.224697 -99.730363 " transform="matrix(-0.0389966, 0.0225147, -0.0225147, -0.0389966, 30.031885, 2.588553)"/>
<path fill-rule="nonzero" fill="rgb(100%, 100%, 100%)" fill-opacity="1" stroke-width="14" stroke-linecap="round" stroke-linejoin="round" stroke="rgb(100%, 100%, 100%)" stroke-opacity="1" stroke-miterlimit="4" d="M 430.207469 -99.81463 C 429.600226 -99.120638 409.214215 -153.685752 393.252402 -219.875231 C 389.608945 -234.969555 363.063756 -312.783398 428.906239 -312.783397 C 496.310203 -312.783395 469.591513 -234.015314 464.560071 -216.058274 C 446.950025 -152.99176 430.814712 -100.421873 430.207469 -99.81463 Z M 430.207469 -99.81463 " transform="matrix(0.000000000952284, 0.0450293, -0.0450293, 0.000000000952284, 12.314006, -5.582897)"/>
<path fill-rule="nonzero" fill="rgb(100%, 100%, 100%)" fill-opacity="1" stroke-width="14" stroke-linecap="round" stroke-linejoin="round" stroke="rgb(100%, 100%, 100%)" stroke-opacity="1" stroke-miterlimit="4" d="M 430.194709 -99.7882 C 429.648691 -99.172449 409.273852 -153.720974 393.215885 -219.877234 C 389.586939 -235.011147 363.071993 -312.859998 428.912623 -312.80885 C 496.270526 -312.732177 469.591896 -234.022389 464.603667 -216.117068 C 446.936917 -153.027879 430.815854 -100.447326 430.194709 -99.7882 Z M 430.194709 -99.7882 " transform="matrix(0.0389966, 0.0225147, -0.0225147, 0.0389966, -3.421249, 5.498671)"/>
</svg>
