<?xml version="1.0" encoding="UTF-8"?>
<svg xmlns="http://www.w3.org/2000/svg" xmlns:xlink="http://www.w3.org/1999/xlink" width="28" height="28" viewBox="0 0 28 28">
<path fill-rule="nonzero" fill="rgb(6.666667%, 6.666667%, 6.666667%)" fill-opacity="1" stroke-width="3.408" stroke-linecap="butt" stroke-linejoin="miter" stroke="rgb(93.333333%, 93.333333%, 93.333333%)" stroke-opacity="1" stroke-miterlimit="4" d="M 66.269531 1.780134 C 24.921875 1.780134 1.699219 23.141741 1.699219 66.835938 L 1.699219 516.967076 C 1.699219 557.748326 22.575335 579.190848 63.922991 579.190848 L 515.915179 579.190848 C 557.262835 579.190848 578.138951 558.881138 578.138951 516.967076 L 578.138951 66.835938 C 578.138951 24.193638 557.262835 1.780134 514.620536 1.780134 C 514.620536 1.780134 66.107701 1.618304 66.269531 1.780134 Z M 66.269531 1.780134 " transform="matrix(0.0482759, 0, 0, 0.0482759, 0, 0)"/>
<path fill="none" stroke-width="5" stroke-linecap="round" stroke-linejoin="round" stroke="rgb(100%, 100%, 100%)" stroke-opacity="1" stroke-miterlimit="4" d="M -358.039617 -243.765439 C -358.041898 -233.885889 -366.060323 -225.871837 -375.942812 -225.864901 C -385.831579 -225.870121 -393.84857 -233.879329 -393.84335 -243.768096 C -393.847348 -253.659802 -385.828922 -261.673854 -375.949372 -261.671573 C -366.057666 -261.67557 -358.043614 -253.657145 -358.039617 -243.765439 Z M -358.039617 -243.765439 " transform="matrix(0.384684, -0.122659, 0.122659, 0.384684, 188.010906, 59.164426)"/>
<path fill-rule="evenodd" fill="rgb(100%, 100%, 100%)" fill-opacity="1" stroke-width="5.3255" stroke-linecap="butt" stroke-linejoin="miter" stroke="rgb(100%, 100%, 100%)" stroke-opacity="1" stroke-miterlimit="4" d="M 234.556923 54.595466 L 251.889923 272.65483 L 263.430194 71.926366 Z M 234.556923 54.595466 " transform="matrix(0.0451953, -0.0144108, 0.0144108, 0.0451953, -1.64544, 3.139261)"/>
<path fill-rule="nonzero" fill="rgb(100%, 100%, 100%)" fill-opacity="1" stroke-width="6.357309" stroke-linecap="round" stroke-linejoin="round" stroke="rgb(100%, 100%, 100%)" stroke-opacity="1" stroke-miterlimit="4" d="M -358.061911 -243.770869 C -358.031695 -233.870856 -366.07268 -225.88504 -375.972693 -225.854824 C -385.856803 -225.874484 -393.858523 -233.865594 -393.838863 -243.749704 C -393.869078 -253.649717 -385.81219 -261.685409 -375.92808 -261.665749 C -366.04397 -261.646088 -358.042251 -253.654979 -358.061911 -243.770869 Z M -358.061911 -243.770869 " transform="matrix(0.0710918, -0.0226681, 0.0226681, 0.0710918, 45.742812, 20.31119)"/>
<path fill-rule="evenodd" fill="rgb(100%, 100%, 100%)" fill-opacity="1" stroke-width="1.877758" stroke-linecap="round" stroke-linejoin="round" stroke="rgb(100%, 100%, 100%)" stroke-opacity="1" stroke-miterlimit="4" d="M -378.654434 -283.634762 L -375.399717 -242.688495 L -373.232733 -280.380439 Z M -378.654434 -283.634762 " transform="matrix(0.240687, -0.0767448, 0.0767448, 0.240687, 122.64703, 41.434135)"/>
<path fill-rule="evenodd" fill="rgb(100%, 100%, 100%)" fill-opacity="1" stroke-width="1.877758" stroke-linecap="round" stroke-linejoin="round" stroke="rgb(100%, 100%, 100%)" stroke-opacity="1" stroke-miterlimit="4" d="M -343.231413 -266.513488 L -376.830198 -242.884941 L -343.27079 -260.180287 Z M -343.231413 -266.513488 " transform="matrix(0.240687, -0.0767448, 0.0767448, 0.240687, 122.64703, 41.434135)"/>
<path fill-rule="evenodd" fill="rgb(100%, 100%, 100%)" fill-opacity="1" stroke-width="1.877758" stroke-linecap="round" stroke-linejoin="round" stroke="rgb(100%, 100%, 100%)" stroke-opacity="1" stroke-miterlimit="4" d="M -339.888491 -227.421725 L -377.395327 -244.217434 L -345.352987 -224.23033 Z M -339.888491 -227.421725 " transform="matrix(0.240687, -0.0767448, 0.0767448, 0.240687, 122.64703, 41.434135)"/>
<path fill-rule="evenodd" fill="rgb(100%, 100%, 100%)" fill-opacity="1" stroke-width="1.877758" stroke-linecap="round" stroke-linejoin="round" stroke="rgb(100%, 100%, 100%)" stroke-opacity="1" stroke-miterlimit="4" d="M -372.76754 -204.472541 L -376.50115 -245.39298 L -378.242192 -207.6626 Z M -372.76754 -204.472541 " transform="matrix(0.240687, -0.0767448, 0.0767448, 0.240687, 122.64703, 41.434135)"/>
<path fill-rule="evenodd" fill="rgb(100%, 100%, 100%)" fill-opacity="1" stroke-width="1.877758" stroke-linecap="round" stroke-linejoin="round" stroke="rgb(100%, 100%, 100%)" stroke-opacity="1" stroke-miterlimit="4" d="M -409.033472 -222.106025 L -375.041206 -245.18714 L -408.881578 -228.435809 Z M -409.033472 -222.106025 " transform="matrix(0.240687, -0.0767448, 0.0767448, 0.240687, 122.64703, 41.434135)"/>
<path fill-rule="evenodd" fill="rgb(100%, 100%, 100%)" fill-opacity="1" stroke-width="1.877758" stroke-linecap="round" stroke-linejoin="round" stroke="rgb(100%, 100%, 100%)" stroke-opacity="1" stroke-miterlimit="4" d="M -411.483295 -261.708266 L -374.500203 -243.82988 L -405.933827 -264.75896 Z M -411.483295 -261.708266 " transform="matrix(0.240687, -0.0767448, 0.0767448, 0.240687, 122.64703, 41.434135)"/>
<path fill-rule="evenodd" fill="rgb(100%, 100%, 100%)" fill-opacity="1" d="M 25.347656 19.453125 C 25.15625 19.53125 24.902344 19.542969 24.5625 19.503906 C 24.21875 19.457031 23.878906 19.128906 23.320312 19.203125 C 22.75 19.273438 21.988281 19.867188 21.203125 19.9375 C 20.410156 19.996094 19.46875 19.539062 18.65625 19.617188 C 17.851562 19.699219 17.167969 20.328125 16.394531 20.417969 C 15.609375 20.492188 14.773438 20.042969 14 20.105469 C 13.214844 20.15625 12.519531 20.714844 11.785156 20.777344 C 11.066406 20.828125 10.378906 20.371094 9.664062 20.460938 C 8.933594 20.558594 8.183594 21.203125 7.46875 21.304688 C 6.746094 21.382812 6.039062 20.90625 5.402344 20.960938 C 4.753906 21.011719 4.070312 21.484375 3.644531 21.617188 C 3.214844 21.738281 2.941406 21.773438 2.832031 21.71875 L 2.976562 23.222656 C 3.085938 23.277344 3.359375 23.242188 3.785156 23.121094 C 4.210938 22.988281 4.898438 22.515625 5.542969 22.464844 C 6.179688 22.410156 6.886719 22.890625 7.609375 22.808594 C 8.324219 22.714844 9.074219 22.054688 9.804688 21.96875 C 10.519531 21.871094 11.207031 22.339844 11.929688 22.28125 C 12.660156 22.21875 13.355469 21.667969 14.140625 21.609375 C 14.914062 21.546875 15.75 22 16.535156 21.921875 C 17.308594 21.832031 17.992188 21.203125 18.796875 21.121094 C 19.609375 21.042969 20.550781 21.507812 21.347656 21.445312 C 22.128906 21.371094 22.890625 20.78125 23.460938 20.707031 C 24.019531 20.628906 24.363281 20.964844 24.707031 21.007812 C 25.042969 21.046875 25.296875 21.035156 25.488281 20.957031 Z M 25.347656 19.453125 "/>
<path fill-rule="evenodd" fill="rgb(100%, 100%, 100%)" fill-opacity="1" d="M 25.582031 21.96875 C 25.390625 22.042969 25.140625 22.058594 24.800781 22.019531 C 24.457031 21.976562 24.113281 21.640625 23.558594 21.71875 C 22.984375 21.792969 22.222656 22.382812 21.441406 22.457031 C 20.644531 22.515625 19.703125 22.058594 18.894531 22.136719 C 18.085938 22.21875 17.40625 22.84375 16.632812 22.933594 C 15.84375 23.011719 15.007812 22.5625 14.234375 22.621094 C 13.453125 22.675781 12.753906 23.230469 12.023438 23.292969 C 11.300781 23.347656 10.613281 22.890625 9.902344 22.980469 C 9.171875 23.078125 8.417969 23.722656 7.703125 23.824219 C 6.984375 23.902344 6.277344 23.425781 5.636719 23.480469 C 4.992188 23.527344 4.308594 24.003906 3.878906 24.132812 C 3.453125 24.261719 3.179688 24.285156 3.070312 24.234375 L 3.210938 25.738281 C 3.320312 25.789062 3.59375 25.765625 4.023438 25.636719 C 4.449219 25.507812 5.132812 25.03125 5.777344 24.984375 C 6.417969 24.929688 7.125 25.40625 7.847656 25.328125 C 8.558594 25.226562 9.3125 24.582031 10.042969 24.484375 C 10.753906 24.394531 11.441406 24.851562 12.164062 24.796875 C 12.898438 24.734375 13.59375 24.179688 14.378906 24.125 C 15.152344 24.066406 15.984375 24.515625 16.773438 24.4375 C 17.546875 24.347656 18.226562 23.722656 19.035156 23.640625 C 19.84375 23.5625 20.789062 24.019531 21.582031 23.960938 C 22.367188 23.886719 23.128906 23.296875 23.699219 23.222656 C 24.257812 23.152344 24.597656 23.480469 24.941406 23.523438 C 25.28125 23.566406 25.535156 23.550781 25.722656 23.476562 Z M 25.582031 21.96875 "/>
</svg>
