<?xml version="1.0" encoding="UTF-8"?>
<svg xmlns="http://www.w3.org/2000/svg" xmlns:xlink="http://www.w3.org/1999/xlink" width="28" height="28" viewBox="0 0 28 28">
<defs>
<filter id="filter-remove-color" x="0%" y="0%" width="100%" height="100%">
<feColorMatrix color-interpolation-filters="sRGB" values="0 0 0 0 1 0 0 0 0 1 0 0 0 0 1 0 0 0 1 0" />
</filter>
<mask id="mask-0">
<g filter="url(#filter-remove-color)">
<rect x="-2.8" y="-2.8" width="33.6" height="33.6" fill="rgb(0%, 0%, 0%)" fill-opacity="0.2"/>
</g>
</mask>
<clipPath id="clip-0">
<rect x="0" y="0" width="28" height="28"/>
</clipPath>
<g id="source-7" clip-path="url(#clip-0)">
<path fill-rule="nonzero" fill="rgb(100%, 100%, 100%)" fill-opacity="1" stroke-width="10.97337" stroke-linecap="round" stroke-linejoin="round" stroke="rgb(100%, 100%, 100%)" stroke-opacity="1" stroke-miterlimit="4" d="M 30.873831 340.716305 L 550.672938 340.716305 L 550.672938 525.283827 L 30.873831 525.283827 Z M 30.873831 340.716305 " transform="matrix(0.0482759, 0, 0, 0.0482759, 0.0954767, 0.14147)"/>
</g>
</defs>
<path fill-rule="nonzero" fill="rgb(6.666667%, 6.666667%, 6.666667%)" fill-opacity="1" stroke-width="3.408" stroke-linecap="butt" stroke-linejoin="miter" stroke="rgb(93.333333%, 93.333333%, 93.333333%)" stroke-opacity="1" stroke-miterlimit="4" d="M 66.269531 1.780134 C 24.921875 1.780134 1.699219 23.141741 1.699219 66.835938 L 1.699219 516.967076 C 1.699219 557.748326 22.575335 579.190848 63.922991 579.190848 L 515.915179 579.190848 C 557.262835 579.190848 578.138951 558.881138 578.138951 516.967076 L 578.138951 66.835938 C 578.138951 24.193638 557.262835 1.780134 514.620536 1.780134 C 514.620536 1.780134 66.107701 1.618304 66.269531 1.780134 Z M 66.269531 1.780134 " transform="matrix(0.0482759, 0, 0, 0.0482759, 0, 0)"/>
<g mask="url(#mask-0)">
<use xlink:href="#source-7"/>
</g>
<path fill="none" stroke-width="20" stroke-linecap="butt" stroke-linejoin="miter" stroke="rgb(100%, 100%, 100%)" stroke-opacity="1" stroke-miterlimit="4" d="M 21.730416 336.994207 L 558.764456 336.994207 " transform="matrix(0.0482759, 0, 0, 0.0482759, 0.0954767, 0.14147)"/>
<path fill="none" stroke-width="20" stroke-linecap="butt" stroke-linejoin="miter" stroke="rgb(100%, 100%, 100%)" stroke-opacity="1" stroke-miterlimit="4" d="M 21.730416 524.960167 L 558.764456 524.960167 " transform="matrix(0.0482759, 0, 0, 0.0482759, 0.0954767, 0.14147)"/>
<path fill="none" stroke-width="19.466999" stroke-linecap="butt" stroke-linejoin="miter" stroke="rgb(100%, 100%, 100%)" stroke-opacity="1" stroke-dasharray="38.933998 38.933998" stroke-miterlimit="4" d="M 37.185215 428.994765 L 545.979858 428.994765 " transform="matrix(0.0482759, 0, 0, 0.0482759, 0.0954767, 0.14147)"/>
<path fill-rule="nonzero" fill="rgb(83.529412%, 23.137255%, 23.137255%)" fill-opacity="1" stroke-width="128.991348" stroke-linecap="round" stroke-linejoin="round" stroke="rgb(100%, 100%, 100%)" stroke-opacity="1" stroke-miterlimit="4" d="M -57.967764 312.740815 L -25.460037 440.41005 " transform="matrix(0.0281183, 0, 0, 0.0281183, 17.715893, -2.594526)"/>
<path fill="none" stroke-width="56.672752" stroke-linecap="round" stroke-linejoin="round" stroke="rgb(100%, 100%, 100%)" stroke-opacity="1" stroke-miterlimit="4" d="M -66.858766 289.8187 L -192.166329 307.600704 L -265.65602 220.218823 " transform="matrix(0.0281183, 0, 0, 0.0281183, 17.715893, -2.594526)"/>
<path fill="none" stroke-width="71.797073" stroke-linecap="round" stroke-linejoin="round" stroke="rgb(100%, 100%, 100%)" stroke-opacity="1" stroke-miterlimit="4" d="M 25.107538 580.582257 L -148.128084 582.527164 " transform="matrix(0.0281183, 0, 0, 0.0281183, 17.715893, -2.594526)"/>
<path fill="none" stroke-width="78.403099" stroke-linecap="round" stroke-linejoin="round" stroke="rgb(100%, 100%, 100%)" stroke-opacity="1" stroke-miterlimit="4" d="M 1.907579 457.497445 L -147.15563 568.079285 " transform="matrix(0.0281183, 0, 0, 0.0281183, 17.715893, -2.594526)"/>
<path fill-rule="nonzero" fill="rgb(100%, 100%, 100%)" fill-opacity="1" stroke-width="78.403099" stroke-linecap="round" stroke-linejoin="round" stroke="rgb(100%, 100%, 100%)" stroke-opacity="1" stroke-miterlimit="4" d="M -111.4527 165.900356 C -127.845485 166.594965 -134.235893 190.350612 -120.760468 199.380536 C -108.396418 209.521836 -87.974897 197.157786 -91.309023 181.45961 C -92.698242 172.01292 -101.867088 164.788981 -111.4527 165.900356 Z M -111.4527 165.900356 " transform="matrix(0.0281183, 0, 0, 0.0281183, 17.715893, -2.594526)"/>
<path fill="none" stroke-width="78.403099" stroke-linecap="round" stroke-linejoin="round" stroke="rgb(100%, 100%, 100%)" stroke-opacity="1" stroke-miterlimit="4" d="M -12.401378 446.522614 L -147.15563 568.079285 " transform="matrix(0.0281183, 0, 0, 0.0281183, 17.715893, -2.594526)"/>
<path fill="none" stroke-width="56.672752" stroke-linecap="round" stroke-linejoin="round" stroke="rgb(100%, 100%, 100%)" stroke-opacity="1" stroke-miterlimit="4" d="M -66.858766 299.821077 L -192.166329 307.600704 L -265.65602 220.218823 " transform="matrix(0.0281183, 0, 0, 0.0281183, 17.715893, -2.594526)"/>
</svg>
