<?xml version="1.0" encoding="UTF-8"?>
<svg xmlns="http://www.w3.org/2000/svg" xmlns:xlink="http://www.w3.org/1999/xlink" width="28" height="28" viewBox="0 0 28 28">
<path fill-rule="nonzero" fill="rgb(6.666667%, 6.666667%, 6.666667%)" fill-opacity="1" stroke-width="3.408" stroke-linecap="butt" stroke-linejoin="miter" stroke="rgb(93.333333%, 93.333333%, 93.333333%)" stroke-opacity="1" stroke-miterlimit="4" d="M 66.269531 1.780134 C 24.921875 1.780134 1.699219 23.141741 1.699219 66.835938 L 1.699219 516.967076 C 1.699219 557.748326 22.575335 579.190848 63.922991 579.190848 L 515.915179 579.190848 C 557.262835 579.190848 578.138951 558.881138 578.138951 516.967076 L 578.138951 66.835938 C 578.138951 24.193638 557.262835 1.780134 514.620536 1.780134 C 514.620536 1.780134 66.107701 1.618304 66.269531 1.780134 Z M 66.269531 1.780134 " transform="matrix(0.0482759, 0, 0, 0.0482759, 0, 0)"/>
<path fill-rule="nonzero" fill="rgb(100%, 100%, 100%)" fill-opacity="1" d="M 26.300781 25.019531 C 25.773438 25.019531 25.265625 24.902344 24.8125 24.699219 C 24.347656 24.484375 23.824219 24.359375 23.273438 24.359375 C 22.726562 24.359375 22.203125 24.484375 21.738281 24.699219 C 21.285156 24.902344 20.78125 25.019531 20.246094 25.019531 C 19.714844 25.019531 19.207031 24.902344 18.75 24.699219 C 18.285156 24.484375 17.761719 24.359375 17.214844 24.359375 C 16.671875 24.359375 16.148438 24.484375 15.675781 24.699219 C 15.226562 24.902344 14.714844 25.019531 14.1875 25.019531 C 13.65625 25.019531 13.144531 24.902344 12.691406 24.699219 C 12.226562 24.484375 11.703125 24.359375 11.15625 24.359375 C 10.605469 24.359375 10.082031 24.484375 9.617188 24.699219 C 9.164062 24.902344 8.65625 25.019531 8.128906 25.019531 C 7.59375 25.019531 7.085938 24.902344 6.625 24.699219 C 6.167969 24.484375 5.636719 24.359375 5.09375 24.359375 C 4.546875 24.359375 4.023438 24.484375 3.558594 24.699219 C 3.105469 24.902344 2.59375 25.019531 2.0625 25.019531 L 2.0625 22.785156 C 2.59375 22.785156 3.105469 22.664062 3.558594 22.460938 C 4.023438 22.246094 4.546875 22.117188 5.09375 22.117188 C 5.636719 22.117188 6.167969 22.246094 6.625 22.460938 C 7.085938 22.664062 7.59375 22.785156 8.128906 22.785156 C 8.65625 22.785156 9.164062 22.664062 9.617188 22.460938 C 10.082031 22.246094 10.605469 22.117188 11.15625 22.117188 C 11.703125 22.117188 12.226562 22.246094 12.691406 22.460938 C 13.144531 22.664062 13.65625 22.785156 14.1875 22.785156 C 14.714844 22.785156 15.226562 22.664062 15.675781 22.460938 C 16.148438 22.246094 16.671875 22.117188 17.214844 22.117188 C 17.761719 22.117188 18.285156 22.246094 18.75 22.460938 C 19.207031 22.664062 19.714844 22.785156 20.246094 22.785156 C 20.78125 22.785156 21.285156 22.664062 21.738281 22.460938 C 22.203125 22.246094 22.730469 22.117188 23.273438 22.117188 C 23.828125 22.117188 24.347656 22.246094 24.8125 22.460938 C 25.265625 22.664062 25.773438 22.785156 26.300781 22.785156 Z M 26.300781 25.019531 "/>
<path fill-rule="nonzero" fill="rgb(100%, 100%, 100%)" fill-opacity="1" d="M 15.082031 15.703125 L 12.890625 10.484375 L 15.097656 9.558594 L 14.53125 8.199219 C 13.792969 8.511719 13.058594 8.820312 12.320312 9.132812 L 11.222656 6.515625 L 9.863281 7.085938 L 10.964844 9.703125 C 9.804688 10.1875 8.597656 10.695312 8.597656 10.695312 L 9.164062 12.054688 L 11.535156 11.058594 L 13.722656 16.273438 C 9.210938 18.164062 4.820312 20.027344 5.085938 20.027344 C 5.636719 20.027344 6.160156 20.15625 6.621094 20.371094 C 7.082031 20.574219 7.585938 20.691406 8.121094 20.691406 C 8.652344 20.691406 9.160156 20.574219 9.613281 20.371094 C 10.078125 20.15625 10.601562 20.027344 11.152344 20.027344 C 11.699219 20.027344 12.21875 20.15625 12.683594 20.371094 C 13.136719 20.574219 13.652344 20.691406 14.179688 20.691406 C 14.710938 20.691406 15.222656 20.574219 15.671875 20.371094 C 16.140625 20.15625 16.664062 20.027344 17.210938 20.027344 C 17.753906 20.027344 18.277344 20.15625 18.742188 20.371094 C 19.203125 20.574219 19.707031 20.691406 20.238281 20.691406 C 20.390625 20.691406 20.53125 20.660156 20.679688 20.640625 C 20.945312 20.582031 21.214844 20.558594 21.476562 20.457031 C 21.480469 20.453125 21.488281 20.449219 21.492188 20.445312 C 21.972656 17.757812 23.078125 12.378906 23.078125 12.378906 C 23.078125 12.378906 19.226562 13.96875 15.082031 15.703125 Z M 15.082031 15.703125 "/>
</svg>
