<?xml version="1.0" encoding="UTF-8"?>
<svg xmlns="http://www.w3.org/2000/svg" xmlns:xlink="http://www.w3.org/1999/xlink" width="28" height="28" viewBox="0 0 28 28">
<path fill-rule="nonzero" fill="rgb(6.666667%, 6.666667%, 6.666667%)" fill-opacity="1" stroke-width="3.408" stroke-linecap="butt" stroke-linejoin="miter" stroke="rgb(93.333333%, 93.333333%, 93.333333%)" stroke-opacity="1" stroke-miterlimit="4" d="M 66.269531 1.780134 C 24.921875 1.780134 1.699219 23.141741 1.699219 66.835938 L 1.699219 516.967076 C 1.699219 557.748326 22.575335 579.190848 63.922991 579.190848 L 515.915179 579.190848 C 557.262835 579.190848 578.138951 558.881138 578.138951 516.967076 L 578.138951 66.835938 C 578.138951 24.193638 557.262835 1.780134 514.620536 1.780134 C 514.620536 1.780134 66.107701 1.618304 66.269531 1.780134 Z M 66.269531 1.780134 " transform="matrix(0.0482759, 0, 0, 0.0482759, 0, 0)"/>
<path fill-rule="nonzero" fill="rgb(100%, 100%, 100%)" fill-opacity="1" d="M 4.675781 17.902344 C 4.949219 17.980469 5.617188 17.914062 5.386719 17.460938 C 5.261719 17.210938 4.660156 16.894531 4.398438 16.820312 C 4 16.707031 3.328125 17.199219 3.839844 17.511719 L 3.730469 17.84375 C 3.300781 17.640625 3.179688 17.015625 3.214844 16.566406 C 3.238281 16.25 3.523438 15.917969 3.636719 15.621094 C 3.945312 14.804688 4.195312 14.003906 4.4375 13.171875 C 4.53125 12.835938 4.5625 12.207031 4.851562 11.988281 C 5.121094 11.78125 5.539062 11.75 5.84375 11.597656 C 6.070312 11.488281 6.214844 11.257812 6.457031 11.183594 C 6.976562 11.023438 7.488281 11.0625 7.734375 10.5 C 8.261719 11.292969 8.699219 12.03125 8.789062 13.003906 C 8.851562 13.695312 8.378906 14.402344 8.21875 15.0625 C 8.109375 15.523438 8.140625 15.996094 8.019531 16.453125 C 7.871094 17.027344 7.574219 17.558594 7.429688 18.125 C 7.34375 18.464844 7.421875 18.855469 7.316406 19.179688 C 7.125 19.765625 6.035156 20.117188 6.164062 20.851562 C 6.222656 21.191406 6.621094 21.257812 6.902344 21.316406 C 7.554688 21.449219 8.257812 21.367188 8.90625 21.265625 C 9.121094 21.230469 9.382812 21.273438 9.546875 21.105469 C 9.953125 20.699219 9.476562 19.933594 9.605469 19.460938 C 9.699219 19.117188 10.023438 18.824219 10.191406 18.511719 C 10.554688 17.839844 10.867188 17.132812 11.074219 16.398438 L 11.132812 16.398438 C 11.144531 17.046875 11.300781 17.859375 11.550781 18.457031 C 11.707031 18.835938 12.109375 19.378906 12.097656 19.792969 C 12.082031 20.503906 11.007812 20.964844 11.519531 21.796875 C 12.039062 22.628906 13.265625 21.789062 13.914062 21.644531 C 14.269531 21.5625 14.746094 21.667969 14.921875 21.238281 C 15.164062 20.644531 14.671875 20.078125 14.589844 19.515625 C 14.496094 18.867188 14.617188 18.21875 14.5 17.566406 C 14.414062 17.089844 14.023438 16.535156 14.039062 16.066406 C 14.046875 15.734375 14.28125 15.339844 14.359375 15.007812 L 16.472656 16 L 17.363281 16.511719 C 17.367188 16.984375 17.355469 17.546875 17.4375 18.011719 C 17.476562 18.234375 17.6875 18.457031 17.621094 18.6875 C 17.5 19.132812 16.40625 19.59375 16.652344 20.066406 C 16.785156 20.324219 17.160156 20.414062 17.421875 20.480469 C 18.078125 20.652344 19.800781 20.90625 20.285156 20.289062 C 20.5 20.015625 20.480469 19.5625 20.480469 19.238281 C 20.480469 18.414062 20.566406 17.539062 20.371094 16.730469 C 21.085938 17.175781 21.25 18.0625 21.609375 18.792969 C 21.730469 19.042969 21.992188 19.445312 21.90625 19.738281 C 21.773438 20.1875 20.433594 20.886719 21.054688 21.496094 C 21.226562 21.664062 21.539062 21.675781 21.761719 21.742188 C 22.402344 21.9375 24.34375 22.253906 24.648438 21.40625 C 24.929688 20.613281 24.855469 19.210938 24.660156 18.402344 C 24.542969 17.925781 24.277344 17.511719 24.230469 17.011719 C 24.183594 16.550781 24.503906 16.082031 24.539062 15.621094 C 24.585938 14.972656 24.386719 14.40625 24.367188 13.78125 C 24.351562 13.382812 24.488281 12.96875 24.488281 12.558594 C 25.097656 14.179688 24.460938 15.921875 24.902344 17.566406 C 24.96875 17.808594 24.996094 19.164062 25.472656 19.027344 C 25.652344 18.976562 25.707031 18.664062 25.671875 18.511719 C 25.511719 17.851562 25.226562 17.265625 25.226562 16.566406 C 25.226562 16.214844 25.386719 15.855469 25.425781 15.507812 C 25.65625 13.449219 25.976562 10.585938 24.210938 9.078125 C 23.421875 8.402344 22.566406 7.910156 21.707031 7.355469 C 21.03125 6.917969 20.339844 6.410156 19.535156 6.234375 C 18.945312 6.109375 18.296875 6.296875 17.699219 6.265625 C 16.390625 6.203125 15.105469 5.957031 13.800781 5.832031 C 13.210938 5.777344 12.621094 5.890625 12.023438 5.78125 C 10.730469 5.539062 9.777344 4.5625 8.515625 4.246094 C 8.113281 4.144531 7.421875 4.210938 7.011719 4.285156 C 6.625 4.351562 6.421875 4.621094 6.121094 4.835938 C 5.25 5.457031 4.101562 6.457031 3.621094 7.4375 C 3.324219 8.042969 3.289062 8.847656 3.101562 9.496094 C 2.824219 10.445312 2.296875 11.234375 2.140625 12.222656 C 1.976562 13.261719 2.226562 14.351562 2.226562 15.398438 C 2.226562 16.179688 1.789062 17.140625 2.066406 17.902344 C 2.457031 18.964844 4.53125 19.316406 4.675781 17.902344 Z M 4.675781 17.902344 "/>
</svg>
