<?xml version="1.0" encoding="UTF-8"?>
<svg xmlns="http://www.w3.org/2000/svg" xmlns:xlink="http://www.w3.org/1999/xlink" width="28" height="28" viewBox="0 0 28 28">
<defs>
<filter id="filter-remove-color" x="0%" y="0%" width="100%" height="100%">
<feColorMatrix color-interpolation-filters="sRGB" values="0 0 0 0 1 0 0 0 0 1 0 0 0 0 1 0 0 0 1 0" />
</filter>
<mask id="mask-0">
<g filter="url(#filter-remove-color)">
<rect x="-2.8" y="-2.8" width="33.6" height="33.6" fill="rgb(0%, 0%, 0%)" fill-opacity="0.75"/>
</g>
</mask>
<clipPath id="clip-0">
<rect x="0" y="0" width="28" height="28"/>
</clipPath>
<g id="source-7" clip-path="url(#clip-0)">
<path fill-rule="nonzero" fill="rgb(100%, 100%, 100%)" fill-opacity="1" stroke-width="35.845001" stroke-linecap="round" stroke-linejoin="round" stroke="rgb(100%, 100%, 100%)" stroke-opacity="1" stroke-miterlimit="4" d="M 103.976004 82.452567 L 103.976004 145.323661 L 216.367188 145.323661 C 224.135045 124.69029 229.070871 111.177455 229.394531 109.235491 L 420.435268 107.617188 L 435 145.323661 L 504.587054 145.323661 L 504.587054 82.452567 Z M 103.976004 82.452567 " transform="matrix(0.0482759, 0, 0, 0.0482759, 0, 0)"/>
</g>
<mask id="mask-1">
<g filter="url(#filter-remove-color)">
<rect x="-2.8" y="-2.8" width="33.6" height="33.6" fill="rgb(0%, 0%, 0%)" fill-opacity="0.1"/>
</g>
</mask>
<clipPath id="clip-1">
<rect x="0" y="0" width="28" height="28"/>
</clipPath>
<g id="source-13" clip-path="url(#clip-1)">
<path fill-rule="evenodd" fill="rgb(100%, 100%, 100%)" fill-opacity="1" stroke-width="20" stroke-linecap="round" stroke-linejoin="round" stroke="rgb(100%, 100%, 100%)" stroke-opacity="1" stroke-miterlimit="4" d="M 242.664621 117.569754 C 241.127232 126.875 120.320871 476.185826 120.320871 476.185826 L 524.168527 472.787388 L 401.662946 116.032366 Z M 242.664621 117.569754 " transform="matrix(0.0482759, 0, 0, 0.0482759, 0, 0)"/>
</g>
<mask id="mask-2">
<g filter="url(#filter-remove-color)">
<rect x="-2.8" y="-2.8" width="33.6" height="33.6" fill="rgb(0%, 0%, 0%)" fill-opacity="0.1"/>
</g>
</mask>
<clipPath id="clip-2">
<rect x="0" y="0" width="28" height="28"/>
</clipPath>
<g id="source-17" clip-path="url(#clip-2)">
<path fill-rule="evenodd" fill="rgb(100%, 100%, 100%)" fill-opacity="1" stroke-width="20" stroke-linecap="round" stroke-linejoin="round" stroke="rgb(100%, 100%, 100%)" stroke-opacity="1" stroke-miterlimit="4" d="M 227.938058 158.108259 L 187.561384 158.43192 C 185.94308 167.737165 65.217634 517.128906 65.217634 517.128906 L 469.06529 513.649554 L 453.448661 473.353795 L 120.320871 476.185826 C 120.320871 476.185826 195.410156 243.797433 227.938058 158.108259 Z M 227.938058 158.108259 " transform="matrix(0.0482759, 0, 0, 0.0482759, 0, 0)"/>
</g>
</defs>
<path fill-rule="nonzero" fill="rgb(6.666667%, 6.666667%, 6.666667%)" fill-opacity="1" stroke-width="3.408" stroke-linecap="butt" stroke-linejoin="miter" stroke="rgb(93.333333%, 93.333333%, 93.333333%)" stroke-opacity="1" stroke-miterlimit="4" d="M 66.269531 1.780134 C 24.921875 1.780134 1.699219 23.141741 1.699219 66.835938 L 1.699219 516.967076 C 1.699219 557.748326 22.575335 579.190848 63.922991 579.190848 L 515.915179 579.190848 C 557.262835 579.190848 578.138951 558.881138 578.138951 516.967076 L 578.138951 66.835938 C 578.138951 24.193638 557.262835 1.780134 514.620536 1.780134 C 514.620536 1.780134 66.107701 1.618304 66.269531 1.780134 Z M 66.269531 1.780134 " transform="matrix(0.0482759, 0, 0, 0.0482759, 0, 0)"/>
<g mask="url(#mask-0)">
<use xlink:href="#source-7"/>
</g>
<path fill="none" stroke-width="20" stroke-linecap="butt" stroke-linejoin="round" stroke="rgb(100%, 100%, 100%)" stroke-opacity="1" stroke-miterlimit="4" d="M 227.938058 158.108259 L 187.561384 158.43192 C 185.94308 167.737165 65.217634 517.128906 65.217634 517.128906 L 469.06529 513.649554 L 453.448661 473.353795 L 120.320871 476.185826 C 120.320871 476.185826 195.410156 243.797433 227.938058 158.108259 Z M 227.938058 158.108259 " transform="matrix(0.0482759, 0, 0, 0.0482759, 0, 0)"/>
<path fill="none" stroke-width="20" stroke-linecap="butt" stroke-linejoin="round" stroke="rgb(100%, 100%, 100%)" stroke-opacity="1" stroke-miterlimit="4" d="M 242.664621 117.569754 C 241.127232 126.875 120.320871 476.185826 120.320871 476.185826 L 524.168527 472.787388 L 401.662946 116.032366 Z M 242.664621 117.569754 " transform="matrix(0.0482759, 0, 0, 0.0482759, 0, 0)"/>
<g mask="url(#mask-1)">
<use xlink:href="#source-13"/>
</g>
<g mask="url(#mask-2)">
<use xlink:href="#source-17"/>
</g>
<path fill-rule="nonzero" fill="rgb(100%, 100%, 100%)" fill-opacity="1" d="M 16.039062 13.40625 C 16.050781 13.410156 16.09375 13.421875 16.164062 13.433594 C 17.296875 13.621094 18.144531 13.960938 18.714844 14.457031 C 19.28125 14.953125 19.566406 15.601562 19.566406 16.40625 C 19.566406 17.230469 19.253906 17.941406 18.628906 18.542969 C 18.007812 19.148438 17.144531 19.472656 16.039062 19.527344 L 16.039062 20.800781 L 15.152344 20.800781 L 15.152344 19.539062 C 14.027344 19.433594 13.164062 19.121094 12.5625 18.609375 C 11.960938 18.097656 11.621094 17.382812 11.546875 16.460938 L 13.035156 16.238281 C 13.152344 16.929688 13.386719 17.460938 13.738281 17.835938 C 14.089844 18.210938 14.5625 18.421875 15.152344 18.472656 L 15.152344 14.457031 C 14.035156 14.253906 13.195312 13.910156 12.636719 13.425781 C 12.082031 12.945312 11.800781 12.328125 11.800781 11.570312 C 11.800781 10.816406 12.078125 10.171875 12.628906 9.632812 C 13.179688 9.09375 14.023438 8.78125 15.152344 8.695312 L 15.152344 8.09375 L 16.039062 8.09375 L 16.039062 8.695312 C 16.976562 8.773438 17.71875 9.027344 18.257812 9.453125 C 18.800781 9.878906 19.136719 10.472656 19.277344 11.242188 L 17.726562 11.429688 C 17.640625 10.953125 17.457031 10.574219 17.175781 10.296875 C 16.890625 10.019531 16.515625 9.839844 16.039062 9.761719 Z M 15.152344 13.253906 L 15.152344 9.746094 C 14.550781 9.835938 14.089844 10.039062 13.773438 10.359375 C 13.453125 10.679688 13.292969 11.050781 13.292969 11.472656 C 13.292969 11.953125 13.457031 12.332031 13.789062 12.609375 C 14.121094 12.890625 14.574219 13.101562 15.152344 13.253906 Z M 16.039062 18.472656 C 16.621094 18.398438 17.097656 18.1875 17.472656 17.832031 C 17.847656 17.480469 18.035156 17.035156 18.035156 16.496094 C 18.035156 16.027344 17.894531 15.644531 17.609375 15.359375 C 17.324219 15.070312 16.800781 14.828125 16.039062 14.625 Z M 16.039062 18.472656 "/>
<path fill="none" stroke-width="30" stroke-linecap="round" stroke-linejoin="round" stroke="rgb(100%, 100%, 100%)" stroke-opacity="1" stroke-miterlimit="4" d="M 455.353197 43.391284 L 455.353197 308.469409 " transform="matrix(0.0482759, 0, 0, 0.0482759, -6.427881, 5.979467)"/>
</svg>
