<?xml version="1.0" encoding="UTF-8"?>
<svg xmlns="http://www.w3.org/2000/svg" xmlns:xlink="http://www.w3.org/1999/xlink" width="28" height="28" viewBox="0 0 28 28">
<defs>
<filter id="filter-remove-color" x="0%" y="0%" width="100%" height="100%">
<feColorMatrix color-interpolation-filters="sRGB" values="0 0 0 0 1 0 0 0 0 1 0 0 0 0 1 0 0 0 1 0" />
</filter>
<mask id="mask-0">
<g filter="url(#filter-remove-color)">
<rect x="-2.8" y="-2.8" width="33.6" height="33.6" fill="rgb(0%, 0%, 0%)" fill-opacity="0.1"/>
</g>
</mask>
<clipPath id="clip-0">
<rect x="0" y="0" width="28" height="28"/>
</clipPath>
<g id="source-8" clip-path="url(#clip-0)">
<path fill-rule="evenodd" fill="rgb(100%, 100%, 100%)" fill-opacity="1" stroke-width="22.852503" stroke-linecap="round" stroke-linejoin="round" stroke="rgb(100%, 100%, 100%)" stroke-opacity="1" stroke-miterlimit="4" d="M 159.241071 112.148438 C 157.460938 122.829241 59.472656 541.969866 59.472656 541.969866 L 520.93192 538.005022 L 420.920759 110.449219 Z M 159.241071 112.148438 " transform="matrix(0.0482759, 0, 0, 0.0482759, 0, 0)"/>
</g>
<mask id="mask-1">
<g filter="url(#filter-remove-color)">
<rect x="-2.8" y="-2.8" width="33.6" height="33.6" fill="rgb(0%, 0%, 0%)" fill-opacity="0.5"/>
</g>
</mask>
<clipPath id="clip-1">
<rect x="0" y="0" width="28" height="28"/>
</clipPath>
<g id="source-14" clip-path="url(#clip-1)">
<path fill-rule="nonzero" fill="rgb(100%, 100%, 100%)" fill-opacity="1" stroke-width="36.06179" stroke-linecap="round" stroke-linejoin="round" stroke="rgb(100%, 100%, 100%)" stroke-opacity="1" stroke-miterlimit="4" d="M 63.842076 49.762835 L 63.842076 154.22433 L 147.993862 154.22433 C 154.628906 129.949777 158.917411 94.104353 159.241071 92.162388 L 420.920759 90.46317 L 433.219866 154.22433 L 516.157924 154.22433 L 516.157924 49.762835 Z M 63.842076 49.762835 " transform="matrix(0.0482759, 0, 0, 0.0482759, 0, 0)"/>
</g>
</defs>
<path fill-rule="nonzero" fill="rgb(6.666667%, 6.666667%, 6.666667%)" fill-opacity="1" stroke-width="3.408" stroke-linecap="butt" stroke-linejoin="miter" stroke="rgb(93.333333%, 93.333333%, 93.333333%)" stroke-opacity="1" stroke-miterlimit="4" d="M 66.269531 1.780134 C 24.921875 1.780134 1.699219 23.141741 1.699219 66.835938 L 1.699219 516.967076 C 1.699219 557.748326 22.575335 579.190848 63.922991 579.190848 L 515.915179 579.190848 C 557.262835 579.190848 578.138951 558.881138 578.138951 516.967076 L 578.138951 66.835938 C 578.138951 24.193638 557.262835 1.780134 514.620536 1.780134 C 514.620536 1.780134 66.107701 1.618304 66.269531 1.780134 Z M 66.269531 1.780134 " transform="matrix(0.0482759, 0, 0, 0.0482759, 0, 0)"/>
<path fill="none" stroke-width="22.852503" stroke-linecap="butt" stroke-linejoin="round" stroke="rgb(100%, 100%, 100%)" stroke-opacity="1" stroke-miterlimit="4" d="M 159.241071 112.148438 C 157.460938 122.829241 59.472656 541.969866 59.472656 541.969866 L 520.93192 538.005022 L 420.920759 110.449219 Z M 159.241071 112.148438 " transform="matrix(0.0482759, 0, 0, 0.0482759, 0, 0)"/>
<g mask="url(#mask-0)">
<use xlink:href="#source-8"/>
</g>
<path fill-rule="nonzero" fill="rgb(100%, 100%, 100%)" fill-opacity="1" d="M 14.636719 14.921875 C 14.652344 14.929688 14.703125 14.9375 14.796875 14.957031 C 16.265625 15.167969 17.371094 15.558594 18.109375 16.125 C 18.847656 16.691406 19.21875 17.433594 19.21875 18.351562 C 19.21875 19.289062 18.8125 20.105469 18.003906 20.792969 C 17.191406 21.484375 16.070312 21.855469 14.636719 21.914062 L 14.636719 23.371094 L 13.484375 23.371094 L 13.484375 21.929688 C 12.023438 21.808594 10.902344 21.453125 10.117188 20.871094 C 9.335938 20.285156 8.894531 19.46875 8.796875 18.414062 L 10.730469 18.160156 C 10.882812 18.949219 11.1875 19.558594 11.644531 19.984375 C 12.105469 20.410156 12.71875 20.65625 13.484375 20.714844 L 13.484375 16.125 C 12.03125 15.890625 10.941406 15.496094 10.214844 14.945312 C 9.492188 14.398438 9.128906 13.691406 9.128906 12.824219 C 9.128906 11.964844 9.488281 11.226562 10.203125 10.609375 C 10.921875 9.992188 12.015625 9.636719 13.484375 9.539062 L 13.484375 8.851562 L 14.636719 8.851562 L 14.636719 9.539062 C 15.855469 9.632812 16.816406 9.921875 17.519531 10.40625 C 18.222656 10.890625 18.664062 11.574219 18.839844 12.449219 L 16.832031 12.664062 C 16.714844 12.121094 16.476562 11.6875 16.109375 11.371094 C 15.742188 11.054688 15.253906 10.847656 14.636719 10.757812 Z M 13.484375 14.746094 L 13.484375 10.742188 C 12.703125 10.84375 12.105469 11.078125 11.6875 11.441406 C 11.273438 11.808594 11.066406 12.230469 11.066406 12.710938 C 11.066406 13.261719 11.28125 13.695312 11.710938 14.015625 C 12.140625 14.332031 12.734375 14.574219 13.484375 14.746094 Z M 14.636719 20.714844 C 15.390625 20.628906 16.007812 20.382812 16.496094 19.980469 C 16.984375 19.578125 17.226562 19.070312 17.226562 18.457031 C 17.226562 17.914062 17.042969 17.480469 16.675781 17.152344 C 16.304688 16.824219 15.625 16.546875 14.636719 16.316406 Z M 14.636719 20.714844 "/>
<path fill="none" stroke-width="34.278751" stroke-linecap="round" stroke-linejoin="round" stroke="rgb(100%, 100%, 100%)" stroke-opacity="1" stroke-miterlimit="4" d="M 290.16183 178.984375 L 290.16183 481.768973 " transform="matrix(0.0482759, 0, 0, 0.0482759, 0, 0)"/>
<g mask="url(#mask-1)">
<use xlink:href="#source-14"/>
</g>
</svg>
