<?xml version="1.0" encoding="UTF-8"?>
<svg xmlns="http://www.w3.org/2000/svg" xmlns:xlink="http://www.w3.org/1999/xlink" width="28" height="28" viewBox="0 0 28 28">
<defs>
<filter id="filter-remove-color" x="0%" y="0%" width="100%" height="100%">
<feColorMatrix color-interpolation-filters="sRGB" values="0 0 0 0 1 0 0 0 0 1 0 0 0 0 1 0 0 0 1 0" />
</filter>
<mask id="mask-0">
<g filter="url(#filter-remove-color)">
<rect x="-2.8" y="-2.8" width="33.6" height="33.6" fill="rgb(0%, 0%, 0%)" fill-opacity="0.2"/>
</g>
</mask>
<clipPath id="clip-0">
<rect x="0" y="0" width="28" height="28"/>
</clipPath>
<g id="source-7" clip-path="url(#clip-0)">
<path fill-rule="evenodd" fill="rgb(100%, 100%, 100%)" fill-opacity="1" stroke-width="1.24142" stroke-linecap="butt" stroke-linejoin="miter" stroke="rgb(100%, 100%, 100%)" stroke-opacity="1" stroke-miterlimit="4" d="M 288.867188 40.214844 L 36.816406 232.145647 L 87.226562 232.145647 L 87.226562 539.946987 L 238.457031 539.946987 L 238.457031 413.719308 L 342.756696 413.719308 L 342.756696 539.946987 L 490.507812 539.946987 L 490.507812 232.145647 L 540.917969 232.145647 Z M 288.867188 40.214844 " transform="matrix(0.0482759, 0, 0, 0.0482759, 0, 0)"/>
</g>
</defs>
<path fill-rule="nonzero" fill="rgb(6.666667%, 6.666667%, 6.666667%)" fill-opacity="1" stroke-width="3.408" stroke-linecap="butt" stroke-linejoin="miter" stroke="rgb(93.333333%, 93.333333%, 93.333333%)" stroke-opacity="1" stroke-miterlimit="4" d="M 66.269531 1.780134 C 24.921875 1.780134 1.699219 23.141741 1.699219 66.835938 L 1.699219 516.967076 C 1.699219 557.748326 22.575335 579.190848 63.922991 579.190848 L 515.915179 579.190848 C 557.262835 579.190848 578.138951 558.881138 578.138951 516.967076 L 578.138951 66.835938 C 578.138951 24.193638 557.262835 1.780134 514.620536 1.780134 C 514.620536 1.780134 66.107701 1.618304 66.269531 1.780134 Z M 66.269531 1.780134 " transform="matrix(0.0482759, 0, 0, 0.0482759, 0, 0)"/>
<g mask="url(#mask-0)">
<use xlink:href="#source-7"/>
</g>
<path fill="none" stroke-width="20" stroke-linecap="butt" stroke-linejoin="round" stroke="rgb(100%, 100%, 100%)" stroke-opacity="1" stroke-miterlimit="4" d="M 288.867188 30.181362 L 36.816406 222.112165 L 87.226562 222.112165 L 87.226562 539.946987 L 238.457031 539.946987 L 238.457031 413.719308 L 342.756696 413.719308 L 342.756696 539.946987 L 490.507812 539.946987 L 490.507812 222.112165 L 540.917969 222.112165 Z M 288.867188 30.181362 " transform="matrix(0.0482759, 0, 0, 0.0482759, 0, 0)"/>
<path fill-rule="nonzero" fill="rgb(100%, 100%, 100%)" fill-opacity="1" d="M 14.417969 10.25 C 14.429688 10.257812 14.46875 10.265625 14.542969 10.28125 C 15.671875 10.464844 16.523438 10.808594 17.089844 11.304688 C 17.660156 11.796875 17.941406 12.449219 17.941406 13.25 C 17.941406 14.074219 17.632812 14.785156 17.007812 15.390625 C 16.382812 15.992188 15.519531 16.320312 14.417969 16.371094 L 14.417969 17.648438 L 13.53125 17.648438 L 13.53125 16.386719 C 12.40625 16.277344 11.542969 15.96875 10.941406 15.457031 C 10.339844 14.945312 10 14.226562 9.921875 13.308594 L 11.410156 13.082031 C 11.527344 13.773438 11.761719 14.308594 12.117188 14.683594 C 12.46875 15.054688 12.941406 15.269531 13.53125 15.320312 L 13.53125 11.304688 C 12.410156 11.097656 11.570312 10.753906 11.015625 10.273438 C 10.457031 9.792969 10.179688 9.171875 10.179688 8.414062 C 10.179688 7.664062 10.453125 7.015625 11.007812 6.476562 C 11.558594 5.9375 12.398438 5.625 13.53125 5.542969 L 13.53125 4.9375 L 14.417969 4.9375 L 14.417969 5.542969 C 15.355469 5.621094 16.09375 5.875 16.636719 6.296875 C 17.175781 6.722656 17.515625 7.320312 17.652344 8.085938 L 16.105469 8.273438 C 16.015625 7.796875 15.832031 7.421875 15.550781 7.144531 C 15.269531 6.863281 14.890625 6.6875 14.417969 6.605469 Z M 13.53125 10.097656 L 13.53125 6.59375 C 12.929688 6.679688 12.46875 6.886719 12.148438 7.207031 C 11.828125 7.527344 11.667969 7.898438 11.667969 8.316406 C 11.667969 8.796875 11.835938 9.179688 12.164062 9.457031 C 12.496094 9.734375 12.953125 9.949219 13.53125 10.097656 Z M 14.417969 15.320312 C 14.996094 15.246094 15.472656 15.03125 15.847656 14.679688 C 16.222656 14.324219 16.410156 13.878906 16.410156 13.34375 C 16.410156 12.871094 16.269531 12.492188 15.984375 12.203125 C 15.703125 11.917969 15.179688 11.671875 14.417969 11.472656 Z M 14.417969 15.320312 "/>
<path fill="none" stroke-width="30" stroke-linecap="round" stroke-linejoin="round" stroke="rgb(100%, 100%, 100%)" stroke-opacity="1" stroke-miterlimit="4" d="M 455.391303 43.435345 L 455.391303 308.432555 " transform="matrix(0.0482759, 0, 0, 0.0482759, -8.050814, 2.824996)"/>
</svg>
