<?xml version="1.0" encoding="UTF-8"?>
<svg xmlns="http://www.w3.org/2000/svg" xmlns:xlink="http://www.w3.org/1999/xlink" width="28" height="28" viewBox="0 0 28 28">
<defs>
<filter id="filter-remove-color" x="0%" y="0%" width="100%" height="100%">
<feColorMatrix color-interpolation-filters="sRGB" values="0 0 0 0 1 0 0 0 0 1 0 0 0 0 1 0 0 0 1 0" />
</filter>
<mask id="mask-0">
<g filter="url(#filter-remove-color)">
<rect x="-2.8" y="-2.8" width="33.6" height="33.6" fill="rgb(0%, 0%, 0%)" fill-opacity="0.2"/>
</g>
</mask>
<clipPath id="clip-0">
<rect x="0" y="0" width="28" height="28"/>
</clipPath>
<g id="source-7" clip-path="url(#clip-0)">
<path fill-rule="evenodd" fill="rgb(100%, 100%, 100%)" fill-opacity="1" stroke-width="1.24142" stroke-linecap="butt" stroke-linejoin="miter" stroke="rgb(100%, 100%, 100%)" stroke-opacity="1" stroke-miterlimit="4" d="M 286.925223 44.017857 L 34.874442 235.948661 L 85.284598 235.948661 L 85.284598 543.75 L 488.565848 543.75 L 488.565848 235.948661 L 538.976004 235.948661 Z M 286.925223 44.017857 " transform="matrix(0.0482759, 0, 0, 0.0482759, 0, 0)"/>
</g>
</defs>
<path fill-rule="nonzero" fill="rgb(6.666667%, 6.666667%, 6.666667%)" fill-opacity="1" stroke-width="3.408" stroke-linecap="butt" stroke-linejoin="miter" stroke="rgb(93.333333%, 93.333333%, 93.333333%)" stroke-opacity="1" stroke-miterlimit="4" d="M 66.269531 1.780134 C 24.921875 1.780134 1.699219 23.141741 1.699219 66.835938 L 1.699219 516.967076 C 1.699219 557.748326 22.575335 579.190848 63.922991 579.190848 L 515.915179 579.190848 C 557.262835 579.190848 578.138951 558.881138 578.138951 516.967076 L 578.138951 66.835938 C 578.138951 24.193638 557.262835 1.780134 514.620536 1.780134 C 514.620536 1.780134 66.107701 1.618304 66.269531 1.780134 Z M 66.269531 1.780134 " transform="matrix(0.0482759, 0, 0, 0.0482759, 0, 0)"/>
<g mask="url(#mask-0)">
<use xlink:href="#source-7"/>
</g>
<path fill-rule="nonzero" fill="rgb(100%, 100%, 100%)" fill-opacity="1" stroke-width="3.434087" stroke-linecap="round" stroke-linejoin="round" stroke="rgb(100%, 100%, 100%)" stroke-opacity="1" stroke-miterlimit="4" d="M 424.457374 167.197122 C 424.661933 167.257514 425.480171 167.499084 426.860947 167.801047 C 448.390822 172.028523 468.386502 179.698373 479.228149 190.870988 C 490.069797 201.983212 495.49062 216.598201 495.49062 234.715956 C 495.49062 253.196066 489.558398 269.260476 477.642814 282.848792 C 465.77837 296.376716 445.52699 303.744603 424.457374 304.952453 L 415.61018 318.721947 L 411.365573 318.721947 L 411.365573 305.254416 C 389.937977 302.838715 373.470947 295.833183 362.015621 284.358605 C 350.509156 272.823634 344.065535 256.698832 342.58248 235.984199 L 371.016234 230.911227 C 373.215248 246.492497 377.664414 258.510607 384.414874 266.905167 C 391.114194 275.299727 400.114807 280.131129 411.365573 281.278586 L 411.365573 190.870988 C 390.040257 186.220765 374.033485 178.490522 363.396397 167.680262 C 352.810449 156.809609 347.491905 142.858937 347.491905 125.828248 C 347.491905 108.918343 352.759309 94.363746 363.242978 82.22485 C 373.777786 70.085954 389.835698 63.02003 411.365573 61.147862 L 411.365573 47.559546 L 424.457374 47.559546 L 424.457374 61.147862 C 442.35632 62.959637 460.255266 68.636534 470.534375 78.178552 C 480.864624 87.780962 487.308245 101.188101 489.967517 118.399968 L 460.459826 122.687837 C 458.772211 111.937969 455.243561 103.483016 449.873877 97.202195 C 444.504193 90.921373 433.509127 86.935467 424.457374 85.123691 Z M 411.365573 163.694356 L 411.365573 84.821729 C 399.910248 86.814682 391.114194 91.404513 385.028552 98.591222 C 378.942911 105.838325 375.87452 114.172492 375.87452 123.654117 C 375.87452 134.464378 379.04519 143.040115 385.335391 149.260544 C 391.676732 155.541366 400.319366 160.312375 411.365573 163.694356 Z M 424.457374 281.278586 C 435.503581 279.587596 448.390822 274.756195 455.5504 266.844775 C 462.709979 258.872963 466.289768 248.847805 466.289768 236.769301 C 466.289768 226.140218 463.579356 217.564481 458.158532 211.102482 C 452.737709 204.640482 438.98109 199.144763 424.457374 194.615325 Z M 424.457374 281.278586 " transform="matrix(0.0763837, 0, 0, 0.064681, -18.171619, 3.103487)"/>
<path fill="none" stroke-width="46.164951" stroke-linecap="round" stroke-linejoin="round" stroke="rgb(100%, 100%, 100%)" stroke-opacity="1" stroke-miterlimit="4" d="M 287.410714 131.325335 L 287.410714 493.582589 " transform="matrix(0.0482759, 0, 0, 0.0482759, 0, 0)"/>
<path fill="none" stroke-width="20" stroke-linecap="butt" stroke-linejoin="round" stroke="rgb(100%, 100%, 100%)" stroke-opacity="1" stroke-miterlimit="4" d="M 286.925223 33.984375 L 34.874442 225.915179 L 85.284598 225.915179 L 85.284598 543.75 L 488.565848 543.75 L 488.565848 225.915179 L 538.976004 225.915179 Z M 286.925223 33.984375 " transform="matrix(0.0482759, 0, 0, 0.0482759, 0, 0)"/>
</svg>
