<?xml version="1.0" encoding="UTF-8"?>
<svg xmlns="http://www.w3.org/2000/svg" xmlns:xlink="http://www.w3.org/1999/xlink" width="28" height="28" viewBox="0 0 28 28">
<defs>
<filter id="filter-remove-color" x="0%" y="0%" width="100%" height="100%">
<feColorMatrix color-interpolation-filters="sRGB" values="0 0 0 0 1 0 0 0 0 1 0 0 0 0 1 0 0 0 1 0" />
</filter>
<mask id="mask-0">
<g filter="url(#filter-remove-color)">
<rect x="-2.8" y="-2.8" width="33.6" height="33.6" fill="rgb(0%, 0%, 0%)" fill-opacity="0.5"/>
</g>
</mask>
<clipPath id="clip-0">
<rect x="0" y="0" width="28" height="28"/>
</clipPath>
<g id="source-9" clip-path="url(#clip-0)">
<path fill-rule="nonzero" fill="rgb(100%, 100%, 100%)" fill-opacity="1" d="M 13.882812 4.179688 L 13.882812 4.183594 L 14.378906 4.183594 L 14.378906 4.179688 Z M 14.378906 3.316406 L 14.378906 4.515625 C 14.886719 4.546875 15.273438 4.667969 15.542969 4.878906 C 15.808594 5.085938 15.984375 5.371094 16.066406 5.734375 L 14.800781 5.933594 C 14.738281 5.769531 14.683594 5.660156 14.632812 5.597656 C 14.582031 5.535156 14.496094 5.472656 14.378906 5.410156 L 14.378906 6.390625 C 15.066406 6.574219 15.527344 6.769531 15.757812 6.972656 C 16.0625 7.246094 16.214844 7.59375 16.214844 8.015625 C 16.214844 8.261719 16.160156 8.488281 16.050781 8.691406 C 15.941406 8.898438 15.800781 9.070312 15.628906 9.207031 C 15.457031 9.347656 15.277344 9.445312 15.085938 9.507812 C 14.890625 9.570312 14.65625 9.609375 14.378906 9.617188 L 14.378906 10.261719 L 13.882812 10.261719 L 13.882812 9.617188 C 13.550781 9.589844 13.28125 9.535156 13.074219 9.457031 C 12.867188 9.378906 12.6875 9.269531 12.539062 9.132812 C 12.386719 8.996094 12.269531 8.847656 12.1875 8.6875 C 12.109375 8.527344 12.046875 8.335938 12.003906 8.109375 L 13.375 7.949219 C 13.417969 8.171875 13.472656 8.335938 13.542969 8.433594 C 13.609375 8.535156 13.726562 8.621094 13.882812 8.699219 L 13.882812 7.5 C 13.425781 7.375 13.101562 7.265625 12.910156 7.171875 C 12.71875 7.078125 12.550781 6.929688 12.414062 6.726562 C 12.273438 6.519531 12.203125 6.273438 12.203125 5.976562 C 12.203125 5.574219 12.34375 5.238281 12.625 4.964844 C 12.90625 4.695312 13.328125 4.546875 13.882812 4.515625 L 13.882812 3.316406 L 4.332031 3.316406 L 4.332031 10.933594 L 23.828125 10.933594 L 23.828125 3.316406 Z M 13.882812 5.394531 C 13.738281 5.441406 13.636719 5.5 13.578125 5.570312 C 13.523438 5.640625 13.496094 5.722656 13.496094 5.816406 C 13.496094 5.917969 13.523438 6.003906 13.582031 6.078125 C 13.640625 6.152344 13.742188 6.210938 13.882812 6.261719 Z M 14.378906 7.648438 L 14.378906 8.734375 C 14.570312 8.691406 14.710938 8.621094 14.800781 8.519531 C 14.890625 8.421875 14.933594 8.3125 14.933594 8.191406 C 14.933594 8.085938 14.898438 7.984375 14.820312 7.894531 C 14.746094 7.808594 14.597656 7.722656 14.378906 7.648438 Z M 14.378906 7.648438 "/>
</g>
</defs>
<path fill-rule="nonzero" fill="rgb(6.666667%, 6.666667%, 6.666667%)" fill-opacity="1" stroke-width="3.408" stroke-linecap="butt" stroke-linejoin="miter" stroke="rgb(93.333333%, 93.333333%, 93.333333%)" stroke-opacity="1" stroke-miterlimit="4" d="M 66.269531 1.780134 C 24.921875 1.780134 1.699219 23.141741 1.699219 66.835938 L 1.699219 516.967076 C 1.699219 557.748326 22.575335 579.190848 63.922991 579.190848 L 515.915179 579.190848 C 557.262835 579.190848 578.138951 558.881138 578.138951 516.967076 L 578.138951 66.835938 C 578.138951 24.193638 557.262835 1.780134 514.620536 1.780134 C 514.620536 1.780134 66.107701 1.618304 66.269531 1.780134 Z M 66.269531 1.780134 " transform="matrix(0.0482759, 0, 0, 0.0482759, 0, 0)"/>
<path fill-rule="nonzero" fill="rgb(100%, 100%, 100%)" fill-opacity="1" d="M 20.949219 10.480469 C 18.878906 10.535156 17.214844 12.230469 17.214844 14.316406 C 17.214844 16.433594 18.933594 18.152344 21.050781 18.152344 C 23.167969 18.152344 24.886719 16.433594 24.886719 14.316406 C 24.886719 12.199219 23.167969 10.480469 21.050781 10.480469 C 21.015625 10.480469 20.984375 10.480469 20.949219 10.480469 Z M 21.277344 11.765625 C 21.710938 11.765625 22.148438 11.882812 22.59375 12.113281 L 22.289062 13.347656 C 21.980469 13.0625 21.65625 12.921875 21.324219 12.921875 C 20.882812 12.921875 20.585938 13.117188 20.433594 13.511719 L 21.65625 13.511719 L 21.507812 14.128906 L 20.3125 14.128906 C 20.308594 14.175781 20.308594 14.242188 20.308594 14.328125 L 20.308594 14.507812 L 21.570312 14.507812 L 21.425781 15.125 L 20.394531 15.125 C 20.527344 15.546875 20.820312 15.757812 21.265625 15.757812 C 21.753906 15.757812 22.210938 15.601562 22.636719 15.28125 L 22.636719 16.550781 C 22.28125 16.792969 21.855469 16.914062 21.355469 16.914062 C 20.546875 16.914062 19.949219 16.730469 19.5625 16.359375 C 19.175781 15.992188 18.941406 15.578125 18.855469 15.125 L 18.242188 15.125 L 18.402344 14.507812 L 18.777344 14.507812 C 18.773438 14.472656 18.769531 14.414062 18.769531 14.328125 C 18.769531 14.234375 18.773438 14.167969 18.777344 14.128906 L 18.324219 14.128906 L 18.484375 13.511719 L 18.855469 13.511719 C 19.148438 12.347656 19.957031 11.765625 21.277344 11.765625 Z M 21.277344 11.765625 "/>
<path fill-rule="nonzero" fill="rgb(100%, 100%, 100%)" fill-opacity="1" d="M 7.546875 13.574219 C 5.472656 13.625 3.808594 15.324219 3.808594 17.40625 C 3.808594 19.523438 5.527344 21.242188 7.644531 21.242188 C 9.761719 21.242188 11.480469 19.523438 11.480469 17.40625 C 11.480469 15.289062 9.761719 13.574219 7.644531 13.574219 C 7.613281 13.574219 7.578125 13.570312 7.546875 13.574219 Z M 7.585938 14.570312 C 7.976562 14.570312 8.285156 14.613281 8.511719 14.699219 C 8.738281 14.785156 8.929688 14.933594 9.085938 15.132812 C 9.246094 15.335938 9.351562 15.582031 9.410156 15.867188 L 8.117188 16.074219 C 8.050781 15.832031 7.972656 15.671875 7.890625 15.589844 C 7.804688 15.511719 7.707031 15.472656 7.601562 15.472656 C 7.46875 15.472656 7.363281 15.515625 7.28125 15.601562 C 7.199219 15.6875 7.15625 15.808594 7.15625 15.96875 C 7.15625 16.050781 7.167969 16.132812 7.183594 16.210938 C 7.199219 16.289062 7.253906 16.472656 7.34375 16.761719 L 8.375 16.761719 L 8.375 17.574219 L 7.464844 17.574219 C 7.453125 17.765625 7.417969 17.9375 7.359375 18.09375 C 7.3125 18.210938 7.234375 18.332031 7.121094 18.460938 C 7.25 18.429688 7.355469 18.414062 7.449219 18.414062 C 7.5625 18.414062 7.714844 18.4375 7.898438 18.484375 C 8.152344 18.542969 8.355469 18.570312 8.507812 18.570312 C 8.632812 18.570312 8.738281 18.5625 8.828125 18.539062 C 8.921875 18.519531 9.042969 18.472656 9.191406 18.40625 L 9.652344 19.414062 C 9.429688 19.527344 9.234375 19.609375 9.0625 19.652344 C 8.894531 19.695312 8.710938 19.714844 8.515625 19.714844 C 8.304688 19.714844 8.0625 19.675781 7.785156 19.601562 C 7.425781 19.503906 7.203125 19.445312 7.117188 19.429688 C 7.03125 19.414062 6.9375 19.40625 6.839844 19.40625 C 6.546875 19.40625 6.226562 19.507812 5.871094 19.714844 L 5.433594 18.75 C 5.910156 18.410156 6.148438 18.066406 6.148438 17.726562 C 6.148438 17.707031 6.144531 17.65625 6.140625 17.574219 L 5.433594 17.574219 L 5.433594 16.761719 L 5.941406 16.761719 C 5.855469 16.464844 5.804688 16.289062 5.792969 16.242188 C 5.78125 16.171875 5.773438 16.082031 5.773438 15.972656 C 5.773438 15.691406 5.847656 15.4375 6 15.210938 C 6.148438 14.988281 6.347656 14.824219 6.59375 14.722656 C 6.839844 14.621094 7.171875 14.570312 7.585938 14.570312 Z M 7.585938 14.570312 "/>
<g mask="url(#mask-0)">
<use xlink:href="#source-9"/>
</g>
<path fill="none" stroke-width="10" stroke-linecap="round" stroke-linejoin="round" stroke="rgb(100%, 100%, 100%)" stroke-opacity="1" stroke-miterlimit="4" d="M 85.203683 67.240513 L 496.819196 67.240513 L 496.819196 231.498326 L 85.203683 231.498326 Z M 85.203683 67.240513 " transform="matrix(0.0482759, 0, 0, 0.0482759, 0, 0)"/>
<path fill-rule="nonzero" fill="rgb(100%, 100%, 100%)" fill-opacity="1" d="M 15.382812 18.367188 C 13.308594 18.417969 11.644531 20.117188 11.644531 22.199219 C 11.644531 24.316406 13.363281 26.039062 15.480469 26.039062 C 17.597656 26.039062 19.316406 24.316406 19.316406 22.199219 C 19.316406 20.082031 17.597656 18.367188 15.480469 18.367188 C 15.449219 18.367188 15.414062 18.363281 15.382812 18.367188 Z M 13.125 20.007812 L 14.675781 20.007812 L 15.457031 21.695312 L 16.222656 20.007812 L 17.777344 20.007812 L 16.59375 22.152344 L 17.601562 22.152344 L 17.601562 22.902344 L 16.171875 22.902344 L 16.171875 23.3125 L 17.601562 23.3125 L 17.601562 24.074219 L 16.171875 24.074219 L 16.171875 24.984375 L 14.757812 24.984375 L 14.757812 24.074219 L 13.304688 24.074219 L 13.304688 23.3125 L 14.757812 23.3125 L 14.757812 22.902344 L 13.304688 22.902344 L 13.304688 22.152344 L 14.34375 22.152344 Z M 13.125 20.007812 "/>
</svg>
