<?xml version="1.0" encoding="UTF-8"?>
<svg xmlns="http://www.w3.org/2000/svg" xmlns:xlink="http://www.w3.org/1999/xlink" width="24" height="24" viewBox="0 0 24 24">
<path fill-rule="nonzero" fill="rgb(0%, 0%, 0%)" fill-opacity="1" d="M 12.042969 1.433594 L 14.398438 3.199219 L 16 3.199219 L 18.355469 1.433594 C 18.703125 1.175781 19.199219 1.421875 19.199219 1.855469 L 19.199219 7.199219 C 19.199219 8.355469 18.363281 9.09375 17.601562 9.714844 L 17.601562 16 L 18.878906 19.839844 L 20.007812 20.40625 C 20.496094 20.648438 20.800781 21.144531 20.800781 21.683594 C 20.800781 22.078125 20.480469 22.398438 20.085938 22.398438 L 6.800781 22.398438 C 4.828125 22.398438 3.199219 20.800781 3.199219 18.742188 C 3.199219 15.269531 3.925781 12.6875 4.390625 10.953125 C 4.625 10.082031 4.855469 9.429688 5.019531 8.980469 C 5.113281 8.730469 5.207031 8.496094 5.328125 8.265625 C 6.046875 6.898438 8.117188 7.929688 7.476562 9.332031 C 7.398438 9.503906 7.324219 9.683594 7.261719 9.839844 C 7.117188 10.210938 6.921875 10.789062 6.707031 11.574219 C 6.316406 13.039062 5.878906 15.234375 5.691406 18.1875 C 6.28125 14.890625 9.566406 11.582031 12.214844 9.210938 C 11.664062 8.691406 11.203125 8.0625 11.203125 7.199219 L 11.203125 1.851562 C 11.203125 1.417969 11.699219 1.171875 12.042969 1.433594 Z M 12.042969 1.433594 "/>
</svg>
