<?xml version="1.0" encoding="UTF-8"?>
<svg xmlns="http://www.w3.org/2000/svg" xmlns:xlink="http://www.w3.org/1999/xlink" width="24" height="24" viewBox="0 0 24 24">
<path fill-rule="nonzero" fill="rgb(0%, 0%, 0%)" fill-opacity="1" d="M 24 9.761719 C 24 11.960938 21.820312 10.871094 21.820312 10.871094 L 20 11.199219 L 17.601562 11.199219 C 17.066406 12.441406 16.242188 13.539062 15.199219 14.398438 C 15.039062 15.046875 14.753906 15.660156 14.363281 16.199219 C 14.238281 16.34375 14.265625 16.519531 14.253906 16.726562 L 14.398438 20.40625 C 14.394531 20.515625 14.347656 20.617188 14.265625 20.695312 C 14.1875 20.769531 14.082031 20.808594 13.972656 20.808594 C 13.882812 20.804688 13.796875 20.773438 13.726562 20.710938 C 13.660156 20.652344 13.613281 20.570312 13.601562 20.480469 L 12.800781 15.199219 L 6.398438 15.199219 L 6.398438 20.40625 C 6.398438 20.507812 6.359375 20.609375 6.285156 20.683594 C 6.210938 20.757812 6.109375 20.800781 6.003906 20.800781 C 5.914062 20.796875 5.828125 20.765625 5.757812 20.707031 C 5.6875 20.648438 5.640625 20.570312 5.621094 20.480469 L 4.800781 16 L 4.800781 15.199219 C 4.035156 15.214844 3.273438 15.160156 2.519531 15.039062 C 2.515625 15.476562 2.414062 15.90625 2.230469 16.300781 C 2.042969 16.691406 1.773438 17.042969 1.441406 17.320312 C 1.234375 17.453125 1.203125 17.660156 1.226562 17.9375 L 1.53125 20.398438 C 1.53125 20.507812 1.488281 20.609375 1.414062 20.683594 C 1.339844 20.757812 1.238281 20.800781 1.132812 20.800781 C 1.046875 20.800781 0.964844 20.773438 0.898438 20.722656 C 0.832031 20.671875 0.785156 20.601562 0.761719 20.523438 L 0.0820312 17.800781 C 0.0585938 17.71875 0.0546875 17.632812 0.0703125 17.550781 C 0.0859375 17.46875 0.117188 17.390625 0.167969 17.320312 C 0.867188 16.234375 0.0898438 13.242188 0.0898438 13.242188 C 0.0351562 13.058594 0.00390625 12.867188 0 12.675781 L 0 8.800781 C -0.00390625 8.273438 0.121094 7.753906 0.359375 7.289062 C 0.601562 6.820312 0.953125 6.417969 1.382812 6.117188 C 1.816406 5.816406 2.3125 5.625 2.832031 5.558594 C 3.355469 5.492188 3.886719 5.554688 4.378906 5.738281 C 4.378906 5.738281 4.539062 5.785156 4.605469 5.816406 C 6.628906 6.09375 8.679688 6.113281 10.707031 5.875 L 10.996094 5.777344 C 11.644531 5.539062 12.359375 5.539062 13.011719 5.777344 C 13.136719 5.808594 13.257812 5.859375 13.371094 5.921875 C 13.53125 6 13.6875 6.089844 13.832031 6.195312 C 14.265625 6.371094 14.734375 6.441406 15.199219 6.398438 L 16.800781 6.398438 L 16.800781 4.800781 L 17.601562 5.601562 C 18.398438 3.199219 21.601562 4 21.601562 4 C 21.089844 4.011719 20.59375 4.167969 20.167969 4.453125 C 19.742188 4.734375 19.40625 5.132812 19.199219 5.601562 L 23.199219 8.800781 C 23.292969 8.746094 23.394531 8.710938 23.496094 8.691406 C 23.632812 8.691406 23.761719 8.746094 23.855469 8.84375 C 23.949219 8.9375 24 9.070312 24 9.203125 Z M 24 9.761719 "/>
</svg>
