<?xml version="1.0" encoding="UTF-8"?>
<svg xmlns="http://www.w3.org/2000/svg" xmlns:xlink="http://www.w3.org/1999/xlink" width="28" height="28" viewBox="0 0 28 28">
<path fill-rule="nonzero" fill="rgb(6.666667%, 6.666667%, 6.666667%)" fill-opacity="1" stroke-width="3.408" stroke-linecap="butt" stroke-linejoin="miter" stroke="rgb(93.333333%, 93.333333%, 93.333333%)" stroke-opacity="1" stroke-miterlimit="4" d="M 66.269531 1.780134 C 24.921875 1.780134 1.699219 23.141741 1.699219 66.835938 L 1.699219 516.967076 C 1.699219 557.748326 22.575335 579.190848 63.922991 579.190848 L 515.915179 579.190848 C 557.262835 579.190848 578.138951 558.881138 578.138951 516.967076 L 578.138951 66.835938 C 578.138951 24.193638 557.262835 1.780134 514.620536 1.780134 C 514.620536 1.780134 66.107701 1.618304 66.269531 1.780134 Z M 66.269531 1.780134 " transform="matrix(0.0482759, 0, 0, 0.0482759, 0, 0)"/>
<path fill-rule="nonzero" fill="rgb(100%, 100%, 100%)" fill-opacity="1" d="M 14.121094 21.996094 L 14.621094 26.109375 C 14.683594 26.554688 14.953125 26.816406 15.429688 26.890625 C 15.757812 26.9375 16.046875 26.84375 16.292969 26.613281 C 16.542969 26.378906 16.640625 26.101562 16.597656 25.769531 L 16.007812 21.101562 C 15.945312 20.753906 15.738281 20.546875 15.539062 20.269531 L 14.007812 18.132812 L 15.488281 15.554688 L 16.226562 16.496094 C 16.289062 16.585938 16.378906 16.652344 16.5 16.699219 L 18.164062 17.503906 C 18.238281 17.535156 18.304688 17.550781 18.363281 17.550781 C 18.574219 17.550781 18.753906 17.46875 18.902344 17.304688 C 19.050781 17.136719 19.128906 16.953125 19.128906 16.742188 C 19.128906 16.367188 18.949219 16.121094 18.589844 16 L 17.304688 15.285156 L 15.464844 13.0625 C 15.210938 12.761719 14.851562 12.574219 14.386719 12.5 C 13.582031 12.382812 12.976562 12.664062 12.570312 13.355469 L 10.527344 16.875 C 10.394531 17.101562 10.335938 17.378906 10.347656 17.707031 L 10.417969 22.171875 L 8.867188 25.492188 C 8.808594 25.628906 8.769531 25.742188 8.757812 25.828125 C 8.710938 26.113281 8.769531 26.363281 8.9375 26.582031 C 9.101562 26.800781 9.324219 26.929688 9.609375 26.976562 C 10.085938 27.050781 10.425781 26.886719 10.617188 26.480469 L 12.324219 22.84375 C 12.382812 22.710938 12.414062 22.570312 12.414062 22.417969 L 12.390625 19.660156 Z M 15.308594 12.300781 C 15.710938 12.300781 16.0625 12.152344 16.363281 11.863281 C 16.664062 11.570312 16.8125 11.214844 16.8125 10.796875 C 16.8125 10.390625 16.664062 10.039062 16.363281 9.742188 C 16.0625 9.441406 15.710938 9.292969 15.308594 9.292969 C 14.890625 9.292969 14.535156 9.441406 14.242188 9.742188 C 13.949219 10.039062 13.804688 10.390625 13.804688 10.796875 C 13.804688 11.214844 13.949219 11.570312 14.242188 11.863281 C 14.535156 12.152344 14.890625 12.300781 15.308594 12.300781 Z M 10.058594 16.40625 L 12.300781 12.546875 C 12.453125 12.292969 12.398438 12.097656 12.144531 11.960938 L 11.425781 11.535156 C 11.171875 11.386719 10.976562 11.4375 10.84375 11.695312 L 8.597656 15.554688 C 8.449219 15.808594 8.503906 16.003906 8.757812 16.136719 L 9.472656 16.5625 C 9.730469 16.710938 9.921875 16.660156 10.058594 16.40625 Z M 10.058594 16.40625 "/>
<path fill="none" stroke-width="12.867066" stroke-linecap="round" stroke-linejoin="miter" stroke="rgb(100%, 100%, 100%)" stroke-opacity="1" stroke-miterlimit="4" d="M 378.763951 360.31529 L 378.763951 540.675223 " transform="matrix(0.0482759, 0, 0, 0.0482759, 0, 0)"/>
<path fill-rule="evenodd" fill="rgb(100%, 100%, 100%)" fill-opacity="1" stroke-width="22.944344" stroke-linecap="round" stroke-linejoin="round" stroke="rgb(100%, 100%, 100%)" stroke-opacity="1" stroke-miterlimit="4" d="M 31.637835 267.239397 L 288.300781 130.41183 L 544.963728 267.239397 L 527.728795 284.717076 L 441.958705 250.166295 L 288.219866 231.636719 L 134.076451 249.842634 L 48.791853 284.393415 Z M 31.637835 267.239397 " transform="matrix(0.0482759, 0, 0, 0.0482759, 0, -4.537931)"/>
<path fill-rule="nonzero" fill="rgb(100%, 100%, 100%)" fill-opacity="1" stroke-width="25.165224" stroke-linecap="round" stroke-linejoin="round" stroke="rgb(100%, 100%, 100%)" stroke-opacity="1" stroke-miterlimit="4" d="M 456.766183 266.592076 L 488.808594 266.592076 L 488.808594 574.717076 L 456.766183 574.717076 Z M 456.766183 266.592076 " transform="matrix(0.0482759, 0, 0, 0.0482759, 0, -4.537931)"/>
<path fill-rule="nonzero" fill="rgb(100%, 100%, 100%)" fill-opacity="1" stroke-width="25.165224" stroke-linecap="round" stroke-linejoin="round" stroke="rgb(100%, 100%, 100%)" stroke-opacity="1" stroke-miterlimit="4" d="M 84.799107 266.592076 L 116.760603 266.592076 L 116.760603 574.717076 L 84.799107 574.717076 Z M 84.799107 266.592076 " transform="matrix(0.0482759, 0, 0, 0.0482759, 0, -4.537931)"/>
</svg>
