<?xml version="1.0" encoding="UTF-8"?>
<svg xmlns="http://www.w3.org/2000/svg" xmlns:xlink="http://www.w3.org/1999/xlink" width="28" height="28" viewBox="0 0 28 28">
<defs>
<filter id="filter-remove-color" x="0%" y="0%" width="100%" height="100%">
<feColorMatrix color-interpolation-filters="sRGB" values="0 0 0 0 1 0 0 0 0 1 0 0 0 0 1 0 0 0 1 0" />
</filter>
<mask id="mask-0">
<g filter="url(#filter-remove-color)">
<rect x="-2.8" y="-2.8" width="33.6" height="33.6" fill="rgb(0%, 0%, 0%)" fill-opacity="0.25"/>
</g>
</mask>
<clipPath id="clip-0">
<rect x="0" y="0" width="28" height="28"/>
</clipPath>
<g id="source-7" clip-path="url(#clip-0)">
<path fill-rule="evenodd" fill="rgb(100%, 100%, 100%)" fill-opacity="1" stroke-width="1.369654" stroke-linecap="butt" stroke-linejoin="miter" stroke="rgb(100%, 100%, 100%)" stroke-opacity="1" stroke-miterlimit="4" d="M 289.514509 29.695871 L 31.314174 257.714844 L 82.938058 257.714844 L 82.938058 552.327009 L 237.890625 552.327009 L 237.890625 378.44029 L 344.698661 378.44029 L 344.698661 552.327009 L 496.010045 552.327009 L 496.010045 257.714844 L 547.633929 257.714844 Z M 289.514509 29.695871 " transform="matrix(0.0482759, 0, 0, 0.0482759, 0, 0)"/>
</g>
</defs>
<path fill-rule="nonzero" fill="rgb(6.666667%, 6.666667%, 6.666667%)" fill-opacity="1" stroke-width="3.408" stroke-linecap="butt" stroke-linejoin="miter" stroke="rgb(93.333333%, 93.333333%, 93.333333%)" stroke-opacity="1" stroke-miterlimit="4" d="M 66.269531 1.780134 C 24.921875 1.780134 1.699219 23.141741 1.699219 66.835938 L 1.699219 516.967076 C 1.699219 557.748326 22.575335 579.190848 63.922991 579.190848 L 515.915179 579.190848 C 557.262835 579.190848 578.138951 558.881138 578.138951 516.967076 L 578.138951 66.835938 C 578.138951 24.193638 557.262835 1.780134 514.620536 1.780134 C 514.620536 1.780134 66.107701 1.618304 66.269531 1.780134 Z M 66.269531 1.780134 " transform="matrix(0.0482759, 0, 0, 0.0482759, 0, 0)"/>
<g mask="url(#mask-0)">
<use xlink:href="#source-7"/>
</g>
<path fill="none" stroke-width="12.805337" stroke-linecap="round" stroke-linejoin="round" stroke="rgb(100%, 100%, 100%)" stroke-opacity="1" stroke-miterlimit="4" d="M 289.514509 29.695871 L 31.314174 257.714844 L 82.938058 257.714844 L 82.938058 552.327009 L 237.890625 552.327009 L 237.890625 378.44029 L 344.698661 378.44029 L 344.698661 552.327009 L 496.010045 552.327009 L 496.010045 257.714844 L 547.633929 257.714844 Z M 289.514509 29.695871 " transform="matrix(0.0482759, 0, 0, 0.0482759, 0, 0)"/>
<path fill-rule="nonzero" fill="rgb(100%, 100%, 100%)" fill-opacity="1" d="M 6.066406 10.765625 L 8.941406 10.765625 C 9.421875 10.765625 9.792969 10.886719 10.046875 11.125 C 10.304688 11.359375 10.433594 11.65625 10.433594 12.007812 C 10.433594 12.300781 10.339844 12.554688 10.160156 12.761719 C 10.035156 12.902344 9.855469 13.015625 9.621094 13.097656 C 9.980469 13.183594 10.242188 13.328125 10.410156 13.539062 C 10.578125 13.75 10.664062 14.011719 10.664062 14.328125 C 10.664062 14.585938 10.605469 14.816406 10.484375 15.023438 C 10.363281 15.230469 10.199219 15.394531 9.992188 15.511719 C 9.863281 15.585938 9.667969 15.640625 9.40625 15.675781 C 9.0625 15.722656 8.832031 15.742188 8.71875 15.742188 L 6.066406 15.742188 Z M 7.617188 12.71875 L 8.285156 12.71875 C 8.523438 12.71875 8.691406 12.679688 8.785156 12.59375 C 8.878906 12.511719 8.925781 12.394531 8.925781 12.238281 C 8.925781 12.09375 8.878906 11.980469 8.785156 11.898438 C 8.691406 11.816406 8.527344 11.777344 8.292969 11.777344 L 7.617188 11.777344 Z M 7.617188 14.675781 L 8.398438 14.675781 C 8.664062 14.675781 8.851562 14.628906 8.960938 14.535156 C 9.070312 14.441406 9.121094 14.3125 9.121094 14.15625 C 9.121094 14.007812 9.070312 13.890625 8.960938 13.800781 C 8.855469 13.710938 8.664062 13.667969 8.398438 13.667969 L 7.617188 13.667969 Z M 15.390625 13.324219 L 16.472656 13.5625 C 16.414062 13.761719 16.359375 13.921875 16.308594 14.042969 C 16.257812 14.164062 16.183594 14.304688 16.089844 14.46875 L 16.609375 14.824219 C 16.671875 14.863281 16.753906 14.914062 16.851562 14.96875 L 16.109375 15.824219 C 15.972656 15.753906 15.832031 15.667969 15.6875 15.574219 C 15.539062 15.480469 15.410156 15.398438 15.292969 15.328125 C 15.054688 15.488281 14.8125 15.601562 14.574219 15.675781 C 14.242188 15.773438 13.863281 15.824219 13.441406 15.824219 C 12.777344 15.824219 12.285156 15.6875 11.960938 15.410156 C 11.636719 15.132812 11.476562 14.800781 11.476562 14.40625 C 11.476562 14.125 11.570312 13.855469 11.761719 13.601562 C 11.949219 13.351562 12.261719 13.136719 12.695312 12.964844 C 12.511719 12.742188 12.386719 12.554688 12.320312 12.390625 C 12.253906 12.230469 12.21875 12.066406 12.21875 11.898438 C 12.21875 11.542969 12.351562 11.253906 12.621094 11.023438 C 12.890625 10.796875 13.300781 10.683594 13.847656 10.683594 C 14.40625 10.683594 14.816406 10.792969 15.082031 11.007812 C 15.34375 11.226562 15.472656 11.484375 15.472656 11.789062 C 15.472656 11.957031 15.433594 12.121094 15.351562 12.277344 C 15.273438 12.433594 15.175781 12.5625 15.0625 12.65625 C 14.949219 12.753906 14.746094 12.898438 14.457031 13.09375 C 14.699219 13.335938 14.949219 13.558594 15.210938 13.769531 C 15.28125 13.628906 15.34375 13.480469 15.390625 13.324219 Z M 13.804688 12.449219 C 13.984375 12.355469 14.121094 12.246094 14.21875 12.132812 C 14.316406 12.019531 14.363281 11.910156 14.363281 11.808594 C 14.363281 11.703125 14.324219 11.613281 14.242188 11.539062 C 14.160156 11.464844 14.046875 11.429688 13.90625 11.429688 C 13.765625 11.429688 13.652344 11.46875 13.5625 11.550781 C 13.476562 11.632812 13.429688 11.730469 13.429688 11.839844 C 13.429688 11.980469 13.554688 12.183594 13.804688 12.449219 Z M 13.3125 13.660156 C 13.121094 13.792969 12.996094 13.90625 12.933594 14.003906 C 12.871094 14.097656 12.839844 14.199219 12.839844 14.304688 C 12.839844 14.46875 12.910156 14.617188 13.054688 14.746094 C 13.195312 14.875 13.382812 14.9375 13.609375 14.9375 C 13.855469 14.9375 14.132812 14.84375 14.441406 14.652344 C 14.148438 14.425781 13.769531 14.09375 13.3125 13.660156 Z M 17.644531 10.765625 L 20.523438 10.765625 C 21.003906 10.765625 21.371094 10.886719 21.628906 11.125 C 21.886719 11.359375 22.015625 11.65625 22.015625 12.007812 C 22.015625 12.300781 21.921875 12.554688 21.738281 12.761719 C 21.617188 12.902344 21.4375 13.015625 21.203125 13.097656 C 21.5625 13.183594 21.824219 13.328125 21.992188 13.539062 C 22.160156 13.75 22.246094 14.011719 22.246094 14.328125 C 22.246094 14.585938 22.1875 14.816406 22.066406 15.023438 C 21.945312 15.230469 21.78125 15.394531 21.574219 15.511719 C 21.445312 15.585938 21.25 15.640625 20.988281 15.675781 C 20.644531 15.722656 20.414062 15.742188 20.300781 15.742188 L 17.644531 15.742188 Z M 19.199219 12.71875 L 19.867188 12.71875 C 20.105469 12.71875 20.273438 12.679688 20.367188 12.59375 C 20.460938 12.511719 20.507812 12.394531 20.507812 12.238281 C 20.507812 12.09375 20.460938 11.980469 20.367188 11.898438 C 20.273438 11.816406 20.109375 11.777344 19.875 11.777344 L 19.199219 11.777344 Z M 19.199219 14.675781 L 19.980469 14.675781 C 20.246094 14.675781 20.433594 14.628906 20.542969 14.535156 C 20.648438 14.441406 20.703125 14.3125 20.703125 14.15625 C 20.703125 14.007812 20.652344 13.890625 20.542969 13.800781 C 20.4375 13.710938 20.246094 13.667969 19.976562 13.667969 L 19.199219 13.667969 Z M 19.199219 14.675781 "/>
</svg>
