<?xml version="1.0" encoding="UTF-8"?>
<svg xmlns="http://www.w3.org/2000/svg" xmlns:xlink="http://www.w3.org/1999/xlink" width="28" height="28" viewBox="0 0 28 28">
<path fill-rule="nonzero" fill="rgb(6.666667%, 6.666667%, 6.666667%)" fill-opacity="1" stroke-width="3.408" stroke-linecap="butt" stroke-linejoin="miter" stroke="rgb(93.333333%, 93.333333%, 93.333333%)" stroke-opacity="1" stroke-miterlimit="4" d="M 66.269531 1.780134 C 24.921875 1.780134 1.699219 23.141741 1.699219 66.835938 L 1.699219 516.967076 C 1.699219 557.748326 22.575335 579.190848 63.922991 579.190848 L 515.915179 579.190848 C 557.262835 579.190848 578.138951 558.881138 578.138951 516.967076 L 578.138951 66.835938 C 578.138951 24.193638 557.262835 1.780134 514.620536 1.780134 C 514.620536 1.780134 66.107701 1.618304 66.269531 1.780134 Z M 66.269531 1.780134 " transform="matrix(0.0482759, 0, 0, 0.0482759, 0, 0)"/>
<path fill-rule="nonzero" fill="rgb(100%, 100%, 100%)" fill-opacity="1" d="M 1.003906 10.132812 L 5.828125 10.132812 C 6.632812 10.132812 7.25 10.332031 7.679688 10.730469 C 8.109375 11.128906 8.324219 11.621094 8.324219 12.210938 C 8.324219 12.703125 8.171875 13.125 7.863281 13.480469 C 7.660156 13.714844 7.359375 13.898438 6.964844 14.035156 C 7.566406 14.179688 8.007812 14.429688 8.289062 14.777344 C 8.570312 15.128906 8.710938 15.570312 8.710938 16.101562 C 8.710938 16.535156 8.613281 16.921875 8.410156 17.269531 C 8.210938 17.613281 7.933594 17.886719 7.585938 18.085938 C 7.371094 18.210938 7.042969 18.304688 6.609375 18.359375 C 6.027344 18.4375 5.640625 18.472656 5.453125 18.472656 L 1.003906 18.472656 Z M 3.605469 13.40625 L 4.726562 13.40625 C 5.125 13.40625 5.40625 13.335938 5.5625 13.199219 C 5.722656 13.058594 5.800781 12.859375 5.800781 12.597656 C 5.800781 12.355469 5.722656 12.164062 5.5625 12.027344 C 5.40625 11.890625 5.132812 11.824219 4.742188 11.824219 L 3.605469 11.824219 Z M 3.605469 16.683594 L 4.917969 16.683594 C 5.363281 16.683594 5.675781 16.601562 5.855469 16.445312 C 6.039062 16.289062 6.128906 16.078125 6.128906 15.8125 C 6.128906 15.566406 6.039062 15.367188 5.859375 15.21875 C 5.679688 15.066406 5.363281 14.992188 4.914062 14.992188 L 3.605469 14.992188 Z M 16.238281 14.417969 L 18.046875 14.820312 C 17.953125 15.15625 17.859375 15.421875 17.773438 15.625 C 17.6875 15.824219 17.5625 16.0625 17.402344 16.335938 L 18.273438 16.933594 C 18.378906 17 18.515625 17.082031 18.683594 17.175781 L 17.4375 18.609375 C 17.210938 18.488281 16.972656 18.347656 16.730469 18.191406 C 16.484375 18.03125 16.265625 17.894531 16.070312 17.78125 C 15.671875 18.046875 15.269531 18.238281 14.867188 18.359375 C 14.308594 18.527344 13.675781 18.609375 12.964844 18.609375 C 11.855469 18.609375 11.027344 18.378906 10.484375 17.917969 C 9.941406 17.453125 9.671875 16.894531 9.671875 16.234375 C 9.671875 15.757812 9.832031 15.308594 10.148438 14.886719 C 10.46875 14.464844 10.988281 14.105469 11.714844 13.816406 C 11.410156 13.445312 11.203125 13.128906 11.089844 12.855469 C 10.976562 12.585938 10.917969 12.308594 10.917969 12.027344 C 10.917969 11.4375 11.144531 10.949219 11.59375 10.566406 C 12.046875 10.183594 12.730469 9.992188 13.648438 9.992188 C 14.585938 9.992188 15.273438 10.175781 15.714844 10.539062 C 16.152344 10.902344 16.375 11.339844 16.375 11.847656 C 16.375 12.132812 16.304688 12.402344 16.171875 12.664062 C 16.035156 12.925781 15.875 13.140625 15.683594 13.304688 C 15.496094 13.464844 15.15625 13.707031 14.667969 14.03125 C 15.074219 14.4375 15.496094 14.8125 15.9375 15.164062 C 16.054688 14.929688 16.152344 14.679688 16.238281 14.417969 Z M 13.574219 12.957031 C 13.875 12.792969 14.105469 12.617188 14.269531 12.425781 C 14.433594 12.230469 14.511719 12.050781 14.511719 11.878906 C 14.511719 11.703125 14.445312 11.550781 14.308594 11.429688 C 14.171875 11.304688 13.984375 11.242188 13.746094 11.242188 C 13.511719 11.242188 13.320312 11.3125 13.171875 11.449219 C 13.023438 11.585938 12.949219 11.746094 12.949219 11.933594 C 12.949219 12.167969 13.15625 12.507812 13.574219 12.957031 Z M 12.75 14.980469 C 12.429688 15.203125 12.21875 15.394531 12.117188 15.554688 C 12.011719 15.714844 11.957031 15.882812 11.957031 16.0625 C 11.957031 16.339844 12.078125 16.585938 12.316406 16.800781 C 12.554688 17.019531 12.867188 17.125 13.25 17.125 C 13.664062 17.125 14.128906 16.964844 14.644531 16.640625 C 14.152344 16.261719 13.519531 15.710938 12.75 14.980469 Z M 19.515625 10.132812 L 24.34375 10.132812 C 25.144531 10.132812 25.761719 10.332031 26.195312 10.730469 C 26.625 11.128906 26.839844 11.621094 26.839844 12.210938 C 26.839844 12.703125 26.6875 13.125 26.378906 13.480469 C 26.171875 13.714844 25.875 13.898438 25.480469 14.035156 C 26.078125 14.179688 26.519531 14.429688 26.800781 14.777344 C 27.085938 15.128906 27.226562 15.570312 27.226562 16.101562 C 27.226562 16.535156 27.125 16.921875 26.925781 17.269531 C 26.722656 17.613281 26.449219 17.886719 26.101562 18.085938 C 25.882812 18.210938 25.558594 18.304688 25.121094 18.359375 C 24.539062 18.4375 24.15625 18.472656 23.964844 18.472656 L 19.515625 18.472656 Z M 22.117188 13.40625 L 23.238281 13.40625 C 23.640625 13.40625 23.917969 13.335938 24.078125 13.199219 C 24.234375 13.058594 24.3125 12.859375 24.3125 12.597656 C 24.3125 12.355469 24.234375 12.164062 24.078125 12.027344 C 23.917969 11.890625 23.644531 11.824219 23.253906 11.824219 L 22.117188 11.824219 Z M 22.117188 16.683594 L 23.429688 16.683594 C 23.875 16.683594 24.1875 16.601562 24.371094 16.445312 C 24.550781 16.289062 24.644531 16.078125 24.644531 15.8125 C 24.644531 15.566406 24.554688 15.367188 24.375 15.21875 C 24.191406 15.066406 23.878906 14.992188 23.425781 14.992188 L 22.117188 14.992188 Z M 22.117188 16.683594 "/>
</svg>
