<?xml version="1.0" encoding="UTF-8"?>
<svg xmlns="http://www.w3.org/2000/svg" xmlns:xlink="http://www.w3.org/1999/xlink" width="28" height="28" viewBox="0 0 28 28">
<path fill-rule="nonzero" fill="rgb(6.666667%, 6.666667%, 6.666667%)" fill-opacity="1" stroke-width="3.408" stroke-linecap="butt" stroke-linejoin="miter" stroke="rgb(93.333333%, 93.333333%, 93.333333%)" stroke-opacity="1" stroke-miterlimit="4" d="M 66.269531 1.780134 C 24.921875 1.780134 1.699219 23.141741 1.699219 66.835938 L 1.699219 516.967076 C 1.699219 557.748326 22.575335 579.190848 63.922991 579.190848 L 515.915179 579.190848 C 557.262835 579.190848 578.138951 558.881138 578.138951 516.967076 L 578.138951 66.835938 C 578.138951 24.193638 557.262835 1.780134 514.620536 1.780134 C 514.620536 1.780134 66.107701 1.618304 66.269531 1.780134 Z M 66.269531 1.780134 " transform="matrix(0.0482759, 0, 0, 0.0482759, 0, 0)"/>
<path fill-rule="nonzero" fill="rgb(100%, 100%, 100%)" fill-opacity="1" d="M 21.113281 12.089844 C 21.113281 12.636719 20.851562 12.910156 20.320312 12.910156 L 17.511719 12.910156 C 16.984375 12.910156 16.71875 12.636719 16.71875 12.089844 L 16.71875 10.753906 C 16.71875 10.226562 16.984375 9.960938 17.511719 9.960938 L 20.320312 9.960938 C 20.851562 9.960938 21.113281 10.226562 21.113281 10.753906 Z M 13.117188 12.117188 C 13.117188 12.644531 12.84375 12.910156 12.292969 12.910156 L 6.226562 12.910156 C 5.695312 12.910156 5.433594 12.644531 5.433594 12.117188 L 5.433594 10.753906 C 5.433594 10.226562 5.695312 9.960938 6.226562 9.960938 L 12.292969 9.960938 C 12.84375 9.960938 13.117188 10.226562 13.117188 10.753906 Z M 25.566406 18.496094 L 23.523438 18.496094 L 23.523438 11.40625 C 23.523438 10.3125 23.140625 9.382812 22.375 8.628906 C 21.609375 7.871094 20.6875 7.496094 19.609375 7.496094 L 6.339844 7.496094 C 5.242188 7.496094 4.316406 7.871094 3.558594 8.628906 C 2.804688 9.382812 2.425781 10.3125 2.425781 11.40625 L 2.425781 16.425781 C 2.425781 17.222656 2.710938 17.902344 3.277344 18.46875 C 3.84375 19.035156 4.523438 19.320312 5.320312 19.320312 L 9.882812 19.320312 C 9.941406 18.507812 10.261719 17.816406 10.847656 17.25 C 11.433594 16.683594 12.144531 16.398438 12.976562 16.398438 C 13.789062 16.398438 14.492188 16.683594 15.089844 17.25 C 15.683594 17.816406 16 18.496094 16.039062 19.292969 L 26.359375 19.292969 C 26.359375 18.761719 26.097656 18.496094 25.566406 18.496094 Z M 12.976562 20.480469 C 12.710938 20.480469 12.484375 20.386719 12.296875 20.199219 C 12.105469 20.007812 12.011719 19.78125 12.011719 19.519531 C 12.011719 19.234375 12.105469 19.003906 12.296875 18.824219 C 12.484375 18.644531 12.710938 18.554688 12.976562 18.554688 C 13.238281 18.554688 13.46875 18.644531 13.65625 18.824219 C 13.84375 19.003906 13.941406 19.234375 13.941406 19.519531 C 13.941406 19.78125 13.84375 20.007812 13.65625 20.199219 C 13.46875 20.386719 13.238281 20.480469 12.976562 20.480469 Z M 12.976562 17.277344 C 12.351562 17.277344 11.820312 17.496094 11.386719 17.929688 C 10.953125 18.363281 10.734375 18.894531 10.734375 19.519531 C 10.734375 20.125 10.953125 20.644531 11.386719 21.078125 C 11.820312 21.511719 12.351562 21.730469 12.976562 21.730469 C 13.582031 21.730469 14.101562 21.511719 14.535156 21.078125 C 14.96875 20.644531 15.1875 20.125 15.1875 19.519531 C 15.1875 18.894531 14.96875 18.363281 14.535156 17.929688 C 14.101562 17.496094 13.582031 17.277344 12.976562 17.277344 Z M 12.976562 17.277344 "/>
</svg>
