<?xml version="1.0" encoding="UTF-8"?>
<svg xmlns="http://www.w3.org/2000/svg" xmlns:xlink="http://www.w3.org/1999/xlink" width="28" height="28" viewBox="0 0 28 28">
<defs>
<filter id="filter-remove-color" x="0%" y="0%" width="100%" height="100%">
<feColorMatrix color-interpolation-filters="sRGB" values="0 0 0 0 1 0 0 0 0 1 0 0 0 0 1 0 0 0 1 0" />
</filter>
<mask id="mask-0">
<g filter="url(#filter-remove-color)">
<rect x="-2.8" y="-2.8" width="33.6" height="33.6" fill="rgb(0%, 0%, 0%)" fill-opacity="0.5"/>
</g>
</mask>
<clipPath id="clip-0">
<path clip-rule="nonzero" d="M 3 5 L 28 5 L 28 28 L 3 28 Z M 3 5 "/>
</clipPath>
<clipPath id="clip-1">
<rect x="0" y="0" width="28" height="28"/>
</clipPath>
<g id="source-8" clip-path="url(#clip-1)">
<g clip-path="url(#clip-0)">
<path fill="none" stroke-width="5" stroke-linecap="butt" stroke-linejoin="miter" stroke="rgb(100%, 100%, 100%)" stroke-opacity="1" stroke-miterlimit="4" d="M 348.77488 372.601199 C 341.896866 387.195406 334.9942 401.814267 328.066882 416.383822 C 324.221111 411.083561 320.350687 405.807952 316.480264 400.532343 C 304.548513 419.613284 292.740024 438.768182 280.758968 457.799818 C 318.181278 458.095646 355.628241 458.416127 393.075203 458.736608 C 378.94939 428.710011 364.774273 398.732719 350.599156 368.755428 C 349.982846 370.037351 349.391189 371.319275 348.77488 372.601199 Z M 348.77488 372.601199 " transform="matrix(0.158453, 0, 0, 0.158453, -36.260615, -48.770348)"/>
</g>
<path fill-rule="nonzero" fill="rgb(100%, 100%, 100%)" fill-opacity="1" d="M 19.292969 8.734375 L 18.9375 9.492188 L 18.648438 10.101562 C 17.652344 12.214844 16.648438 14.328125 15.648438 16.4375 C 15.167969 15.777344 14.6875 15.117188 14.203125 14.460938 L 13.855469 13.992188 L 13.546875 14.488281 C 11.660156 17.511719 9.789062 20.546875 7.886719 23.558594 L 7.511719 24.15625 L 8.21875 24.164062 C 14.152344 24.214844 20.085938 24.261719 26.015625 24.3125 L 26.648438 24.316406 L 26.378906 23.746094 C 24.140625 18.992188 21.894531 14.242188 19.648438 9.492188 Z M 19.292969 15.441406 C 19.410156 15.441406 19.53125 15.5 19.605469 15.597656 C 19.957031 16.042969 20.304688 16.40625 20.441406 16.460938 C 20.507812 16.492188 20.492188 16.496094 20.566406 16.449219 C 20.636719 16.402344 20.78125 16.25 20.941406 15.9375 C 21.007812 15.808594 21.152344 15.722656 21.296875 15.726562 C 21.445312 15.726562 21.585938 15.816406 21.648438 15.949219 L 24.878906 22.78125 C 24.996094 23.023438 24.785156 23.355469 24.515625 23.351562 L 9.929688 23.226562 C 9.789062 23.226562 9.652344 23.144531 9.585938 23.023438 C 9.519531 22.902344 9.523438 22.742188 9.597656 22.621094 L 12.46875 18.011719 C 12.59375 17.8125 12.914062 17.773438 13.082031 17.9375 C 13.339844 18.191406 13.558594 18.328125 13.824219 18.34375 C 14.089844 18.363281 14.460938 18.261719 15.007812 17.859375 C 15.175781 17.734375 15.445312 17.773438 15.570312 17.945312 L 15.820312 18.289062 L 16.859375 16.089844 C 16.921875 15.957031 17.0625 15.863281 17.207031 15.859375 C 17.351562 15.855469 17.5 15.9375 17.570312 16.066406 C 17.671875 16.253906 17.773438 16.359375 17.851562 16.402344 C 17.929688 16.449219 17.976562 16.457031 18.070312 16.4375 C 18.25 16.398438 18.605469 16.148438 18.96875 15.617188 C 19.042969 15.511719 19.164062 15.445312 19.292969 15.441406 Z M 19.292969 15.441406 "/>
</g>
<mask id="mask-1">
<g filter="url(#filter-remove-color)">
<rect x="-2.8" y="-2.8" width="33.6" height="33.6" fill="rgb(0%, 0%, 0%)" fill-opacity="0.25"/>
</g>
</mask>
<clipPath id="clip-2">
<path clip-rule="nonzero" d="M 3 5 L 28 5 L 28 28 L 3 28 Z M 3 5 "/>
</clipPath>
<clipPath id="clip-3">
<rect x="0" y="0" width="28" height="28"/>
</clipPath>
<g id="source-14" clip-path="url(#clip-3)">
<g clip-path="url(#clip-2)">
<path fill="none" stroke-width="5" stroke-linecap="butt" stroke-linejoin="miter" stroke="rgb(100%, 100%, 100%)" stroke-opacity="1" stroke-miterlimit="4" d="M 348.77488 372.601199 C 341.896866 387.195406 334.9942 401.814267 328.066882 416.383822 C 324.221111 411.083561 320.350687 405.807952 316.480264 400.532343 C 304.548513 419.613284 292.740024 438.768182 280.758968 457.799818 C 318.181278 458.095646 355.628241 458.416127 393.075203 458.736608 C 378.94939 428.710011 364.774273 398.732719 350.599156 368.755428 C 349.982846 370.037351 349.391189 371.319275 348.77488 372.601199 Z M 348.77488 372.601199 " transform="matrix(0.158453, 0, 0, 0.158453, -36.260615, -48.770348)"/>
</g>
<path fill-rule="nonzero" fill="rgb(100%, 100%, 100%)" fill-opacity="1" d="M 19.292969 8.734375 L 18.9375 9.492188 L 18.648438 10.101562 C 17.652344 12.214844 16.648438 14.328125 15.648438 16.4375 C 15.167969 15.777344 14.6875 15.117188 14.203125 14.460938 L 13.855469 13.992188 L 13.546875 14.488281 C 11.660156 17.511719 9.789062 20.546875 7.886719 23.558594 L 7.511719 24.15625 L 8.21875 24.164062 C 14.152344 24.214844 20.085938 24.261719 26.015625 24.3125 L 26.648438 24.316406 L 26.378906 23.746094 C 24.140625 18.992188 21.894531 14.242188 19.648438 9.492188 Z M 19.292969 8.734375 "/>
</g>
</defs>
<path fill-rule="nonzero" fill="rgb(6.666667%, 6.666667%, 6.666667%)" fill-opacity="1" stroke-width="3.408" stroke-linecap="butt" stroke-linejoin="miter" stroke="rgb(93.333333%, 93.333333%, 93.333333%)" stroke-opacity="1" stroke-miterlimit="4" d="M 66.269531 1.780134 C 24.921875 1.780134 1.699219 23.141741 1.699219 66.835938 L 1.699219 516.967076 C 1.699219 557.748326 22.575335 579.190848 63.922991 579.190848 L 515.915179 579.190848 C 557.262835 579.190848 578.138951 558.881138 578.138951 516.967076 L 578.138951 66.835938 C 578.138951 24.193638 557.262835 1.780134 514.620536 1.780134 C 514.620536 1.780134 66.107701 1.618304 66.269531 1.780134 Z M 66.269531 1.780134 " transform="matrix(0.0482759, 0, 0, 0.0482759, 0, 0)"/>
<g mask="url(#mask-0)">
<use xlink:href="#source-8"/>
</g>
<path fill-rule="evenodd" fill="rgb(100%, 100%, 100%)" fill-opacity="1" stroke-width="0.852351" stroke-linecap="butt" stroke-linejoin="miter" stroke="rgb(100%, 100%, 100%)" stroke-opacity="1" stroke-miterlimit="4" d="M 184.567522 66.188616 L 22.089844 206.576451 L 54.617746 206.576451 L 54.617746 417.117746 L 152.120536 417.117746 L 152.120536 310.147879 L 219.280134 310.147879 L 219.280134 417.117746 L 314.517299 417.117746 L 314.517299 206.576451 L 347.045201 206.576451 Z M 184.567522 66.188616 " transform="matrix(0.0482759, 0, 0, 0.0482759, 0, 0)"/>
<g mask="url(#mask-1)">
<use xlink:href="#source-14"/>
</g>
</svg>
