<?xml version="1.0" encoding="UTF-8"?>
<svg xmlns="http://www.w3.org/2000/svg" xmlns:xlink="http://www.w3.org/1999/xlink" width="28" height="28" viewBox="0 0 28 28">
<path fill-rule="nonzero" fill="rgb(6.666667%, 6.666667%, 6.666667%)" fill-opacity="1" stroke-width="3.408" stroke-linecap="butt" stroke-linejoin="miter" stroke="rgb(93.333333%, 93.333333%, 93.333333%)" stroke-opacity="1" stroke-miterlimit="4" d="M 66.269531 1.780134 C 24.921875 1.780134 1.699219 23.141741 1.699219 66.835938 L 1.699219 516.967076 C 1.699219 557.748326 22.575335 579.190848 63.922991 579.190848 L 515.915179 579.190848 C 557.262835 579.190848 578.138951 558.881138 578.138951 516.967076 L 578.138951 66.835938 C 578.138951 24.193638 557.262835 1.780134 514.620536 1.780134 C 514.620536 1.780134 66.107701 1.618304 66.269531 1.780134 Z M 66.269531 1.780134 " transform="matrix(0.0482759, 0, 0, 0.0482759, 0, 0)"/>
<path fill-rule="evenodd" fill="rgb(100%, 100%, 100%)" fill-opacity="1" stroke-width="35.828999" stroke-linecap="round" stroke-linejoin="miter" stroke="rgb(100%, 100%, 100%)" stroke-opacity="1" stroke-miterlimit="4" d="M 47.578125 43.370536 L 44.341518 538.085938 " transform="matrix(0.0482759, 0, 0, 0.0482759, 0, 0)"/>
<path fill-rule="evenodd" fill="rgb(100%, 100%, 100%)" fill-opacity="1" stroke-width="35.828766" stroke-linecap="butt" stroke-linejoin="miter" stroke="rgb(100%, 100%, 100%)" stroke-opacity="1" stroke-miterlimit="4" d="M 50.733817 485.329241 L 530.560826 488.565848 " transform="matrix(0.0482759, 0, 0, 0.0482759, 0, 0)"/>
<path fill-rule="evenodd" fill="rgb(100%, 100%, 100%)" fill-opacity="1" stroke-width="35.828999" stroke-linecap="round" stroke-linejoin="miter" stroke="rgb(100%, 100%, 100%)" stroke-opacity="1" stroke-miterlimit="4" d="M 533.797433 528.537946 L 536.953125 144.029018 " transform="matrix(0.0482759, 0, 0, 0.0482759, 0, 0)"/>
<path fill-rule="nonzero" fill="rgb(100%, 100%, 100%)" fill-opacity="1" stroke-width="34.702381" stroke-linecap="butt" stroke-linejoin="miter" stroke="rgb(100%, 100%, 100%)" stroke-opacity="1" stroke-miterlimit="4" d="M 256.420201 393.652344 L 425.77567 393.652344 C 436.456473 393.652344 445.114397 402.310268 445.114397 412.910156 C 445.114397 423.59096 436.456473 432.248884 425.77567 432.248884 L 256.420201 432.248884 C 245.739397 432.248884 237.162388 423.59096 237.162388 412.910156 C 237.162388 402.310268 245.739397 393.652344 256.420201 393.652344 Z M 256.420201 393.652344 " transform="matrix(0.0482759, 0, 0, 0.0482759, 0, 0)"/>
<path fill-rule="nonzero" fill="rgb(100%, 100%, 100%)" fill-opacity="1" stroke-width="2.3" stroke-linecap="butt" stroke-linejoin="miter" stroke="rgb(100%, 100%, 100%)" stroke-opacity="1" stroke-miterlimit="4" d="M 9.286278 16.018513 C 9.286278 16.758944 8.606333 17.356984 7.768161 17.356984 C 6.929989 17.356984 6.250044 16.758944 6.250044 16.018513 C 6.250044 15.278083 6.929989 14.680042 7.768161 14.680042 C 8.606333 14.680042 9.286278 15.278083 9.286278 16.018513 Z M 9.286278 16.018513 " transform="matrix(0.913446, 0, 0, 0.960168, 1.427639, 1.428137)"/>
<path fill-rule="nonzero" fill="rgb(100%, 100%, 100%)" fill-opacity="1" stroke-width="30.175983" stroke-linecap="butt" stroke-linejoin="miter" stroke="rgb(100%, 100%, 100%)" stroke-opacity="1" stroke-miterlimit="4" d="M 123.395647 423.995536 L 196.785714 423.995536 C 198.727679 423.995536 200.265067 425.532924 200.265067 427.393973 C 200.265067 429.335938 198.727679 430.873326 196.785714 430.873326 L 123.395647 430.873326 C 121.534598 430.873326 119.99721 429.335938 119.99721 427.393973 C 119.99721 425.532924 121.534598 423.995536 123.395647 423.995536 Z M 123.395647 423.995536 " transform="matrix(0.0482759, 0, 0, 0.0482759, 0, 0)"/>
<path fill-rule="evenodd" fill="rgb(100%, 100%, 100%)" fill-opacity="1" stroke-width="35.828766" stroke-linecap="butt" stroke-linejoin="miter" stroke="rgb(100%, 100%, 100%)" stroke-opacity="1" stroke-miterlimit="4" d="M 55.507812 249.623326 L 535.334821 252.859933 " transform="matrix(0.0482759, 0, 0, 0.0482759, 0, 0)"/>
<path fill-rule="nonzero" fill="rgb(100%, 100%, 100%)" fill-opacity="1" stroke-width="34.702381" stroke-linecap="butt" stroke-linejoin="miter" stroke="rgb(100%, 100%, 100%)" stroke-opacity="1" stroke-miterlimit="4" d="M 260.951451 159.160156 L 430.30692 159.160156 C 440.987723 159.160156 449.645647 167.81808 449.645647 178.498884 C 449.645647 189.179688 440.987723 197.756696 430.30692 197.756696 L 260.951451 197.756696 C 250.351562 197.756696 241.693638 189.179688 241.693638 178.498884 C 241.693638 167.81808 250.351562 159.160156 260.951451 159.160156 Z M 260.951451 159.160156 " transform="matrix(0.0482759, 0, 0, 0.0482759, 0, 0)"/>
<path fill-rule="nonzero" fill="rgb(100%, 100%, 100%)" fill-opacity="1" stroke-width="2.3" stroke-linecap="butt" stroke-linejoin="miter" stroke="rgb(100%, 100%, 100%)" stroke-opacity="1" stroke-miterlimit="4" d="M 9.285537 16.016107 C 9.285537 16.756537 8.605592 17.358646 7.76742 17.358646 C 6.929248 17.358646 6.249303 16.756537 6.249303 16.016107 C 6.249303 15.279744 6.929248 14.677636 7.76742 14.677636 C 8.605592 14.677636 9.285537 15.279744 9.285537 16.016107 Z M 9.285537 16.016107 " transform="matrix(0.913446, 0, 0, 0.960168, 1.647066, -9.889865)"/>
<path fill-rule="nonzero" fill="rgb(100%, 100%, 100%)" fill-opacity="1" stroke-width="30.175983" stroke-linecap="butt" stroke-linejoin="miter" stroke="rgb(100%, 100%, 100%)" stroke-opacity="1" stroke-miterlimit="4" d="M 128.007812 189.503348 L 201.397879 189.503348 C 203.258929 189.503348 204.796317 191.040737 204.796317 192.982701 C 204.796317 194.84375 203.258929 196.381138 201.397879 196.381138 L 128.007812 196.381138 C 126.065848 196.381138 124.52846 194.84375 124.52846 192.982701 C 124.52846 191.040737 126.065848 189.503348 128.007812 189.503348 Z M 128.007812 189.503348 " transform="matrix(0.0482759, 0, 0, 0.0482759, 0, 0)"/>
</svg>
