<?xml version="1.0" encoding="UTF-8"?>
<svg xmlns="http://www.w3.org/2000/svg" xmlns:xlink="http://www.w3.org/1999/xlink" width="28" height="28" viewBox="0 0 28 28">
<path fill-rule="nonzero" fill="rgb(6.666667%, 6.666667%, 6.666667%)" fill-opacity="1" stroke-width="3.408" stroke-linecap="butt" stroke-linejoin="miter" stroke="rgb(93.333333%, 93.333333%, 93.333333%)" stroke-opacity="1" stroke-miterlimit="4" d="M 66.269531 1.780134 C 24.921875 1.780134 1.699219 23.141741 1.699219 66.835938 L 1.699219 516.967076 C 1.699219 557.748326 22.575335 579.190848 63.922991 579.190848 L 515.915179 579.190848 C 557.262835 579.190848 578.138951 558.881138 578.138951 516.967076 L 578.138951 66.835938 C 578.138951 24.193638 557.262835 1.780134 514.620536 1.780134 C 514.620536 1.780134 66.107701 1.618304 66.269531 1.780134 Z M 66.269531 1.780134 " transform="matrix(0.0482759, 0, 0, 0.0482759, 0, 0)"/>
<path fill-rule="evenodd" fill="rgb(100%, 100%, 100%)" fill-opacity="1" stroke-width="35.828999" stroke-linecap="round" stroke-linejoin="miter" stroke="rgb(100%, 100%, 100%)" stroke-opacity="1" stroke-miterlimit="4" d="M 47.578125 192.578125 L 44.341518 442.120536 " transform="matrix(0.0482759, 0, 0, 0.0482759, 0, 0)"/>
<path fill-rule="evenodd" fill="rgb(100%, 100%, 100%)" fill-opacity="1" stroke-width="35.828766" stroke-linecap="butt" stroke-linejoin="miter" stroke="rgb(100%, 100%, 100%)" stroke-opacity="1" stroke-miterlimit="4" d="M 50.733817 349.310826 L 530.560826 352.547433 " transform="matrix(0.0482759, 0, 0, 0.0482759, 0, 0)"/>
<path fill-rule="evenodd" fill="rgb(100%, 100%, 100%)" fill-opacity="1" stroke-width="35.828999" stroke-linecap="round" stroke-linejoin="miter" stroke="rgb(100%, 100%, 100%)" stroke-opacity="1" stroke-miterlimit="4" d="M 533.797433 432.491629 L 536.953125 269.366629 " transform="matrix(0.0482759, 0, 0, 0.0482759, 0, 0)"/>
<path fill-rule="nonzero" fill="rgb(100%, 100%, 100%)" fill-opacity="1" stroke-width="41.203079" stroke-linecap="butt" stroke-linejoin="miter" stroke="rgb(100%, 100%, 100%)" stroke-opacity="1" stroke-miterlimit="4" d="M 255.449219 258.200335 L 463.401228 258.200335 C 475.78125 258.200335 485.814732 268.233817 485.814732 280.532924 C 485.814732 292.912946 475.78125 302.946429 463.401228 302.946429 L 255.449219 302.946429 C 243.150112 302.946429 233.116629 292.912946 233.116629 280.532924 C 233.116629 268.233817 243.150112 258.200335 255.449219 258.200335 Z M 255.449219 258.200335 " transform="matrix(0.0482759, 0, 0, 0.0482759, 0, 0)"/>
<path fill-rule="nonzero" fill="rgb(100%, 100%, 100%)" fill-opacity="1" stroke-width="2.3" stroke-linecap="butt" stroke-linejoin="miter" stroke="rgb(100%, 100%, 100%)" stroke-opacity="1" stroke-miterlimit="4" d="M 9.284639 16.018342 C 9.284639 16.758292 8.605457 17.357967 7.767916 17.357967 C 6.930375 17.357967 6.251192 16.758292 6.251192 16.018342 C 6.251192 15.278392 6.930375 14.678717 7.767916 14.678717 C 8.605457 14.678717 9.284639 15.278392 9.284639 16.018342 Z M 9.284639 16.018342 " transform="matrix(1.11002, 0, 0, 1.113884, -0.806137, -8.260546)"/>
<path fill-rule="nonzero" fill="rgb(100%, 100%, 100%)" fill-opacity="1" stroke-width="35.828766" stroke-linecap="butt" stroke-linejoin="miter" stroke="rgb(100%, 100%, 100%)" stroke-opacity="1" stroke-miterlimit="4" d="M 94.751674 293.398438 L 184.324777 293.398438 C 186.509487 293.398438 188.289621 295.178571 188.289621 297.363281 C 188.289621 299.547991 186.509487 301.328125 184.324777 301.328125 L 94.751674 301.328125 C 92.486049 301.328125 90.705915 299.547991 90.705915 297.363281 C 90.705915 295.178571 92.486049 293.398438 94.751674 293.398438 Z M 94.751674 293.398438 " transform="matrix(0.0482759, 0, 0, 0.0482759, 0, 0)"/>
</svg>
