<?xml version="1.0" encoding="UTF-8"?>
<svg xmlns="http://www.w3.org/2000/svg" xmlns:xlink="http://www.w3.org/1999/xlink" width="28" height="28" viewBox="0 0 28 28">
<path fill-rule="nonzero" fill="rgb(6.666667%, 6.666667%, 6.666667%)" fill-opacity="1" stroke-width="3.408" stroke-linecap="butt" stroke-linejoin="miter" stroke="rgb(93.333333%, 93.333333%, 93.333333%)" stroke-opacity="1" stroke-miterlimit="4" d="M 66.269531 1.780134 C 24.921875 1.780134 1.699219 23.141741 1.699219 66.835938 L 1.699219 516.967076 C 1.699219 557.748326 22.575335 579.190848 63.922991 579.190848 L 515.915179 579.190848 C 557.262835 579.190848 578.138951 558.881138 578.138951 516.967076 L 578.138951 66.835938 C 578.138951 24.193638 557.262835 1.780134 514.620536 1.780134 C 514.620536 1.780134 66.107701 1.618304 66.269531 1.780134 Z M 66.269531 1.780134 " transform="matrix(0.0482759, 0, 0, 0.0482759, 0, 0)"/>
<path fill="none" stroke-width="0.3" stroke-linecap="round" stroke-linejoin="miter" stroke="rgb(100%, 100%, 100%)" stroke-opacity="1" stroke-miterlimit="4" d="M 3.249496 2.250182 L 2.249793 3.249885 " transform="matrix(2.879762, 0, 0, 2.879762, -3.490585, -2.440926)"/>
<path fill="none" stroke-width="0.3" stroke-linecap="round" stroke-linejoin="miter" stroke="rgb(100%, 100%, 100%)" stroke-opacity="1" stroke-miterlimit="4" d="M 3.59946 3.400451 L 2.367804 4.632107 " transform="matrix(2.879762, 0, 0, 2.879762, -3.490585, -2.440926)"/>
<path fill="none" stroke-width="0.3" stroke-linecap="round" stroke-linejoin="miter" stroke="rgb(100%, 100%, 100%)" stroke-opacity="1" stroke-miterlimit="4" d="M 5.132247 3.11831 L 3.900591 4.349966 " transform="matrix(2.879762, 0, 0, 2.879762, -3.490585, -2.440926)"/>
<path fill="none" stroke-width="0.3" stroke-linecap="round" stroke-linejoin="miter" stroke="rgb(100%, 100%, 100%)" stroke-opacity="1" stroke-miterlimit="4" d="M 3.100286 4.899327 L 2.133138 5.866476 " transform="matrix(2.879762, 0, 0, 2.879762, -3.490585, -2.440926)"/>
<path fill="none" stroke-width="0.3" stroke-linecap="round" stroke-linejoin="miter" stroke="rgb(100%, 100%, 100%)" stroke-opacity="1" stroke-miterlimit="4" d="M 6.381537 2.867367 L 5.149881 4.100379 " transform="matrix(2.879762, 0, 0, 2.879762, -3.490585, -2.440926)"/>
<path fill="none" stroke-width="0.3" stroke-linecap="round" stroke-linejoin="miter" stroke="rgb(100%, 100%, 100%)" stroke-opacity="1" stroke-miterlimit="4" d="M 8.131356 2.118607 L 6.8997 3.350263 " transform="matrix(2.879762, 0, 0, 2.879762, -3.490585, -2.440926)"/>
<path fill="none" stroke-width="0.3" stroke-linecap="round" stroke-linejoin="miter" stroke="rgb(100%, 100%, 100%)" stroke-opacity="1" stroke-miterlimit="4" d="M 8.631886 3.617483 L 7.40023 4.850495 " transform="matrix(2.879762, 0, 0, 2.879762, -3.490585, -2.440926)"/>
<path fill="none" stroke-width="0.3" stroke-linecap="round" stroke-linejoin="miter" stroke="rgb(100%, 100%, 100%)" stroke-opacity="1" stroke-miterlimit="4" d="M 10.029029 3.503541 L 9.117495 4.38252 " transform="matrix(2.879762, 0, 0, 2.879762, -3.490585, -2.440926)"/>
<path fill="none" stroke-width="0.3" stroke-linecap="round" stroke-linejoin="miter" stroke="rgb(100%, 100%, 100%)" stroke-opacity="1" stroke-miterlimit="4" d="M 10.029029 2.003309 L 9.117495 2.882288 " transform="matrix(2.879762, 0, 0, 2.879762, -3.490585, -2.440926)"/>
<path fill="none" stroke-width="0.3" stroke-linecap="round" stroke-linejoin="miter" stroke="rgb(100%, 100%, 100%)" stroke-opacity="1" stroke-miterlimit="4" d="M 10.06294 4.709425 L 9.117495 5.63181 " transform="matrix(2.879762, 0, 0, 2.879762, -3.490585, -2.440926)"/>
<path fill="none" stroke-width="0.3" stroke-linecap="round" stroke-linejoin="miter" stroke="rgb(100%, 100%, 100%)" stroke-opacity="1" stroke-miterlimit="4" d="M 8.543717 4.99021 L 8.117792 5.382223 " transform="matrix(2.879762, 0, 0, 2.879762, -3.490585, -2.440926)"/>
<path fill="none" stroke-width="0.3" stroke-linecap="round" stroke-linejoin="miter" stroke="rgb(100%, 100%, 100%)" stroke-opacity="1" stroke-miterlimit="4" d="M 7.263229 4.00814 L 6.650114 4.599552 " transform="matrix(2.879762, 0, 0, 2.879762, -3.490585, -2.440926)"/>
<path fill="none" stroke-width="0.3" stroke-linecap="round" stroke-linejoin="miter" stroke="rgb(100%, 100%, 100%)" stroke-opacity="1" stroke-miterlimit="4" d="M 4.841967 2.136241 L 4.117623 2.882288 " transform="matrix(2.879762, 0, 0, 2.879762, -3.490585, -2.440926)"/>
<path fill-rule="evenodd" fill="rgb(100%, 100%, 100%)" fill-opacity="1" stroke-width="0.335277" stroke-linecap="round" stroke-linejoin="round" stroke="rgb(100%, 100%, 100%)" stroke-opacity="1" stroke-miterlimit="4" d="M 2.249793 6.499937 L 6.000375 4.500531 L 9.7496 6.499937 L 9.498657 6.756306 L 8.245298 6.250351 L 5.999018 5.979061 L 3.747313 6.246281 L 2.499379 6.749524 Z M 2.249793 6.499937 " transform="matrix(2.879762, 0, 0, 2.879762, -3.490585, -2.440926)"/>
<path fill-rule="nonzero" fill="rgb(100%, 100%, 100%)" fill-opacity="1" stroke-width="0.335277" stroke-linecap="round" stroke-linejoin="round" stroke="rgb(100%, 100%, 100%)" stroke-opacity="1" stroke-miterlimit="4" d="M 3.750026 5.999408 L 4.250555 5.999408 L 4.250555 9.500403 L 3.750026 9.500403 Z M 3.750026 5.999408 " transform="matrix(2.879762, 0, 0, 2.879762, -3.490585, -2.440926)"/>
<path fill-rule="nonzero" fill="rgb(100%, 100%, 100%)" fill-opacity="1" stroke-width="0.335277" stroke-linecap="round" stroke-linejoin="round" stroke="rgb(100%, 100%, 100%)" stroke-opacity="1" stroke-miterlimit="4" d="M 7.750194 5.999408 L 8.249367 5.999408 L 8.249367 9.500403 L 7.750194 9.500403 Z M 7.750194 5.999408 " transform="matrix(2.879762, 0, 0, 2.879762, -3.490585, -2.440926)"/>
<path fill-rule="evenodd" fill="rgb(100%, 100%, 100%)" fill-opacity="1" stroke-width="10" stroke-linecap="round" stroke-linejoin="round" stroke="rgb(100%, 100%, 100%)" stroke-opacity="1" stroke-miterlimit="4" d="M 346.155134 531.693638 C 329.810268 478.694196 241.936384 478.775112 225.672433 531.693638 C 225.672433 531.693638 346.155134 531.693638 346.155134 531.693638 Z M 346.155134 531.693638 " transform="matrix(0.0482759, 0, 0, 0.0482759, 0, 0)"/>
</svg>
