<?xml version="1.0" encoding="UTF-8"?>
<svg xmlns="http://www.w3.org/2000/svg" xmlns:xlink="http://www.w3.org/1999/xlink" width="28" height="28" viewBox="0 0 28 28">
<defs>
<filter id="filter-remove-color" x="0%" y="0%" width="100%" height="100%">
<feColorMatrix color-interpolation-filters="sRGB" values="0 0 0 0 1 0 0 0 0 1 0 0 0 0 1 0 0 0 1 0" />
</filter>
<mask id="mask-0">
<g filter="url(#filter-remove-color)">
<rect x="-2.8" y="-2.8" width="33.6" height="33.6" fill="rgb(0%, 0%, 0%)" fill-opacity="0.350962"/>
</g>
</mask>
<clipPath id="clip-0">
<rect x="0" y="0" width="28" height="28"/>
</clipPath>
<g id="source-8" clip-path="url(#clip-0)">
<path fill-rule="evenodd" fill="rgb(100%, 100%, 100%)" fill-opacity="1" stroke-width="1.069596" stroke-linecap="butt" stroke-linejoin="miter" stroke="rgb(100%, 100%, 100%)" stroke-opacity="1" stroke-miterlimit="4" d="M 372.209821 65.703125 L 185.133929 257.633929 L 222.516741 257.633929 L 222.516741 505.638951 L 334.746094 505.638951 L 334.746094 359.263393 L 412.18192 359.263393 L 412.18192 505.638951 L 521.821987 505.638951 L 521.821987 257.633929 L 559.204799 257.633929 Z M 372.209821 65.703125 " transform="matrix(0.0482759, 0, 0, 0.0482759, 0, 0)"/>
</g>
</defs>
<path fill-rule="nonzero" fill="rgb(6.666667%, 6.666667%, 6.666667%)" fill-opacity="1" stroke-width="3.408" stroke-linecap="butt" stroke-linejoin="miter" stroke="rgb(93.333333%, 93.333333%, 93.333333%)" stroke-opacity="1" stroke-miterlimit="4" d="M 66.269531 1.780134 C 24.921875 1.780134 1.699219 23.141741 1.699219 66.835938 L 1.699219 516.967076 C 1.699219 557.748326 22.575335 579.190848 63.922991 579.190848 L 515.915179 579.190848 C 557.262835 579.190848 578.138951 558.881138 578.138951 516.967076 L 578.138951 66.835938 C 578.138951 24.193638 557.262835 1.780134 514.620536 1.780134 C 514.620536 1.780134 66.107701 1.618304 66.269531 1.780134 Z M 66.269531 1.780134 " transform="matrix(0.0482759, 0, 0, 0.0482759, 0, 0)"/>
<path fill-rule="evenodd" fill="rgb(100%, 100%, 100%)" fill-opacity="1" stroke-width="4.258363" stroke-linecap="round" stroke-linejoin="round" stroke="rgb(100%, 100%, 100%)" stroke-opacity="1" stroke-miterlimit="4" d="M 139.902344 116.760603 L 50.976562 308.529576 L 70.558036 308.529576 L 39.405692 365.089286 L 62.547433 365.089286 L 25.569196 426.261161 L 117.893415 412.424665 L 117.893415 510.655692 L 139.902344 510.655692 Z M 140.145089 116.760603 L 140.145089 510.655692 L 162.154018 510.655692 L 162.154018 412.424665 L 254.640067 426.261161 L 217.580915 365.089286 L 240.641741 365.089286 L 209.489397 308.529576 L 229.151786 308.529576 Z M 140.145089 116.760603 " transform="matrix(0.0482759, 0, 0, 0.0482759, 0, 0)"/>
<g mask="url(#mask-0)">
<use xlink:href="#source-8"/>
</g>
<path fill="none" stroke-width="10" stroke-linecap="round" stroke-linejoin="round" stroke="rgb(100%, 100%, 100%)" stroke-opacity="1" stroke-miterlimit="4" d="M 372.209821 65.703125 L 185.133929 257.633929 L 222.516741 257.633929 L 222.516741 505.638951 L 334.746094 505.638951 L 334.746094 359.263393 L 412.18192 359.263393 L 412.18192 505.638951 L 521.821987 505.638951 L 521.821987 257.633929 L 559.204799 257.633929 Z M 372.209821 65.703125 " transform="matrix(0.0482759, 0, 0, 0.0482759, 0, 0)"/>
</svg>
