<?xml version="1.0" encoding="UTF-8"?>
<svg xmlns="http://www.w3.org/2000/svg" xmlns:xlink="http://www.w3.org/1999/xlink" width="28" height="28" viewBox="0 0 28 28">
<defs>
<filter id="filter-remove-color" x="0%" y="0%" width="100%" height="100%">
<feColorMatrix color-interpolation-filters="sRGB" values="0 0 0 0 1 0 0 0 0 1 0 0 0 0 1 0 0 0 1 0" />
</filter>
<mask id="mask-0">
<g filter="url(#filter-remove-color)">
<rect x="-2.8" y="-2.8" width="33.6" height="33.6" fill="rgb(0%, 0%, 0%)" fill-opacity="0.75"/>
</g>
</mask>
<clipPath id="clip-0">
<rect x="0" y="0" width="28" height="28"/>
</clipPath>
<g id="source-11" clip-path="url(#clip-0)">
<path fill-rule="nonzero" fill="rgb(100%, 100%, 100%)" fill-opacity="1" stroke-width="8.129213" stroke-linecap="round" stroke-linejoin="round" stroke="rgb(100%, 100%, 100%)" stroke-opacity="1" stroke-miterlimit="4" d="M 339.859045 317.232633 C 339.79156 318.517895 339.79156 319.803156 339.79156 321.152681 C 339.79156 373.077253 365.368412 415.169573 396.951437 415.169573 C 428.466978 415.169573 454.043829 373.077253 454.043829 321.152681 C 454.043829 319.803156 454.043829 318.517895 453.976344 317.232633 C 411.865644 306.950539 365.975778 310.485009 339.859045 317.232633 Z M 339.859045 317.232633 " transform="matrix(0.0578832, 0, 0, 0.0607853, -3.523675, -5.244014)"/>
</g>
</defs>
<path fill-rule="nonzero" fill="rgb(6.666667%, 6.666667%, 6.666667%)" fill-opacity="1" stroke-width="3.408" stroke-linecap="butt" stroke-linejoin="miter" stroke="rgb(93.333333%, 93.333333%, 93.333333%)" stroke-opacity="1" stroke-miterlimit="4" d="M 66.269531 1.780134 C 24.921875 1.780134 1.699219 23.141741 1.699219 66.835938 L 1.699219 516.967076 C 1.699219 557.748326 22.575335 579.190848 63.922991 579.190848 L 515.915179 579.190848 C 557.262835 579.190848 578.138951 558.881138 578.138951 516.967076 L 578.138951 66.835938 C 578.138951 24.193638 557.262835 1.780134 514.620536 1.780134 C 514.620536 1.780134 66.107701 1.618304 66.269531 1.780134 Z M 66.269531 1.780134 " transform="matrix(0.0482759, 0, 0, 0.0482759, 0, 0)"/>
<path fill-rule="nonzero" fill="rgb(100%, 100%, 100%)" fill-opacity="1" stroke-width="15.298446" stroke-linecap="round" stroke-linejoin="round" stroke="rgb(100%, 100%, 100%)" stroke-opacity="1" stroke-miterlimit="4" d="M 146.775573 44.004352 L 184.589373 44.004352 L 184.589373 168.862625 L 146.775573 168.862625 Z M 146.775573 44.004352 " transform="matrix(0.0483454, 0, 0, 0.0509015, -0.75218, -0.794573)"/>
<path fill-rule="nonzero" fill="rgb(100%, 100%, 100%)" fill-opacity="1" stroke-width="46.241543" stroke-linecap="round" stroke-linejoin="round" stroke="rgb(100%, 100%, 100%)" stroke-opacity="1" stroke-miterlimit="4" d="M 110.173753 187.434046 C 108.47698 177.918111 150.330716 158.042086 165.84407 158.042086 C 181.357424 158.042086 221.595186 180.527319 224.584739 187.434046 L 224.584739 504.376065 C 195.901194 519.263898 126.575893 516.347725 110.173753 504.376065 Z M 110.173753 187.434046 " transform="matrix(0.0483454, 0, 0, 0.0509015, -0.75218, -0.794573)"/>
<path fill="none" stroke-width="24" stroke-linecap="round" stroke-linejoin="miter" stroke="rgb(100%, 100%, 100%)" stroke-opacity="1" stroke-miterlimit="4" d="M 401.420201 397.293527 L 401.420201 519.880022 " transform="matrix(0.0482759, 0, 0, 0.0482759, 0, 0)"/>
<path fill-rule="nonzero" fill="rgb(100%, 100%, 100%)" fill-opacity="1" d="M 22.503906 25.425781 C 22.503906 26.046875 21.09375 26.554688 19.355469 26.554688 C 17.617188 26.554688 16.210938 26.046875 16.210938 25.425781 C 16.210938 24.800781 17.617188 24.296875 19.355469 24.296875 C 21.09375 24.296875 22.503906 24.800781 22.503906 25.425781 Z M 22.503906 25.425781 "/>
<g mask="url(#mask-0)">
<use xlink:href="#source-11"/>
</g>
<path fill-rule="nonzero" fill="rgb(100%, 100%, 100%)" fill-opacity="1" d="M 16.125 14.074219 C 16.121094 14.152344 16.121094 14.230469 16.121094 14.3125 C 16.121094 17.46875 17.601562 20.023438 19.425781 20.023438 C 21.253906 20.023438 22.734375 17.46875 22.734375 14.3125 C 22.734375 14.230469 22.734375 14.152344 22.730469 14.074219 C 20.886719 14.675781 18.917969 15.066406 16.125 14.074219 Z M 16.125 14.074219 "/>
<path fill-rule="nonzero" fill="rgb(100%, 100%, 100%)" fill-opacity="1" d="M 16.027344 1.992188 C 14.769531 1.992188 13.957031 2.949219 13.957031 4.597656 C 13.957031 6.253906 14.757812 7.226562 16.027344 7.226562 C 17.300781 7.226562 18.109375 6.242188 18.109375 4.597656 C 18.109375 2.964844 17.285156 1.992188 16.027344 1.992188 M 21.238281 2.140625 L 16.027344 10.503906 L 16.898438 10.503906 L 22.109375 2.140625 L 21.238281 2.140625 M 15.988281 2.550781 C 16.550781 2.550781 16.863281 3.238281 16.863281 4.597656 C 16.863281 5.96875 16.550781 6.652344 15.988281 6.652344 C 15.429688 6.652344 15.140625 5.96875 15.140625 4.597656 C 15.140625 3.238281 15.441406 2.550781 15.988281 2.550781 M 22.171875 5.429688 C 20.914062 5.429688 20.089844 6.390625 20.089844 8.035156 C 20.089844 9.695312 20.902344 10.652344 22.171875 10.652344 C 23.445312 10.652344 24.253906 9.679688 24.253906 8.035156 C 24.253906 6.414062 23.429688 5.429688 22.171875 5.429688 M 22.148438 5.980469 C 22.707031 5.980469 23.007812 6.675781 23.007812 8.035156 C 23.007812 9.40625 22.71875 10.09375 22.148438 10.09375 C 21.585938 10.09375 21.289062 9.394531 21.289062 8.035156 C 21.289062 6.675781 21.597656 5.980469 22.148438 5.980469 "/>
</svg>
