<?xml version="1.0" encoding="UTF-8"?>
<svg xmlns="http://www.w3.org/2000/svg" xmlns:xlink="http://www.w3.org/1999/xlink" width="28" height="28" viewBox="0 0 28 28">
<defs>
<filter id="filter-remove-color" x="0%" y="0%" width="100%" height="100%">
<feColorMatrix color-interpolation-filters="sRGB" values="0 0 0 0 1 0 0 0 0 1 0 0 0 0 1 0 0 0 1 0" />
</filter>
<mask id="mask-0">
<g filter="url(#filter-remove-color)">
<rect x="-2.8" y="-2.8" width="33.6" height="33.6" fill="rgb(0%, 0%, 0%)" fill-opacity="0.1"/>
</g>
</mask>
<clipPath id="clip-0">
<rect x="0" y="0" width="28" height="28"/>
</clipPath>
<g id="source-8" clip-path="url(#clip-0)">
<path fill-rule="evenodd" fill="rgb(100%, 100%, 100%)" fill-opacity="1" d="M 9.6875 5.828125 C 8.6875 5.839844 7.679688 6.078125 6.753906 6.550781 C 6.742188 6.554688 6.730469 6.558594 6.722656 6.5625 C 6.707031 6.570312 6.695312 6.578125 6.679688 6.582031 L 6.679688 6.585938 C 2.753906 8.449219 1.632812 13.375 3.457031 17.007812 C 5.988281 22.308594 12.46875 24.121094 17.664062 22.445312 C 22.425781 21.132812 26.398438 16.441406 25.410156 11.148438 C 25.40625 11.113281 25.402344 11.082031 25.394531 11.046875 L 25.390625 11.046875 C 24.835938 7.367188 21.0625 5.160156 17.582031 6.027344 C 16.332031 6.335938 15.21875 6.855469 14.226562 7.515625 C 12.957031 6.390625 11.328125 5.808594 9.6875 5.828125 Z M 19 9.089844 C 20.492188 9.050781 22 10.105469 22.195312 11.578125 L 22.203125 11.628906 L 22.214844 11.679688 C 22.871094 15.003906 20.023438 18.433594 16.734375 19.339844 L 16.703125 19.351562 L 16.667969 19.359375 C 12.921875 20.566406 8.0625 19.125 6.367188 15.582031 L 6.363281 15.566406 L 6.355469 15.550781 C 5.316406 13.484375 6.035156 10.449219 8.109375 9.496094 L 8.144531 9.476562 L 8.183594 9.457031 C 9.28125 8.882812 10.71875 8.996094 11.75 9.6875 C 10.140625 11.480469 8.957031 13.636719 8.058594 15.640625 C 7.8125 16.171875 7.867188 16.792969 8.207031 17.269531 C 8.550781 17.75 9.121094 18.003906 9.703125 17.941406 C 10.285156 17.875 10.789062 17.503906 11.019531 16.964844 C 11.855469 15.097656 12.90625 13.269531 14.214844 11.832031 C 15.421875 13.113281 16.371094 14.617188 16.933594 16.253906 C 17.113281 16.808594 17.582031 17.222656 18.15625 17.339844 C 18.730469 17.453125 19.320312 17.25 19.703125 16.808594 C 20.085938 16.363281 20.199219 15.75 20 15.199219 C 19.308594 13.175781 18.179688 11.351562 16.765625 9.796875 C 17.273438 9.53125 17.804688 9.3125 18.367188 9.171875 C 18.574219 9.121094 18.789062 9.09375 19 9.089844 Z M 19 9.089844 "/>
</g>
</defs>
<path fill-rule="nonzero" fill="rgb(6.666667%, 6.666667%, 6.666667%)" fill-opacity="1" stroke-width="3.408" stroke-linecap="butt" stroke-linejoin="miter" stroke="rgb(93.333333%, 93.333333%, 93.333333%)" stroke-opacity="1" stroke-miterlimit="4" d="M 66.302613 1.750629 C 24.954956 1.750629 1.7323 23.112236 1.7323 66.806433 L 1.7323 516.937571 C 1.7323 557.799736 22.608416 579.161343 63.875157 579.161343 L 515.94826 579.161343 C 557.215001 579.161343 578.172032 558.851634 578.172032 516.937571 L 578.172032 66.806433 C 578.172032 24.164134 557.215001 1.750629 514.653617 1.750629 C 514.653617 1.750629 66.140782 1.588799 66.302613 1.750629 Z M 66.302613 1.750629 " transform="matrix(0.0482759, 0, 0, 0.0482759, -0.0523783, -0.209513)"/>
<path fill-rule="evenodd" fill="rgb(100%, 100%, 100%)" fill-opacity="1" d="M 9.679688 5.820312 C 8.679688 5.832031 7.671875 6.070312 6.742188 6.542969 C 6.734375 6.546875 6.722656 6.550781 6.714844 6.554688 C 6.699219 6.5625 6.6875 6.570312 6.671875 6.574219 L 6.671875 6.578125 C 2.746094 8.441406 1.625 13.367188 3.449219 17 C 5.980469 22.300781 12.460938 24.113281 17.65625 22.4375 C 22.417969 21.125 26.390625 16.433594 25.402344 11.140625 C 25.398438 11.105469 25.394531 11.074219 25.386719 11.039062 L 25.382812 11.039062 C 24.828125 7.359375 21.054688 5.152344 17.574219 6.015625 C 16.324219 6.328125 15.210938 6.847656 14.21875 7.507812 C 12.949219 6.382812 11.320312 5.800781 9.679688 5.820312 Z M 19.304688 6.753906 C 19.429688 6.746094 19.546875 6.824219 19.582031 6.949219 L 19.855469 7.933594 C 19.859375 7.9375 19.859375 7.945312 19.863281 7.949219 C 19.898438 8.09375 19.808594 8.238281 19.664062 8.273438 C 19.523438 8.308594 19.378906 8.21875 19.34375 8.074219 L 19.066406 7.09375 C 19.027344 6.949219 19.109375 6.804688 19.253906 6.765625 C 19.269531 6.761719 19.289062 6.757812 19.304688 6.753906 Z M 11.578125 7.375 C 11.722656 7.371094 11.847656 7.484375 11.855469 7.632812 C 11.859375 7.777344 11.746094 7.902344 11.597656 7.910156 L 10.582031 7.988281 C 10.433594 8 10.304688 7.886719 10.292969 7.742188 C 10.285156 7.59375 10.394531 7.464844 10.539062 7.457031 L 11.558594 7.378906 C 11.566406 7.375 11.570312 7.375 11.578125 7.375 Z M 6.628906 7.875 C 6.648438 7.875 6.664062 7.878906 6.683594 7.882812 L 7.679688 8.105469 C 7.6875 8.105469 7.691406 8.109375 7.695312 8.109375 C 7.839844 8.148438 7.925781 8.292969 7.890625 8.4375 C 7.851562 8.578125 7.703125 8.664062 7.5625 8.625 L 6.566406 8.402344 C 6.421875 8.367188 6.332031 8.226562 6.363281 8.082031 C 6.394531 7.957031 6.507812 7.871094 6.628906 7.875 Z M 16.058594 8.167969 C 16.144531 8.167969 16.230469 8.210938 16.28125 8.289062 C 16.363281 8.410156 16.328125 8.578125 16.207031 8.660156 L 15.375 9.253906 C 15.257812 9.339844 15.089844 9.3125 15.003906 9.191406 C 14.917969 9.074219 14.945312 8.90625 15.066406 8.820312 L 15.894531 8.226562 C 15.902344 8.222656 15.90625 8.21875 15.910156 8.214844 C 15.957031 8.183594 16.007812 8.167969 16.058594 8.167969 Z M 23.402344 8.785156 C 23.550781 8.777344 23.675781 8.894531 23.679688 9.039062 C 23.6875 9.1875 23.574219 9.3125 23.425781 9.316406 L 22.40625 9.394531 C 22.261719 9.40625 22.132812 9.296875 22.121094 9.148438 C 22.109375 9.003906 22.21875 8.875 22.367188 8.863281 L 23.386719 8.785156 C 23.390625 8.785156 23.398438 8.785156 23.402344 8.785156 Z M 9.75 9.082031 C 10.453125 9.082031 11.164062 9.289062 11.742188 9.679688 C 10.132812 11.46875 8.753906 14.011719 7.859375 16.019531 C 7.609375 16.550781 7.664062 17.171875 8.007812 17.648438 C 8.347656 18.125 8.921875 18.382812 9.503906 18.320312 C 10.085938 18.253906 10.589844 17.882812 10.820312 17.34375 C 11.652344 15.476562 12.898438 13.261719 14.207031 11.824219 C 15.410156 13.105469 16.75 15.191406 17.3125 16.824219 C 17.492188 17.378906 17.960938 17.796875 18.535156 17.910156 C 19.109375 18.023438 19.699219 17.824219 20.082031 17.378906 C 20.464844 16.9375 20.578125 16.320312 20.378906 15.769531 C 19.683594 13.75 18.171875 11.34375 16.757812 9.789062 C 17.265625 9.523438 17.796875 9.304688 18.359375 9.164062 C 18.566406 9.113281 18.78125 9.085938 18.992188 9.082031 C 20.484375 9.042969 21.992188 10.097656 22.1875 11.570312 L 22.195312 11.621094 L 22.207031 11.671875 C 22.863281 14.996094 20.015625 18.425781 16.726562 19.332031 L 16.695312 19.34375 L 16.660156 19.351562 C 12.914062 20.558594 8.054688 19.117188 6.359375 15.570312 L 6.355469 15.558594 L 6.347656 15.542969 C 5.308594 13.476562 6.027344 10.441406 8.101562 9.484375 L 8.136719 9.46875 L 8.171875 9.449219 C 8.652344 9.199219 9.199219 9.078125 9.75 9.082031 Z M 4.976562 10.871094 C 5.058594 10.875 5.136719 10.914062 5.1875 10.988281 C 5.269531 11.113281 5.234375 11.277344 5.113281 11.359375 L 4.285156 11.957031 C 4.164062 12.042969 3.996094 12.011719 3.910156 11.894531 C 3.824219 11.773438 3.851562 11.605469 3.972656 11.519531 L 4.800781 10.925781 C 4.808594 10.921875 4.8125 10.917969 4.816406 10.914062 C 4.855469 10.890625 4.898438 10.875 4.941406 10.871094 C 4.953125 10.871094 4.964844 10.871094 4.976562 10.871094 Z M 17.242188 11.703125 C 17.355469 11.707031 17.460938 11.78125 17.492188 11.894531 C 17.535156 12.035156 17.457031 12.1875 17.3125 12.226562 L 16.347656 12.554688 C 16.207031 12.601562 16.054688 12.527344 16.007812 12.386719 C 15.960938 12.25 16.035156 12.097656 16.175781 12.050781 L 17.144531 11.722656 C 17.148438 11.71875 17.15625 11.71875 17.160156 11.71875 C 17.1875 11.710938 17.214844 11.703125 17.242188 11.703125 Z M 12.324219 11.863281 C 12.472656 11.855469 12.597656 11.96875 12.601562 12.117188 C 12.609375 12.265625 12.492188 12.390625 12.347656 12.394531 L 11.328125 12.472656 C 11.179688 12.484375 11.054688 12.375 11.042969 12.226562 C 11.03125 12.082031 11.140625 11.953125 11.289062 11.941406 L 12.304688 11.863281 C 12.3125 11.863281 12.320312 11.863281 12.324219 11.863281 Z M 23.570312 11.96875 C 23.621094 11.964844 23.671875 11.980469 23.71875 12.011719 L 24.578125 12.5625 C 24.582031 12.566406 24.589844 12.566406 24.59375 12.570312 C 24.714844 12.65625 24.746094 12.820312 24.660156 12.941406 C 24.578125 13.0625 24.410156 13.09375 24.289062 13.011719 L 23.429688 12.460938 C 23.308594 12.378906 23.269531 12.214844 23.351562 12.089844 C 23.398438 12.011719 23.484375 11.96875 23.570312 11.96875 Z M 17.96875 14.710938 C 17.988281 14.710938 18.003906 14.714844 18.019531 14.71875 L 19.015625 14.945312 C 19.023438 14.945312 19.03125 14.945312 19.035156 14.945312 C 19.179688 14.984375 19.261719 15.128906 19.226562 15.273438 C 19.1875 15.417969 19.042969 15.5 18.902344 15.464844 L 17.90625 15.238281 C 17.761719 15.207031 17.671875 15.0625 17.703125 14.921875 C 17.730469 14.792969 17.84375 14.710938 17.96875 14.710938 Z M 9.480469 14.945312 C 9.53125 14.945312 9.585938 14.957031 9.628906 14.988281 L 10.492188 15.539062 C 10.496094 15.542969 10.5 15.546875 10.507812 15.550781 C 10.628906 15.632812 10.65625 15.800781 10.574219 15.921875 C 10.488281 16.042969 10.324219 16.074219 10.203125 15.992188 L 9.34375 15.4375 C 9.21875 15.359375 9.183594 15.191406 9.261719 15.070312 C 9.3125 14.992188 9.394531 14.949219 9.480469 14.945312 Z M 5 15.007812 C 5.148438 15.003906 5.269531 15.117188 5.277344 15.265625 C 5.285156 15.410156 5.167969 15.535156 5.023438 15.542969 L 4.003906 15.621094 C 3.855469 15.628906 3.726562 15.519531 3.71875 15.375 C 3.707031 15.226562 3.816406 15.097656 3.964844 15.085938 L 4.980469 15.007812 C 4.988281 15.007812 4.992188 15.007812 5 15.007812 Z M 23.488281 15.667969 C 23.574219 15.667969 23.65625 15.710938 23.707031 15.789062 C 23.789062 15.910156 23.757812 16.078125 23.632812 16.160156 L 22.804688 16.753906 C 22.683594 16.839844 22.519531 16.8125 22.433594 16.691406 C 22.347656 16.574219 22.375 16.40625 22.492188 16.320312 L 23.324219 15.726562 C 23.328125 15.722656 23.332031 15.71875 23.335938 15.714844 C 23.382812 15.683594 23.4375 15.667969 23.488281 15.667969 Z M 6.070312 17.460938 C 6.183594 17.464844 6.285156 17.542969 6.316406 17.65625 L 6.59375 18.640625 C 6.59375 18.648438 6.597656 18.652344 6.597656 18.65625 C 6.632812 18.800781 6.542969 18.945312 6.402344 18.980469 C 6.257812 19.015625 6.113281 18.925781 6.078125 18.785156 L 5.804688 17.800781 C 5.765625 17.660156 5.847656 17.511719 5.988281 17.472656 C 6.015625 17.464844 6.042969 17.460938 6.070312 17.460938 Z M 20.828125 18.070312 C 20.976562 18.0625 21.097656 18.179688 21.105469 18.324219 L 21.152344 19.34375 C 21.152344 19.351562 21.152344 19.355469 21.152344 19.363281 C 21.152344 19.511719 21.035156 19.632812 20.886719 19.632812 C 20.738281 19.632812 20.621094 19.515625 20.617188 19.367188 L 20.570312 18.347656 C 20.566406 18.203125 20.679688 18.078125 20.828125 18.070312 Z M 8.726562 20.101562 C 8.746094 20.101562 8.765625 20.105469 8.78125 20.109375 L 9.777344 20.332031 C 9.785156 20.332031 9.789062 20.335938 9.796875 20.335938 C 9.9375 20.375 10.023438 20.519531 9.988281 20.660156 C 9.949219 20.804688 9.800781 20.890625 9.660156 20.851562 L 8.664062 20.628906 C 8.519531 20.597656 8.429688 20.453125 8.460938 20.308594 C 8.492188 20.183594 8.605469 20.097656 8.726562 20.101562 Z M 18.042969 20.554688 C 18.191406 20.550781 18.316406 20.664062 18.320312 20.8125 C 18.328125 20.960938 18.214844 21.082031 18.066406 21.089844 L 17.046875 21.167969 C 16.902344 21.179688 16.773438 21.070312 16.761719 20.921875 C 16.75 20.773438 16.859375 20.648438 17.007812 20.636719 L 18.027344 20.558594 C 18.03125 20.558594 18.039062 20.558594 18.042969 20.554688 Z M 12.679688 20.816406 C 12.734375 20.8125 12.785156 20.828125 12.832031 20.855469 L 13.691406 21.40625 C 13.695312 21.410156 13.703125 21.414062 13.707031 21.417969 C 13.828125 21.5 13.855469 21.667969 13.773438 21.789062 C 13.691406 21.910156 13.523438 21.941406 13.402344 21.859375 L 12.542969 21.304688 C 12.417969 21.226562 12.382812 21.0625 12.464844 20.9375 C 12.511719 20.859375 12.597656 20.816406 12.679688 20.816406 Z M 12.679688 20.816406 "/>
<g mask="url(#mask-0)">
<use xlink:href="#source-8"/>
</g>
</svg>
