<?xml version="1.0" encoding="UTF-8"?>
<svg xmlns="http://www.w3.org/2000/svg" xmlns:xlink="http://www.w3.org/1999/xlink" width="28" height="28" viewBox="0 0 28 28">
<path fill-rule="nonzero" fill="rgb(6.666667%, 6.666667%, 6.666667%)" fill-opacity="1" stroke-width="3.408" stroke-linecap="butt" stroke-linejoin="miter" stroke="rgb(93.333333%, 93.333333%, 93.333333%)" stroke-opacity="1" stroke-miterlimit="4" d="M 66.269531 1.780134 C 24.921875 1.780134 1.699219 23.141741 1.699219 66.835938 L 1.699219 516.967076 C 1.699219 557.748326 22.575335 579.190848 63.922991 579.190848 L 515.915179 579.190848 C 557.262835 579.190848 578.138951 558.800223 578.138951 516.967076 L 578.138951 66.835938 C 578.138951 24.193638 557.262835 1.780134 514.620536 1.780134 C 514.620536 1.780134 66.107701 1.618304 66.269531 1.780134 Z M 66.269531 1.780134 " transform="matrix(0.0482759, 0, 0, 0.0482759, 0, 0)"/>
<path fill="none" stroke-width="26" stroke-linecap="butt" stroke-linejoin="miter" stroke="rgb(100%, 100%, 100%)" stroke-opacity="1" stroke-miterlimit="4" d="M 278.919736 461.999899 C 278.919736 505.277114 243.787852 540.326721 200.510638 540.326721 C 157.233424 540.326721 122.183816 505.277114 122.183816 461.999899 C 122.183816 418.640409 157.233424 383.590802 200.510638 383.590802 C 243.787852 383.590802 278.919736 418.640409 278.919736 461.999899 Z M 278.919736 461.999899 " transform="matrix(-0.0474774, 0, 0, 0.0474774, 15.613464, -4.918906)"/>
<path fill="none" stroke-width="26" stroke-linecap="butt" stroke-linejoin="miter" stroke="rgb(100%, 100%, 100%)" stroke-opacity="1" stroke-miterlimit="4" d="M 278.903635 461.963581 C 278.903635 505.240796 243.854028 540.372679 200.494537 540.372679 C 157.217323 540.372679 122.167716 505.240796 122.167716 461.963581 C 122.167716 418.686367 157.217323 383.554483 200.494537 383.554483 C 243.854028 383.554483 278.903635 418.686367 278.903635 461.963581 Z M 278.903635 461.963581 " transform="matrix(-0.0474774, 0, 0, 0.0474774, 31.561918, -4.991401)"/>
<path fill="none" stroke-width="20.529715" stroke-linecap="butt" stroke-linejoin="round" stroke="rgb(100%, 100%, 100%)" stroke-opacity="1" stroke-miterlimit="4" d="M 395.513393 219.765625 L 197.271205 220.817522 L 127.198661 350.929129 L 261.356027 350.929129 L 401.501116 255.853795 " transform="matrix(0.0482759, 0, 0, 0.0482759, 0, 0)"/>
<path fill-rule="evenodd" fill="rgb(100%, 100%, 100%)" fill-opacity="1" d="M 18.726562 6.84375 C 19.246094 6.84375 19.636719 6.832031 20.039062 7.449219 C 20.15625 7.652344 20.210938 7.902344 20.167969 8.152344 C 20.117188 8.4375 19.949219 8.714844 19.75 8.878906 C 19.488281 9.097656 19.238281 9.082031 19.28125 9.277344 C 19.332031 9.53125 19.488281 9.878906 19.660156 10.449219 C 19.832031 11.023438 20.035156 11.730469 20.238281 12.425781 C 20.4375 13.121094 20.636719 13.804688 20.792969 14.339844 C 20.871094 14.605469 20.9375 14.835938 20.992188 15.007812 C 21.042969 15.175781 21.085938 15.304688 21.082031 15.292969 C 21.246094 15.582031 21.269531 15.769531 21.539062 16.011719 C 21.847656 16.28125 22.097656 16.476562 22.183594 16.539062 C 22.402344 16.699219 22.503906 17.035156 22.390625 17.203125 C 22.242188 17.429688 21.941406 17.464844 21.71875 17.394531 C 21.511719 17.328125 21.179688 17.214844 20.792969 16.894531 L 20.785156 16.886719 C 20.25 16.429688 20.050781 15.871094 20.03125 15.839844 L 20.003906 15.796875 L 19.984375 15.75 C 19.9375 15.632812 19.910156 15.535156 19.855469 15.355469 C 19.800781 15.175781 19.730469 14.941406 19.652344 14.671875 C 19.496094 14.136719 19.296875 13.449219 19.097656 12.753906 C 18.898438 12.058594 18.691406 11.359375 18.523438 10.789062 C 18.351562 10.21875 18.242188 9.75 18.203125 9.652344 C 18.105469 9.410156 18.058594 9.148438 18.125 8.886719 C 18.191406 8.625 18.386719 8.414062 18.566406 8.363281 C 18.972656 8.25 18.863281 7.960938 18.65625 7.957031 L 16.917969 7.957031 L 16.914062 6.84375 C 16.914062 6.84375 18.042969 6.84375 18.726562 6.84375 Z M 18.726562 6.84375 "/>
<path fill-rule="evenodd" fill="rgb(100%, 100%, 100%)" fill-opacity="1" stroke-width="24.586485" stroke-linecap="butt" stroke-linejoin="miter" stroke="rgb(100%, 100%, 100%)" stroke-opacity="1" stroke-miterlimit="4" d="M 258.766741 346.883371 L 190.797991 180.521763 " transform="matrix(0.0482759, 0, 0, 0.0482759, 0, 0)"/>
<path fill-rule="evenodd" fill="rgb(100%, 100%, 100%)" fill-opacity="1" stroke-width="8.974068" stroke-linecap="round" stroke-linejoin="miter" stroke="rgb(100%, 100%, 100%)" stroke-opacity="1" stroke-miterlimit="4" d="M 282.151228 304.402902 L 241.127232 399.963728 " transform="matrix(0.0482759, 0, 0, 0.0482759, 0, 0)"/>
<path fill-rule="evenodd" fill="rgb(100%, 100%, 100%)" fill-opacity="1" stroke-width="31.305" stroke-linecap="butt" stroke-linejoin="miter" stroke="rgb(100%, 100%, 100%)" stroke-opacity="1" stroke-miterlimit="4" d="M 278.940382 461.938683 C 278.940382 505.218584 243.923673 540.238963 200.444592 540.238963 C 157.257318 540.238963 122.240609 505.218584 122.240609 461.938683 C 122.240609 418.658782 157.257318 383.638403 200.444592 383.638403 C 243.923673 383.638403 278.940382 418.658782 278.940382 461.938683 Z M 278.940382 461.938683 " transform="matrix(-0.0133865, 0, 0, 0.0118235, 15.265276, 11.491405)"/>
<path fill-rule="evenodd" fill="rgb(100%, 100%, 100%)" fill-opacity="1" stroke-width="12.539586" stroke-linecap="round" stroke-linejoin="miter" stroke="rgb(100%, 100%, 100%)" stroke-opacity="1" stroke-miterlimit="4" d="M 300.438058 304.402902 L 264.188058 304.726562 " transform="matrix(0.0482759, 0, 0, 0.0482759, 0, 0)"/>
<path fill-rule="evenodd" fill="rgb(100%, 100%, 100%)" fill-opacity="1" stroke-width="12.539107" stroke-linecap="round" stroke-linejoin="miter" stroke="rgb(100%, 100%, 100%)" stroke-opacity="1" stroke-miterlimit="4" d="M 259.575893 398.58817 L 223.325893 398.91183 " transform="matrix(0.0482759, 0, 0, 0.0482759, 0, 0)"/>
<path fill-rule="evenodd" fill="rgb(100%, 100%, 100%)" fill-opacity="1" d="M 7.605469 7.996094 L 11.722656 7.996094 C 11.878906 7.996094 12.078125 8.269531 11.878906 8.449219 C 11.664062 8.652344 9.734375 9.074219 9.734375 9.074219 C 9.734375 9.074219 9.203125 9.21875 8.921875 9.183594 C 8.640625 9.148438 7.667969 9.0625 7.605469 7.996094 Z M 7.605469 7.996094 "/>
</svg>
