<?xml version="1.0" encoding="UTF-8"?>
<svg xmlns="http://www.w3.org/2000/svg" xmlns:xlink="http://www.w3.org/1999/xlink" width="28" height="28" viewBox="0 0 28 28">
<defs>
<filter id="filter-remove-color" x="0%" y="0%" width="100%" height="100%">
<feColorMatrix color-interpolation-filters="sRGB" values="0 0 0 0 1 0 0 0 0 1 0 0 0 0 1 0 0 0 1 0" />
</filter>
<mask id="mask-0">
<g filter="url(#filter-remove-color)">
<rect x="-2.8" y="-2.8" width="33.6" height="33.6" fill="rgb(0%, 0%, 0%)" fill-opacity="0.1"/>
</g>
</mask>
<clipPath id="clip-0">
<rect x="0" y="0" width="28" height="28"/>
</clipPath>
<g id="source-8" clip-path="url(#clip-0)">
<path fill-rule="evenodd" fill="rgb(100%, 100%, 100%)" fill-opacity="1" d="M 3.214844 19.257812 L 5.332031 21.644531 L 8.050781 23.257812 L 10.976562 24.121094 L 13.484375 24.273438 L 14.46875 23.675781 L 15.125 22.570312 L 15.601562 18.988281 L 13.066406 14.242188 L 8.914062 12.511719 L 5.453125 12.152344 L 3.839844 12.75 L 2.707031 13.824219 L 2.289062 15.554688 L 2.527344 17.675781 Z M 3.214844 19.257812 "/>
</g>
<mask id="mask-1">
<g filter="url(#filter-remove-color)">
<rect x="-2.8" y="-2.8" width="33.6" height="33.6" fill="rgb(0%, 0%, 0%)" fill-opacity="0.1"/>
</g>
</mask>
<clipPath id="clip-1">
<rect x="0" y="0" width="28" height="28"/>
</clipPath>
<g id="source-12" clip-path="url(#clip-1)">
<path fill-rule="evenodd" fill="rgb(100%, 100%, 100%)" fill-opacity="1" d="M 19.183594 8.390625 L 21.183594 7.527344 L 22.886719 6.0625 L 23.8125 6.511719 L 25.242188 7.464844 L 25.484375 8.332031 L 24.675781 9.046875 L 23.066406 9.316406 L 20.824219 10.808594 L 18.320312 10.480469 Z M 19.183594 8.390625 "/>
</g>
</defs>
<path fill-rule="nonzero" fill="rgb(6.666667%, 6.666667%, 6.666667%)" fill-opacity="1" stroke-width="3.408" stroke-linecap="butt" stroke-linejoin="miter" stroke="rgb(93.333333%, 93.333333%, 93.333333%)" stroke-opacity="1" stroke-miterlimit="4" d="M 66.269531 1.780134 C 24.921875 1.780134 1.699219 23.141741 1.699219 66.835938 L 1.699219 516.967076 C 1.699219 557.748326 22.575335 579.190848 63.922991 579.190848 L 515.915179 579.190848 C 557.262835 579.190848 578.138951 558.800223 578.138951 516.967076 L 578.138951 66.835938 C 578.138951 24.193638 557.262835 1.780134 514.620536 1.780134 C 514.620536 1.780134 66.107701 1.618304 66.269531 1.780134 Z M 66.269531 1.780134 " transform="matrix(0.0482759, 0, 0, 0.0482759, 0, 0)"/>
<path fill-rule="nonzero" fill="rgb(100%, 100%, 100%)" fill-opacity="1" stroke-width="1" stroke-linecap="butt" stroke-linejoin="miter" stroke="rgb(100%, 100%, 100%)" stroke-opacity="1" stroke-miterlimit="4" d="M 366.811124 182.60695 C 364.543739 182.60695 362.71239 183.2174 361.186266 183.915056 C 358.526449 185.266767 356.607893 186.967305 354.820147 188.667844 C 352.16033 191.284057 349.805738 194.118288 347.756371 196.385673 C 346.797093 197.475762 345.881418 198.43504 345.227365 199.04549 C 344.878536 199.350715 344.616915 199.568732 344.442501 199.699543 C 344.442501 199.699543 344.398897 199.699543 344.398897 199.699543 L 332.102695 205.019177 C 331.66666 204.975573 331.274228 205.019177 330.838192 205.019177 C 314.050824 205.019177 299.051201 209.902775 284.880046 214.350337 C 269.22637 219.277539 254.313954 225.164019 239.227125 228.085457 C 232.337763 229.437167 224.532727 229.829599 216.378862 230.483652 C 208.224998 231.137706 199.678701 232.009777 191.306819 234.974818 C 183.850611 237.591032 177.528095 240.556073 170.769545 244.785618 C 167.804503 246.660571 165.18829 248.884352 162.702887 250.759305 C 160.304692 252.590654 157.9501 253.898761 157.078029 254.073175 L 153.240916 256.645785 C 153.240916 256.645785 149.796235 259.305602 147.964886 260.831726 L 140.770299 267.023431 C 133.488506 273.258739 131.133914 289.043226 131.133914 297.851144 C 131.133914 297.851144 131.133914 297.851144 131.133914 297.894747 C 131.133914 297.894747 131.133914 297.938351 131.133914 297.981954 C 131.177517 311.499056 135.537873 324.231294 142.558045 335.611821 C 149.578217 346.992349 159.258206 357.06477 170.202698 365.52386 C 192.222493 382.442039 219.91075 393.430134 246.029279 393.517341 C 251.130895 393.517341 256.188907 393.081306 261.116109 392.165631 C 265.738086 391.29356 269.749613 389.113382 272.758258 386.322755 C 274.676814 384.535009 278.252306 382.572849 279.516809 380.479879 C 281.74059 379.476997 281.871401 378.081683 283.571939 376.293938 C 286.057342 373.721328 287.714277 370.843493 289.632833 367.268002 C 292.772289 361.337918 296.565798 355.015403 299.618047 348.213249 C 303.106332 340.364609 304.327231 332.079934 305.504527 324.318501 C 306.681823 316.557068 307.771912 309.275275 309.908486 303.69402 C 312.132267 297.894747 315.96938 293.011149 320.765771 287.822326 C 325.518558 282.633503 331.18702 277.270266 335.983411 270.337301 C 339.733317 264.886857 344.18088 260.046862 348.061596 253.985968 C 351.462673 248.709938 354.209697 242.213008 354.820147 234.364369 L 364.500136 229.262753 L 365.285 228.390682 C 366.331485 227.3878 367.203556 226.908161 368.511663 226.515729 C 370.473823 225.861676 373.569675 225.730865 377.537599 225.42564 C 381.374711 225.033208 386.519931 224.248344 391.185511 220.498438 C 393.104067 218.92871 394.717399 217.271775 395.981902 215.266012 C 397.202801 213.303852 398.031269 210.862053 398.031269 208.333047 C 398.031269 206.28368 397.464423 204.32152 396.635955 202.708188 C 395.197038 199.917561 393.191274 198.173419 391.229115 196.734501 C 388.220469 194.641531 384.993806 193.289821 381.985161 192.199732 C 380.677054 191.763696 379.412551 191.327661 378.191652 190.978832 C 377.537599 189.539915 376.752735 188.188205 375.706249 186.923702 C 374.703367 185.702802 373.395261 184.56911 371.825533 183.784246 C 370.255805 182.999382 368.468059 182.563346 366.811124 182.60695 Z M 366.505899 190.106761 C 368.904095 189.932347 370.997065 191.850903 372.52319 197.301348 C 379.674173 198.871076 398.816133 204.626745 386.476327 214.655562 C 378.845705 220.803663 367.814006 215.178805 359.965366 223.158255 L 347.407543 229.742392 C 347.407543 229.524374 347.363939 229.262753 347.363939 229.044735 C 344.18088 230.178427 340.910613 231.573741 337.640346 232.184191 C 337.160707 228.826717 336.419447 225.600054 335.547376 222.416995 C 333.105577 223.376273 330.140535 224.204741 327.698736 224.640776 C 328.658014 220.14961 329.660896 216.661326 331.971884 213.216645 L 347.538353 206.545301 C 352.596366 204.365123 360.488609 190.499193 366.505899 190.106761 Z M 168.807385 261.442176 C 169.374231 261.398572 169.941077 261.442176 170.507923 261.442176 C 184.199439 261.442176 198.457801 266.15136 209.315086 270.250094 C 218.166608 273.607567 225.492005 276.747023 232.163349 281.063775 C 238.791089 285.380527 244.721172 290.918178 250.738463 298.810422 C 260.200434 311.150228 270.054837 326.585886 274.022761 342.719201 C 274.982039 346.643521 275.636092 351.570722 275.636092 356.759545 C 275.592489 362.515214 274.851228 368.532505 272.583844 373.764931 C 270.360062 378.953754 266.086914 383.575731 259.720795 384.796631 C 255.316836 385.625098 250.738463 386.01753 246.072883 386.01753 C 222.090928 385.973927 195.579967 375.639884 174.781072 359.593776 C 154.02578 343.547668 138.677329 321.702288 138.633725 297.894747 C 138.633725 290.133314 140.29066 282.284675 143.909755 274.566846 L 150.188667 267.546673 L 157.121632 263.317129 C 160.871538 262.139833 164.795858 261.572986 168.807385 261.442176 Z M 185.551149 296.804658 C 190.21673 296.848262 195.100328 297.894747 198.763026 300.946996 C 200.201944 302.167895 201.902482 304.042848 203.428607 306.353837 C 204.911128 308.708429 206.350045 311.368245 206.393648 314.638512 C 206.393648 315.946619 206.132027 317.385536 205.347163 318.737246 C 204.344281 320.524992 202.687346 321.702288 201.074015 322.356341 C 199.41708 323.010394 197.760145 323.184809 196.146813 323.184809 C 191.786458 323.184809 187.556913 321.745891 185.420339 321.048234 L 185.115114 320.961027 L 175.696746 315.859411 L 175.347918 315.641394 L 174.999089 315.336169 C 172.164858 312.676352 170.420716 309.885725 170.377113 306.702665 C 170.333509 304.827712 171.074769 303.08357 172.121255 301.775463 C 173.16774 300.467357 174.475847 299.551682 175.914764 298.854025 C 178.748995 297.415108 182.106469 296.804658 185.551149 296.804658 Z M 185.551149 303.82483 C 183.632593 303.82483 181.801244 304.130055 180.318723 304.609694 C 178.879806 305.04573 177.876924 305.743387 177.571699 306.135819 C 177.397285 306.441044 177.397285 306.484647 177.353681 306.702665 C 177.310078 306.920683 177.615303 308.097979 179.446652 309.885725 L 187.949345 314.551305 C 189.911505 315.205358 193.486996 316.20824 196.146813 316.164636 C 197.149695 316.20824 198.021766 316.033826 198.501405 315.859411 C 198.981044 315.641394 199.111855 315.466979 199.286269 315.205358 C 199.329873 315.074547 199.373476 314.943737 199.41708 314.638512 C 199.460683 313.810044 198.763026 311.935092 197.629334 310.234553 C 196.495642 308.577618 195.013121 306.964286 194.228257 306.310233 C 192.527718 304.827712 189.039434 303.781227 185.551149 303.82483 Z M 185.551149 303.82483 " transform="matrix(0.0895856, 0, 0, 0.0895856, -9.771146, -10.612857)"/>
<g mask="url(#mask-0)">
<use xlink:href="#source-8"/>
</g>
<g mask="url(#mask-1)">
<use xlink:href="#source-12"/>
</g>
</svg>
