<?xml version="1.0" encoding="UTF-8"?>
<svg xmlns="http://www.w3.org/2000/svg" xmlns:xlink="http://www.w3.org/1999/xlink" width="28" height="28" viewBox="0 0 28 28">
<defs>
<filter id="filter-remove-color" x="0%" y="0%" width="100%" height="100%">
<feColorMatrix color-interpolation-filters="sRGB" values="0 0 0 0 1 0 0 0 0 1 0 0 0 0 1 0 0 0 1 0" />
</filter>
<mask id="mask-0">
<g filter="url(#filter-remove-color)">
<rect x="-2.8" y="-2.8" width="33.6" height="33.6" fill="rgb(0%, 0%, 0%)" fill-opacity="0.1"/>
</g>
</mask>
<clipPath id="clip-0">
<rect x="0" y="0" width="28" height="28"/>
</clipPath>
<g id="source-10" clip-path="url(#clip-0)">
<path fill-rule="evenodd" fill="rgb(100%, 100%, 100%)" fill-opacity="1" d="M 16.589844 18.28125 C 16.738281 19.523438 20.925781 25.296875 22.339844 26.34375 C 22.886719 26.75 23.269531 26.421875 24.195312 25.765625 C 25.125 25.109375 25.472656 24.550781 25.136719 23.761719 C 24.441406 22.140625 21.40625 16.320312 19.980469 15.386719 C 18.609375 13.390625 17.460938 11.882812 16.332031 9.113281 C 15.160156 6.25 14.414062 3.34375 13.96875 1.632812 C 12.375 2.09375 9.738281 3.210938 8.117188 3.960938 C 6.3125 4.792969 5.019531 5.605469 3.582031 6.375 C 4.039062 7.695312 5.125 10.949219 7.390625 14.464844 C 9.183594 17.238281 10.6875 19.449219 12.386719 21.132812 Z M 16.589844 18.28125 "/>
</g>
</defs>
<path fill-rule="nonzero" fill="rgb(6.666667%, 6.666667%, 6.666667%)" fill-opacity="1" stroke-width="3.408" stroke-linecap="butt" stroke-linejoin="miter" stroke="rgb(93.333333%, 93.333333%, 93.333333%)" stroke-opacity="1" stroke-miterlimit="4" d="M 66.269531 1.780134 C 24.921875 1.780134 1.699219 23.141741 1.699219 66.835938 L 1.699219 516.967076 C 1.699219 557.748326 22.575335 579.190848 63.922991 579.190848 L 515.915179 579.190848 C 557.262835 579.190848 578.138951 558.800223 578.138951 516.967076 L 578.138951 66.835938 C 578.138951 24.193638 557.262835 1.780134 514.620536 1.780134 C 514.620536 1.780134 66.107701 1.618304 66.269531 1.780134 Z M 66.269531 1.780134 " transform="matrix(0.0482759, 0, 0, 0.0482759, 0, 0)"/>
<path fill-rule="evenodd" fill="rgb(100%, 100%, 100%)" fill-opacity="1" d="M 12.53125 19.765625 C 12.53125 19.765625 10.460938 17.335938 8.308594 13.804688 C 6.597656 11 5.015625 7.304688 4.871094 6.914062 C 6.039062 6.066406 11.992188 3.382812 13.199219 3.121094 C 13.550781 4.476562 14.101562 7.132812 15.261719 9.710938 C 16.460938 12.378906 17.90625 14.457031 18.441406 15.160156 C 17.15625 16.371094 12.53125 19.765625 12.53125 19.765625 Z M 16.589844 18.28125 C 16.738281 19.523438 20.925781 25.296875 22.339844 26.34375 C 22.886719 26.75 23.269531 26.421875 24.195312 25.765625 C 25.125 25.109375 25.472656 24.550781 25.136719 23.761719 C 24.441406 22.140625 21.40625 16.320312 19.980469 15.386719 C 18.609375 13.390625 17.460938 11.882812 16.332031 9.113281 C 15.160156 6.25 14.414062 3.34375 13.96875 1.632812 C 12.375 2.09375 9.738281 3.210938 8.117188 3.960938 C 6.3125 4.792969 5.019531 5.605469 3.582031 6.375 C 4.039062 7.695312 5.125 10.949219 7.390625 14.464844 C 9.183594 17.238281 10.6875 19.449219 12.386719 21.132812 Z M 10.292969 6.726562 C 10.292969 6.082031 10.84375 5.5625 11.523438 5.5625 C 12.199219 5.5625 12.75 6.082031 12.75 6.726562 C 12.75 7.367188 12.199219 7.890625 11.523438 7.890625 C 10.84375 7.890625 10.292969 7.367188 10.292969 6.726562 Z M 10.292969 6.726562 "/>
<path fill-rule="evenodd" fill="rgb(100%, 100%, 100%)" fill-opacity="1" d="M 12.53125 19.765625 C 12.53125 19.765625 10.460938 17.335938 8.308594 13.804688 C 6.597656 11 5.015625 7.304688 4.871094 6.914062 C 6.039062 6.066406 11.992188 3.382812 13.199219 3.121094 C 13.550781 4.476562 14.101562 7.132812 15.261719 9.710938 C 16.460938 12.378906 17.90625 14.457031 18.441406 15.160156 C 17.15625 16.371094 12.53125 19.765625 12.53125 19.765625 Z M 16.589844 18.28125 C 16.738281 19.523438 20.925781 25.296875 22.339844 26.34375 C 22.886719 26.75 23.269531 26.421875 24.195312 25.765625 C 25.125 25.109375 25.472656 24.550781 25.136719 23.761719 C 24.441406 22.140625 21.40625 16.320312 19.980469 15.386719 C 18.609375 13.390625 17.460938 11.882812 16.332031 9.113281 C 15.160156 6.25 14.414062 3.34375 13.96875 1.632812 C 12.375 2.09375 9.738281 3.210938 8.117188 3.960938 C 6.3125 4.792969 5.019531 5.605469 3.582031 6.375 C 4.039062 7.695312 5.125 10.949219 7.390625 14.464844 C 9.183594 17.238281 10.6875 19.449219 12.386719 21.132812 Z M 10.292969 6.726562 C 10.292969 6.082031 10.84375 5.5625 11.523438 5.5625 C 12.199219 5.5625 12.75 6.082031 12.75 6.726562 C 12.75 7.367188 12.199219 7.890625 11.523438 7.890625 C 10.84375 7.890625 10.292969 7.367188 10.292969 6.726562 Z M 10.292969 6.726562 "/>
<path fill-rule="evenodd" fill="rgb(100%, 100%, 100%)" fill-opacity="1" d="M 12.53125 19.765625 C 12.53125 19.765625 10.460938 17.335938 8.308594 13.804688 C 6.597656 11 5.015625 7.304688 4.871094 6.914062 C 6.039062 6.066406 11.992188 3.382812 13.199219 3.121094 C 13.550781 4.476562 14.101562 7.132812 15.261719 9.710938 C 16.460938 12.378906 17.90625 14.457031 18.441406 15.160156 C 17.15625 16.371094 12.53125 19.765625 12.53125 19.765625 Z M 16.589844 18.28125 C 16.738281 19.523438 20.925781 25.296875 22.339844 26.34375 C 22.886719 26.75 23.269531 26.421875 24.195312 25.765625 C 25.125 25.109375 25.472656 24.550781 25.136719 23.761719 C 24.441406 22.140625 21.40625 16.320312 19.980469 15.386719 C 18.609375 13.390625 17.460938 11.882812 16.332031 9.113281 C 15.160156 6.25 14.414062 3.34375 13.96875 1.632812 C 12.375 2.09375 9.738281 3.210938 8.117188 3.960938 C 6.3125 4.792969 5.019531 5.605469 3.582031 6.375 C 4.039062 7.695312 5.125 10.949219 7.390625 14.464844 C 9.183594 17.238281 10.6875 19.449219 12.386719 21.132812 Z M 10.292969 6.726562 C 10.292969 6.082031 10.84375 5.5625 11.523438 5.5625 C 12.199219 5.5625 12.75 6.082031 12.75 6.726562 C 12.75 7.367188 12.199219 7.890625 11.523438 7.890625 C 10.84375 7.890625 10.292969 7.367188 10.292969 6.726562 Z M 10.292969 6.726562 "/>
<g mask="url(#mask-0)">
<use xlink:href="#source-10"/>
</g>
</svg>
