<?xml version="1.0" encoding="UTF-8"?>
<svg xmlns="http://www.w3.org/2000/svg" xmlns:xlink="http://www.w3.org/1999/xlink" width="28" height="28" viewBox="0 0 28 28">
<path fill-rule="nonzero" fill="rgb(6.666667%, 6.666667%, 6.666667%)" fill-opacity="1" stroke-width="3.408" stroke-linecap="butt" stroke-linejoin="miter" stroke="rgb(93.333333%, 93.333333%, 93.333333%)" stroke-opacity="1" stroke-miterlimit="4" d="M 66.269531 1.780134 C 24.921875 1.780134 1.699219 23.141741 1.699219 66.835938 L 1.699219 516.967076 C 1.699219 557.748326 22.575335 579.190848 63.922991 579.190848 L 515.915179 579.190848 C 557.262835 579.190848 578.138951 558.800223 578.138951 516.967076 L 578.138951 66.835938 C 578.138951 24.193638 557.262835 1.780134 514.620536 1.780134 C 514.620536 1.780134 66.107701 1.618304 66.269531 1.780134 Z M 66.269531 1.780134 " transform="matrix(0.0482759, 0, 0, 0.0482759, 0, 0)"/>
<path fill-rule="nonzero" fill="rgb(100%, 100%, 100%)" fill-opacity="1" d="M 8.859375 4.324219 C 7.324219 4.324219 6.511719 5.164062 6.136719 6.140625 L 4.148438 11.28125 C 3.359375 11.382812 1.957031 12.3125 1.957031 14.066406 L 1.957031 20.605469 L 3.898438 20.605469 L 3.898438 22.695312 C 3.898438 25.269531 7.539062 25.238281 7.539062 22.695312 L 7.539062 20.605469 L 20.636719 20.605469 L 20.636719 22.695312 C 20.636719 25.238281 24.277344 25.269531 24.277344 22.695312 L 24.277344 20.605469 L 26.21875 20.605469 L 26.21875 14.066406 C 26.21875 12.3125 24.816406 11.382812 24.027344 11.28125 L 22.035156 6.140625 C 21.660156 5.164062 20.847656 4.324219 19.316406 4.324219 Z M 8.835938 6.199219 L 19.339844 6.199219 C 19.996094 6.203125 20.277344 6.613281 20.464844 7.183594 L 21.964844 11.230469 L 6.207031 11.230469 L 7.710938 7.183594 C 7.898438 6.613281 8.179688 6.203125 8.835938 6.199219 Z M 5.773438 13.199219 C 6.703125 13.199219 7.457031 13.972656 7.457031 14.929688 C 7.457031 15.886719 6.703125 16.664062 5.773438 16.664062 C 4.847656 16.664062 4.09375 15.886719 4.09375 14.929688 C 4.09375 13.972656 4.847656 13.199219 5.773438 13.199219 Z M 22.398438 13.199219 C 23.328125 13.199219 24.082031 13.972656 24.082031 14.929688 C 24.082031 15.886719 23.328125 16.664062 22.398438 16.664062 C 21.472656 16.664062 20.714844 15.886719 20.714844 14.929688 C 20.714844 13.972656 21.472656 13.199219 22.398438 13.199219 Z M 22.398438 13.199219 "/>
</svg>
