<?xml version="1.0" encoding="UTF-8"?>
<svg xmlns="http://www.w3.org/2000/svg" xmlns:xlink="http://www.w3.org/1999/xlink" width="28" height="28" viewBox="0 0 28 28">
<defs>
<clipPath id="clip-0">
<path clip-rule="nonzero" d="M 19 4 L 26 4 L 26 23 L 19 23 Z M 19 4 "/>
</clipPath>
<clipPath id="clip-1">
<path clip-rule="nonzero" d="M 21.792969 22.867188 L 21.835938 20.421875 L 22.910156 19.851562 L 23.964844 20.460938 L 23.921875 22.90625 L 25.023438 22.925781 L 25.707031 19.507812 L 23.761719 18.132812 L 24.351562 6.144531 C 24.390625 4.355469 21.84375 4.453125 21.882812 6.054688 L 22 18.140625 L 19.925781 19.398438 L 20.605469 22.847656 Z M 23.117188 6.570312 C 22.800781 6.566406 22.546875 6.304688 22.554688 5.988281 C 22.558594 5.671875 22.820312 5.417969 23.136719 5.425781 C 23.453125 5.429688 23.707031 5.691406 23.699219 6.007812 C 23.695312 6.324219 23.433594 6.578125 23.117188 6.570312 Z M 23.117188 6.570312 "/>
</clipPath>
</defs>
<path fill-rule="nonzero" fill="rgb(6.666667%, 6.666667%, 6.666667%)" fill-opacity="1" stroke-width="3.408" stroke-linecap="butt" stroke-linejoin="miter" stroke="rgb(93.333333%, 93.333333%, 93.333333%)" stroke-opacity="1" stroke-miterlimit="4" d="M 66.269531 1.780134 C 24.921875 1.780134 1.699219 23.141741 1.699219 66.835938 L 1.699219 516.967076 C 1.699219 557.748326 22.575335 579.190848 63.922991 579.190848 L 515.915179 579.190848 C 557.262835 579.190848 578.138951 558.800223 578.138951 516.967076 L 578.138951 66.835938 C 578.138951 24.193638 557.262835 1.780134 514.620536 1.780134 C 514.620536 1.780134 66.107701 1.618304 66.269531 1.780134 Z M 66.269531 1.780134 " transform="matrix(0.0482759, 0, 0, 0.0482759, 0, 0)"/>
<path fill-rule="nonzero" fill="rgb(100%, 100%, 100%)" fill-opacity="1" d="M 6.8125 7.644531 C 5.785156 7.644531 5.238281 8.207031 4.984375 8.867188 L 3.644531 12.324219 C 3.113281 12.394531 2.171875 13.015625 2.171875 14.199219 L 2.171875 18.597656 L 3.476562 18.597656 L 3.476562 20.003906 C 3.476562 21.734375 5.925781 21.714844 5.925781 20.003906 L 5.925781 18.597656 L 14.738281 18.597656 L 14.738281 20.003906 C 14.738281 21.714844 17.1875 21.734375 17.1875 20.003906 L 17.1875 18.597656 L 18.492188 18.597656 L 18.492188 14.199219 C 18.492188 13.015625 17.550781 12.394531 17.019531 12.324219 L 15.679688 8.867188 C 15.425781 8.207031 14.878906 7.644531 13.851562 7.644531 Z M 6.796875 8.90625 L 13.867188 8.90625 C 14.308594 8.910156 14.496094 9.183594 14.621094 9.566406 L 15.632812 12.289062 L 5.03125 12.289062 L 6.042969 9.566406 C 6.167969 9.183594 6.355469 8.910156 6.796875 8.90625 Z M 4.742188 13.613281 C 5.363281 13.613281 5.871094 14.136719 5.871094 14.78125 C 5.871094 15.421875 5.363281 15.945312 4.742188 15.945312 C 4.117188 15.945312 3.609375 15.421875 3.609375 14.78125 C 3.609375 14.136719 4.117188 13.613281 4.742188 13.613281 Z M 15.925781 13.613281 C 16.550781 13.613281 17.054688 14.136719 17.054688 14.78125 C 17.054688 15.421875 16.550781 15.945312 15.925781 15.945312 C 15.300781 15.945312 14.792969 15.421875 14.792969 14.78125 C 14.792969 14.136719 15.300781 13.613281 15.925781 13.613281 Z M 15.925781 13.613281 "/>
<path fill-rule="nonzero" fill="rgb(100%, 100%, 100%)" fill-opacity="1" stroke-width="2.347101" stroke-linecap="round" stroke-linejoin="round" stroke="rgb(100%, 100%, 100%)" stroke-opacity="1" stroke-miterlimit="4" d="M 22.420366 17.18959 L 35.39456 30.151275 L 32.880507 38.91799 L 24.101101 41.43809 L 11.126908 28.476406 L 5.286995 34.320101 L 20.175868 55.802817 L 37.72392 52.461501 L 99.356662 118.053439 C 108.809267 127.577743 121.540681 113.323332 112.693351 105.196769 L 46.852884 42.912454 L 50.862137 25.169546 L 28.707651 10.882072 Z M 103.48452 109.174724 C 105.152746 107.487347 107.88708 107.479411 109.554123 109.16872 C 111.241501 110.836946 111.249436 113.571281 109.560127 115.238323 C 107.891901 116.925701 105.157567 116.933636 103.490524 115.244327 C 101.803146 113.576101 101.795211 110.841767 103.48452 109.174724 Z M 103.48452 109.174724 " transform="matrix(-0.09258, -0.0959844, 0.0959844, -0.09258, 22.218714, 26.610605)"/>
<path fill-rule="nonzero" fill="rgb(100%, 100%, 100%)" fill-opacity="1" stroke-width="2.347101" stroke-linecap="round" stroke-linejoin="round" stroke="rgb(100%, 100%, 100%)" stroke-opacity="1" stroke-miterlimit="4" d="M 22.420366 17.18959 L 35.39456 30.151275 L 32.880507 38.91799 L 24.101101 41.43809 L 11.126908 28.476406 L 5.286995 34.320101 L 20.175868 55.802817 L 37.72392 52.461501 L 99.356662 118.053439 C 108.809267 127.577743 121.540681 113.323332 112.693351 105.196769 L 46.852884 42.912454 L 50.862137 25.169546 L 28.707651 10.882072 Z M 103.48452 109.174724 C 105.152746 107.487347 107.88708 107.479411 109.554123 109.16872 C 111.241501 110.836946 111.249436 113.571281 109.560127 115.238323 C 107.891901 116.925701 105.157567 116.933636 103.490524 115.244327 C 101.803146 113.576101 101.795211 110.841767 103.48452 109.174724 Z M 103.48452 109.174724 " transform="matrix(-0.09258, -0.0959844, 0.0959844, -0.09258, 22.218714, 26.610605)"/>
<path fill-rule="nonzero" fill="rgb(100%, 100%, 100%)" fill-opacity="1" stroke-width="2.347101" stroke-linecap="round" stroke-linejoin="round" stroke="rgb(100%, 100%, 100%)" stroke-opacity="1" stroke-miterlimit="4" d="M 22.420366 17.18959 L 35.39456 30.151275 L 32.880507 38.91799 L 24.101101 41.43809 L 11.126908 28.476406 L 5.286995 34.320101 L 20.175868 55.802817 L 37.72392 52.461501 L 99.356662 118.053439 C 108.809267 127.577743 121.540681 113.323332 112.693351 105.196769 L 46.852884 42.912454 L 50.862137 25.169546 L 28.707651 10.882072 Z M 103.48452 109.174724 C 105.152746 107.487347 107.88708 107.479411 109.554123 109.16872 C 111.241501 110.836946 111.249436 113.571281 109.560127 115.238323 C 107.891901 116.925701 105.157567 116.933636 103.490524 115.244327 C 101.803146 113.576101 101.795211 110.841767 103.48452 109.174724 Z M 103.48452 109.174724 " transform="matrix(-0.09258, -0.0959844, 0.0959844, -0.09258, 22.218714, 26.610605)"/>
<g clip-path="url(#clip-0)">
<g clip-path="url(#clip-1)">
<path fill-rule="nonzero" fill="rgb(100%, 100%, 100%)" fill-opacity="1" stroke-width="2.347101" stroke-linecap="round" stroke-linejoin="round" stroke="rgb(100%, 100%, 100%)" stroke-opacity="1" stroke-miterlimit="4" d="M 22.420366 17.18959 L 35.39456 30.151275 L 32.880507 38.91799 L 24.101101 41.43809 L 11.126908 28.476406 L 5.286995 34.320101 L 20.175868 55.802817 L 37.72392 52.461501 L 99.356662 118.053439 C 108.809267 127.577743 121.540681 113.323332 112.693351 105.196769 L 46.852884 42.912454 L 50.862137 25.169546 L 28.707651 10.882072 Z M 103.48452 109.174724 C 105.152746 107.487347 107.88708 107.479411 109.554123 109.16872 C 111.241501 110.836946 111.249436 113.571281 109.560127 115.238323 C 107.891901 116.925701 105.157567 116.933636 103.490524 115.244327 C 101.803146 113.576101 101.795211 110.841767 103.48452 109.174724 Z M 103.48452 109.174724 " transform="matrix(-0.09258, -0.0959844, 0.0959844, -0.09258, 22.218714, 26.610605)"/>
</g>
</g>
<path fill-rule="nonzero" fill="rgb(100%, 100%, 100%)" fill-opacity="1" stroke-width="2.347101" stroke-linecap="round" stroke-linejoin="round" stroke="rgb(100%, 100%, 100%)" stroke-opacity="1" stroke-miterlimit="4" d="M 24.335605 15.41489 L 37.772874 28.782529 L 34.441387 40.464205 L 23.500624 43.748379 L 9.932371 30.010221 L 5.207898 34.528686 L 19.406415 54.490902 L 38.307053 50.337968 L 100.782362 116.701891 C 108.286225 124.997719 120.993877 114.016823 111.945584 105.085975 L 45.034377 42.013078 L 48.908762 24.831929 L 28.954664 10.794749 Z M 104.304654 108.704171 C 105.97288 107.016793 108.929405 106.694111 110.596447 108.38342 C 112.304908 110.071981 113.642705 113.030894 111.23554 116.243862 C 109.262288 118.247482 106.049777 118.160472 104.063501 116.000465 C 102.376123 114.332239 102.59501 110.392297 104.304654 108.704171 Z M 104.304654 108.704171 " transform="matrix(-0.09258, -0.0959844, 0.0959844, -0.09258, 22.218714, 26.610605)"/>
<path fill-rule="nonzero" fill="rgb(100%, 100%, 100%)" fill-opacity="1" stroke-width="2.347101" stroke-linecap="round" stroke-linejoin="round" stroke="rgb(100%, 100%, 100%)" stroke-opacity="1" stroke-miterlimit="4" d="M 24.211351 15.417133 L 47.674202 39.065214 L 50.88322 25.189881 L 28.788992 10.79774 Z M 24.211351 15.417133 " transform="matrix(-0.09258, -0.0959844, 0.0959844, -0.09258, 22.218714, 26.610605)"/>
</svg>
