<?xml version="1.0" encoding="UTF-8"?>
<svg xmlns="http://www.w3.org/2000/svg" xmlns:xlink="http://www.w3.org/1999/xlink" width="28" height="28" viewBox="0 0 28 28">
<path fill-rule="nonzero" fill="rgb(6.666667%, 6.666667%, 6.666667%)" fill-opacity="1" stroke-width="3.408" stroke-linecap="butt" stroke-linejoin="miter" stroke="rgb(93.333333%, 93.333333%, 93.333333%)" stroke-opacity="1" stroke-miterlimit="4" d="M 66.269531 1.780134 C 24.921875 1.780134 1.699219 23.141741 1.699219 66.835938 L 1.699219 516.967076 C 1.699219 557.748326 22.575335 579.190848 63.922991 579.190848 L 515.915179 579.190848 C 557.262835 579.190848 578.138951 558.881138 578.138951 516.967076 L 578.138951 66.835938 C 578.138951 24.193638 557.262835 1.780134 514.620536 1.780134 C 514.620536 1.780134 66.107701 1.618304 66.269531 1.780134 Z M 66.269531 1.780134 " transform="matrix(0.0482759, 0, 0, 0.0482759, 0, 0)"/>
<path fill-rule="evenodd" fill="rgb(100%, 100%, 100%)" fill-opacity="1" stroke-width="2" stroke-linecap="butt" stroke-linejoin="miter" stroke="rgb(100%, 100%, 100%)" stroke-opacity="1" stroke-miterlimit="4" d="M 67.620547 570.429251 C 92.068671 557.30801 112.956116 558.653778 133.647303 547.354932 C 144.749892 549.794137 153.020759 548.812848 160.64678 547.1026 C 184.085578 557.868747 204.664618 559.607031 226.701573 570.681582 C 224.851142 582.23276 220.841874 592.213875 214.113033 600.288485 C 205.954312 595.914738 198.244181 594.176454 190.786382 594.008233 L 190.253682 672.62353 C 158.151501 678.595377 130.92773 676.015988 104.292733 672.371199 L 104.040401 594.260564 C 94.676097 593.980196 87.554739 597.456764 80.181051 600.568853 C 73.115767 590.92418 69.835457 580.746808 67.620547 570.429251 Z M 67.620547 570.429251 " transform="matrix(0.139326, 0, 0, 0.139326, -6.132212, -71.205877)"/>
<path fill-rule="evenodd" fill="rgb(100%, 100%, 100%)" fill-opacity="1" stroke-width="1" stroke-linecap="butt" stroke-linejoin="miter" stroke="rgb(100%, 100%, 100%)" stroke-opacity="1" stroke-miterlimit="4" d="M 71.293373 569.111519 C 73.508283 579.849629 77.377367 589.886817 84.919276 598.46609 " transform="matrix(0.139326, 0, 0, 0.139326, -6.132212, -71.205877)"/>
<path fill-rule="evenodd" fill="rgb(100%, 100%, 100%)" fill-opacity="1" stroke-width="1" stroke-linecap="butt" stroke-linejoin="miter" stroke="rgb(100%, 100%, 100%)" stroke-opacity="1" stroke-miterlimit="4" d="M 105.358132 668.165673 C 133.479082 672.763715 161.600032 673.773041 189.749019 667.913341 " transform="matrix(0.139326, 0, 0, 0.139326, -6.132212, -71.205877)"/>
<path fill-rule="evenodd" fill="rgb(100%, 100%, 100%)" fill-opacity="1" stroke-width="1" stroke-linecap="butt" stroke-linejoin="miter" stroke="rgb(100%, 100%, 100%)" stroke-opacity="1" stroke-miterlimit="4" d="M 133.394972 547.607263 C 133.170677 549.934321 135.077182 560.364025 147.273207 560.980836 C 159.216901 561.597646 161.571995 549.457695 161.17948 547.887632 " transform="matrix(0.139326, 0, 0, 0.139326, -6.132212, -71.205877)"/>
<path fill-rule="evenodd" fill="rgb(100%, 100%, 100%)" fill-opacity="1" stroke-width="1" stroke-linecap="butt" stroke-linejoin="miter" stroke="rgb(100%, 100%, 100%)" stroke-opacity="1" stroke-miterlimit="4" d="M 128.208157 550.410947 C 127.983862 552.738005 132.778161 565.522804 146.54425 565.887283 C 160.590706 566.251762 166.338258 551.195979 165.945742 549.625916 " transform="matrix(0.139326, 0, 0, 0.139326, -6.132212, -71.205877)"/>
<path fill-rule="evenodd" fill="rgb(100%, 100%, 100%)" fill-opacity="1" stroke-width="1" stroke-linecap="butt" stroke-linejoin="miter" stroke="rgb(100%, 100%, 100%)" stroke-opacity="1" stroke-miterlimit="4" d="M 134.516445 552.345489 C 143.067681 554.5604 150.609591 554.083773 159.833711 552.121195 " transform="matrix(0.139326, 0, 0, 0.139326, -6.132212, -71.205877)"/>
<path fill-rule="evenodd" fill="rgb(100%, 100%, 100%)" fill-opacity="1" stroke-width="1" stroke-linecap="butt" stroke-linejoin="miter" stroke="rgb(100%, 100%, 100%)" stroke-opacity="1" stroke-miterlimit="4" d="M 104.152548 558.289299 C 106.731938 568.158267 110.993537 579.765518 103.900217 593.671791 " transform="matrix(0.139326, 0, 0, 0.139326, -6.132212, -71.205877)"/>
<path fill-rule="evenodd" fill="rgb(100%, 100%, 100%)" fill-opacity="1" stroke-width="1" stroke-linecap="butt" stroke-linejoin="miter" stroke="rgb(100%, 100%, 100%)" stroke-opacity="1" stroke-miterlimit="4" d="M 190.36583 558.485557 C 187.78644 568.354525 183.524841 579.961776 190.646198 593.868048 " transform="matrix(0.139326, 0, 0, 0.139326, -6.132212, -71.205877)"/>
<path fill-rule="evenodd" fill="rgb(100%, 100%, 100%)" fill-opacity="1" stroke-width="1" stroke-linecap="butt" stroke-linejoin="miter" stroke="rgb(100%, 100%, 100%)" stroke-opacity="1" stroke-miterlimit="4" d="M 223.281079 568.831151 C 221.066169 579.597297 217.197085 589.634486 209.655175 598.185722 " transform="matrix(0.139326, 0, 0, 0.139326, -6.132212, -71.205877)"/>
</svg>
