<?xml version="1.0" encoding="UTF-8"?>
<svg xmlns="http://www.w3.org/2000/svg" xmlns:xlink="http://www.w3.org/1999/xlink" width="28" height="28" viewBox="0 0 28 28">
<path fill-rule="nonzero" fill="rgb(6.666667%, 6.666667%, 6.666667%)" fill-opacity="1" stroke-width="3.408" stroke-linecap="butt" stroke-linejoin="miter" stroke="rgb(93.333333%, 93.333333%, 93.333333%)" stroke-opacity="1" stroke-miterlimit="4" d="M 66.269531 1.780134 C 24.921875 1.780134 1.699219 23.141741 1.699219 66.835938 L 1.699219 516.967076 C 1.699219 557.748326 22.575335 579.190848 63.922991 579.190848 L 515.915179 579.190848 C 557.262835 579.190848 578.138951 558.881138 578.138951 516.967076 L 578.138951 66.835938 C 578.138951 24.193638 557.262835 1.780134 514.620536 1.780134 C 514.620536 1.780134 66.107701 1.618304 66.269531 1.780134 Z M 66.269531 1.780134 " transform="matrix(0.0482759, 0, 0, 0.0482759, 0, 0)"/>
<path fill-rule="nonzero" fill="rgb(100%, 100%, 100%)" fill-opacity="1" stroke-width="3.33063" stroke-linecap="butt" stroke-linejoin="miter" stroke="rgb(100%, 100%, 100%)" stroke-opacity="1" stroke-miterlimit="4" d="M 529.508929 239.185268 C 529.508929 239.185268 534.6875 269.52846 538.571429 276.001674 C 542.455357 282.474888 549.414062 306.344866 547.633929 315.407366 C 541.160714 347.045201 537.276786 347.045201 518.504464 369.620536 C 511.383929 378.197545 505.15346 384.347098 498.113839 386.450893 C 487.02846 389.84933 475.78125 385.31808 469.712612 379.734933 C 453.691406 364.68471 454.581473 328.920201 454.581473 328.920201 C 454.581473 328.920201 440.421317 324.388951 438.479353 317.996652 C 436.537388 311.523438 435.890067 314.112723 435.890067 314.112723 C 435.890067 314.112723 414.609375 359.910714 405.546875 363.794643 C 396.484375 367.678571 380.382254 367.03125 380.382254 367.03125 L 172.430246 345.103237 C 172.430246 345.103237 162.720424 345.103237 154.952567 337.335379 C 147.265625 329.567522 146.618304 291.456473 146.618304 291.456473 L 126.551339 279.238281 C 126.551339 279.238281 108.507254 294.69308 98.797433 297.282366 C 89.087612 299.871652 47.173549 325.036272 47.173549 325.036272 C 47.173549 325.036272 32.932478 311.523438 33.579799 297.929688 C 34.227121 284.416853 48.468192 248.895089 48.468192 248.895089 L 42.642299 246.305804 C 42.642299 246.305804 49.115513 226.238839 71.690848 210.78404 C 94.266183 195.248326 105.917969 188.208705 105.917969 188.208705 C 105.917969 188.208705 134.319196 218.551897 138.203125 235.301339 C 142.087054 252.131696 141.439732 263.055246 141.439732 263.055246 L 154.305246 250.189732 L 164.015067 216.609933 C 164.015067 216.609933 169.193638 201.074219 178.256138 193.953683 C 187.237723 186.914062 198.242188 186.914062 198.242188 186.914062 C 198.242188 186.914062 396.484375 195.167411 407.488839 200.426897 C 421.001674 206.900112 428.769531 219.84654 428.769531 219.84654 C 428.769531 219.84654 443.657924 255.287388 444.305246 286.358817 C 444.547991 297.282366 534.6875 237.890625 529.508929 239.185268 Z M 529.508929 239.185268 " transform="matrix(0.0482759, 0, 0, 0.0482759, 0, 0)"/>
</svg>
