<?xml version="1.0" encoding="UTF-8"?>
<svg xmlns="http://www.w3.org/2000/svg" xmlns:xlink="http://www.w3.org/1999/xlink" width="28" height="28" viewBox="0 0 28 28">
<path fill-rule="nonzero" fill="rgb(6.666667%, 6.666667%, 6.666667%)" fill-opacity="1" stroke-width="3.408" stroke-linecap="butt" stroke-linejoin="miter" stroke="rgb(93.333333%, 93.333333%, 93.333333%)" stroke-opacity="1" stroke-miterlimit="4" d="M 66.269531 1.780134 C 24.921875 1.780134 1.699219 23.141741 1.699219 66.835938 L 1.699219 516.967076 C 1.699219 557.748326 22.575335 579.190848 63.922991 579.190848 L 515.915179 579.190848 C 557.262835 579.190848 578.138951 558.881138 578.138951 516.967076 L 578.138951 66.835938 C 578.138951 24.193638 557.262835 1.780134 514.620536 1.780134 C 514.620536 1.780134 66.107701 1.618304 66.269531 1.780134 Z M 66.269531 1.780134 " transform="matrix(0.0482759, 0, 0, 0.0482759, 0, 0)"/>
<path fill="none" stroke-width="28.173355" stroke-linecap="round" stroke-linejoin="round" stroke="rgb(100%, 100%, 100%)" stroke-opacity="1" stroke-miterlimit="4" d="M 477.037388 164.608259 L 48.186942 164.608259 L 97.868862 376.363281 L 427.355469 374.906808 Z M 477.037388 164.608259 " transform="matrix(0.0482759, 0, 0, 0.0482759, 1.544828, 3.186207)"/>
<path fill="none" stroke-width="18.782236" stroke-linecap="round" stroke-linejoin="miter" stroke="rgb(100%, 100%, 100%)" stroke-opacity="1" stroke-miterlimit="4" d="M 128.050223 165.741071 L 128.050223 363.174107 " transform="matrix(0.0482759, 0, 0, 0.0482759, 1.544828, 3.186207)"/>
<path fill="none" stroke-width="18.782236" stroke-linecap="round" stroke-linejoin="miter" stroke="rgb(100%, 100%, 100%)" stroke-opacity="1" stroke-miterlimit="4" d="M 86.459821 243.015067 L 445.156808 243.015067 " transform="matrix(0.0482759, 0, 0, 0.0482759, 1.544828, 3.186207)"/>
<path fill="none" stroke-width="18.782236" stroke-linecap="round" stroke-linejoin="miter" stroke="rgb(100%, 100%, 100%)" stroke-opacity="1" stroke-miterlimit="4" d="M 215.114955 165.741071 L 215.114955 363.255022 " transform="matrix(0.0482759, 0, 0, 0.0482759, 1.544828, 3.186207)"/>
<path fill="none" stroke-width="18.782236" stroke-linecap="round" stroke-linejoin="miter" stroke="rgb(100%, 100%, 100%)" stroke-opacity="1" stroke-miterlimit="4" d="M 306.225446 165.741071 L 306.225446 372.155692 " transform="matrix(0.0482759, 0, 0, 0.0482759, 1.544828, 3.186207)"/>
<path fill="none" stroke-width="18.782236" stroke-linecap="round" stroke-linejoin="miter" stroke="rgb(100%, 100%, 100%)" stroke-opacity="1" stroke-miterlimit="4" d="M 395.313058 165.741071 L 395.313058 373.53125 " transform="matrix(0.0482759, 0, 0, 0.0482759, 1.544828, 3.186207)"/>
<path fill="none" stroke-width="18.782236" stroke-linecap="round" stroke-linejoin="miter" stroke="rgb(100%, 100%, 100%)" stroke-opacity="1" stroke-miterlimit="4" d="M 104.261161 322.069196 L 427.355469 322.069196 " transform="matrix(0.0482759, 0, 0, 0.0482759, 1.544828, 3.186207)"/>
<path fill-rule="evenodd" fill="rgb(100%, 100%, 100%)" fill-opacity="1" stroke-width="20" stroke-linecap="round" stroke-linejoin="round" stroke="rgb(100%, 100%, 100%)" stroke-opacity="1" stroke-miterlimit="4" d="M 287.087054 222.921317 L 340.814732 78.568638 L 356.512277 84.394531 L 302.056362 230.851004 Z M 287.087054 222.921317 " transform="matrix(0.0482759, 0, 0, 0.0482759, 0, 0)"/>
</svg>
