<?xml version="1.0" encoding="UTF-8"?>
<svg xmlns="http://www.w3.org/2000/svg" xmlns:xlink="http://www.w3.org/1999/xlink" width="28" height="28" viewBox="0 0 28 28">
<defs>
<filter id="filter-remove-color" x="0%" y="0%" width="100%" height="100%">
<feColorMatrix color-interpolation-filters="sRGB" values="0 0 0 0 1 0 0 0 0 1 0 0 0 0 1 0 0 0 1 0" />
</filter>
<mask id="mask-0">
<g filter="url(#filter-remove-color)">
<rect x="-2.8" y="-2.8" width="33.6" height="33.6" fill="rgb(0%, 0%, 0%)" fill-opacity="0.5"/>
</g>
</mask>
<clipPath id="clip-0">
<rect x="0" y="0" width="28" height="28"/>
</clipPath>
<g id="source-8" clip-path="url(#clip-0)">
<path fill-rule="nonzero" fill="rgb(100%, 100%, 100%)" fill-opacity="1" d="M 2.476562 5.804688 L 2.476562 26.300781 L 16.4375 26.300781 L 16.4375 5.804688 Z M 2.476562 5.804688 "/>
</g>
<mask id="mask-1">
<g filter="url(#filter-remove-color)">
<rect x="-2.8" y="-2.8" width="33.6" height="33.6" fill="rgb(0%, 0%, 0%)" fill-opacity="0.8"/>
</g>
</mask>
<clipPath id="clip-1">
<rect x="0" y="0" width="28" height="28"/>
</clipPath>
<g id="source-12" clip-path="url(#clip-1)">
<path fill-rule="nonzero" fill="rgb(100%, 100%, 100%)" fill-opacity="1" d="M 11.671875 1.847656 L 11.671875 8.511719 L 14.007812 6.773438 C 14.757812 6.488281 15.476562 6.273438 16.160156 6.136719 C 16.851562 5.988281 17.519531 5.914062 18.167969 5.914062 C 19.1875 5.914062 20.058594 6.066406 20.78125 6.367188 C 21.507812 6.667969 22.097656 7.121094 22.542969 7.722656 C 22.824219 8.089844 23.023438 8.546875 23.140625 9.089844 C 23.257812 9.628906 23.316406 10.4375 23.316406 11.515625 L 23.316406 18.5625 L 21.277344 18.5625 L 21.277344 16.730469 C 20.84375 17.46875 20.292969 18.011719 19.632812 18.363281 C 18.980469 18.710938 18.179688 18.882812 17.242188 18.882812 C 16.082031 18.882812 15.140625 18.582031 14.410156 17.984375 L 14.410156 22.34375 L 25.628906 22.34375 L 25.628906 1.847656 Z M 11.671875 8.511719 Z M 14.355469 17.9375 C 14.3125 17.898438 14.269531 17.863281 14.230469 17.824219 Z M 14.355469 11.941406 Z M 14.355469 11.941406 C 14.394531 11.90625 14.4375 11.871094 14.484375 11.835938 C 15.410156 11.125 16.765625 10.765625 18.554688 10.765625 L 21.277344 10.765625 L 21.277344 10.445312 C 21.269531 9.460938 21.019531 8.75 20.527344 8.308594 C 20.035156 7.859375 19.246094 7.636719 18.167969 7.636719 C 17.476562 7.636719 16.777344 7.734375 16.070312 7.933594 C 15.488281 8.097656 14.914062 8.328125 14.355469 8.617188 Z M 14.355469 17.9375 Z M 18.707031 12.355469 C 17.523438 12.355469 16.628906 12.5625 16.027344 12.984375 C 15.433594 13.394531 15.132812 14.011719 15.132812 14.835938 C 15.132812 15.578125 15.355469 16.15625 15.804688 16.566406 C 16.253906 16.980469 16.875 17.183594 17.671875 17.183594 C 18.789062 17.183594 19.667969 16.800781 20.304688 16.027344 C 20.945312 15.25 21.269531 14.175781 21.277344 12.808594 L 21.277344 12.355469 Z M 18.707031 12.355469 "/>
</g>
<mask id="mask-2">
<g filter="url(#filter-remove-color)">
<rect x="-2.8" y="-2.8" width="33.6" height="33.6" fill="rgb(0%, 0%, 0%)" fill-opacity="0.502"/>
</g>
</mask>
<clipPath id="clip-2">
<rect x="0" y="0" width="28" height="28"/>
</clipPath>
<g id="source-16" clip-path="url(#clip-2)">
<path fill-rule="nonzero" fill="rgb(100%, 100%, 100%)" fill-opacity="1" d="M 11.671875 1.847656 L 11.671875 8.511719 C 14.890625 9.3125 14.222656 16.539062 14.410156 22.34375 L 25.628906 22.34375 L 25.628906 1.847656 Z M 11.671875 8.511719 Z M 11.671875 8.511719 "/>
</g>
</defs>
<path fill-rule="nonzero" fill="rgb(6.666667%, 6.666667%, 6.666667%)" fill-opacity="1" stroke-width="3.408" stroke-linecap="butt" stroke-linejoin="miter" stroke="rgb(93.333333%, 93.333333%, 93.333333%)" stroke-opacity="1" stroke-miterlimit="4" d="M 66.269531 1.780134 C 24.921875 1.780134 1.699219 23.141741 1.699219 66.835938 L 1.699219 516.967076 C 1.699219 557.748326 22.575335 579.190848 63.922991 579.190848 L 515.915179 579.190848 C 557.262835 579.190848 578.138951 558.881138 578.138951 516.967076 L 578.138951 66.835938 C 578.138951 24.193638 557.262835 1.780134 514.620536 1.780134 C 514.620536 1.780134 66.107701 1.618304 66.269531 1.780134 Z M 66.269531 1.780134 " transform="matrix(0.0482759, 0, 0, 0.0482759, 0, 0)"/>
<path fill-rule="nonzero" fill="rgb(100%, 100%, 100%)" fill-opacity="1" d="M 2.476562 5.804688 L 2.476562 26.300781 L 16.4375 26.300781 L 16.4375 5.804688 Z M 8.972656 9.921875 C 9.996094 9.921875 10.867188 10.070312 11.585938 10.371094 C 12.316406 10.675781 12.902344 11.128906 13.351562 11.730469 C 13.628906 12.097656 13.828125 12.554688 13.945312 13.097656 C 14.0625 13.632812 14.125 14.441406 14.125 15.523438 L 14.125 22.570312 L 12.082031 22.570312 L 12.082031 20.738281 C 11.648438 21.472656 11.101562 22.019531 10.441406 22.371094 C 9.785156 22.714844 8.988281 22.890625 8.046875 22.890625 C 6.789062 22.890625 5.785156 22.535156 5.035156 21.832031 C 4.285156 21.117188 3.910156 20.164062 3.910156 18.976562 C 3.910156 17.601562 4.371094 16.554688 5.289062 15.84375 C 6.214844 15.128906 7.574219 14.773438 9.359375 14.773438 L 12.082031 14.773438 L 12.082031 14.453125 C 12.074219 13.46875 11.828125 12.753906 11.332031 12.3125 C 10.839844 11.867188 10.054688 11.640625 8.972656 11.640625 C 8.28125 11.640625 7.585938 11.738281 6.878906 11.9375 C 6.171875 12.136719 5.484375 12.429688 4.816406 12.8125 L 4.816406 10.78125 C 5.566406 10.496094 6.28125 10.28125 6.964844 10.140625 C 7.65625 9.996094 8.324219 9.921875 8.972656 9.921875 Z M 9.515625 16.359375 C 8.332031 16.359375 7.4375 16.570312 6.832031 16.988281 C 6.238281 17.402344 5.941406 18.019531 5.941406 18.84375 C 5.941406 19.585938 6.164062 20.164062 6.613281 20.574219 C 7.0625 20.984375 7.683594 21.191406 8.476562 21.191406 C 9.59375 21.191406 10.472656 20.804688 11.113281 20.035156 C 11.75 19.253906 12.074219 18.179688 12.082031 16.8125 L 12.082031 16.359375 Z M 9.515625 16.359375 "/>
<g mask="url(#mask-0)">
<use xlink:href="#source-8"/>
</g>
<g mask="url(#mask-1)">
<use xlink:href="#source-12"/>
</g>
<g mask="url(#mask-2)">
<use xlink:href="#source-16"/>
</g>
</svg>
