<?xml version="1.0" encoding="UTF-8"?>
<svg xmlns="http://www.w3.org/2000/svg" xmlns:xlink="http://www.w3.org/1999/xlink" width="28" height="28" viewBox="0 0 28 28">
<defs>
<clipPath id="clip-0">
<path clip-rule="nonzero" d="M 16 2 L 24 2 L 24 26 L 16 26 Z M 16 2 "/>
</clipPath>
<clipPath id="clip-1">
<path clip-rule="nonzero" d="M 18.890625 25.1875 L 18.945312 22.144531 L 20.28125 21.429688 L 21.59375 22.191406 L 21.539062 25.238281 L 22.917969 25.261719 L 23.765625 21.003906 L 21.339844 19.289062 L 22.078125 4.34375 C 22.128906 2.117188 18.953125 2.238281 19 4.234375 L 19.148438 19.296875 L 16.5625 20.867188 L 17.410156 25.164062 Z M 20.539062 4.878906 C 20.144531 4.871094 19.832031 4.546875 19.839844 4.152344 C 19.84375 3.757812 20.171875 3.441406 20.566406 3.449219 C 20.960938 3.457031 21.273438 3.78125 21.265625 4.175781 C 21.261719 4.570312 20.933594 4.886719 20.539062 4.878906 Z M 20.539062 4.878906 "/>
</clipPath>
<clipPath id="clip-2">
<path clip-rule="nonzero" d="M 2 2 L 17 2 L 17 26 L 2 26 Z M 2 2 "/>
</clipPath>
<clipPath id="clip-3">
<path clip-rule="nonzero" d="M 2.140625 6.25 L 2.261719 6.167969 C 3.054688 4.582031 7.285156 3.460938 8.082031 5.445312 C 8.148438 5.816406 8.5625 6.175781 8.988281 6.238281 L 9 12.921875 C 8.625 12.921875 8.214844 13.34375 8.207031 13.714844 L 8 24.542969 C 7.984375 25.53125 8.789062 25.542969 9.21875 25.546875 L 11.203125 25.542969 C 11.632812 25.542969 12.496094 25.261719 12.46875 24.421875 L 12.171875 13.714844 C 12.164062 13.339844 11.753906 12.929688 11.382812 12.925781 C 11.382812 12.925781 11.378906 12.921875 11.378906 12.921875 L 11.371094 6.214844 C 12.042969 6.179688 12.40625 5.871094 12.632812 5.46875 C 13.078125 4.6875 14.019531 4.941406 14.824219 5.011719 L 14.824219 5.339844 C 14.824219 5.835938 15.265625 6.226562 15.816406 6.226562 C 16.367188 6.226562 16.804688 5.832031 16.804688 5.339844 L 16.804688 3.148438 C 16.800781 2.65625 16.359375 2.261719 15.808594 2.265625 C 15.3125 2.265625 14.921875 2.59375 14.851562 3.023438 C 13.253906 2.933594 13.523438 2.410156 11.433594 2.308594 L 7.679688 2.273438 C 5.03125 2.300781 3.296875 4.042969 2.140625 6.25 Z M 2.140625 6.25 "/>
</clipPath>
</defs>
<path fill-rule="nonzero" fill="rgb(6.666667%, 6.666667%, 6.666667%)" fill-opacity="1" stroke-width="3.408" stroke-linecap="butt" stroke-linejoin="miter" stroke="rgb(93.333333%, 93.333333%, 93.333333%)" stroke-opacity="1" stroke-miterlimit="4" d="M 66.269531 1.780134 C 24.921875 1.780134 1.699219 23.141741 1.699219 66.835938 L 1.699219 516.967076 C 1.699219 557.748326 22.575335 579.190848 63.922991 579.190848 L 515.915179 579.190848 C 557.262835 579.190848 578.138951 558.881138 578.138951 516.967076 L 578.138951 66.835938 C 578.138951 24.193638 557.262835 1.780134 514.620536 1.780134 C 514.620536 1.780134 66.107701 1.618304 66.269531 1.780134 Z M 66.269531 1.780134 " transform="matrix(0.0482759, 0, 0, 0.0482759, 0, 0)"/>
<path fill-rule="nonzero" fill="rgb(100%, 100%, 100%)" fill-opacity="1" stroke-width="2.347101" stroke-linecap="round" stroke-linejoin="round" stroke="rgb(100%, 100%, 100%)" stroke-opacity="1" stroke-miterlimit="4" d="M 22.427315 17.208896 L 35.375086 30.154529 L 32.890899 38.924705 L 24.111025 41.426593 L 11.14634 28.464646 L 5.285909 34.337477 L 20.182199 55.79044 L 37.738713 52.448689 L 99.369087 118.063958 C 108.798102 127.58299 121.537281 113.325993 112.698347 105.19236 L 46.857203 42.927187 L 50.857752 25.171634 L 28.711917 10.896296 Z M 103.479671 109.164701 C 105.161243 107.488994 107.870266 107.489943 109.545973 109.171515 C 111.237994 110.836173 111.237644 113.578425 109.556072 115.254131 C 107.8745 116.929838 105.165477 116.928889 103.489771 115.247317 C 101.79775 113.582659 101.798099 110.840408 103.479671 109.164701 Z M 103.479671 109.164701 " transform="matrix(-0.115397, -0.119641, 0.119641, -0.115397, 19.419791, 29.856576)"/>
<path fill-rule="nonzero" fill="rgb(100%, 100%, 100%)" fill-opacity="1" stroke-width="2.347101" stroke-linecap="round" stroke-linejoin="round" stroke="rgb(100%, 100%, 100%)" stroke-opacity="1" stroke-miterlimit="4" d="M 22.427315 17.208896 L 35.375086 30.154529 L 32.890899 38.924705 L 24.111025 41.426593 L 11.14634 28.464646 L 5.285909 34.337477 L 20.182199 55.79044 L 37.738713 52.448689 L 99.369087 118.063958 C 108.798102 127.58299 121.537281 113.325993 112.698347 105.19236 L 46.857203 42.927187 L 50.857752 25.171634 L 28.711917 10.896296 Z M 103.479671 109.164701 C 105.161243 107.488994 107.870266 107.489943 109.545973 109.171515 C 111.237994 110.836173 111.237644 113.578425 109.556072 115.254131 C 107.8745 116.929838 105.165477 116.928889 103.489771 115.247317 C 101.79775 113.582659 101.798099 110.840408 103.479671 109.164701 Z M 103.479671 109.164701 " transform="matrix(-0.115397, -0.119641, 0.119641, -0.115397, 19.419791, 29.856576)"/>
<path fill-rule="nonzero" fill="rgb(100%, 100%, 100%)" fill-opacity="1" stroke-width="2.347101" stroke-linecap="round" stroke-linejoin="round" stroke="rgb(100%, 100%, 100%)" stroke-opacity="1" stroke-miterlimit="4" d="M 22.427315 17.208896 L 35.375086 30.154529 L 32.890899 38.924705 L 24.111025 41.426593 L 11.14634 28.464646 L 5.285909 34.337477 L 20.182199 55.79044 L 37.738713 52.448689 L 99.369087 118.063958 C 108.798102 127.58299 121.537281 113.325993 112.698347 105.19236 L 46.857203 42.927187 L 50.857752 25.171634 L 28.711917 10.896296 Z M 103.479671 109.164701 C 105.161243 107.488994 107.870266 107.489943 109.545973 109.171515 C 111.237994 110.836173 111.237644 113.578425 109.556072 115.254131 C 107.8745 116.929838 105.165477 116.928889 103.489771 115.247317 C 101.79775 113.582659 101.798099 110.840408 103.479671 109.164701 Z M 103.479671 109.164701 " transform="matrix(-0.115397, -0.119641, 0.119641, -0.115397, 19.419791, 29.856576)"/>
<g clip-path="url(#clip-0)">
<g clip-path="url(#clip-1)">
<path fill-rule="nonzero" fill="rgb(100%, 100%, 100%)" fill-opacity="1" stroke-width="2.347101" stroke-linecap="round" stroke-linejoin="round" stroke="rgb(100%, 100%, 100%)" stroke-opacity="1" stroke-miterlimit="4" d="M 22.427315 17.208896 L 35.375086 30.154529 L 32.890899 38.924705 L 24.111025 41.426593 L 11.14634 28.464646 L 5.285909 34.337477 L 20.182199 55.79044 L 37.738713 52.448689 L 99.369087 118.063958 C 108.798102 127.58299 121.537281 113.325993 112.698347 105.19236 L 46.857203 42.927187 L 50.857752 25.171634 L 28.711917 10.896296 Z M 103.479671 109.164701 C 105.161243 107.488994 107.870266 107.489943 109.545973 109.171515 C 111.237994 110.836173 111.237644 113.578425 109.556072 115.254131 C 107.8745 116.929838 105.165477 116.928889 103.489771 115.247317 C 101.79775 113.582659 101.798099 110.840408 103.479671 109.164701 Z M 103.479671 109.164701 " transform="matrix(-0.115397, -0.119641, 0.119641, -0.115397, 19.419791, 29.856576)"/>
</g>
</g>
<path fill-rule="nonzero" fill="rgb(100%, 100%, 100%)" fill-opacity="1" stroke-width="2.347101" stroke-linecap="round" stroke-linejoin="round" stroke="rgb(100%, 100%, 100%)" stroke-opacity="1" stroke-miterlimit="4" d="M 24.339087 15.396076 L 37.77677 28.781595 L 34.447606 40.458848 L 23.504763 43.747673 L 9.927567 29.99904 L 5.189823 34.538648 L 19.393946 54.475098 L 38.299032 50.344494 L 100.807144 116.708422 C 108.286109 124.999565 121.001309 114.017076 111.932292 105.106472 L 45.045466 41.995956 L 48.906985 24.824601 L 28.942717 10.792411 Z M 104.28567 108.701418 C 105.967242 107.025711 108.936094 106.689576 110.595487 108.388062 C 112.304422 110.069034 113.654326 113.036203 111.252409 116.237305 C 109.260866 118.234382 106.035301 118.15966 104.035225 116.001974 C 102.359518 114.320402 102.604698 110.410353 104.28567 108.701418 Z M 104.28567 108.701418 " transform="matrix(-0.115397, -0.119641, 0.119641, -0.115397, 19.419791, 29.856576)"/>
<path fill-rule="nonzero" fill="rgb(100%, 100%, 100%)" fill-opacity="1" stroke-width="2.347101" stroke-linecap="round" stroke-linejoin="round" stroke="rgb(100%, 100%, 100%)" stroke-opacity="1" stroke-miterlimit="4" d="M 24.189858 15.41539 L 47.668468 39.073397 L 50.89158 25.204262 L 28.793489 10.811725 Z M 24.189858 15.41539 " transform="matrix(-0.115397, -0.119641, 0.119641, -0.115397, 19.419791, 29.856576)"/>
<g clip-path="url(#clip-2)">
<g clip-path="url(#clip-3)">
<path fill-rule="nonzero" fill="rgb(100%, 100%, 100%)" fill-opacity="1" stroke-width="2.535154" stroke-linecap="round" stroke-linejoin="round" stroke="rgb(100%, 100%, 100%)" stroke-opacity="1" stroke-miterlimit="4" d="M 55.801911 12.005227 L 56.555955 12.151415 C 65.393964 9.220215 85.248453 20.796195 80.823346 31.117132 C 79.689503 32.73999 79.888242 35.612294 81.234476 37.427458 L 56.422375 62.25173 C 55.031992 60.857146 51.942353 60.896002 50.53333 62.242849 L 9.497116 101.620249 C 5.763874 105.226381 8.703825 108.262375 10.282446 109.874819 L 17.654419 117.240008 C 19.247567 118.837969 23.494284 121.005629 26.516189 117.790061 L 65.23374 76.987666 C 66.599357 75.568229 66.603951 72.522171 65.242578 71.127631 C 65.242578 71.127631 65.242621 71.098621 65.242621 71.098621 L 90.156367 46.201977 C 92.778213 48.570258 95.272773 48.777091 97.609069 48.127886 C 102.165532 46.887322 104.711725 51.329714 107.433772 54.582955 L 106.213511 55.799541 C 104.368593 57.638902 104.552499 60.72876 106.594625 62.777055 C 108.636751 64.82535 111.726084 64.989565 113.556475 63.164686 L 121.706074 55.039632 C 123.521982 53.200226 123.352603 50.095886 121.29595 48.062074 C 119.456588 46.217156 116.788011 45.98105 114.929354 47.312714 C 109.339859 41.038093 112.285804 40.099706 104.915012 31.951245 L 91.127435 17.860532 C 81.206162 8.112666 68.296634 8.122207 55.801911 12.005227 Z M 55.801911 12.005227 " transform="matrix(0.134448, -0.134854, 0.134854, 0.134448, -6.980792, 12.161045)"/>
</g>
</g>
</svg>
