<?xml version="1.0" encoding="UTF-8"?>
<svg xmlns="http://www.w3.org/2000/svg" xmlns:xlink="http://www.w3.org/1999/xlink" width="28" height="28" viewBox="0 0 28 28">
<path fill-rule="nonzero" fill="rgb(6.666667%, 6.666667%, 6.666667%)" fill-opacity="1" stroke-width="3.408" stroke-linecap="butt" stroke-linejoin="miter" stroke="rgb(93.333333%, 93.333333%, 93.333333%)" stroke-opacity="1" stroke-miterlimit="4" d="M 66.269531 1.780134 C 24.921875 1.780134 1.699219 23.141741 1.699219 66.835938 L 1.699219 516.967076 C 1.699219 557.748326 22.575335 579.190848 63.922991 579.190848 L 515.915179 579.190848 C 557.262835 579.190848 578.138951 558.881138 578.138951 516.967076 L 578.138951 66.835938 C 578.138951 24.193638 557.262835 1.780134 514.620536 1.780134 C 514.620536 1.780134 66.107701 1.618304 66.269531 1.780134 Z M 66.269531 1.780134 " transform="matrix(0.0482759, 0, 0, 0.0482759, 0, 0)"/>
<path fill-rule="nonzero" fill="rgb(100%, 100%, 100%)" fill-opacity="1" d="M 13.027344 7.574219 C 13.019531 7.574219 13.011719 7.578125 13.003906 7.578125 C 12.917969 7.613281 12.445312 8.136719 11.957031 8.738281 L 11.070312 9.835938 L 10.425781 9.882812 C 7.488281 10.242188 5.089844 11.445312 2.882812 13.382812 C 2.425781 13.863281 0.703125 15.46875 0.808594 15.859375 C 0.847656 15.898438 1.257812 15.847656 1.707031 15.90625 C 2.554688 16.015625 3.851562 16.179688 3.84375 16.359375 C 3.839844 16.449219 3.109375 16.539062 1.78125 16.707031 C 0.640625 16.851562 0.652344 17.089844 1.816406 17.5 C 3.207031 17.992188 5.035156 18.300781 7.992188 18.082031 C 10.191406 18.109375 12.148438 17.324219 14.21875 16.832031 C 14.363281 16.824219 14.792969 16.703125 15.167969 16.558594 C 17.421875 15.914062 19.277344 15.28125 21.125 15.472656 C 22.832031 15.558594 23.96875 16.71875 25.3125 17.554688 C 25.367188 17.554688 25.710938 17.777344 26.074219 18.046875 C 27.058594 18.78125 27.308594 18.675781 26.921875 17.695312 C 26.605469 16.890625 26.082031 15.054688 26.09375 14.78125 C 26.390625 13.871094 26.695312 12.761719 27.09375 11.886719 C 27.320312 11.488281 27.363281 11.082031 27.179688 11.078125 C 27.148438 11.074219 27.019531 11.121094 26.890625 11.183594 C 26.757812 11.242188 26.417969 11.402344 26.136719 11.527344 C 25.855469 11.652344 25.515625 11.851562 25.378906 11.972656 C 24.5625 12.507812 23.679688 12.765625 22.683594 12.722656 C 21.574219 12.5 20.136719 12.328125 19.027344 11.570312 C 17.320312 10.652344 17.175781 10.582031 16.464844 10.332031 C 16.082031 10.195312 15.75 10.066406 15.734375 10.046875 C 15.714844 10.027344 15.8125 9.914062 15.945312 9.789062 C 16.082031 9.667969 16.179688 9.5 16.164062 9.425781 C 16.152344 9.351562 15.742188 9.144531 15.261719 8.960938 C 14.703125 8.746094 14.167969 8.425781 13.777344 8.070312 C 13.464844 7.785156 13.136719 7.570312 13.027344 7.574219 Z M 4.058594 13.988281 C 4.304688 13.988281 4.503906 14.1875 4.503906 14.433594 C 4.503906 14.679688 4.304688 14.878906 4.058594 14.878906 C 3.8125 14.878906 3.613281 14.679688 3.613281 14.433594 C 3.613281 14.1875 3.8125 13.988281 4.058594 13.988281 Z M 4.058594 13.988281 "/>
<path fill-rule="nonzero" fill="rgb(100%, 100%, 100%)" fill-opacity="1" d="M 7.03125 16.140625 C 5.519531 14.011719 5.816406 16.175781 6.484375 14.65625 L 10.042969 11.917969 C 18.074219 9.761719 7.121094 14.277344 12.496094 13.199219 C 12.453125 13.25 12.691406 13.539062 13.027344 13.847656 C 13.363281 14.15625 13.613281 14.5625 13.574219 14.753906 C 9.863281 16.804688 14.027344 19.78125 10.613281 19.558594 C 8.941406 19.453125 6.242188 16.351562 7.03125 16.140625 Z M 7.03125 16.140625 "/>
</svg>
