<?xml version="1.0" encoding="UTF-8"?>
<svg xmlns="http://www.w3.org/2000/svg" xmlns:xlink="http://www.w3.org/1999/xlink" width="28" height="28" viewBox="0 0 28 28">
<path fill-rule="nonzero" fill="rgb(6.666667%, 6.666667%, 6.666667%)" fill-opacity="1" stroke-width="3.408" stroke-linecap="butt" stroke-linejoin="miter" stroke="rgb(93.333333%, 93.333333%, 93.333333%)" stroke-opacity="1" stroke-miterlimit="4" d="M 66.269531 1.780134 C 24.921875 1.780134 1.699219 23.141741 1.699219 66.835938 L 1.699219 516.967076 C 1.699219 557.748326 22.575335 579.190848 63.922991 579.190848 L 515.915179 579.190848 C 557.262835 579.190848 578.138951 558.881138 578.138951 516.967076 L 578.138951 66.835938 C 578.138951 24.193638 557.262835 1.780134 514.620536 1.780134 C 514.620536 1.780134 66.107701 1.618304 66.269531 1.780134 Z M 66.269531 1.780134 " transform="matrix(0.0482759, 0, 0, 0.0482759, 0, 0)"/>
<path fill-rule="nonzero" fill="rgb(100%, 100%, 100%)" fill-opacity="1" d="M 18.730469 5.855469 C 18.234375 6.941406 16.085938 9.15625 14.933594 8.628906 C 13.785156 8.097656 14.0625 5.027344 14.5625 3.941406 C 15.058594 2.855469 16.738281 1.980469 17.441406 3.273438 C 18.917969 2.980469 19.230469 4.769531 18.730469 5.855469 Z M 18.730469 5.855469 "/>
<path fill-rule="nonzero" fill="rgb(100%, 100%, 100%)" fill-opacity="1" d="M 19.441406 12.175781 C 18.25 12.25 15.285156 11.402344 15.207031 10.136719 C 15.128906 8.875 17.96875 7.671875 19.160156 7.597656 C 20.351562 7.523438 21.917969 8.589844 21.109375 9.820312 C 22.066406 10.984375 20.632812 12.101562 19.441406 12.175781 Z M 19.441406 12.175781 "/>
<path fill-rule="nonzero" fill="rgb(100%, 100%, 100%)" fill-opacity="1" d="M 8.191406 13.152344 C 8.855469 12.160156 11.328125 10.316406 12.382812 11.019531 C 13.433594 11.722656 12.667969 14.714844 12.003906 15.703125 C 11.339844 16.695312 9.542969 17.296875 9.054688 15.90625 C 7.550781 15.960938 7.53125 14.144531 8.191406 13.152344 Z M 8.191406 13.152344 "/>
<path fill-rule="nonzero" fill="rgb(100%, 100%, 100%)" fill-opacity="1" d="M 8.558594 6.75 C 9.730469 6.972656 12.394531 8.53125 12.152344 9.777344 C 11.914062 11.019531 8.863281 11.480469 7.691406 11.253906 C 6.519531 11.03125 5.269531 9.609375 6.355469 8.617188 C 5.722656 7.25 7.386719 6.523438 8.558594 6.75 Z M 8.558594 6.75 "/>
<path fill-rule="nonzero" fill="rgb(100%, 100%, 100%)" fill-opacity="1" d="M 13.378906 3.75 C 13.921875 4.808594 14.34375 7.867188 13.214844 8.445312 C 12.089844 9.027344 9.84375 6.910156 9.296875 5.851562 C 8.753906 4.789062 9.097656 2.925781 10.550781 3.171875 C 11.230469 1.828125 12.832031 2.6875 13.378906 3.75 Z M 13.378906 3.75 "/>
<path fill-rule="nonzero" fill="rgb(100%, 100%, 100%)" fill-opacity="1" d="M 15.65625 9.871094 C 15.65625 10.960938 14.757812 11.847656 13.648438 11.847656 C 12.539062 11.847656 11.640625 10.960938 11.640625 9.871094 C 11.640625 8.78125 12.539062 7.894531 13.648438 7.894531 C 14.757812 7.894531 15.65625 8.78125 15.65625 9.871094 Z M 15.65625 9.871094 "/>
<path fill-rule="nonzero" fill="rgb(100%, 100%, 100%)" fill-opacity="1" d="M 13.269531 15.648438 C 12.855469 14.53125 12.808594 11.445312 13.996094 11.003906 C 15.183594 10.566406 17.15625 12.9375 17.570312 14.054688 C 17.984375 15.171875 17.417969 16.980469 16.007812 16.5625 C 15.167969 17.816406 13.683594 16.769531 13.269531 15.648438 Z M 13.269531 15.648438 "/>
<path fill-rule="nonzero" fill="rgb(100%, 100%, 100%)" fill-opacity="1" d="M 13.34375 9.273438 C 13.136719 9.824219 12.933594 10.375 12.730469 10.925781 C 12.90625 10.953125 13.132812 11.199219 13.246094 10.976562 C 13.613281 10.523438 14.253906 10.351562 14.800781 10.558594 C 14.738281 10.300781 14.714844 10.035156 14.761719 9.777344 C 14.308594 9.558594 13.847656 9.355469 13.375 9.179688 C 13.363281 9.210938 13.351562 9.242188 13.34375 9.273438 Z M 17.167969 12.441406 C 17.90625 13.308594 18.402344 14.488281 18.101562 15.625 C 18.003906 16.058594 17.734375 16.425781 17.441406 16.734375 C 16.796875 19.605469 15.765625 22.378906 14.695312 25.117188 C 14.679688 25.351562 15.179688 25.363281 15.375 25.503906 C 15.710938 25.640625 16.050781 25.773438 16.386719 25.914062 C 17.535156 22.976562 18.636719 19.996094 19.308594 16.910156 C 19.554688 15.71875 19.726562 14.390625 19.128906 13.273438 C 18.996094 13.054688 18.886719 12.777344 18.6875 12.632812 C 18.097656 12.578125 17.535156 12.359375 16.96875 12.195312 C 17.035156 12.277344 17.101562 12.359375 17.167969 12.441406 Z M 17.167969 12.441406 "/>
</svg>
