<?xml version="1.0" encoding="UTF-8"?>
<svg xmlns="http://www.w3.org/2000/svg" xmlns:xlink="http://www.w3.org/1999/xlink" width="28" height="28" viewBox="0 0 28 28">
<path fill-rule="nonzero" fill="rgb(6.666667%, 6.666667%, 6.666667%)" fill-opacity="1" stroke-width="3.408" stroke-linecap="butt" stroke-linejoin="miter" stroke="rgb(93.333333%, 93.333333%, 93.333333%)" stroke-opacity="1" stroke-miterlimit="4" d="M 66.269531 1.780134 C 24.921875 1.780134 1.699219 23.141741 1.699219 66.835938 L 1.699219 516.967076 C 1.699219 557.748326 22.575335 579.190848 63.922991 579.190848 L 515.915179 579.190848 C 557.262835 579.190848 578.138951 558.881138 578.138951 516.967076 L 578.138951 66.835938 C 578.138951 24.193638 557.262835 1.780134 514.620536 1.780134 C 514.620536 1.780134 66.107701 1.618304 66.269531 1.780134 Z M 66.269531 1.780134 " transform="matrix(0.0482759, 0, 0, 0.0482759, 0, 0)"/>
<path fill-rule="nonzero" fill="rgb(100%, 100%, 100%)" fill-opacity="1" stroke-width="17.278179" stroke-linecap="round" stroke-linejoin="round" stroke="rgb(100%, 100%, 100%)" stroke-opacity="1" stroke-miterlimit="4" d="M 241.583932 498.885101 L 243.437357 272.072265 C 251.391638 265.121923 335.104649 251.916273 454.341632 269.292128 L 452.488207 496.104964 C 413.334612 531.474484 271.393178 522.207361 241.583932 498.885101 Z M 241.583932 498.885101 " transform="matrix(0.050582, 0, 0, 0.050582, -1.211996, -1.176033)"/>
<path fill-rule="nonzero" fill="rgb(100%, 100%, 100%)" fill-opacity="1" stroke-width="17.278179" stroke-linecap="round" stroke-linejoin="round" stroke="rgb(100%, 100%, 100%)" stroke-opacity="1" stroke-miterlimit="4" d="M 325.991978 303.966614 C 341.051053 253.924149 355.028963 203.650007 357.8091 151.13631 L 384.992661 154.920385 C 370.783072 205.503432 365.995059 258.403259 361.593175 311.457538 Z M 325.991978 303.966614 " transform="matrix(0.050582, 0, 0, 0.050582, -1.211996, -1.176033)"/>
<path fill-rule="nonzero" fill="rgb(100%, 100%, 100%)" fill-opacity="1" stroke-width="17.278179" stroke-linecap="round" stroke-linejoin="round" stroke="rgb(100%, 100%, 100%)" stroke-opacity="1" stroke-miterlimit="4" d="M 442.217146 284.273977 C 438.43307 308.522949 464.535467 263.03682 493.572452 265.121923 C 510.3305 266.048635 528.01526 276.319697 532.031013 293.618326 C 535.506184 306.592298 534.965602 318.562332 529.714232 330.995722 C 522.609438 343.738017 508.168171 356.711989 497.588206 365.284078 C 480.21235 380.806509 456.040604 398.568494 440.209269 417.952227 C 438.664748 420.577911 438.819201 429.304452 443.529988 429.304452 C 452.179303 424.670891 458.820741 417.10274 466.543344 411.07911 C 487.934952 392.23596 503.148479 378.721406 524.231184 357.715927 C 533.652759 346.363701 543.15156 333.389729 544.232725 321.574147 C 547.398992 303.194353 544.464403 282.111648 530.177588 268.905998 C 511.87502 248.286649 470.868001 249.05891 446.927933 273.307882 C 442.757728 277.555313 446.464577 280.180998 442.217146 284.273977 Z M 442.217146 284.273977 " transform="matrix(0.050582, 0, 0, 0.050582, -1.211996, -1.176033)"/>
<path fill-rule="nonzero" fill="rgb(100%, 100%, 100%)" fill-opacity="1" stroke-width="17.278179" stroke-linecap="round" stroke-linejoin="round" stroke="rgb(100%, 100%, 100%)" stroke-opacity="1" stroke-miterlimit="4" d="M 101.033506 257.060842 L 262.204221 407.033783 L 260.350796 474.529329 L 77.556795 278.606903 Z M 101.033506 257.060842 " transform="matrix(0.050582, 0, 0, 0.050582, -0.114387, 0.360619)"/>
<path fill-rule="nonzero" fill="rgb(100%, 100%, 100%)" fill-opacity="1" stroke-width="17.278179" stroke-linecap="round" stroke-linejoin="round" stroke="rgb(100%, 100%, 100%)" stroke-opacity="1" stroke-miterlimit="4" d="M 104.663129 277.757417 C 115.938129 267.640807 126.672547 242.619575 123.042923 206.477796 C 82.808164 219.99235 35.931967 274.900054 29.753885 294.59269 C 56.242412 301.465806 87.132822 297.063923 104.663129 277.757417 Z M 104.663129 277.757417 " transform="matrix(0.050582, 0, 0, 0.050582, -0.114387, 0.360619)"/>
</svg>
