<?xml version="1.0" encoding="UTF-8"?>
<svg xmlns="http://www.w3.org/2000/svg" xmlns:xlink="http://www.w3.org/1999/xlink" width="28" height="28" viewBox="0 0 28 28">
<defs>
<filter id="filter-remove-color" x="0%" y="0%" width="100%" height="100%">
<feColorMatrix color-interpolation-filters="sRGB" values="0 0 0 0 1 0 0 0 0 1 0 0 0 0 1 0 0 0 1 0" />
</filter>
<mask id="mask-0">
<g filter="url(#filter-remove-color)">
<rect x="-2.8" y="-2.8" width="33.6" height="33.6" fill="rgb(0%, 0%, 0%)" fill-opacity="0.99"/>
</g>
</mask>
<clipPath id="clip-0">
<rect x="0" y="0" width="28" height="28"/>
</clipPath>
<g id="source-15" clip-path="url(#clip-0)">
<path fill="none" stroke-width="5.1" stroke-linecap="butt" stroke-linejoin="miter" stroke="rgb(100%, 100%, 100%)" stroke-opacity="1" stroke-miterlimit="4" d="M 250.926616 425.664862 L 329.025879 425.664862 " transform="matrix(0.0629707, 0, 0, 0.0629707, -4.179942, -2.378652)"/>
</g>
</defs>
<path fill-rule="nonzero" fill="rgb(6.666667%, 6.666667%, 6.666667%)" fill-opacity="1" stroke-width="3.408" stroke-linecap="butt" stroke-linejoin="miter" stroke="rgb(93.333333%, 93.333333%, 93.333333%)" stroke-opacity="1" stroke-miterlimit="4" d="M 66.269531 1.780134 C 24.921875 1.780134 1.699219 23.141741 1.699219 66.835938 L 1.699219 516.967076 C 1.699219 557.748326 22.575335 579.190848 63.922991 579.190848 L 515.915179 579.190848 C 557.262835 579.190848 578.138951 558.881138 578.138951 516.967076 L 578.138951 66.835938 C 578.138951 24.193638 557.262835 1.780134 514.620536 1.780134 C 514.620536 1.780134 66.107701 1.618304 66.269531 1.780134 Z M 66.269531 1.780134 " transform="matrix(0.0482759, 0, 0, 0.0482759, 0, 0)"/>
<path fill-rule="nonzero" fill="rgb(100%, 100%, 100%)" fill-opacity="1" stroke-width="5.1" stroke-linecap="round" stroke-linejoin="round" stroke="rgb(100%, 100%, 100%)" stroke-opacity="1" stroke-miterlimit="4" d="M 328.281486 213.264644 C 328.281486 213.326677 328.219453 213.450742 328.15742 213.512775 C 327.04083 214.939529 325.862207 216.30425 324.559519 217.544905 C 323.194798 219.033692 321.830077 220.398413 320.341291 221.577036 C 318.852504 222.817691 317.301685 223.934281 315.688833 224.926805 C 314.138013 225.91933 312.463128 226.725756 310.726211 227.470149 C 309.733686 227.904379 308.741162 228.214543 307.748637 228.586739 L 307.748637 300.420691 L 453.525656 300.420691 L 453.525656 226.291527 C 453.525656 219.095725 447.694575 213.264644 440.498774 213.264644 Z M 453.525656 300.420691 L 453.525656 341.672486 Z M 453.525656 341.672486 L 307.748637 341.672486 L 307.748637 425.602829 L 440.498774 425.602829 C 447.694575 425.602829 453.525656 419.771748 453.525656 412.575947 Z M 307.748637 341.672486 L 307.748637 300.420691 Z M 307.748637 341.672486 " transform="matrix(0.0629707, 0, 0, 0.0629707, -4.179942, -2.378652)"/>
<path fill-rule="nonzero" fill="rgb(100%, 100%, 100%)" fill-opacity="1" stroke-width="5.1" stroke-linecap="round" stroke-linejoin="round" stroke="rgb(100%, 100%, 100%)" stroke-opacity="1" stroke-miterlimit="4" d="M 133.498575 213.264644 C 126.240741 213.264644 120.40966 219.095725 120.40966 226.291527 L 120.40966 300.420691 L 271.645563 300.420691 L 271.645563 227.346084 C 269.970678 226.663723 268.357826 225.91933 266.807007 225.050871 C 265.132122 224.182412 263.51927 223.189888 262.030483 222.073298 C 260.479664 221.018741 258.928844 219.778085 257.564123 218.53743 C 256.199402 217.234742 254.896714 215.932053 253.656059 214.505299 C 253.345895 214.133103 253.035731 213.698873 252.725567 213.264644 Z M 271.645563 300.420691 L 271.645563 341.672486 Z M 271.645563 341.672486 L 120.40966 341.672486 L 120.40966 412.575947 C 120.40966 419.771748 126.240741 425.602829 133.498575 425.602829 L 271.645563 425.602829 Z M 120.40966 341.672486 L 120.40966 300.420691 Z M 120.40966 341.672486 " transform="matrix(0.0629707, 0, 0, 0.0629707, -4.179942, -2.378652)"/>
<path fill-rule="nonzero" fill="rgb(100%, 100%, 100%)" fill-opacity="1" stroke-width="5.1" stroke-linecap="round" stroke-linejoin="round" stroke="rgb(100%, 100%, 100%)" stroke-opacity="1" stroke-miterlimit="4" d="M 294.011937 152.539589 C 294.011937 168.069074 281.413721 180.729658 265.821868 180.729658 C 250.230016 180.729658 237.631799 168.069074 237.631799 152.539589 C 237.631799 136.947736 250.230016 124.287152 265.821868 124.287152 C 281.413721 124.287152 294.011937 136.947736 294.011937 152.539589 Z M 294.011937 152.539589 " transform="matrix(0.0626329, 0, 0, 0.0626329, -2.535906, -0.60868)"/>
<path fill-rule="nonzero" fill="rgb(100%, 100%, 100%)" fill-opacity="1" stroke-width="1.516567" stroke-linecap="butt" stroke-linejoin="miter" stroke="rgb(0%, 0%, 0%)" stroke-opacity="1" stroke-miterlimit="4" d="M 424.271669 28.146496 C 389.935985 27.853029 307.911852 58.960571 279.152048 91.021883 C 286.195265 94.836959 297.640493 97.037964 316.642506 95.570627 C 354.132965 71.359568 407.617395 50.890218 441.072677 55.145495 C 449.069663 45.314338 441.512878 34.896246 436.670666 31.30127 C 434.322927 29.173632 430.06765 28.219863 424.271669 28.146496 Z M 424.271669 28.146496 " transform="matrix(0.0532427, 0, 0, 0.0532427, 1.910625, 2.681092)"/>
<path fill-rule="nonzero" fill="rgb(100%, 100%, 100%)" fill-opacity="1" d="M 16.902344 9.890625 C 16.746094 10 23.933594 9.722656 25.902344 7.46875 C 27.226562 5.945312 24.765625 3.738281 25.515625 4.519531 C 27.558594 6.636719 18.257812 8.566406 16.8125 7.699219 C 17.277344 8.429688 17.253906 9.160156 16.902344 9.890625 Z M 16.902344 9.890625 "/>
<path fill-rule="nonzero" fill="rgb(100%, 100%, 100%)" fill-opacity="1" stroke-width="1.516567" stroke-linecap="butt" stroke-linejoin="miter" stroke="rgb(0%, 0%, 0%)" stroke-opacity="1" stroke-miterlimit="4" d="M 424.24459 28.160607 C 389.908906 27.867139 307.884773 58.974682 279.124969 91.035994 C 286.168186 94.85107 297.686781 97.052075 316.688794 95.584738 C 354.105886 71.373679 407.663683 50.904329 441.045598 55.159606 C 449.042584 45.328449 441.559166 34.910357 436.643587 31.315381 C 434.369215 29.187743 430.040571 28.233974 424.24459 28.160607 Z M 424.24459 28.160607 " transform="matrix(-0.0532427, 0, 0, 0.0532427, 26.451215, 2.602215)"/>
<path fill-rule="nonzero" fill="rgb(100%, 100%, 100%)" fill-opacity="1" d="M 11.460938 9.8125 C 11.613281 9.921875 4.425781 9.644531 2.460938 7.386719 C 1.132812 5.867188 3.597656 3.660156 2.847656 4.4375 C 0.804688 6.558594 10.101562 8.488281 11.546875 7.621094 C 11.085938 8.351562 11.109375 9.082031 11.460938 9.8125 Z M 11.460938 9.8125 "/>
<g mask="url(#mask-0)">
<use xlink:href="#source-15"/>
</g>
</svg>
