<?xml version="1.0" encoding="UTF-8"?>
<svg xmlns="http://www.w3.org/2000/svg" xmlns:xlink="http://www.w3.org/1999/xlink" width="28" height="28" viewBox="0 0 28 28">
<path fill-rule="nonzero" fill="rgb(6.666667%, 6.666667%, 6.666667%)" fill-opacity="1" stroke-width="3.408" stroke-linecap="butt" stroke-linejoin="miter" stroke="rgb(93.333333%, 93.333333%, 93.333333%)" stroke-opacity="1" stroke-miterlimit="4" d="M 66.269531 1.780134 C 24.921875 1.780134 1.699219 23.141741 1.699219 66.835938 L 1.699219 516.967076 C 1.699219 557.748326 22.575335 579.190848 63.922991 579.190848 L 515.915179 579.190848 C 557.262835 579.190848 578.138951 558.881138 578.138951 516.967076 L 578.138951 66.835938 C 578.138951 24.193638 557.262835 1.780134 514.620536 1.780134 C 514.620536 1.780134 66.107701 1.618304 66.269531 1.780134 Z M 66.269531 1.780134 " transform="matrix(0.0482759, 0, 0, 0.0482759, 0, 0)"/>
<path fill-rule="nonzero" fill="rgb(100%, 100%, 100%)" fill-opacity="1" d="M 22.785156 4.59375 C 22.785156 4.59375 20.960938 10.777344 15.601562 8.933594 C 15.601562 8.9375 16.246094 3.546875 22.785156 4.59375 Z M 22.785156 4.59375 "/>
<path fill-rule="nonzero" fill="rgb(100%, 100%, 100%)" fill-opacity="1" d="M 13.800781 12.242188 C 14.726562 11.324219 15.992188 10.773438 17.394531 10.773438 C 20.230469 10.773438 22.535156 13.070312 22.535156 15.90625 C 22.535156 16.011719 22.535156 16.101562 22.53125 16.210938 L 22.519531 16.210938 C 22.433594 17.320312 22.078125 18.703125 21.242188 20.414062 C 21.242188 20.414062 19.800781 23.167969 18.644531 24.433594 L 18.542969 24.535156 C 17.984375 25.097656 17.195312 25.449219 16.34375 25.449219 C 15.300781 25.449219 14.371094 24.941406 13.808594 24.15625 L 13.796875 24.15625 C 13.234375 24.941406 12.304688 25.449219 11.261719 25.449219 C 10.398438 25.449219 9.621094 25.101562 9.058594 24.535156 L 8.953125 24.433594 C 7.808594 23.167969 6.359375 20.414062 6.359375 20.414062 C 5.523438 18.703125 5.167969 17.3125 5.089844 16.210938 L 5.0625 16.210938 C 5.050781 16.105469 5.050781 16.015625 5.050781 15.90625 C 5.050781 13.070312 7.355469 10.773438 10.199219 10.773438 C 11.597656 10.773438 12.863281 11.324219 13.800781 12.242188 "/>
<path fill-rule="nonzero" fill="rgb(100%, 100%, 100%)" fill-opacity="1" d="M 6.191406 2.671875 C 6.191406 2.671875 7.277344 8.074219 11.980469 6.914062 C 11.980469 6.917969 11.835938 2.277344 6.191406 2.671875 Z M 6.191406 2.671875 "/>
<path fill-rule="nonzero" fill="rgb(100%, 100%, 100%)" fill-opacity="1" stroke-width="4.836" stroke-linecap="butt" stroke-linejoin="miter" stroke="rgb(100%, 100%, 100%)" stroke-opacity="1" stroke-miterlimit="4" d="M 282.798549 231.012835 C 282.798549 231.012835 281.665737 116.113281 269.771205 86.174665 C 257.876674 56.236049 309.824219 86.174665 309.824219 86.174665 Z M 282.798549 231.012835 " transform="matrix(0.0482759, 0, 0, 0.0482759, 0, 0)"/>
</svg>
