<?xml version="1.0" encoding="UTF-8"?>
<svg xmlns="http://www.w3.org/2000/svg" xmlns:xlink="http://www.w3.org/1999/xlink" width="28" height="28" viewBox="0 0 28 28">
<path fill-rule="nonzero" fill="rgb(6.666667%, 6.666667%, 6.666667%)" fill-opacity="1" stroke-width="3.408" stroke-linecap="butt" stroke-linejoin="miter" stroke="rgb(93.333333%, 93.333333%, 93.333333%)" stroke-opacity="1" stroke-miterlimit="4" d="M 66.269531 1.780134 C 24.921875 1.780134 1.699219 23.141741 1.699219 66.835938 L 1.699219 516.967076 C 1.699219 557.748326 22.575335 579.190848 63.922991 579.190848 L 515.915179 579.190848 C 557.262835 579.190848 578.138951 558.881138 578.138951 516.967076 L 578.138951 66.835938 C 578.138951 24.193638 557.262835 1.780134 514.620536 1.780134 C 514.620536 1.780134 66.107701 1.618304 66.269531 1.780134 Z M 66.269531 1.780134 " transform="matrix(0.0482759, 0, 0, 0.0482759, 0, 0)"/>
<path fill-rule="evenodd" fill="rgb(100%, 100%, 100%)" fill-opacity="1" stroke-width="9.306122" stroke-linecap="round" stroke-linejoin="round" stroke="rgb(100%, 100%, 100%)" stroke-opacity="1" stroke-miterlimit="4" d="M 269.447545 65.298549 C 269.447545 65.298549 150.825893 50.329241 136.989397 57.935268 C 123.071987 65.541295 44.665179 471.735491 54.455915 488.161272 C 64.246652 504.587054 193.387277 503.777902 193.387277 503.777902 L 59.148996 484.68192 L 141.520647 61.495536 Z M 269.447545 65.298549 " transform="matrix(0.0482759, 0, 0, 0.0482759, 0, 0)"/>
<path fill-rule="evenodd" fill="rgb(100%, 100%, 100%)" fill-opacity="1" stroke-width="6.204081" stroke-linecap="square" stroke-linejoin="miter" stroke="rgb(100%, 100%, 100%)" stroke-opacity="1" stroke-miterlimit="4" d="M 132.781808 97.260045 L 261.436942 114.656808 L 130.516183 112.148438 Z M 132.781808 97.260045 " transform="matrix(0.0482759, 0, 0, 0.0482759, 0, 0)"/>
<path fill-rule="evenodd" fill="rgb(100%, 100%, 100%)" fill-opacity="1" stroke-width="6.204081" stroke-linecap="square" stroke-linejoin="miter" stroke="rgb(100%, 100%, 100%)" stroke-opacity="1" stroke-miterlimit="4" d="M 125.418527 145.242746 L 254.073661 162.639509 L 123.152902 160.131138 Z M 125.418527 145.242746 " transform="matrix(0.0482759, 0, 0, 0.0482759, 0, 0)"/>
<path fill-rule="evenodd" fill="rgb(100%, 100%, 100%)" fill-opacity="1" stroke-width="6.204081" stroke-linecap="square" stroke-linejoin="miter" stroke="rgb(100%, 100%, 100%)" stroke-opacity="1" stroke-miterlimit="4" d="M 116.760603 193.144531 L 245.415737 210.541295 L 114.494978 208.113839 Z M 116.760603 193.144531 " transform="matrix(0.0482759, 0, 0, 0.0482759, 0, 0)"/>
<path fill-rule="evenodd" fill="rgb(100%, 100%, 100%)" fill-opacity="1" stroke-width="6.204081" stroke-linecap="square" stroke-linejoin="miter" stroke="rgb(100%, 100%, 100%)" stroke-opacity="1" stroke-miterlimit="4" d="M 107.293527 241.127232 L 235.867746 258.523996 L 104.946987 256.015625 Z M 107.293527 241.127232 " transform="matrix(0.0482759, 0, 0, 0.0482759, 0, 0)"/>
<path fill-rule="evenodd" fill="rgb(100%, 100%, 100%)" fill-opacity="1" stroke-width="6.204081" stroke-linecap="square" stroke-linejoin="miter" stroke="rgb(100%, 100%, 100%)" stroke-opacity="1" stroke-miterlimit="4" d="M 98.392857 289.029018 L 227.047991 306.506696 L 96.127232 303.998326 Z M 98.392857 289.029018 " transform="matrix(0.0482759, 0, 0, 0.0482759, 0, 0)"/>
<path fill-rule="evenodd" fill="rgb(100%, 100%, 100%)" fill-opacity="1" stroke-width="6.204081" stroke-linecap="square" stroke-linejoin="miter" stroke="rgb(100%, 100%, 100%)" stroke-opacity="1" stroke-miterlimit="4" d="M 90.544085 337.011719 L 219.199219 354.408482 L 88.27846 351.900112 Z M 90.544085 337.011719 " transform="matrix(0.0482759, 0, 0, 0.0482759, 0, 0)"/>
<path fill-rule="evenodd" fill="rgb(100%, 100%, 100%)" fill-opacity="1" stroke-width="6.204081" stroke-linecap="square" stroke-linejoin="miter" stroke="rgb(100%, 100%, 100%)" stroke-opacity="1" stroke-miterlimit="4" d="M 79.054129 384.99442 L 207.709263 402.391183 L 76.788504 399.882812 Z M 79.054129 384.99442 " transform="matrix(0.0482759, 0, 0, 0.0482759, 0, 0)"/>
<path fill-rule="evenodd" fill="rgb(100%, 100%, 100%)" fill-opacity="1" stroke-width="6.204081" stroke-linecap="square" stroke-linejoin="miter" stroke="rgb(100%, 100%, 100%)" stroke-opacity="1" stroke-miterlimit="4" d="M 71.609933 432.896205 L 200.265067 450.292969 L 69.344308 447.865513 Z M 71.609933 432.896205 " transform="matrix(0.0482759, 0, 0, 0.0482759, 0, 0)"/>
<path fill-rule="evenodd" fill="rgb(100%, 100%, 100%)" fill-opacity="1" stroke-width="8" stroke-linecap="round" stroke-linejoin="round" stroke="rgb(100%, 100%, 100%)" stroke-opacity="1" stroke-miterlimit="4" d="M 378.014021 82.607593 C 374.683562 82.934108 391.205251 188.07213 397.931472 213.932165 C 408.184062 253.375249 398.257988 218.568687 413.343008 281.520894 C 435.35016 373.728898 458.402161 449.415213 468.589447 460.386137 C 483.93568 476.907826 513.583296 471.487667 523.052249 444.909298 C 530.170289 424.991846 534.088476 397.303324 509.4692 379.932694 C 485.176439 362.757974 460.68777 381.630575 460.68777 381.630575 L 378.993568 82.868805 C 378.862961 82.607593 378.536446 82.542289 378.014021 82.607593 Z M 490.923114 383.328456 C 505.355103 383.393759 520.048305 400.241964 519.983002 421.596084 L 519.983002 421.661387 C 519.983002 443.08081 505.2898 460.973865 490.857811 460.908562 C 476.425821 460.908562 461.210195 440.011564 461.210195 418.592141 C 461.275498 397.172718 476.491125 383.328456 490.923114 383.328456 Z M 490.923114 383.328456 " transform="matrix(0.0598172, 0, 0, 0.0598172, -5.307054, -3.246043)"/>
<path fill-rule="evenodd" fill="rgb(100%, 100%, 100%)" fill-opacity="1" stroke-width="8" stroke-linecap="round" stroke-linejoin="round" stroke="rgb(100%, 100%, 100%)" stroke-opacity="1" stroke-miterlimit="4" d="M 478.123703 83.652442 C 481.454162 83.978958 464.932473 189.11698 458.206251 215.042318 C 447.953662 254.485402 457.814433 219.67884 442.794715 282.631047 C 420.787564 374.839051 397.735563 450.525366 387.548276 461.49629 C 372.202043 478.017979 342.554427 472.59782 333.085475 446.019451 C 325.967435 426.036696 322.049248 398.413477 346.603221 381.042847 C 370.961284 363.868127 395.384651 382.675425 395.384651 382.675425 L 477.144156 83.913655 C 477.274762 83.717746 477.601278 83.652442 478.123703 83.652442 Z M 365.21461 384.438609 C 350.78262 384.438609 336.089418 401.286814 336.089418 422.706237 L 336.089418 422.77154 C 336.154722 444.190963 350.847923 462.084018 365.279913 462.018715 C 379.711902 462.018715 394.927529 441.056414 394.927529 419.636991 C 394.862226 398.217567 379.581296 384.373306 365.21461 384.438609 Z M 365.21461 384.438609 " transform="matrix(0.0598172, 0, 0, 0.0598172, -5.307054, -3.246043)"/>
</svg>
