<?xml version="1.0" encoding="UTF-8"?>
<svg xmlns="http://www.w3.org/2000/svg" xmlns:xlink="http://www.w3.org/1999/xlink" width="28" height="28" viewBox="0 0 28 28">
<path fill-rule="nonzero" fill="rgb(6.666667%, 6.666667%, 6.666667%)" fill-opacity="1" stroke-width="3.408" stroke-linecap="butt" stroke-linejoin="miter" stroke="rgb(93.333333%, 93.333333%, 93.333333%)" stroke-opacity="1" stroke-miterlimit="4" d="M 66.269531 1.780134 C 24.921875 1.780134 1.699219 23.141741 1.699219 66.835938 L 1.699219 516.967076 C 1.699219 557.748326 22.575335 579.190848 63.922991 579.190848 L 515.915179 579.190848 C 557.262835 579.190848 578.138951 558.881138 578.138951 516.967076 L 578.138951 66.835938 C 578.138951 24.193638 557.262835 1.780134 514.620536 1.780134 C 514.620536 1.780134 66.107701 1.618304 66.269531 1.780134 Z M 66.269531 1.780134 " transform="matrix(0.0482759, 0, 0, 0.0482759, 0, 0)"/>
<path fill-rule="nonzero" fill="rgb(100%, 100%, 100%)" fill-opacity="1" d="M 13.628906 8.953125 L 14.136719 8.953125 C 16.984375 8.957031 18.617188 11.667969 18.628906 13.5 C 18.617188 13.859375 18.527344 14.164062 18.121094 14.15625 C 17.269531 14.164062 17.574219 12.792969 16.875 11.625 C 16.542969 11.050781 15.472656 10.011719 14.253906 10.019531 L 13.804688 10.019531 C 13.15625 10.011719 11.925781 10.386719 11.101562 11.625 C 10.070312 13.121094 10.746094 14.21875 9.882812 14.214844 C 9.746094 14.21875 9.363281 14.179688 9.371094 13.5625 C 9.410156 10.746094 11.988281 8.957031 13.628906 8.953125 Z M 13.628906 8.953125 "/>
<path fill-rule="nonzero" fill="rgb(100%, 100%, 100%)" fill-opacity="1" d="M 14.015625 24.515625 C 15.085938 24.527344 15.910156 23.445312 15.921875 22.699219 L 15.921875 21.152344 C 15.910156 17.984375 19.238281 16.734375 19.226562 13.5625 C 19.238281 10.589844 16.554688 8.347656 14.015625 8.351562 C 11.914062 8.347656 10.480469 9.703125 9.9375 10.40625 C 8.3125 12.417969 9.246094 14.335938 8.09375 14.335938 C 7.769531 14.335938 7.445312 14.152344 7.445312 13.5 C 7.390625 10.355469 9.988281 7.019531 14.082031 7.015625 C 17.378906 7.019531 20.625 9.648438 20.625 13.683594 C 20.625 17.417969 17.355469 18.199219 17.355469 21.480469 L 17.355469 22.878906 C 17.355469 24.320312 16.070312 25.96875 13.960938 25.976562 C 13.886719 25.953125 13.796875 25.925781 13.695312 25.914062 C 13.308594 25.800781 13.039062 25.390625 13.132812 24.996094 C 13.242188 24.648438 13.5625 24.5625 13.996094 24.519531 L 14.015625 24.519531 Z M 14.015625 24.515625 "/>
<path fill-rule="nonzero" fill="rgb(100%, 100%, 100%)" fill-opacity="1" d="M 8.15625 17.601562 L 8.984375 16.765625 L 11.261719 19.035156 L 10.429688 19.867188 Z M 8.15625 17.601562 "/>
<path fill-rule="nonzero" fill="rgb(100%, 100%, 100%)" fill-opacity="1" d="M 11.234375 16.179688 C 11.222656 15.816406 11.519531 15.523438 11.867188 15.511719 C 12.25 15.523438 12.542969 15.816406 12.535156 16.179688 C 12.542969 16.546875 12.246094 16.835938 11.867188 16.847656 C 11.519531 16.839844 11.226562 16.546875 11.234375 16.179688 Z M 11.234375 16.179688 "/>
<path fill-rule="nonzero" fill="rgb(100%, 100%, 100%)" fill-opacity="1" d="M 13.347656 14.070312 C 13.351562 13.695312 13.644531 13.398438 14.015625 13.402344 C 14.375 13.398438 14.667969 13.695312 14.683594 14.070312 C 14.667969 14.421875 14.375 14.71875 14.015625 14.703125 C 13.644531 14.71875 13.351562 14.421875 13.347656 14.070312 Z M 13.347656 14.070312 "/>
<path fill-rule="nonzero" fill="rgb(100%, 100%, 100%)" fill-opacity="1" d="M 4.777344 22.636719 C 4.757812 22.28125 5.058594 21.988281 5.414062 22.003906 C 5.785156 21.984375 6.078125 22.28125 6.082031 22.636719 C 6.078125 23.011719 5.785156 23.300781 5.414062 23.304688 C 5.058594 23.300781 4.757812 23.007812 4.777344 22.636719 Z M 4.777344 22.636719 "/>
<path fill-rule="nonzero" fill="rgb(100%, 100%, 100%)" fill-opacity="1" d="M 6.890625 20.527344 C 6.890625 20.15625 7.183594 19.863281 7.558594 19.859375 C 7.910156 19.863281 8.207031 20.15625 8.191406 20.527344 C 8.207031 20.886719 7.910156 21.175781 7.558594 21.195312 C 7.183594 21.175781 6.890625 20.886719 6.890625 20.527344 Z M 6.890625 20.527344 "/>
<path fill-rule="evenodd" fill="rgb(100%, 100%, 100%)" fill-opacity="1" d="M 15.949219 5.734375 C 18.765625 6.449219 21.023438 8.582031 21.90625 11.332031 L 22.945312 11.003906 C 21.941406 7.902344 19.425781 5.496094 16.25 4.695312 L 15.953125 5.765625 L 15.953125 5.734375 Z M 15.949219 5.734375 "/>
<path fill-rule="evenodd" fill="rgb(100%, 100%, 100%)" fill-opacity="1" d="M 16.519531 3.5625 L 16.8125 2.492188 C 20.75 3.480469 23.898438 6.445312 25.148438 10.289062 L 24.046875 10.644531 C 22.917969 7.179688 20.066406 4.472656 16.519531 3.5625 Z M 16.519531 3.5625 "/>
</svg>
