<?xml version="1.0" encoding="UTF-8"?>
<svg xmlns="http://www.w3.org/2000/svg" xmlns:xlink="http://www.w3.org/1999/xlink" width="28" height="28" viewBox="0 0 28 28">
<path fill-rule="nonzero" fill="rgb(6.666667%, 6.666667%, 6.666667%)" fill-opacity="1" stroke-width="3.408" stroke-linecap="butt" stroke-linejoin="miter" stroke="rgb(93.333333%, 93.333333%, 93.333333%)" stroke-opacity="1" stroke-miterlimit="4" d="M 66.269531 1.780134 C 24.921875 1.780134 1.699219 23.141741 1.699219 66.835938 L 1.699219 516.967076 C 1.699219 557.748326 22.575335 579.190848 63.922991 579.190848 L 515.915179 579.190848 C 557.262835 579.190848 578.138951 558.881138 578.138951 516.967076 L 578.138951 66.835938 C 578.138951 24.193638 557.262835 1.780134 514.620536 1.780134 C 514.620536 1.780134 66.107701 1.618304 66.269531 1.780134 Z M 66.269531 1.780134 " transform="matrix(0.0482759, 0, 0, 0.0482759, 0, 0)"/>
<path fill-rule="nonzero" fill="rgb(100%, 100%, 100%)" fill-opacity="1" d="M 3.09375 16.136719 C 2.664062 16.136719 2.316406 16.484375 2.316406 16.914062 L 2.316406 19.613281 C 2.316406 20.042969 2.664062 20.390625 3.09375 20.390625 L 25.292969 20.390625 C 25.726562 20.390625 26.074219 20.042969 26.074219 19.613281 L 26.074219 16.914062 C 26.074219 16.484375 25.726562 16.136719 25.292969 16.136719 Z M 3.609375 17.433594 L 6.84375 17.433594 C 7.152344 17.433594 7.398438 17.683594 7.398438 17.992188 L 7.398438 18.65625 C 7.398438 18.964844 7.152344 19.214844 6.84375 19.214844 L 3.609375 19.214844 C 3.300781 19.214844 3.050781 18.964844 3.050781 18.65625 L 3.050781 17.992188 C 3.050781 17.683594 3.300781 17.433594 3.609375 17.433594 Z M 9.46875 17.433594 L 12.703125 17.433594 C 13.011719 17.433594 13.257812 17.683594 13.257812 17.992188 L 13.257812 18.65625 C 13.257812 18.964844 13.011719 19.214844 12.703125 19.214844 L 9.46875 19.214844 C 9.160156 19.214844 8.914062 18.964844 8.914062 18.65625 L 8.914062 17.992188 C 8.914062 17.683594 9.160156 17.433594 9.46875 17.433594 Z M 15.332031 17.433594 L 18.566406 17.433594 C 18.875 17.433594 19.121094 17.683594 19.121094 17.992188 L 19.121094 18.65625 C 19.121094 18.964844 18.875 19.214844 18.566406 19.214844 L 15.332031 19.214844 C 15.023438 19.214844 14.773438 18.964844 14.773438 18.65625 L 14.773438 17.992188 C 14.773438 17.683594 15.023438 17.433594 15.332031 17.433594 Z M 21.191406 17.433594 L 24.425781 17.433594 C 24.734375 17.433594 24.984375 17.683594 24.984375 17.992188 L 24.984375 18.65625 C 24.984375 18.964844 24.734375 19.214844 24.425781 19.214844 L 21.191406 19.214844 C 20.882812 19.214844 20.636719 18.964844 20.636719 18.65625 L 20.636719 17.992188 C 20.636719 17.683594 20.882812 17.433594 21.191406 17.433594 Z M 21.191406 17.433594 "/>
<path fill-rule="nonzero" fill="rgb(100%, 100%, 100%)" fill-opacity="1" d="M 4.5 19.902344 L 7.195312 19.902344 C 7.601562 19.902344 7.929688 20.230469 7.929688 20.636719 C 7.929688 21.042969 7.601562 21.371094 7.195312 21.371094 L 4.5 21.371094 C 4.09375 21.371094 3.765625 21.042969 3.765625 20.636719 C 3.765625 20.230469 4.09375 19.902344 4.5 19.902344 Z M 4.5 19.902344 "/>
<path fill-rule="nonzero" fill="rgb(100%, 100%, 100%)" fill-opacity="1" d="M 21.207031 19.902344 L 23.898438 19.902344 C 24.304688 19.902344 24.632812 20.230469 24.632812 20.636719 C 24.632812 21.042969 24.304688 21.371094 23.898438 21.371094 L 21.207031 21.371094 C 20.800781 21.371094 20.46875 21.042969 20.46875 20.636719 C 20.46875 20.230469 20.800781 19.902344 21.207031 19.902344 Z M 21.207031 19.902344 "/>
<path fill-rule="nonzero" fill="rgb(100%, 100%, 100%)" fill-opacity="1" d="M 3.09375 7.269531 C 2.664062 7.269531 2.316406 7.617188 2.316406 8.050781 L 2.316406 12.292969 C 2.316406 12.722656 2.664062 13.070312 3.09375 13.070312 L 25.292969 13.070312 C 25.726562 13.070312 26.074219 12.722656 26.074219 12.292969 L 26.074219 8.050781 C 26.074219 7.617188 25.726562 7.269531 25.292969 7.269531 Z M 22.535156 8.167969 C 23.753906 8.167969 24.742188 9.152344 24.742188 10.371094 C 24.742188 11.589844 23.753906 12.574219 22.535156 12.574219 C 21.320312 12.574219 20.332031 11.589844 20.332031 10.371094 C 20.332031 9.152344 21.320312 8.167969 22.535156 8.167969 Z M 3.882812 8.402344 L 7.121094 8.402344 C 7.429688 8.402344 7.675781 8.648438 7.675781 8.957031 L 7.675781 9.625 C 7.675781 9.933594 7.429688 10.179688 7.121094 10.179688 L 3.882812 10.179688 C 3.578125 10.179688 3.328125 9.933594 3.328125 9.625 L 3.328125 8.957031 C 3.328125 8.648438 3.578125 8.402344 3.882812 8.402344 Z M 3.882812 8.402344 "/>
<path fill-rule="nonzero" fill="rgb(100%, 100%, 100%)" fill-opacity="1" d="M 4.5 12.582031 L 7.195312 12.582031 C 7.601562 12.582031 7.929688 12.910156 7.929688 13.316406 C 7.929688 13.722656 7.601562 14.050781 7.195312 14.050781 L 4.5 14.050781 C 4.09375 14.050781 3.765625 13.722656 3.765625 13.316406 C 3.765625 12.910156 4.09375 12.582031 4.5 12.582031 Z M 4.5 12.582031 "/>
<path fill-rule="nonzero" fill="rgb(100%, 100%, 100%)" fill-opacity="1" d="M 21.207031 12.582031 L 23.898438 12.582031 C 24.304688 12.582031 24.632812 12.910156 24.632812 13.316406 C 24.632812 13.722656 24.304688 14.050781 23.898438 14.050781 L 21.207031 14.050781 C 20.800781 14.050781 20.46875 13.722656 20.46875 13.316406 C 20.46875 12.910156 20.800781 12.582031 21.207031 12.582031 Z M 21.207031 12.582031 "/>
</svg>
