<?xml version="1.0" encoding="UTF-8"?>
<svg xmlns="http://www.w3.org/2000/svg" xmlns:xlink="http://www.w3.org/1999/xlink" width="28" height="28" viewBox="0 0 28 28">
<defs>
<filter id="filter-remove-color" x="0%" y="0%" width="100%" height="100%">
<feColorMatrix color-interpolation-filters="sRGB" values="0 0 0 0 1 0 0 0 0 1 0 0 0 0 1 0 0 0 1 0" />
</filter>
<mask id="mask-0">
<g filter="url(#filter-remove-color)">
<rect x="-2.8" y="-2.8" width="33.6" height="33.6" fill="rgb(0%, 0%, 0%)" fill-opacity="0.4"/>
</g>
</mask>
<clipPath id="clip-0">
<path clip-rule="nonzero" d="M 4 0 L 21 0 L 21 15 L 4 15 Z M 4 0 "/>
</clipPath>
<clipPath id="clip-1">
<path clip-rule="nonzero" d="M 8 0 L 25 0 L 25 15 L 8 15 Z M 8 0 "/>
</clipPath>
<clipPath id="clip-2">
<rect x="0" y="0" width="28" height="28"/>
</clipPath>
<g id="source-9" clip-path="url(#clip-2)">
<path fill-rule="evenodd" fill="rgb(100%, 100%, 100%)" fill-opacity="1" d="M 11.4375 10.449219 L 8.710938 5.386719 L 12.117188 3.152344 L 15.382812 3.152344 L 15.675781 9.9375 Z M 11.4375 10.449219 "/>
<g clip-path="url(#clip-0)">
<path fill="none" stroke-width="11.604129" stroke-linecap="butt" stroke-linejoin="miter" stroke="rgb(100%, 100%, 100%)" stroke-opacity="1" stroke-miterlimit="4" d="M 256.933374 180.065589 L 216.458469 104.914476 L 267.023106 71.74593 L 315.500213 71.74593 L 319.849235 172.469296 Z M 256.933374 180.065589 " transform="matrix(0.0673643, 0, 0, 0.0673643, -5.87063, -1.680769)"/>
</g>
<path fill-rule="evenodd" fill="rgb(100%, 100%, 100%)" fill-opacity="1" d="M 17.082031 10.449219 L 19.808594 5.386719 L 16.402344 3.152344 L 12.597656 3.152344 L 12.839844 9.9375 Z M 17.082031 10.449219 "/>
<g clip-path="url(#clip-1)">
<path fill="none" stroke-width="11.604129" stroke-linecap="butt" stroke-linejoin="miter" stroke="rgb(100%, 100%, 100%)" stroke-opacity="1" stroke-miterlimit="4" d="M 340.724544 180.065589 L 381.199449 104.914476 L 330.634812 71.74593 L 274.155504 71.74593 L 277.750696 172.469296 Z M 340.724544 180.065589 " transform="matrix(0.0673643, 0, 0, 0.0673643, -5.87063, -1.680769)"/>
</g>
</g>
<mask id="mask-1">
<g filter="url(#filter-remove-color)">
<rect x="-2.8" y="-2.8" width="33.6" height="33.6" fill="rgb(0%, 0%, 0%)" fill-opacity="0.6"/>
</g>
</mask>
<clipPath id="clip-3">
<path clip-rule="nonzero" d="M 4 0 L 25 0 L 25 15 L 4 15 Z M 4 0 "/>
</clipPath>
<clipPath id="clip-4">
<rect x="0" y="0" width="28" height="28"/>
</clipPath>
<g id="source-13" clip-path="url(#clip-4)">
<g clip-path="url(#clip-3)">
<path fill="none" stroke-width="16.192434" stroke-linecap="butt" stroke-linejoin="miter" stroke="rgb(100%, 100%, 100%)" stroke-opacity="1" stroke-miterlimit="4" d="M 250.917969 65.379464 L 180.440848 111.582031 L 236.919643 216.448103 L 295.340402 209.408482 L 353.842076 216.448103 L 410.320871 111.582031 L 339.762835 65.379464 Z M 250.917969 65.379464 " transform="matrix(0.0482759, 0, 0, 0.0482759, 0, 0)"/>
</g>
</g>
<mask id="mask-2">
<g filter="url(#filter-remove-color)">
<rect x="-2.8" y="-2.8" width="33.6" height="33.6" fill="rgb(0%, 0%, 0%)" fill-opacity="0.6"/>
</g>
</mask>
<clipPath id="clip-5">
<rect x="0" y="0" width="28" height="28"/>
</clipPath>
<g id="source-17" clip-path="url(#clip-5)">
<path fill="none" stroke-width="16.192167" stroke-linecap="butt" stroke-linejoin="bevel" stroke="rgb(100%, 100%, 100%)" stroke-opacity="1" stroke-miterlimit="4" d="M 250.917969 123.152902 L 180.440848 111.582031 L 236.919643 216.448103 L 295.340402 209.408482 L 353.842076 216.448103 L 410.320871 111.582031 L 339.762835 123.152902 Z M 250.917969 123.152902 " transform="matrix(0.0482759, 0, 0, 0.0482759, 0, 0)"/>
</g>
<mask id="mask-3">
<g filter="url(#filter-remove-color)">
<rect x="-2.8" y="-2.8" width="33.6" height="33.6" fill="rgb(0%, 0%, 0%)" fill-opacity="0.6"/>
</g>
</mask>
<clipPath id="clip-6">
<path clip-rule="nonzero" d="M 7 0 L 22 0 L 22 15 L 7 15 Z M 7 0 "/>
</clipPath>
<clipPath id="clip-7">
<rect x="0" y="0" width="28" height="28"/>
</clipPath>
<g id="source-21" clip-path="url(#clip-7)">
<g clip-path="url(#clip-6)">
<path fill="none" stroke-width="16.192434" stroke-linecap="butt" stroke-linejoin="miter" stroke="rgb(100%, 100%, 100%)" stroke-opacity="1" stroke-miterlimit="4" d="M 249.785156 123.152902 L 236.919643 216.448103 L 295.340402 209.408482 L 353.842076 216.448103 L 343.889509 123.638393 L 336.930804 65.379464 L 255.125558 65.379464 Z M 249.785156 123.152902 " transform="matrix(0.0482759, 0, 0, 0.0482759, 0, 0)"/>
</g>
</g>
</defs>
<path fill-rule="nonzero" fill="rgb(6.666667%, 6.666667%, 6.666667%)" fill-opacity="1" stroke-width="3.408" stroke-linecap="butt" stroke-linejoin="miter" stroke="rgb(93.333333%, 93.333333%, 93.333333%)" stroke-opacity="1" stroke-miterlimit="4" d="M 66.269531 1.780134 C 24.921875 1.780134 1.699219 23.141741 1.699219 66.835938 L 1.699219 516.967076 C 1.699219 557.748326 22.575335 579.190848 63.922991 579.190848 L 515.915179 579.190848 C 557.262835 579.190848 578.138951 558.881138 578.138951 516.967076 L 578.138951 66.835938 C 578.138951 24.193638 557.262835 1.780134 514.620536 1.780134 C 514.620536 1.780134 66.107701 1.618304 66.269531 1.780134 Z M 66.269531 1.780134 " transform="matrix(0.0482759, 0, 0, 0.0482759, 0, 0)"/>
<path fill="none" stroke-width="60.386837" stroke-linecap="round" stroke-linejoin="round" stroke="rgb(100%, 100%, 100%)" stroke-opacity="1" stroke-miterlimit="4" d="M 457.895883 326.130871 C 457.895883 425.59503 377.196499 506.185947 277.73234 506.185947 C 178.26818 506.185947 97.677264 425.59503 97.677264 326.130871 C 97.677264 226.666711 178.26818 145.967328 277.73234 145.967328 C 377.196499 145.967328 457.895883 226.666711 457.895883 326.130871 Z M 457.895883 326.130871 " transform="matrix(0.0360133, 0, 0, 0.0360133, 4.244039, 4.922924)"/>
<g mask="url(#mask-0)">
<use xlink:href="#source-9"/>
</g>
<g mask="url(#mask-1)">
<use xlink:href="#source-13"/>
</g>
<g mask="url(#mask-2)">
<use xlink:href="#source-17"/>
</g>
<g mask="url(#mask-3)">
<use xlink:href="#source-21"/>
</g>
</svg>
