<?xml version="1.0" encoding="UTF-8"?>
<svg xmlns="http://www.w3.org/2000/svg" xmlns:xlink="http://www.w3.org/1999/xlink" width="28" height="28" viewBox="0 0 28 28">
<defs>
<filter id="filter-remove-color" x="0%" y="0%" width="100%" height="100%">
<feColorMatrix color-interpolation-filters="sRGB" values="0 0 0 0 1 0 0 0 0 1 0 0 0 0 1 0 0 0 1 0" />
</filter>
<mask id="mask-0">
<g filter="url(#filter-remove-color)">
<rect x="-2.8" y="-2.8" width="33.6" height="33.6" fill="rgb(0%, 0%, 0%)" fill-opacity="0.75"/>
</g>
</mask>
<clipPath id="clip-0">
<rect x="0" y="0" width="28" height="28"/>
</clipPath>
<g id="source-8" clip-path="url(#clip-0)">
<path fill-rule="nonzero" fill="rgb(100%, 100%, 100%)" fill-opacity="1" stroke-width="1.641193" stroke-linecap="round" stroke-linejoin="round" stroke="rgb(100%, 100%, 100%)" stroke-opacity="1" stroke-miterlimit="4" d="M 309.859375 72.33817 C 298.53125 72.33817 288.740513 76.464844 280.325335 84.556362 C 271.991071 92.728795 267.783482 102.681362 267.783482 114.414062 C 267.783482 126.065848 271.991071 136.09933 280.325335 144.190848 C 288.740513 152.363281 298.53125 156.40904 309.859375 156.40904 C 310.263951 156.40904 310.668527 156.40904 311.073103 156.40904 C 311.477679 156.40904 311.882254 156.40904 312.367746 156.40904 C 323.614955 156.40904 333.486607 152.363281 341.820871 144.190848 C 350.236049 136.09933 354.362723 126.065848 354.362723 114.414062 C 354.362723 102.681362 350.236049 92.728795 341.820871 84.556362 C 333.486607 76.464844 323.614955 72.33817 312.367746 72.33817 C 311.882254 72.33817 311.477679 72.33817 311.073103 72.33817 C 310.668527 72.33817 310.263951 72.33817 309.859375 72.33817 Z M 277.816964 165.876116 C 275.308594 165.876116 272.962054 166.118862 270.939174 166.685268 C 269.563616 166.523438 268.188058 166.523438 266.8125 166.523438 C 257.426339 166.766183 248.202009 170.811942 241.728795 177.608817 C 235.25558 184.405692 231.614397 193.791853 231.857143 203.178013 L 232.585379 283.364955 L 232.74721 283.364955 L 232.74721 325.440848 C 232.585379 332.318638 236.226562 338.630022 242.133371 342.109375 C 248.040179 345.588728 255.40346 345.588728 261.310268 342.109375 C 267.217076 338.630022 270.777344 332.318638 270.696429 325.440848 L 270.696429 283.364955 L 346.756696 283.364955 L 346.756696 325.440848 C 346.594866 332.318638 350.236049 338.630022 356.142857 342.109375 C 362.049665 345.588728 369.412946 345.588728 375.319754 342.109375 C 381.226562 338.630022 384.78683 332.318638 384.705915 325.440848 L 384.705915 283.364955 L 385.434152 283.364955 L 384.705915 202.530692 C 384.705915 193.468192 381.145647 184.486607 374.996094 177.851562 C 368.765625 171.297433 360.026786 167.170759 350.964286 166.604353 C 349.022321 166.118862 346.837612 165.876116 344.410156 165.876116 Z M 277.816964 165.876116 " transform="matrix(0.0482759, 0, 0, 0.0482759, -0.193103, 0)"/>
</g>
</defs>
<path fill-rule="nonzero" fill="rgb(6.666667%, 6.666667%, 6.666667%)" fill-opacity="1" stroke-width="3.408" stroke-linecap="butt" stroke-linejoin="miter" stroke="rgb(93.333333%, 93.333333%, 93.333333%)" stroke-opacity="1" stroke-miterlimit="4" d="M 66.269531 1.780134 C 24.921875 1.780134 1.699219 23.141741 1.699219 66.835938 L 1.699219 516.967076 C 1.699219 557.748326 22.575335 579.190848 63.922991 579.190848 L 515.915179 579.190848 C 557.262835 579.190848 578.138951 558.800223 578.138951 516.967076 L 578.138951 66.835938 C 578.138951 24.193638 557.262835 1.780134 514.620536 1.780134 C 514.620536 1.780134 66.107701 1.618304 66.269531 1.780134 Z M 66.269531 1.780134 " transform="matrix(0.0482759, 0, 0, 0.0482759, 0, 0)"/>
<path fill-rule="evenodd" fill="rgb(100%, 100%, 100%)" fill-opacity="1" stroke-width="10" stroke-linecap="round" stroke-linejoin="round" stroke="rgb(100%, 100%, 100%)" stroke-opacity="1" stroke-miterlimit="4" d="M 159.276228 529.347098 C 255.646205 562.684152 363.910714 560.094866 456.477679 529.347098 C 456.477679 361.609933 456.477679 193.791853 456.477679 26.054688 C 362.13058 26.054688 253.704241 26.054688 159.276228 26.054688 C 159.276228 193.791853 159.276228 361.609933 159.276228 529.347098 Z M 190.994978 42.885045 C 265.679688 43.694196 354.605469 42.156808 429.128348 43.694196 C 437.786272 45.069754 441.34654 54.294085 441.18471 62.142857 C 440.375558 137.636719 441.993862 213.292411 440.537388 288.786272 C 442.560268 297.201451 427.995536 304.807478 420.065848 306.263951 C 416.424665 307.234933 412.621652 307.396763 408.899554 307.154018 C 410.841518 327.382812 406.957589 351.738281 388.023438 362.985491 C 365.771763 376.336496 331.220982 364.765625 325.071429 338.549107 C 323.210379 328.111049 322.482143 317.430246 322.401228 306.749442 C 313.257812 306.749442 304.114397 306.749442 294.890067 306.749442 C 296.427455 326.330915 293.676339 349.796317 276.03683 361.690848 C 253.946987 376.902902 217.535156 365.655692 211.061942 338.630022 C 209.039062 328.191964 208.796317 317.511161 208.391741 306.911272 C 198.439174 308.28683 178.291295 306.021205 175.944754 294.450335 C 173.517299 281.665737 176.511161 268.638393 175.216518 255.772879 C 175.621094 187.804129 173.921875 119.673549 176.268415 51.704799 C 178.614955 45.878906 185.007254 42.96596 190.994978 42.885045 Z M 190.994978 42.885045 " transform="matrix(0.0482759, 0, 0, 0.0482759, -0.193103, 0)"/>
<g mask="url(#mask-0)">
<use xlink:href="#source-8"/>
</g>
</svg>
