<?xml version="1.0" encoding="UTF-8"?>
<svg xmlns="http://www.w3.org/2000/svg" xmlns:xlink="http://www.w3.org/1999/xlink" width="28" height="28" viewBox="0 0 28 28">
<defs>
<filter id="filter-remove-color" x="0%" y="0%" width="100%" height="100%">
<feColorMatrix color-interpolation-filters="sRGB" values="0 0 0 0 1 0 0 0 0 1 0 0 0 0 1 0 0 0 1 0" />
</filter>
<mask id="mask-0">
<g filter="url(#filter-remove-color)">
<rect x="-2.8" y="-2.8" width="33.6" height="33.6" fill="rgb(0%, 0%, 0%)" fill-opacity="0.1"/>
</g>
</mask>
<clipPath id="clip-0">
<rect x="0" y="0" width="28" height="28"/>
</clipPath>
<g id="source-14" clip-path="url(#clip-0)">
<path fill-rule="nonzero" fill="rgb(100%, 100%, 100%)" fill-opacity="1" stroke-width="20.955452" stroke-linecap="round" stroke-linejoin="round" stroke="rgb(100%, 100%, 100%)" stroke-opacity="1" stroke-miterlimit="4" d="M 82.452567 65.379464 L 82.452567 520.365513 L 494.229911 520.365513 L 494.229911 65.379464 Z M 286.035156 198.080357 C 341.219308 198.080357 386.046317 242.907366 386.046317 298.172433 C 386.046317 353.356585 341.219308 398.183594 286.035156 398.183594 C 230.770089 398.183594 185.94308 353.356585 185.94308 298.172433 C 185.94308 242.907366 230.770089 198.080357 286.035156 198.080357 Z M 286.035156 198.080357 " transform="matrix(0.0482759, 0, 0, 0.0482759, 0, 0)"/>
</g>
<mask id="mask-1">
<g filter="url(#filter-remove-color)">
<rect x="-2.8" y="-2.8" width="33.6" height="33.6" fill="rgb(0%, 0%, 0%)" fill-opacity="0.2"/>
</g>
</mask>
<clipPath id="clip-1">
<rect x="0" y="0" width="28" height="28"/>
</clipPath>
<g id="source-18" clip-path="url(#clip-1)">
<path fill-rule="nonzero" fill="rgb(100%, 100%, 100%)" fill-opacity="1" stroke-width="20" stroke-linecap="round" stroke-linejoin="round" stroke="rgb(100%, 100%, 100%)" stroke-opacity="1" stroke-miterlimit="4" d="M 373.251057 276.231816 C 373.251057 328.899875 330.467913 371.68302 277.722627 371.68302 C 225.054568 371.68302 182.271423 328.899875 182.271423 276.231816 C 182.271423 223.486531 225.054568 180.703386 277.722627 180.703386 C 330.467913 180.703386 373.251057 223.486531 373.251057 276.231816 Z M 373.251057 276.231816 " transform="matrix(0.0505821, 0, 0, 0.0505821, -0.243114, 0.422138)"/>
</g>
</defs>
<path fill-rule="nonzero" fill="rgb(6.666667%, 6.666667%, 6.666667%)" fill-opacity="1" stroke-width="3.408" stroke-linecap="butt" stroke-linejoin="miter" stroke="rgb(93.333333%, 93.333333%, 93.333333%)" stroke-opacity="1" stroke-miterlimit="4" d="M 66.269531 1.780134 C 24.921875 1.780134 1.699219 23.141741 1.699219 66.835938 L 1.699219 516.967076 C 1.699219 557.748326 22.575335 579.190848 63.922991 579.190848 L 515.915179 579.190848 C 557.262835 579.190848 578.138951 558.881138 578.138951 516.967076 L 578.138951 66.835938 C 578.138951 24.193638 557.262835 1.780134 514.620536 1.780134 C 514.620536 1.780134 66.107701 1.618304 66.269531 1.780134 Z M 66.269531 1.780134 " transform="matrix(0.0482759, 0, 0, 0.0482759, 0, 0)"/>
<path fill="none" stroke-width="20.955452" stroke-linecap="round" stroke-linejoin="round" stroke="rgb(100%, 100%, 100%)" stroke-opacity="1" stroke-miterlimit="4" d="M 82.452567 65.379464 L 82.452567 520.365513 L 494.229911 520.365513 L 494.229911 65.379464 Z M 286.035156 198.080357 C 341.219308 198.080357 386.046317 242.907366 386.046317 298.172433 C 386.046317 353.356585 341.219308 398.183594 286.035156 398.183594 C 230.770089 398.183594 185.94308 353.356585 185.94308 298.172433 C 185.94308 242.907366 230.770089 198.080357 286.035156 198.080357 Z M 286.035156 198.080357 " transform="matrix(0.0482759, 0, 0, 0.0482759, 0, 0)"/>
<path fill="none" stroke-width="20" stroke-linecap="round" stroke-linejoin="round" stroke="rgb(100%, 100%, 100%)" stroke-opacity="1" stroke-miterlimit="4" d="M 373.251057 276.231815 C 373.251057 328.899874 330.467912 371.683019 277.722627 371.683019 C 225.054568 371.683019 182.271423 328.899874 182.271423 276.231815 C 182.271423 223.48653 225.054568 180.703385 277.722627 180.703385 C 330.467912 180.703385 373.251057 223.48653 373.251057 276.231815 Z M 373.251057 276.231815 " transform="matrix(0.0505821, 0, 0, 0.0505821, -0.243114, 0.422138)"/>
<path fill="none" stroke-width="18.665131" stroke-linecap="round" stroke-linejoin="miter" stroke="rgb(100%, 100%, 100%)" stroke-opacity="1" stroke-miterlimit="4" d="M 190.781536 250.205786 L 190.781536 349.981641 " transform="matrix(0.0505821, 0, 0, 0.0505821, -0.462636, -0.675472)"/>
<path fill="none" stroke-width="39.80064" stroke-linecap="round" stroke-linejoin="round" stroke="rgb(100%, 100%, 100%)" stroke-opacity="1" stroke-miterlimit="4" d="M 370.10006 300.093714 L 350.17578 300.093714 " transform="matrix(0.0505821, 0, 0, 0.0505821, -0.462636, -0.675472)"/>
<path fill="none" stroke-width="25" stroke-linecap="round" stroke-linejoin="round" stroke="rgb(100%, 100%, 100%)" stroke-opacity="1" stroke-miterlimit="4" d="M 351.567884 124.298109 C 351.567884 130.274063 346.63535 135.11174 340.659396 135.11174 C 334.683442 135.11174 329.845764 130.274063 329.845764 124.298109 C 329.845764 118.322155 334.683442 113.484478 340.659396 113.484478 C 346.63535 113.484478 351.567884 118.322155 351.567884 124.298109 Z M 351.567884 124.298109 " transform="matrix(0.0411807, 0, 0, 0.0411807, 4.483139, 0.58054)"/>
<path fill="none" stroke-width="25" stroke-linecap="round" stroke-linejoin="round" stroke="rgb(100%, 100%, 100%)" stroke-opacity="1" stroke-miterlimit="4" d="M 351.580447 124.298109 C 351.580447 130.274063 346.647914 135.11174 340.671959 135.11174 C 334.696005 135.11174 329.858328 130.274063 329.858328 124.298109 C 329.858328 118.322155 334.696005 113.484478 340.671959 113.484478 C 346.647914 113.484478 351.580447 118.322155 351.580447 124.298109 Z M 351.580447 124.298109 " transform="matrix(0.0411807, 0, 0, 0.0411807, 7.248247, 0.58054)"/>
<path fill="none" stroke-width="25" stroke-linecap="round" stroke-linejoin="round" stroke="rgb(100%, 100%, 100%)" stroke-opacity="1" stroke-miterlimit="4" d="M 351.555316 124.298109 C 351.555316 130.274063 346.717638 135.11174 340.646828 135.11174 C 334.670874 135.11174 329.833196 130.274063 329.833196 124.298109 C 329.833196 118.322155 334.670874 113.484478 340.646828 113.484478 C 346.717638 113.484478 351.555316 118.322155 351.555316 124.298109 Z M 351.555316 124.298109 " transform="matrix(0.0411807, 0, 0, 0.0411807, 1.718032, 0.58054)"/>
<g mask="url(#mask-0)">
<use xlink:href="#source-14"/>
</g>
<g mask="url(#mask-1)">
<use xlink:href="#source-18"/>
</g>
</svg>
