<?xml version="1.0" encoding="UTF-8"?>
<svg xmlns="http://www.w3.org/2000/svg" xmlns:xlink="http://www.w3.org/1999/xlink" width="28" height="28" viewBox="0 0 28 28">
<defs>
<filter id="filter-remove-color" x="0%" y="0%" width="100%" height="100%">
<feColorMatrix color-interpolation-filters="sRGB" values="0 0 0 0 1 0 0 0 0 1 0 0 0 0 1 0 0 0 1 0" />
</filter>
<mask id="mask-0">
<g filter="url(#filter-remove-color)">
<rect x="-2.8" y="-2.8" width="33.6" height="33.6" fill="rgb(0%, 0%, 0%)" fill-opacity="0.1"/>
</g>
</mask>
<clipPath id="clip-0">
<rect x="0" y="0" width="28" height="28"/>
</clipPath>
<g id="source-20" clip-path="url(#clip-0)">
<path fill-rule="evenodd" fill="rgb(100%, 100%, 100%)" fill-opacity="1" d="M 15.070312 14.925781 L 15.769531 15.710938 L 16.664062 16.246094 L 17.632812 16.53125 L 18.460938 16.578125 L 18.785156 16.382812 L 19 16.019531 L 19.160156 14.835938 L 18.320312 13.269531 L 16.953125 12.695312 L 15.808594 12.578125 L 15.277344 12.777344 L 14.902344 13.128906 L 14.765625 13.703125 L 14.84375 14.402344 Z M 15.070312 14.925781 "/>
</g>
<mask id="mask-1">
<g filter="url(#filter-remove-color)">
<rect x="-2.8" y="-2.8" width="33.6" height="33.6" fill="rgb(0%, 0%, 0%)" fill-opacity="0.1"/>
</g>
</mask>
<clipPath id="clip-1">
<rect x="0" y="0" width="28" height="28"/>
</clipPath>
<g id="source-24" clip-path="url(#clip-1)">
<path fill-rule="evenodd" fill="rgb(100%, 100%, 100%)" fill-opacity="1" d="M 20.34375 11.335938 L 21.003906 11.050781 L 21.5625 10.566406 L 21.871094 10.714844 L 22.34375 11.03125 L 22.421875 11.316406 L 22.15625 11.554688 L 21.625 11.640625 L 20.882812 12.136719 L 20.054688 12.027344 Z M 20.34375 11.335938 "/>
</g>
<mask id="mask-2">
<g filter="url(#filter-remove-color)">
<rect x="-2.8" y="-2.8" width="33.6" height="33.6" fill="rgb(0%, 0%, 0%)" fill-opacity="0.1"/>
</g>
</mask>
<clipPath id="clip-2">
<rect x="0" y="0" width="28" height="28"/>
</clipPath>
<g id="source-28" clip-path="url(#clip-2)">
<path fill-rule="nonzero" fill="rgb(100%, 100%, 100%)" fill-opacity="1" stroke-width="10.989844" stroke-linecap="round" stroke-linejoin="round" stroke="rgb(100%, 100%, 100%)" stroke-opacity="1" stroke-miterlimit="4" d="M 147.18471 156.004464 C 176.71875 170.00279 207.952009 171.621094 241.450893 156.004464 L 251.646205 53.646763 L 177.527902 53.646763 Z M 147.18471 156.004464 " transform="matrix(0.0482759, 0, 0, 0.0482759, 0, 0)"/>
</g>
<mask id="mask-3">
<g filter="url(#filter-remove-color)">
<rect x="-2.8" y="-2.8" width="33.6" height="33.6" fill="rgb(0%, 0%, 0%)" fill-opacity="0.1"/>
</g>
</mask>
<clipPath id="clip-3">
<rect x="0" y="0" width="28" height="28"/>
</clipPath>
<g id="source-32" clip-path="url(#clip-3)">
<path fill-rule="nonzero" fill="rgb(100%, 100%, 100%)" fill-opacity="1" stroke-width="10.989844" stroke-linecap="round" stroke-linejoin="round" stroke="rgb(100%, 100%, 100%)" stroke-opacity="1" stroke-miterlimit="4" d="M 335.47433 156.004464 C 365.008371 170.00279 396.241629 171.621094 429.740513 156.004464 L 400.93471 53.646763 L 326.735491 53.646763 Z M 335.47433 156.004464 " transform="matrix(0.0482759, 0, 0, 0.0482759, 0, 0)"/>
</g>
</defs>
<path fill-rule="nonzero" fill="rgb(6.666667%, 6.666667%, 6.666667%)" fill-opacity="1" stroke-width="3.408" stroke-linecap="butt" stroke-linejoin="miter" stroke="rgb(93.333333%, 93.333333%, 93.333333%)" stroke-opacity="1" stroke-miterlimit="4" d="M 66.269531 1.780134 C 24.921875 1.780134 1.699219 23.141741 1.699219 66.835938 L 1.699219 516.967076 C 1.699219 557.748326 22.575335 579.190848 63.922991 579.190848 L 515.915179 579.190848 C 557.262835 579.190848 578.138951 558.881138 578.138951 516.967076 L 578.138951 66.835938 C 578.138951 24.193638 557.262835 1.780134 514.620536 1.780134 C 514.620536 1.780134 66.107701 1.618304 66.269531 1.780134 Z M 66.269531 1.780134 " transform="matrix(0.0482759, 0, 0, 0.0482759, 0, 0)"/>
<path fill-rule="nonzero" fill="rgb(100%, 100%, 100%)" fill-opacity="1" stroke-width="10.989844" stroke-linecap="round" stroke-linejoin="round" stroke="rgb(100%, 100%, 100%)" stroke-opacity="1" stroke-miterlimit="4" d="M 52.594866 156.004464 C 82.128906 170.00279 113.362165 171.621094 146.861049 156.004464 L 176.55692 53.646763 L 102.357701 53.646763 Z M 52.594866 156.004464 " transform="matrix(0.0482759, 0, 0, 0.0482759, 0, 0)"/>
<path fill="none" stroke-width="10.989844" stroke-linecap="round" stroke-linejoin="round" stroke="rgb(100%, 100%, 100%)" stroke-opacity="1" stroke-miterlimit="4" d="M 147.18471 156.004464 C 176.71875 170.00279 207.952009 171.621094 241.450893 156.004464 L 251.646205 53.646763 L 177.527902 53.646763 Z M 147.18471 156.004464 " transform="matrix(0.0482759, 0, 0, 0.0482759, 0, 0)"/>
<path fill-rule="nonzero" fill="rgb(100%, 100%, 100%)" fill-opacity="1" stroke-width="10.989844" stroke-linecap="round" stroke-linejoin="round" stroke="rgb(100%, 100%, 100%)" stroke-opacity="1" stroke-miterlimit="4" d="M 240.803571 156.004464 C 270.418527 170.00279 301.570871 171.621094 335.15067 156.004464 L 325.845424 53.646763 L 251.646205 53.646763 Z M 240.803571 156.004464 " transform="matrix(0.0482759, 0, 0, 0.0482759, 0, 0)"/>
<path fill="none" stroke-width="10.989844" stroke-linecap="round" stroke-linejoin="round" stroke="rgb(100%, 100%, 100%)" stroke-opacity="1" stroke-miterlimit="4" d="M 335.47433 156.004464 C 365.008371 170.00279 396.241629 171.621094 429.740513 156.004464 L 400.93471 53.646763 L 326.735491 53.646763 Z M 335.47433 156.004464 " transform="matrix(0.0482759, 0, 0, 0.0482759, 0, 0)"/>
<path fill-rule="nonzero" fill="rgb(100%, 100%, 100%)" fill-opacity="1" stroke-width="10.989844" stroke-linecap="round" stroke-linejoin="round" stroke="rgb(100%, 100%, 100%)" stroke-opacity="1" stroke-miterlimit="4" d="M 429.093192 156.004464 C 458.627232 170.00279 489.860491 171.621094 523.44029 156.004464 L 475.053013 53.646763 L 400.93471 53.646763 Z M 429.093192 156.004464 " transform="matrix(0.0482759, 0, 0, 0.0482759, 0, 0)"/>
<path fill="none" stroke-width="28.987719" stroke-linecap="round" stroke-linejoin="round" stroke="rgb(100%, 100%, 100%)" stroke-opacity="1" stroke-miterlimit="4" d="M 88.683036 376.253906 L 488.323103 376.253906 " transform="matrix(0.0482759, 0, 0, 0.0482759, 0, 0.675862)"/>
<path fill="none" stroke-width="25" stroke-linecap="round" stroke-linejoin="round" stroke="rgb(100%, 100%, 100%)" stroke-opacity="1" stroke-miterlimit="4" d="M 126.71317 514.942522 L 126.71317 384.426339 " transform="matrix(0.0482759, 0, 0, 0.0482759, 0, 0.675862)"/>
<path fill="none" stroke-width="25" stroke-linecap="round" stroke-linejoin="round" stroke="rgb(100%, 100%, 100%)" stroke-opacity="1" stroke-miterlimit="4" d="M 446.24721 514.942522 L 446.24721 384.426339 " transform="matrix(0.0482759, 0, 0, 0.0482759, 0, 0.675862)"/>
<path fill-rule="nonzero" fill="rgb(100%, 100%, 100%)" fill-opacity="1" d="M 11.273438 10.253906 C 11.273438 10.253906 10.714844 12.148438 9.074219 11.582031 C 9.074219 11.582031 9.269531 9.933594 11.273438 10.253906 Z M 11.273438 10.253906 "/>
<path fill-rule="nonzero" fill="rgb(100%, 100%, 100%)" fill-opacity="1" d="M 8.519531 12.597656 C 8.804688 12.316406 9.191406 12.144531 9.621094 12.144531 C 10.492188 12.144531 11.199219 12.847656 11.199219 13.71875 C 11.199219 13.75 11.199219 13.777344 11.195312 13.8125 L 11.191406 13.8125 C 11.164062 14.152344 11.058594 14.574219 10.800781 15.101562 C 10.800781 15.101562 10.359375 15.945312 10.003906 16.332031 L 9.972656 16.363281 C 9.804688 16.535156 9.5625 16.640625 9.300781 16.640625 C 8.980469 16.640625 8.695312 16.488281 8.523438 16.246094 L 8.519531 16.246094 C 8.347656 16.488281 8.0625 16.640625 7.742188 16.640625 C 7.480469 16.640625 7.242188 16.535156 7.070312 16.363281 L 7.035156 16.332031 C 6.683594 15.945312 6.242188 15.101562 6.242188 15.101562 C 5.984375 14.574219 5.875 14.148438 5.851562 13.8125 L 5.84375 13.8125 C 5.839844 13.78125 5.839844 13.753906 5.839844 13.71875 C 5.839844 12.847656 6.546875 12.144531 7.417969 12.144531 C 7.847656 12.144531 8.234375 12.316406 8.519531 12.597656 "/>
<path fill-rule="nonzero" fill="rgb(100%, 100%, 100%)" fill-opacity="1" d="M 6.191406 9.664062 C 6.191406 9.664062 6.523438 11.320312 7.964844 10.964844 C 7.964844 10.964844 7.917969 9.542969 6.191406 9.664062 Z M 6.191406 9.664062 "/>
<path fill-rule="nonzero" fill="rgb(100%, 100%, 100%)" fill-opacity="1" stroke-width="1.351463" stroke-linecap="butt" stroke-linejoin="miter" stroke="rgb(100%, 100%, 100%)" stroke-opacity="1" stroke-miterlimit="4" d="M 156.886012 263.764002 C 156.886012 263.764002 156.590779 231.657454 153.195604 223.317132 C 149.874237 214.903003 164.414444 223.317132 164.414444 223.317132 Z M 156.886012 263.764002 " transform="matrix(0.0529244, 0, 0, 0.0529244, 0.17347, -1.697824)"/>
<path fill-rule="nonzero" fill="rgb(100%, 100%, 100%)" fill-opacity="1" stroke-width="1" stroke-linecap="butt" stroke-linejoin="miter" stroke="rgb(100%, 100%, 100%)" stroke-opacity="1" stroke-miterlimit="4" d="M 366.858203 182.647491 C 364.612944 182.647491 362.763908 183.175787 361.179019 183.968232 C 358.537538 185.288972 356.556428 187.005935 354.839465 188.722897 C 352.197985 191.232304 349.820652 194.137932 347.839542 196.383191 C 346.782949 197.439783 345.858431 198.496376 345.198061 199.024672 C 344.933913 199.420894 344.669765 199.552968 344.405617 199.685042 L 332.122731 204.968003 C 331.726509 204.968003 331.330287 204.968003 330.801991 204.968003 C 314.028588 204.968003 299.104222 209.854743 284.840227 214.34526 C 269.25549 219.231999 254.331124 225.175331 239.274684 228.08096 C 232.27476 229.4017 224.482392 229.797922 216.425876 230.458292 C 208.237286 231.118662 199.652474 232.043181 191.331809 234.948809 C 183.803589 237.59029 177.59611 240.495919 170.72826 244.722288 C 167.822631 246.703399 165.18115 248.948657 162.671744 250.797694 C 160.294411 252.64673 157.917078 253.967471 157.124634 254.099545 L 153.294487 256.608951 C 153.294487 256.608951 149.728488 259.250432 148.011526 260.83532 L 140.747454 267.0428 C 133.483382 273.25028 131.106049 289.099164 131.106049 297.81605 C 131.106049 297.948124 131.106049 297.948124 131.106049 297.948124 C 131.238123 311.55175 135.596566 324.230858 142.59649 335.589225 C 149.596414 346.947592 159.237819 357.117292 170.199964 365.570031 C 192.256328 382.475507 219.859801 393.437652 246.01046 393.569726 C 251.161347 393.569726 256.180161 393.04143 261.0669 392.116912 C 265.689491 391.324468 269.783786 389.079209 272.821489 386.305654 C 274.670526 384.588692 278.236525 382.607581 279.557265 380.494397 C 281.802524 379.437805 281.802524 378.117064 283.519486 376.268028 C 286.028893 373.758621 287.745855 370.852992 289.594892 367.286993 C 292.764669 361.343662 296.594816 355.004108 299.632519 348.268332 C 303.066443 340.34389 304.387184 332.023226 305.57585 324.362932 C 306.632442 316.570564 307.821109 309.306492 309.934293 303.627308 C 312.179552 297.948124 316.009699 293.061385 320.764364 287.778424 C 325.51903 282.627536 331.198213 277.212501 335.952878 270.344651 C 339.783025 264.929616 344.141469 260.042876 348.10369 253.967471 C 351.405541 248.684509 354.179095 242.212881 354.839465 234.288439 L 364.48087 229.269626 L 365.273314 228.345108 C 366.329907 227.420589 367.254425 226.892293 368.575165 226.496071 C 370.424202 225.835701 373.593979 225.703627 377.5562 225.439479 C 381.386347 225.043257 386.537234 224.250813 391.159825 220.55274 C 393.140936 218.967851 394.725824 217.250889 395.914491 215.269778 C 397.235231 213.288668 398.027675 210.911335 398.027675 208.401928 C 398.027675 206.288744 397.499379 204.307633 396.706935 202.722745 C 395.122046 199.94919 393.140936 198.100154 391.159825 196.779413 C 388.254196 194.666229 384.952346 193.345488 382.046717 192.156822 C 380.725976 191.7606 379.405236 191.364378 378.21657 190.968156 C 377.5562 189.515341 376.763755 188.194601 375.707163 186.87386 C 374.650571 185.685194 373.461904 184.628602 371.877016 183.836158 C 370.292128 183.043713 368.443091 182.647491 366.858203 182.647491 Z M 366.461981 190.043637 C 368.839313 189.911563 370.952498 191.892674 372.537386 197.307709 C 379.669384 198.892598 398.820119 204.571781 386.40516 214.609408 C 378.87694 220.816888 367.782721 215.137704 359.990353 223.19422 L 347.443319 229.797922 C 347.443319 229.533774 347.443319 229.269626 347.311245 229.005478 C 344.141469 230.194144 340.971692 231.514885 337.669841 232.175255 C 337.141545 228.873404 336.481174 225.571553 335.556656 222.401776 C 333.04725 223.326294 330.141621 224.250813 327.764288 224.647035 C 328.688806 220.156517 329.613325 216.722593 331.990657 213.156594 L 347.575393 206.552892 C 352.594207 204.307633 360.518649 190.439859 366.461981 190.043637 Z M 168.747149 261.495691 C 169.407519 261.363617 169.935815 261.495691 170.464112 261.495691 C 184.199811 261.495691 198.463807 266.118282 209.293878 270.212577 C 218.142839 273.646502 225.538985 276.684205 232.142686 281.042648 C 238.746388 285.401091 244.68972 290.948201 250.765125 298.872643 C 260.142382 311.155528 270.047935 326.60819 274.010156 342.721223 C 274.934674 346.683444 275.595044 351.570183 275.595044 356.72107 C 275.595044 362.532328 274.8026 368.47566 272.557341 373.758621 C 270.312083 378.909508 266.085713 383.5321 259.74616 384.720766 C 255.255643 385.645284 250.765125 386.041506 246.01046 386.041506 C 222.10506 386.041506 195.558178 375.607657 174.822555 359.626699 C 154.086931 343.513667 138.634269 321.721451 138.634269 297.81605 C 138.634269 290.155756 140.219157 282.231314 143.91723 274.57102 L 150.12471 267.571096 L 157.124634 263.344727 C 160.822707 262.156061 164.784928 261.495691 168.747149 261.495691 Z M 185.520552 296.759458 C 190.143143 296.891532 195.029882 297.948124 198.727955 300.985827 C 200.18077 302.174494 201.897732 304.02353 203.482621 306.400863 C 204.935435 308.646121 206.388249 311.419676 206.388249 314.589453 C 206.388249 315.910193 206.124101 317.363008 205.331657 318.683748 C 204.407139 320.532785 202.690176 321.721451 201.105288 322.381821 C 199.388325 323.042191 197.803437 323.174265 196.086475 323.174265 C 191.728031 323.174265 187.501662 321.721451 185.388478 321.061081 L 185.12433 320.929007 L 175.747073 315.778119 L 175.350851 315.646045 L 174.954629 315.381897 C 172.181074 312.740416 170.464112 309.834788 170.332038 306.665011 C 170.332038 304.815974 171.124482 303.099012 172.181074 301.778272 C 173.105592 300.457531 174.426333 299.533013 175.879147 298.872643 C 178.784776 297.419828 182.086627 296.759458 185.520552 296.759458 Z M 185.520552 303.759382 C 183.671515 303.759382 181.822479 304.155604 180.369664 304.551826 C 178.91685 305.080122 177.860258 305.740493 177.59611 306.136715 C 177.331961 306.400863 177.331961 306.532937 177.331961 306.665011 C 177.331961 306.929159 177.59611 308.117825 179.445146 309.966862 L 187.897884 314.589453 C 189.878995 315.249823 193.444994 316.174341 196.086475 316.174341 C 197.143067 316.174341 198.067585 316.042267 198.463807 315.778119 C 198.992103 315.646045 199.124177 315.513971 199.256251 315.249823 C 199.388325 315.117749 199.388325 314.985675 199.388325 314.589453 C 199.388325 313.797009 198.727955 311.947972 197.671363 310.23101 C 196.482697 308.514047 195.029882 306.929159 194.237438 306.268789 C 192.520476 304.815974 189.086551 303.759382 185.520552 303.759382 Z M 185.520552 303.759382 " transform="matrix(0.0295762, 0, 0, 0.0295762, 10.782536, 5.062822)"/>
<g mask="url(#mask-0)">
<use xlink:href="#source-20"/>
</g>
<g mask="url(#mask-1)">
<use xlink:href="#source-24"/>
</g>
<g mask="url(#mask-2)">
<use xlink:href="#source-28"/>
</g>
<g mask="url(#mask-3)">
<use xlink:href="#source-32"/>
</g>
</svg>
