<?xml version="1.0" encoding="UTF-8"?>
<svg xmlns="http://www.w3.org/2000/svg" xmlns:xlink="http://www.w3.org/1999/xlink" width="28" height="28" viewBox="0 0 28 28">
<defs>
<filter id="filter-remove-color" x="0%" y="0%" width="100%" height="100%">
<feColorMatrix color-interpolation-filters="sRGB" values="0 0 0 0 1 0 0 0 0 1 0 0 0 0 1 0 0 0 1 0" />
</filter>
<mask id="mask-0">
<g filter="url(#filter-remove-color)">
<rect x="-2.8" y="-2.8" width="33.6" height="33.6" fill="rgb(0%, 0%, 0%)" fill-opacity="0.2"/>
</g>
</mask>
<clipPath id="clip-0">
<rect x="0" y="0" width="28" height="28"/>
</clipPath>
<g id="source-9" clip-path="url(#clip-0)">
<path fill-rule="nonzero" fill="rgb(100%, 100%, 100%)" fill-opacity="1" stroke-width="4.833415" stroke-linecap="butt" stroke-linejoin="miter" stroke="rgb(100%, 100%, 100%)" stroke-opacity="1" stroke-miterlimit="4" d="M 192.111814 330.979364 L 192.136088 521.221319 C 192.11385 532.700633 201.394131 542.052184 212.949695 542.056981 L 380.250463 542.064483 C 391.788586 541.993029 401.063887 532.730189 401.068684 521.174625 L 401.061851 331.00892 Z M 192.111814 330.979364 " transform="matrix(0.0486825, 0.0111351, -0.0111351, 0.0486825, 2.879896, -4.283334)"/>
</g>
<mask id="mask-1">
<g filter="url(#filter-remove-color)">
<rect x="-2.8" y="-2.8" width="33.6" height="33.6" fill="rgb(0%, 0%, 0%)" fill-opacity="0.2"/>
</g>
</mask>
<clipPath id="clip-1">
<rect x="0" y="0" width="28" height="28"/>
</clipPath>
<g id="source-13" clip-path="url(#clip-1)">
<path fill-rule="nonzero" fill="rgb(100%, 100%, 100%)" fill-opacity="1" stroke-width="4.833415" stroke-linecap="butt" stroke-linejoin="miter" stroke="rgb(100%, 100%, 100%)" stroke-opacity="1" stroke-miterlimit="4" d="M 211.815325 83.507822 C 200.797977 84.102073 192.115237 93.149137 192.099487 104.30601 L 192.106926 327.449951 L 401.056963 327.479507 L 401.049524 104.335566 C 401.054321 92.780002 391.791481 83.504701 380.235917 83.499904 L 212.935149 83.492403 C 212.536457 83.503356 212.214016 83.496869 211.815325 83.507822 Z M 211.815325 83.507822 " transform="matrix(0.0486825, 0.0111351, -0.0111351, 0.0486825, 2.879896, -4.283334)"/>
</g>
</defs>
<path fill-rule="nonzero" fill="rgb(6.666667%, 6.666667%, 6.666667%)" fill-opacity="1" stroke-width="3.408" stroke-linecap="butt" stroke-linejoin="miter" stroke="rgb(93.333333%, 93.333333%, 93.333333%)" stroke-opacity="1" stroke-miterlimit="4" d="M 66.269531 1.780134 C 24.921875 1.780134 1.699219 23.141741 1.699219 66.835938 L 1.699219 516.967076 C 1.699219 557.748326 22.575335 579.190848 63.922991 579.190848 L 515.915179 579.190848 C 557.262835 579.190848 578.138951 558.881138 578.138951 516.967076 L 578.138951 66.835938 C 578.138951 24.193638 557.262835 1.780134 514.620536 1.780134 C 514.620536 1.780134 66.107701 1.618304 66.269531 1.780134 Z M 66.269531 1.780134 " transform="matrix(0.0482759, 0, 0, 0.0482759, 0, 0)"/>
<path fill-rule="nonzero" fill="rgb(100%, 100%, 100%)" fill-opacity="1" stroke-width="4.833415" stroke-linecap="butt" stroke-linejoin="miter" stroke="rgb(100%, 100%, 100%)" stroke-opacity="1" stroke-miterlimit="4" d="M 211.815325 83.507822 C 200.797977 84.102073 192.115237 93.149137 192.099487 104.30601 L 192.136088 521.221319 C 192.11385 532.700633 201.394131 542.052184 212.949695 542.056981 L 380.250463 542.064483 C 391.788586 541.993029 401.063887 532.730189 401.068684 521.174625 L 401.049524 104.335566 C 401.054321 92.780002 391.791481 83.504701 380.235917 83.499904 L 212.935149 83.492403 C 212.536457 83.503356 212.214016 83.496869 211.815325 83.507822 Z M 229.758221 109.333026 L 363.435871 109.328158 C 373.302978 109.317959 381.302003 117.277545 381.235952 127.162093 L 381.260557 305.127351 C 381.270756 314.994459 373.311171 322.993483 363.444063 323.003683 L 229.766413 323.00855 C 219.881865 322.9425 211.976531 315.041723 211.966332 305.174616 L 211.924287 127.133107 C 211.914087 117.266 219.873673 109.266975 229.758221 109.333026 Z M 222.927589 351.693695 L 246.361158 351.709776 C 252.698852 351.704465 257.795483 356.797383 257.783353 363.058827 L 257.793222 385.202632 C 257.798533 391.540326 252.705614 396.636956 246.36792 396.642267 L 222.934351 396.626186 C 216.596657 396.631497 211.500026 391.538579 211.494715 385.200885 L 211.502287 363.133331 C 211.496976 356.795636 216.589894 351.699006 222.927589 351.693695 Z M 284.387323 351.677909 L 307.820892 351.693991 C 314.158586 351.688679 319.255217 356.781598 319.260528 363.119292 L 319.176706 385.204287 C 319.182017 391.541981 314.165349 396.621171 307.827654 396.626482 L 284.394085 396.610401 C 278.056391 396.615712 272.95976 391.522793 272.97189 385.261349 L 272.962021 363.117545 C 272.95671 356.779851 278.049629 351.683221 284.387323 351.677909 Z M 345.847057 351.662124 L 369.280626 351.678205 C 375.618321 351.672894 380.638701 356.783253 380.644012 363.120947 L 380.653881 385.264752 C 380.641751 391.526196 375.625083 396.605385 369.287389 396.610696 L 345.853819 396.594615 C 339.516125 396.599926 334.436935 391.583258 334.431624 385.245564 L 334.421756 363.10176 C 334.416445 356.764066 339.509363 351.667435 345.847057 351.662124 Z M 222.943374 413.153429 L 246.376943 413.16951 C 252.714638 413.164199 257.811268 418.257117 257.816579 424.594812 L 257.826448 446.738616 C 257.814318 453.00006 252.64515 458.114131 246.383706 458.102002 L 222.967577 458.16217 C 216.629883 458.167482 211.533252 453.074563 211.527941 446.736869 L 211.518073 424.593065 C 211.512762 418.255371 216.60568 413.15874 222.943374 413.153429 Z M 284.420549 413.213894 L 307.836678 413.153725 C 314.174372 413.148414 319.194752 418.258773 319.200063 424.596467 L 319.209932 446.740271 C 319.215243 453.077965 314.122325 458.174596 307.860881 458.162466 L 284.427311 458.146385 C 278.089617 458.151696 272.992986 453.058778 272.987675 446.721084 L 272.977807 424.577279 C 272.989936 418.315835 278.082855 413.219205 284.420549 413.213894 Z M 345.804033 413.215549 L 369.313853 413.21419 C 375.575297 413.226319 380.671927 418.319237 380.659797 424.580681 L 380.669666 446.724486 C 380.674977 453.06218 375.582059 458.15881 369.244365 458.164121 L 345.810795 458.14804 C 339.473101 458.153351 334.452721 453.042992 334.44741 446.705298 L 334.454982 424.637744 C 334.449671 418.30005 339.542589 413.203419 345.804033 413.215549 Z M 222.9766 474.689413 L 246.333919 474.722935 C 252.671614 474.717624 257.768244 479.810543 257.756114 486.071986 L 257.765983 508.215791 C 257.771294 514.553485 252.678376 519.650115 246.340682 519.655427 L 222.983362 519.621905 C 216.645668 519.627216 211.549038 514.534297 211.543727 508.196603 L 211.551299 486.129049 C 211.545988 479.791355 216.638906 474.694725 222.9766 474.689413 Z M 284.436334 474.673628 L 307.793654 474.70715 C 314.131348 474.701839 319.227978 479.794757 319.233289 486.132451 L 319.225717 508.200005 C 319.231028 514.5377 314.13811 519.63433 307.800416 519.639641 L 284.366846 519.62356 C 278.105402 519.61143 272.932522 514.535953 273.020902 508.257068 L 273.011033 486.113264 C 273.005722 479.77557 278.09864 474.678939 284.436334 474.673628 Z M 345.819818 474.675283 L 369.253388 474.691364 C 375.591082 474.686053 380.687712 479.778972 380.693024 486.116666 L 380.702892 508.26047 C 380.690763 514.521914 375.597844 519.618545 369.26015 519.623856 L 345.826581 519.607774 C 339.488886 519.613086 334.409697 514.596417 334.404386 508.258723 L 334.394517 486.114919 C 334.465456 479.759784 339.482124 474.680594 345.819818 474.675283 Z M 345.819818 474.675283 " transform="matrix(0.0486825, 0.0111351, -0.0111351, 0.0486825, 2.879896, -4.283334)"/>
<path fill-rule="nonzero" fill="rgb(100%, 100%, 100%)" fill-opacity="1" stroke-width="4.833415" stroke-linecap="butt" stroke-linejoin="miter" stroke="rgb(100%, 100%, 100%)" stroke-opacity="1" stroke-miterlimit="4" d="M 350.592105 32.82895 L 374.823058 32.823125 C 378.674912 32.824724 381.705879 35.902701 381.70428 39.754556 L 381.756876 85.238239 C 381.755277 89.090093 378.60105 92.1385 374.842886 92.195711 L 350.611934 92.201536 C 346.836329 92.182497 343.711672 89.04571 343.730712 85.270105 L 343.754365 39.768982 C 343.755964 35.917127 346.816501 32.80991 350.592105 32.82895 Z M 350.592105 32.82895 " transform="matrix(0.0486825, 0.0111351, -0.0111351, 0.0486825, 2.879896, -4.283334)"/>
<g mask="url(#mask-0)">
<use xlink:href="#source-9"/>
</g>
<g mask="url(#mask-1)">
<use xlink:href="#source-13"/>
</g>
</svg>
