<?xml version="1.0" encoding="UTF-8"?>
<svg xmlns="http://www.w3.org/2000/svg" xmlns:xlink="http://www.w3.org/1999/xlink" width="28" height="28" viewBox="0 0 28 28">
<path fill-rule="nonzero" fill="rgb(6.666667%, 6.666667%, 6.666667%)" fill-opacity="1" stroke-width="3.408" stroke-linecap="butt" stroke-linejoin="miter" stroke="rgb(93.333333%, 93.333333%, 93.333333%)" stroke-opacity="1" stroke-miterlimit="4" d="M 66.269531 1.780134 C 24.921875 1.780134 1.699219 23.141741 1.699219 66.835938 L 1.699219 516.967076 C 1.699219 557.748326 22.575335 579.190848 63.922991 579.190848 L 515.915179 579.190848 C 557.262835 579.190848 578.138951 558.881138 578.138951 516.967076 L 578.138951 66.835938 C 578.138951 24.193638 557.262835 1.780134 514.620536 1.780134 C 514.620536 1.780134 66.107701 1.618304 66.269531 1.780134 Z M 66.269531 1.780134 " transform="matrix(0.0482759, 0, 0, 0.0482759, 0, 0)"/>
<path fill-rule="nonzero" fill="rgb(100%, 100%, 100%)" fill-opacity="1" d="M 15.421875 3.707031 C 15.09375 2.429688 13.925781 1.484375 12.550781 1.484375 C 10.90625 1.484375 9.578125 2.808594 9.578125 4.449219 C 9.578125 4.726562 9.613281 4.976562 9.679688 5.226562 L 10.875 5.226562 C 10.960938 5.429688 11.058594 5.546875 11.058594 5.546875 C 11.414062 6.066406 12.015625 6.398438 12.691406 6.398438 C 13.789062 6.398438 14.683594 5.503906 14.683594 4.40625 C 14.683594 4.152344 14.75 3.925781 14.644531 3.707031 Z M 15.421875 3.707031 "/>
<path fill-rule="nonzero" fill="rgb(100%, 100%, 100%)" fill-opacity="1" d="M 15.339844 21.429688 C 15.027344 21.746094 14.597656 21.988281 14.113281 21.988281 L 14.109375 15.53125 L 18.578125 14.246094 L 19.699219 16.449219 Z M 15.339844 21.429688 "/>
<path fill-rule="nonzero" fill="rgb(100%, 100%, 100%)" fill-opacity="1" d="M 11.589844 6.65625 C 11.292969 6.328125 10.871094 6.121094 10.390625 6.121094 C 9.882812 6.121094 9.425781 6.355469 9.136719 6.726562 L 5.589844 12.140625 C 5.445312 12.382812 5.363281 12.667969 5.363281 12.964844 C 5.363281 13.523438 5.644531 14.011719 6.074219 14.296875 L 10.832031 16.9375 L 10.832031 21.433594 C 10.832031 22.066406 11.347656 22.585938 11.980469 22.585938 C 12.613281 22.585938 13.132812 22.066406 13.132812 21.433594 L 13.132812 15.820312 C 13.132812 15.820312 13.28125 14.925781 12.265625 14.441406 L 9.300781 12.886719 L 11.464844 9.585938 L 12.609375 11.386719 C 12.839844 11.75 13.148438 11.890625 13.433594 11.886719 L 16.378906 11.875 C 17.574219 11.875 17.574219 10.3125 16.378906 10.320312 L 13.988281 10.320312 Z M 11.589844 6.65625 "/>
<path fill-rule="nonzero" fill="rgb(100%, 100%, 100%)" fill-opacity="1" d="M 24.628906 14.019531 C 24.675781 14.066406 24.699219 14.125 24.699219 14.203125 C 24.699219 14.34375 24.582031 14.460938 24.441406 14.460938 C 24.402344 14.460938 24.378906 14.460938 24.347656 14.449219 C 23.839844 14.230469 23.515625 14.097656 22.925781 14.097656 C 22.53125 14.097656 22.046875 14.230469 21.488281 14.683594 L 20.96875 13.660156 C 21.617188 13.46875 22.148438 13.296875 22.703125 13.296875 C 23.585938 13.296875 24.050781 13.480469 24.628906 14.019531 Z M 24.628906 14.019531 "/>
<path fill-rule="nonzero" fill="rgb(100%, 100%, 100%)" fill-opacity="1" d="M 4.84375 14.808594 L 9.835938 17.558594 L 9.847656 18.664062 L 4.144531 15.523438 C 3.734375 15.3125 3.179688 15.1875 2.785156 15.1875 C 2.199219 15.1875 1.871094 15.324219 1.363281 15.542969 C 1.332031 15.554688 1.304688 15.554688 1.269531 15.554688 C 1.128906 15.554688 1.007812 15.4375 1.007812 15.292969 C 1.007812 15.21875 1.039062 15.160156 1.082031 15.109375 C 1.660156 14.570312 2.253906 14.386719 3.132812 14.386719 C 3.589844 14.386719 4.136719 14.441406 4.84375 14.808594 Z M 4.84375 14.808594 "/>
<path fill-rule="nonzero" fill="rgb(100%, 100%, 100%)" fill-opacity="1" d="M 5.308594 24.933594 C 6.933594 24.933594 8.253906 23.613281 8.253906 21.984375 C 8.253906 20.355469 6.933594 19.039062 5.308594 19.039062 C 3.683594 19.039062 2.363281 20.355469 2.363281 21.984375 C 2.363281 23.613281 3.683594 24.933594 5.308594 24.933594 Z M 1.058594 21.988281 C 1.058594 19.644531 2.960938 17.738281 5.308594 17.738281 C 7.65625 17.738281 9.558594 19.644531 9.558594 21.988281 C 9.558594 24.335938 7.65625 26.242188 5.308594 26.242188 C 2.960938 26.242188 1.058594 24.335938 1.058594 21.988281 Z M 1.058594 21.988281 "/>
<path fill-rule="nonzero" fill="rgb(100%, 100%, 100%)" fill-opacity="1" d="M 22.882812 24.933594 C 24.507812 24.933594 25.828125 23.613281 25.828125 21.984375 C 25.828125 20.355469 24.511719 19.039062 22.882812 19.039062 C 21.253906 19.039062 19.9375 20.355469 19.9375 21.984375 C 19.9375 23.613281 21.253906 24.933594 22.882812 24.933594 Z M 18.632812 21.988281 C 18.632812 19.644531 20.53125 17.738281 22.882812 17.738281 C 25.226562 17.738281 27.128906 19.644531 27.128906 21.988281 C 27.128906 24.335938 25.226562 26.242188 22.882812 26.242188 C 20.53125 26.242188 18.632812 24.335938 18.632812 21.988281 Z M 18.632812 21.988281 "/>
<path fill-rule="nonzero" fill="rgb(100%, 100%, 100%)" fill-opacity="1" d="M 21.941406 17.128906 L 19.875 13 C 19.605469 12.507812 19.078125 12.167969 18.472656 12.167969 L 17.125 12.167969 C 16.863281 12.167969 16.648438 12.382812 16.648438 12.648438 C 16.648438 12.914062 16.863281 13.125 17.125 13.125 L 18.472656 13.117188 C 18.699219 13.117188 18.953125 13.269531 19.046875 13.492188 L 20.992188 17.457031 Z M 21.941406 17.128906 "/>
</svg>
