<?xml version="1.0" encoding="UTF-8"?>
<svg xmlns="http://www.w3.org/2000/svg" xmlns:xlink="http://www.w3.org/1999/xlink" width="28" height="28" viewBox="0 0 28 28">
<path fill-rule="nonzero" fill="rgb(6.666667%, 6.666667%, 6.666667%)" fill-opacity="1" stroke-width="3.408" stroke-linecap="butt" stroke-linejoin="miter" stroke="rgb(93.333333%, 93.333333%, 93.333333%)" stroke-opacity="1" stroke-miterlimit="4" d="M 66.269531 1.780134 C 24.921875 1.780134 1.699219 23.141741 1.699219 66.835938 L 1.699219 516.967076 C 1.699219 557.748326 22.575335 579.190848 63.922991 579.190848 L 515.915179 579.190848 C 557.262835 579.190848 578.138951 558.881138 578.138951 516.967076 L 578.138951 66.835938 C 578.138951 24.193638 557.262835 1.780134 514.620536 1.780134 C 514.620536 1.780134 66.107701 1.618304 66.269531 1.780134 Z M 66.269531 1.780134 " transform="matrix(0.0482759, 0, 0, 0.0482759, 0, 0)"/>
<path fill-rule="evenodd" fill="rgb(100%, 100%, 100%)" fill-opacity="1" d="M 10.140625 22.570312 L 18.332031 22.570312 C 18.332031 21.402344 18.25 21.171875 16.320312 21.171875 C 16.628906 20.25 17.878906 18.011719 18.578125 18.011719 C 19.191406 18.011719 19.925781 18.046875 19.925781 19.453125 C 19.925781 21.046875 22.609375 23.617188 23.261719 22.570312 C 24.230469 21.003906 21.59375 21.480469 21.59375 17.710938 C 21.59375 12.554688 24.601562 13.289062 24.601562 10.394531 C 24.601562 8.941406 24.203125 8.746094 24.203125 7.710938 C 24.203125 6.339844 25.410156 6.421875 25.175781 5.285156 C 25.011719 4.5 24.886719 3.871094 24.789062 2.921875 C 24.722656 2.25 24.703125 1.53125 24.003906 1.5625 C 23.179688 1.597656 22.871094 3.042969 21.59375 3.144531 C 20.320312 3.25 19.230469 2.0625 18.738281 2.230469 C 18.25 2.398438 18.402344 3.726562 18.695312 4.667969 C 19.148438 6.148438 20.144531 8.074219 18.332031 8.363281 C 16.519531 8.652344 13.402344 8.941406 11.15625 11.914062 C 8.910156 14.886719 8.992188 18.375 8.113281 19.453125 C 5.160156 23.070312 2.132812 21.585938 2.132812 24.597656 C 2.132812 25.945312 4.417969 26.917969 4.777344 26.480469 C 5.140625 26.046875 1.699219 24.75 5.550781 23.21875 C 8.839844 21.914062 9.132812 21.644531 10.140625 22.570312 Z M 10.140625 22.570312 "/>
</svg>
