<?xml version="1.0" encoding="UTF-8"?>
<svg xmlns="http://www.w3.org/2000/svg" xmlns:xlink="http://www.w3.org/1999/xlink" width="28" height="28" viewBox="0 0 28 28">
<path fill-rule="nonzero" fill="rgb(6.666667%, 6.666667%, 6.666667%)" fill-opacity="1" stroke-width="3.408" stroke-linecap="butt" stroke-linejoin="miter" stroke="rgb(93.333333%, 93.333333%, 93.333333%)" stroke-opacity="1" stroke-miterlimit="4" d="M 66.269531 1.780134 C 24.921875 1.780134 1.699219 23.141741 1.699219 66.835938 L 1.699219 516.967076 C 1.699219 557.748326 22.575335 579.190848 63.922991 579.190848 L 515.915179 579.190848 C 557.262835 579.190848 578.138951 558.881138 578.138951 516.967076 L 578.138951 66.835938 C 578.138951 24.193638 557.262835 1.780134 514.620536 1.780134 C 514.620536 1.780134 66.107701 1.618304 66.269531 1.780134 Z M 66.269531 1.780134 " transform="matrix(0.0482759, 0, 0, 0.0482759, 0, 0)"/>
<path fill-rule="evenodd" fill="rgb(100%, 100%, 100%)" fill-opacity="1" d="M 14.519531 12.230469 C 15.644531 13.089844 16.910156 14.207031 16.855469 15.757812 C 16.914062 16.722656 16.878906 17.707031 17.101562 18.65625 C 17.824219 19.789062 18.480469 21.023438 18.683594 22.367188 C 18.789062 24.304688 17.328125 26.128906 15.523438 26.707031 C 13.65625 27.09375 11.589844 26.613281 10.222656 25.25 C 9.316406 24.429688 8.648438 23.214844 7.375 22.917969 C 6.222656 22.609375 4.976562 22.460938 3.992188 21.71875 C 3.007812 21.089844 2.398438 20.0625 1.847656 19.070312 C 1.242188 17.855469 1.304688 16.347656 2.066406 15.214844 C 3.117188 13.453125 5.308594 12.78125 7.257812 12.890625 C 8.078125 12.960938 8.945312 13.023438 9.65625 12.515625 C 10.558594 11.980469 11.53125 11.207031 12.652344 11.507812 C 13.3125 11.632812 13.9375 11.898438 14.519531 12.230469 Z M 14.519531 12.230469 "/>
<path fill-rule="evenodd" fill="rgb(100%, 100%, 100%)" fill-opacity="1" d="M 4.917969 3.601562 C 5.714844 2.847656 6.945312 2.441406 7.992188 2.898438 C 8.742188 3.21875 9.355469 3.824219 9.773438 4.515625 C 10.445312 5.921875 10.347656 7.566406 9.96875 9.039062 C 9.800781 9.75 9.542969 10.46875 9.019531 11 C 8.445312 11.652344 7.539062 11.957031 6.683594 11.835938 C 5.472656 11.84375 4.335938 11.070312 3.832031 9.976562 C 3.527344 9.34375 3.335938 8.640625 3.390625 7.929688 C 3.4375 6.386719 3.820312 4.75 4.917969 3.601562 Z M 4.917969 3.601562 "/>
<path fill-rule="evenodd" fill="rgb(100%, 100%, 100%)" fill-opacity="1" d="M 17.277344 2.035156 C 17.277344 2.035156 18.753906 2.925781 18.449219 5.308594 C 18.449219 5.308594 18.28125 6.875 16.964844 8.648438 C 16.964844 8.648438 15.800781 10.53125 14.210938 10.636719 C 14.210938 10.636719 11.839844 11.121094 11.191406 8.191406 C 11.191406 8.191406 10.742188 6.132812 11.609375 4.121094 C 11.609375 4.121094 12.492188 2.027344 14.375 1.582031 C 14.375 1.582031 15.953125 1.234375 17.277344 2.035156 Z M 17.277344 2.035156 "/>
<path fill-rule="evenodd" fill="rgb(100%, 100%, 100%)" fill-opacity="1" d="M 24.824219 7.078125 C 24.824219 7.078125 26.332031 8.703125 24.894531 10.671875 C 24.894531 10.671875 24.003906 12.410156 22.105469 13.347656 C 22.105469 13.347656 19.980469 14.632812 18.527344 14.042969 C 18.527344 14.042969 16.777344 13.625 17.054688 10.726562 C 17.054688 10.726562 17.816406 7.703125 20.027344 6.675781 C 20.027344 6.675781 22.929688 4.929688 24.824219 7.078125 Z M 24.824219 7.078125 "/>
<path fill-rule="evenodd" fill="rgb(100%, 100%, 100%)" fill-opacity="1" d="M 26.113281 15.058594 C 26.8125 15.828125 26.925781 17.015625 26.480469 17.945312 C 26.089844 18.785156 25.429688 19.46875 24.726562 20.050781 C 23.648438 20.878906 22.304688 21.359375 20.945312 21.394531 C 19.957031 21.359375 19.128906 20.632812 18.714844 19.769531 C 18.515625 19.46875 18.496094 19.113281 18.539062 18.765625 C 18.621094 17.589844 19.214844 16.449219 20.183594 15.761719 C 21.054688 15.089844 22.015625 14.449219 23.121094 14.265625 C 23.984375 14.089844 24.960938 14.109375 25.695312 14.65625 C 25.851562 14.769531 25.992188 14.90625 26.113281 15.058594 Z M 26.113281 15.058594 "/>
</svg>
