<?xml version="1.0" encoding="UTF-8"?>
<svg xmlns="http://www.w3.org/2000/svg" xmlns:xlink="http://www.w3.org/1999/xlink" width="28" height="28" viewBox="0 0 28 28">
<path fill-rule="nonzero" fill="rgb(6.666667%, 6.666667%, 6.666667%)" fill-opacity="1" stroke-width="3.408" stroke-linecap="butt" stroke-linejoin="miter" stroke="rgb(93.333333%, 93.333333%, 93.333333%)" stroke-opacity="1" stroke-miterlimit="4" d="M 66.269531 1.780134 C 24.921875 1.780134 1.699219 23.141741 1.699219 66.835938 L 1.699219 516.967076 C 1.699219 557.748326 22.575335 579.190848 63.922991 579.190848 L 515.915179 579.190848 C 557.262835 579.190848 578.138951 558.881138 578.138951 516.967076 L 578.138951 66.835938 C 578.138951 24.193638 557.262835 1.780134 514.620536 1.780134 C 514.620536 1.780134 66.107701 1.618304 66.269531 1.780134 Z M 66.269531 1.780134 " transform="matrix(0.0482759, 0, 0, 0.0482759, 0, 0)"/>
<path fill-rule="nonzero" fill="rgb(100%, 100%, 100%)" fill-opacity="1" stroke-width="5.1" stroke-linecap="round" stroke-linejoin="round" stroke="rgb(100%, 100%, 100%)" stroke-opacity="1" stroke-miterlimit="4" d="M 230.284598 99.52567 L 204.715402 136.827567 L 377.388393 136.827567 L 354.003906 99.52567 Z M 266.049107 103.976004 L 317.915737 103.976004 L 317.915737 133.186384 L 266.049107 133.186384 Z M 437.751116 115.304129 L 428.688616 136.584821 L 496.900112 136.584821 L 488.646763 115.304129 Z M 105.513393 122.586496 L 101.143973 136.422991 L 147.022879 136.422991 L 143.786272 122.586496 Z M 105.513393 122.586496 " transform="matrix(0.0482759, 0, 0, 0.0482759, 0, 0)"/>
<path fill-rule="nonzero" fill="rgb(100%, 100%, 100%)" fill-opacity="1" d="M 3.777344 7.1875 C 2.585938 7.1875 1.628906 8.144531 1.628906 9.332031 L 1.628906 20.8125 C 1.628906 22.003906 2.585938 22.960938 3.777344 22.960938 L 24.371094 22.960938 C 25.558594 22.960938 26.519531 22.003906 26.519531 20.8125 L 26.519531 9.332031 C 26.519531 8.144531 25.558594 7.1875 24.371094 7.1875 Z M 16.339844 9.261719 C 19.492188 9.261719 22.046875 11.8125 22.046875 14.960938 C 22.046875 18.113281 19.492188 20.667969 16.339844 20.667969 C 13.191406 20.667969 10.636719 18.113281 10.636719 14.960938 C 10.636719 11.8125 13.191406 9.261719 16.339844 9.261719 Z M 16.339844 9.261719 "/>
<path fill-rule="nonzero" fill="rgb(100%, 100%, 100%)" fill-opacity="1" d="M 19.75 14.964844 C 19.75 16.84375 18.222656 18.371094 16.339844 18.371094 C 14.460938 18.371094 12.933594 16.84375 12.933594 14.964844 C 12.933594 13.082031 14.460938 11.554688 16.339844 11.554688 C 18.222656 11.554688 19.75 13.082031 19.75 14.964844 Z M 19.75 14.964844 "/>
</svg>
