<?xml version="1.0" encoding="UTF-8"?>
<svg xmlns="http://www.w3.org/2000/svg" xmlns:xlink="http://www.w3.org/1999/xlink" width="28" height="28" viewBox="0 0 28 28">
<path fill-rule="nonzero" fill="rgb(6.666667%, 6.666667%, 6.666667%)" fill-opacity="1" stroke-width="3.408" stroke-linecap="butt" stroke-linejoin="miter" stroke="rgb(93.333333%, 93.333333%, 93.333333%)" stroke-opacity="1" stroke-miterlimit="4" d="M 66.269531 1.780134 C 24.921875 1.780134 1.699219 23.141741 1.699219 66.835938 L 1.699219 516.967076 C 1.699219 557.748326 22.575335 579.190848 63.922991 579.190848 L 515.915179 579.190848 C 557.262835 579.190848 578.138951 558.881138 578.138951 516.967076 L 578.138951 66.835938 C 578.138951 24.193638 557.262835 1.780134 514.620536 1.780134 C 514.620536 1.780134 66.107701 1.618304 66.269531 1.780134 Z M 66.269531 1.780134 " transform="matrix(0.0482759, 0, 0, 0.0482759, 0, 0)"/>
<path fill="none" stroke-width="28.173355" stroke-linecap="round" stroke-linejoin="round" stroke="rgb(100%, 100%, 100%)" stroke-opacity="1" stroke-miterlimit="4" d="M 538.733259 90.948661 L 489.375 118.945312 L 426.018415 388.554688 L 426.018415 445.680804 L 137.151228 445.680804 " transform="matrix(0.0482759, 0, 0, 0.0482759, 0, 0)"/>
<path fill="none" stroke-width="28.173355" stroke-linecap="round" stroke-linejoin="round" stroke="rgb(100%, 100%, 100%)" stroke-opacity="1" stroke-miterlimit="4" d="M 479.098772 164.581473 L 56.236049 164.581473 L 105.837054 358.373326 L 425.371094 402.957589 Z M 479.098772 164.581473 " transform="matrix(0.0482759, 0, 0, 0.0482759, 0, 0)"/>
<path fill="none" stroke-width="18.782236" stroke-linecap="round" stroke-linejoin="miter" stroke="rgb(100%, 100%, 100%)" stroke-opacity="1" stroke-miterlimit="4" d="M 128.088728 165.714286 L 128.088728 343.242188 " transform="matrix(0.0482759, 0, 0, 0.0482759, 0, 0)"/>
<path fill="none" stroke-width="18.782236" stroke-linecap="round" stroke-linejoin="miter" stroke="rgb(100%, 100%, 100%)" stroke-opacity="1" stroke-miterlimit="4" d="M 86.417411 242.988281 L 445.195312 242.988281 " transform="matrix(0.0482759, 0, 0, 0.0482759, 0, 0)"/>
<path fill="none" stroke-width="20" stroke-linecap="round" stroke-linejoin="round" stroke="rgb(100%, 100%, 100%)" stroke-opacity="1" stroke-miterlimit="4" d="M -184.09528 498.714456 C -184.09528 514.81404 -197.205456 527.850428 -213.295217 527.850428 C -229.384978 527.850428 -242.420664 514.81404 -242.420664 498.714456 C -242.420664 482.614873 -229.384978 469.507247 -213.295217 469.507247 C -197.205456 469.507247 -184.09528 482.543635 -184.09528 498.714456 " transform="matrix(0.0524402, 0, 0, 0.0548345, 18.044615, -4.190504)"/>
<path fill="none" stroke-width="20" stroke-linecap="round" stroke-linejoin="round" stroke="rgb(100%, 100%, 100%)" stroke-opacity="1" stroke-miterlimit="4" d="M -184.141515 498.663362 C -184.141515 514.762946 -197.177201 527.870571 -213.266962 527.870571 C -229.356723 527.799334 -242.466899 514.762946 -242.466899 498.663362 C -242.466899 482.563778 -229.356723 469.52739 -213.266962 469.52739 C -197.177201 469.52739 -184.141515 482.563778 -184.141515 498.663362 " transform="matrix(0.0524402, 0, 0, 0.0548345, 29.871258, -4.093952)"/>
<path fill="none" stroke-width="18.782236" stroke-linecap="round" stroke-linejoin="miter" stroke="rgb(100%, 100%, 100%)" stroke-opacity="1" stroke-miterlimit="4" d="M 215.15346 165.714286 L 215.15346 363.228237 " transform="matrix(0.0482759, 0, 0, 0.0482759, 0, 0)"/>
<path fill="none" stroke-width="18.782236" stroke-linecap="round" stroke-linejoin="miter" stroke="rgb(100%, 100%, 100%)" stroke-opacity="1" stroke-miterlimit="4" d="M 306.263951 165.714286 L 306.263951 372.128906 " transform="matrix(0.0482759, 0, 0, 0.0482759, 0, 0)"/>
<path fill="none" stroke-width="18.782236" stroke-linecap="round" stroke-linejoin="miter" stroke="rgb(100%, 100%, 100%)" stroke-opacity="1" stroke-miterlimit="4" d="M 395.351562 165.714286 L 395.351562 385.560826 " transform="matrix(0.0482759, 0, 0, 0.0482759, 0, 0)"/>
<path fill="none" stroke-width="18.782236" stroke-linecap="round" stroke-linejoin="miter" stroke="rgb(100%, 100%, 100%)" stroke-opacity="1" stroke-miterlimit="4" d="M 104.21875 322.123326 L 427.393973 322.123326 " transform="matrix(0.0482759, 0, 0, 0.0482759, 0, 0)"/>
</svg>
