<?xml version="1.0" encoding="UTF-8"?>
<svg xmlns="http://www.w3.org/2000/svg" xmlns:xlink="http://www.w3.org/1999/xlink" width="28" height="28" viewBox="0 0 28 28">
<path fill-rule="nonzero" fill="rgb(6.666667%, 6.666667%, 6.666667%)" fill-opacity="1" stroke-width="3.408" stroke-linecap="butt" stroke-linejoin="miter" stroke="rgb(93.333333%, 93.333333%, 93.333333%)" stroke-opacity="1" stroke-miterlimit="4" d="M 66.269531 1.780134 C 24.921875 1.780134 1.699219 23.141741 1.699219 66.835938 L 1.699219 516.967076 C 1.699219 557.748326 22.575335 579.190848 63.922991 579.190848 L 515.915179 579.190848 C 557.262835 579.190848 578.138951 558.881138 578.138951 516.967076 L 578.138951 66.835938 C 578.138951 24.193638 557.262835 1.780134 514.620536 1.780134 C 514.620536 1.780134 66.107701 1.618304 66.269531 1.780134 Z M 66.269531 1.780134 " transform="matrix(0.0482759, 0, 0, 0.0482759, 0, 0)"/>
<path fill-rule="nonzero" fill="rgb(100%, 100%, 100%)" fill-opacity="1" d="M 15.886719 18.015625 C 16.457031 18.015625 16.914062 17.554688 16.914062 16.988281 C 16.914062 16.421875 16.453125 15.960938 15.886719 15.960938 C 15.320312 15.960938 14.855469 16.421875 14.855469 16.988281 C 14.855469 17.554688 15.320312 18.015625 15.886719 18.015625 Z M 26.085938 25.433594 C 19.988281 25.523438 13.609375 24.359375 8.734375 20.4375 C 8.699219 20.40625 8.6875 20.371094 8.6875 20.324219 C 8.6875 20.234375 8.761719 20.160156 8.851562 20.160156 L 13.660156 20.167969 C 13.890625 20.167969 14.085938 19.976562 14.085938 19.742188 C 14.085938 19.566406 14.007812 19.445312 13.820312 19.351562 L 9.472656 17.277344 C 9.394531 17.222656 9.335938 17.132812 9.335938 17.03125 C 9.335938 16.957031 9.367188 16.882812 9.414062 16.832031 C 9.414062 16.832031 14.710938 12.148438 26.085938 12.25 Z M 26.085938 25.433594 "/>
<path fill-rule="nonzero" fill="rgb(100%, 100%, 100%)" fill-opacity="1" d="M 23.761719 2.089844 C 19.992188 2.128906 16.308594 3.738281 12.171875 7.128906 C 12.019531 7.085938 11.679688 6.996094 11.679688 6.996094 C 11.023438 6.996094 10.488281 7.527344 10.488281 8.183594 C 10.488281 8.183594 10.535156 8.402344 10.5625 8.542969 C 10.433594 8.660156 7.222656 11.675781 7.222656 11.675781 L 4.378906 14.355469 C 4.113281 14.597656 3.769531 14.71875 3.40625 14.703125 C 3.046875 14.6875 2.71875 14.53125 2.476562 14.265625 C 2.242188 14.003906 2.132812 13.683594 2.132812 13.359375 C 2.132812 12.992188 2.277344 12.628906 2.566406 12.363281 C 2.566406 12.363281 2.78125 12.242188 2.945312 12.152344 C 2.980469 12.394531 3.078125 13.136719 3.078125 13.136719 L 5.398438 10.183594 L 2.84375 11.054688 C 2.171875 11.285156 1.890625 11.625 1.882812 11.640625 C 0.945312 12.492188 0.875 13.976562 1.738281 14.933594 C 2.609375 15.894531 4.09375 15.960938 5.054688 15.09375 L 5.082031 15.0625 L 7.773438 12.496094 C 7.773438 12.496094 11.101562 9.351562 11.207031 9.246094 C 11.367188 9.289062 11.683594 9.367188 11.683594 9.367188 C 12.335938 9.367188 12.867188 8.832031 12.867188 8.175781 C 12.867188 8.175781 12.835938 8.003906 12.8125 7.878906 C 16.8125 4.589844 20.3125 3.027344 23.816406 2.988281 C 24.535156 2.980469 25.113281 3.074219 26.054688 3.277344 L 26.253906 3.316406 L 26.253906 2.382812 L 26.125 2.355469 C 25.144531 2.152344 24.503906 2.078125 23.761719 2.089844 Z M 23.761719 2.089844 "/>
</svg>
