<?xml version="1.0" encoding="UTF-8"?>
<svg xmlns="http://www.w3.org/2000/svg" xmlns:xlink="http://www.w3.org/1999/xlink" width="28" height="28" viewBox="0 0 28 28">
<path fill-rule="nonzero" fill="rgb(6.666667%, 6.666667%, 6.666667%)" fill-opacity="1" stroke-width="3.408" stroke-linecap="butt" stroke-linejoin="miter" stroke="rgb(93.333333%, 93.333333%, 93.333333%)" stroke-opacity="1" stroke-miterlimit="4" d="M 66.269531 1.780134 C 24.921875 1.780134 1.699219 23.141741 1.699219 66.835938 L 1.699219 516.967076 C 1.699219 557.748326 22.575335 579.190848 63.922991 579.190848 L 515.915179 579.190848 C 557.262835 579.190848 578.138951 558.881138 578.138951 516.967076 L 578.138951 66.835938 C 578.138951 24.193638 557.262835 1.780134 514.620536 1.780134 C 514.620536 1.780134 66.107701 1.618304 66.269531 1.780134 Z M 66.269531 1.780134 " transform="matrix(0.0482759, 0, 0, 0.0482759, 0, 0)"/>
<path fill-rule="nonzero" fill="rgb(100%, 100%, 100%)" fill-opacity="1" d="M 3.71875 17.328125 L 21.152344 17.328125 L 21.152344 20.414062 L 3.71875 20.414062 Z M 3.71875 17.328125 "/>
<path fill-rule="nonzero" fill="rgb(100%, 100%, 100%)" fill-opacity="1" d="M 21.976562 17.339844 L 22.855469 17.339844 L 22.855469 20.414062 L 21.976562 20.414062 Z M 21.976562 17.339844 "/>
<path fill-rule="nonzero" fill="rgb(100%, 100%, 100%)" fill-opacity="1" d="M 23.621094 17.339844 L 24.5 17.339844 L 24.5 20.414062 L 23.621094 20.414062 Z M 23.621094 17.339844 "/>
<path fill-rule="nonzero" fill="rgb(100%, 100%, 100%)" fill-opacity="1" d="M 17.527344 13.285156 C 16.199219 13.285156 15.121094 12.210938 15.121094 10.882812 C 15.121094 10.628906 15.160156 10.390625 15.230469 10.160156 C 13.585938 10.132812 12.265625 8.785156 12.265625 7.136719 C 12.265625 5.472656 13.597656 4.128906 15.253906 4.105469 L 15.253906 4.980469 C 14.078125 4.996094 13.132812 5.953125 13.132812 7.136719 C 13.132812 8.320312 14.101562 9.292969 15.289062 9.292969 C 15.441406 9.292969 15.582031 9.273438 15.71875 9.246094 C 15.757812 9.234375 15.800781 9.226562 15.84375 9.226562 C 16.125 9.226562 16.351562 9.457031 16.351562 9.738281 C 16.351562 9.84375 16.316406 9.9375 16.265625 10.023438 C 16.101562 10.273438 16 10.5625 16 10.882812 C 16 11.722656 16.683594 12.410156 17.527344 12.410156 L 20.6875 12.410156 C 21.886719 12.410156 22.851562 13.378906 22.851562 14.574219 L 22.855469 16.296875 L 21.976562 16.296875 L 21.976562 14.574219 C 21.976562 13.863281 21.398438 13.289062 20.6875 13.289062 L 17.527344 13.289062 Z M 17.527344 13.285156 "/>
<path fill-rule="nonzero" fill="rgb(100%, 100%, 100%)" fill-opacity="1" d="M 18.226562 9.941406 C 18.550781 9.523438 18.742188 9 18.742188 8.429688 C 18.742188 7.054688 17.628906 5.941406 16.253906 5.941406 L 16.058594 5.941406 L 16.058594 5.058594 L 16.253906 5.058594 C 18.109375 5.058594 19.625 6.570312 19.625 8.429688 C 19.625 8.929688 19.511719 9.40625 19.316406 9.832031 L 19.933594 9.824219 C 22.460938 9.824219 24.503906 11.875 24.503906 14.394531 L 24.503906 16.296875 L 23.625 16.296875 L 23.625 14.394531 C 23.625 12.355469 21.972656 10.703125 19.933594 10.703125 L 18.644531 10.703125 C 18.375 10.703125 18.152344 10.480469 18.152344 10.207031 C 18.152344 10.105469 18.183594 10.023438 18.226562 9.941406 Z M 18.226562 9.941406 "/>
</svg>
