<?xml version="1.0" encoding="UTF-8"?>
<svg xmlns="http://www.w3.org/2000/svg" xmlns:xlink="http://www.w3.org/1999/xlink" width="28" height="28" viewBox="0 0 28 28">
<path fill-rule="nonzero" fill="rgb(6.666667%, 6.666667%, 6.666667%)" fill-opacity="1" stroke-width="3.408" stroke-linecap="butt" stroke-linejoin="miter" stroke="rgb(93.333333%, 93.333333%, 93.333333%)" stroke-opacity="1" stroke-miterlimit="4" d="M 66.269531 1.780134 C 24.921875 1.780134 1.699219 23.141741 1.699219 66.835938 L 1.699219 516.967076 C 1.699219 557.748326 22.575335 579.190848 63.922991 579.190848 L 515.915179 579.190848 C 557.262835 579.190848 578.138951 558.881138 578.138951 516.967076 L 578.138951 66.835938 C 578.138951 24.193638 557.262835 1.780134 514.620536 1.780134 C 514.620536 1.780134 66.107701 1.618304 66.269531 1.780134 Z M 66.269531 1.780134 " transform="matrix(0.0482759, 0, 0, 0.0482759, 0, 0)"/>
<path fill-rule="evenodd" fill="rgb(100%, 100%, 100%)" fill-opacity="1" stroke-width="9.139182" stroke-linecap="round" stroke-linejoin="round" stroke="rgb(100%, 100%, 100%)" stroke-opacity="1" stroke-miterlimit="4" d="M 215.072545 206.738281 L 309.338728 185.61942 C 352.466518 178.984375 374.718192 187.96596 389.202009 202.692522 C 446.004464 189.017857 468.984375 208.518415 487.999442 231.821987 L 475.61942 248.328683 C 460.407366 227.128906 435.080915 207.142857 396.079799 215.234375 C 401.015625 240.884487 416.875 261.598772 438.641183 279.157366 C 452.396763 312.49442 466.637835 361.529018 489.779576 389.52567 L 475.457589 411.615513 C 459.760045 374.718192 437.103795 320.909598 404.737723 299.952567 C 379.815848 292.912946 356.755022 286.520647 338.953683 266.130022 L 327.059152 262.246094 C 297.929688 289.271763 253.264509 298.657924 212.402344 299.305246 C 184.729353 328.515625 161.425781 369.539621 122.586496 418.655134 L 95.641741 406.598772 C 127.926897 381.595982 152.525112 326.654576 180.036272 291.213728 C 178.90346 247.114955 153.415179 208.59933 136.018415 196.623884 C 118.621652 184.567522 97.745536 209.651228 77.759487 212.726004 C 66.269531 214.506138 57.611607 197.918527 64.246652 189.665179 C 71.205357 180.926339 97.583705 150.664062 120.806362 138.364955 L 129.787946 115.304129 L 135.209263 137.393973 C 162.96317 155.438058 191.849888 168.303571 215.072545 206.738281 Z M 215.072545 206.738281 " transform="matrix(0.0482759, 0, 0, 0.0482759, 0, 0)"/>
<path fill="none" stroke-width="30.000002" stroke-linecap="round" stroke-linejoin="miter" stroke="rgb(100%, 100%, 100%)" stroke-opacity="1" stroke-miterlimit="4" d="M 535.658482 383.699777 C 467.204241 427.232143 385.884487 452.477679 298.738839 452.477679 C 208.113839 452.477679 123.881138 425.209263 53.808594 378.521205 " transform="matrix(0.0482759, 0, 0, 0.0482759, 0, 0)"/>
</svg>
