<?xml version="1.0" encoding="UTF-8"?>
<svg xmlns="http://www.w3.org/2000/svg" xmlns:xlink="http://www.w3.org/1999/xlink" width="28" height="28" viewBox="0 0 28 28">
<defs>
<filter id="filter-remove-color" x="0%" y="0%" width="100%" height="100%">
<feColorMatrix color-interpolation-filters="sRGB" values="0 0 0 0 1 0 0 0 0 1 0 0 0 0 1 0 0 0 1 0" />
</filter>
<mask id="mask-0">
<g filter="url(#filter-remove-color)">
<rect x="-2.8" y="-2.8" width="33.6" height="33.6" fill="rgb(0%, 0%, 0%)" fill-opacity="0.75"/>
</g>
</mask>
<clipPath id="clip-0">
<rect x="0" y="0" width="28" height="28"/>
</clipPath>
<g id="source-7" clip-path="url(#clip-0)">
<path fill-rule="nonzero" fill="rgb(100%, 100%, 100%)" fill-opacity="1" d="M 16.757812 1.945312 C 16.242188 1.957031 15.921875 2.484375 16.011719 2.972656 C 16.011719 3.582031 16.011719 5.15625 16.011719 5.765625 C 16.617188 5.761719 17.222656 5.753906 17.824219 5.746094 C 17.835938 5.039062 17.804688 4.324219 17.84375 3.621094 C 17.902344 3.347656 18.285156 3.332031 18.421875 3.5625 C 20.078125 4.878906 21.71875 6.222656 23.367188 7.542969 C 23.609375 7.664062 23.910156 7.976562 23.691406 8.253906 C 21.964844 9.652344 20.238281 11.046875 18.515625 12.441406 C 18.347656 12.648438 18.007812 12.851562 17.78125 12.605469 C 17.6875 11.84375 17.75 11.070312 17.738281 10.304688 C 17.164062 10.304688 16.585938 10.304688 16.011719 10.304688 C 16.015625 15.609375 16 19.949219 16.019531 25.25 C 16.082031 25.726562 16.585938 25.996094 17.039062 25.917969 C 19.828125 25.90625 22.621094 25.933594 25.410156 25.902344 C 25.871094 25.824219 26.121094 25.332031 26.042969 24.886719 C 26.042969 17.476562 26.050781 10.0625 26.039062 2.648438 C 26.003906 2.152344 25.484375 1.859375 25.015625 1.945312 C 22.265625 1.945312 19.511719 1.941406 16.757812 1.945312 Z M 16.757812 1.945312 "/>
</g>
</defs>
<path fill-rule="nonzero" fill="rgb(6.666667%, 6.666667%, 6.666667%)" fill-opacity="1" stroke-width="3.408" stroke-linecap="butt" stroke-linejoin="miter" stroke="rgb(93.333333%, 93.333333%, 93.333333%)" stroke-opacity="1" stroke-miterlimit="4" d="M 66.269531 1.780134 C 24.921875 1.780134 1.699219 23.141741 1.699219 66.835938 L 1.699219 516.967076 C 1.699219 557.748326 22.575335 579.190848 63.922991 579.190848 L 515.915179 579.190848 C 557.262835 579.190848 578.138951 558.800223 578.138951 516.967076 L 578.138951 66.835938 C 578.138951 24.193638 557.262835 1.780134 514.620536 1.780134 C 514.620536 1.780134 66.107701 1.618304 66.269531 1.780134 Z M 66.269531 1.780134 " transform="matrix(0.0482759, 0, 0, 0.0482759, 0, 0)"/>
<g mask="url(#mask-0)">
<use xlink:href="#source-7"/>
</g>
<path fill-rule="nonzero" fill="rgb(100%, 100%, 100%)" fill-opacity="1" stroke-width="10" stroke-linecap="round" stroke-linejoin="round" stroke="rgb(100%, 100%, 100%)" stroke-opacity="1" stroke-miterlimit="4" d="M 389.202009 136.746652 C 387.260045 141.196987 377.388393 137.717634 372.290737 138.931362 C 342.594866 139.255022 312.898996 139.578683 283.28404 139.821429 C 283.28404 157.703683 283.28404 175.585938 283.28404 193.468192 C 317.996652 193.468192 352.709263 193.468192 387.34096 193.468192 C 387.34096 205.281808 387.34096 217.095424 387.34096 228.90904 C 413.152902 208.032924 438.883929 187.156808 464.695871 166.280692 C 439.53125 146.051897 414.366629 125.823103 389.202009 105.513393 C 389.202009 115.951451 389.202009 126.389509 389.202009 136.746652 Z M 389.202009 136.746652 " transform="matrix(0.0482759, 0, 0, 0.0482759, 0, 0)"/>
<path fill-rule="nonzero" fill="rgb(100%, 100%, 100%)" fill-opacity="1" stroke-width="10" stroke-linecap="round" stroke-linejoin="round" stroke="rgb(100%, 100%, 100%)" stroke-opacity="1" stroke-miterlimit="4" d="M 181.816406 392.600446 C 152.606027 416.227679 123.314732 439.773996 94.104353 463.320312 C 125.013951 488.404018 155.923549 513.487723 186.914062 538.490513 C 186.914062 524.492188 186.914062 510.493862 186.914062 496.495536 C 221.626674 496.495536 256.339286 496.495536 290.970982 496.495536 C 290.970982 474.648438 290.970982 452.801339 290.970982 430.954241 C 255.691964 430.549665 220.412946 430.226004 185.053013 429.902344 C 185.053013 416.551339 185.053013 403.28125 185.053013 390.011161 C 184.001116 390.901228 182.868304 391.710379 181.816406 392.600446 Z M 181.816406 392.600446 " transform="matrix(0.0482759, 0, 0, 0.0482759, 0, 0)"/>
<path fill-rule="nonzero" fill="rgb(100%, 100%, 100%)" fill-opacity="1" d="M 6.949219 2.511719 C 3.917969 2.585938 1.480469 5.070312 1.480469 8.121094 C 1.480469 11.21875 3.996094 13.730469 7.09375 13.730469 C 10.191406 13.730469 12.707031 11.21875 12.707031 8.121094 C 12.707031 5.023438 10.191406 2.511719 7.09375 2.511719 C 7.046875 2.511719 6.996094 2.507812 6.949219 2.511719 Z M 7.007812 3.96875 C 7.578125 3.96875 8.027344 4.03125 8.359375 4.160156 C 8.691406 4.285156 8.972656 4.5 9.203125 4.792969 C 9.433594 5.089844 9.589844 5.449219 9.675781 5.871094 L 7.78125 6.167969 C 7.6875 5.8125 7.574219 5.578125 7.449219 5.464844 C 7.328125 5.347656 7.1875 5.289062 7.027344 5.289062 C 6.835938 5.289062 6.679688 5.351562 6.558594 5.476562 C 6.441406 5.601562 6.378906 5.78125 6.378906 6.011719 C 6.378906 6.136719 6.394531 6.253906 6.414062 6.367188 C 6.4375 6.480469 6.519531 6.753906 6.65625 7.175781 L 8.160156 7.175781 L 8.160156 8.363281 L 6.828125 8.363281 C 6.8125 8.644531 6.761719 8.898438 6.675781 9.121094 C 6.605469 9.292969 6.488281 9.472656 6.328125 9.660156 C 6.511719 9.617188 6.671875 9.59375 6.804688 9.59375 C 6.972656 9.59375 7.191406 9.628906 7.464844 9.695312 C 7.835938 9.78125 8.132812 9.820312 8.351562 9.820312 C 8.535156 9.820312 8.691406 9.808594 8.824219 9.773438 C 8.960938 9.742188 9.136719 9.679688 9.355469 9.578125 L 10.03125 11.058594 C 9.703125 11.222656 9.417969 11.339844 9.167969 11.402344 C 8.917969 11.464844 8.652344 11.496094 8.367188 11.496094 C 8.054688 11.496094 7.703125 11.441406 7.300781 11.332031 C 6.773438 11.183594 6.445312 11.101562 6.320312 11.078125 C 6.195312 11.054688 6.0625 11.042969 5.914062 11.042969 C 5.488281 11.042969 5.015625 11.191406 4.5 11.496094 L 3.859375 10.085938 C 4.554688 9.585938 4.902344 9.085938 4.902344 8.585938 C 4.902344 8.558594 4.898438 8.484375 4.890625 8.363281 L 3.859375 8.363281 L 3.859375 7.175781 L 4.601562 7.175781 C 4.472656 6.738281 4.402344 6.484375 4.386719 6.417969 C 4.367188 6.3125 4.355469 6.179688 4.355469 6.023438 C 4.355469 5.609375 4.464844 5.238281 4.6875 4.910156 C 4.90625 4.578125 5.195312 4.339844 5.554688 4.191406 C 5.914062 4.042969 6.398438 3.96875 7.007812 3.96875 Z M 7.007812 3.96875 "/>
</svg>
