<?xml version="1.0" encoding="UTF-8"?>
<svg xmlns="http://www.w3.org/2000/svg" xmlns:xlink="http://www.w3.org/1999/xlink" width="28" height="28" viewBox="0 0 28 28">
<defs>
<filter id="filter-remove-color" x="0%" y="0%" width="100%" height="100%">
<feColorMatrix color-interpolation-filters="sRGB" values="0 0 0 0 1 0 0 0 0 1 0 0 0 0 1 0 0 0 1 0" />
</filter>
<mask id="mask-0">
<g filter="url(#filter-remove-color)">
<rect x="-2.8" y="-2.8" width="33.6" height="33.6" fill="rgb(0%, 0%, 0%)" fill-opacity="0.331731"/>
</g>
</mask>
<clipPath id="clip-0">
<rect x="0" y="0" width="28" height="28"/>
</clipPath>
<g id="source-8" clip-path="url(#clip-0)">
<path fill-rule="nonzero" fill="rgb(100%, 100%, 100%)" fill-opacity="1" d="M 15.082031 9.609375 C 14.992188 9.667969 14.902344 9.71875 14.808594 9.765625 C 14.046875 10.105469 13.058594 9.933594 12.304688 10.25 C 11.539062 10.566406 11.027344 11.355469 10.316406 11.664062 C 9.640625 11.945312 8.84375 11.75 8.175781 12.019531 L 9.921875 15.652344 L 16.46875 12.5 Z M 15.082031 9.609375 "/>
</g>
<mask id="mask-1">
<g filter="url(#filter-remove-color)">
<rect x="-2.8" y="-2.8" width="33.6" height="33.6" fill="rgb(0%, 0%, 0%)" fill-opacity="0.331731"/>
</g>
</mask>
<clipPath id="clip-1">
<rect x="0" y="0" width="28" height="28"/>
</clipPath>
<g id="source-12" clip-path="url(#clip-1)">
<path fill-rule="nonzero" fill="rgb(100%, 100%, 100%)" fill-opacity="1" d="M 10.21875 16.269531 L 16.769531 13.121094 L 19.789062 19.398438 L 13.242188 22.546875 Z M 10.21875 16.269531 "/>
</g>
<mask id="mask-2">
<g filter="url(#filter-remove-color)">
<rect x="-2.8" y="-2.8" width="33.6" height="33.6" fill="rgb(0%, 0%, 0%)" fill-opacity="0.331731"/>
</g>
</mask>
<clipPath id="clip-2">
<rect x="0" y="0" width="28" height="28"/>
</clipPath>
<g id="source-16" clip-path="url(#clip-2)">
<path fill-rule="nonzero" fill="rgb(100%, 100%, 100%)" fill-opacity="1" d="M 20.085938 20.015625 L 13.539062 23.167969 L 14.996094 26.199219 C 15.613281 26.039062 16.308594 26.167969 16.910156 25.917969 C 17.621094 25.609375 18.132812 24.820312 18.898438 24.503906 C 19.652344 24.183594 20.640625 24.359375 21.402344 24.015625 C 21.570312 23.9375 21.722656 23.835938 21.867188 23.71875 Z M 20.085938 20.015625 "/>
</g>
</defs>
<path fill-rule="nonzero" fill="rgb(6.666667%, 6.666667%, 6.666667%)" fill-opacity="1" stroke-width="3.408" stroke-linecap="butt" stroke-linejoin="miter" stroke="rgb(93.333333%, 93.333333%, 93.333333%)" stroke-opacity="1" stroke-miterlimit="4" d="M 66.269531 1.780134 C 24.921875 1.780134 1.699219 23.141741 1.699219 66.835938 L 1.699219 516.967076 C 1.699219 557.748326 22.575335 579.190848 63.922991 579.190848 L 515.915179 579.190848 C 557.262835 579.190848 578.138951 558.800223 578.138951 516.967076 L 578.138951 66.835938 C 578.138951 24.193638 557.262835 1.780134 514.620536 1.780134 C 514.620536 1.780134 66.107701 1.618304 66.269531 1.780134 Z M 66.269531 1.780134 " transform="matrix(0.0482759, 0, 0, 0.0482759, 0, 0)"/>
<path fill-rule="nonzero" fill="rgb(100%, 100%, 100%)" fill-opacity="1" d="M 16.425781 8.433594 C 16.292969 8.527344 16.167969 8.632812 16.046875 8.746094 L 16.484375 9.664062 L 15.78125 10.003906 L 15.453125 9.3125 C 15.332031 9.421875 15.210938 9.523438 15.082031 9.609375 L 16.46875 12.5 L 9.921875 15.652344 L 8.175781 12.019531 C 8.144531 12.03125 8.117188 12.046875 8.085938 12.0625 C 7.792969 12.203125 7.527344 12.445312 7.265625 12.703125 L 7.835938 12.429688 L 8.382812 13.5625 L 7.679688 13.902344 L 7.15625 12.8125 C 7.0625 12.90625 6.96875 13.003906 6.875 13.09375 L 13.648438 27.167969 C 13.789062 27.027344 13.929688 26.882812 14.074219 26.75 L 13.902344 26.835938 L 13.355469 25.699219 L 14.058594 25.359375 L 14.550781 26.382812 C 14.59375 26.359375 14.636719 26.335938 14.679688 26.3125 C 14.78125 26.265625 14.890625 26.226562 14.996094 26.199219 L 13.539062 23.167969 L 20.085938 20.015625 L 21.867188 23.71875 C 22.320312 23.351562 22.707031 22.851562 23.222656 22.554688 Z M 17.183594 11.117188 L 17.730469 12.25 L 17.027344 12.589844 L 16.480469 11.453125 Z M 16.769531 13.121094 L 19.789062 19.398438 L 13.242188 22.546875 L 10.21875 16.269531 Z M 18.429688 13.703125 L 18.976562 14.835938 L 18.269531 15.175781 L 17.726562 14.039062 Z M 9.082031 15.015625 L 9.625 16.148438 L 8.925781 16.488281 L 8.375 15.355469 Z M 19.671875 16.289062 L 20.21875 17.421875 L 19.515625 17.761719 L 18.96875 16.625 Z M 10.324219 17.601562 L 10.871094 18.738281 L 10.167969 19.074219 L 9.621094 17.9375 Z M 20.917969 18.875 L 21.464844 20.007812 L 20.761719 20.347656 L 20.214844 19.214844 Z M 11.570312 20.1875 L 12.117188 21.324219 L 11.414062 21.660156 L 10.867188 20.523438 Z M 22.160156 21.460938 L 22.707031 22.597656 L 22.003906 22.933594 L 21.457031 21.800781 Z M 12.8125 22.773438 L 13.359375 23.910156 L 12.65625 24.25 L 12.109375 23.109375 Z M 12.8125 22.773438 "/>
<g mask="url(#mask-0)">
<use xlink:href="#source-8"/>
</g>
<g mask="url(#mask-1)">
<use xlink:href="#source-12"/>
</g>
<g mask="url(#mask-2)">
<use xlink:href="#source-16"/>
</g>
<path fill-rule="nonzero" fill="rgb(100%, 100%, 100%)" fill-opacity="1" stroke-width="10.000001" stroke-linecap="round" stroke-linejoin="round" stroke="rgb(100%, 100%, 100%)" stroke-opacity="1" stroke-miterlimit="4" d="M 100.274707 5.756775 C 60.361272 5.477171 26.808822 47.068229 35.336736 86.072952 C 40.928811 118.71669 72.524035 145.55865 106.146386 142.273306 C 128.654488 140.875287 149.69467 127.524208 160.948721 108.161649 C 171.224159 100.123041 186.532464 110.817884 196.598199 102.150168 C 203.518392 95.020272 209.250269 85.513745 218.966499 82.298302 C 226.795404 84.465231 230.290451 92.923244 236.721337 96.837697 C 243.152224 92.713541 246.926874 82.857509 255.734392 82.92741 C 262.025477 86.702061 265.939929 93.34265 271.881509 97.257102 C 278.591999 92.923244 282.576352 82.717707 291.663474 82.717707 C 298.094361 86.282655 301.589407 93.762055 308.229997 96.627994 C 317.526821 88.309782 326.963448 79.642066 334.722452 69.716133 C 334.722452 64.124058 327.10325 60.978516 324.027608 56.365054 C 317.806425 50.84288 312.493954 40.567442 302.568021 42.734371 C 289.216942 43.782885 275.586259 42.384866 262.095378 42.944074 C 229.381739 42.944074 196.388496 43.712984 163.884561 42.105263 C 154.937241 34.48606 150.183977 22.533 139.279431 17.080727 C 127.885578 9.461525 114.045192 5.337369 100.274707 5.756775 Z M 73.083243 50.563276 C 92.655505 50.073969 104.259061 77.754741 90.06917 91.245622 C 78.605417 103.897691 54.070188 99.843437 49.247023 82.857509 C 43.864651 67.689006 56.307018 48.885654 73.083243 50.563276 Z M 73.083243 50.563276 " transform="matrix(0.0558827, 0, 0, 0.0558827, 3.212789, 1.264234)"/>
</svg>
