<?xml version="1.0" encoding="UTF-8"?>
<svg xmlns="http://www.w3.org/2000/svg" xmlns:xlink="http://www.w3.org/1999/xlink" width="24" height="24" viewBox="0 0 24 24">
<path fill-rule="nonzero" fill="rgb(0%, 0%, 0%)" fill-opacity="1" d="M 18.488281 3.199219 C 15.058594 3.199219 10.453125 5.554688 7.363281 9.601562 L 4.800781 9.601562 C 2.949219 9.601562 1.886719 10.980469 1.15625 12.445312 L 0.179688 14.398438 L 4.800781 14.398438 L 7.199219 16.800781 L 9.601562 19.199219 L 9.601562 23.820312 L 11.554688 22.84375 C 13.019531 22.113281 14.398438 21.050781 14.398438 19.199219 L 14.398438 16.636719 C 18.445312 13.546875 20.800781 8.941406 20.800781 5.511719 L 20.800781 3.199219 Z M 14.398438 8 C 15.285156 8 16 8.714844 16 9.601562 C 16 10.484375 15.285156 11.199219 14.398438 11.199219 C 13.515625 11.199219 12.800781 10.484375 12.800781 9.601562 C 12.800781 8.714844 13.515625 8 14.398438 8 Z M 4 17.601562 L 3.199219 18.398438 C 2.042969 19.554688 1.601562 22.398438 1.601562 22.398438 C 1.601562 22.398438 4.316406 22.082031 5.601562 20.800781 L 6.398438 20 Z M 4 17.601562 "/>
</svg>
