<?xml version="1.0" encoding="UTF-8"?>
<svg xmlns="http://www.w3.org/2000/svg" xmlns:xlink="http://www.w3.org/1999/xlink" width="24" height="24" viewBox="0 0 24 24">
<path fill-rule="nonzero" fill="rgb(0%, 0%, 0%)" fill-opacity="1" d="M 18.96875 10.292969 L 18.304688 9.84375 C 19.078125 8.703125 19.527344 7.378906 19.609375 6.003906 C 19.6875 4.628906 19.394531 3.257812 18.757812 2.039062 L 18.621094 1.792969 L 19.320312 1.398438 L 19.464844 1.667969 C 20.167969 3.015625 20.496094 4.53125 20.40625 6.050781 C 20.320312 7.566406 19.820312 9.035156 18.96875 10.292969 Z M 20.8125 21.703125 L 20.8125 22.398438 L 3.210938 22.398438 L 3.210938 21.703125 L 7.191406 21.703125 L 9.671875 10.238281 C 9.707031 10.0625 9.808594 9.902344 9.949219 9.785156 C 10.09375 9.671875 10.269531 9.609375 10.453125 9.609375 L 11.613281 9.609375 L 11.613281 7.363281 C 11.214844 7.269531 10.859375 7.046875 10.601562 6.726562 C 10.34375 6.40625 10.203125 6.007812 10.199219 5.601562 C 10.199219 5.355469 10.25 5.117188 10.34375 4.890625 C 10.433594 4.667969 10.570312 4.464844 10.742188 4.292969 C 10.914062 4.121094 11.117188 3.984375 11.34375 3.890625 C 11.566406 3.796875 11.808594 3.75 12.050781 3.75 C 12.292969 3.75 12.535156 3.796875 12.761719 3.890625 C 12.984375 3.984375 13.1875 4.121094 13.359375 4.292969 C 13.53125 4.464844 13.667969 4.667969 13.761719 4.890625 C 13.855469 5.117188 13.902344 5.355469 13.902344 5.601562 C 13.898438 6.023438 13.75 6.433594 13.476562 6.757812 C 13.207031 7.082031 12.828125 7.300781 12.414062 7.378906 L 12.414062 9.609375 L 13.570312 9.609375 C 13.75 9.609375 13.929688 9.671875 14.070312 9.785156 C 14.214844 9.902344 14.3125 10.0625 14.351562 10.238281 L 16.828125 21.703125 Z M 13.527344 14 L 10.492188 14 L 9.976562 16.390625 L 14.042969 16.390625 Z M 9.804688 17.191406 L 9.289062 19.582031 L 14.734375 19.582031 L 14.214844 17.191406 Z M 11.097656 11.210938 L 10.667969 13.203125 L 13.355469 13.203125 L 12.921875 11.210938 Z M 8.828125 21.703125 L 15.191406 21.703125 L 14.90625 20.382812 L 9.113281 20.382812 Z M 8.335938 8.023438 C 7.859375 7.296875 7.605469 6.445312 7.609375 5.578125 C 7.613281 4.707031 7.875 3.859375 8.363281 3.140625 L 7.699219 2.691406 C 7.125 3.542969 6.816406 4.546875 6.808594 5.574219 C 6.804688 6.601562 7.101562 7.605469 7.667969 8.460938 Z M 17.210938 5.601562 C 17.210938 4.585938 16.914062 3.589844 16.355469 2.742188 L 15.6875 3.183594 C 16.164062 3.910156 16.414062 4.757812 16.410156 5.625 C 16.40625 6.492188 16.144531 7.339844 15.660156 8.0625 L 16.320312 8.507812 C 16.902344 7.648438 17.210938 6.636719 17.210938 5.601562 Z M 5.65625 9.789062 C 4.878906 8.613281 4.445312 7.242188 4.402344 5.832031 C 4.359375 4.425781 4.707031 3.03125 5.410156 1.808594 L 4.714844 1.40625 C 3.941406 2.757812 3.554688 4.300781 3.605469 5.855469 C 3.652344 7.414062 4.128906 8.929688 4.988281 10.230469 Z M 5.65625 9.789062 "/>
</svg>
