<?xml version="1.0" encoding="UTF-8"?>
<svg xmlns="http://www.w3.org/2000/svg" xmlns:xlink="http://www.w3.org/1999/xlink" width="24" height="24" viewBox="0 0 24 24">
<path fill-rule="nonzero" fill="rgb(0%, 0%, 0%)" fill-opacity="1" d="M 12 4 C 7.632812 4 4 7.53125 4 12 C 4 16.46875 7.632812 20 12 20 C 16.367188 20 20 16.46875 20 12 C 20 7.53125 16.367188 4 12 4 Z M 12 5.207031 C 15.875 5.207031 18.921875 8.300781 18.921875 12 C 18.921875 15.699219 15.875 18.792969 12 18.792969 C 8.125 18.792969 5.078125 15.699219 5.078125 12 C 5.078125 8.300781 8.125 5.207031 12 5.207031 Z M 9.703125 6.3125 L 9.703125 9.722656 L 6.261719 9.722656 L 6.261719 14.277344 L 9.703125 14.277344 L 9.703125 17.6875 L 14.296875 17.6875 L 14.296875 14.277344 L 17.738281 14.277344 L 17.738281 9.722656 L 14.296875 9.722656 L 14.296875 6.3125 Z M 9.703125 6.3125 "/>
</svg>
