<?xml version="1.0" encoding="UTF-8"?>
<svg xmlns="http://www.w3.org/2000/svg" xmlns:xlink="http://www.w3.org/1999/xlink" width="24" height="24" viewBox="0 0 24 24">
<path fill-rule="nonzero" fill="rgb(0%, 0%, 0%)" fill-opacity="1" d="M 11.199219 1.601562 C 10.238281 1.601562 9.601562 2.238281 9.601562 3.199219 L 9.601562 9.601562 L 3.199219 9.601562 C 2.238281 9.601562 1.601562 10.238281 1.601562 11.199219 L 1.601562 12.800781 C 1.601562 13.761719 2.238281 14.398438 3.199219 14.398438 L 9.601562 14.398438 L 9.601562 20.800781 C 9.601562 21.761719 10.238281 22.398438 11.199219 22.398438 L 12.800781 22.398438 C 13.761719 22.398438 14.398438 21.761719 14.398438 20.800781 L 14.398438 14.398438 L 20.800781 14.398438 C 21.761719 14.398438 22.398438 13.761719 22.398438 12.800781 L 22.398438 11.199219 C 22.398438 10.238281 21.761719 9.601562 20.800781 9.601562 L 14.398438 9.601562 L 14.398438 3.199219 C 14.398438 2.238281 13.761719 1.601562 12.800781 1.601562 Z M 11.199219 1.601562 "/>
</svg>
