<?xml version="1.0" encoding="UTF-8"?>
<svg xmlns="http://www.w3.org/2000/svg" xmlns:xlink="http://www.w3.org/1999/xlink" width="24" height="24" viewBox="0 0 24 24">
<path fill-rule="nonzero" fill="rgb(0%, 0%, 0%)" fill-opacity="1" d="M 20.800781 6.398438 L 14.398438 6.398438 L 14.398438 1.601562 L 12 0 L 9.601562 1.601562 L 9.601562 6.398438 L 3.199219 6.398438 L 1.601562 8 L 1.601562 9.601562 L 22.398438 9.601562 L 22.398438 8 Z M 12 2.398438 C 12.640625 2.398438 13.121094 2.878906 13.121094 3.679688 C 13.121094 4.480469 12.640625 4.800781 12 4.800781 C 11.359375 4.800781 10.71875 4.320312 10.71875 3.519531 C 10.71875 2.878906 11.359375 2.398438 12 2.398438 Z M 20.800781 11.199219 L 3.199219 11.199219 L 3.199219 17.601562 L 1.601562 20 L 1.601562 22.398438 L 22.398438 22.398438 L 22.398438 20 L 20.800781 17.601562 Z M 8 20 L 6.398438 20 L 6.398438 12.800781 L 8 12.800781 Z M 12.800781 20 L 11.199219 20 L 11.199219 12.800781 L 12.800781 12.800781 Z M 17.601562 20 L 16 20 L 16 12.800781 L 17.601562 12.800781 Z M 17.601562 20 "/>
</svg>
