<?xml version="1.0" encoding="UTF-8"?>
<svg xmlns="http://www.w3.org/2000/svg" xmlns:xlink="http://www.w3.org/1999/xlink" width="24" height="24" viewBox="0 0 24 24">
<path fill-rule="nonzero" fill="rgb(0%, 0%, 0%)" fill-opacity="1" d="M 20.800781 3.199219 L 3.199219 3.199219 C 2.777344 3.199219 2.367188 3.367188 2.070312 3.667969 C 1.769531 3.96875 1.601562 4.375 1.601562 4.800781 L 1.601562 14.398438 C 1.601562 14.824219 1.769531 15.230469 2.070312 15.53125 C 2.367188 15.832031 2.777344 16 3.199219 16 L 4.800781 16 L 4.800781 20 C 4.800781 20.210938 4.882812 20.414062 5.035156 20.566406 C 5.183594 20.714844 5.386719 20.800781 5.601562 20.800781 C 5.8125 20.800781 6.015625 20.714844 6.164062 20.566406 C 6.316406 20.414062 6.398438 20.210938 6.398438 20 L 6.398438 19.199219 L 17.601562 19.199219 L 17.601562 20 C 17.601562 20.210938 17.683594 20.414062 17.835938 20.566406 C 17.984375 20.714844 18.1875 20.800781 18.398438 20.800781 C 18.613281 20.800781 18.816406 20.714844 18.964844 20.566406 C 19.117188 20.414062 19.199219 20.210938 19.199219 20 L 19.199219 16 L 20.800781 16 C 21.222656 16 21.632812 15.832031 21.929688 15.53125 C 22.230469 15.230469 22.398438 14.824219 22.398438 14.398438 L 22.398438 4.800781 C 22.398438 4.375 22.230469 3.96875 21.929688 3.667969 C 21.632812 3.367188 21.222656 3.199219 20.800781 3.199219 Z M 20.800781 4.800781 L 20.800781 8 L 17.601562 4.800781 Z M 15.199219 4.800781 L 20.800781 10.398438 L 20.800781 14.398438 L 11.199219 4.800781 Z M 8.800781 14.398438 L 3.199219 8.800781 L 3.199219 4.800781 L 12.800781 14.398438 Z M 3.199219 14.398438 L 3.199219 11.199219 L 6.398438 14.398438 Z M 17.601562 17.601562 L 6.398438 17.601562 L 6.398438 16 L 17.601562 16 Z M 17.269531 14.398438 L 15.199219 14.398438 L 5.601562 4.800781 L 8.800781 4.800781 L 18.398438 14.398438 Z M 17.269531 14.398438 "/>
</svg>
