<?xml version="1.0" encoding="UTF-8"?>
<svg xmlns="http://www.w3.org/2000/svg" xmlns:xlink="http://www.w3.org/1999/xlink" width="24" height="24" viewBox="0 0 24 24">
<path fill-rule="nonzero" fill="rgb(0%, 0%, 0%)" fill-opacity="1" d="M 21.601562 17.601562 L 18.71875 17.601562 L 13.121094 0.800781 C 12.800781 -0.320312 11.199219 -0.320312 10.878906 0.800781 L 5.28125 17.601562 L 2.398438 17.601562 C 1.921875 17.601562 1.601562 17.921875 1.601562 18.398438 L 1.601562 20 C 1.601562 20.480469 1.921875 20.800781 2.398438 20.800781 L 21.601562 20.800781 C 22.078125 20.800781 22.398438 20.480469 22.398438 20 L 22.398438 18.398438 C 22.398438 17.921875 22.078125 17.601562 21.601562 17.601562 Z M 11.199219 4.800781 L 12.800781 4.800781 L 13.921875 8 L 10.238281 8 Z M 9.121094 11.199219 L 14.878906 11.199219 L 16 14.398438 L 8 14.398438 Z M 9.121094 11.199219 "/>
</svg>
