<?xml version="1.0" encoding="UTF-8"?>
<svg xmlns="http://www.w3.org/2000/svg" xmlns:xlink="http://www.w3.org/1999/xlink" width="24" height="24" viewBox="0 0 24 24">
<path fill-rule="nonzero" fill="rgb(0%, 0%, 0%)" fill-opacity="1" d="M 14.257812 4.566406 C 14.300781 4.605469 14.339844 4.648438 14.363281 4.703125 C 14.386719 4.753906 14.398438 4.8125 14.398438 4.871094 L 14.398438 10.800781 C 14.398438 10.90625 14.359375 11.007812 14.28125 11.082031 C 14.207031 11.15625 14.105469 11.199219 14 11.199219 L 10 11.199219 C 9.894531 11.199219 9.792969 11.15625 9.71875 11.082031 C 9.640625 11.007812 9.601562 10.90625 9.601562 10.800781 L 9.601562 8 L 8 8 L 8 10.800781 C 8 10.90625 7.957031 11.007812 7.882812 11.082031 C 7.808594 11.15625 7.707031 11.199219 7.601562 11.199219 L 3.601562 11.199219 C 3.492188 11.199219 3.390625 11.15625 3.316406 11.082031 C 3.242188 11.007812 3.199219 10.90625 3.199219 10.800781 L 3.199219 4.878906 C 3.199219 4.820312 3.210938 4.765625 3.238281 4.710938 C 3.261719 4.660156 3.296875 4.613281 3.34375 4.574219 L 8.546875 0.210938 C 8.621094 0.152344 8.707031 0.121094 8.800781 0.121094 C 8.894531 0.121094 8.980469 0.152344 9.054688 0.210938 Z M 12.402344 13.601562 C 12.324219 13.601562 12.246094 13.625 12.183594 13.667969 L 8 16.800781 L 6.398438 16.800781 L 6.398438 13.601562 C 6.398438 13.386719 6.316406 13.183594 6.164062 13.035156 C 6.015625 12.882812 5.8125 12.800781 5.601562 12.800781 C 5.386719 12.800781 5.183594 12.882812 5.035156 13.035156 C 4.882812 13.183594 4.800781 13.386719 4.800781 13.601562 L 4.800781 16.800781 L 3.199219 16.800781 L 3.199219 13.601562 C 3.199219 13.386719 3.117188 13.183594 2.964844 13.035156 C 2.816406 12.882812 2.613281 12.800781 2.398438 12.800781 C 2.1875 12.800781 1.984375 12.882812 1.835938 13.035156 C 1.683594 13.183594 1.601562 13.386719 1.601562 13.601562 L 1.601562 20.398438 C 1.601562 20.507812 1.640625 20.609375 1.71875 20.683594 C 1.792969 20.757812 1.894531 20.800781 2 20.800781 L 12.398438 20.800781 C 12.507812 20.800781 12.609375 20.757812 12.683594 20.683594 C 12.757812 20.609375 12.800781 20.507812 12.800781 20.398438 L 12.800781 14 C 12.800781 13.949219 12.789062 13.894531 12.769531 13.847656 C 12.75 13.796875 12.722656 13.753906 12.683594 13.71875 C 12.648438 13.679688 12.605469 13.652344 12.554688 13.628906 C 12.507812 13.609375 12.457031 13.601562 12.402344 13.601562 Z M 22.398438 8.390625 L 22.398438 18.792969 C 22.398438 18.898438 22.355469 19.003906 22.28125 19.078125 C 22.207031 19.152344 22.101562 19.195312 21.996094 19.195312 L 16.40625 19.195312 C 16.296875 19.195312 16.195312 19.15625 16.121094 19.078125 C 16.042969 19.003906 16 18.902344 16 18.796875 L 16 8.398438 C 16 8.347656 16.011719 8.296875 16.03125 8.246094 C 16.050781 8.199219 16.078125 8.152344 16.117188 8.117188 C 16.152344 8.078125 16.199219 8.050781 16.246094 8.03125 C 16.296875 8.011719 16.347656 8 16.398438 8 L 17.601562 8 L 17.601562 6.796875 C 17.601562 6.691406 17.640625 6.589844 17.714844 6.515625 C 17.792969 6.441406 17.894531 6.398438 18 6.398438 L 20.398438 6.398438 C 20.503906 6.402344 20.605469 6.445312 20.683594 6.519531 C 20.757812 6.59375 20.800781 6.699219 20.800781 6.804688 L 20.800781 8 L 22.007812 8 C 22.113281 8 22.210938 8.042969 22.285156 8.113281 C 22.359375 8.1875 22.398438 8.289062 22.398438 8.390625 Z M 20.800781 16 L 17.601562 16 L 17.601562 17.601562 L 20.800781 17.601562 Z M 20.800781 12.800781 L 17.601562 12.800781 L 17.601562 14.398438 L 20.800781 14.398438 Z M 20.800781 9.601562 L 17.601562 9.601562 L 17.601562 11.199219 L 20.800781 11.199219 Z M 20.800781 9.601562 "/>
</svg>
