<?xml version="1.0" encoding="UTF-8"?>
<svg xmlns="http://www.w3.org/2000/svg" xmlns:xlink="http://www.w3.org/1999/xlink" width="24" height="24" viewBox="0 0 24 24">
<path fill-rule="nonzero" fill="rgb(0%, 0%, 0%)" fill-opacity="1" d="M 12 4 C 11.714844 4.003906 11.429688 4.1875 11.429688 4.570312 L 11.429688 9.179688 C 8.464844 9.367188 7.429688 10.925781 7.429688 12 L 16.570312 12 C 16.570312 10.925781 15.535156 9.367188 12.570312 9.179688 L 12.570312 4.570312 C 12.570312 4.171875 12.285156 3.996094 12 4 Z M 13.144531 4 L 13.144531 7.429688 L 17.714844 7.429688 L 15.429688 5.714844 L 17.714844 4 Z M 5.144531 13.144531 L 5.144531 14.285156 L 6.285156 14.285156 L 6.285156 18.855469 L 5.144531 18.855469 L 4 20 L 20 20 L 18.855469 18.855469 L 17.714844 18.855469 L 17.714844 14.285156 L 18.855469 14.285156 L 18.855469 13.144531 Z M 8.570312 14.285156 L 9.714844 14.285156 L 9.714844 18.855469 L 8.570312 18.855469 Z M 10.855469 14.285156 L 13.144531 14.285156 L 13.144531 18.855469 L 10.855469 18.855469 Z M 14.285156 14.285156 L 15.429688 14.285156 L 15.429688 18.855469 L 14.285156 18.855469 Z M 14.285156 14.285156 "/>
</svg>
