<?xml version="1.0" encoding="UTF-8"?>
<svg xmlns="http://www.w3.org/2000/svg" xmlns:xlink="http://www.w3.org/1999/xlink" width="24" height="24" viewBox="0 0 24 24">
<path fill-rule="nonzero" fill="rgb(0%, 0%, 0%)" fill-opacity="1" d="M 6.285156 4 L 6.285156 8 C 6.285156 9.652344 7.1875 10.835938 8.464844 11.570312 L 7.429688 20 L 9.144531 20 L 9.355469 18.320312 L 12 16.570312 L 14.644531 18.355469 L 14.855469 20 L 16.570312 20 L 15.535156 11.605469 C 16.820312 10.871094 17.714844 9.671875 17.714844 8 L 17.714844 4 L 16 4 L 16 5.714844 L 15.429688 5.714844 C 14.140625 6.285156 13.144531 6.285156 12 5.714844 C 10.855469 5.144531 9.757812 5.144531 8.570312 5.714844 L 8 5.714844 L 8 4 Z M 10.105469 12.214844 C 11.328125 12.519531 12.671875 12.550781 13.894531 12.25 L 14.105469 14.035156 L 12 15.429688 L 9.894531 14.035156 Z M 9.75 15.070312 L 11.144531 16 L 9.5 17.105469 Z M 14.25 15.070312 L 14.5 17.105469 L 12.855469 16 Z M 14.25 15.070312 "/>
</svg>
