<?xml version="1.0" encoding="UTF-8"?>
<svg xmlns="http://www.w3.org/2000/svg" xmlns:xlink="http://www.w3.org/1999/xlink" width="24" height="24" viewBox="0 0 24 24">
<path fill-rule="nonzero" fill="rgb(0%, 0%, 0%)" fill-opacity="1" d="M 21.601562 8 C 21.476562 8 21.359375 7.972656 21.246094 7.921875 L 12 3.199219 L 2.753906 7.886719 C 2.339844 8.082031 1.851562 7.90625 1.65625 7.496094 C 1.460938 7.085938 1.636719 6.59375 2.046875 6.398438 L 12 1.472656 L 21.953125 6.398438 C 22.394531 6.496094 22.671875 6.933594 22.574219 7.375 C 22.480469 7.816406 22.042969 8.097656 21.601562 8 Z M 8 16 L 3.199219 16 L 3.199219 20.800781 L 8 20.800781 Z M 14.398438 16 L 9.601562 16 L 9.601562 20.800781 L 14.398438 20.800781 Z M 20.800781 16 L 16 16 L 16 20.800781 L 20.800781 20.800781 Z M 17.601562 9.601562 L 12.800781 9.601562 L 12.800781 14.398438 L 17.601562 14.398438 Z M 11.199219 9.601562 L 6.398438 9.601562 L 6.398438 14.398438 L 11.199219 14.398438 Z M 11.199219 9.601562 "/>
</svg>
