<?xml version="1.0" encoding="UTF-8"?>
<svg xmlns="http://www.w3.org/2000/svg" xmlns:xlink="http://www.w3.org/1999/xlink" width="24" height="24" viewBox="0 0 24 24">
<path fill-rule="nonzero" fill="rgb(0%, 0%, 0%)" fill-opacity="1" d="M 12.800781 9.601562 L 8 6.398438 L 3.199219 9.601562 L 1.601562 12.800781 L 1.601562 19.199219 L 4.800781 19.199219 L 4.800781 16 L 11.199219 16 L 11.199219 19.199219 L 14.398438 19.199219 L 14.398438 12.800781 Z M 9.601562 12.800781 L 6.398438 12.800781 L 6.398438 9.601562 L 9.601562 9.601562 Z M 22.398438 19.199219 L 17.601562 19.199219 L 17.601562 4 C 17.601562 3.363281 17.851562 2.753906 18.304688 2.304688 C 18.753906 1.851562 19.363281 1.601562 20 1.601562 C 20.636719 1.601562 21.246094 1.851562 21.695312 2.304688 C 22.148438 2.753906 22.398438 3.363281 22.398438 4 Z M 22.398438 19.199219 "/>
</svg>
