<?xml version="1.0" encoding="UTF-8"?>
<svg xmlns="http://www.w3.org/2000/svg" xmlns:xlink="http://www.w3.org/1999/xlink" width="24" height="24" viewBox="0 0 24 24">
<path fill-rule="nonzero" fill="rgb(0%, 0%, 0%)" fill-opacity="1" d="M 4.800781 3.199219 L 4.800781 20.800781 L 12.800781 20.800781 L 12.800781 16 L 17.601562 16 L 17.601562 20.800781 L 19.199219 20.800781 L 19.199219 3.199219 Z M 11.199219 19.199219 L 6.398438 19.199219 L 6.398438 16 L 11.199219 16 Z M 11.199219 14.398438 L 6.398438 14.398438 L 6.398438 11.199219 L 11.199219 11.199219 Z M 11.199219 9.601562 L 6.398438 9.601562 L 6.398438 6.398438 L 11.199219 6.398438 Z M 17.601562 14.398438 L 12.800781 14.398438 L 12.800781 11.199219 L 17.601562 11.199219 Z M 17.601562 9.601562 L 12.800781 9.601562 L 12.800781 6.398438 L 17.601562 6.398438 Z M 17.601562 9.601562 "/>
</svg>
