<?xml version="1.0" encoding="UTF-8"?>
<svg xmlns="http://www.w3.org/2000/svg" xmlns:xlink="http://www.w3.org/1999/xlink" width="24" height="24" viewBox="0 0 24 24">
<path fill-rule="nonzero" fill="rgb(0%, 0%, 0%)" fill-opacity="1" d="M 18.878906 20 L 18.878906 16 C 20 15.839844 20.800781 14.878906 20.800781 13.601562 C 20.800781 12.320312 19.679688 11.199219 18.398438 11.199219 C 17.121094 11.199219 16 12.320312 16 13.601562 C 16 14.71875 16.800781 15.839844 17.921875 16 L 17.921875 20 L 11.199219 20 L 11.199219 1.601562 L 3.199219 1.601562 L 3.199219 20 L 1.601562 20 L 1.601562 20.800781 L 22.398438 20.800781 L 22.398438 20 Z M 9.601562 16 L 4.800781 16 L 4.800781 14.398438 L 9.601562 14.398438 Z M 9.601562 12.800781 L 4.800781 12.800781 L 4.800781 11.199219 L 9.601562 11.199219 Z M 9.601562 9.601562 L 4.800781 9.601562 L 4.800781 8 L 9.601562 8 Z M 9.601562 6.398438 L 4.800781 6.398438 L 4.800781 4.800781 L 9.601562 4.800781 Z M 9.601562 6.398438 "/>
</svg>
