<?xml version="1.0" encoding="UTF-8"?>
<svg xmlns="http://www.w3.org/2000/svg" xmlns:xlink="http://www.w3.org/1999/xlink" width="24" height="24" viewBox="0 0 24 24">
<path fill-rule="nonzero" fill="rgb(0%, 0%, 0%)" fill-opacity="1" d="M 6.855469 4 L 6.855469 7.429688 L 17.144531 7.429688 L 17.144531 4 L 15.429688 4 L 15.429688 5.144531 L 13.144531 5.144531 L 13.144531 4 L 10.855469 4 L 10.855469 5.144531 L 8.570312 5.144531 L 8.570312 4 Z M 7.429688 8.570312 L 6.855469 18.855469 L 5.144531 18.855469 L 5.144531 20 L 10.285156 20 C 10.285156 18.855469 10.601562 17.144531 12 17.144531 C 13.457031 17.171875 13.714844 18.855469 13.714844 20 L 18.855469 20 L 18.855469 18.855469 L 17.144531 18.855469 L 16.570312 8.570312 Z M 12 10.855469 C 13.144531 10.855469 13.144531 12 13.144531 12 L 13.144531 13.144531 L 10.855469 13.144531 L 10.855469 12 C 10.855469 12 10.855469 10.855469 12 10.855469 Z M 12 10.855469 "/>
</svg>
