<?xml version="1.0" encoding="UTF-8"?>
<svg xmlns="http://www.w3.org/2000/svg" xmlns:xlink="http://www.w3.org/1999/xlink" width="24" height="24" viewBox="0 0 24 24">
<path fill-rule="nonzero" fill="rgb(0%, 0%, 0%)" fill-opacity="1" d="M 9.882812 1.882812 C 9.808594 1.808594 9.707031 1.765625 9.601562 1.765625 C 9.496094 1.765625 9.394531 1.808594 9.320312 1.882812 L 2.277344 8.921875 C 2.222656 8.976562 2.1875 9.046875 2.171875 9.125 C 2.15625 9.203125 2.167969 9.28125 2.195312 9.351562 C 2.226562 9.425781 2.277344 9.488281 2.339844 9.53125 C 2.40625 9.574219 2.480469 9.597656 2.558594 9.601562 L 4.800781 9.601562 L 4.800781 20.402344 C 4.800781 20.507812 4.84375 20.609375 4.917969 20.683594 C 4.992188 20.757812 5.09375 20.800781 5.199219 20.800781 L 10.796875 20.800781 C 10.851562 20.800781 10.902344 20.789062 10.953125 20.769531 C 11 20.75 11.042969 20.722656 11.082031 20.6875 C 11.117188 20.648438 11.148438 20.605469 11.167969 20.558594 C 11.1875 20.507812 11.199219 20.457031 11.199219 20.40625 L 11.199219 8.515625 C 11.199219 8.410156 11.242188 8.308594 11.316406 8.234375 L 13.601562 5.601562 Z M 9.601562 17.601562 L 8 17.601562 L 8 16 L 9.601562 16 Z M 9.601562 14.398438 L 8 14.398438 L 8 12.800781 L 9.601562 12.800781 Z M 9.601562 9.601562 L 9.601562 11.199219 L 8 11.199219 L 8 9.601562 Z M 20.398438 4.800781 L 19.601562 4.800781 C 19.492188 4.800781 19.390625 4.84375 19.316406 4.917969 C 19.242188 4.992188 19.199219 5.09375 19.199219 5.199219 L 19.199219 8 L 17.082031 5.082031 C 17.007812 5.007812 16.90625 4.964844 16.800781 4.964844 C 16.695312 4.964844 16.59375 5.007812 16.519531 5.082031 L 12.890625 9.492188 C 12.832031 9.5625 12.800781 9.648438 12.800781 9.742188 L 12.800781 20.398438 C 12.800781 20.449219 12.808594 20.5 12.828125 20.550781 C 12.847656 20.597656 12.875 20.640625 12.914062 20.679688 C 12.949219 20.71875 12.992188 20.746094 13.042969 20.769531 C 13.089844 20.789062 13.140625 20.800781 13.195312 20.800781 L 15.59375 20.800781 C 15.648438 20.800781 15.699219 20.789062 15.75 20.769531 C 15.796875 20.75 15.84375 20.71875 15.878906 20.683594 C 15.917969 20.644531 15.949219 20.601562 15.96875 20.550781 C 15.988281 20.503906 16 20.449219 16 20.398438 L 16 17.601562 L 17.601562 17.601562 L 17.601562 20.394531 C 17.601562 20.503906 17.644531 20.605469 17.71875 20.679688 C 17.792969 20.757812 17.898438 20.800781 18.003906 20.800781 L 20.40625 20.800781 C 20.507812 20.796875 20.609375 20.757812 20.683594 20.683594 C 20.757812 20.605469 20.800781 20.507812 20.800781 20.402344 L 20.800781 5.199219 C 20.800781 5.09375 20.757812 4.992188 20.683594 4.917969 C 20.609375 4.84375 20.507812 4.800781 20.398438 4.800781 Z M 16 12.800781 L 14.398438 12.800781 L 14.398438 11.199219 L 16 11.199219 Z M 19.199219 12.800781 L 17.601562 12.800781 L 17.601562 11.199219 L 19.199219 11.199219 Z M 16 16 L 14.398438 16 L 14.398438 14.398438 L 16 14.398438 Z M 19.199219 16 L 17.601562 16 L 17.601562 14.398438 L 19.199219 14.398438 Z M 19.199219 16 "/>
</svg>
