<?xml version="1.0" encoding="UTF-8"?>
<svg xmlns="http://www.w3.org/2000/svg" xmlns:xlink="http://www.w3.org/1999/xlink" width="24" height="24" viewBox="0 0 24 24">
<path fill-rule="nonzero" fill="rgb(0%, 0%, 0%)" fill-opacity="1" d="M 17.042969 9.792969 C 16.96875 9.738281 16.882812 9.707031 16.789062 9.707031 C 16.699219 9.707031 16.609375 9.738281 16.539062 9.792969 L 12.945312 12.6875 C 12.902344 12.722656 12.863281 12.769531 12.839844 12.824219 C 12.8125 12.878906 12.800781 12.9375 12.800781 12.996094 L 12.800781 20.394531 C 12.800781 20.503906 12.84375 20.605469 12.917969 20.679688 C 12.996094 20.757812 13.097656 20.800781 13.203125 20.800781 L 15.59375 20.800781 C 15.703125 20.800781 15.804688 20.757812 15.882812 20.679688 C 15.957031 20.605469 16 20.503906 16 20.394531 L 16 17.601562 L 17.601562 17.601562 L 17.601562 20.394531 C 17.601562 20.503906 17.644531 20.605469 17.71875 20.679688 C 17.792969 20.757812 17.898438 20.800781 18.003906 20.800781 L 20.394531 20.800781 C 20.503906 20.800781 20.605469 20.757812 20.679688 20.679688 C 20.757812 20.605469 20.800781 20.503906 20.800781 20.394531 L 20.800781 12.992188 C 20.800781 12.929688 20.789062 12.871094 20.761719 12.8125 C 20.734375 12.757812 20.699219 12.710938 20.648438 12.671875 Z M 16 16 L 14.398438 16 L 14.398438 14.398438 L 16 14.398438 Z M 19.199219 16 L 17.601562 16 L 17.601562 14.398438 L 19.199219 14.398438 Z M 9.136719 1.304688 C 9.097656 1.25 9.050781 1.203125 8.992188 1.171875 C 8.933594 1.140625 8.867188 1.125 8.800781 1.125 C 8.734375 1.125 8.667969 1.140625 8.609375 1.171875 C 8.550781 1.203125 8.5 1.25 8.464844 1.304688 L 3.265625 7.898438 C 3.222656 7.964844 3.199219 8.042969 3.199219 8.121094 L 3.199219 20.394531 C 3.199219 20.449219 3.210938 20.5 3.230469 20.550781 C 3.25 20.597656 3.28125 20.644531 3.316406 20.679688 C 3.355469 20.71875 3.398438 20.75 3.449219 20.769531 C 3.496094 20.789062 3.546875 20.800781 3.601562 20.800781 L 7.601562 20.800781 C 7.707031 20.796875 7.808594 20.753906 7.882812 20.679688 C 7.957031 20.605469 8 20.503906 8 20.398438 L 8 17.601562 L 9.601562 17.601562 L 9.601562 20.398438 C 9.601562 20.503906 9.640625 20.605469 9.71875 20.683594 C 9.792969 20.757812 9.894531 20.800781 10.003906 20.800781 L 11.199219 20.800781 L 11.199219 11.199219 C 11.199219 11.078125 11.226562 10.960938 11.277344 10.851562 C 11.332031 10.746094 11.40625 10.648438 11.5 10.574219 L 14.398438 8 C 14.398438 7.921875 9.136719 1.304688 9.136719 1.304688 Z M 6.398438 14.398438 L 4.800781 14.398438 L 4.800781 12.800781 L 6.398438 12.800781 Z M 6.398438 9.601562 L 4.800781 9.601562 L 4.800781 8 L 6.398438 8 Z M 9.601562 14.398438 L 8 14.398438 L 8 12.800781 L 9.601562 12.800781 Z M 9.601562 9.601562 L 8 9.601562 L 8 8 L 9.601562 8 Z M 9.601562 9.601562 "/>
</svg>
