<?xml version="1.0" encoding="UTF-8"?>
<svg xmlns="http://www.w3.org/2000/svg" xmlns:xlink="http://www.w3.org/1999/xlink" width="24" height="24" viewBox="0 0 24 24">
<path fill-rule="nonzero" fill="rgb(0%, 0%, 0%)" fill-opacity="1" d="M 20.21875 6.398438 L 17.597656 6.398438 L 17.597656 3.777344 C 17.597656 3.457031 17.339844 3.199219 17.019531 3.199219 L 16.574219 3.199219 C 16.253906 3.199219 15.996094 3.457031 15.996094 3.777344 L 15.996094 6.398438 L 13.375 6.398438 C 13.058594 6.398438 12.796875 6.65625 12.796875 6.976562 L 12.796875 15.996094 L 6.980469 15.996094 C 6.660156 15.996094 6.398438 16.257812 6.398438 16.578125 L 6.398438 20.21875 C 6.398438 20.539062 6.660156 20.796875 6.980469 20.796875 L 20.21875 20.796875 C 20.539062 20.796875 20.796875 20.539062 20.796875 20.21875 L 20.796875 6.976562 C 20.796875 6.65625 20.539062 6.398438 20.21875 6.398438 Z M 9.597656 19.195312 L 8 19.195312 L 8 17.597656 L 9.597656 17.597656 Z M 12.796875 19.195312 L 11.199219 19.195312 L 11.199219 17.597656 L 12.796875 17.597656 Z M 16 19.195312 L 14.398438 19.195312 L 14.398438 17.597656 L 16 17.597656 Z M 16 15.996094 L 14.398438 15.996094 L 14.398438 14.398438 L 16 14.398438 Z M 16 12.796875 L 14.398438 12.796875 L 14.398438 11.195312 L 16 11.195312 Z M 16 9.597656 L 14.398438 9.597656 L 14.398438 7.996094 L 16 7.996094 Z M 19.199219 19.195312 L 17.597656 19.195312 L 17.597656 17.59375 L 19.199219 17.59375 Z M 19.199219 15.996094 L 17.597656 15.996094 L 17.597656 14.394531 L 19.199219 14.394531 Z M 19.199219 12.796875 L 17.597656 12.796875 L 17.597656 11.195312 L 19.199219 11.195312 Z M 19.199219 9.59375 L 17.597656 9.59375 L 17.597656 7.996094 L 19.199219 7.996094 Z M 11.199219 3.777344 C 11.199219 3.457031 10.9375 3.199219 10.621094 3.199219 L 6.976562 3.199219 C 6.65625 3.199219 6.398438 3.457031 6.398438 3.777344 L 6.398438 6.398438 L 3.777344 6.398438 C 3.457031 6.402344 3.199219 6.660156 3.199219 6.976562 L 3.199219 20.234375 C 3.199219 20.546875 3.449219 20.796875 3.761719 20.796875 L 4.800781 20.796875 L 4.800781 14.398438 L 11.199219 14.398438 Z M 6.398438 12.796875 L 4.800781 12.796875 L 4.800781 11.195312 L 6.398438 11.195312 Z M 6.398438 9.597656 L 4.800781 9.597656 L 4.800781 7.996094 L 6.398438 7.996094 Z M 9.601562 12.796875 L 8 12.796875 L 8 11.195312 L 9.601562 11.195312 Z M 9.601562 9.597656 L 8 9.597656 L 8 7.996094 L 9.601562 7.996094 Z M 9.601562 6.398438 L 8 6.398438 L 8 4.800781 L 9.601562 4.800781 Z M 9.601562 6.398438 "/>
</svg>
