<?xml version="1.0" encoding="UTF-8"?>
<svg xmlns="http://www.w3.org/2000/svg" xmlns:xlink="http://www.w3.org/1999/xlink" width="28" height="28" viewBox="0 0 28 28">
<path fill-rule="nonzero" fill="rgb(6.666667%, 6.666667%, 6.666667%)" fill-opacity="1" stroke-width="3.408" stroke-linecap="butt" stroke-linejoin="miter" stroke="rgb(93.333333%, 93.333333%, 93.333333%)" stroke-opacity="1" stroke-miterlimit="4" d="M 66.269531 1.780134 C 24.921875 1.780134 1.699219 23.141741 1.699219 66.835938 L 1.699219 516.967076 C 1.699219 557.748326 22.575335 579.190848 63.922991 579.190848 L 515.915179 579.190848 C 557.262835 579.190848 578.138951 558.881138 578.138951 516.967076 L 578.138951 66.835938 C 578.138951 24.193638 557.262835 1.780134 514.620536 1.780134 C 514.620536 1.780134 66.107701 1.618304 66.269531 1.780134 Z M 66.269531 1.780134 " transform="matrix(0.0482759, 0, 0, 0.0482759, 0, 0)"/>
<path fill-rule="nonzero" fill="rgb(100%, 100%, 100%)" fill-opacity="1" d="M 20.289062 24.011719 C 20.9375 23.261719 21.472656 22.480469 21.46875 22.277344 C 21.46875 22.078125 22.324219 20.957031 23.367188 19.789062 C 26.058594 16.78125 26.386719 14.765625 24.421875 13.320312 C 23.527344 12.664062 23.175781 12.617188 21.804688 12.972656 C 20.28125 13.371094 20.164062 13.332031 18.902344 12.085938 C 17.347656 10.550781 15.75 10.371094 14.644531 11.609375 C 14.035156 12.289062 13.878906 13.277344 13.695312 17.667969 C 13.523438 21.71875 13.585938 23.03125 13.972656 23.429688 C 14.664062 24.140625 15.796875 23.476562 16.863281 21.726562 C 17.933594 19.96875 18.238281 20.273438 17.632812 22.492188 C 17.25 23.882812 17.253906 24.347656 17.640625 24.808594 C 18.378906 25.6875 18.992188 25.503906 20.289062 24.011719 Z M 20.289062 24.011719 "/>
<path fill-rule="nonzero" fill="rgb(100%, 100%, 100%)" fill-opacity="1" d="M 8.835938 20.230469 C 8.09375 19.027344 9.425781 17.472656 10.335938 18.476562 C 10.621094 18.789062 10.488281 18.824219 9.859375 18.601562 C 9.296875 18.40625 9.296875 18.40625 9.230469 19.179688 C 9.195312 19.605469 9.160156 20.019531 9.148438 20.097656 C 9.125 20.269531 8.917969 20.359375 8.835938 20.230469 Z M 7.402344 18.78125 C 7.367188 18.730469 7.777344 18.40625 8.3125 18.0625 C 8.84375 17.722656 9.28125 17.371094 9.28125 17.289062 C 9.28125 17.167969 9.226562 17.183594 9.046875 17.355469 C 8.75 17.632812 8.648438 17.632812 8.691406 17.359375 C 8.714844 17.199219 8.859375 17.101562 9.28125 16.972656 C 9.585938 16.878906 9.941406 16.746094 10.066406 16.675781 C 10.398438 16.5 10.429688 17.148438 10.109375 17.507812 C 9.804688 17.847656 7.496094 18.933594 7.402344 18.78125 Z M 7.925781 17.570312 C 7.398438 16.945312 7.683594 16.402344 8.789062 15.914062 C 9.417969 15.636719 9.566406 15.488281 9.394531 15.316406 C 9.3125 15.234375 9.28125 15.234375 9.28125 15.324219 C 9.28125 15.386719 9.144531 15.511719 8.976562 15.597656 C 8.671875 15.757812 8.480469 15.476562 8.773438 15.296875 C 9.734375 14.699219 10.394531 14.71875 10.394531 15.347656 C 10.394531 16.21875 10.015625 16.636719 9.050781 16.816406 C 8.601562 16.902344 8.496094 17.015625 8.453125 17.464844 C 8.410156 17.925781 8.25 17.957031 7.925781 17.570312 Z M 7.523438 16.070312 C 6.957031 15.445312 7.582031 14.4375 8.785156 14.039062 C 9.851562 13.6875 10.144531 13.167969 9.480469 12.8125 C 9.296875 12.710938 9.28125 12.738281 9.28125 13.152344 C 9.28125 13.5625 9.253906 13.613281 8.976562 13.707031 C 8.671875 13.816406 8.671875 13.816406 8.671875 13.324219 C 8.671875 12.832031 8.671875 12.832031 9.253906 12.652344 C 9.574219 12.554688 9.972656 12.40625 10.136719 12.328125 C 10.417969 12.1875 10.445312 12.191406 10.667969 12.449219 C 11.394531 13.292969 10.941406 14.273438 9.609375 14.734375 C 8.5 15.117188 8.351562 15.214844 8.386719 15.527344 C 8.414062 15.742188 8.347656 15.851562 8.085938 16.027344 C 7.683594 16.300781 7.730469 16.300781 7.523438 16.070312 Z M 7.105469 13.992188 C 6.398438 13.0625 7.023438 12.144531 8.847656 11.453125 C 9.320312 11.273438 9.671875 11.0625 9.84375 10.863281 C 10.09375 10.566406 10.105469 10.453125 9.945312 10.066406 C 9.890625 9.933594 9.96875 9.890625 10.355469 9.835938 C 10.617188 9.800781 10.898438 9.714844 10.980469 9.648438 C 11.175781 9.488281 11.371094 9.746094 11.460938 10.289062 C 11.601562 11.128906 10.957031 11.785156 9.46875 12.3125 C 8.164062 12.773438 7.78125 13.242188 8.371094 13.652344 C 8.5625 13.789062 8.550781 13.808594 8.054688 14.0625 C 7.410156 14.398438 7.417969 14.402344 7.105469 13.992188 Z M 6.785156 11.4375 C 5.761719 10.351562 7.054688 8.5625 8.863281 8.554688 C 10.175781 8.546875 11.660156 8.003906 11.660156 7.535156 C 11.660156 7.210938 11.390625 7.171875 11.023438 7.441406 C 10.15625 8.082031 9.179688 7.277344 9.992188 6.59375 C 10.835938 5.886719 12.726562 6.5 12.726562 7.484375 C 12.726562 8.59375 11.625 9.347656 9.539062 9.667969 C 7.769531 9.9375 7.355469 10.339844 8.152344 11.011719 C 8.441406 11.253906 8.441406 11.253906 7.921875 11.527344 C 7.257812 11.875 7.195312 11.871094 6.785156 11.4375 Z M 8.671875 10.582031 C 8.671875 9.976562 8.671875 9.976562 8.976562 9.976562 C 9.273438 9.976562 9.28125 9.984375 9.28125 10.484375 C 9.28125 10.96875 9.101562 11.191406 8.71875 11.191406 C 8.691406 11.191406 8.671875 10.917969 8.671875 10.582031 Z M 6.035156 8.871094 C 4.582031 7.894531 4.945312 6.511719 6.71875 6.285156 C 7.640625 6.167969 8.550781 6.863281 8.203125 7.421875 C 8.035156 7.691406 7.285156 7.707031 6.9375 7.449219 C 6.515625 7.136719 6.242188 7.167969 6.242188 7.535156 C 6.242188 7.863281 6.742188 8.175781 7.488281 8.308594 C 7.875 8.378906 7.875 8.378906 7.371094 8.667969 C 7.089844 8.828125 6.835938 9.003906 6.800781 9.0625 C 6.695312 9.230469 6.5 9.179688 6.035156 8.871094 Z M 8.636719 6.351562 C 8.601562 5.308594 8.570312 4.054688 8.570312 3.570312 C 8.570312 2.8125 8.542969 2.671875 8.375 2.550781 C 7.464844 1.917969 8.382812 0.492188 9.371094 1.003906 C 9.945312 1.296875 10.015625 1.984375 9.535156 2.558594 C 9.28125 2.859375 9.28125 2.859375 9.28125 5.554688 C 9.28125 8.253906 9.28125 8.253906 8.992188 8.253906 C 8.703125 8.253906 8.703125 8.253906 8.636719 6.351562 Z M 5.835938 5.507812 C 5.683594 5.40625 5.5 5.246094 5.433594 5.152344 C 5.316406 4.992188 5.28125 4.992188 4.871094 5.152344 C 4.351562 5.359375 3.820312 5.179688 3.617188 4.734375 C 3.53125 4.542969 3.425781 4.480469 3.183594 4.480469 C 2.792969 4.480469 2.417969 4.230469 2.417969 3.964844 C 2.417969 3.804688 2.371094 3.777344 2.175781 3.828125 C 1.796875 3.921875 1 3.398438 1 3.054688 C 1 3.019531 1.878906 2.964844 2.949219 2.929688 C 4.664062 2.875 5 2.835938 5.699219 2.609375 C 6.828125 2.246094 7.136719 2.261719 7.394531 2.703125 C 7.507812 2.894531 7.6875 3.078125 7.796875 3.113281 C 8.191406 3.238281 8.078125 5.550781 7.675781 5.632812 C 7.03125 5.761719 6.128906 5.699219 5.835938 5.507812 Z M 10.164062 5.609375 C 9.765625 5.492188 9.710938 3.222656 10.105469 3.125 C 10.242188 3.089844 10.382812 2.96875 10.417969 2.859375 C 10.601562 2.28125 11.027344 2.226562 12.242188 2.613281 C 12.957031 2.84375 13.28125 2.882812 14.996094 2.933594 C 16.941406 2.992188 16.941406 2.992188 16.792969 3.277344 C 16.609375 3.632812 16.101562 3.910156 15.777344 3.828125 C 15.601562 3.785156 15.535156 3.808594 15.535156 3.921875 C 15.535156 4.195312 15.148438 4.480469 14.78125 4.480469 C 14.503906 4.480469 14.394531 4.539062 14.257812 4.773438 C 13.960938 5.273438 13.480469 5.40625 12.957031 5.132812 C 12.671875 4.984375 12.652344 4.992188 12.320312 5.3125 C 11.960938 5.660156 10.851562 5.8125 10.164062 5.609375 Z M 10.164062 5.609375 "/>
</svg>
