<?xml version="1.0" encoding="UTF-8"?>
<svg xmlns="http://www.w3.org/2000/svg" xmlns:xlink="http://www.w3.org/1999/xlink" width="28" height="28" viewBox="0 0 28 28">
<path fill-rule="nonzero" fill="rgb(6.666667%, 6.666667%, 6.666667%)" fill-opacity="1" stroke-width="3.408" stroke-linecap="butt" stroke-linejoin="miter" stroke="rgb(93.333333%, 93.333333%, 93.333333%)" stroke-opacity="1" stroke-miterlimit="4" d="M 66.269531 1.780134 C 24.921875 1.780134 1.699219 23.141741 1.699219 66.835938 L 1.699219 516.967076 C 1.699219 557.748326 22.575335 579.190848 63.922991 579.190848 L 515.915179 579.190848 C 557.262835 579.190848 578.138951 558.881138 578.138951 516.967076 L 578.138951 66.835938 C 578.138951 24.193638 557.262835 1.780134 514.620536 1.780134 C 514.620536 1.780134 66.107701 1.618304 66.269531 1.780134 Z M 66.269531 1.780134 " transform="matrix(0.0482759, 0, 0, 0.0482759, 0, 0)"/>
<path fill-rule="nonzero" fill="rgb(100%, 100%, 100%)" fill-opacity="1" stroke-width="0.705351" stroke-linecap="butt" stroke-linejoin="miter" stroke="rgb(100%, 100%, 100%)" stroke-opacity="1" stroke-miterlimit="4" d="M 851.564939 136.012393 C 844.27986 136.823027 841.304264 145.392592 843.664219 151.530254 C 844.382466 159.984014 844.998107 168.437774 845.511141 176.891534 C 854.745748 175.270265 864.082962 174.22802 873.420177 174.112215 C 886.553841 173.764801 899.995325 174.22802 913.231596 175.733484 C 913.334203 174.575435 913.436809 173.533191 913.539416 172.375141 C 914.05245 165.77426 918.977574 156.394061 912.000315 151.530254 C 901.123999 144.581958 887.990335 156.046646 876.806199 150.719619 C 868.187232 146.203227 862.236041 135.896588 851.564939 136.012393 Z M 865.72467 272.430603 C 860.491726 272.546408 855.361389 273.357043 850.333658 274.746702 C 850.744085 287.832659 851.154512 301.034422 851.462332 314.120379 C 858.542198 318.173552 866.135097 321.6477 873.522783 324.890238 C 883.680852 329.17502 894.249347 333.228193 904.817842 337.281365 C 905.330876 322.342529 905.84391 307.519498 906.45955 292.696466 C 899.995325 285.863975 893.428493 279.263094 885.014739 274.978312 C 878.858334 273.125433 872.291502 272.314798 865.72467 272.430603 Z M 841.817298 424.25087 C 835.045252 424.48248 828.47842 427.377603 826.015858 433.746874 C 823.655903 444.285123 831.146195 453.665323 833.095724 463.624547 C 837.199994 476.942114 841.304264 490.259681 844.8955 503.693054 C 863.364715 497.092172 882.244357 491.417731 900.097932 483.42719 C 900.405752 475.784065 900.713572 468.256744 901.226606 460.729424 C 902.457887 455.170787 904.817842 449.84376 906.767371 444.400928 C 902.970921 442.779659 899.071864 441.274195 895.378021 439.768731 C 881.52611 434.673314 867.263772 429.925312 853.10404 424.829894 C 853.10404 425.524724 853.206647 426.103749 853.206647 426.798578 C 849.923231 425.061504 845.818961 424.135065 841.817298 424.25087 Z M 897.532763 580.124309 C 882.962604 585.567141 868.289839 591.125778 854.232714 597.610854 C 854.232714 606.875248 854.232714 616.023838 854.232714 625.172428 C 868.289839 632.815553 883.167818 639.06902 898.148403 645.090876 C 901.944853 627.141112 907.896045 609.538762 912.923776 591.936412 C 912.821169 584.524897 903.689168 581.398163 897.430156 583.019432 C 897.430156 582.092993 897.532763 581.050749 897.532763 580.124309 Z M 854.232714 724.30145 C 854.232714 730.554916 854.130108 736.808383 854.130108 743.061849 C 847.973703 742.714434 842.125118 749.431121 845.613747 755.337172 C 850.538871 769.349569 855.463995 783.825185 854.643141 798.879827 C 867.982019 794.247629 881.115683 789.383822 893.83892 783.361966 C 894.044133 768.886349 894.249347 754.410733 894.45456 739.819311 C 887.682515 736.924188 880.705256 734.376479 873.727997 731.828771 C 867.263772 729.281062 860.799546 726.849159 854.232714 724.30145 Z M 893.736313 862.919954 C 880.910469 867.088932 867.879412 870.678885 854.745748 873.805618 C 854.848355 894.071481 855.053568 914.453149 855.156175 934.834818 C 870.341974 925.454618 888.400762 917.464078 896.609302 900.672362 C 898.764044 894.534701 893.120673 889.207674 894.351954 882.954208 C 894.14674 876.353327 893.83892 869.636641 893.736313 862.919954 Z M 893.736313 862.919954 " transform="matrix(0.0380701, 0, 0, 0.0337313, -19.110575, -3.939436)"/>
<path fill-rule="nonzero" fill="rgb(100%, 100%, 100%)" fill-opacity="1" stroke-width="7.571443" stroke-linecap="butt" stroke-linejoin="miter" stroke="rgb(100%, 100%, 100%)" stroke-opacity="1" stroke-miterlimit="4" d="M 298.253343 53.889512 C 245.334813 53.808597 195.00557 81.319759 194.115503 124.12389 C 197.513941 209.893982 349.068077 200.588736 351.981024 237.80972 C 355.784037 286.68249 199.53682 272.036842 202.126106 349.958162 C 204.06807 409.997227 349.553568 415.580374 349.715398 447.05638 C 349.796314 483.630042 245.011153 493.987185 187.399543 521.902923 C 193.549097 531.774575 392.438615 508.875579 393.005021 445.438076 C 393.571427 387.583721 245.658474 380.05861 245.90122 344.536845 C 246.22488 310.795214 400.611048 308.125013 399.559151 236.595992 C 398.426338 165.066972 247.034032 169.760052 242.340952 123.395653 C 242.179121 99.60659 276.163498 92.405138 301.570865 95.560831 C 314.76004 97.179134 326.16908 110.044648 339.27734 121.130028 C 346.15513 126.875006 358.130577 129.949783 365.251113 131.568086 C 372.290734 133.267305 375.446426 132.458153 381.110489 131.00168 C 384.832588 129.949783 376.9029 117.73159 380.058592 115.54688 C 382.728793 113.685831 396.646204 122.10101 398.183593 119.268979 C 399.963727 116.113287 400.691963 112.229358 399.801896 107.698108 C 401.986606 87.226567 364.280131 55.669646 320.909594 55.588731 C 313.384482 54.455918 305.778455 53.889512 298.253343 53.889512 Z M 359.42522 71.933597 C 368.16406 71.933597 375.284596 79.054133 375.284596 87.792973 C 375.284596 96.612728 368.16406 103.652349 359.42522 103.652349 C 350.605465 103.652349 343.565845 96.612728 343.565845 87.792973 C 343.565845 79.054133 350.605465 71.933597 359.42522 71.933597 Z M 359.42522 71.933597 " transform="matrix(0.0482759, 0, 0, 0.0482759, 0.000000930335, -0.0000000408071)"/>
</svg>
