<?xml version="1.0" encoding="UTF-8"?>
<svg xmlns="http://www.w3.org/2000/svg" xmlns:xlink="http://www.w3.org/1999/xlink" width="28" height="28" viewBox="0 0 28 28">
<path fill-rule="nonzero" fill="rgb(6.666667%, 6.666667%, 6.666667%)" fill-opacity="1" stroke-width="3.408" stroke-linecap="butt" stroke-linejoin="miter" stroke="rgb(93.333333%, 93.333333%, 93.333333%)" stroke-opacity="1" stroke-miterlimit="4" d="M 66.269531 1.780134 C 24.921875 1.780134 1.699219 23.141741 1.699219 66.835938 L 1.699219 516.967076 C 1.699219 557.748326 22.575335 579.190848 63.922991 579.190848 L 515.915179 579.190848 C 557.262835 579.190848 578.138951 558.881138 578.138951 516.967076 L 578.138951 66.835938 C 578.138951 24.193638 557.262835 1.780134 514.620536 1.780134 C 514.620536 1.780134 66.107701 1.618304 66.269531 1.780134 Z M 66.269531 1.780134 " transform="matrix(0.0482759, 0, 0, 0.0482759, 0, 0)"/>
<path fill-rule="nonzero" fill="rgb(100%, 100%, 100%)" fill-opacity="1" d="M 14.105469 27.203125 C 13.09375 25.566406 14.90625 23.445312 16.148438 24.816406 C 16.53125 25.242188 16.355469 25.289062 15.496094 24.988281 C 14.730469 24.71875 14.730469 24.71875 14.640625 25.773438 C 14.59375 26.355469 14.542969 26.917969 14.527344 27.027344 C 14.496094 27.257812 14.214844 27.378906 14.105469 27.203125 Z M 12.148438 25.230469 C 12.105469 25.160156 12.664062 24.71875 13.386719 24.253906 C 14.113281 23.785156 14.707031 23.308594 14.707031 23.195312 C 14.707031 23.035156 14.632812 23.054688 14.390625 23.285156 C 13.988281 23.664062 13.847656 23.664062 13.90625 23.292969 C 13.9375 23.070312 14.136719 22.941406 14.707031 22.765625 C 15.125 22.636719 15.609375 22.453125 15.777344 22.363281 C 16.230469 22.121094 16.273438 23.003906 15.835938 23.496094 C 15.421875 23.957031 12.277344 25.4375 12.148438 25.230469 Z M 12.863281 23.582031 C 12.144531 22.730469 12.53125 21.988281 14.039062 21.320312 C 14.894531 20.945312 15.097656 20.742188 14.863281 20.507812 C 14.75 20.394531 14.707031 20.398438 14.707031 20.515625 C 14.707031 20.605469 14.523438 20.773438 14.292969 20.894531 C 13.878906 21.109375 13.617188 20.726562 14.015625 20.480469 C 15.328125 19.667969 16.226562 19.695312 16.226562 20.550781 C 16.226562 21.738281 15.710938 22.304688 14.398438 22.554688 C 13.78125 22.667969 13.640625 22.824219 13.582031 23.4375 C 13.519531 24.0625 13.304688 24.105469 12.863281 23.582031 Z M 12.3125 21.539062 C 11.539062 20.683594 12.390625 19.3125 14.035156 18.769531 C 15.488281 18.289062 15.886719 17.578125 14.980469 17.09375 C 14.730469 16.960938 14.707031 16.992188 14.707031 17.5625 C 14.707031 18.117188 14.671875 18.1875 14.292969 18.316406 C 13.878906 18.460938 13.878906 18.460938 13.878906 17.792969 C 13.878906 17.121094 13.878906 17.121094 14.675781 16.878906 C 15.109375 16.746094 15.652344 16.546875 15.875 16.433594 C 16.261719 16.242188 16.296875 16.25 16.597656 16.601562 C 17.589844 17.753906 16.972656 19.085938 15.15625 19.714844 C 13.644531 20.238281 13.441406 20.371094 13.492188 20.796875 C 13.527344 21.089844 13.4375 21.238281 13.082031 21.480469 C 12.535156 21.851562 12.59375 21.847656 12.3125 21.539062 Z M 11.746094 18.707031 C 10.78125 17.4375 11.636719 16.1875 14.117188 15.246094 C 14.761719 15 15.242188 14.714844 15.476562 14.4375 C 15.8125 14.035156 15.832031 13.882812 15.613281 13.355469 C 15.539062 13.175781 15.648438 13.113281 16.171875 13.042969 C 16.527344 12.992188 16.910156 12.878906 17.023438 12.785156 C 17.289062 12.566406 17.554688 12.917969 17.679688 13.660156 C 17.875 14.804688 16.996094 15.695312 14.960938 16.414062 C 13.1875 17.042969 12.664062 17.679688 13.46875 18.242188 C 13.730469 18.425781 13.710938 18.453125 13.039062 18.800781 C 12.15625 19.261719 12.171875 19.261719 11.746094 18.707031 Z M 11.308594 15.222656 C 9.914062 13.746094 11.671875 11.304688 14.140625 11.292969 C 15.925781 11.285156 17.953125 10.546875 17.953125 9.902344 C 17.953125 9.464844 17.582031 9.410156 17.085938 9.777344 C 15.902344 10.652344 14.570312 9.558594 15.679688 8.625 C 16.824219 7.660156 19.402344 8.496094 19.402344 9.835938 C 19.402344 11.347656 17.90625 12.375 15.0625 12.808594 C 12.648438 13.179688 12.082031 13.726562 13.171875 14.640625 C 13.566406 14.972656 13.566406 14.972656 12.859375 15.34375 C 11.949219 15.820312 11.863281 15.8125 11.308594 15.222656 Z M 13.878906 14.058594 C 13.878906 13.230469 13.878906 13.230469 14.292969 13.230469 C 14.699219 13.230469 14.707031 13.246094 14.707031 13.925781 C 14.707031 14.582031 14.464844 14.886719 13.941406 14.886719 C 13.90625 14.886719 13.878906 14.515625 13.878906 14.058594 Z M 10.289062 11.726562 C 8.304688 10.394531 8.800781 8.507812 11.21875 8.203125 C 12.476562 8.046875 13.714844 8.992188 13.238281 9.75 C 13.011719 10.117188 11.992188 10.136719 11.515625 9.789062 C 10.941406 9.363281 10.566406 9.40625 10.566406 9.902344 C 10.566406 10.351562 11.25 10.777344 12.269531 10.960938 C 12.796875 11.054688 12.796875 11.054688 12.105469 11.449219 C 11.726562 11.667969 11.375 11.90625 11.328125 11.984375 C 11.183594 12.214844 10.917969 12.148438 10.289062 11.726562 Z M 13.832031 8.292969 C 13.785156 6.871094 13.742188 5.164062 13.742188 4.503906 C 13.742188 3.472656 13.703125 3.277344 13.472656 3.117188 C 12.234375 2.25 13.488281 0.308594 14.835938 1.003906 C 15.613281 1.40625 15.710938 2.34375 15.054688 3.125 C 14.707031 3.535156 14.707031 3.535156 14.707031 7.210938 C 14.707031 10.882812 14.707031 10.882812 14.316406 10.882812 C 13.925781 10.882812 13.925781 10.882812 13.832031 8.292969 Z M 10.015625 7.144531 C 9.804688 7.007812 9.558594 6.789062 9.464844 6.660156 C 9.304688 6.441406 9.257812 6.441406 8.703125 6.660156 C 7.992188 6.9375 7.269531 6.695312 6.992188 6.089844 C 6.871094 5.828125 6.726562 5.742188 6.402344 5.742188 C 5.867188 5.742188 5.359375 5.402344 5.359375 5.042969 C 5.359375 4.824219 5.292969 4.789062 5.027344 4.855469 C 4.507812 4.984375 3.425781 4.269531 3.425781 3.800781 C 3.425781 3.753906 4.621094 3.675781 6.082031 3.628906 C 8.417969 3.558594 8.875 3.503906 9.832031 3.195312 C 11.367188 2.699219 11.785156 2.722656 12.140625 3.320312 C 12.292969 3.582031 12.539062 3.835938 12.6875 3.882812 C 13.222656 4.050781 13.070312 7.203125 12.519531 7.3125 C 11.640625 7.488281 10.414062 7.40625 10.015625 7.144531 Z M 15.914062 7.28125 C 15.371094 7.121094 15.292969 4.027344 15.828125 3.894531 C 16.015625 3.847656 16.210938 3.683594 16.257812 3.535156 C 16.507812 2.75 17.089844 2.671875 18.742188 3.203125 C 19.714844 3.515625 20.160156 3.566406 22.5 3.632812 C 25.148438 3.714844 25.148438 3.714844 24.945312 4.105469 C 24.695312 4.589844 24.003906 4.964844 23.558594 4.855469 C 23.320312 4.792969 23.230469 4.828125 23.230469 4.980469 C 23.230469 5.355469 22.707031 5.742188 22.203125 5.742188 C 21.824219 5.742188 21.679688 5.824219 21.488281 6.144531 C 21.085938 6.824219 20.433594 7.007812 19.71875 6.636719 C 19.328125 6.429688 19.300781 6.4375 18.851562 6.875 C 18.359375 7.351562 16.847656 7.558594 15.914062 7.28125 Z M 15.914062 7.28125 "/>
</svg>
