<?xml version="1.0" encoding="UTF-8"?>
<svg xmlns="http://www.w3.org/2000/svg" xmlns:xlink="http://www.w3.org/1999/xlink" width="28" height="28" viewBox="0 0 28 28">
<path fill-rule="nonzero" fill="rgb(6.666667%, 6.666667%, 6.666667%)" fill-opacity="1" stroke-width="3.408" stroke-linecap="butt" stroke-linejoin="miter" stroke="rgb(93.333333%, 93.333333%, 93.333333%)" stroke-opacity="1" stroke-miterlimit="4" d="M 66.269531 1.780134 C 24.921875 1.780134 1.699219 23.141741 1.699219 66.835938 L 1.699219 516.967076 C 1.699219 557.748326 22.575335 579.190848 63.922991 579.190848 L 515.915179 579.190848 C 557.262835 579.190848 578.138951 558.881138 578.138951 516.967076 L 578.138951 66.835938 C 578.138951 24.193638 557.262835 1.780134 514.620536 1.780134 C 514.620536 1.780134 66.107701 1.618304 66.269531 1.780134 Z M 66.269531 1.780134 " transform="matrix(0.0482759, 0, 0, 0.0482759, 0, 0)"/>
<path fill="none" stroke-width="25.137615" stroke-linecap="butt" stroke-linejoin="miter" stroke="rgb(100%, 100%, 100%)" stroke-opacity="1" stroke-miterlimit="4" d="M 505.706334 305.695067 C 505.706334 465.085644 376.501229 594.290749 217.110651 594.290749 C 57.720074 594.290749 -71.390996 465.085644 -71.390996 305.695067 C -71.390996 146.304489 57.720074 17.099384 217.110651 17.099384 C 376.501229 17.099384 505.706334 146.304489 505.706334 305.695067 Z M 505.706334 305.695067 " transform="matrix(0.0415401, 0, 0, 0.0415401, 4.860117, 1.106097)"/>
<path fill-rule="nonzero" fill="rgb(100%, 100%, 100%)" fill-opacity="1" stroke-width="20" stroke-linecap="butt" stroke-linejoin="round" stroke="rgb(100%, 100%, 100%)" stroke-opacity="1" stroke-miterlimit="4" d="M -468.660714 -326.897321 L -106.40346 -326.897321 L -106.40346 -245.092076 L -468.660714 -245.092076 Z M -468.660714 -326.897321 " transform="matrix(-0.0482759, 0, 0, -0.0482759, 0, 0)"/>
<path fill-rule="nonzero" fill="rgb(100%, 100%, 100%)" fill-opacity="1" stroke-width="20" stroke-linecap="butt" stroke-linejoin="round" stroke="rgb(100%, 100%, 100%)" stroke-opacity="1" stroke-miterlimit="4" d="M -467.123326 246.629464 L -104.866071 246.629464 L -104.866071 328.43471 L -467.123326 328.43471 Z M -467.123326 246.629464 " transform="matrix(0, -0.0482759, 0.0482759, 0, 0, 0)"/>
</svg>
