<?xml version="1.0" encoding="UTF-8"?>
<svg xmlns="http://www.w3.org/2000/svg" xmlns:xlink="http://www.w3.org/1999/xlink" width="28" height="28" viewBox="0 0 28 28">
<path fill-rule="nonzero" fill="rgb(6.666667%, 6.666667%, 6.666667%)" fill-opacity="1" stroke-width="3.408" stroke-linecap="butt" stroke-linejoin="miter" stroke="rgb(93.333333%, 93.333333%, 93.333333%)" stroke-opacity="1" stroke-miterlimit="4" d="M 66.269531 1.780134 C 24.921875 1.780134 1.699219 23.141741 1.699219 66.835938 L 1.699219 516.967076 C 1.699219 557.748326 22.575335 579.190848 63.922991 579.190848 L 515.915179 579.190848 C 557.262835 579.190848 578.138951 558.881138 578.138951 516.967076 L 578.138951 66.835938 C 578.138951 24.193638 557.262835 1.780134 514.620536 1.780134 C 514.620536 1.780134 66.107701 1.618304 66.269531 1.780134 Z M 66.269531 1.780134 " transform="matrix(0.0482759, 0, 0, 0.0482759, 0, 0)"/>
<path fill="none" stroke-width="25.137615" stroke-linecap="butt" stroke-linejoin="miter" stroke="rgb(100%, 100%, 100%)" stroke-opacity="1" stroke-miterlimit="4" d="M 505.701438 305.752343 C 505.701438 465.058717 376.548355 594.317231 217.13655 594.317231 C 57.724745 594.317231 -71.428338 465.058717 -71.428338 305.752343 C -71.428338 146.340538 57.724745 17.082024 217.13655 17.082024 C 376.548355 17.082024 505.701438 146.340538 505.701438 305.752343 Z M 505.701438 305.752343 " transform="matrix(0.0370503, 0, 0, 0.0370503, 5.931595, 2.671794)"/>
<path fill-rule="nonzero" fill="rgb(100%, 100%, 100%)" fill-opacity="1" stroke-width="9.702408" stroke-linecap="butt" stroke-linejoin="miter" stroke="rgb(100%, 100%, 100%)" stroke-opacity="1" stroke-miterlimit="4" d="M -465.262277 -329.648438 L -113.766741 -329.648438 L -113.766741 -250.270647 L -465.262277 -250.270647 Z M -465.262277 -329.648438 " transform="matrix(-0.0482759, 0, 0, -0.0482759, 0, 0)"/>
<path fill-rule="nonzero" fill="rgb(100%, 100%, 100%)" fill-opacity="1" stroke-width="9.702408" stroke-linecap="butt" stroke-linejoin="miter" stroke="rgb(100%, 100%, 100%)" stroke-opacity="1" stroke-miterlimit="4" d="M -465.747768 249.785156 L -114.252232 249.785156 L -114.252232 329.243862 L -465.747768 329.243862 Z M -465.747768 249.785156 " transform="matrix(0, -0.0482759, 0.0482759, 0, 0, 0)"/>
<path fill="none" stroke-width="21.698517" stroke-linecap="butt" stroke-linejoin="miter" stroke="rgb(100%, 100%, 100%)" stroke-opacity="1" stroke-miterlimit="4" d="M 505.72051 305.747129 C 505.72051 465.100337 376.490611 594.330236 217.137403 594.330236 C 57.784196 594.330236 -71.445703 465.100337 -71.445703 305.747129 C -71.445703 146.302915 57.784196 17.164022 217.137403 17.164022 C 376.490611 17.164022 505.72051 146.302915 505.72051 305.747129 Z M 505.72051 305.747129 " transform="matrix(0.0429225, 0, 0, 0.0429225, 4.656475, 0.876558)"/>
</svg>
