<?xml version="1.0" encoding="UTF-8"?>
<svg xmlns="http://www.w3.org/2000/svg" xmlns:xlink="http://www.w3.org/1999/xlink" width="28" height="28" viewBox="0 0 28 28">
<path fill-rule="nonzero" fill="rgb(6.666667%, 6.666667%, 6.666667%)" fill-opacity="1" stroke-width="3.408" stroke-linecap="butt" stroke-linejoin="miter" stroke="rgb(93.333333%, 93.333333%, 93.333333%)" stroke-opacity="1" stroke-miterlimit="4" d="M 66.269531 1.780134 C 24.921875 1.780134 1.699219 23.141741 1.699219 66.835938 L 1.699219 516.967076 C 1.699219 557.748326 22.575335 579.190848 63.922991 579.190848 L 515.915179 579.190848 C 557.262835 579.190848 578.138951 558.881138 578.138951 516.967076 L 578.138951 66.835938 C 578.138951 24.193638 557.262835 1.780134 514.620536 1.780134 C 514.620536 1.780134 66.107701 1.618304 66.269531 1.780134 Z M 66.269531 1.780134 " transform="matrix(0.0482759, 0, 0, 0.0482759, 0, 0)"/>
<path fill="none" stroke-width="25.137615" stroke-linecap="butt" stroke-linejoin="miter" stroke="rgb(100%, 100%, 100%)" stroke-opacity="1" stroke-miterlimit="4" d="M 505.666498 305.68789 C 505.666498 465.119282 376.467639 594.318141 217.165446 594.318141 C 57.734054 594.318141 -71.464805 465.119282 -71.464805 305.68789 C -71.464805 146.385697 57.734054 17.186838 217.165446 17.186838 C 376.467639 17.186838 505.666498 146.385697 505.666498 305.68789 Z M 505.666498 305.68789 " transform="matrix(0.0302344, 0, 0, 0.0302344, 4.418508, 4.562398)"/>
<path fill-rule="nonzero" fill="rgb(100%, 100%, 100%)" fill-opacity="1" stroke-width="7.871644" stroke-linecap="butt" stroke-linejoin="miter" stroke="rgb(100%, 100%, 100%)" stroke-opacity="1" stroke-miterlimit="4" d="M -370.106027 -318.158482 L -84.960938 -318.158482 L -84.960938 -253.75 L -370.106027 -253.75 Z M -370.106027 -318.158482 " transform="matrix(-0.0482759, 0, 0, -0.0482759, 0, 0)"/>
<path fill-rule="nonzero" fill="rgb(100%, 100%, 100%)" fill-opacity="1" stroke-width="7.871644" stroke-linecap="butt" stroke-linejoin="miter" stroke="rgb(100%, 100%, 100%)" stroke-opacity="1" stroke-miterlimit="4" d="M -428.526786 195.329241 L -143.381696 195.329241 L -143.381696 259.737723 L -428.526786 259.737723 Z M -428.526786 195.329241 " transform="matrix(0, -0.0482759, 0.0482759, 0, 0, 0)"/>
<path fill-rule="nonzero" fill="rgb(100%, 100%, 100%)" fill-opacity="1" d="M 23.617188 18.605469 C 23.492188 18.625 23.402344 18.632812 23.339844 18.632812 C 23.253906 18.632812 23.121094 18.621094 22.949219 18.59375 L 22.355469 10.703125 C 22.316406 10.15625 22.210938 9.457031 22.039062 8.609375 C 21.789062 7.476562 21.667969 6.664062 21.667969 6.167969 C 21.667969 5.675781 21.820312 5.304688 22.132812 5.054688 C 22.441406 4.800781 22.820312 4.675781 23.265625 4.675781 C 23.746094 4.675781 24.15625 4.800781 24.492188 5.054688 C 24.824219 5.304688 24.992188 5.660156 24.992188 6.113281 C 24.992188 6.535156 24.867188 7.535156 24.621094 9.113281 C 24.136719 12.144531 23.882812 14.113281 23.859375 15.019531 L 23.710938 18.304688 C 23.699219 18.378906 23.667969 18.480469 23.617188 18.605469 Z M 21.425781 21.496094 C 21.425781 21.113281 21.613281 20.78125 21.992188 20.503906 C 22.371094 20.226562 22.832031 20.085938 23.375 20.085938 C 23.894531 20.085938 24.332031 20.21875 24.6875 20.488281 C 25.039062 20.757812 25.214844 21.066406 25.214844 21.414062 C 25.214844 21.761719 25.011719 22.097656 24.601562 22.429688 C 24.191406 22.757812 23.785156 22.921875 23.375 22.921875 C 22.929688 22.921875 22.492188 22.761719 22.066406 22.441406 C 21.640625 22.121094 21.425781 21.808594 21.425781 21.496094 Z M 21.425781 21.496094 "/>
</svg>
