<?xml version="1.0" encoding="UTF-8"?>
<svg xmlns="http://www.w3.org/2000/svg" xmlns:xlink="http://www.w3.org/1999/xlink" width="28" height="28" viewBox="0 0 28 28">
<path fill-rule="nonzero" fill="rgb(6.666667%, 6.666667%, 6.666667%)" fill-opacity="1" stroke-width="3.408" stroke-linecap="butt" stroke-linejoin="miter" stroke="rgb(93.333333%, 93.333333%, 93.333333%)" stroke-opacity="1" stroke-miterlimit="4" d="M 66.269531 1.780134 C 24.921875 1.780134 1.699219 23.141741 1.699219 66.835938 L 1.699219 516.967076 C 1.699219 557.748326 22.575335 579.190848 63.922991 579.190848 L 515.915179 579.190848 C 557.262835 579.190848 578.138951 558.881138 578.138951 516.967076 L 578.138951 66.835938 C 578.138951 24.193638 557.262835 1.780134 514.620536 1.780134 C 514.620536 1.780134 66.107701 1.618304 66.269531 1.780134 Z M 66.269531 1.780134 " transform="matrix(0.0482759, 0, 0, 0.0482759, 0, 0)"/>
<path fill-rule="nonzero" fill="rgb(100%, 100%, 100%)" fill-opacity="1" stroke-width="10" stroke-linecap="round" stroke-linejoin="round" stroke="rgb(100%, 100%, 100%)" stroke-opacity="1" stroke-miterlimit="4" d="M 356.755022 527.80971 C 381.110491 515.429688 393.085938 500.541295 406.760603 465.747768 C 414.285714 446.570871 415.661272 444.709821 425.128348 441.473214 C 430.792411 439.53125 441.554129 433.867188 448.998326 428.850446 C 456.442522 423.914621 469.06529 415.823103 477.075893 410.968192 C 485.086496 406.032366 499.974888 395.675223 510.170201 387.907366 C 528.618862 373.666295 528.618862 413.719308 530.884487 420.435268 C 534.6875 431.763393 542.293527 429.012277 546.905692 414.609375 C 557.910156 380.46317 552.327009 337.982701 516.805246 361.124442 C 448.75558 405.46596 425.77567 411.291853 386.774554 393.895089 C 324.712612 366.141183 291.132812 361.690848 254.963728 376.336496 C 243.473772 380.948661 239.023438 381.515067 231.09375 379.411272 C 225.753348 378.035714 213.777902 375.446429 204.553571 373.666295 C 191.283482 371.157924 184.729353 368.002232 173.482143 358.858817 C 156.166295 344.779576 129.22154 331.671317 116.679688 331.266741 C 87.469308 330.457589 97.017299 322.123326 145.566406 306.183036 C 178.337054 295.421317 210.864955 278.833705 248.490513 308.853237 C 264.188058 321.314174 265.725446 321.637835 269.609375 313.060826 C 274.22154 302.865513 271.389509 299.952567 241.612723 284.012277 C 198.889509 261.275112 170.083705 280.856585 113.362165 299.790737 C 31.961496 326.978237 9.386161 343.970424 28.320312 363.713728 C 33.498884 369.135045 36.573661 377.064732 40.295759 394.38058 C 57.368862 475.053013 125.418527 514.701451 166.523438 468.013393 C 177.851562 455.147879 198.889509 417.279576 198.889509 409.673549 C 198.889509 405.870536 200.507812 405.46596 208.761161 407.003348 C 222.112165 409.430804 224.458705 412.18192 220.170201 420.192522 C 217.014509 425.9375 217.5 429.093192 223.730469 446.328125 C 243.635603 500.78404 273.493304 526.757812 318.482143 531.531808 C 332.642299 533.959263 344.53683 533.878348 356.755022 527.80971 Z M 300.276228 512.678571 C 261.841518 499.084821 237.728795 447.056362 251.484375 407.569754 C 266.210938 365.170201 370.186942 392.600446 383.052455 442.201451 C 395.917969 491.640625 350.362723 530.398996 300.276228 512.678571 Z M 104.704241 464.37221 C 62.304688 445.114397 41.914062 365.332031 75.736607 351.171875 C 117.97433 333.613281 163.044085 367.921317 163.044085 417.684152 C 163.044085 461.540179 139.659598 480.231585 104.704241 464.37221 Z M 104.704241 464.37221 " transform="matrix(0.0482759, 0, 0, 0.0482759, 0, 0)"/>
<path fill-rule="nonzero" fill="rgb(100%, 100%, 100%)" fill-opacity="1" d="M 18.582031 1.941406 C 17.824219 1.964844 17.308594 3.03125 18.050781 3.550781 C 18.214844 3.664062 18.242188 3.800781 18.242188 4.539062 C 18.242188 5.007812 18.273438 6.222656 18.308594 7.234375 C 18.371094 9.074219 18.371094 9.074219 18.652344 9.074219 C 18.929688 9.074219 18.929688 9.078125 18.929688 6.464844 C 18.929688 3.847656 18.929688 3.847656 19.175781 3.558594 C 19.644531 3 19.574219 2.335938 19.019531 2.046875 C 18.871094 1.96875 18.722656 1.9375 18.582031 1.941406 Z M 16.5 3.359375 C 16.261719 3.367188 15.9375 3.453125 15.460938 3.605469 C 14.78125 3.828125 14.453125 3.863281 12.792969 3.917969 C 11.753906 3.949219 10.902344 4.003906 10.902344 4.035156 C 10.902344 4.371094 11.675781 4.878906 12.042969 4.785156 C 12.230469 4.738281 12.277344 4.765625 12.277344 4.917969 C 12.277344 5.175781 12.640625 5.417969 13.019531 5.417969 C 13.253906 5.417969 13.355469 5.480469 13.4375 5.664062 C 13.636719 6.097656 14.152344 6.269531 14.65625 6.070312 C 15.050781 5.917969 15.085938 5.917969 15.199219 6.070312 C 15.265625 6.164062 15.441406 6.320312 15.589844 6.417969 C 15.875 6.601562 16.746094 6.660156 17.375 6.535156 C 17.765625 6.457031 17.871094 4.214844 17.492188 4.09375 C 17.386719 4.0625 17.210938 3.882812 17.101562 3.695312 C 16.960938 3.453125 16.804688 3.34375 16.5 3.359375 Z M 20.648438 3.371094 C 20.304688 3.378906 20.132812 3.53125 20.03125 3.847656 C 19.996094 3.953125 19.863281 4.070312 19.726562 4.101562 C 19.347656 4.199219 19.402344 6.398438 19.785156 6.515625 C 20.453125 6.710938 21.527344 6.5625 21.875 6.226562 C 22.199219 5.914062 22.21875 5.910156 22.496094 6.054688 C 23 6.316406 23.46875 6.1875 23.753906 5.707031 C 23.890625 5.476562 23.992188 5.417969 24.261719 5.417969 C 24.621094 5.417969 24.992188 5.140625 24.992188 4.875 C 24.992188 4.765625 25.058594 4.742188 25.230469 4.785156 C 25.542969 4.867188 26.035156 4.597656 26.214844 4.253906 C 26.359375 3.972656 26.359375 3.976562 24.472656 3.917969 C 22.808594 3.871094 22.492188 3.832031 21.800781 3.609375 C 21.285156 3.445312 20.917969 3.363281 20.648438 3.371094 Z M 16.613281 7.160156 C 16.558594 7.160156 16.5 7.164062 16.445312 7.171875 C 14.726562 7.386719 14.375 8.726562 15.785156 9.675781 C 16.234375 9.976562 16.425781 10.023438 16.527344 9.859375 C 16.558594 9.804688 16.808594 9.632812 17.078125 9.480469 C 17.570312 9.199219 17.570312 9.199219 17.195312 9.132812 C 16.46875 9 15.984375 8.699219 15.984375 8.378906 C 15.984375 8.027344 16.25 7.992188 16.65625 8.296875 C 16.996094 8.546875 17.722656 8.53125 17.882812 8.269531 C 18.203125 7.765625 17.445312 7.140625 16.613281 7.160156 Z M 20.59375 7.171875 C 20.230469 7.164062 19.875 7.253906 19.621094 7.46875 C 18.828125 8.132812 19.78125 8.910156 20.621094 8.289062 C 20.976562 8.027344 21.238281 8.066406 21.238281 8.378906 C 21.238281 8.835938 19.796875 9.363281 18.523438 9.367188 C 16.769531 9.375 15.519531 11.113281 16.511719 12.164062 C 16.90625 12.585938 16.96875 12.589844 17.613281 12.25 C 18.117188 11.988281 18.117188 11.988281 17.835938 11.75 C 17.0625 11.101562 17.464844 10.710938 19.179688 10.445312 C 21.203125 10.136719 22.269531 9.40625 22.269531 8.332031 C 22.269531 7.675781 21.402344 7.1875 20.59375 7.171875 Z M 20.683594 10.382812 C 20.648438 10.386719 20.613281 10.402344 20.574219 10.429688 C 20.496094 10.496094 20.226562 10.578125 19.972656 10.613281 C 19.597656 10.664062 19.523438 10.707031 19.574219 10.832031 C 19.730469 11.210938 19.714844 11.320312 19.476562 11.605469 C 19.308594 11.800781 18.96875 12.003906 18.511719 12.179688 C 16.742188 12.851562 16.132812 13.738281 16.824219 14.640625 C 17.125 15.035156 17.113281 15.035156 17.742188 14.710938 C 18.21875 14.460938 18.234375 14.441406 18.046875 14.3125 C 17.476562 13.910156 17.847656 13.457031 19.109375 13.011719 C 20.558594 12.5 21.179688 11.867188 21.042969 11.050781 C 20.972656 10.621094 20.832031 10.375 20.683594 10.382812 Z M 18.636719 10.746094 C 18.339844 10.746094 18.339844 10.746094 18.339844 11.335938 C 18.339844 11.660156 18.359375 11.925781 18.382812 11.925781 C 18.757812 11.925781 18.929688 11.707031 18.929688 11.238281 C 18.929688 10.757812 18.925781 10.746094 18.636719 10.746094 Z M 20.011719 12.9375 C 19.953125 12.933594 19.878906 12.964844 19.761719 13.027344 C 19.601562 13.105469 19.214844 13.246094 18.90625 13.34375 C 18.339844 13.515625 18.339844 13.515625 18.339844 13.992188 C 18.339844 14.46875 18.339844 14.46875 18.636719 14.363281 C 18.902344 14.273438 18.929688 14.222656 18.929688 13.828125 C 18.929688 13.421875 18.945312 13.398438 19.125 13.496094 C 19.769531 13.839844 19.484375 14.34375 18.449219 14.6875 C 17.28125 15.074219 16.675781 16.050781 17.226562 16.65625 C 17.425781 16.878906 17.382812 16.882812 17.773438 16.617188 C 18.023438 16.441406 18.089844 16.335938 18.0625 16.128906 C 18.027344 15.828125 18.175781 15.730469 19.25 15.359375 C 20.542969 14.910156 20.980469 13.964844 20.273438 13.144531 C 20.152344 13.003906 20.09375 12.941406 20.011719 12.9375 Z M 19.523438 15.484375 C 19.25 15.492188 18.875 15.632812 18.4375 15.902344 C 18.15625 16.078125 18.339844 16.351562 18.636719 16.199219 C 18.796875 16.113281 18.929688 15.992188 18.929688 15.929688 C 18.929688 15.84375 18.957031 15.84375 19.039062 15.921875 C 19.207031 16.089844 19.0625 16.234375 18.453125 16.503906 C 18.039062 16.6875 17.746094 16.878906 17.566406 17.078125 C 17.867188 17.199219 18.171875 17.320312 18.480469 17.433594 C 18.542969 17.414062 18.621094 17.394531 18.707031 17.378906 C 19.640625 17.203125 20.011719 16.800781 20.011719 15.953125 C 20.011719 15.632812 19.832031 15.472656 19.523438 15.484375 Z M 19.796875 17.214844 C 19.765625 17.210938 19.730469 17.222656 19.691406 17.242188 C 19.570312 17.308594 19.226562 17.4375 18.929688 17.53125 C 18.898438 17.539062 18.867188 17.550781 18.839844 17.558594 C 19.179688 17.675781 19.519531 17.773438 19.863281 17.847656 C 20 17.558594 19.972656 17.222656 19.796875 17.214844 Z M 19.796875 17.214844 "/>
</svg>
