<?xml version="1.0" encoding="UTF-8"?>
<svg xmlns="http://www.w3.org/2000/svg" xmlns:xlink="http://www.w3.org/1999/xlink" width="28" height="28" viewBox="0 0 28 28">
<path fill-rule="nonzero" fill="rgb(6.666667%, 6.666667%, 6.666667%)" fill-opacity="1" stroke-width="3.408" stroke-linecap="butt" stroke-linejoin="miter" stroke="rgb(93.333333%, 93.333333%, 93.333333%)" stroke-opacity="1" stroke-miterlimit="4" d="M 66.269531 1.780134 C 24.921875 1.780134 1.699219 23.141741 1.699219 66.835938 L 1.699219 516.967076 C 1.699219 557.748326 22.575335 579.190848 63.922991 579.190848 L 515.915179 579.190848 C 557.262835 579.190848 578.138951 558.881138 578.138951 516.967076 L 578.138951 66.835938 C 578.138951 24.193638 557.262835 1.780134 514.620536 1.780134 C 514.620536 1.780134 66.107701 1.618304 66.269531 1.780134 Z M 66.269531 1.780134 " transform="matrix(0.0482759, 0, 0, 0.0482759, 0, 0)"/>
<path fill-rule="evenodd" fill="rgb(100%, 100%, 100%)" fill-opacity="1" d="M 19.332031 18.144531 C 19.933594 18.605469 20.617188 19.203125 20.585938 20.035156 C 20.617188 20.554688 20.597656 21.082031 20.71875 21.589844 C 21.105469 22.199219 21.457031 22.863281 21.566406 23.582031 C 21.621094 24.625 20.835938 25.601562 19.871094 25.914062 C 18.867188 26.121094 17.757812 25.863281 17.023438 25.128906 C 16.539062 24.691406 16.179688 24.039062 15.496094 23.878906 C 14.878906 23.714844 14.210938 23.636719 13.679688 23.234375 C 13.152344 22.898438 12.828125 22.347656 12.53125 21.8125 C 12.203125 21.160156 12.238281 20.351562 12.648438 19.746094 C 13.210938 18.800781 14.386719 18.4375 15.433594 18.5 C 15.875 18.535156 16.339844 18.566406 16.722656 18.296875 C 17.207031 18.007812 17.726562 17.59375 18.328125 17.757812 C 18.683594 17.824219 19.019531 17.964844 19.332031 18.144531 Z M 19.332031 18.144531 "/>
<path fill-rule="evenodd" fill="rgb(100%, 100%, 100%)" fill-opacity="1" d="M 14.179688 13.511719 C 14.605469 13.105469 15.265625 12.890625 15.828125 13.132812 C 16.230469 13.308594 16.558594 13.632812 16.785156 14.003906 C 17.144531 14.757812 17.09375 15.640625 16.890625 16.429688 C 16.796875 16.8125 16.660156 17.199219 16.378906 17.484375 C 16.070312 17.832031 15.585938 17.996094 15.125 17.933594 C 14.476562 17.9375 13.863281 17.519531 13.59375 16.933594 C 13.429688 16.59375 13.328125 16.214844 13.359375 15.835938 C 13.382812 15.007812 13.589844 14.128906 14.179688 13.511719 Z M 14.179688 13.511719 "/>
<path fill-rule="evenodd" fill="rgb(100%, 100%, 100%)" fill-opacity="1" d="M 20.8125 12.671875 C 20.8125 12.671875 21.605469 13.148438 21.441406 14.429688 C 21.441406 14.429688 21.351562 15.269531 20.644531 16.222656 C 20.644531 16.222656 20.019531 17.230469 19.164062 17.289062 C 19.164062 17.289062 17.894531 17.546875 17.542969 15.976562 C 17.542969 15.976562 17.304688 14.871094 17.769531 13.792969 C 17.769531 13.792969 18.242188 12.667969 19.253906 12.429688 C 19.253906 12.429688 20.101562 12.242188 20.8125 12.671875 Z M 20.8125 12.671875 "/>
<path fill-rule="evenodd" fill="rgb(100%, 100%, 100%)" fill-opacity="1" d="M 24.863281 15.378906 C 24.863281 15.378906 25.671875 16.25 24.898438 17.308594 C 24.898438 17.308594 24.421875 18.238281 23.402344 18.742188 C 23.402344 18.742188 22.261719 19.433594 21.480469 19.117188 C 21.480469 19.117188 20.542969 18.890625 20.691406 17.335938 C 20.691406 17.335938 21.101562 15.714844 22.289062 15.164062 C 22.289062 15.164062 23.847656 14.226562 24.863281 15.378906 Z M 24.863281 15.378906 "/>
<path fill-rule="evenodd" fill="rgb(100%, 100%, 100%)" fill-opacity="1" d="M 25.554688 19.660156 C 25.929688 20.074219 25.988281 20.710938 25.75 21.210938 C 25.542969 21.660156 25.1875 22.027344 24.808594 22.339844 C 24.230469 22.785156 23.507812 23.042969 22.78125 23.0625 C 22.25 23.042969 21.804688 22.652344 21.582031 22.1875 C 21.476562 22.027344 21.464844 21.835938 21.488281 21.652344 C 21.535156 21.019531 21.851562 20.40625 22.371094 20.039062 C 22.839844 19.675781 23.355469 19.332031 23.949219 19.238281 C 24.410156 19.140625 24.933594 19.152344 25.328125 19.445312 C 25.414062 19.507812 25.488281 19.578125 25.554688 19.660156 Z M 25.554688 19.660156 "/>
<path fill-rule="nonzero" fill="rgb(100%, 100%, 100%)" fill-opacity="1" d="M 9.089844 20.273438 C 8.367188 19.109375 9.660156 17.601562 10.542969 18.574219 C 10.816406 18.878906 10.6875 18.914062 10.078125 18.699219 C 9.53125 18.507812 9.53125 18.507812 9.46875 19.257812 C 9.4375 19.671875 9.398438 20.070312 9.390625 20.148438 C 9.367188 20.316406 9.164062 20.398438 9.089844 20.273438 Z M 7.695312 18.871094 C 7.664062 18.820312 8.0625 18.507812 8.578125 18.175781 C 9.09375 17.84375 9.519531 17.503906 9.519531 17.421875 C 9.519531 17.308594 9.464844 17.324219 9.289062 17.488281 C 9.003906 17.753906 8.90625 17.757812 8.945312 17.492188 C 8.96875 17.335938 9.109375 17.242188 9.519531 17.117188 C 9.816406 17.023438 10.15625 16.894531 10.28125 16.832031 C 10.601562 16.65625 10.632812 17.289062 10.320312 17.636719 C 10.027344 17.964844 7.785156 19.019531 7.695312 18.871094 Z M 8.203125 17.695312 C 7.695312 17.089844 7.96875 16.566406 9.042969 16.089844 C 9.648438 15.820312 9.792969 15.679688 9.628906 15.511719 C 9.546875 15.429688 9.519531 15.433594 9.519531 15.515625 C 9.519531 15.582031 9.386719 15.699219 9.222656 15.785156 C 8.925781 15.9375 8.742188 15.664062 9.023438 15.492188 C 9.960938 14.914062 10.597656 14.933594 10.597656 15.539062 C 10.597656 16.386719 10.230469 16.789062 9.296875 16.964844 C 8.859375 17.046875 8.757812 17.15625 8.714844 17.59375 C 8.671875 18.039062 8.519531 18.070312 8.203125 17.695312 Z M 7.8125 16.242188 C 7.265625 15.636719 7.871094 14.660156 9.039062 14.273438 C 10.070312 13.933594 10.355469 13.425781 9.710938 13.082031 C 9.53125 12.984375 9.519531 13.011719 9.519531 13.414062 C 9.519531 13.808594 9.492188 13.859375 9.222656 13.953125 C 8.929688 14.054688 8.929688 14.054688 8.929688 13.578125 C 8.929688 13.101562 8.929688 13.101562 9.492188 12.929688 C 9.804688 12.835938 10.1875 12.691406 10.347656 12.613281 C 10.621094 12.476562 10.648438 12.484375 10.863281 12.730469 C 11.566406 13.550781 11.128906 14.5 9.835938 14.945312 C 8.761719 15.320312 8.617188 15.414062 8.652344 15.71875 C 8.675781 15.921875 8.613281 16.03125 8.359375 16.203125 C 7.972656 16.46875 8.015625 16.464844 7.8125 16.242188 Z M 7.410156 14.226562 C 6.722656 13.324219 7.332031 12.4375 9.097656 11.765625 C 9.558594 11.59375 9.898438 11.390625 10.0625 11.191406 C 10.304688 10.90625 10.320312 10.796875 10.164062 10.421875 C 10.109375 10.292969 10.1875 10.25 10.558594 10.199219 C 10.8125 10.164062 11.085938 10.082031 11.164062 10.015625 C 11.355469 9.859375 11.542969 10.109375 11.632812 10.636719 C 11.769531 11.453125 11.144531 12.085938 9.699219 12.597656 C 8.4375 13.042969 8.066406 13.5 8.636719 13.898438 C 8.824219 14.03125 8.808594 14.050781 8.332031 14.296875 C 7.703125 14.621094 7.710938 14.625 7.410156 14.226562 Z M 7.097656 11.75 C 6.105469 10.699219 7.359375 8.964844 9.113281 8.957031 C 10.382812 8.949219 11.828125 8.421875 11.828125 7.964844 C 11.828125 7.652344 11.5625 7.617188 11.210938 7.875 C 10.367188 8.5 9.417969 7.71875 10.207031 7.054688 C 11.023438 6.367188 12.859375 6.964844 12.859375 7.917969 C 12.859375 8.992188 11.792969 9.722656 9.769531 10.035156 C 8.050781 10.296875 7.648438 10.6875 8.421875 11.335938 C 8.703125 11.574219 8.703125 11.574219 8.199219 11.835938 C 7.554688 12.175781 7.496094 12.171875 7.097656 11.75 Z M 8.929688 10.921875 C 8.929688 10.332031 8.929688 10.332031 9.222656 10.332031 C 9.511719 10.332031 9.519531 10.34375 9.519531 10.828125 C 9.519531 11.296875 9.347656 11.511719 8.972656 11.511719 C 8.949219 11.511719 8.929688 11.246094 8.929688 10.921875 Z M 6.375 9.261719 C 4.960938 8.3125 5.316406 6.972656 7.035156 6.757812 C 7.929688 6.644531 8.8125 7.316406 8.472656 7.859375 C 8.308594 8.117188 7.585938 8.132812 7.246094 7.882812 C 6.835938 7.582031 6.570312 7.613281 6.570312 7.964844 C 6.570312 8.285156 7.054688 8.585938 7.78125 8.71875 C 8.15625 8.785156 8.15625 8.785156 7.664062 9.066406 C 7.394531 9.21875 7.148438 9.390625 7.113281 9.445312 C 7.011719 9.609375 6.820312 9.5625 6.375 9.261719 Z M 8.894531 6.820312 C 8.859375 5.808594 8.832031 4.59375 8.832031 4.125 C 8.832031 3.390625 8.804688 3.253906 8.636719 3.136719 C 7.757812 2.519531 8.648438 1.140625 9.605469 1.636719 C 10.164062 1.921875 10.230469 2.589844 9.765625 3.144531 C 9.519531 3.4375 9.519531 3.4375 9.519531 6.050781 C 9.519531 8.664062 9.519531 8.664062 9.238281 8.664062 C 8.960938 8.664062 8.960938 8.664062 8.894531 6.820312 Z M 6.179688 6.003906 C 6.03125 5.90625 5.855469 5.75 5.785156 5.660156 C 5.671875 5.503906 5.640625 5.503906 5.246094 5.660156 C 4.738281 5.855469 4.222656 5.683594 4.027344 5.253906 C 3.941406 5.066406 3.839844 5.003906 3.609375 5.003906 C 3.226562 5.003906 2.867188 4.761719 2.867188 4.507812 C 2.867188 4.351562 2.820312 4.324219 2.632812 4.375 C 2.261719 4.464844 1.492188 3.960938 1.492188 3.625 C 1.492188 3.589844 2.339844 3.535156 3.382812 3.503906 C 5.042969 3.453125 5.367188 3.414062 6.046875 3.195312 C 7.140625 2.839844 7.4375 2.855469 7.691406 3.28125 C 7.800781 3.46875 7.976562 3.648438 8.078125 3.683594 C 8.460938 3.804688 8.351562 6.042969 7.960938 6.125 C 7.335938 6.25 6.460938 6.191406 6.179688 6.003906 Z M 10.375 6.101562 C 9.988281 5.988281 9.933594 3.785156 10.316406 3.691406 C 10.449219 3.65625 10.585938 3.542969 10.621094 3.433594 C 10.796875 2.875 11.214844 2.820312 12.386719 3.199219 C 13.082031 3.421875 13.398438 3.457031 15.058594 3.507812 C 16.945312 3.5625 16.945312 3.5625 16.800781 3.839844 C 16.621094 4.1875 16.128906 4.453125 15.816406 4.375 C 15.644531 4.332031 15.582031 4.355469 15.582031 4.464844 C 15.582031 4.730469 15.207031 5.003906 14.851562 5.003906 C 14.582031 5.003906 14.476562 5.0625 14.34375 5.292969 C 14.054688 5.777344 13.589844 5.90625 13.082031 5.640625 C 12.804688 5.496094 12.785156 5.5 12.464844 5.8125 C 12.117188 6.148438 11.039062 6.300781 10.375 6.101562 Z M 10.375 6.101562 "/>
</svg>
