<?xml version="1.0" encoding="UTF-8"?>
<svg xmlns="http://www.w3.org/2000/svg" xmlns:xlink="http://www.w3.org/1999/xlink" width="24" height="24" viewBox="0 0 24 24">
<path fill-rule="nonzero" fill="rgb(0%, 0%, 0%)" fill-opacity="1" d="M 14.398438 5.601562 C 14.398438 6.925781 13.324219 8 12 8 C 10.675781 8 9.601562 6.925781 9.601562 5.601562 C 9.601562 4.273438 10.675781 3.199219 12 3.199219 C 13.324219 3.199219 14.398438 4.273438 14.398438 5.601562 Z M 9.601562 0.449219 C 9.601562 0.199219 9.398438 0 9.152344 0 C 8.996094 0.0429688 8.855469 0.132812 8.753906 0.257812 L 4.800781 7.34375 C 4.789062 7.414062 4.789062 7.484375 4.800781 7.550781 C 4.800781 7.800781 5 8 5.25 8 C 5.410156 7.960938 5.554688 7.871094 5.664062 7.742188 L 9.601562 0.65625 C 9.609375 0.585938 9.609375 0.515625 9.601562 0.449219 Z M 19.039062 22.71875 L 14.398438 10.222656 C 14.324219 9.859375 14.003906 9.601562 13.632812 9.601562 L 5.632812 9.601562 C 5.191406 9.601562 4.832031 9.957031 4.832031 10.398438 C 4.832031 10.839844 5.191406 11.199219 5.632812 11.199219 L 9.601562 11.199219 L 11.921875 15.214844 L 5.089844 22.59375 C 4.90625 22.742188 4.800781 22.964844 4.800781 23.199219 C 4.800781 23.640625 5.160156 24 5.601562 24 C 5.796875 24 5.984375 23.925781 6.128906 23.792969 L 13.25 17.152344 L 17.664062 23.550781 C 17.808594 23.808594 18.074219 23.964844 18.367188 23.96875 C 18.816406 23.96875 19.183594 23.613281 19.199219 23.167969 C 19.191406 23.007812 19.136719 22.847656 19.039062 22.71875 Z M 19.039062 22.71875 "/>
</svg>
