<?xml version="1.0" encoding="UTF-8"?>
<svg xmlns="http://www.w3.org/2000/svg" xmlns:xlink="http://www.w3.org/1999/xlink" width="24" height="24" viewBox="0 0 24 24">
<path fill-rule="nonzero" fill="rgb(0%, 0%, 0%)" fill-opacity="1" d="M 5.855469 11.199219 L 3.246094 11.199219 C 3.375 9.632812 3.933594 8.085938 4.863281 6.816406 C 5.425781 8.199219 5.757812 9.710938 5.855469 11.199219 Z M 7.574219 11.199219 L 11.199219 11.199219 L 11.199219 3.199219 C 9.265625 3.371094 7.558594 4.179688 6.136719 5.503906 C 6.984375 7.273438 7.472656 9.242188 7.574219 11.199219 Z M 12.800781 3.199219 L 12.800781 11.199219 L 16.425781 11.199219 C 16.527344 9.242188 17.015625 7.273438 17.863281 5.503906 C 16.441406 4.179688 14.734375 3.371094 12.800781 3.199219 Z M 19.136719 6.816406 C 18.574219 8.199219 18.242188 9.710938 18.144531 11.199219 L 20.753906 11.199219 C 20.625 9.632812 20.066406 8.085938 19.136719 6.816406 Z M 22.398438 13.597656 C 22.398438 14.039062 22.042969 14.398438 21.601562 14.398438 L 18.753906 14.398438 L 17.535156 16.828125 L 17.535156 20.636719 C 17.53125 20.757812 17.496094 20.875 17.425781 20.972656 C 17.359375 21.074219 17.261719 21.152344 17.152344 21.199219 C 17.078125 21.21875 17.003906 21.226562 16.929688 21.230469 C 16.851562 21.234375 16.773438 21.21875 16.699219 21.1875 C 16.628906 21.15625 16.5625 21.113281 16.511719 21.054688 L 14.878906 19.4375 L 12.335938 21.132812 C 12.234375 21.195312 12.117188 21.230469 12 21.230469 C 11.882812 21.230469 11.765625 21.195312 11.664062 21.132812 L 9.121094 19.4375 L 7.488281 21.054688 C 7.40625 21.136719 7.304688 21.195312 7.191406 21.222656 C 7.074219 21.246094 6.957031 21.238281 6.847656 21.199219 C 6.738281 21.152344 6.640625 21.074219 6.574219 20.972656 C 6.503906 20.875 6.46875 20.757812 6.464844 20.636719 L 6.464844 16.828125 L 5.246094 14.398438 L 2.398438 14.398438 C 1.957031 14.398438 1.601562 14.039062 1.601562 13.597656 C 1.601562 13.15625 1.957031 12.800781 2.398438 12.800781 L 21.601562 12.800781 C 22.042969 12.800781 22.398438 13.15625 22.398438 13.597656 Z M 10.976562 14.398438 L 6.59375 14.398438 L 7.601562 16.429688 C 7.644531 16.507812 7.664062 16.597656 7.664062 16.683594 L 7.664062 19.179688 L 8.558594 18.300781 Z M 14.144531 18.476562 L 12 15.019531 L 9.855469 18.476562 L 12 19.917969 Z M 17.425781 14.398438 L 13.023438 14.398438 L 15.441406 18.300781 L 16.335938 19.179688 L 16.335938 16.683594 C 16.335938 16.597656 16.355469 16.507812 16.398438 16.429688 Z M 17.425781 14.398438 "/>
</svg>
