<?xml version="1.0" encoding="UTF-8"?>
<svg xmlns="http://www.w3.org/2000/svg" xmlns:xlink="http://www.w3.org/1999/xlink" width="24" height="24" viewBox="0 0 24 24">
<path fill-rule="nonzero" fill="rgb(0%, 0%, 0%)" fill-opacity="1" d="M 9.601562 1.601562 C 9.601562 1.285156 9.695312 0.972656 9.871094 0.710938 C 10.046875 0.449219 10.296875 0.242188 10.585938 0.121094 C 10.878906 0 11.203125 -0.03125 11.511719 0.03125 C 11.824219 0.09375 12.109375 0.246094 12.332031 0.46875 C 12.554688 0.691406 12.707031 0.976562 12.769531 1.289062 C 12.832031 1.597656 12.800781 1.921875 12.679688 2.210938 C 12.558594 2.503906 12.351562 2.753906 12.089844 2.929688 C 11.824219 3.105469 11.515625 3.199219 11.199219 3.199219 C 10.777344 3.199219 10.367188 3.03125 10.070312 2.730469 C 9.769531 2.429688 9.601562 2.023438 9.601562 1.601562 Z M 12.800781 5.601562 C 12.800781 5.570312 12.800781 5.539062 12.800781 5.507812 C 12.789062 5.308594 12.695312 5.121094 12.546875 4.988281 C 12.394531 4.855469 12.199219 4.789062 12 4.800781 L 10.398438 4.800781 C 10.367188 4.796875 10.339844 4.796875 10.308594 4.800781 C 10.105469 4.8125 9.921875 4.902344 9.789062 5.054688 C 9.65625 5.203125 9.585938 5.398438 9.601562 5.601562 L 9.601562 11.199219 L 12.800781 11.199219 Z M 23.761719 11.429688 L 20.480469 7.679688 L 20.617188 6.867188 C 20.621094 6.832031 20.625 6.796875 20.628906 6.765625 C 20.628906 6.660156 20.585938 6.558594 20.511719 6.480469 C 20.4375 6.40625 20.335938 6.363281 20.230469 6.363281 C 20.136719 6.375 20.050781 6.402344 19.976562 6.453125 L 14.398438 11.199219 L 12.800781 11.199219 L 14.398438 12.800781 L 14.398438 15.199219 C 14.398438 15.414062 14.316406 15.617188 14.164062 15.765625 C 14.015625 15.914062 13.8125 16 13.601562 16 C 13.386719 16 13.183594 15.914062 13.035156 15.765625 C 12.882812 15.617188 12.800781 15.414062 12.800781 15.199219 L 12.800781 13.601562 L 9.601562 11.199219 L 6.398438 11.199219 C 6.007812 11.199219 5.621094 11.296875 5.273438 11.480469 C 4.925781 11.664062 4.632812 11.933594 4.410156 12.257812 C 4.203125 11.941406 3.917969 11.675781 3.585938 11.492188 C 3.253906 11.308594 2.882812 11.207031 2.5 11.199219 L 2.398438 11.199219 C 2.09375 11.1875 1.792969 11.238281 1.503906 11.34375 C 1.21875 11.453125 0.957031 11.613281 0.734375 11.820312 C 0.511719 12.03125 0.332031 12.28125 0.207031 12.558594 C 0.0820312 12.835938 0.0117188 13.136719 0 13.441406 L 0 13.578125 C 0.0195312 14.660156 0.328125 15.71875 0.894531 16.640625 C 0.933594 16.6875 0.980469 16.722656 1.03125 16.75 C 1.082031 16.777344 1.140625 16.796875 1.199219 16.800781 C 1.304688 16.800781 1.40625 16.757812 1.484375 16.683594 C 1.558594 16.609375 1.601562 16.507812 1.601562 16.398438 L 1.601562 14.398438 C 1.601562 14.398438 1.566406 12.921875 2.804688 12.800781 C 3.605469 12.722656 4 13.203125 4 13.601562 L 4 17.601562 L 3.199219 20.800781 L 3.199219 23.601562 C 3.199219 23.707031 3.242188 23.808594 3.316406 23.882812 C 3.390625 23.957031 3.492188 24 3.601562 24 C 3.703125 24 3.796875 23.960938 3.871094 23.890625 C 3.945312 23.820312 3.992188 23.726562 4 23.625 L 4 20.800781 L 6.398438 17.601562 L 6.398438 19.199219 L 7.199219 23.679688 C 7.21875 23.769531 7.269531 23.851562 7.339844 23.910156 C 7.414062 23.964844 7.5 24 7.59375 24 C 7.644531 24 7.699219 23.992188 7.746094 23.972656 C 7.796875 23.953125 7.839844 23.925781 7.878906 23.886719 C 7.917969 23.851562 7.945312 23.808594 7.96875 23.757812 C 7.988281 23.710938 8 23.660156 8 23.605469 L 7.769531 19.679688 L 8.800781 17.601562 L 12.800781 17.601562 L 12.800781 19.199219 L 13.613281 23.699219 C 13.636719 23.785156 13.6875 23.859375 13.757812 23.914062 C 13.828125 23.96875 13.910156 24 14 24 C 14.105469 24 14.207031 23.957031 14.28125 23.882812 C 14.359375 23.808594 14.398438 23.707031 14.398438 23.601562 L 14.398438 19.199219 L 14.988281 17.601562 C 15.382812 17.394531 15.691406 17.054688 15.855469 16.640625 L 19.3125 10.613281 C 19.46875 10.894531 19.71875 11.109375 20.015625 11.226562 C 20.316406 11.34375 20.644531 11.351562 20.949219 11.253906 L 22.65625 12.5625 C 22.8125 12.691406 23.011719 12.769531 23.214844 12.777344 C 23.398438 12.777344 23.574219 12.710938 23.710938 12.59375 C 23.851562 12.476562 23.945312 12.316406 23.976562 12.136719 C 23.992188 12.011719 23.984375 11.882812 23.945312 11.761719 C 23.910156 11.636719 23.84375 11.527344 23.761719 11.429688 Z M 23.761719 11.429688 "/>
</svg>
