<?xml version="1.0" encoding="UTF-8"?>
<svg xmlns="http://www.w3.org/2000/svg" xmlns:xlink="http://www.w3.org/1999/xlink" width="24" height="24" viewBox="0 0 24 24">
<path fill-rule="nonzero" fill="rgb(0%, 0%, 0%)" fill-opacity="1" d="M 16.101562 17.945312 C 16.851562 17.125 17.601562 16.308594 18.652344 15.957031 C 20.125 15.46875 21.199219 16.082031 21.640625 16.40625 C 22.796875 17.257812 23.863281 16.054688 22.585938 15.117188 C 21.902344 14.617188 20.273438 13.730469 18.148438 14.441406 C 16.996094 14.824219 16.207031 15.667969 15.417969 16.507812 C 14.777344 17.195312 14.140625 17.878906 13.304688 18.316406 C 12.3125 18.835938 11.601562 18.273438 11.601562 17.300781 L 11.601562 17.28125 C 11.601562 16.003906 10.945312 15.199219 9.601562 15.199219 C 8.816406 15.199219 8.011719 15.613281 7.199219 16 C 5.320312 16.894531 3.492188 18.058594 1.894531 19.382812 C 1.554688 19.660156 1.503906 20.171875 1.785156 20.511719 C 2.1875 20.992188 2.714844 20.769531 3.113281 20.453125 C 3.773438 19.917969 5.960938 18.226562 7.804688 17.347656 C 8.570312 16.984375 9.183594 16.800781 9.601562 16.800781 C 10 16.800781 10 16.960938 10 17.34375 C 9.996094 19.464844 12.0625 20.773438 14.046875 19.734375 C 14.851562 19.3125 15.480469 18.625 16.101562 17.945312 Z M 4 14.398438 C 6.398438 12.800781 9.207031 11.199219 12 11.199219 C 13.199219 11.199219 13.199219 11.800781 13.199219 12.398438 C 13.199219 13 13.199219 13.601562 14.398438 13.601562 C 18.445312 13.601562 22.980469 8.457031 23.199219 4.800781 L 19.199219 6.398438 L 15.453125 4.839844 C 14.472656 4.515625 13.96875 6.03125 14.945312 6.359375 L 16.800781 7.199219 L 14.398438 8 L 8 6 C 7.621094 5.875 7.378906 6.042969 7.199219 6.398438 L 4.800781 11.199219 L 1.601562 12.800781 Z M 8 3.199219 C 8 2.316406 8.714844 1.601562 9.601562 1.601562 C 10.484375 1.601562 11.199219 2.316406 11.199219 3.199219 C 11.199219 4.082031 10.484375 4.800781 9.601562 4.800781 C 8.714844 4.800781 8 4.082031 8 3.199219 Z M 8 3.199219 "/>
</svg>
