<?xml version="1.0" encoding="UTF-8"?>
<svg xmlns="http://www.w3.org/2000/svg" xmlns:xlink="http://www.w3.org/1999/xlink" width="24" height="24" viewBox="0 0 24 24">
<path fill-rule="nonzero" fill="rgb(0%, 0%, 0%)" fill-opacity="1" d="M 8 4.800781 C 7.117188 4.800781 6.398438 4.082031 6.398438 3.199219 C 6.398438 2.316406 7.117188 1.601562 8 1.601562 C 8.882812 1.601562 9.601562 2.316406 9.601562 3.199219 C 9.601562 4.082031 8.882812 4.800781 8 4.800781 Z M 20 16 L 16 16 L 14.398438 11.199219 L 12.800781 8.398438 L 14.398438 8 L 18.078125 9.601562 C 18.523438 9.777344 19.023438 9.5625 19.199219 9.121094 C 19.375 8.679688 19.160156 8.175781 18.71875 8 L 14.398438 6.398438 L 11.199219 6.398438 L 8 8 L 6.398438 9.601562 L 4 9.601562 C 3.558594 9.601562 3.199219 9.957031 3.199219 10.398438 C 3.199219 10.839844 3.558594 11.199219 4 11.199219 L 8 11.199219 L 9.601562 9.601562 L 11.199219 12.800781 L 8 16 L 8 21.601562 C 8 22.042969 8.359375 22.398438 8.800781 22.398438 C 9.242188 22.398438 9.601562 22.042969 9.601562 21.601562 L 9.601562 16.625 L 12.800781 14.398438 L 14.398438 17.601562 L 20 17.601562 C 20.441406 17.601562 20.800781 17.242188 20.800781 16.800781 C 20.800781 16.359375 20.441406 16 20 16 Z M 20 16 "/>
</svg>
