<?xml version="1.0" encoding="UTF-8"?>
<svg xmlns="http://www.w3.org/2000/svg" xmlns:xlink="http://www.w3.org/1999/xlink" width="24" height="24" viewBox="0 0 24 24">
<path fill-rule="nonzero" fill="rgb(0%, 0%, 0%)" fill-opacity="1" d="M 16 1.601562 C 15.574219 1.601562 15.167969 1.769531 14.867188 2.070312 C 14.570312 2.367188 14.398438 2.777344 14.398438 3.199219 C 14.398438 3.625 14.570312 4.03125 14.867188 4.332031 C 15.167969 4.632812 15.574219 4.800781 16 4.800781 C 16.425781 4.800781 16.832031 4.632812 17.132812 4.332031 C 17.429688 4.03125 17.601562 3.625 17.601562 3.199219 C 17.601562 2.777344 17.429688 2.367188 17.132812 2.070312 C 16.832031 1.769531 16.425781 1.601562 16 1.601562 Z M 8.800781 4.800781 C 8.398438 4.800781 7.199219 4.800781 8 6 L 10 9.601562 L 7.199219 9.601562 C 6.757812 9.605469 6.371094 9.761719 6 10 C 4.710938 8.195312 3.585938 8.882812 2.414062 9.601562 C 1.769531 9.996094 1.109375 10.398438 0.398438 10.398438 C 0.296875 10.402344 0.195312 10.445312 0.121094 10.519531 C 0.046875 10.59375 0.00390625 10.695312 0 10.800781 C 0.00390625 10.90625 0.046875 11.003906 0.121094 11.078125 C 0.195312 11.152344 0.296875 11.195312 0.398438 11.199219 C 1 11.230469 1.691406 11.050781 2.378906 10.867188 C 3.429688 10.59375 4.476562 10.316406 5.207031 10.800781 C 5.054688 11.097656 4.800781 12 4.800781 12.800781 L 4.796875 15.214844 C 4.46875 15.542969 4.191406 15.414062 3.910156 15.28125 C 3.683594 15.175781 3.457031 15.070312 3.199219 15.199219 L 1.601562 19.921875 C 1.601562 20.320312 2.230469 20.402344 2.398438 20 L 3.601562 17.191406 C 4.796875 17.191406 7.199219 16 8 14.398438 L 14.398438 16 L 18.398438 20 C 18.714844 20.316406 19.390625 19.777344 19.136719 19.382812 L 16 14.398438 L 19.199219 10.398438 C 19.597656 11.199219 19.992188 11.199219 20.777344 11.199219 L 20.800781 11.199219 L 21.761719 12.398438 C 22.378906 13.175781 23.710938 12.390625 23.199219 11.601562 L 20.535156 7.664062 L 20.800781 7.199219 C 20.898438 6.902344 20.21875 6.277344 20 6.398438 L 16.800781 8.800781 L 14.222656 5.097656 C 14.148438 5.003906 14.054688 4.929688 13.945312 4.878906 C 13.839844 4.828125 13.71875 4.800781 13.601562 4.800781 Z M 14.398438 8.398438 L 15.199219 9.601562 L 10.84375 12.664062 C 10.757812 12.726562 10.65625 12.769531 10.550781 12.792969 C 10.449219 12.816406 10.339844 12.820312 10.234375 12.800781 C 10.128906 12.78125 10.027344 12.738281 9.941406 12.679688 C 9.851562 12.621094 9.773438 12.546875 9.714844 12.457031 C 9.65625 12.367188 9.613281 12.265625 9.59375 12.160156 C 9.574219 12.058594 9.574219 11.949219 9.597656 11.84375 C 9.621094 11.738281 9.664062 11.640625 9.726562 11.554688 C 9.789062 11.464844 9.867188 11.390625 9.957031 11.335938 Z M 14.398438 8.398438 "/>
</svg>
