<?xml version="1.0" encoding="UTF-8"?>
<svg xmlns="http://www.w3.org/2000/svg" xmlns:xlink="http://www.w3.org/1999/xlink" width="24" height="24" viewBox="0 0 24 24">
<path fill-rule="nonzero" fill="rgb(0%, 0%, 0%)" fill-opacity="1" d="M 12.800781 1.601562 L 17.601562 6.398438 L 19.199219 6.398438 C 22.398438 6.398438 22.398438 1.601562 19.199219 1.601562 Z M 13.539062 4.800781 C 13.347656 4.8125 13.167969 4.898438 13.035156 5.035156 L 9.035156 9.035156 C 8.953125 9.113281 8.890625 9.207031 8.851562 9.3125 C 8.8125 9.417969 8.792969 9.53125 8.800781 9.644531 C 8.804688 9.757812 8.835938 9.867188 8.886719 9.96875 C 8.941406 10.066406 9.011719 10.15625 9.101562 10.226562 L 12.554688 12.988281 L 10.511719 16.386719 C 10.402344 16.570312 10.371094 16.789062 10.421875 16.996094 C 10.472656 17.199219 10.605469 17.378906 10.789062 17.488281 C 10.96875 17.597656 11.1875 17.628906 11.394531 17.578125 C 11.601562 17.527344 11.777344 17.394531 11.886719 17.210938 L 14.289062 13.210938 C 14.386719 13.046875 14.425781 12.847656 14.390625 12.660156 C 14.355469 12.46875 14.253906 12.296875 14.101562 12.175781 L 11.6875 10.242188 L 14.398438 7.53125 L 16.234375 9.367188 C 16.308594 9.441406 16.394531 9.5 16.492188 9.539062 C 16.589844 9.578125 16.695312 9.601562 16.800781 9.601562 L 20.800781 9.601562 C 21.011719 9.601562 21.214844 9.515625 21.367188 9.367188 C 21.515625 9.214844 21.601562 9.011719 21.601562 8.800781 C 21.601562 8.585938 21.515625 8.382812 21.367188 8.234375 C 21.214844 8.085938 21.011719 8 20.800781 8 L 17.132812 8 L 14.167969 5.035156 C 14.085938 4.953125 13.988281 4.890625 13.878906 4.847656 C 13.769531 4.808594 13.65625 4.792969 13.539062 4.800781 Z M 4.71875 11.199219 C 3.460938 11.222656 2.257812 11.738281 1.375 12.632812 C 0.496094 13.53125 0 14.742188 0 16 C 0 17.273438 0.503906 18.492188 1.40625 19.394531 C 2.304688 20.292969 3.527344 20.800781 4.800781 20.800781 C 6.074219 20.800781 7.292969 20.292969 8.195312 19.394531 C 9.09375 18.492188 9.601562 17.273438 9.601562 16 C 9.601562 15.363281 9.472656 14.730469 9.226562 14.144531 C 8.980469 13.558594 8.621094 13.023438 8.164062 12.578125 C 7.710938 12.128906 7.171875 11.777344 6.582031 11.542969 C 5.988281 11.304688 5.355469 11.1875 4.71875 11.199219 Z M 19.117188 11.199219 C 17.859375 11.222656 16.660156 11.738281 15.777344 12.632812 C 14.894531 13.53125 14.398438 14.742188 14.398438 16 C 14.398438 17.273438 14.90625 18.492188 15.804688 19.394531 C 16.707031 20.292969 17.925781 20.800781 19.199219 20.800781 C 20.472656 20.800781 21.695312 20.292969 22.59375 19.394531 C 23.496094 18.492188 24 17.273438 24 16 C 24 15.363281 23.875 14.730469 23.628906 14.144531 C 23.382812 13.558594 23.019531 13.023438 22.566406 12.578125 C 22.113281 12.128906 21.574219 11.777344 20.980469 11.542969 C 20.390625 11.304688 19.753906 11.1875 19.117188 11.199219 Z M 19.277344 12.800781 C 20.113281 12.820312 20.90625 13.167969 21.492188 13.765625 C 22.074219 14.363281 22.398438 15.164062 22.398438 16 C 22.398438 16.847656 22.0625 17.664062 21.460938 18.261719 C 20.863281 18.863281 20.046875 19.199219 19.199219 19.199219 C 18.351562 19.199219 17.539062 18.863281 16.9375 18.261719 C 16.335938 17.664062 16 16.847656 16 16 C 16 15.574219 16.085938 15.152344 16.25 14.757812 C 16.417969 14.363281 16.660156 14.007812 16.964844 13.710938 C 17.269531 13.410156 17.632812 13.175781 18.03125 13.019531 C 18.425781 12.863281 18.851562 12.789062 19.277344 12.800781 Z M 19.277344 12.800781 "/>
</svg>
