<?xml version="1.0" encoding="UTF-8"?>
<svg xmlns="http://www.w3.org/2000/svg" xmlns:xlink="http://www.w3.org/1999/xlink" width="24" height="24" viewBox="0 0 24 24">
<path fill-rule="nonzero" fill="rgb(0%, 0%, 0%)" fill-opacity="1" d="M 5.441406 1.761719 C 5.441406 1.921875 5.441406 2.078125 5.441406 2.078125 C 5.441406 2.71875 5.917969 3.199219 6.558594 3.199219 C 7.039062 3.199219 7.359375 2.878906 7.519531 2.398438 L 7.839844 1.601562 L 16.800781 5.28125 L 10.558594 9.601562 C 9.921875 10.078125 9.921875 10.71875 10.078125 11.359375 L 11.519531 14.71875 L 9.441406 20.960938 C 9.121094 21.761719 9.761719 22.398438 10.398438 22.398438 C 10.878906 22.398438 11.199219 22.238281 11.359375 21.601562 L 13.601562 15.199219 L 13.761719 15.679688 L 13.761719 21.28125 C 13.761719 21.28125 13.761719 22.398438 14.878906 22.398438 C 16 22.398438 16 21.28125 16 21.28125 L 16 16 C 16 15.679688 16 15.519531 15.839844 15.199219 L 13.601562 9.761719 L 17.921875 6.71875 C 18.238281 6.398438 18.558594 6.238281 18.558594 5.761719 C 18.558594 5.28125 18.238281 4.960938 17.921875 4.800781 L 6.398438 0.160156 C 6.257812 0.160156 6.210938 0.1875 6.078125 0.320312 Z M 8.800781 4.800781 C 7.519531 4.800781 6.398438 5.921875 6.398438 7.199219 C 6.398438 8.480469 7.519531 9.601562 8.800781 9.601562 C 10.078125 9.601562 11.199219 8.480469 11.199219 7.199219 C 11.199219 5.921875 10.078125 4.800781 8.800781 4.800781 Z M 8.800781 4.800781 "/>
</svg>
