<?xml version="1.0" encoding="UTF-8"?>
<svg xmlns="http://www.w3.org/2000/svg" xmlns:xlink="http://www.w3.org/1999/xlink" width="24" height="24" viewBox="0 0 24 24">
<path fill-rule="nonzero" fill="rgb(0%, 0%, 0%)" fill-opacity="1" d="M 21.003906 2.992188 C 18.539062 0.527344 13.71875 1.75 10.957031 4.671875 C 9.136719 6.578125 8.070312 9.078125 7.949219 11.710938 C 8.007812 13.214844 7.695312 14.710938 7.039062 16.0625 C 6.851562 16.007812 6.652344 16.007812 6.464844 16.054688 C 6.277344 16.101562 6.105469 16.199219 5.964844 16.335938 L 1.980469 20.335938 C 1.773438 20.542969 1.65625 20.824219 1.65625 21.121094 C 1.65625 21.414062 1.773438 21.695312 1.980469 21.902344 L 2.09375 22.015625 C 2.304688 22.21875 2.585938 22.332031 2.878906 22.332031 C 3.171875 22.332031 3.449219 22.21875 3.660156 22.015625 L 7.660156 18.03125 C 7.796875 17.898438 7.898438 17.726562 7.945312 17.542969 C 7.996094 17.355469 8 17.160156 7.949219 16.976562 C 9.542969 16.359375 11.234375 16.042969 12.941406 16.046875 C 15.351562 15.816406 17.605469 14.761719 19.324219 13.054688 C 22.574219 9.808594 23.328125 5.3125 21.003906 2.992188 Z M 17.484375 2.929688 C 18.453125 2.894531 19.398438 3.246094 20.109375 3.902344 C 20.566406 4.433594 20.878906 5.066406 21.019531 5.75 C 21.160156 6.433594 21.121094 7.144531 20.910156 7.808594 L 16.1875 3.070312 C 16.613281 2.976562 17.050781 2.929688 17.484375 2.929688 Z M 10.171875 13.824219 C 9.707031 13.265625 9.390625 12.597656 9.253906 11.882812 C 9.121094 11.171875 9.171875 10.433594 9.40625 9.742188 L 14.269531 14.609375 C 13.574219 14.8125 12.839844 14.847656 12.125 14.710938 C 11.414062 14.574219 10.746094 14.269531 10.171875 13.824219 Z M 14.78125 14.449219 L 9.566406 9.214844 C 9.757812 8.613281 10.023438 8.03125 10.347656 7.488281 L 16.507812 13.648438 C 15.964844 13.976562 15.382812 14.246094 14.78125 14.449219 Z M 16.925781 13.390625 L 10.621094 7.070312 C 10.960938 6.550781 11.359375 6.066406 11.804688 5.632812 L 18.367188 12.191406 C 17.929688 12.640625 17.445312 13.042969 16.925781 13.390625 Z M 18.703125 11.855469 L 12.140625 5.296875 C 12.554688 4.90625 13.003906 4.558594 13.484375 4.257812 L 19.757812 10.527344 C 19.449219 11.003906 19.09375 11.445312 18.703125 11.855469 Z M 20.011719 10.113281 L 13.917969 4 C 14.460938 3.660156 15.046875 3.402344 15.660156 3.230469 L 20.78125 8.351562 C 20.589844 8.964844 20.332031 9.554688 20.011719 10.113281 Z M 20.011719 10.113281 "/>
</svg>
