<?xml version="1.0" encoding="UTF-8"?>
<svg xmlns="http://www.w3.org/2000/svg" xmlns:xlink="http://www.w3.org/1999/xlink" width="24" height="24" viewBox="0 0 24 24">
<path fill-rule="nonzero" fill="rgb(0%, 0%, 0%)" fill-opacity="1" d="M 19.148438 16.363281 C 18.300781 17.171875 17.238281 17.71875 16.089844 17.9375 L 6.027344 7.894531 C 6.277344 6.753906 6.835938 5.703125 7.636719 4.851562 C 11.246094 1.238281 15.96875 0.359375 19.804688 4.195312 C 23.640625 8.03125 22.761719 12.753906 19.148438 16.363281 Z M 7.96875 18.9375 C 8.535156 18.539062 9.167969 18.234375 9.839844 18.042969 C 10.832031 17.929688 11.84375 18.019531 12.800781 18.3125 L 5.671875 11.199219 C 5.984375 12.195312 6.070312 13.246094 5.925781 14.277344 C 5.75 14.914062 5.46875 15.515625 5.089844 16.0625 C 3.375 18.082031 1.679688 18.824219 1.679688 19.5625 C 1.722656 20.277344 2.027344 20.957031 2.535156 21.464844 C 3.042969 21.972656 3.722656 22.277344 4.4375 22.320312 C 5.175781 22.320312 5.90625 20.699219 7.96875 18.9375 Z M 7.96875 18.9375 "/>
</svg>
