<?xml version="1.0" encoding="UTF-8"?>
<svg xmlns="http://www.w3.org/2000/svg" xmlns:xlink="http://www.w3.org/1999/xlink" width="24" height="24" viewBox="0 0 24 24">
<path fill-rule="nonzero" fill="rgb(0%, 0%, 0%)" fill-opacity="1" d="M 12.601562 18.382812 C 12.753906 18.535156 12.960938 18.621094 13.175781 18.621094 C 13.390625 18.621094 13.597656 18.535156 13.753906 18.382812 L 14.902344 17.230469 L 18.390625 20.6875 L 17.800781 21.28125 C 17.195312 21.925781 16.375 22.324219 15.496094 22.398438 L 13.183594 22.398438 C 12.296875 22.328125 11.472656 21.929688 10.863281 21.28125 L 2.753906 13.167969 C 2.09375 12.566406 1.679688 11.738281 1.601562 10.847656 L 1.601562 8.527344 C 1.679688 7.636719 2.09375 6.8125 2.753906 6.207031 L 3.328125 5.632812 L 6.816406 9.105469 L 5.648438 10.273438 C 5.496094 10.425781 5.410156 10.632812 5.410156 10.847656 C 5.410156 11.0625 5.496094 11.269531 5.648438 11.425781 Z M 20.152344 18.992188 C 20.304688 18.847656 20.425781 18.675781 20.511719 18.480469 C 20.597656 18.289062 20.644531 18.082031 20.648438 17.871094 C 20.65625 17.664062 20.617188 17.453125 20.542969 17.257812 C 20.46875 17.0625 20.355469 16.882812 20.210938 16.730469 L 19 15.519531 C 18.855469 15.367188 18.683594 15.246094 18.488281 15.160156 C 18.296875 15.074219 18.089844 15.027344 17.878906 15.023438 C 17.671875 15.015625 17.460938 15.054688 17.265625 15.128906 C 17.070312 15.203125 16.890625 15.316406 16.738281 15.460938 L 16.679688 15.519531 Z M 8.503906 7.390625 C 8.65625 7.246094 8.777344 7.074219 8.863281 6.882812 C 8.949219 6.691406 8.996094 6.484375 9 6.273438 C 9.007812 6.0625 8.972656 5.855469 8.894531 5.65625 C 8.820312 5.460938 8.707031 5.28125 8.5625 5.128906 L 7.351562 3.921875 C 7.207031 3.769531 7.035156 3.644531 6.84375 3.558594 C 6.648438 3.472656 6.441406 3.429688 6.234375 3.421875 C 6.023438 3.417969 5.8125 3.453125 5.617188 3.527344 C 5.421875 3.605469 5.242188 3.71875 5.089844 3.863281 L 5.023438 3.921875 Z M 16 3.199219 L 16 6.398438 L 12.800781 6.398438 L 12.800781 8 L 16 8 L 16 11.199219 L 17.601562 11.199219 L 17.601562 8 L 20.800781 8 L 20.800781 6.398438 L 17.601562 6.398438 L 17.601562 3.199219 Z M 16 3.199219 "/>
</svg>
