<?xml version="1.0" encoding="UTF-8"?>
<svg xmlns="http://www.w3.org/2000/svg" xmlns:xlink="http://www.w3.org/1999/xlink" width="24" height="24" viewBox="0 0 24 24">
<path fill-rule="nonzero" fill="rgb(0%, 0%, 0%)" fill-opacity="1" d="M 12 1.601562 C 8.800781 1.601562 0.800781 2 1.601562 2.800781 L 11.199219 12.800781 L 11.199219 19.199219 C 11.199219 20.800781 6.398438 20 6.398438 22.398438 L 17.601562 22.398438 C 17.601562 20 12.800781 20.800781 12.800781 19.199219 L 12.800781 12.800781 L 22.398438 2.800781 C 23.199219 2 15.199219 1.601562 12 1.601562 Z M 12 3.199219 C 16 3.199219 19.601562 3.601562 19.601562 3.601562 L 18.398438 4.800781 L 5.601562 4.800781 L 4.398438 3.601562 C 4.398438 3.601562 8 3.199219 12 3.199219 Z M 12 3.199219 "/>
</svg>
