<?xml version="1.0" encoding="UTF-8"?>
<svg xmlns="http://www.w3.org/2000/svg" xmlns:xlink="http://www.w3.org/1999/xlink" width="24" height="24" viewBox="0 0 24 24">
<path fill-rule="nonzero" fill="rgb(0%, 0%, 0%)" fill-opacity="1" d="M 8.46875 7.011719 L 9.601562 15.199219 C 9.59375 15.410156 9.632812 15.621094 9.710938 15.816406 C 9.792969 16.015625 9.910156 16.191406 10.058594 16.339844 C 10.207031 16.492188 10.386719 16.609375 10.582031 16.6875 C 10.777344 16.765625 10.988281 16.804688 11.199219 16.800781 L 12.800781 16.800781 C 13.011719 16.804688 13.222656 16.765625 13.417969 16.6875 C 13.613281 16.609375 13.792969 16.492188 13.941406 16.339844 C 14.089844 16.191406 14.207031 16.015625 14.289062 15.816406 C 14.367188 15.621094 14.40625 15.410156 14.398438 15.199219 L 15.53125 7.011719 C 15.53125 4.800781 12 4.800781 12 4.800781 C 12 4.800781 8.464844 4.800781 8.46875 7.011719 Z M 5.601562 8 C 3.199219 8 3.199219 9.601562 3.199219 9.601562 L 4.800781 16 L 7.199219 16 C 7.527344 16 7.84375 15.875 8.082031 15.644531 C 8.320312 15.417969 8.457031 15.105469 8.46875 14.777344 L 7.199219 8 Z M 2.398438 12 C 1.773438 11.996094 1.164062 12.230469 0.707031 12.660156 C 0.304688 13.023438 0.0507812 13.527344 0 14.070312 L 0 17.601562 L 1.410156 17.601562 C 1.636719 17.621094 1.863281 17.597656 2.078125 17.527344 C 2.289062 17.457031 2.488281 17.34375 2.65625 17.191406 C 2.824219 17.042969 2.960938 16.859375 3.054688 16.652344 C 3.148438 16.449219 3.195312 16.226562 3.199219 16 Z M 18.398438 8 C 20.800781 8 20.800781 9.601562 20.800781 9.601562 L 19.199219 16 L 16.800781 16 C 16.472656 16 16.152344 15.875 15.917969 15.644531 C 15.679688 15.417969 15.542969 15.105469 15.53125 14.777344 L 16.800781 8 Z M 21.601562 12 C 22.226562 11.996094 22.835938 12.230469 23.292969 12.660156 C 23.695312 13.023438 23.949219 13.527344 24 14.070312 L 24 17.601562 L 22.589844 17.601562 C 22.363281 17.621094 22.136719 17.597656 21.921875 17.527344 C 21.710938 17.457031 21.511719 17.34375 21.34375 17.191406 C 21.175781 17.042969 21.039062 16.859375 20.945312 16.652344 C 20.851562 16.449219 20.804688 16.226562 20.800781 16 Z M 21.601562 12 "/>
</svg>
