<?xml version="1.0" encoding="UTF-8"?>
<svg xmlns="http://www.w3.org/2000/svg" xmlns:xlink="http://www.w3.org/1999/xlink" width="24" height="24" viewBox="0 0 24 24">
<path fill-rule="nonzero" fill="rgb(0%, 0%, 0%)" fill-opacity="1" d="M 20.800781 6.398438 C 20.800781 5.976562 20.632812 5.570312 20.332031 5.269531 C 20.03125 4.96875 19.625 4.800781 19.199219 4.800781 C 19.199219 4.375 19.03125 3.96875 18.730469 3.667969 C 18.429688 3.367188 18.023438 3.199219 17.601562 3.199219 C 17.175781 3.199219 16.769531 3.367188 16.46875 3.667969 C 16.167969 3.96875 16 4.375 16 4.800781 L 16 8.109375 C 15.082031 7.148438 13.851562 6.550781 12.53125 6.421875 C 11.210938 6.289062 9.886719 6.636719 8.796875 7.394531 C 7.707031 8.152344 6.925781 9.277344 6.589844 10.5625 C 6.257812 11.84375 6.394531 13.207031 6.972656 14.398438 L 3.199219 14.398438 C 2.777344 14.398438 2.367188 14.570312 2.070312 14.867188 C 1.769531 15.167969 1.601562 15.574219 1.601562 16 C 1.601562 16.425781 1.769531 16.832031 2.070312 17.132812 C 2.367188 17.429688 2.777344 17.601562 3.199219 17.601562 C 3.199219 18.023438 3.367188 18.429688 3.667969 18.730469 C 3.96875 19.03125 4.375 19.199219 4.800781 19.199219 C 4.800781 19.625 4.96875 20.03125 5.269531 20.332031 C 5.570312 20.632812 5.976562 20.800781 6.398438 20.800781 C 6.824219 20.800781 7.230469 20.632812 7.53125 20.332031 C 7.832031 20.03125 8 19.625 8 19.199219 L 8 15.890625 C 8.917969 16.851562 10.148438 17.449219 11.46875 17.578125 C 12.789062 17.710938 14.113281 17.363281 15.203125 16.605469 C 16.292969 15.847656 17.074219 14.722656 17.410156 13.441406 C 17.742188 12.15625 17.609375 10.792969 17.027344 9.601562 L 20.800781 9.601562 C 21.222656 9.601562 21.632812 9.429688 21.929688 9.132812 C 22.230469 8.832031 22.398438 8.425781 22.398438 8 C 22.398438 7.574219 22.230469 7.167969 21.929688 6.867188 C 21.632812 6.570312 21.222656 6.398438 20.800781 6.398438 Z M 12 15.988281 C 11.113281 15.992188 10.25 15.699219 9.550781 15.152344 C 8.847656 14.609375 8.351562 13.847656 8.132812 12.988281 C 7.914062 12.128906 7.992188 11.21875 8.351562 10.410156 C 8.707031 9.597656 9.328125 8.929688 10.109375 8.511719 C 10.441406 8.585938 10.746094 8.753906 10.984375 9 C 11.441406 9.644531 11.660156 10.429688 11.601562 11.21875 L 11.601562 12.75 C 11.53125 13.742188 11.820312 14.726562 12.414062 15.523438 C 12.539062 15.664062 12.679688 15.789062 12.832031 15.898438 C 12.558594 15.957031 12.277344 15.988281 12 15.988281 Z M 13.890625 15.488281 C 13.558594 15.414062 13.253906 15.246094 13.015625 15 C 12.558594 14.355469 12.339844 13.570312 12.398438 12.78125 L 12.398438 11.25 C 12.46875 10.257812 12.179688 9.273438 11.585938 8.476562 C 11.460938 8.335938 11.320312 8.210938 11.167969 8.101562 C 12.105469 7.898438 13.085938 8.039062 13.925781 8.5 C 14.765625 8.960938 15.410156 9.710938 15.742188 10.613281 C 16.074219 11.511719 16.070312 12.5 15.730469 13.398438 C 15.390625 14.292969 14.734375 15.035156 13.890625 15.488281 Z M 13.890625 15.488281 "/>
</svg>
