<?xml version="1.0" encoding="UTF-8"?>
<svg xmlns="http://www.w3.org/2000/svg" xmlns:xlink="http://www.w3.org/1999/xlink" width="24" height="24" viewBox="0 0 24 24">
<path fill-rule="nonzero" fill="rgb(0%, 0%, 0%)" fill-opacity="1" d="M 8.703125 13.070312 C 9.847656 13.074219 10.964844 12.722656 11.902344 12.0625 C 12.644531 12.582031 13.503906 12.910156 14.398438 13.023438 L 15.105469 13.023438 L 12.800781 21.917969 C 12.738281 22.0625 12.636719 22.1875 12.503906 22.273438 C 12.375 22.359375 12.222656 22.40625 12.0625 22.40625 C 11.90625 22.40625 11.753906 22.359375 11.621094 22.273438 C 11.492188 22.1875 11.390625 22.0625 11.328125 21.917969 Z M 18.304688 7.515625 C 18.304688 8.363281 17.96875 9.179688 17.367188 9.777344 C 16.765625 10.378906 15.953125 10.714844 15.105469 10.714844 C 14.253906 10.714844 13.441406 10.378906 12.839844 9.777344 C 12.242188 9.179688 11.902344 8.363281 11.902344 7.515625 C 11.902344 8.148438 11.714844 8.765625 11.363281 9.292969 C 11.011719 9.820312 10.511719 10.230469 9.929688 10.472656 C 9.34375 10.714844 8.699219 10.777344 8.078125 10.652344 C 7.457031 10.53125 6.890625 10.226562 6.441406 9.777344 C 5.992188 9.332031 5.6875 8.761719 5.566406 8.140625 C 5.441406 7.519531 5.503906 6.875 5.746094 6.289062 C 5.988281 5.707031 6.398438 5.207031 6.925781 4.855469 C 7.453125 4.503906 8.070312 4.316406 8.703125 4.316406 L 8.894531 4.316406 C 8.714844 3.832031 8.65625 3.3125 8.722656 2.800781 C 8.785156 2.285156 8.972656 1.796875 9.269531 1.375 C 9.5625 0.949219 9.957031 0.605469 10.414062 0.367188 C 10.871094 0.125 11.378906 0 11.894531 0 C 12.414062 0 12.921875 0.125 13.378906 0.367188 C 13.835938 0.605469 14.226562 0.949219 14.523438 1.375 C 14.816406 1.796875 15.003906 2.285156 15.070312 2.800781 C 15.136719 3.3125 15.074219 3.832031 14.894531 4.316406 L 15.105469 4.316406 C 15.523438 4.316406 15.941406 4.398438 16.328125 4.558594 C 16.71875 4.722656 17.070312 4.957031 17.367188 5.253906 C 17.664062 5.550781 17.898438 5.90625 18.058594 6.292969 C 18.222656 6.683594 18.304688 7.097656 18.300781 7.519531 Z M 18.304688 7.515625 "/>
</svg>
