<?xml version="1.0" encoding="UTF-8"?>
<svg xmlns="http://www.w3.org/2000/svg" xmlns:xlink="http://www.w3.org/1999/xlink" width="24" height="24" viewBox="0 0 24 24">
<path fill-rule="nonzero" fill="rgb(0%, 0%, 0%)" fill-opacity="1" d="M 7.132812 19.183594 L 1.601562 12.800781 L 1.601562 11.199219 L 22.398438 11.199219 L 22.398438 12.800781 L 16.804688 19.183594 Z M 6.382812 4 C 6.382812 3.789062 6.296875 3.585938 6.148438 3.433594 C 5.996094 3.285156 5.792969 3.199219 5.582031 3.199219 C 5.367188 3.199219 5.164062 3.285156 5.015625 3.433594 C 4.867188 3.585938 4.78125 3.789062 4.78125 4 L 4.78125 4.90625 L 1.90625 5.496094 C 1.800781 5.515625 1.710938 5.574219 1.648438 5.664062 C 1.589844 5.75 1.570312 5.859375 1.589844 5.964844 C 1.609375 6.066406 1.667969 6.160156 1.757812 6.21875 C 1.84375 6.277344 1.953125 6.300781 2.054688 6.28125 L 4.78125 5.835938 L 4.78125 6.742188 L 1.980469 6.800781 C 1.875 6.800781 1.773438 6.84375 1.699219 6.917969 C 1.625 6.992188 1.582031 7.09375 1.582031 7.199219 C 1.582031 7.304688 1.625 7.40625 1.699219 7.484375 C 1.773438 7.558594 1.875 7.601562 1.980469 7.601562 L 4.78125 7.65625 L 4.78125 9.597656 L 6.382812 9.597656 Z M 21.582031 6.398438 L 9.582031 6.820312 L 9.582031 4.792969 L 21.730469 3.074219 C 21.941406 3.035156 22.125 2.914062 22.242188 2.738281 C 22.363281 2.5625 22.40625 2.347656 22.367188 2.136719 C 22.328125 1.929688 22.207031 1.746094 22.03125 1.625 C 21.855469 1.507812 21.640625 1.460938 21.429688 1.503906 L 9.566406 3.929688 C 9.550781 3.722656 9.453125 3.53125 9.300781 3.398438 C 9.144531 3.261719 8.945312 3.191406 8.738281 3.199219 C 8.535156 3.207031 8.339844 3.296875 8.199219 3.445312 C 8.058594 3.59375 7.980469 3.792969 7.980469 4 L 7.980469 4.363281 L 7.191406 4.527344 L 7.191406 5.089844 L 7.980469 4.960938 L 7.980469 6.875 L 7.191406 6.890625 L 7.191406 7.628906 L 21.582031 8 C 21.792969 8 21.996094 7.914062 22.148438 7.765625 C 22.296875 7.617188 22.382812 7.414062 22.382812 7.199219 C 22.382812 6.988281 22.296875 6.785156 22.148438 6.632812 C 21.996094 6.484375 21.792969 6.398438 21.582031 6.398438 Z M 16 20.800781 L 8 20.800781 L 8 21.722656 L 16 21.722656 Z M 16 20.800781 "/>
</svg>
