<?xml version="1.0" encoding="UTF-8"?>
<svg xmlns="http://www.w3.org/2000/svg" xmlns:xlink="http://www.w3.org/1999/xlink" width="24" height="24" viewBox="0 0 24 24">
<path fill-rule="nonzero" fill="rgb(0%, 0%, 0%)" fill-opacity="1" d="M 18.292969 16.140625 L 22.277344 16.140625 L 22.277344 17.34375 L 18.964844 17.34375 C 20.175781 18.28125 21.082031 19.566406 21.558594 21.023438 L 20.425781 21.410156 C 19.949219 19.941406 18.960938 18.695312 17.640625 17.894531 C 17.183594 18.3125 16.601562 18.566406 15.984375 18.621094 L 13.5 20.777344 L 10.429688 20.777344 L 7.972656 18.597656 C 7.335938 18.539062 6.726562 18.296875 6.226562 17.894531 C 4.902344 18.691406 3.914062 19.941406 3.4375 21.410156 L 2.300781 21.023438 C 2.78125 19.566406 3.683594 18.285156 4.898438 17.34375 L 1.582031 17.34375 L 1.582031 16.140625 L 5.574219 16.140625 L 6.957031 15.058594 L 5.332031 12.410156 C 5.191406 12.433594 5.046875 12.449219 4.902344 12.457031 C 4.464844 12.464844 4.03125 12.382812 3.625 12.21875 C 3.222656 12.054688 2.855469 11.808594 2.546875 11.496094 C 2.238281 11.1875 2 10.816406 1.839844 10.410156 C 1.679688 10 1.605469 9.566406 1.617188 9.128906 C 1.617188 5.800781 4.785156 2.472656 4.785156 2.472656 L 3.605469 9.589844 L 6.367188 9.585938 L 7.984375 4.777344 L 7.984375 9.570312 C 7.921875 10.4375 7.519531 11.25 6.867188 11.828125 L 8.234375 14.058594 L 8.367188 13.953125 C 9.414062 13.210938 10.667969 12.808594 11.949219 12.808594 C 13.234375 12.808594 14.488281 13.210938 15.535156 13.953125 L 15.628906 14.027344 L 17.019531 11.765625 C 16.417969 11.183594 16.050781 10.402344 15.992188 9.570312 L 15.992188 4.777344 L 17.566406 9.585938 L 20.371094 9.589844 L 19.195312 2.472656 C 19.195312 2.472656 22.363281 5.800781 22.363281 9.128906 C 22.378906 9.566406 22.300781 10.003906 22.140625 10.410156 C 21.980469 10.816406 21.738281 11.1875 21.433594 11.5 C 21.125 11.808594 20.757812 12.054688 20.351562 12.21875 C 19.945312 12.386719 19.511719 12.464844 19.074219 12.457031 C 18.890625 12.453125 18.707031 12.433594 18.523438 12.398438 L 16.90625 15.03125 L 18.253906 16.085938 C 18.273438 16.101562 18.273438 16.125 18.292969 16.140625 Z M 18.292969 16.140625 "/>
</svg>
