<?xml version="1.0" encoding="UTF-8"?>
<svg xmlns="http://www.w3.org/2000/svg" xmlns:xlink="http://www.w3.org/1999/xlink" width="24" height="24" viewBox="0 0 24 24">
<path fill-rule="nonzero" fill="rgb(0%, 0%, 0%)" fill-opacity="1" d="M 19.226562 20 L 23.199219 20 L 19.199219 24 L 19.199219 20.027344 C 18.71875 20.511719 18.066406 20.789062 17.382812 20.796875 C 16.804688 20.796875 16.246094 20.601562 15.792969 20.242188 C 14.601562 19.222656 13.644531 17.957031 12.992188 16.535156 C 12.335938 15.109375 12 13.558594 12 11.992188 C 12 10.425781 12.34375 8.875 13 7.453125 C 13.65625 6.027344 14.613281 4.765625 15.804688 3.746094 C 16.300781 3.363281 16.914062 3.171875 17.539062 3.207031 C 18.164062 3.242188 18.753906 3.503906 19.199219 3.9375 L 19.199219 0 L 23.199219 4 L 19.257812 4 C 19.328125 4.066406 19.390625 4.132812 19.453125 4.207031 C 19.664062 4.476562 19.816406 4.785156 19.90625 5.113281 C 19.996094 5.441406 20.023438 5.785156 19.980469 6.125 C 19.9375 6.464844 19.828125 6.789062 19.660156 7.085938 C 19.488281 7.382812 19.265625 7.644531 18.996094 7.851562 C 18.425781 8.382812 17.972656 9.023438 17.664062 9.734375 C 17.355469 10.445312 17.199219 11.214844 17.199219 11.992188 C 17.199219 12.777344 17.363281 13.558594 17.679688 14.277344 C 17.996094 14.996094 18.457031 15.644531 19.035156 16.179688 C 19.5625 16.617188 19.894531 17.242188 19.964844 17.925781 C 20.035156 18.605469 19.835938 19.289062 19.40625 19.824219 C 19.351562 19.890625 19.285156 19.941406 19.226562 20 Z M 4.007812 0 L 2.40625 8.800781 C 2.171875 10.089844 5.257812 10.691406 5.207031 12 L 4.804688 22.398438 C 4.796875 22.613281 4.832031 22.824219 4.910156 23.023438 C 4.988281 23.21875 5.105469 23.398438 5.257812 23.550781 C 5.40625 23.699219 5.585938 23.816406 5.785156 23.894531 C 5.980469 23.972656 6.195312 24.007812 6.40625 24 C 6.617188 24.007812 6.832031 23.972656 7.027344 23.894531 C 7.226562 23.816406 7.40625 23.699219 7.554688 23.550781 C 7.707031 23.398438 7.824219 23.21875 7.902344 23.023438 C 7.980469 22.824219 8.015625 22.613281 8.007812 22.398438 L 7.605469 12 C 7.554688 10.691406 10.378906 10.109375 10.40625 8.800781 L 8.804688 0 L 8.007812 0 L 8.40625 6.398438 L 7.207031 7.199219 L 6.804688 0 L 6.007812 0 L 5.605469 7.199219 L 4.40625 6.398438 L 4.804688 0 Z M 4.007812 0 "/>
</svg>
