<?xml version="1.0" encoding="UTF-8"?>
<svg xmlns="http://www.w3.org/2000/svg" xmlns:xlink="http://www.w3.org/1999/xlink" width="24" height="24" viewBox="0 0 24 24">
<path fill-rule="nonzero" fill="rgb(0%, 0%, 0%)" fill-opacity="1" d="M 2.230469 12.691406 L 0.0390625 11.703125 C 2.472656 6.328125 6.917969 2.125 12.421875 0 L 12.464844 0.109375 L 13.285156 2.238281 L 13.277344 2.242188 C 8.375 4.148438 4.410156 7.898438 2.230469 12.691406 Z M 19.769531 20.625 L 3.871094 13.460938 C 5.878906 9.054688 9.527344 5.605469 14.039062 3.847656 L 14.042969 3.847656 L 15.351562 7.242188 C 15.304688 7.238281 15.265625 7.214844 15.222656 7.214844 C 14.9375 7.214844 14.660156 7.28125 14.414062 7.414062 C 14.164062 7.546875 13.953125 7.738281 13.796875 7.972656 C 13.640625 8.207031 13.542969 8.476562 13.519531 8.757812 C 13.492188 9.039062 13.535156 9.320312 13.648438 9.582031 C 13.757812 9.839844 13.929688 10.066406 14.152344 10.242188 C 14.371094 10.417969 14.632812 10.539062 14.910156 10.585938 C 15.1875 10.636719 15.472656 10.617188 15.738281 10.53125 C 16.007812 10.441406 16.25 10.289062 16.441406 10.085938 L 20.304688 20.121094 C 20.332031 20.195312 20.335938 20.273438 20.320312 20.351562 C 20.300781 20.429688 20.261719 20.5 20.207031 20.550781 C 20.148438 20.605469 20.078125 20.644531 20 20.65625 C 19.921875 20.667969 19.839844 20.660156 19.769531 20.628906 Z M 11.882812 12.03125 C 11.886719 11.832031 11.855469 11.636719 11.785156 11.449219 C 11.710938 11.265625 11.605469 11.097656 11.464844 10.953125 C 11.328125 10.8125 11.164062 10.699219 10.980469 10.621094 C 10.796875 10.542969 10.601562 10.503906 10.402344 10.503906 C 10.203125 10.503906 10.007812 10.542969 9.824219 10.621094 C 9.640625 10.699219 9.476562 10.8125 9.339844 10.953125 C 9.199219 11.097656 9.09375 11.265625 9.023438 11.449219 C 8.949219 11.636719 8.917969 11.832031 8.921875 12.03125 C 8.9375 12.414062 9.097656 12.78125 9.375 13.046875 C 9.648438 13.3125 10.019531 13.464844 10.402344 13.464844 C 10.785156 13.464844 11.15625 13.3125 11.429688 13.046875 C 11.707031 12.78125 11.867188 12.414062 11.882812 12.03125 Z M 16.707031 15.28125 C 16.707031 14.914062 16.570312 14.558594 16.324219 14.285156 C 16.078125 14.015625 15.738281 13.84375 15.375 13.808594 C 15.007812 13.769531 14.640625 13.871094 14.347656 14.089844 C 14.050781 14.3125 13.847656 14.632812 13.777344 14.992188 C 13.707031 15.351562 13.769531 15.726562 13.960938 16.042969 C 14.148438 16.355469 14.449219 16.589844 14.800781 16.695312 C 15.152344 16.804688 15.53125 16.773438 15.863281 16.617188 C 16.195312 16.460938 16.457031 16.183594 16.597656 15.84375 C 16.671875 15.664062 16.710938 15.472656 16.707031 15.277344 Z M 16.707031 15.28125 "/>
</svg>
