<?xml version="1.0" encoding="UTF-8"?>
<svg xmlns="http://www.w3.org/2000/svg" xmlns:xlink="http://www.w3.org/1999/xlink" width="24" height="24" viewBox="0 0 24 24">
<path fill-rule="nonzero" fill="rgb(0%, 0%, 0%)" fill-opacity="1" d="M 12.800781 8 C 12.800781 8 16 7.839844 16 5.441406 C 16 3.945312 14.683594 3.535156 13.5625 3.183594 C 12.726562 2.921875 12 2.695312 12 2.078125 C 12 0.617188 12.800781 0 12.800781 0 C 12.800781 0 11.199219 0.851562 11.199219 2.398438 C 11.199219 3.535156 12.066406 3.9375 12.894531 4.324219 C 13.664062 4.679688 14.398438 5.023438 14.398438 5.921875 C 14.398438 7.519531 12.800781 8 12.800781 8 Z M 18.941406 10.679688 C 18.199219 13.792969 17.257812 17.773438 14.398438 19.199219 L 14.398438 22.398438 L 9.601562 22.398438 L 9.601562 19.199219 C 6.742188 17.773438 5.800781 13.792969 5.058594 10.679688 C 4.972656 10.304688 4.886719 9.941406 4.800781 9.601562 L 19.199219 9.601562 C 19.113281 9.941406 19.027344 10.304688 18.941406 10.679688 Z M 11.199219 6.398438 C 11.199219 8 8.800781 8 8.800781 8 C 8.800781 8 10.070312 7.839844 10.070312 6.878906 C 10.070312 6.441406 9.625 6.167969 9.148438 5.875 C 8.597656 5.535156 8 5.167969 8 4.480469 C 8 3.144531 9.601562 2.398438 9.601562 2.398438 C 9.601562 2.398438 8.800781 2.835938 8.800781 4 C 8.800781 4.621094 9.363281 4.867188 9.945312 5.117188 C 10.5625 5.382812 11.199219 5.660156 11.199219 6.398438 Z M 11.199219 6.398438 "/>
</svg>
