<?xml version="1.0" encoding="UTF-8"?>
<svg xmlns="http://www.w3.org/2000/svg" xmlns:xlink="http://www.w3.org/1999/xlink" width="28" height="28" viewBox="0 0 28 28">
<defs>
<filter id="filter-remove-color" x="0%" y="0%" width="100%" height="100%">
<feColorMatrix color-interpolation-filters="sRGB" values="0 0 0 0 1 0 0 0 0 1 0 0 0 0 1 0 0 0 1 0" />
</filter>
<mask id="mask-0">
<g filter="url(#filter-remove-color)">
<rect x="-2.8" y="-2.8" width="33.6" height="33.6" fill="rgb(0%, 0%, 0%)" fill-opacity="0.1"/>
</g>
</mask>
<clipPath id="clip-0">
<path clip-rule="nonzero" d="M 4 0 L 15 0 L 15 13 L 4 13 Z M 4 0 "/>
</clipPath>
<clipPath id="clip-1">
<rect x="0" y="0" width="28" height="28"/>
</clipPath>
<g id="source-10" clip-path="url(#clip-1)">
<path fill-rule="evenodd" fill="rgb(100%, 100%, 100%)" fill-opacity="1" d="M 8.847656 1.558594 C 8.324219 5.246094 6.671875 5.28125 6.488281 7.183594 C 6.304688 9.097656 8.253906 10.28125 8.574219 10.359375 C 8.574219 10.359375 7.660156 9.300781 7.746094 8.398438 C 7.804688 7.773438 8.0625 7.546875 8.546875 6.863281 C 8.898438 6.371094 9.292969 5.695312 9.582031 4.699219 C 10.613281 5.601562 11.054688 6.128906 11.261719 7.21875 C 11.46875 8.308594 10.617188 10.269531 10.617188 10.269531 C 13.695312 7.949219 12.90625 4.40625 8.847656 1.558594 Z M 8.847656 1.558594 "/>
<g clip-path="url(#clip-0)">
<path fill="none" stroke-width="6.674019" stroke-linecap="square" stroke-linejoin="miter" stroke="rgb(100%, 100%, 100%)" stroke-opacity="1" stroke-miterlimit="4" d="M 183.272879 24.285156 C 172.430246 100.669085 138.203125 101.397321 134.400112 140.803013 C 130.597098 180.451451 170.973772 204.96875 177.608817 206.587054 C 177.608817 206.587054 158.674665 184.65904 160.454799 165.967634 C 161.668527 153.021205 167.008929 148.328125 177.042411 134.167969 C 184.324777 123.972656 192.49721 109.97433 198.484933 89.34096 C 219.84654 108.032366 228.989955 118.955915 233.27846 141.53125 C 237.566964 164.106585 219.927455 204.726004 219.927455 204.726004 C 283.688616 156.662388 267.34375 83.272321 183.272879 24.285156 Z M 183.272879 24.285156 " transform="matrix(0.0482759, 0, 0, 0.0482759, 0, 0.386207)"/>
</g>
</g>
<mask id="mask-1">
<g filter="url(#filter-remove-color)">
<rect x="-2.8" y="-2.8" width="33.6" height="33.6" fill="rgb(0%, 0%, 0%)" fill-opacity="0.2"/>
</g>
</mask>
<clipPath id="clip-2">
<rect x="0" y="0" width="28" height="28"/>
</clipPath>
<g id="source-14" clip-path="url(#clip-2)">
<path fill-rule="evenodd" fill="rgb(100%, 100%, 100%)" fill-opacity="1" stroke-width="6.674019" stroke-linecap="square" stroke-linejoin="miter" stroke="rgb(100%, 100%, 100%)" stroke-opacity="1" stroke-miterlimit="4" d="M 177.608817 206.587054 C 177.608817 206.587054 158.674665 184.65904 160.454799 165.967634 C 161.668527 153.021205 167.008929 148.328125 177.042411 134.167969 C 184.324777 123.972656 192.49721 109.97433 198.484933 89.34096 C 219.84654 108.032366 228.989955 118.955915 233.27846 141.53125 C 237.566964 164.106585 219.927455 204.726004 219.927455 204.726004 C 204.715402 215.568638 194.439174 211.361049 177.608817 206.587054 Z M 177.608817 206.587054 " transform="matrix(0.0482759, 0, 0, 0.0482759, 0, 0.386207)"/>
</g>
</defs>
<path fill-rule="nonzero" fill="rgb(6.666667%, 6.666667%, 6.666667%)" fill-opacity="1" stroke-width="3.408" stroke-linecap="butt" stroke-linejoin="miter" stroke="rgb(93.333333%, 93.333333%, 93.333333%)" stroke-opacity="1" stroke-miterlimit="4" d="M 66.269531 1.780134 C 24.921875 1.780134 1.699219 23.141741 1.699219 66.835938 L 1.699219 516.967076 C 1.699219 557.748326 22.575335 579.190848 63.922991 579.190848 L 515.915179 579.190848 C 557.262835 579.190848 578.138951 558.800223 578.138951 516.967076 L 578.138951 66.835938 C 578.138951 24.193638 557.262835 1.780134 514.620536 1.780134 C 514.620536 1.780134 66.107701 1.618304 66.269531 1.780134 Z M 66.269531 1.780134 " transform="matrix(0.0482759, 0, 0, 0.0482759, 0, 0)"/>
<path fill-rule="nonzero" fill="rgb(100%, 100%, 100%)" fill-opacity="1" stroke-width="10" stroke-linecap="round" stroke-linejoin="round" stroke="rgb(100%, 100%, 100%)" stroke-opacity="1" stroke-miterlimit="4" d="M 119.33501 184.076027 C 129.553629 291.586203 121.997003 394.802843 95.377071 520.689359 L 299.491839 520.689359 C 272.871907 394.802843 265.22941 291.586203 275.448029 184.076027 C 242.044308 198.674054 222.981002 196.613156 197.39152 198.502313 C 171.887907 196.613156 152.738731 198.674054 119.33501 184.076027 Z M 119.33501 184.076027 " transform="matrix(0.0454899, 0, 0, 0.0454899, 0.641777, 2.333435)"/>
<path fill-rule="nonzero" fill="rgb(100%, 100%, 100%)" fill-opacity="1" stroke-width="8.368833" stroke-linecap="round" stroke-linejoin="round" stroke="rgb(100%, 100%, 100%)" stroke-opacity="1" stroke-miterlimit="4" d="M 272.184941 400.2127 L 504.808797 400.2127 L 504.808797 520.77523 L 272.184941 520.77523 Z M 272.184941 400.2127 " transform="matrix(0.0454899, 0, 0, 0.0454899, 0.641777, 2.333435)"/>
<path fill="none" stroke-width="6.674019" stroke-linecap="square" stroke-linejoin="miter" stroke="rgb(100%, 100%, 100%)" stroke-opacity="1" stroke-miterlimit="4" d="M 183.272879 24.285156 C 172.430246 100.669085 138.203125 101.397321 134.400112 140.803013 C 130.597098 180.451451 170.973772 204.96875 177.608817 206.587054 C 177.608817 206.587054 158.674665 184.65904 160.454799 165.967634 C 161.668527 153.021205 167.008929 148.328125 177.042411 134.167969 C 184.324777 123.972656 192.49721 109.97433 198.484933 89.34096 C 219.84654 108.032366 228.989955 118.955915 233.27846 141.53125 C 237.566964 164.106585 219.927455 204.726004 219.927455 204.726004 C 283.688616 156.662388 267.34375 83.272321 183.272879 24.285156 Z M 183.272879 24.285156 " transform="matrix(0.0482759, 0, 0, 0.0482759, 0, 0.386207)"/>
<g mask="url(#mask-0)">
<use xlink:href="#source-10"/>
</g>
<g mask="url(#mask-1)">
<use xlink:href="#source-14"/>
</g>
</svg>
