<?xml version="1.0" encoding="UTF-8"?>
<svg xmlns="http://www.w3.org/2000/svg" xmlns:xlink="http://www.w3.org/1999/xlink" width="28" height="28" viewBox="0 0 28 28">
<path fill-rule="nonzero" fill="rgb(6.666667%, 6.666667%, 6.666667%)" fill-opacity="1" stroke-width="3.408" stroke-linecap="butt" stroke-linejoin="miter" stroke="rgb(93.333333%, 93.333333%, 93.333333%)" stroke-opacity="1" stroke-miterlimit="4" d="M 66.269531 1.780134 C 24.921875 1.780134 1.699219 23.141741 1.699219 66.835938 L 1.699219 516.967076 C 1.699219 557.748326 22.575335 579.190848 63.922991 579.190848 L 515.915179 579.190848 C 557.262835 579.190848 578.138951 558.800223 578.138951 516.967076 L 578.138951 66.835938 C 578.138951 24.193638 557.262835 1.780134 514.620536 1.780134 C 514.620536 1.780134 66.107701 1.618304 66.269531 1.780134 Z M 66.269531 1.780134 " transform="matrix(0.0482759, 0, 0, 0.0482759, 0, 0)"/>
<path fill-rule="nonzero" fill="rgb(100%, 100%, 100%)" fill-opacity="1" d="M 4.425781 18.488281 C 4.125 18.488281 3.839844 18.703125 3.757812 18.988281 L 3.445312 20.101562 L 6.421875 20.101562 L 6.621094 18.488281 Z M 7.773438 18.488281 L 7.574219 20.101562 L 11.121094 20.101562 L 11.226562 18.488281 Z M 12.371094 18.488281 L 12.265625 20.101562 L 15.640625 20.101562 L 15.53125 18.488281 Z M 16.675781 18.488281 L 16.78125 20.101562 L 20.328125 20.101562 L 20.128906 18.488281 Z M 21.28125 18.488281 L 21.480469 20.101562 L 24.460938 20.101562 L 24.144531 18.988281 C 24.0625 18.703125 23.777344 18.488281 23.480469 18.488281 Z M 3.21875 21.015625 L 2.734375 22.730469 L 6.113281 22.730469 L 6.324219 21.015625 Z M 7.476562 21.015625 L 7.265625 22.730469 L 10.953125 22.730469 L 11.066406 21.015625 Z M 12.210938 21.015625 L 12.097656 22.730469 L 15.804688 22.730469 L 15.691406 21.015625 Z M 16.835938 21.015625 L 16.949219 22.730469 L 20.636719 22.730469 L 20.425781 21.015625 Z M 21.578125 21.015625 L 21.789062 22.730469 L 25.171875 22.730469 L 24.6875 21.015625 Z M 2.441406 23.757812 L 2.105469 24.949219 C 2.046875 25.15625 2.089844 25.386719 2.214844 25.554688 C 2.34375 25.726562 2.554688 25.832031 2.765625 25.832031 L 5.734375 25.832031 L 5.988281 23.757812 Z M 7.140625 23.757812 L 6.886719 25.832031 L 10.75 25.832031 L 10.886719 23.757812 Z M 12.03125 23.757812 L 11.894531 25.832031 L 16.011719 25.832031 L 15.875 23.757812 Z M 17.015625 23.757812 L 17.152344 25.832031 L 21.015625 25.832031 L 20.761719 23.757812 Z M 21.914062 23.757812 L 22.167969 25.832031 L 25.136719 25.832031 C 25.347656 25.832031 25.558594 25.726562 25.6875 25.554688 C 25.816406 25.386719 25.859375 25.15625 25.800781 24.949219 L 25.460938 23.757812 Z M 21.914062 23.757812 "/>
<path fill-rule="nonzero" fill="rgb(100%, 100%, 100%)" fill-opacity="1" stroke-width="11.267599" stroke-linecap="round" stroke-linejoin="round" stroke="rgb(100%, 100%, 100%)" stroke-opacity="1" stroke-miterlimit="4" d="M 481.995219 122.027986 C 481.995219 163.967096 447.988071 197.974243 405.957789 197.974243 C 364.018679 197.974243 330.011531 163.967096 330.011531 122.027986 C 330.011531 79.997704 364.018679 45.990556 405.957789 45.990556 C 447.988071 45.990556 481.995219 79.997704 481.995219 122.027986 Z M 481.995219 122.027986 " transform="matrix(0.0428449, 0, 0, 0.0428449, 1.524767, 3.369385)"/>
<path fill="none" stroke-width="20" stroke-linecap="round" stroke-linejoin="round" stroke="rgb(100%, 100%, 100%)" stroke-opacity="1" stroke-miterlimit="4" d="M 489.455915 171.06529 L 537.357701 170.984375 " transform="matrix(0.0482759, 0, 0, 0.0482759, 0, 0.386207)"/>
<path fill="none" stroke-width="20" stroke-linecap="round" stroke-linejoin="round" stroke="rgb(100%, 100%, 100%)" stroke-opacity="1" stroke-miterlimit="4" d="M 391.87221 264.117746 L 391.87221 312.019531 " transform="matrix(0.0482759, 0, 0, 0.0482759, 0, 0.386207)"/>
<path fill="none" stroke-width="20" stroke-linecap="round" stroke-linejoin="round" stroke="rgb(100%, 100%, 100%)" stroke-opacity="1" stroke-miterlimit="4" d="M 439.450335 257.078125 L 461.621094 299.477679 " transform="matrix(0.0482759, 0, 0, 0.0482759, 0, 0.386207)"/>
<path fill="none" stroke-width="20" stroke-linecap="round" stroke-linejoin="round" stroke="rgb(100%, 100%, 100%)" stroke-opacity="1" stroke-miterlimit="4" d="M 476.671317 221.718192 L 517.371652 246.801897 " transform="matrix(0.0482759, 0, 0, 0.0482759, 0, 0.386207)"/>
<path fill="none" stroke-width="20" stroke-linecap="round" stroke-linejoin="round" stroke="rgb(100%, 100%, 100%)" stroke-opacity="1" stroke-miterlimit="4" d="M 439.450335 85.699777 L 461.621094 43.219308 " transform="matrix(0.0482759, 0, 0, 0.0482759, 0, 0.386207)"/>
<path fill="none" stroke-width="20" stroke-linecap="round" stroke-linejoin="round" stroke="rgb(100%, 100%, 100%)" stroke-opacity="1" stroke-miterlimit="4" d="M 476.671317 121.05971 L 517.371652 95.976004 " transform="matrix(0.0482759, 0, 0, 0.0482759, 0, 0.386207)"/>
<path fill="none" stroke-width="20" stroke-linecap="round" stroke-linejoin="round" stroke="rgb(100%, 100%, 100%)" stroke-opacity="1" stroke-miterlimit="4" d="M 293.155692 170.013393 L 245.334821 170.094308 " transform="matrix(0.0482759, 0, 0, 0.0482759, 0, 0.386207)"/>
<path fill="none" stroke-width="20" stroke-linecap="round" stroke-linejoin="round" stroke="rgb(100%, 100%, 100%)" stroke-opacity="1" stroke-miterlimit="4" d="M 390.739397 72.915179 L 390.739397 25.013393 " transform="matrix(0.0482759, 0, 0, 0.0482759, 0, 0.386207)"/>
<path fill="none" stroke-width="20" stroke-linecap="round" stroke-linejoin="round" stroke="rgb(100%, 100%, 100%)" stroke-opacity="1" stroke-miterlimit="4" d="M 343.242188 83.919643 L 321.071429 41.520089 " transform="matrix(0.0482759, 0, 0, 0.0482759, 0, 0.386207)"/>
<path fill="none" stroke-width="20" stroke-linecap="round" stroke-linejoin="round" stroke="rgb(100%, 100%, 100%)" stroke-opacity="1" stroke-miterlimit="4" d="M 305.94029 119.360491 L 265.239955 94.195871 " transform="matrix(0.0482759, 0, 0, 0.0482759, 0, 0.386207)"/>
<path fill="none" stroke-width="20" stroke-linecap="round" stroke-linejoin="round" stroke="rgb(100%, 100%, 100%)" stroke-opacity="1" stroke-miterlimit="4" d="M 390.739397 268.163504 L 390.739397 315.984375 " transform="matrix(0.0482759, 0, 0, 0.0482759, 0, 0.386207)"/>
<path fill="none" stroke-width="20" stroke-linecap="round" stroke-linejoin="round" stroke="rgb(100%, 100%, 100%)" stroke-opacity="1" stroke-miterlimit="4" d="M 343.242188 257.078125 L 321.071429 299.477679 " transform="matrix(0.0482759, 0, 0, 0.0482759, 0, 0.386207)"/>
<path fill="none" stroke-width="20" stroke-linecap="round" stroke-linejoin="round" stroke="rgb(100%, 100%, 100%)" stroke-opacity="1" stroke-miterlimit="4" d="M 305.94029 221.718192 L 265.239955 246.801897 " transform="matrix(0.0482759, 0, 0, 0.0482759, 0, 0.386207)"/>
</svg>
