<?xml version="1.0" encoding="UTF-8"?>
<svg xmlns="http://www.w3.org/2000/svg" xmlns:xlink="http://www.w3.org/1999/xlink" width="28" height="28" viewBox="0 0 28 28">
<defs>
<filter id="filter-remove-color" x="0%" y="0%" width="100%" height="100%">
<feColorMatrix color-interpolation-filters="sRGB" values="0 0 0 0 1 0 0 0 0 1 0 0 0 0 1 0 0 0 1 0" />
</filter>
<mask id="mask-0">
<g filter="url(#filter-remove-color)">
<rect x="-2.8" y="-2.8" width="33.6" height="33.6" fill="rgb(0%, 0%, 0%)" fill-opacity="0.6"/>
</g>
</mask>
<clipPath id="clip-0">
<rect x="0" y="0" width="28" height="28"/>
</clipPath>
<g id="source-7" clip-path="url(#clip-0)">
<path fill-rule="nonzero" fill="rgb(100%, 100%, 100%)" fill-opacity="1" d="M 1.578125 21.132812 L 10.21875 21.132812 L 10.21875 22.824219 L 1.578125 22.824219 Z M 1.578125 21.132812 "/>
</g>
<mask id="mask-1">
<g filter="url(#filter-remove-color)">
<rect x="-2.8" y="-2.8" width="33.6" height="33.6" fill="rgb(0%, 0%, 0%)" fill-opacity="0.6"/>
</g>
</mask>
<clipPath id="clip-1">
<rect x="0" y="0" width="28" height="28"/>
</clipPath>
<g id="source-11" clip-path="url(#clip-1)">
<path fill-rule="nonzero" fill="rgb(100%, 100%, 100%)" fill-opacity="1" d="M 1.578125 18.574219 L 10.21875 18.574219 L 10.21875 20.265625 L 1.578125 20.265625 Z M 1.578125 18.574219 "/>
</g>
<mask id="mask-2">
<g filter="url(#filter-remove-color)">
<rect x="-2.8" y="-2.8" width="33.6" height="33.6" fill="rgb(0%, 0%, 0%)" fill-opacity="0.6"/>
</g>
</mask>
<clipPath id="clip-2">
<rect x="0" y="0" width="28" height="28"/>
</clipPath>
<g id="source-15" clip-path="url(#clip-2)">
<path fill-rule="nonzero" fill="rgb(100%, 100%, 100%)" fill-opacity="1" d="M 9.816406 16.003906 L 1.578125 16.003906 L 1.578125 17.699219 L 10.21875 17.699219 L 10.21875 16.480469 C 10.125 16.386719 10.03125 16.285156 9.945312 16.179688 C 9.898438 16.125 9.859375 16.0625 9.816406 16.003906 Z M 9.816406 16.003906 "/>
</g>
<mask id="mask-3">
<g filter="url(#filter-remove-color)">
<rect x="-2.8" y="-2.8" width="33.6" height="33.6" fill="rgb(0%, 0%, 0%)" fill-opacity="0.6"/>
</g>
</mask>
<clipPath id="clip-3">
<rect x="0" y="0" width="28" height="28"/>
</clipPath>
<g id="source-19" clip-path="url(#clip-3)">
<path fill-rule="nonzero" fill="rgb(100%, 100%, 100%)" fill-opacity="1" d="M 8.875 13.433594 L 1.578125 13.433594 L 1.578125 15.125 L 9.292969 15.125 C 9.273438 15.085938 9.253906 15.046875 9.234375 15.007812 C 9.175781 14.867188 9.121094 14.71875 9.074219 14.570312 C 9.03125 14.421875 8.992188 14.273438 8.960938 14.117188 C 8.929688 13.964844 8.902344 13.804688 8.886719 13.644531 C 8.878906 13.574219 8.878906 13.503906 8.875 13.433594 Z M 8.875 13.433594 "/>
</g>
<mask id="mask-4">
<g filter="url(#filter-remove-color)">
<rect x="-2.8" y="-2.8" width="33.6" height="33.6" fill="rgb(0%, 0%, 0%)" fill-opacity="0.6"/>
</g>
</mask>
<clipPath id="clip-4">
<rect x="0" y="0" width="28" height="28"/>
</clipPath>
<g id="source-25" clip-path="url(#clip-4)">
<path fill-rule="nonzero" fill="rgb(100%, 100%, 100%)" fill-opacity="1" d="M 9.453125 10.875 L 1.578125 10.875 L 1.578125 12.558594 L 8.90625 12.558594 C 8.921875 12.441406 8.9375 12.320312 8.960938 12.203125 C 8.992188 12.046875 9.03125 11.898438 9.074219 11.75 C 9.121094 11.601562 9.175781 11.457031 9.234375 11.3125 C 9.296875 11.171875 9.363281 11.03125 9.4375 10.898438 C 9.441406 10.890625 9.445312 10.882812 9.453125 10.875 Z M 9.453125 10.875 "/>
</g>
<mask id="mask-5">
<g filter="url(#filter-remove-color)">
<rect x="-2.8" y="-2.8" width="33.6" height="33.6" fill="rgb(0%, 0%, 0%)" fill-opacity="0.6"/>
</g>
</mask>
<clipPath id="clip-5">
<rect x="0" y="0" width="28" height="28"/>
</clipPath>
<g id="source-29" clip-path="url(#clip-5)">
<path fill-rule="nonzero" fill="rgb(100%, 100%, 100%)" fill-opacity="1" d="M 1.578125 8.304688 L 1.578125 10 L 10.074219 10 C 10.121094 9.945312 10.167969 9.890625 10.21875 9.839844 L 10.21875 8.304688 Z M 1.578125 8.304688 "/>
</g>
<mask id="mask-6">
<g filter="url(#filter-remove-color)">
<rect x="-2.8" y="-2.8" width="33.6" height="33.6" fill="rgb(0%, 0%, 0%)" fill-opacity="0.6"/>
</g>
</mask>
<clipPath id="clip-6">
<rect x="0" y="0" width="28" height="28"/>
</clipPath>
<g id="source-33" clip-path="url(#clip-6)">
<path fill-rule="nonzero" fill="rgb(100%, 100%, 100%)" fill-opacity="1" d="M 1.578125 5.738281 L 10.21875 5.738281 L 10.21875 7.429688 L 1.578125 7.429688 Z M 1.578125 5.738281 "/>
</g>
<mask id="mask-7">
<g filter="url(#filter-remove-color)">
<rect x="-2.8" y="-2.8" width="33.6" height="33.6" fill="rgb(0%, 0%, 0%)" fill-opacity="0.6"/>
</g>
</mask>
<clipPath id="clip-7">
<rect x="0" y="0" width="28" height="28"/>
</clipPath>
<g id="source-37" clip-path="url(#clip-7)">
<path fill-rule="nonzero" fill="rgb(100%, 100%, 100%)" fill-opacity="1" d="M 18.746094 21.351562 C 18.875 21.375 19 21.386719 19.128906 21.386719 C 19.464844 21.386719 19.785156 21.308594 20.070312 21.183594 C 20.367188 21.042969 20.691406 20.964844 21.042969 20.964844 C 21.386719 20.964844 21.714844 21.042969 22.011719 21.183594 C 22.292969 21.308594 22.621094 21.386719 22.953125 21.386719 C 23.289062 21.386719 23.605469 21.308594 23.898438 21.183594 C 24.1875 21.042969 24.519531 20.964844 24.863281 20.964844 C 25.210938 20.964844 25.542969 21.042969 25.835938 21.183594 C 26.121094 21.308594 26.4375 21.386719 26.78125 21.386719 L 26.78125 22.792969 C 26.441406 22.792969 26.121094 22.722656 25.835938 22.597656 C 25.539062 22.457031 25.207031 22.378906 24.863281 22.378906 C 24.523438 22.378906 24.1875 22.457031 23.898438 22.597656 C 23.605469 22.722656 23.289062 22.792969 22.953125 22.792969 C 22.621094 22.792969 22.292969 22.722656 22.011719 22.597656 C 21.714844 22.457031 21.386719 22.378906 21.042969 22.378906 C 20.691406 22.378906 20.363281 22.457031 20.070312 22.597656 C 19.785156 22.722656 19.46875 22.792969 19.128906 22.792969 C 19.109375 22.792969 19.089844 22.792969 19.070312 22.792969 Z M 18.746094 21.351562 "/>
</g>
<mask id="mask-8">
<g filter="url(#filter-remove-color)">
<rect x="-2.8" y="-2.8" width="33.6" height="33.6" fill="rgb(0%, 0%, 0%)" fill-opacity="0.6"/>
</g>
</mask>
<clipPath id="clip-8">
<rect x="0" y="0" width="28" height="28"/>
</clipPath>
<g id="source-41" clip-path="url(#clip-8)">
<path fill-rule="nonzero" fill="rgb(100%, 100%, 100%)" fill-opacity="1" d="M 18.183594 18.589844 C 18.472656 18.714844 18.792969 18.792969 19.128906 18.792969 C 19.464844 18.792969 19.785156 18.714844 20.070312 18.589844 C 20.367188 18.449219 20.691406 18.371094 21.042969 18.371094 C 21.386719 18.371094 21.714844 18.449219 22.011719 18.589844 C 22.292969 18.714844 22.621094 18.792969 22.953125 18.792969 C 23.289062 18.792969 23.605469 18.714844 23.898438 18.589844 C 24.1875 18.449219 24.519531 18.371094 24.863281 18.371094 C 25.210938 18.371094 25.542969 18.449219 25.835938 18.589844 C 26.121094 18.714844 26.4375 18.792969 26.78125 18.792969 L 26.78125 20.199219 C 26.441406 20.199219 26.121094 20.128906 25.835938 20 C 25.539062 19.863281 25.207031 19.785156 24.863281 19.785156 C 24.523438 19.785156 24.1875 19.863281 23.898438 20 C 23.605469 20.128906 23.289062 20.199219 22.953125 20.199219 C 22.621094 20.199219 22.292969 20.128906 22.011719 20 C 21.714844 19.863281 21.386719 19.785156 21.042969 19.785156 C 20.691406 19.785156 20.363281 19.863281 20.070312 20 C 19.785156 20.128906 19.46875 20.199219 19.128906 20.199219 C 18.921875 20.199219 18.722656 20.175781 18.53125 20.121094 Z M 18.183594 18.589844 "/>
</g>
<mask id="mask-9">
<g filter="url(#filter-remove-color)">
<rect x="-2.8" y="-2.8" width="33.6" height="33.6" fill="rgb(0%, 0%, 0%)" fill-opacity="0.6"/>
</g>
</mask>
<clipPath id="clip-9">
<rect x="0" y="0" width="28" height="28"/>
</clipPath>
<g id="source-47" clip-path="url(#clip-9)">
<path fill-rule="nonzero" fill="rgb(100%, 100%, 100%)" fill-opacity="1" stroke-width="10" stroke-linecap="round" stroke-linejoin="round" stroke="rgb(100%, 100%, 100%)" stroke-opacity="1" stroke-miterlimit="4" d="M 277.326242 271.380369 L 208.65458 205.659045 L 236.326716 185.617094 L 259.319006 176.460872 L 282.107825 267.209202 Z M 277.326242 271.380369 " transform="matrix(0.038396, 0, 0, 0.038396, 2.785369, 2.693354)"/>
</g>
<mask id="mask-10">
<g filter="url(#filter-remove-color)">
<rect x="-2.8" y="-2.8" width="33.6" height="33.6" fill="rgb(0%, 0%, 0%)" fill-opacity="0.6"/>
</g>
</mask>
<clipPath id="clip-10">
<rect x="0" y="0" width="28" height="28"/>
</clipPath>
<g id="source-51" clip-path="url(#clip-10)">
<path fill-rule="nonzero" fill="rgb(100%, 100%, 100%)" fill-opacity="1" stroke-width="10" stroke-linecap="round" stroke-linejoin="round" stroke="rgb(100%, 100%, 100%)" stroke-opacity="1" stroke-miterlimit="4" d="M 285.465106 272.499463 L 354.136768 338.220787 L 326.566367 358.161003 L 303.472342 367.418961 L 280.683523 276.670631 Z M 285.465106 272.499463 " transform="matrix(0.038396, 0, 0, 0.038396, 2.785369, 2.693354)"/>
</g>
</defs>
<path fill-rule="nonzero" fill="rgb(6.666667%, 6.666667%, 6.666667%)" fill-opacity="1" stroke-width="3.408" stroke-linecap="butt" stroke-linejoin="miter" stroke="rgb(93.333333%, 93.333333%, 93.333333%)" stroke-opacity="1" stroke-miterlimit="4" d="M 66.269531 1.780134 C 24.921875 1.780134 1.699219 23.141741 1.699219 66.835938 L 1.699219 516.967076 C 1.699219 557.748326 22.575335 579.190848 63.922991 579.190848 L 515.915179 579.190848 C 557.262835 579.190848 578.138951 558.881138 578.138951 516.967076 L 578.138951 66.835938 C 578.138951 24.193638 557.262835 1.780134 514.620536 1.780134 C 514.620536 1.780134 66.107701 1.618304 66.269531 1.780134 Z M 66.269531 1.780134 " transform="matrix(0.0482759, 0, 0, 0.0482759, 0, 0)"/>
<g mask="url(#mask-0)">
<use xlink:href="#source-7"/>
</g>
<g mask="url(#mask-1)">
<use xlink:href="#source-11"/>
</g>
<g mask="url(#mask-2)">
<use xlink:href="#source-15"/>
</g>
<g mask="url(#mask-3)">
<use xlink:href="#source-19"/>
</g>
<path fill-rule="nonzero" fill="rgb(100%, 100%, 100%)" fill-opacity="1" d="M 16.546875 16.886719 C 16.453125 16.957031 16.363281 17.03125 16.265625 17.097656 C 16.136719 17.183594 16.007812 17.261719 15.875 17.335938 C 15.738281 17.410156 15.597656 17.476562 15.457031 17.535156 C 15.316406 17.59375 15.171875 17.648438 15.019531 17.695312 C 14.871094 17.742188 14.722656 17.777344 14.566406 17.8125 C 14.414062 17.84375 14.253906 17.867188 14.09375 17.882812 C 13.933594 17.898438 13.773438 17.90625 13.609375 17.90625 C 13.445312 17.90625 13.285156 17.898438 13.125 17.882812 C 12.964844 17.867188 12.808594 17.84375 12.652344 17.8125 C 12.5 17.777344 12.347656 17.742188 12.199219 17.695312 C 12.050781 17.648438 11.90625 17.59375 11.761719 17.535156 C 11.625 17.476562 11.492188 17.414062 11.363281 17.34375 L 11.363281 22.824219 L 17.941406 22.824219 Z M 16.546875 16.886719 "/>
<path fill-rule="nonzero" fill="rgb(100%, 100%, 100%)" fill-opacity="1" d="M 12.753906 4.191406 L 11.363281 4.199219 L 11.363281 8.980469 C 11.492188 8.910156 11.625 8.84375 11.761719 8.785156 C 11.90625 8.726562 12.050781 8.671875 12.199219 8.625 C 12.347656 8.578125 12.5 8.542969 12.652344 8.511719 C 12.808594 8.476562 12.964844 8.453125 13.125 8.4375 C 13.285156 8.421875 13.445312 8.414062 13.609375 8.414062 C 13.773438 8.414062 13.933594 8.421875 14.09375 8.4375 C 14.253906 8.453125 14.414062 8.476562 14.566406 8.511719 C 14.570312 8.511719 14.574219 8.511719 14.578125 8.511719 L 13.714844 4.832031 C 13.558594 4.460938 13.183594 4.191406 12.753906 4.191406 Z M 12.753906 4.191406 "/>
<g mask="url(#mask-4)">
<use xlink:href="#source-25"/>
</g>
<g mask="url(#mask-5)">
<use xlink:href="#source-29"/>
</g>
<g mask="url(#mask-6)">
<use xlink:href="#source-33"/>
</g>
<g mask="url(#mask-7)">
<use xlink:href="#source-37"/>
</g>
<g mask="url(#mask-8)">
<use xlink:href="#source-41"/>
</g>
<path fill="none" stroke-width="10.79" stroke-linecap="round" stroke-linejoin="round" stroke="rgb(100%, 100%, 100%)" stroke-opacity="1" stroke-miterlimit="4" d="M 380.282867 272.601199 C 380.282867 326.928114 336.231268 370.979713 281.904353 370.979713 C 227.577438 370.979713 183.627574 326.928114 183.627574 272.601199 C 183.627574 218.274284 227.577438 174.222684 281.904353 174.222684 C 336.231268 174.222684 380.282867 218.274284 380.282867 272.601199 Z M 380.282867 272.601199 " transform="matrix(0.038396, 0, 0, 0.038396, 2.785369, 2.693354)"/>
<path fill-rule="nonzero" fill="rgb(100%, 100%, 100%)" fill-opacity="1" stroke-width="1.275821" stroke-linecap="round" stroke-linejoin="round" stroke="rgb(100%, 100%, 100%)" stroke-opacity="1" stroke-miterlimit="4" d="M 293.502234 272.601199 C 293.502234 279.010554 288.313708 284.19908 281.904353 284.19908 C 275.494998 284.19908 270.306472 279.010554 270.306472 272.601199 C 270.306472 266.191844 275.494998 261.003318 281.904353 261.003318 C 288.313708 261.003318 293.502234 266.191844 293.502234 272.601199 Z M 293.502234 272.601199 " transform="matrix(0.038396, 0, 0, 0.038396, 2.785369, 2.693354)"/>
<g mask="url(#mask-9)">
<use xlink:href="#source-47"/>
</g>
<g mask="url(#mask-10)">
<use xlink:href="#source-51"/>
</g>
</svg>
