<?xml version="1.0" encoding="UTF-8"?>
<svg xmlns="http://www.w3.org/2000/svg" xmlns:xlink="http://www.w3.org/1999/xlink" width="28" height="28" viewBox="0 0 28 28">
<defs>
<filter id="filter-remove-color" x="0%" y="0%" width="100%" height="100%">
<feColorMatrix color-interpolation-filters="sRGB" values="0 0 0 0 1 0 0 0 0 1 0 0 0 0 1 0 0 0 1 0" />
</filter>
<mask id="mask-0">
<g filter="url(#filter-remove-color)">
<rect x="-2.8" y="-2.8" width="33.6" height="33.6" fill="rgb(0%, 0%, 0%)" fill-opacity="0.25"/>
</g>
</mask>
<clipPath id="clip-0">
<rect x="0" y="0" width="28" height="28"/>
</clipPath>
<g id="source-8" clip-path="url(#clip-0)">
<path fill-rule="nonzero" fill="rgb(100%, 100%, 100%)" fill-opacity="1" stroke-width="20" stroke-linecap="round" stroke-linejoin="round" stroke="rgb(100%, 100%, 100%)" stroke-opacity="1" stroke-miterlimit="4" d="M 49.520089 86.174665 L 523.27846 86.174665 L 523.27846 509.037388 L 49.520089 509.037388 Z M 49.520089 86.174665 " transform="matrix(0.0482759, 0, 0, 0.0482759, 0, 0)"/>
</g>
</defs>
<path fill-rule="nonzero" fill="rgb(6.666667%, 6.666667%, 6.666667%)" fill-opacity="1" stroke-width="3.408" stroke-linecap="butt" stroke-linejoin="miter" stroke="rgb(93.333333%, 93.333333%, 93.333333%)" stroke-opacity="1" stroke-miterlimit="4" d="M 66.269531 1.780134 C 24.921875 1.780134 1.699219 23.141741 1.699219 66.835938 L 1.699219 516.967076 C 1.699219 557.748326 22.575335 579.190848 63.922991 579.190848 L 515.915179 579.190848 C 557.262835 579.190848 578.138951 558.800223 578.138951 516.967076 L 578.138951 66.835938 C 578.138951 24.193638 557.262835 1.780134 514.620536 1.780134 C 514.620536 1.780134 66.107701 1.618304 66.269531 1.780134 Z M 66.269531 1.780134 " transform="matrix(0.0482759, 0, 0, 0.0482759, 0, 0)"/>
<path fill="none" stroke-width="20" stroke-linecap="round" stroke-linejoin="round" stroke="rgb(100%, 100%, 100%)" stroke-opacity="1" stroke-miterlimit="4" d="M 50.895647 87.873884 L 524.654018 87.873884 L 524.654018 510.736607 L 50.895647 510.736607 Z M 50.895647 87.873884 " transform="matrix(0.0482759, 0, 0, 0.0482759, 0, 0)"/>
<g mask="url(#mask-0)">
<use xlink:href="#source-8"/>
</g>
<path fill="none" stroke-width="25.833168" stroke-linecap="round" stroke-linejoin="miter" stroke="rgb(100%, 100%, 100%)" stroke-opacity="1" stroke-miterlimit="4" d="M 439.287951 494.781077 C 439.115359 494.781077 399.073878 494.781077 398.901285 494.781077 C 379.398322 494.781077 363.519804 479.075151 363.519804 459.399596 C 363.519804 439.896633 379.398322 424.018115 398.901285 424.018115 C 399.073878 424.018115 399.419063 424.018115 399.591655 424.018115 M 399.591655 423.500337 C 399.419063 423.500337 399.073878 423.500337 398.901285 423.500337 C 379.398322 423.500337 363.519804 407.621819 363.519804 388.118856 C 363.519804 368.4433 379.398322 352.737374 398.901285 352.737374 C 399.073878 352.737374 399.419063 352.737374 399.591655 352.737374 M 399.591655 351.356634 C 399.419063 351.356634 399.073878 351.356634 398.901285 351.356634 C 379.398322 351.356634 363.519804 335.478115 363.519804 315.975153 C 363.519804 296.47219 379.398322 280.593671 398.901285 280.593671 C 399.073878 280.593671 399.419063 280.593671 399.591655 280.593671 M 399.591655 279.903301 C 399.419063 280.075894 399.073878 280.075894 398.901285 280.075894 C 379.398322 280.075894 363.519804 264.197375 363.519804 244.52182 C 363.519804 225.018857 379.398322 209.140338 398.901285 209.140338 C 399.073878 209.140338 439.115359 209.140338 439.287951 209.140338 " transform="matrix(0.0226328, 0, 0, 0.0226328, 1.54988, 1.629854)"/>
<path fill="none" stroke-width="25.833168" stroke-linecap="round" stroke-linejoin="miter" stroke="rgb(100%, 100%, 100%)" stroke-opacity="1" stroke-miterlimit="4" d="M 136.387953 494.781077 C 136.560546 494.781077 176.602027 494.781077 176.77462 494.781077 C 196.277583 494.781077 212.156101 479.075151 212.156101 459.399596 C 212.156101 439.896633 196.277583 424.018115 176.77462 424.018115 C 176.602027 424.018115 176.256842 424.018115 176.084249 424.018115 M 176.084249 423.500337 C 176.256842 423.500337 176.602027 423.500337 176.77462 423.500337 C 196.277583 423.500337 212.156101 407.621819 212.156101 388.118856 C 212.156101 368.4433 196.277583 352.737374 176.77462 352.737374 C 176.602027 352.737374 176.256842 352.737374 176.084249 352.737374 M 176.084249 351.356634 C 176.256842 351.356634 176.602027 351.356634 176.77462 351.356634 C 196.277583 351.356634 212.156101 335.478115 212.156101 315.975153 C 212.156101 296.47219 196.277583 280.593671 176.77462 280.593671 C 176.602027 280.593671 176.256842 280.593671 176.084249 280.593671 M 176.084249 279.903301 C 176.256842 280.075894 176.602027 280.075894 176.77462 280.075894 C 196.277583 280.075894 212.156101 264.197375 212.156101 244.52182 C 212.156101 225.018857 196.277583 209.140338 176.77462 209.140338 C 176.602027 209.140338 136.560546 209.140338 136.387953 209.140338 " transform="matrix(0.0226328, 0, 0, 0.0226328, 1.54988, 1.629854)"/>
<path fill="none" stroke-width="25.833168" stroke-linecap="round" stroke-linejoin="miter" stroke="rgb(100%, 100%, 100%)" stroke-opacity="1" stroke-miterlimit="4" d="M 316.402026 212.59219 L 316.402026 493.572929 " transform="matrix(0.0226328, 0, 0, 0.0226328, 1.54988, 1.629854)"/>
<path fill="none" stroke-width="25.833168" stroke-linecap="round" stroke-linejoin="miter" stroke="rgb(100%, 100%, 100%)" stroke-opacity="1" stroke-miterlimit="4" d="M 262.207953 212.59219 L 262.207953 493.572929 " transform="matrix(0.0226328, 0, 0, 0.0226328, 1.54988, 1.629854)"/>
<path fill="none" stroke-width="25.833168" stroke-linecap="round" stroke-linejoin="miter" stroke="rgb(100%, 100%, 100%)" stroke-opacity="1" stroke-miterlimit="4" d="M 439.287951 494.828697 C 439.115359 494.828697 399.073878 494.828697 398.901285 494.828697 C 379.398322 494.828697 363.519804 478.950179 363.519804 459.447216 C 363.519804 439.944253 379.398322 424.065735 398.901285 424.065735 C 399.073878 424.065735 399.419063 424.065735 399.591655 424.065735 M 399.591655 423.547957 C 399.419063 423.547957 399.073878 423.547957 398.901285 423.547957 C 379.398322 423.547957 363.519804 407.669438 363.519804 387.993883 C 363.519804 368.49092 379.398322 352.612402 398.901285 352.612402 C 399.073878 352.612402 399.419063 352.612402 399.591655 352.612402 M 399.591655 351.404254 C 399.419063 351.404254 399.073878 351.404254 398.901285 351.404254 C 379.398322 351.404254 363.519804 335.525735 363.519804 316.022772 C 363.519804 296.347217 379.398322 280.468699 398.901285 280.468699 C 399.073878 280.468699 399.419063 280.641291 399.591655 280.641291 M 399.591655 279.950921 C 399.419063 279.950921 399.073878 279.950921 398.901285 279.950921 C 379.398322 279.950921 363.519804 264.072402 363.519804 244.56944 C 363.519804 225.066477 379.398322 209.187958 398.901285 209.187958 C 399.073878 209.187958 439.115359 209.187958 439.287951 209.187958 " transform="matrix(0.0226328, 0, 0, 0.0226328, 1.54988, 11.285026)"/>
<path fill="none" stroke-width="25.833168" stroke-linecap="round" stroke-linejoin="miter" stroke="rgb(100%, 100%, 100%)" stroke-opacity="1" stroke-miterlimit="4" d="M 136.387953 494.828697 C 136.560546 494.828697 176.602027 494.828697 176.77462 494.828697 C 196.277583 494.828697 212.156101 478.950179 212.156101 459.447216 C 212.156101 439.944253 196.277583 424.065735 176.77462 424.065735 C 176.602027 424.065735 176.256842 424.065735 176.084249 424.065735 M 176.084249 423.547957 C 176.256842 423.547957 176.602027 423.547957 176.77462 423.547957 C 196.277583 423.547957 212.156101 407.669438 212.156101 387.993883 C 212.156101 368.49092 196.277583 352.612402 176.77462 352.612402 C 176.602027 352.612402 176.256842 352.612402 176.084249 352.612402 M 176.084249 351.404254 C 176.256842 351.404254 176.602027 351.404254 176.77462 351.404254 C 196.277583 351.404254 212.156101 335.525735 212.156101 316.022772 C 212.156101 296.347217 196.277583 280.468699 176.77462 280.468699 C 176.602027 280.468699 176.256842 280.641291 176.084249 280.641291 M 176.084249 279.950921 C 176.256842 279.950921 176.602027 279.950921 176.77462 279.950921 C 196.277583 279.950921 212.156101 264.072402 212.156101 244.56944 C 212.156101 225.066477 196.277583 209.187958 176.77462 209.187958 C 176.602027 209.187958 136.560546 209.187958 136.387953 209.187958 " transform="matrix(0.0226328, 0, 0, 0.0226328, 1.54988, 11.285026)"/>
<path fill="none" stroke-width="25.833168" stroke-linecap="round" stroke-linejoin="miter" stroke="rgb(100%, 100%, 100%)" stroke-opacity="1" stroke-miterlimit="4" d="M 316.402026 212.467218 L 316.402026 493.447956 " transform="matrix(0.0226328, 0, 0, 0.0226328, 1.54988, 11.285026)"/>
<path fill="none" stroke-width="25.833168" stroke-linecap="round" stroke-linejoin="miter" stroke="rgb(100%, 100%, 100%)" stroke-opacity="1" stroke-miterlimit="4" d="M 262.207953 212.467218 L 262.207953 493.447956 " transform="matrix(0.0226328, 0, 0, 0.0226328, 1.54988, 11.285026)"/>
<path fill="none" stroke-width="25.833168" stroke-linecap="round" stroke-linejoin="miter" stroke="rgb(100%, 100%, 100%)" stroke-opacity="1" stroke-miterlimit="4" d="M 439.39988 494.828697 C 439.054694 494.828697 399.185806 494.828697 398.840621 494.828697 C 379.337658 494.828697 363.459139 478.950179 363.459139 459.447216 C 363.459139 439.944253 379.337658 424.065735 398.840621 424.065735 C 399.185806 424.065735 399.358398 424.065735 399.703584 424.065735 M 399.703584 423.547957 C 399.358398 423.547957 399.185806 423.547957 398.840621 423.547957 C 379.337658 423.547957 363.459139 407.669438 363.459139 387.993883 C 363.459139 368.49092 379.337658 352.612402 398.840621 352.612402 C 399.185806 352.612402 399.358398 352.612402 399.703584 352.612402 M 399.703584 351.404254 C 399.358398 351.404254 399.185806 351.404254 398.840621 351.404254 C 379.337658 351.404254 363.459139 335.525735 363.459139 316.022772 C 363.459139 296.347217 379.337658 280.468699 398.840621 280.468699 C 399.185806 280.468699 399.358398 280.641291 399.703584 280.641291 M 399.703584 279.950921 C 399.358398 279.950921 399.185806 279.950921 398.840621 279.950921 C 379.337658 279.950921 363.459139 264.072402 363.459139 244.56944 C 363.459139 225.066477 379.337658 209.187958 398.840621 209.187958 C 399.185806 209.187958 439.054694 209.187958 439.39988 209.187958 " transform="matrix(0.0226328, 0, 0, 0.0226328, 13.039535, 11.285026)"/>
<path fill="none" stroke-width="25.833168" stroke-linecap="round" stroke-linejoin="miter" stroke="rgb(100%, 100%, 100%)" stroke-opacity="1" stroke-miterlimit="4" d="M 136.327289 494.828697 C 136.499882 494.828697 176.541363 494.828697 176.886548 494.828697 C 196.389511 494.828697 212.268029 478.950179 212.268029 459.447216 C 212.268029 439.944253 196.389511 424.065735 176.886548 424.065735 C 176.541363 424.065735 176.36877 424.065735 176.023585 424.065735 M 176.023585 423.547957 C 176.36877 423.547957 176.541363 423.547957 176.886548 423.547957 C 196.389511 423.547957 212.268029 407.669438 212.268029 387.993883 C 212.268029 368.49092 196.389511 352.612402 176.886548 352.612402 C 176.541363 352.612402 176.36877 352.612402 176.023585 352.612402 M 176.023585 351.404254 C 176.36877 351.404254 176.541363 351.404254 176.886548 351.404254 C 196.389511 351.404254 212.268029 335.525735 212.268029 316.022772 C 212.268029 296.347217 196.389511 280.468699 176.886548 280.468699 C 176.541363 280.468699 176.36877 280.641291 176.023585 280.641291 M 176.023585 279.950921 C 176.36877 279.950921 176.541363 279.950921 176.886548 279.950921 C 196.389511 279.950921 212.268029 264.072402 212.268029 244.56944 C 212.268029 225.066477 196.389511 209.187958 176.886548 209.187958 C 176.541363 209.187958 136.499882 209.187958 136.327289 209.187958 " transform="matrix(0.0226328, 0, 0, 0.0226328, 13.039535, 11.285026)"/>
<path fill="none" stroke-width="25.833168" stroke-linecap="round" stroke-linejoin="miter" stroke="rgb(100%, 100%, 100%)" stroke-opacity="1" stroke-miterlimit="4" d="M 316.341362 212.467218 L 316.341362 493.447956 " transform="matrix(0.0226328, 0, 0, 0.0226328, 13.039535, 11.285026)"/>
<path fill="none" stroke-width="25.833168" stroke-linecap="round" stroke-linejoin="miter" stroke="rgb(100%, 100%, 100%)" stroke-opacity="1" stroke-miterlimit="4" d="M 262.319881 212.467218 L 262.319881 493.447956 " transform="matrix(0.0226328, 0, 0, 0.0226328, 13.039535, 11.285026)"/>
<path fill="none" stroke-width="25.833168" stroke-linecap="round" stroke-linejoin="miter" stroke="rgb(100%, 100%, 100%)" stroke-opacity="1" stroke-miterlimit="4" d="M 439.39988 494.878689 C 439.054694 494.878689 399.185806 494.878689 398.840621 494.878689 C 379.337658 494.878689 363.459139 479.000171 363.459139 459.497208 C 363.459139 439.821653 379.337658 424.115727 398.840621 424.115727 C 399.185806 424.115727 399.358398 424.115727 399.703584 424.115727 M 399.703584 423.425357 C 399.358398 423.425357 399.185806 423.425357 398.840621 423.425357 C 379.337658 423.425357 363.459139 407.546838 363.459139 388.043875 C 363.459139 368.540913 379.337658 352.662394 398.840621 352.662394 C 399.185806 352.662394 399.358398 352.662394 399.703584 352.662394 M 399.703584 351.281653 C 399.358398 351.281653 399.185806 351.281653 398.840621 351.281653 C 379.337658 351.281653 363.459139 335.575728 363.459139 315.900172 C 363.459139 296.397209 379.337658 280.518691 398.840621 280.518691 C 399.185806 280.518691 399.358398 280.518691 399.703584 280.518691 M 399.703584 280.000913 C 399.358398 280.000913 399.185806 280.000913 398.840621 280.000913 C 379.337658 280.000913 363.459139 264.122395 363.459139 244.619432 C 363.459139 225.116469 379.337658 209.237951 398.840621 209.237951 C 399.185806 209.237951 439.054694 209.237951 439.39988 209.237951 " transform="matrix(0.0226328, 0, 0, 0.0226328, 13.039535, 1.822957)"/>
<path fill="none" stroke-width="25.833168" stroke-linecap="round" stroke-linejoin="miter" stroke="rgb(100%, 100%, 100%)" stroke-opacity="1" stroke-miterlimit="4" d="M 136.327289 494.878689 C 136.499882 494.878689 176.541363 494.878689 176.886548 494.878689 C 196.389511 494.878689 212.268029 479.000171 212.268029 459.497208 C 212.268029 439.821653 196.389511 424.115727 176.886548 424.115727 C 176.541363 424.115727 176.36877 424.115727 176.023585 424.115727 M 176.023585 423.425357 C 176.36877 423.425357 176.541363 423.425357 176.886548 423.425357 C 196.389511 423.425357 212.268029 407.546838 212.268029 388.043875 C 212.268029 368.540913 196.389511 352.662394 176.886548 352.662394 C 176.541363 352.662394 176.36877 352.662394 176.023585 352.662394 M 176.023585 351.281653 C 176.36877 351.281653 176.541363 351.281653 176.886548 351.281653 C 196.389511 351.281653 212.268029 335.575728 212.268029 315.900172 C 212.268029 296.397209 196.389511 280.518691 176.886548 280.518691 C 176.541363 280.518691 176.36877 280.518691 176.023585 280.518691 M 176.023585 280.000913 C 176.36877 280.000913 176.541363 280.000913 176.886548 280.000913 C 196.389511 280.000913 212.268029 264.122395 212.268029 244.619432 C 212.268029 225.116469 196.389511 209.237951 176.886548 209.237951 C 176.541363 209.237951 136.499882 209.237951 136.327289 209.237951 " transform="matrix(0.0226328, 0, 0, 0.0226328, 13.039535, 1.822957)"/>
<path fill="none" stroke-width="25.833168" stroke-linecap="round" stroke-linejoin="miter" stroke="rgb(100%, 100%, 100%)" stroke-opacity="1" stroke-miterlimit="4" d="M 316.341362 212.51721 L 316.341362 493.497949 " transform="matrix(0.0226328, 0, 0, 0.0226328, 13.039535, 1.822957)"/>
<path fill="none" stroke-width="25.833168" stroke-linecap="round" stroke-linejoin="miter" stroke="rgb(100%, 100%, 100%)" stroke-opacity="1" stroke-miterlimit="4" d="M 262.319881 212.51721 L 262.319881 493.497949 " transform="matrix(0.0226328, 0, 0, 0.0226328, 13.039535, 1.822957)"/>
</svg>
