<?xml version="1.0" encoding="UTF-8"?>
<svg xmlns="http://www.w3.org/2000/svg" xmlns:xlink="http://www.w3.org/1999/xlink" width="28" height="28" viewBox="0 0 28 28">
<defs>
<filter id="filter-remove-color" x="0%" y="0%" width="100%" height="100%">
<feColorMatrix color-interpolation-filters="sRGB" values="0 0 0 0 1 0 0 0 0 1 0 0 0 0 1 0 0 0 1 0" />
</filter>
<mask id="mask-0">
<g filter="url(#filter-remove-color)">
<rect x="-2.8" y="-2.8" width="33.6" height="33.6" fill="rgb(0%, 0%, 0%)" fill-opacity="0.5"/>
</g>
</mask>
<clipPath id="clip-0">
<path clip-rule="nonzero" d="M 0 0 L 16 0 L 16 11 L 0 11 Z M 0 0 "/>
</clipPath>
<clipPath id="clip-1">
<rect x="0" y="0" width="28" height="28"/>
</clipPath>
<g id="source-11" clip-path="url(#clip-1)">
<g clip-path="url(#clip-0)">
<path fill="none" stroke-width="17.204815" stroke-linecap="butt" stroke-linejoin="miter" stroke="rgb(100%, 100%, 100%)" stroke-opacity="1" stroke-miterlimit="4" d="M 227.128906 94.832589 C 132.943638 175.424107 35.602679 93.376116 35.602679 93.376116 " transform="matrix(0.0482759, 0, 0, 0.0482759, 0, 0)"/>
</g>
</g>
<mask id="mask-1">
<g filter="url(#filter-remove-color)">
<rect x="-2.8" y="-2.8" width="33.6" height="33.6" fill="rgb(0%, 0%, 0%)" fill-opacity="0.5"/>
</g>
</mask>
<clipPath id="clip-2">
<path clip-rule="nonzero" d="M 0 3 L 16 3 L 16 15 L 0 15 Z M 0 3 "/>
</clipPath>
<clipPath id="clip-3">
<rect x="0" y="0" width="28" height="28"/>
</clipPath>
<g id="source-15" clip-path="url(#clip-3)">
<g clip-path="url(#clip-2)">
<path fill="none" stroke-width="17.204815" stroke-linecap="butt" stroke-linejoin="miter" stroke="rgb(100%, 100%, 100%)" stroke-opacity="1" stroke-miterlimit="4" d="M 227.128906 166.847098 C 132.943638 247.438616 35.602679 165.390625 35.602679 165.390625 " transform="matrix(0.0482759, 0, 0, 0.0482759, 0, 0)"/>
</g>
</g>
<mask id="mask-2">
<g filter="url(#filter-remove-color)">
<rect x="-2.8" y="-2.8" width="33.6" height="33.6" fill="rgb(0%, 0%, 0%)" fill-opacity="0.5"/>
</g>
</mask>
<clipPath id="clip-4">
<path clip-rule="nonzero" d="M 12 0 L 28 0 L 28 11 L 12 11 Z M 12 0 "/>
</clipPath>
<clipPath id="clip-5">
<rect x="0" y="0" width="28" height="28"/>
</clipPath>
<g id="source-25" clip-path="url(#clip-5)">
<g clip-path="url(#clip-4)">
<path fill="none" stroke-width="17.204815" stroke-linecap="butt" stroke-linejoin="miter" stroke="rgb(100%, 100%, 100%)" stroke-opacity="1" stroke-miterlimit="4" d="M 355.62221 94.832589 C 449.807478 175.424107 547.148438 93.376116 547.148438 93.376116 " transform="matrix(0.0482759, 0, 0, 0.0482759, 0, 0)"/>
</g>
</g>
<mask id="mask-3">
<g filter="url(#filter-remove-color)">
<rect x="-2.8" y="-2.8" width="33.6" height="33.6" fill="rgb(0%, 0%, 0%)" fill-opacity="0.5"/>
</g>
</mask>
<clipPath id="clip-6">
<path clip-rule="nonzero" d="M 12 3 L 28 3 L 28 15 L 12 15 Z M 12 3 "/>
</clipPath>
<clipPath id="clip-7">
<rect x="0" y="0" width="28" height="28"/>
</clipPath>
<g id="source-29" clip-path="url(#clip-7)">
<g clip-path="url(#clip-6)">
<path fill="none" stroke-width="17.204815" stroke-linecap="butt" stroke-linejoin="miter" stroke="rgb(100%, 100%, 100%)" stroke-opacity="1" stroke-miterlimit="4" d="M 355.62221 166.847098 C 449.807478 247.438616 547.148438 165.390625 547.148438 165.390625 " transform="matrix(0.0482759, 0, 0, 0.0482759, 0, 0)"/>
</g>
</g>
</defs>
<path fill-rule="nonzero" fill="rgb(6.666667%, 6.666667%, 6.666667%)" fill-opacity="1" stroke-width="3.408" stroke-linecap="butt" stroke-linejoin="miter" stroke="rgb(93.333333%, 93.333333%, 93.333333%)" stroke-opacity="1" stroke-miterlimit="4" d="M 66.269531 1.780134 C 24.921875 1.780134 1.699219 23.141741 1.699219 66.835938 L 1.699219 516.967076 C 1.699219 557.748326 22.575335 579.190848 63.922991 579.190848 L 515.915179 579.190848 C 557.262835 579.190848 578.138951 558.800223 578.138951 516.967076 L 578.138951 66.835938 C 578.138951 24.193638 557.262835 1.780134 514.620536 1.780134 C 514.620536 1.780134 66.107701 1.618304 66.269531 1.780134 Z M 66.269531 1.780134 " transform="matrix(0.0482759, 0, 0, 0.0482759, 0, 0)"/>
<path fill="none" stroke-width="12.53017" stroke-linecap="round" stroke-linejoin="miter" stroke="rgb(100%, 100%, 100%)" stroke-opacity="1" stroke-miterlimit="4" d="M 317.834821 264.673549 L 249.38058 328.030134 " transform="matrix(0.0482759, 0, 0, 0.0482759, 0, 0)"/>
<path fill="none" stroke-width="12.53017" stroke-linecap="round" stroke-linejoin="miter" stroke="rgb(100%, 100%, 100%)" stroke-opacity="1" stroke-miterlimit="4" d="M 267.34375 264.673549 L 335.878906 328.030134 " transform="matrix(0.0482759, 0, 0, 0.0482759, 0, 0)"/>
<path fill="none" stroke-width="15.421748" stroke-linecap="round" stroke-linejoin="miter" stroke="rgb(100%, 100%, 100%)" stroke-opacity="1" stroke-miterlimit="4" d="M 242.907366 327.868304 L 390.092076 447.137277 " transform="matrix(0.0482759, 0, 0, 0.0482759, 0, 0)"/>
<path fill="none" stroke-width="15.421748" stroke-linecap="round" stroke-linejoin="miter" stroke="rgb(100%, 100%, 100%)" stroke-opacity="1" stroke-miterlimit="4" d="M 342.02846 327.868304 L 194.762835 447.137277 " transform="matrix(0.0482759, 0, 0, 0.0482759, 0, 0)"/>
<g mask="url(#mask-0)">
<use xlink:href="#source-11"/>
</g>
<g mask="url(#mask-1)">
<use xlink:href="#source-15"/>
</g>
<path fill="none" stroke-width="25" stroke-linecap="round" stroke-linejoin="round" stroke="rgb(100%, 100%, 100%)" stroke-opacity="1" stroke-miterlimit="4" d="M 279.319196 216.367188 L 176.799665 487.837612 " transform="matrix(0.0482759, 0, 0, 0.0482759, 0, 0)"/>
<path fill="none" stroke-width="25" stroke-linecap="round" stroke-linejoin="round" stroke="rgb(100%, 100%, 100%)" stroke-opacity="1" stroke-miterlimit="4" d="M 304.807478 216.367188 L 407.327009 487.837612 " transform="matrix(0.0482759, 0, 0, 0.0482759, 0, 0)"/>
<path fill="none" stroke-width="25" stroke-linecap="round" stroke-linejoin="round" stroke="rgb(100%, 100%, 100%)" stroke-opacity="1" stroke-miterlimit="4" d="M 302.784598 214.344308 L 303.43192 68.696987 " transform="matrix(0.0482759, 0, 0, 0.0482759, 0, 0)"/>
<path fill="none" stroke-width="25" stroke-linecap="round" stroke-linejoin="round" stroke="rgb(100%, 100%, 100%)" stroke-opacity="1" stroke-miterlimit="4" d="M 280.77567 214.344308 L 281.422991 68.696987 " transform="matrix(0.0482759, 0, 0, 0.0482759, 0, 0)"/>
<path fill="none" stroke-width="25" stroke-linecap="round" stroke-linejoin="round" stroke="rgb(100%, 100%, 100%)" stroke-opacity="1" stroke-miterlimit="4" d="M 220.251116 95.237165 L 365.898438 95.803571 " transform="matrix(0.0482759, 0, 0, 0.0482759, 0, 0)"/>
<path fill="none" stroke-width="25" stroke-linecap="round" stroke-linejoin="round" stroke="rgb(100%, 100%, 100%)" stroke-opacity="1" stroke-miterlimit="4" d="M 220.251116 163.205915 L 365.898438 163.853237 " transform="matrix(0.0482759, 0, 0, 0.0482759, 0, 0)"/>
<g mask="url(#mask-2)">
<use xlink:href="#source-25"/>
</g>
<g mask="url(#mask-3)">
<use xlink:href="#source-29"/>
</g>
</svg>
