<?xml version="1.0" encoding="UTF-8"?>
<svg xmlns="http://www.w3.org/2000/svg" xmlns:xlink="http://www.w3.org/1999/xlink" width="28" height="28" viewBox="0 0 28 28">
<path fill-rule="nonzero" fill="rgb(6.666667%, 6.666667%, 6.666667%)" fill-opacity="1" stroke-width="3.408" stroke-linecap="butt" stroke-linejoin="miter" stroke="rgb(93.333333%, 93.333333%, 93.333333%)" stroke-opacity="1" stroke-miterlimit="4" d="M 66.269531 1.780134 C 24.921875 1.780134 1.699219 23.141741 1.699219 66.835938 L 1.699219 516.967076 C 1.699219 557.748326 22.575335 579.190848 63.922991 579.190848 L 515.915179 579.190848 C 557.262835 579.190848 578.138951 558.800223 578.138951 516.967076 L 578.138951 66.835938 C 578.138951 24.193638 557.262835 1.780134 514.620536 1.780134 C 514.620536 1.780134 66.107701 1.618304 66.269531 1.780134 Z M 66.269531 1.780134 " transform="matrix(0.0482759, 0, 0, 0.0482759, 0, 0)"/>
<path fill="none" stroke-width="20" stroke-linecap="round" stroke-linejoin="miter" stroke="rgb(100%, 100%, 100%)" stroke-opacity="1" stroke-miterlimit="4" d="M 436.560268 435.416853 C 436.317522 435.416853 396.345424 435.416853 396.102679 435.416853 C 376.521205 435.416853 360.66183 419.557478 360.66183 400.05692 C 360.66183 380.475446 376.521205 364.616071 396.102679 364.616071 C 396.345424 364.616071 396.58817 364.616071 396.830915 364.616071 M 396.830915 364.049665 C 396.58817 364.049665 396.345424 364.049665 396.102679 364.049665 C 376.521205 364.049665 360.66183 348.19029 360.66183 328.689732 C 360.66183 309.108259 376.521205 293.248884 396.102679 293.248884 C 396.345424 293.248884 396.58817 293.248884 396.830915 293.248884 M 396.830915 291.954241 C 396.58817 291.954241 396.345424 291.954241 396.102679 291.954241 C 376.521205 291.954241 360.66183 276.094866 360.66183 256.594308 C 360.66183 237.012835 376.521205 221.15346 396.102679 221.15346 C 396.345424 221.15346 396.58817 221.15346 396.830915 221.15346 M 396.830915 220.587054 C 396.58817 220.587054 396.345424 220.587054 396.102679 220.587054 C 376.521205 220.587054 360.66183 204.727679 360.66183 185.227121 C 360.66183 165.645647 376.521205 149.786272 396.102679 149.786272 C 396.345424 149.786272 436.317522 149.786272 436.560268 149.786272 " transform="matrix(0.0482759, 0, 0, 0.0482759, 0.0965517, -0.289655)"/>
<path fill="none" stroke-width="20" stroke-linecap="round" stroke-linejoin="miter" stroke="rgb(100%, 100%, 100%)" stroke-opacity="1" stroke-miterlimit="4" d="M 133.532924 435.416853 C 133.77567 435.416853 173.747768 435.416853 173.990513 435.416853 C 193.491071 435.416853 209.350446 419.557478 209.350446 400.05692 C 209.350446 380.475446 193.491071 364.616071 173.990513 364.616071 C 173.747768 364.616071 173.505022 364.616071 173.262277 364.616071 M 173.262277 364.049665 C 173.505022 364.049665 173.747768 364.049665 173.990513 364.049665 C 193.491071 364.049665 209.350446 348.19029 209.350446 328.689732 C 209.350446 309.108259 193.491071 293.248884 173.990513 293.248884 C 173.747768 293.248884 173.505022 293.248884 173.262277 293.248884 M 173.262277 291.954241 C 173.505022 291.954241 173.747768 291.954241 173.990513 291.954241 C 193.491071 291.954241 209.350446 276.094866 209.350446 256.594308 C 209.350446 237.012835 193.491071 221.15346 173.990513 221.15346 C 173.747768 221.15346 173.505022 221.15346 173.262277 221.15346 M 173.262277 220.587054 C 173.505022 220.587054 173.747768 220.587054 173.990513 220.587054 C 193.491071 220.587054 209.350446 204.727679 209.350446 185.227121 C 209.350446 165.645647 193.491071 149.786272 173.990513 149.786272 C 173.747768 149.786272 133.77567 149.786272 133.532924 149.786272 " transform="matrix(0.0482759, 0, 0, 0.0482759, 0.0965517, -0.289655)"/>
<path fill="none" stroke-width="20" stroke-linecap="round" stroke-linejoin="miter" stroke="rgb(100%, 100%, 100%)" stroke-opacity="1" stroke-miterlimit="4" d="M 313.488281 153.103795 L 313.488281 434.12221 " transform="matrix(0.0482759, 0, 0, 0.0482759, 0.0965517, -0.289655)"/>
<path fill="none" stroke-width="20" stroke-linecap="round" stroke-linejoin="miter" stroke="rgb(100%, 100%, 100%)" stroke-opacity="1" stroke-miterlimit="4" d="M 259.436942 153.103795 L 259.436942 434.12221 " transform="matrix(0.0482759, 0, 0, 0.0482759, 0.0965517, -0.289655)"/>
</svg>
