<?xml version="1.0" encoding="UTF-8"?>
<svg xmlns="http://www.w3.org/2000/svg" xmlns:xlink="http://www.w3.org/1999/xlink" width="28" height="28" viewBox="0 0 28 28">
<path fill-rule="nonzero" fill="rgb(6.666667%, 6.666667%, 6.666667%)" fill-opacity="1" stroke-width="3.408" stroke-linecap="butt" stroke-linejoin="miter" stroke="rgb(93.333333%, 93.333333%, 93.333333%)" stroke-opacity="1" stroke-miterlimit="4" d="M 66.269531 1.780134 C 24.921875 1.780134 1.699219 23.141741 1.699219 66.835938 L 1.699219 516.967076 C 1.699219 557.748326 22.575335 579.190848 63.922991 579.190848 L 515.915179 579.190848 C 557.262835 579.190848 578.138951 558.800223 578.138951 516.967076 L 578.138951 66.835938 C 578.138951 24.193638 557.262835 1.780134 514.620536 1.780134 C 514.620536 1.780134 66.107701 1.618304 66.269531 1.780134 Z M 66.269531 1.780134 " transform="matrix(0.0482759, 0, 0, 0.0482759, 0, 0)"/>
<path fill-rule="nonzero" fill="rgb(100%, 100%, 100%)" fill-opacity="1" d="M 22.605469 4.726562 L 22.59375 4.726562 C 22.605469 4.714844 22.613281 4.703125 22.613281 4.691406 C 22.613281 4.40625 18.699219 4.171875 13.871094 4.171875 C 9.042969 4.171875 5.132812 4.40625 5.132812 4.691406 C 5.132812 4.703125 5.140625 4.714844 5.152344 4.726562 L 5.132812 4.726562 L 12.878906 11.898438 L 12.878906 20.011719 L 7.859375 23.601562 L 7.871094 23.601562 C 7.847656 23.613281 7.835938 23.625 7.835938 23.640625 C 7.835938 23.835938 10.539062 24 13.871094 24 C 17.207031 24 19.910156 23.835938 19.910156 23.640625 C 19.910156 23.625 19.898438 23.613281 19.875 23.601562 L 14.859375 20.011719 L 14.859375 11.898438 Z M 14.121094 10.503906 C 13.980469 10.632812 13.753906 10.632812 13.613281 10.503906 L 9.871094 7.039062 C 9.730469 6.910156 9.773438 6.804688 9.960938 6.804688 L 17.773438 6.804688 C 17.964844 6.804688 18.003906 6.910156 17.863281 7.039062 Z M 14.121094 10.503906 "/>
</svg>
