<?xml version="1.0" encoding="UTF-8"?>
<svg xmlns="http://www.w3.org/2000/svg" xmlns:xlink="http://www.w3.org/1999/xlink" width="28" height="28" viewBox="0 0 28 28">
<defs>
<filter id="filter-remove-color" x="0%" y="0%" width="100%" height="100%">
<feColorMatrix color-interpolation-filters="sRGB" values="0 0 0 0 1 0 0 0 0 1 0 0 0 0 1 0 0 0 1 0" />
</filter>
<mask id="mask-0">
<g filter="url(#filter-remove-color)">
<rect x="-2.8" y="-2.8" width="33.6" height="33.6" fill="rgb(0%, 0%, 0%)" fill-opacity="0.1"/>
</g>
</mask>
<clipPath id="clip-0">
<rect x="0" y="0" width="28" height="28"/>
</clipPath>
<g id="source-7" clip-path="url(#clip-0)">
<path fill-rule="evenodd" fill="rgb(100%, 100%, 100%)" fill-opacity="1" d="M 5.625 4.027344 L 11.40625 3 L 17.792969 3.664062 L 18.179688 21.207031 L 19.078125 22.609375 C 19.078125 22.609375 16.164062 25.363281 11.695312 25.417969 C 7.226562 25.472656 4.65625 22.679688 4.65625 22.679688 L 5.792969 20.941406 Z M 5.625 4.027344 "/>
</g>
<mask id="mask-1">
<g filter="url(#filter-remove-color)">
<rect x="-2.8" y="-2.8" width="33.6" height="33.6" fill="rgb(0%, 0%, 0%)" fill-opacity="0.75"/>
</g>
</mask>
<clipPath id="clip-1">
<rect x="0" y="0" width="28" height="28"/>
</clipPath>
<g id="source-16" clip-path="url(#clip-1)">
<path fill-rule="nonzero" fill="rgb(100%, 100%, 100%)" fill-opacity="1" d="M 11.863281 3.125 C 7.738281 3.125 5.460938 4.175781 5.460938 4.421875 C 5.460938 4.429688 5.464844 4.441406 5.476562 4.453125 L 5.460938 4.453125 L 5.191406 9.679688 L 6.089844 9.679688 L 5.957031 5.988281 C 9.878906 8.707031 12.457031 5.617188 17.597656 5.882812 L 17.597656 9.679688 L 18.523438 9.679688 L 18.152344 4.132812 L 18.140625 4.132812 C 18.152344 4.121094 18.160156 4.113281 18.160156 4.101562 C 18.160156 3.855469 15.988281 3.125 11.863281 3.125 Z M 11.863281 3.125 "/>
</g>
</defs>
<path fill-rule="nonzero" fill="rgb(6.666667%, 6.666667%, 6.666667%)" fill-opacity="1" stroke-width="3.408" stroke-linecap="butt" stroke-linejoin="miter" stroke="rgb(93.333333%, 93.333333%, 93.333333%)" stroke-opacity="1" stroke-miterlimit="4" d="M 66.269531 1.780134 C 24.921875 1.780134 1.699219 23.141741 1.699219 66.835938 L 1.699219 516.967076 C 1.699219 557.748326 22.575335 579.190848 63.922991 579.190848 L 515.915179 579.190848 C 557.262835 579.190848 578.138951 558.800223 578.138951 516.967076 L 578.138951 66.835938 C 578.138951 24.193638 557.262835 1.780134 514.620536 1.780134 C 514.620536 1.780134 66.107701 1.618304 66.269531 1.780134 Z M 66.269531 1.780134 " transform="matrix(0.0482759, 0, 0, 0.0482759, 0, 0)"/>
<g mask="url(#mask-0)">
<use xlink:href="#source-7"/>
</g>
<path fill="none" stroke-width="35" stroke-linecap="round" stroke-linejoin="round" stroke="rgb(100%, 100%, 100%)" stroke-opacity="1" stroke-miterlimit="4" d="M 236.029576 60.200893 C 195.571987 61.09096 155.761719 63.922991 116.760603 77.273996 L 121.291853 431.439732 L 120.968192 431.439732 C 106.646205 440.744978 98.392857 456.604353 98.473772 468.175223 C 98.797433 500.864955 165.552455 526.676897 247.519531 525.948661 C 329.486607 525.139509 395.594308 498.032924 395.270647 465.424107 C 395.189732 455.147879 388.554688 440.583147 376.983817 432.329799 L 374.070871 430.226004 L 376.174665 74.765625 C 328.677455 61.819196 281.908482 59.229911 236.029576 60.200893 Z M 236.029576 60.200893 " transform="matrix(0.0482759, 0, 0, 0.0482759, 0, 0)"/>
<path fill="none" stroke-width="24.869495" stroke-linecap="round" stroke-linejoin="round" stroke="rgb(100%, 100%, 100%)" stroke-opacity="1" stroke-miterlimit="4" d="M 380.705915 125.580357 L 474.324777 121.534598 C 489.53683 124.447545 497.385603 133.348214 497.952009 148.155692 L 474.648438 342.433036 C 474.001116 356.674107 464.857701 362.5 452.396763 365.008371 L 383.052455 372.776228 " transform="matrix(0.0482759, 0, 0, 0.0482759, 0, 0)"/>
<path fill="none" stroke-width="22.058271" stroke-linecap="round" stroke-linejoin="round" stroke="rgb(100%, 100%, 100%)" stroke-opacity="1" stroke-miterlimit="4" d="M 120.563616 427.070312 C 148.883929 464.695871 201.155134 474.972098 248.328683 473.43471 C 294.288504 471.978237 349.310826 462.34933 374.960938 429.335938 " transform="matrix(0.0482759, 0, 0, 0.0482759, 0, 0)"/>
<path fill="none" stroke-width="30" stroke-linecap="round" stroke-linejoin="round" stroke="rgb(100%, 100%, 100%)" stroke-opacity="1" stroke-miterlimit="4" d="M 116.356027 427.879464 C 144.676339 465.505022 201.155134 475.78125 248.328683 474.243862 C 294.288504 472.787388 351.333705 461.135603 376.983817 428.12221 " transform="matrix(0.0482759, 0, 0, 0.0482759, 0, 0)"/>
<path fill="none" stroke-width="30" stroke-linecap="round" stroke-linejoin="round" stroke="rgb(100%, 100%, 100%)" stroke-opacity="1" stroke-miterlimit="4" d="M 380.705915 134.400112 L 467.770647 130.354353 C 482.901786 133.267299 490.750558 142.167969 491.316964 156.975446 L 470.279018 335.636161 C 469.631696 349.796317 460.488281 355.703125 448.027344 358.211496 L 383.052455 366.141183 " transform="matrix(0.0482759, 0, 0, 0.0482759, 0, 0)"/>
<g mask="url(#mask-1)">
<use xlink:href="#source-16"/>
</g>
</svg>
