<?xml version="1.0" encoding="UTF-8"?>
<svg xmlns="http://www.w3.org/2000/svg" xmlns:xlink="http://www.w3.org/1999/xlink" width="28" height="28" viewBox="0 0 28 28">
<path fill-rule="nonzero" fill="rgb(6.666667%, 6.666667%, 6.666667%)" fill-opacity="1" stroke-width="3.408" stroke-linecap="butt" stroke-linejoin="miter" stroke="rgb(93.333333%, 93.333333%, 93.333333%)" stroke-opacity="1" stroke-miterlimit="4" d="M 66.269531 1.780134 C 24.921875 1.780134 1.699219 23.141741 1.699219 66.835938 L 1.699219 516.967076 C 1.699219 557.748326 22.575335 579.190848 63.922991 579.190848 L 515.915179 579.190848 C 557.262835 579.190848 578.138951 558.881138 578.138951 516.967076 L 578.138951 66.835938 C 578.138951 24.193638 557.262835 1.780134 514.620536 1.780134 C 514.620536 1.780134 66.107701 1.618304 66.269531 1.780134 Z M 66.269531 1.780134 " transform="matrix(0.0482759, 0, 0, 0.0482759, 0, 0)"/>
<path fill-rule="evenodd" fill="rgb(100%, 100%, 100%)" fill-opacity="1" stroke-width="18.622366" stroke-linecap="round" stroke-linejoin="round" stroke="rgb(100%, 100%, 100%)" stroke-opacity="1" stroke-miterlimit="4" d="M 85.446429 125.094866 C 85.446429 125.094866 41.428571 463.320312 234.330357 462.592076 C 239.104353 462.915737 243.554688 462.915737 247.762277 462.915737 C 252.050781 462.915737 256.501116 462.915737 261.275112 462.592076 C 454.176897 463.320312 410.15904 125.094866 410.15904 125.094866 L 247.762277 125.742188 Z M 85.446429 125.094866 " transform="matrix(0.0482759, 0, 0, 0.0482759, 0, 0)"/>
<path fill="none" stroke-width="45.626621" stroke-linecap="butt" stroke-linejoin="miter" stroke="rgb(100%, 100%, 100%)" stroke-opacity="1" stroke-miterlimit="4" d="M 387.179129 197.02846 C 387.179129 197.02846 432.087054 162.96317 467.608817 162.96317 C 503.211496 162.96317 519.475446 218.390067 518.74721 255.530134 C 517.938058 292.751116 490.750558 383.699777 358.373326 385.31808 C 226.077009 386.855469 387.907366 197.02846 387.179129 197.02846 Z M 387.179129 197.02846 " transform="matrix(0.0482759, 0, 0, 0.0482759, 0, 0)"/>
</svg>
