<?xml version="1.0" encoding="UTF-8"?>
<svg xmlns="http://www.w3.org/2000/svg" xmlns:xlink="http://www.w3.org/1999/xlink" width="28" height="28" viewBox="0 0 28 28">
<defs>
<filter id="filter-remove-color" x="0%" y="0%" width="100%" height="100%">
<feColorMatrix color-interpolation-filters="sRGB" values="0 0 0 0 1 0 0 0 0 1 0 0 0 0 1 0 0 0 1 0" />
</filter>
<mask id="mask-0">
<g filter="url(#filter-remove-color)">
<rect x="-2.8" y="-2.8" width="33.6" height="33.6" fill="rgb(0%, 0%, 0%)" fill-opacity="0.985122"/>
</g>
</mask>
<clipPath id="clip-0">
<rect x="0" y="0" width="28" height="28"/>
</clipPath>
<g id="source-7" clip-path="url(#clip-0)">
<path fill-rule="nonzero" fill="rgb(100%, 100%, 100%)" fill-opacity="1" stroke-width="15" stroke-linecap="round" stroke-linejoin="round" stroke="rgb(100%, 100%, 100%)" stroke-opacity="1" stroke-miterlimit="4" d="M 391.637866 24.515098 C 379.98608 28.884518 364.04579 35.357732 358.058067 35.357732 C 352.070344 35.357732 347.215433 30.502821 347.215433 24.515098 C 347.215433 18.527375 352.070344 13.672464 358.058067 13.672464 C 363.722129 13.834294 380.309741 20.631169 391.637866 24.515098 Z M 391.637866 24.515098 " transform="matrix(0.0482759, 0, 0, 0.0482759, 1.698813, 1.312606)"/>
</g>
<mask id="mask-1">
<g filter="url(#filter-remove-color)">
<rect x="-2.8" y="-2.8" width="33.6" height="33.6" fill="rgb(0%, 0%, 0%)" fill-opacity="0.985122"/>
</g>
</mask>
<clipPath id="clip-1">
<rect x="0" y="0" width="28" height="28"/>
</clipPath>
<g id="source-11" clip-path="url(#clip-1)">
<path fill-rule="nonzero" fill="rgb(100%, 100%, 100%)" fill-opacity="1" stroke-width="15" stroke-linecap="round" stroke-linejoin="round" stroke="rgb(100%, 100%, 100%)" stroke-opacity="1" stroke-miterlimit="4" d="M 396.389509 39.704799 C 408.041295 44.074219 424.0625 50.547433 430.050223 50.547433 C 436.037946 50.547433 440.892857 45.692522 440.892857 39.704799 C 440.892857 33.717076 436.037946 28.862165 430.050223 28.862165 C 424.305246 29.023996 407.717634 35.820871 396.389509 39.704799 Z M 396.389509 39.704799 " transform="matrix(0.0482759, 0, 0, 0.0482759, 0.965517, 0.57931)"/>
</g>
<mask id="mask-2">
<g filter="url(#filter-remove-color)">
<rect x="-2.8" y="-2.8" width="33.6" height="33.6" fill="rgb(0%, 0%, 0%)" fill-opacity="0.985122"/>
</g>
</mask>
<clipPath id="clip-2">
<rect x="0" y="0" width="28" height="28"/>
</clipPath>
<g id="source-16" clip-path="url(#clip-2)">
<path fill-rule="nonzero" fill="rgb(100%, 100%, 100%)" fill-opacity="1" stroke-width="30" stroke-linecap="round" stroke-linejoin="round" stroke="rgb(100%, 100%, 100%)" stroke-opacity="1" stroke-miterlimit="4" d="M 424.22433 125.393973 C 424.22433 150.558594 414.029018 170.949219 401.40625 170.949219 C 388.864397 170.949219 378.669085 150.558594 378.669085 125.393973 C 378.669085 100.229353 388.864397 79.838728 401.40625 79.838728 C 414.029018 79.838728 424.22433 100.229353 424.22433 125.393973 Z M 424.22433 125.393973 " transform="matrix(0.0482759, 0, 0, 0.0482759, 0.965517, 0.57931)"/>
</g>
<mask id="mask-3">
<g filter="url(#filter-remove-color)">
<rect x="-2.8" y="-2.8" width="33.6" height="33.6" fill="rgb(0%, 0%, 0%)" fill-opacity="0.1"/>
</g>
</mask>
<clipPath id="clip-3">
<rect x="0" y="0" width="28" height="28"/>
</clipPath>
<g id="source-22" clip-path="url(#clip-3)">
<path fill-rule="evenodd" fill="rgb(100%, 100%, 100%)" fill-opacity="1" d="M 9.085938 13.355469 L 18.492188 13.429688 L 16.96875 25.480469 L 10.53125 25.554688 Z M 9.085938 13.355469 "/>
</g>
</defs>
<path fill-rule="nonzero" fill="rgb(6.666667%, 6.666667%, 6.666667%)" fill-opacity="1" stroke-width="3.408" stroke-linecap="butt" stroke-linejoin="miter" stroke="rgb(93.333333%, 93.333333%, 93.333333%)" stroke-opacity="1" stroke-miterlimit="4" d="M 66.269531 1.780134 C 24.921875 1.780134 1.699219 23.141741 1.699219 66.835938 L 1.699219 516.967076 C 1.699219 557.748326 22.575335 579.190848 63.922991 579.190848 L 515.915179 579.190848 C 557.262835 579.190848 578.138951 558.881138 578.138951 516.967076 L 578.138951 66.835938 C 578.138951 24.193638 557.262835 1.780134 514.620536 1.780134 C 514.620536 1.780134 66.107701 1.618304 66.269531 1.780134 Z M 66.269531 1.780134 " transform="matrix(0.0482759, 0, 0, 0.0482759, 0, 0)"/>
<g mask="url(#mask-0)">
<use xlink:href="#source-7"/>
</g>
<g mask="url(#mask-1)">
<use xlink:href="#source-11"/>
</g>
<path fill="none" stroke-width="30" stroke-linecap="round" stroke-linejoin="miter" stroke="rgb(100%, 100%, 100%)" stroke-opacity="1" stroke-miterlimit="4" d="M 401.40625 39.138393 L 401.40625 105.327009 L 402.215402 131.058036 " transform="matrix(0.0482759, 0, 0, 0.0482759, 0.965517, 0.57931)"/>
<g mask="url(#mask-2)">
<use xlink:href="#source-16"/>
</g>
<path fill="none" stroke-width="50" stroke-linecap="butt" stroke-linejoin="miter" stroke="rgb(100%, 100%, 100%)" stroke-opacity="1" stroke-miterlimit="4" d="M 522.940848 130.81529 L 345.008371 129.844308 L 330.929129 129.763393 C 261.503906 128.63058 265.792411 193.767299 265.792411 193.767299 " transform="matrix(0.0482759, 0, 0, 0.0482759, 0.965517, 0.57931)"/>
<path fill-rule="nonzero" fill="rgb(100%, 100%, 100%)" fill-opacity="1" d="M 19.367188 12.777344 L 19.359375 12.777344 C 19.371094 12.769531 19.375 12.761719 19.375 12.753906 C 19.375 12.574219 16.914062 12.429688 13.878906 12.429688 C 10.847656 12.429688 8.386719 12.574219 8.386719 12.753906 C 8.386719 12.761719 8.390625 12.769531 8.398438 12.777344 L 8.386719 12.777344 L 10.101562 25.851562 L 10.109375 25.851562 C 10.09375 25.859375 10.085938 25.867188 10.085938 25.875 C 10.085938 26 11.785156 26.101562 13.878906 26.101562 C 15.976562 26.101562 17.675781 26 17.675781 25.875 C 17.675781 25.867188 17.667969 25.859375 17.652344 25.851562 Z M 16.550781 24.894531 C 16.464844 24.976562 11.253906 24.9375 11.164062 24.859375 L 9.535156 13.570312 C 12.316406 13.578125 14.320312 13.714844 18.097656 13.492188 Z M 16.550781 24.894531 "/>
<g mask="url(#mask-3)">
<use xlink:href="#source-22"/>
</g>
</svg>
