<?xml version="1.0" encoding="UTF-8"?>
<svg xmlns="http://www.w3.org/2000/svg" xmlns:xlink="http://www.w3.org/1999/xlink" width="28" height="28" viewBox="0 0 28 28">
<path fill-rule="nonzero" fill="rgb(6.666667%, 6.666667%, 6.666667%)" fill-opacity="1" stroke-width="3.408" stroke-linecap="butt" stroke-linejoin="miter" stroke="rgb(93.333333%, 93.333333%, 93.333333%)" stroke-opacity="1" stroke-miterlimit="4" d="M 66.269531 1.780134 C 24.921875 1.780134 1.699219 23.141741 1.699219 66.835938 L 1.699219 516.967076 C 1.699219 557.748326 22.575335 579.190848 63.922991 579.190848 L 515.915179 579.190848 C 557.262835 579.190848 578.138951 558.881138 578.138951 516.967076 L 578.138951 66.835938 C 578.138951 24.193638 557.262835 1.780134 514.620536 1.780134 C 514.620536 1.780134 66.107701 1.618304 66.269531 1.780134 Z M 66.269531 1.780134 " transform="matrix(0.0482759, 0, 0, 0.0482759, 0, 0)"/>
<path fill-rule="nonzero" fill="rgb(100%, 100%, 100%)" fill-opacity="0.389908" d="M 24.75 21.535156 C 18.136719 27.613281 9.332031 27.417969 2.875 21.054688 L 14.0625 1.113281 Z M 24.75 21.535156 "/>
<path fill-rule="nonzero" fill="rgb(100%, 100%, 100%)" fill-opacity="0.389908" d="M 24.425781 20.832031 C 18.058594 26.703125 9.582031 26.515625 3.363281 20.371094 L 14.136719 1.109375 Z M 24.425781 20.832031 "/>
<path fill-rule="nonzero" fill="rgb(0%, 0%, 0%)" fill-opacity="0.389908" d="M 12.742188 13.851562 C 12.742188 14.507812 12.160156 15.035156 11.445312 15.035156 C 10.730469 15.035156 10.148438 14.507812 10.148438 13.851562 C 10.148438 13.199219 10.730469 12.667969 11.445312 12.667969 C 12.160156 12.667969 12.742188 13.199219 12.742188 13.851562 Z M 12.742188 13.851562 "/>
<path fill-rule="nonzero" fill="rgb(0%, 0%, 0%)" fill-opacity="0.389908" d="M 17.296875 17.480469 C 17.296875 18.136719 16.714844 18.667969 16 18.667969 C 15.285156 18.667969 14.703125 18.136719 14.703125 17.480469 C 14.703125 16.828125 15.285156 16.296875 16 16.296875 C 16.714844 16.296875 17.296875 16.828125 17.296875 17.480469 Z M 17.296875 17.480469 "/>
<path fill-rule="nonzero" fill="rgb(0%, 0%, 0%)" fill-opacity="0.389908" d="M 21.164062 14.699219 C 20.582031 14.996094 19.84375 14.71875 19.519531 14.078125 C 19.199219 13.441406 19.410156 12.683594 19.992188 12.386719 Z M 21.164062 14.699219 "/>
<path fill-rule="nonzero" fill="rgb(0%, 0%, 0%)" fill-opacity="0.389908" d="M 16.925781 9.332031 C 16.925781 9.988281 16.34375 10.519531 15.628906 10.519531 C 14.914062 10.519531 14.332031 9.988281 14.332031 9.332031 C 14.332031 8.679688 14.914062 8.148438 15.628906 8.148438 C 16.34375 8.148438 16.925781 8.679688 16.925781 9.332031 Z M 16.925781 9.332031 "/>
<path fill-rule="nonzero" fill="rgb(0%, 0%, 0%)" fill-opacity="0.389908" d="M 11.882812 5.023438 C 12.457031 5.339844 12.640625 6.101562 12.296875 6.730469 C 11.953125 7.359375 11.207031 7.609375 10.632812 7.292969 L 11.257812 6.160156 Z M 11.882812 5.023438 "/>
<path fill-rule="nonzero" fill="rgb(0%, 0%, 0%)" fill-opacity="0.389908" d="M 5.628906 16.097656 C 6.023438 16.289062 6.273438 16.695312 6.277344 17.164062 C 6.28125 17.632812 6.042969 18.085938 5.652344 18.339844 C 5.265625 18.597656 4.789062 18.613281 4.414062 18.386719 L 5.070312 17.269531 Z M 5.628906 16.097656 "/>
<path fill-rule="nonzero" fill="rgb(0%, 0%, 0%)" fill-opacity="0.389908" d="M 11.667969 20 C 11.667969 20.65625 11.085938 21.183594 10.371094 21.183594 C 9.65625 21.183594 9.074219 20.65625 9.074219 20 C 9.074219 19.34375 9.65625 18.816406 10.371094 18.816406 C 11.085938 18.816406 11.667969 19.34375 11.667969 20 Z M 11.667969 20 "/>
<path fill-rule="nonzero" fill="rgb(0%, 0%, 0%)" fill-opacity="0.389908" d="M 20.332031 21.703125 C 20.332031 22.359375 19.753906 22.890625 19.035156 22.890625 C 18.320312 22.890625 17.742188 22.359375 17.742188 21.703125 C 17.742188 21.050781 18.320312 20.519531 19.035156 20.519531 C 19.753906 20.519531 20.332031 21.050781 20.332031 21.703125 Z M 20.332031 21.703125 "/>
</svg>
