<?xml version="1.0" encoding="UTF-8"?>
<svg xmlns="http://www.w3.org/2000/svg" xmlns:xlink="http://www.w3.org/1999/xlink" width="28" height="28" viewBox="0 0 28 28">
<path fill-rule="nonzero" fill="rgb(6.666667%, 6.666667%, 6.666667%)" fill-opacity="1" stroke-width="3.408" stroke-linecap="butt" stroke-linejoin="miter" stroke="rgb(93.333333%, 93.333333%, 93.333333%)" stroke-opacity="1" stroke-miterlimit="4" d="M 66.269531 1.780134 C 24.921875 1.780134 1.699219 23.141741 1.699219 66.835938 L 1.699219 516.967076 C 1.699219 557.748326 22.575335 579.190848 63.922991 579.190848 L 515.915179 579.190848 C 557.262835 579.190848 578.138951 558.881138 578.138951 516.967076 L 578.138951 66.835938 C 578.138951 24.193638 557.262835 1.780134 514.620536 1.780134 C 514.620536 1.780134 66.107701 1.618304 66.269531 1.780134 Z M 66.269531 1.780134 " transform="matrix(0.0482759, 0, 0, 0.0482759, 0, 0)"/>
<path fill-rule="nonzero" fill="rgb(100%, 100%, 100%)" fill-opacity="1" d="M 24.417969 3.6875 L 22.914062 8.992188 L 15.257812 8.992188 L 17.101562 23.625 L 23.367188 23.625 L 25.238281 8.992188 L 23.820312 8.992188 L 25.296875 3.945312 Z M 14.347656 17.527344 C 14.5 16.203125 13.5 15.484375 11.34375 15.371094 L 6.152344 15.371094 C 4 15.484375 2.988281 16.203125 3.117188 17.527344 Z M 3.117188 21.5 C 2.988281 22.820312 4 23.53125 6.152344 23.625 L 11.34375 23.625 C 13.5 23.53125 14.5 22.820312 14.347656 21.5 Z M 13.867188 18.546875 L 3.574219 18.546875 C 3.308594 18.546875 3.082031 18.644531 2.890625 18.832031 C 2.703125 19.019531 2.609375 19.238281 2.609375 19.484375 C 2.609375 19.769531 2.703125 20 2.890625 20.179688 C 3.082031 20.359375 3.308594 20.449219 3.574219 20.449219 L 13.867188 20.449219 C 14.132812 20.449219 14.359375 20.359375 14.546875 20.179688 C 14.738281 20 14.832031 19.769531 14.832031 19.484375 C 14.832031 19.238281 14.738281 19.019531 14.546875 18.832031 C 14.359375 18.644531 14.132812 18.546875 13.867188 18.546875 Z M 13.867188 18.546875 "/>
</svg>
