<?xml version="1.0" encoding="UTF-8"?>
<svg xmlns="http://www.w3.org/2000/svg" xmlns:xlink="http://www.w3.org/1999/xlink" width="28" height="28" viewBox="0 0 28 28">
<defs>
<filter id="filter-remove-color" x="0%" y="0%" width="100%" height="100%">
<feColorMatrix color-interpolation-filters="sRGB" values="0 0 0 0 1 0 0 0 0 1 0 0 0 0 1 0 0 0 1 0" />
</filter>
<mask id="mask-0">
<g filter="url(#filter-remove-color)">
<rect x="-2.8" y="-2.8" width="33.6" height="33.6" fill="rgb(0%, 0%, 0%)" fill-opacity="0.25"/>
</g>
</mask>
<clipPath id="clip-0">
<rect x="0" y="0" width="28" height="28"/>
</clipPath>
<g id="source-8" clip-path="url(#clip-0)">
<path fill-rule="nonzero" fill="rgb(100%, 100%, 100%)" fill-opacity="1" d="M 14.019531 2.949219 C 11.515625 2.949219 8.929688 3.621094 6.777344 4.757812 C 4.644531 5.890625 2.933594 7.484375 2.1875 9.371094 C 1.800781 9.722656 1.519531 10.105469 1.363281 10.515625 C 1.152344 11.027344 1.046875 11.648438 1.046875 12.296875 C 1.046875 12.894531 1.140625 13.515625 1.335938 14.082031 C 1.273438 14.46875 1.246094 14.855469 1.246094 15.230469 C 1.246094 15.855469 1.320312 16.453125 1.445312 16.96875 C 1.566406 17.488281 1.730469 17.921875 1.921875 18.222656 L 1.933594 18.246094 C 1.984375 18.335938 2.042969 18.425781 2.105469 18.515625 C 2.152344 19.222656 2.265625 19.996094 2.519531 20.515625 L 2.566406 20.617188 L 2.570312 20.617188 C 3.175781 21.828125 4.632812 22.832031 6.609375 23.558594 C 8.648438 24.308594 11.253906 24.753906 14.09375 24.753906 C 16.933594 24.753906 19.539062 24.308594 21.578125 23.558594 C 23.554688 22.832031 25.007812 21.828125 25.613281 20.617188 L 25.617188 20.617188 L 25.667969 20.515625 C 25.816406 20.207031 25.914062 19.816406 25.980469 19.398438 C 26.046875 19 26.082031 18.578125 26.097656 18.195312 C 26.28125 17.890625 26.4375 17.472656 26.554688 16.972656 C 26.675781 16.457031 26.753906 15.855469 26.753906 15.234375 C 26.753906 14.855469 26.722656 14.46875 26.660156 14.085938 C 26.859375 13.519531 26.953125 12.898438 26.953125 12.296875 C 26.953125 11.644531 26.84375 11.015625 26.632812 10.503906 C 26.496094 10.144531 26.257812 9.8125 25.9375 9.496094 C 25.269531 7.535156 23.558594 5.910156 21.398438 4.765625 C 19.21875 3.613281 16.570312 2.949219 14.019531 2.949219 Z M 14.019531 2.949219 "/>
</g>
</defs>
<path fill-rule="nonzero" fill="rgb(6.666667%, 6.666667%, 6.666667%)" fill-opacity="1" stroke-width="3.408" stroke-linecap="butt" stroke-linejoin="miter" stroke="rgb(93.333333%, 93.333333%, 93.333333%)" stroke-opacity="1" stroke-miterlimit="4" d="M 66.269531 1.780134 C 24.921875 1.780134 1.699219 23.141741 1.699219 66.835938 L 1.699219 516.967076 C 1.699219 557.748326 22.575335 579.190848 63.922991 579.190848 L 515.915179 579.190848 C 557.262835 579.190848 578.138951 558.881138 578.138951 516.967076 L 578.138951 66.835938 C 578.138951 24.193638 557.262835 1.780134 514.620536 1.780134 C 514.620536 1.780134 66.107701 1.618304 66.269531 1.780134 Z M 66.269531 1.780134 " transform="matrix(0.0482759, 0, 0, 0.0482759, 0, 0)"/>
<path fill-rule="nonzero" fill="rgb(100%, 100%, 100%)" fill-opacity="1" d="M 14.019531 2.949219 C 11.515625 2.949219 8.929688 3.621094 6.777344 4.757812 C 4.644531 5.890625 2.933594 7.484375 2.1875 9.371094 C 1.800781 9.722656 1.519531 10.105469 1.363281 10.515625 C 1.152344 11.027344 1.046875 11.648438 1.046875 12.296875 C 1.046875 12.894531 1.140625 13.515625 1.335938 14.082031 C 1.273438 14.46875 1.246094 14.855469 1.246094 15.230469 C 1.246094 15.855469 1.320312 16.453125 1.445312 16.96875 C 1.566406 17.488281 1.730469 17.921875 1.921875 18.222656 L 1.933594 18.246094 C 1.984375 18.335938 2.042969 18.425781 2.105469 18.515625 C 2.152344 19.222656 2.265625 19.996094 2.519531 20.515625 L 2.566406 20.617188 L 2.570312 20.617188 C 3.175781 21.828125 4.632812 22.832031 6.609375 23.558594 C 8.648438 24.308594 11.253906 24.753906 14.09375 24.753906 C 16.933594 24.753906 19.539062 24.308594 21.578125 23.558594 C 23.554688 22.832031 25.007812 21.828125 25.613281 20.617188 L 25.617188 20.617188 L 25.667969 20.515625 C 25.816406 20.207031 25.914062 19.816406 25.980469 19.398438 C 26.046875 19 26.082031 18.578125 26.097656 18.195312 C 26.28125 17.890625 26.4375 17.472656 26.554688 16.972656 C 26.675781 16.457031 26.753906 15.855469 26.753906 15.234375 C 26.753906 14.855469 26.722656 14.46875 26.660156 14.085938 C 26.859375 13.519531 26.953125 12.898438 26.953125 12.296875 C 26.953125 11.644531 26.84375 11.015625 26.632812 10.503906 C 26.496094 10.144531 26.257812 9.8125 25.9375 9.496094 C 25.269531 7.535156 23.558594 5.910156 21.398438 4.765625 C 19.21875 3.613281 16.570312 2.949219 14.019531 2.949219 Z M 14.019531 3.320312 C 16.863281 3.316406 19.84375 4.167969 22.101562 5.597656 C 23.226562 6.3125 24.175781 7.167969 24.835938 8.128906 C 25.496094 9.09375 25.871094 10.15625 25.871094 11.296875 C 25.871094 11.730469 25.75 12.121094 25.527344 12.476562 C 25.324219 12.804688 25.027344 13.105469 24.660156 13.382812 C 24.617188 13.355469 24.582031 13.347656 24.554688 13.339844 C 24.519531 13.335938 24.492188 13.332031 24.46875 13.332031 C 24.441406 13.332031 24.421875 13.335938 24.417969 13.335938 L 24.402344 13.335938 C 24.054688 13.402344 23.804688 13.503906 23.570312 13.601562 C 23.332031 13.703125 23.113281 13.800781 22.792969 13.875 C 22.523438 13.9375 22.183594 13.996094 21.878906 14.140625 C 21.726562 14.214844 21.578125 14.3125 21.464844 14.453125 C 21.375 14.558594 21.304688 14.683594 21.261719 14.828125 C 20.398438 15.054688 19.476562 15.226562 18.570312 15.355469 C 16.8125 15.605469 15.097656 15.691406 13.90625 15.691406 C 12.144531 15.691406 9.265625 15.367188 6.800781 14.675781 C 6.769531 14.617188 6.730469 14.5625 6.683594 14.519531 C 6.492188 14.324219 6.230469 14.234375 5.980469 14.160156 C 5.734375 14.089844 5.488281 14.039062 5.347656 13.980469 C 5.152344 13.898438 4.894531 13.722656 4.617188 13.566406 C 4.339844 13.410156 4.039062 13.261719 3.71875 13.257812 C 3.636719 13.257812 3.558594 13.269531 3.480469 13.289062 C 3.464844 13.28125 3.445312 13.269531 3.433594 13.261719 C 3.027344 12.988281 2.710938 12.695312 2.492188 12.382812 C 2.277344 12.074219 2.164062 11.753906 2.164062 11.40625 C 2.164062 10.285156 2.542969 9.222656 3.203125 8.253906 C 4.195312 6.800781 5.832031 5.5625 7.753906 4.691406 C 9.675781 3.820312 11.886719 3.320312 14.019531 3.320312 Z M 3.71875 13.625 C 3.914062 13.625 4.175781 13.734375 4.433594 13.886719 C 4.699219 14.035156 4.957031 14.210938 5.207031 14.316406 C 5.339844 14.375 5.492188 14.410156 5.648438 14.449219 C 5.878906 14.511719 6.121094 14.574219 6.285156 14.671875 C 6.363281 14.722656 6.425781 14.773438 6.464844 14.832031 C 6.5 14.882812 6.519531 14.941406 6.527344 15.019531 L 6.523438 15.019531 C 6.304688 15.019531 6.03125 14.929688 5.757812 14.898438 C 5.484375 14.867188 5.195312 14.851562 4.902344 14.851562 C 4.789062 14.851562 4.671875 14.855469 4.558594 14.859375 C 4.222656 14.875 3.90625 14.96875 3.605469 15.105469 C 3.445312 15.179688 3.316406 15.285156 3.199219 15.359375 C 3.140625 15.402344 3.085938 15.433594 3.035156 15.453125 C 3.015625 15.394531 2.996094 15.34375 2.976562 15.292969 C 2.9375 15.203125 2.910156 15.125 2.898438 15.027344 C 2.898438 15.015625 2.898438 15.007812 2.898438 14.996094 C 2.894531 14.929688 2.917969 14.839844 2.949219 14.746094 C 2.980469 14.652344 3.015625 14.558594 3.039062 14.457031 C 3.09375 14.222656 3.136719 14.128906 3.203125 14.039062 C 3.261719 13.953125 3.363281 13.855469 3.503906 13.679688 L 3.539062 13.65625 C 3.597656 13.636719 3.652344 13.625 3.71875 13.625 Z M 24.394531 13.714844 C 24.390625 13.796875 24.386719 13.902344 24.378906 14.015625 C 24.371094 14.199219 24.359375 14.398438 24.359375 14.550781 C 24.359375 14.585938 24.363281 14.617188 24.363281 14.644531 C 24.367188 14.753906 24.386719 14.890625 24.40625 15.039062 C 24.425781 15.1875 24.445312 15.34375 24.445312 15.46875 C 24.445312 15.578125 24.425781 15.667969 24.414062 15.683594 C 24.386719 15.726562 24.363281 15.746094 24.316406 15.769531 C 24.273438 15.789062 24.210938 15.796875 24.136719 15.796875 C 23.960938 15.800781 23.722656 15.738281 23.507812 15.65625 C 23.289062 15.574219 23.089844 15.476562 22.96875 15.421875 C 22.683594 15.289062 22.394531 15.117188 22.039062 15.046875 C 21.964844 15.03125 21.890625 15.027344 21.824219 15.027344 C 21.730469 15.027344 21.648438 15.035156 21.597656 15.039062 L 21.597656 15.035156 C 21.621094 14.882812 21.671875 14.777344 21.746094 14.6875 C 21.855469 14.558594 22.023438 14.464844 22.230469 14.398438 C 22.433594 14.328125 22.664062 14.285156 22.878906 14.234375 C 23.230469 14.152344 23.480469 14.042969 23.710938 13.945312 C 23.925781 13.851562 24.125 13.773438 24.394531 13.714844 Z M 1.886719 14.820312 C 1.933594 14.894531 1.984375 14.96875 2.039062 15.035156 C 3.476562 17.148438 8.285156 18.699219 14 18.699219 C 19.710938 18.699219 24.519531 17.148438 25.960938 15.039062 C 26.015625 14.96875 26.0625 14.894531 26.109375 14.820312 C 25.304688 17.136719 21.648438 18.988281 16.917969 19.539062 C 16.925781 19.515625 16.929688 19.488281 16.933594 19.460938 L 16.945312 19.363281 L 16.867188 19.296875 C 16.660156 19.128906 16.398438 19.09375 16.144531 19.089844 C 15.835938 19.09375 15.527344 19.148438 15.320312 19.179688 C 14.886719 19.242188 14.414062 19.339844 13.980469 19.339844 C 13.902344 19.339844 13.824219 19.335938 13.75 19.328125 C 13.246094 19.285156 12.753906 19.144531 12.203125 19.070312 C 12.105469 19.054688 12.003906 19.042969 11.898438 19.042969 C 11.734375 19.042969 11.5625 19.078125 11.394531 19.167969 C 11.328125 19.203125 11.25 19.25 11.179688 19.320312 C 11.144531 19.351562 11.109375 19.390625 11.078125 19.4375 C 11.0625 19.464844 11.046875 19.496094 11.035156 19.535156 C 6.328125 18.976562 2.691406 17.125 1.886719 14.820312 Z M 25.714844 18.453125 C 25.699219 18.679688 25.679688 18.917969 25.648438 19.148438 C 25.589844 19.5625 25.5 19.960938 25.382812 20.25 L 25.378906 20.25 L 25.332031 20.355469 C 24.839844 21.460938 23.4375 22.484375 21.449219 23.214844 C 19.460938 23.945312 16.894531 24.386719 14.09375 24.386719 C 11.289062 24.386719 8.722656 23.945312 6.734375 23.214844 C 4.746094 22.484375 3.34375 21.460938 2.851562 20.355469 L 2.804688 20.25 L 2.800781 20.25 C 2.683594 19.960938 2.59375 19.5625 2.539062 19.148438 C 2.519531 19.003906 2.5 18.859375 2.488281 18.714844 C 4.226562 20.769531 8.726562 22.230469 14 22.230469 C 19.496094 22.230469 24.148438 20.640625 25.714844 18.453125 Z M 11.898438 19.414062 C 11.976562 19.414062 12.0625 19.421875 12.15625 19.4375 C 12.667969 19.503906 13.167969 19.648438 13.714844 19.699219 C 13.800781 19.707031 13.890625 19.707031 13.976562 19.707031 C 14.464844 19.707031 14.953125 19.605469 15.371094 19.546875 C 15.589844 19.515625 15.882812 19.460938 16.140625 19.460938 C 16.285156 19.460938 16.410156 19.476562 16.503906 19.511719 C 16.496094 19.519531 16.484375 19.53125 16.472656 19.542969 C 16.371094 19.625 16.191406 19.710938 16 19.796875 C 15.8125 19.882812 15.613281 19.96875 15.464844 20.105469 C 15.273438 20.28125 15.097656 20.507812 14.914062 20.714844 C 14.734375 20.917969 14.546875 21.09375 14.371094 21.160156 C 14.300781 21.191406 14.230469 21.203125 14.160156 21.203125 C 13.972656 21.207031 13.761719 21.113281 13.5625 20.972656 C 13.363281 20.835938 13.175781 20.65625 13.035156 20.503906 C 12.855469 20.308594 12.628906 20.09375 12.363281 19.917969 C 12.097656 19.746094 11.796875 19.613281 11.464844 19.59375 L 11.429688 19.589844 C 11.4375 19.582031 11.449219 19.570312 11.460938 19.5625 C 11.496094 19.53125 11.539062 19.507812 11.566406 19.492188 C 11.675781 19.433594 11.777344 19.414062 11.898438 19.414062 Z M 11.898438 19.414062 "/>
<g mask="url(#mask-0)">
<use xlink:href="#source-8"/>
</g>
</svg>
