<?xml version="1.0" encoding="UTF-8"?>
<svg xmlns="http://www.w3.org/2000/svg" xmlns:xlink="http://www.w3.org/1999/xlink" width="28" height="28" viewBox="0 0 28 28">
<path fill-rule="nonzero" fill="rgb(6.666667%, 6.666667%, 6.666667%)" fill-opacity="1" stroke-width="3.408" stroke-linecap="butt" stroke-linejoin="miter" stroke="rgb(93.333333%, 93.333333%, 93.333333%)" stroke-opacity="1" stroke-miterlimit="4" d="M 66.269531 1.780134 C 24.921875 1.780134 1.699219 23.141741 1.699219 66.835938 L 1.699219 516.967076 C 1.699219 557.748326 22.575335 579.190848 63.922991 579.190848 L 515.915179 579.190848 C 557.262835 579.190848 578.138951 558.881138 578.138951 516.967076 L 578.138951 66.835938 C 578.138951 24.193638 557.262835 1.780134 514.620536 1.780134 C 514.620536 1.780134 66.107701 1.618304 66.269531 1.780134 Z M 66.269531 1.780134 " transform="matrix(0.0482759, 0, 0, 0.0482759, 0, 0)"/>
<path fill-rule="nonzero" fill="rgb(100%, 100%, 100%)" fill-opacity="0.477064" d="M 26.109375 9.289062 C 28.113281 14.796875 26.015625 20.929688 21.023438 24.148438 C 16.03125 27.371094 9.433594 26.847656 5.042969 22.882812 C 0.648438 18.914062 -0.410156 12.53125 2.476562 7.414062 C 5.363281 2.296875 11.453125 -0.238281 17.230469 1.277344 L 13.859375 13.546875 Z M 26.109375 9.289062 "/>
<path fill-rule="nonzero" fill="rgb(100%, 100%, 100%)" fill-opacity="0.477064" d="M 25.011719 9.730469 C 26.855469 14.875 24.921875 20.601562 20.332031 23.605469 C 15.742188 26.605469 9.683594 26.101562 5.660156 22.386719 C 1.636719 18.667969 0.6875 12.699219 3.363281 7.929688 C 6.039062 3.164062 11.644531 0.828125 16.941406 2.277344 L 13.777344 13.703125 Z M 25.011719 9.730469 "/>
<path fill-rule="nonzero" fill="rgb(0%, 0%, 0%)" fill-opacity="0.389908" d="M 10.511719 13.75 C 10.511719 14.285156 10.078125 14.714844 9.546875 14.714844 C 9.011719 14.714844 8.582031 14.285156 8.582031 13.75 C 8.582031 13.21875 9.011719 12.785156 9.546875 12.785156 C 10.078125 12.785156 10.511719 13.21875 10.511719 13.75 Z M 10.511719 13.75 "/>
<path fill-rule="nonzero" fill="rgb(0%, 0%, 0%)" fill-opacity="0.389908" d="M 12.5625 4.101562 C 12.5625 4.632812 12.132812 5.066406 11.597656 5.066406 C 11.066406 5.066406 10.632812 4.632812 10.632812 4.101562 C 10.632812 3.566406 11.066406 3.136719 11.597656 3.136719 C 12.132812 3.136719 12.5625 3.566406 12.5625 4.101562 Z M 12.5625 4.101562 "/>
<path fill-rule="nonzero" fill="rgb(0%, 0%, 0%)" fill-opacity="0.389908" d="M 8.113281 7.378906 C 8.113281 7.914062 7.679688 8.347656 7.144531 8.347656 C 6.613281 8.347656 6.179688 7.914062 6.179688 7.378906 C 6.179688 6.847656 6.613281 6.414062 7.144531 6.414062 C 7.679688 6.414062 8.113281 6.847656 8.113281 7.378906 Z M 8.113281 7.378906 "/>
<path fill-rule="nonzero" fill="rgb(0%, 0%, 0%)" fill-opacity="0.389908" d="M 12.09375 9.136719 C 12.09375 9.671875 11.664062 10.105469 11.128906 10.105469 C 10.597656 10.105469 10.164062 9.671875 10.164062 9.136719 C 10.164062 8.605469 10.597656 8.171875 11.128906 8.171875 C 11.664062 8.171875 12.09375 8.605469 12.09375 9.136719 Z M 12.09375 9.136719 "/>
<path fill-rule="nonzero" fill="rgb(0%, 0%, 0%)" fill-opacity="0.389908" d="M 5.652344 12.652344 C 5.652344 13.1875 5.21875 13.617188 4.6875 13.617188 C 4.152344 13.617188 3.71875 13.1875 3.71875 12.652344 C 3.71875 12.121094 4.152344 11.6875 4.6875 11.6875 C 5.21875 11.6875 5.652344 12.121094 5.652344 12.652344 Z M 5.652344 12.652344 "/>
<path fill-rule="nonzero" fill="rgb(0%, 0%, 0%)" fill-opacity="0.389908" d="M 7.410156 17.691406 C 7.410156 18.222656 6.976562 18.65625 6.445312 18.65625 C 5.910156 18.65625 5.476562 18.222656 5.476562 17.691406 C 5.476562 17.15625 5.910156 16.726562 6.445312 16.726562 C 6.976562 16.726562 7.410156 17.15625 7.410156 17.691406 Z M 7.410156 17.691406 "/>
<path fill-rule="nonzero" fill="rgb(0%, 0%, 0%)" fill-opacity="0.389908" d="M 13.734375 16.636719 C 13.734375 17.167969 13.304688 17.601562 12.769531 17.601562 C 12.238281 17.601562 11.804688 17.167969 11.804688 16.636719 C 11.804688 16.101562 12.238281 15.671875 12.769531 15.671875 C 13.304688 15.671875 13.734375 16.101562 13.734375 16.636719 Z M 13.734375 16.636719 "/>
<path fill-rule="nonzero" fill="rgb(0%, 0%, 0%)" fill-opacity="0.389908" d="M 18.539062 16.636719 C 18.539062 17.167969 18.105469 17.601562 17.574219 17.601562 C 17.039062 17.601562 16.609375 17.167969 16.609375 16.636719 C 16.609375 16.101562 17.039062 15.671875 17.574219 15.671875 C 18.105469 15.671875 18.539062 16.101562 18.539062 16.636719 Z M 18.539062 16.636719 "/>
<path fill-rule="nonzero" fill="rgb(0%, 0%, 0%)" fill-opacity="0.389908" d="M 23.8125 14.644531 C 23.8125 15.175781 23.378906 15.609375 22.84375 15.609375 C 22.3125 15.609375 21.878906 15.175781 21.878906 14.644531 C 21.878906 14.109375 22.3125 13.679688 22.84375 13.679688 C 23.378906 13.679688 23.8125 14.109375 23.8125 14.644531 Z M 23.8125 14.644531 "/>
<path fill-rule="nonzero" fill="rgb(0%, 0%, 0%)" fill-opacity="0.389908" d="M 21.703125 20.152344 C 21.703125 20.683594 21.269531 21.117188 20.738281 21.117188 C 20.203125 21.117188 19.769531 20.683594 19.769531 20.152344 C 19.769531 19.617188 20.203125 19.183594 20.738281 19.183594 C 21.269531 19.183594 21.703125 19.617188 21.703125 20.152344 Z M 21.703125 20.152344 "/>
<path fill-rule="nonzero" fill="rgb(0%, 0%, 0%)" fill-opacity="0.389908" d="M 16.546875 22.023438 C 16.546875 22.558594 16.113281 22.992188 15.582031 22.992188 C 15.046875 22.992188 14.617188 22.558594 14.617188 22.023438 C 14.617188 21.492188 15.046875 21.058594 15.582031 21.058594 C 16.113281 21.058594 16.546875 21.492188 16.546875 22.023438 Z M 16.546875 22.023438 "/>
<path fill-rule="nonzero" fill="rgb(0%, 0%, 0%)" fill-opacity="0.389908" d="M 10.339844 21.789062 C 10.339844 22.324219 9.90625 22.757812 9.371094 22.757812 C 8.839844 22.757812 8.40625 22.324219 8.40625 21.789062 C 8.40625 21.257812 8.839844 20.824219 9.371094 20.824219 C 9.90625 20.824219 10.339844 21.257812 10.339844 21.789062 Z M 10.339844 21.789062 "/>
<path fill-rule="nonzero" fill="rgb(0%, 0%, 0%)" fill-opacity="0.389908" d="M 20.507812 11.207031 C 20.726562 11.824219 20.355469 12.515625 19.679688 12.753906 C 19.003906 12.992188 18.28125 12.683594 18.0625 12.066406 Z M 20.507812 11.207031 "/>
<path fill-rule="nonzero" fill="rgb(0%, 0%, 0%)" fill-opacity="0.389908" d="M 15.4375 7.667969 C 14.808594 7.488281 14.460938 6.78125 14.660156 6.09375 C 14.855469 5.40625 15.527344 4.996094 16.15625 5.175781 Z M 15.4375 7.667969 "/>
</svg>
