<?xml version="1.0" encoding="UTF-8"?>
<svg xmlns="http://www.w3.org/2000/svg" xmlns:xlink="http://www.w3.org/1999/xlink" width="28" height="28" viewBox="0 0 28 28">
<defs>
<filter id="filter-remove-color" x="0%" y="0%" width="100%" height="100%">
<feColorMatrix color-interpolation-filters="sRGB" values="0 0 0 0 1 0 0 0 0 1 0 0 0 0 1 0 0 0 1 0" />
</filter>
<mask id="mask-0">
<g filter="url(#filter-remove-color)">
<rect x="-2.8" y="-2.8" width="33.6" height="33.6" fill="rgb(0%, 0%, 0%)" fill-opacity="0.1"/>
</g>
</mask>
<clipPath id="clip-0">
<rect x="0" y="0" width="28" height="28"/>
</clipPath>
<g id="source-8" clip-path="url(#clip-0)">
<path fill-rule="evenodd" fill="rgb(100%, 100%, 100%)" fill-opacity="1" d="M 6.242188 5.757812 L 21.210938 5.878906 L 18.789062 23.816406 L 8.546875 23.9375 Z M 6.242188 5.757812 "/>
</g>
</defs>
<path fill-rule="nonzero" fill="rgb(6.666667%, 6.666667%, 6.666667%)" fill-opacity="1" stroke-width="3.408" stroke-linecap="butt" stroke-linejoin="miter" stroke="rgb(93.333333%, 93.333333%, 93.333333%)" stroke-opacity="1" stroke-miterlimit="4" d="M 66.269531 1.780134 C 24.921875 1.780134 1.699219 23.141741 1.699219 66.835938 L 1.699219 516.967076 C 1.699219 557.748326 22.575335 579.190848 63.922991 579.190848 L 515.915179 579.190848 C 557.262835 579.190848 578.138951 558.800223 578.138951 516.967076 L 578.138951 66.835938 C 578.138951 24.193638 557.262835 1.780134 514.620536 1.780134 C 514.620536 1.780134 66.107701 1.618304 66.269531 1.780134 Z M 66.269531 1.780134 " transform="matrix(0.0482759, 0, 0, 0.0482759, 0, 0)"/>
<path fill-rule="nonzero" fill="rgb(100%, 100%, 100%)" fill-opacity="1" d="M 22.605469 3.761719 L 22.59375 3.761719 C 22.605469 3.75 22.613281 3.738281 22.613281 3.726562 C 22.613281 3.4375 18.699219 3.207031 13.871094 3.207031 C 9.042969 3.207031 5.132812 3.4375 5.132812 3.726562 C 5.132812 3.738281 5.140625 3.75 5.152344 3.761719 L 5.132812 3.761719 L 7.859375 24.566406 L 7.871094 24.566406 C 7.847656 24.578125 7.835938 24.59375 7.835938 24.605469 C 7.835938 24.804688 10.539062 24.964844 13.871094 24.964844 C 17.207031 24.964844 19.910156 24.804688 19.910156 24.605469 C 19.910156 24.59375 19.898438 24.578125 19.875 24.566406 Z M 18.121094 23.042969 C 17.980469 23.175781 9.691406 23.113281 9.554688 22.984375 L 6.960938 6.558594 C 11.550781 9.738281 14.570312 6.125 20.582031 6.4375 Z M 18.121094 23.042969 "/>
<g mask="url(#mask-0)">
<use xlink:href="#source-8"/>
</g>
</svg>
