<?xml version="1.0" encoding="UTF-8"?>
<svg xmlns="http://www.w3.org/2000/svg" xmlns:xlink="http://www.w3.org/1999/xlink" width="28" height="28" viewBox="0 0 28 28">
<path fill-rule="nonzero" fill="rgb(6.666667%, 6.666667%, 6.666667%)" fill-opacity="1" stroke-width="3.408" stroke-linecap="butt" stroke-linejoin="miter" stroke="rgb(93.333333%, 93.333333%, 93.333333%)" stroke-opacity="1" stroke-miterlimit="4" d="M 66.269531 1.780134 C 24.921875 1.780134 1.699219 23.141741 1.699219 66.835938 L 1.699219 516.967076 C 1.699219 557.748326 22.575335 579.190848 63.922991 579.190848 L 515.915179 579.190848 C 557.262835 579.190848 578.138951 558.800223 578.138951 516.967076 L 578.138951 66.835938 C 578.138951 24.193638 557.262835 1.780134 514.620536 1.780134 C 514.620536 1.780134 66.107701 1.618304 66.269531 1.780134 Z M 66.269531 1.780134 " transform="matrix(0.0482759, 0, 0, 0.0482759, 0, 0)"/>
<path fill-rule="nonzero" fill="rgb(100%, 100%, 100%)" fill-opacity="1" d="M 9.835938 16.347656 C 11.652344 15.503906 12.964844 13.0625 12.964844 10.183594 C 12.964844 6.605469 9.980469 2.691406 8.4375 2.691406 C 6.890625 2.691406 3.90625 6.605469 3.90625 10.183594 C 3.90625 13.0625 5.21875 15.503906 7.035156 16.347656 L 6.660156 24.871094 L 10.210938 24.871094 Z M 9.835938 16.347656 "/>
<path fill-rule="nonzero" fill="rgb(100%, 100%, 100%)" fill-opacity="1" d="M 20.769531 17.792969 C 22.585938 16.953125 23.25 15.867188 23.25 12.988281 L 22.777344 3.195312 C 22.777344 3.007812 22.625 2.859375 22.441406 2.859375 L 22.21875 2.859375 C 22.03125 2.859375 21.878906 3.007812 21.878906 3.195312 L 22.035156 12.988281 L 21.058594 12.988281 L 20.808594 3.101562 C 20.808594 2.914062 20.660156 2.761719 20.472656 2.761719 L 20.183594 2.761719 C 19.996094 2.761719 19.84375 2.914062 19.84375 3.101562 L 19.976562 12.988281 L 18.761719 12.988281 L 18.898438 3.101562 C 18.898438 2.914062 18.746094 2.761719 18.558594 2.761719 L 18.269531 2.761719 C 18.082031 2.761719 17.929688 2.914062 17.929688 3.101562 L 17.683594 12.988281 L 16.726562 12.988281 L 16.882812 3.199219 C 16.882812 3.011719 16.730469 2.859375 16.542969 2.859375 L 16.320312 2.859375 C 16.132812 2.859375 15.984375 3.011719 15.984375 3.199219 L 15.492188 12.988281 C 15.492188 15.867188 16.152344 16.953125 17.972656 17.792969 L 17.59375 24.871094 L 21.144531 24.871094 Z M 20.769531 17.792969 "/>
</svg>
