<?xml version="1.0" encoding="UTF-8"?>
<svg xmlns="http://www.w3.org/2000/svg" xmlns:xlink="http://www.w3.org/1999/xlink" width="28" height="28" viewBox="0 0 28 28">
<path fill-rule="nonzero" fill="rgb(6.666667%, 6.666667%, 6.666667%)" fill-opacity="1" stroke-width="3.408" stroke-linecap="butt" stroke-linejoin="miter" stroke="rgb(93.333333%, 93.333333%, 93.333333%)" stroke-opacity="1" stroke-miterlimit="4" d="M 66.269531 1.780134 C 24.921875 1.780134 1.699219 23.141741 1.699219 66.835938 L 1.699219 516.967076 C 1.699219 557.748326 22.575335 579.190848 63.922991 579.190848 L 515.915179 579.190848 C 557.262835 579.190848 578.138951 558.881138 578.138951 516.967076 L 578.138951 66.835938 C 578.138951 24.193638 557.262835 1.780134 514.620536 1.780134 C 514.620536 1.780134 66.107701 1.618304 66.269531 1.780134 Z M 66.269531 1.780134 " transform="matrix(0.0482759, 0, 0, 0.0482759, 0, 0)"/>
<path fill-rule="evenodd" fill="rgb(100%, 100%, 100%)" fill-opacity="1" stroke-width="4.258363" stroke-linecap="round" stroke-linejoin="round" stroke="rgb(100%, 100%, 100%)" stroke-opacity="1" stroke-miterlimit="4" d="M 295.906808 82.776228 L 206.981027 274.545201 L 236.515067 266.534598 L 195.410156 331.104911 L 228.585379 323.094308 L 181.573661 392.357701 L 273.897879 378.521205 L 273.897879 476.752232 L 295.906808 476.752232 Z M 296.149554 82.776228 L 296.149554 476.752232 L 318.077567 476.752232 L 318.077567 378.521205 L 410.563616 392.357701 L 363.551897 323.094308 L 396.646205 331.104911 L 357.483259 266.534598 L 385.15625 274.545201 Z M 296.149554 82.776228 " transform="matrix(0.0482759, 0, 0, 0.0482759, 0, 0)"/>
</svg>
