<?xml version="1.0" encoding="UTF-8"?>
<svg xmlns="http://www.w3.org/2000/svg" xmlns:xlink="http://www.w3.org/1999/xlink" width="28" height="28" viewBox="0 0 28 28">
<path fill-rule="nonzero" fill="rgb(6.666667%, 6.666667%, 6.666667%)" fill-opacity="1" stroke-width="3.408" stroke-linecap="butt" stroke-linejoin="miter" stroke="rgb(93.333333%, 93.333333%, 93.333333%)" stroke-opacity="1" stroke-miterlimit="4" d="M 66.269531 1.780134 C 24.921875 1.780134 1.699219 23.141741 1.699219 66.835938 L 1.699219 516.967076 C 1.699219 557.748326 22.575335 579.190848 63.922991 579.190848 L 515.915179 579.190848 C 557.262835 579.190848 578.138951 558.881138 578.138951 516.967076 L 578.138951 66.835938 C 578.138951 24.193638 557.262835 1.780134 514.620536 1.780134 C 514.620536 1.780134 66.107701 1.618304 66.269531 1.780134 Z M 66.269531 1.780134 " transform="matrix(0.0482759, 0, 0, 0.0482759, 0, 0)"/>
<path fill-rule="nonzero" fill="rgb(100%, 100%, 100%)" fill-opacity="1" d="M 19.644531 4.726562 C 18.398438 4.703125 17.085938 5.394531 16.824219 6.804688 C 16.710938 7.402344 16.617188 7.59375 15.910156 7.605469 C 13.730469 7.644531 12.804688 10.847656 14.644531 12.359375 C 14.828125 12.507812 14.722656 12.636719 14.109375 13.105469 C 10.980469 15.480469 14.347656 20.226562 17.542969 17.949219 C 18.011719 17.613281 18.085938 17.609375 18.191406 17.886719 C 18.414062 18.46875 18.316406 21.257812 18.039062 22.179688 L 17.761719 23.101562 L 19.433594 23.101562 C 19.597656 23.101562 19.679688 23.101562 19.816406 23.101562 C 19.953125 23.101562 20.035156 23.101562 20.203125 23.101562 L 21.875 23.101562 L 21.605469 22.179688 C 21.328125 21.257812 21.222656 18.46875 21.445312 17.886719 C 21.550781 17.609375 21.625 17.613281 22.09375 17.949219 C 25.289062 20.226562 28.65625 15.480469 25.527344 13.105469 C 24.914062 12.636719 24.777344 12.441406 25 12.359375 C 26.839844 11.652344 25.851562 7.964844 23.726562 7.605469 C 23.03125 7.488281 22.933594 7.402344 22.820312 6.804688 C 22.542969 5.324219 21.117188 4.644531 19.820312 4.738281 C 19.761719 4.734375 19.703125 4.726562 19.644531 4.726562 Z M 19.644531 4.726562 "/>
<path fill-rule="evenodd" fill="rgb(100%, 100%, 100%)" fill-opacity="1" stroke-width="4.258363" stroke-linecap="round" stroke-linejoin="round" stroke="rgb(100%, 100%, 100%)" stroke-opacity="1" stroke-miterlimit="4" d="M 145.890067 82.776228 L 56.964286 274.545201 L 76.545759 274.545201 L 45.393415 331.104911 L 68.535156 331.104911 L 31.55692 392.357701 L 123.881138 378.521205 L 123.881138 476.752232 L 145.890067 476.752232 Z M 146.132812 82.776228 L 146.132812 476.752232 L 168.060826 476.752232 L 168.060826 378.521205 L 260.546875 392.357701 L 223.568638 331.104911 L 246.629464 331.104911 L 215.477121 274.545201 L 235.139509 274.545201 Z M 146.132812 82.776228 " transform="matrix(0.0482759, 0, 0, 0.0482759, 0, 0)"/>
</svg>
