<?xml version="1.0" encoding="UTF-8"?>
<svg xmlns="http://www.w3.org/2000/svg" xmlns:xlink="http://www.w3.org/1999/xlink" width="28" height="28" viewBox="0 0 28 28">
<path fill-rule="nonzero" fill="rgb(6.666667%, 6.666667%, 6.666667%)" fill-opacity="1" stroke-width="3.408" stroke-linecap="butt" stroke-linejoin="miter" stroke="rgb(93.333333%, 93.333333%, 93.333333%)" stroke-opacity="1" stroke-miterlimit="4" d="M 66.269531 1.780134 C 24.921875 1.780134 1.699219 23.141741 1.699219 66.835938 L 1.699219 516.967076 C 1.699219 557.748326 22.575335 579.190848 63.922991 579.190848 L 515.915179 579.190848 C 557.262835 579.190848 578.138951 558.881138 578.138951 516.967076 L 578.138951 66.835938 C 578.138951 24.193638 557.262835 1.780134 514.620536 1.780134 C 514.620536 1.780134 66.107701 1.618304 66.269531 1.780134 Z M 66.269531 1.780134 " transform="matrix(0.0482759, 0, 0, 0.0482759, 0, 0)"/>
<path fill-rule="nonzero" fill="rgb(100%, 100%, 100%)" fill-opacity="1" d="M 13.847656 4.726562 C 12.605469 4.703125 11.292969 5.394531 11.03125 6.804688 C 10.917969 7.402344 10.824219 7.59375 10.117188 7.605469 C 7.9375 7.644531 7.011719 10.847656 8.851562 12.359375 C 9.035156 12.507812 8.929688 12.636719 8.316406 13.105469 C 5.1875 15.480469 8.554688 20.226562 11.75 17.949219 C 12.21875 17.613281 12.292969 17.609375 12.398438 17.886719 C 12.621094 18.46875 12.523438 21.257812 12.246094 22.179688 L 11.96875 23.101562 L 13.640625 23.101562 C 13.804688 23.101562 13.886719 23.101562 14.023438 23.101562 C 14.15625 23.101562 14.242188 23.101562 14.410156 23.101562 L 16.082031 23.101562 L 15.8125 22.179688 C 15.535156 21.257812 15.429688 18.46875 15.652344 17.886719 C 15.757812 17.609375 15.832031 17.613281 16.300781 17.949219 C 19.496094 20.226562 22.863281 15.480469 19.734375 13.105469 C 19.121094 12.636719 18.984375 12.441406 19.207031 12.359375 C 21.046875 11.652344 20.058594 7.964844 17.933594 7.605469 C 17.238281 7.488281 17.140625 7.402344 17.027344 6.804688 C 16.75 5.324219 15.324219 4.644531 14.027344 4.738281 C 13.96875 4.734375 13.910156 4.726562 13.847656 4.726562 Z M 13.847656 4.726562 "/>
</svg>
