<?xml version="1.0" encoding="UTF-8"?>
<svg xmlns="http://www.w3.org/2000/svg" xmlns:xlink="http://www.w3.org/1999/xlink" width="28" height="28" viewBox="0 0 28 28">
<path fill-rule="nonzero" fill="rgb(6.666667%, 6.666667%, 6.666667%)" fill-opacity="1" stroke-width="3.408" stroke-linecap="butt" stroke-linejoin="miter" stroke="rgb(93.333333%, 93.333333%, 93.333333%)" stroke-opacity="1" stroke-miterlimit="4" d="M 66.269531 1.780134 C 24.921875 1.780134 1.699219 23.141741 1.699219 66.835938 L 1.699219 516.967076 C 1.699219 557.748326 22.575335 579.190848 63.922991 579.190848 L 515.915179 579.190848 C 557.262835 579.190848 578.138951 558.800223 578.138951 516.967076 L 578.138951 66.835938 C 578.138951 24.193638 557.262835 1.780134 514.620536 1.780134 C 514.620536 1.780134 66.107701 1.618304 66.269531 1.780134 Z M 66.269531 1.780134 " transform="matrix(0.0482759, 0, 0, 0.0482759, 0, 0)"/>
<path fill="none" stroke-width="15.573248" stroke-linecap="round" stroke-linejoin="round" stroke="rgb(100%, 100%, 100%)" stroke-opacity="1" stroke-miterlimit="4" d="M 219.428111 376.13181 L 219.860605 264.656516 " transform="matrix(0.0361277, 0, 0, 0.0361277, 1.033509, 0.22373)"/>
<path fill="none" stroke-width="15.573248" stroke-linecap="round" stroke-linejoin="round" stroke="rgb(100%, 100%, 100%)" stroke-opacity="1" stroke-miterlimit="4" d="M 285.383426 304.013458 L 250.243299 376.239933 " transform="matrix(0.0361277, 0, 0, 0.0361277, 1.033509, 0.22373)"/>
<path fill="none" stroke-width="15.573248" stroke-linecap="round" stroke-linejoin="round" stroke="rgb(100%, 100%, 100%)" stroke-opacity="1" stroke-miterlimit="4" d="M 329.605923 332.017435 L 286.356537 376.13181 " transform="matrix(0.0361277, 0, 0, 0.0361277, 1.033509, 0.22373)"/>
<path fill="none" stroke-width="15.573248" stroke-linecap="round" stroke-linejoin="round" stroke="rgb(100%, 100%, 100%)" stroke-opacity="1" stroke-miterlimit="4" d="M 159.311463 300.877877 L 189.694157 376.239933 " transform="matrix(0.0361277, 0, 0, 0.0361277, 1.033509, 0.22373)"/>
<path fill="none" stroke-width="15.573248" stroke-linecap="round" stroke-linejoin="round" stroke="rgb(100%, 100%, 100%)" stroke-opacity="1" stroke-miterlimit="4" d="M 110.87215 333.314917 L 153.58092 376.13181 " transform="matrix(0.0361277, 0, 0, 0.0361277, 1.033509, 0.22373)"/>
<path fill="none" stroke-width="15.573248" stroke-linecap="round" stroke-linejoin="round" stroke="rgb(100%, 100%, 100%)" stroke-opacity="1" stroke-miterlimit="4" d="M 219.457935 376.069929 L 219.890429 264.594634 " transform="matrix(0.0361277, 0, 0, 0.0361277, 10.688681, -4.410753)"/>
<path fill="none" stroke-width="15.573248" stroke-linecap="round" stroke-linejoin="round" stroke="rgb(100%, 100%, 100%)" stroke-opacity="1" stroke-miterlimit="4" d="M 285.41325 303.951576 L 250.165 376.178052 " transform="matrix(0.0361277, 0, 0, 0.0361277, 10.688681, -4.410753)"/>
<path fill="none" stroke-width="15.573248" stroke-linecap="round" stroke-linejoin="round" stroke="rgb(100%, 100%, 100%)" stroke-opacity="1" stroke-miterlimit="4" d="M 329.527625 332.063678 L 286.386361 376.069929 " transform="matrix(0.0361277, 0, 0, 0.0361277, 10.688681, -4.410753)"/>
<path fill="none" stroke-width="15.573248" stroke-linecap="round" stroke-linejoin="round" stroke="rgb(100%, 100%, 100%)" stroke-opacity="1" stroke-miterlimit="4" d="M 159.341288 300.924119 L 189.723982 376.178052 " transform="matrix(0.0361277, 0, 0, 0.0361277, 10.688681, -4.410753)"/>
<path fill="none" stroke-width="15.573248" stroke-linecap="round" stroke-linejoin="round" stroke="rgb(100%, 100%, 100%)" stroke-opacity="1" stroke-miterlimit="4" d="M 110.793851 333.361159 L 153.502621 376.069929 " transform="matrix(0.0361277, 0, 0, 0.0361277, 10.688681, -4.410753)"/>
<path fill="none" stroke-width="15.573248" stroke-linecap="round" stroke-linejoin="round" stroke="rgb(100%, 100%, 100%)" stroke-opacity="1" stroke-miterlimit="4" d="M 219.396044 376.046057 L 219.828538 264.678886 " transform="matrix(0.0361277, 0, 0, 0.0361277, 6.054199, 7.46511)"/>
<path fill="none" stroke-width="15.573248" stroke-linecap="round" stroke-linejoin="round" stroke="rgb(100%, 100%, 100%)" stroke-opacity="1" stroke-miterlimit="4" d="M 285.459482 304.035828 L 250.211232 376.262304 " transform="matrix(0.0361277, 0, 0, 0.0361277, 6.054199, 7.46511)"/>
<path fill="none" stroke-width="15.573248" stroke-linecap="round" stroke-linejoin="round" stroke="rgb(100%, 100%, 100%)" stroke-opacity="1" stroke-miterlimit="4" d="M 329.573857 332.039806 L 286.432593 376.046057 " transform="matrix(0.0361277, 0, 0, 0.0361277, 6.054199, 7.46511)"/>
<path fill="none" stroke-width="15.573248" stroke-linecap="round" stroke-linejoin="round" stroke="rgb(100%, 100%, 100%)" stroke-opacity="1" stroke-miterlimit="4" d="M 159.38752 300.900247 L 189.770214 376.262304 " transform="matrix(0.0361277, 0, 0, 0.0361277, 6.054199, 7.46511)"/>
<path fill="none" stroke-width="15.573248" stroke-linecap="round" stroke-linejoin="round" stroke="rgb(100%, 100%, 100%)" stroke-opacity="1" stroke-miterlimit="4" d="M 110.840083 333.337287 L 153.548853 376.046057 " transform="matrix(0.0361277, 0, 0, 0.0361277, 6.054199, 7.46511)"/>
</svg>
