<?xml version="1.0" encoding="UTF-8"?>
<svg xmlns="http://www.w3.org/2000/svg" xmlns:xlink="http://www.w3.org/1999/xlink" width="28" height="28" viewBox="0 0 28 28">
<path fill-rule="nonzero" fill="rgb(6.666667%, 6.666667%, 6.666667%)" fill-opacity="1" stroke-width="3.408" stroke-linecap="butt" stroke-linejoin="miter" stroke="rgb(93.333333%, 93.333333%, 93.333333%)" stroke-opacity="1" stroke-miterlimit="4" d="M 66.269531 1.780134 C 24.921875 1.780134 1.699219 23.141741 1.699219 66.835938 L 1.699219 516.967076 C 1.699219 557.748326 22.575335 579.190848 63.922991 579.190848 L 515.915179 579.190848 C 557.262835 579.190848 578.138951 558.800223 578.138951 516.967076 L 578.138951 66.835938 C 578.138951 24.193638 557.262835 1.780134 514.620536 1.780134 C 514.620536 1.780134 66.107701 1.618304 66.269531 1.780134 Z M 66.269531 1.780134 " transform="matrix(0.0482759, 0, 0, 0.0482759, 0, 0)"/>
<path fill-rule="nonzero" fill="rgb(100%, 100%, 100%)" fill-opacity="1" d="M 17.523438 8.628906 C 16.636719 8.65625 15.726562 8.789062 14.921875 9.171875 C 14.378906 9.519531 13.84375 9.871094 13.308594 10.234375 C 13.238281 10.285156 12.988281 10.480469 13.207031 10.382812 C 14.328125 10.015625 15.324219 9.308594 16.5 9.105469 C 17.496094 8.855469 18.652344 8.742188 19.542969 9.339844 C 20.140625 9.710938 20.65625 10.210938 21.296875 10.511719 C 21.988281 10.886719 22.492188 11.707031 23.28125 11.800781 C 22.492188 10.683594 21.121094 10.207031 20.164062 9.253906 C 19.453125 8.585938 18.433594 8.644531 17.523438 8.628906 Z M 17.523438 8.628906 "/>
<path fill-rule="nonzero" fill="rgb(100%, 100%, 100%)" fill-opacity="1" d="M 9.496094 4.550781 C 7.601562 4.511719 5.578125 4.828125 4.121094 6.132812 C 3.261719 6.863281 2.492188 7.753906 1.453125 8.242188 C 1.324219 8.386719 1.589844 8.425781 1.691406 8.386719 C 2.125 8.277344 2.460938 7.9375 2.851562 7.71875 C 3.625 7.207031 4.285156 6.566406 4.90625 5.886719 C 5.542969 5.425781 6.351562 5.308594 7.09375 5.097656 C 8.277344 4.839844 9.503906 4.675781 10.714844 4.777344 C 11.578125 4.996094 12.121094 5.792969 12.878906 6.222656 C 13.609375 6.699219 14.398438 7.128906 15.0625 7.683594 C 15.117188 7.589844 15.019531 7.417969 15.007812 7.304688 C 14.855469 6.964844 14.457031 6.828125 14.175781 6.601562 C 13.425781 6.144531 12.65625 5.699219 12.039062 5.066406 C 11.683594 4.722656 11.207031 4.535156 10.710938 4.5625 C 10.308594 4.539062 9.902344 4.546875 9.496094 4.550781 Z M 9.496094 4.550781 "/>
<path fill-rule="nonzero" fill="rgb(100%, 100%, 100%)" fill-opacity="1" d="M 11.136719 11.875 C 9.609375 12.003906 8.027344 12.332031 6.804688 13.308594 C 5.980469 13.925781 5.304688 14.746094 4.386719 15.222656 C 4.292969 15.359375 4.523438 15.574219 4.625 15.40625 C 5.796875 14.769531 6.632812 13.675781 7.753906 12.980469 C 8.855469 12.40625 10.117188 12.28125 11.332031 12.132812 C 12.179688 12.085938 13.082031 12.363281 13.628906 13.035156 C 14.367188 13.65625 15.308594 13.992188 15.984375 14.683594 C 16.292969 14.9375 16.539062 15.335938 16.921875 15.429688 C 16.898438 15.148438 16.621094 14.957031 16.464844 14.738281 C 15.785156 14 14.878906 13.558594 14.0625 13.003906 C 13.609375 12.621094 13.203125 12.050781 12.546875 12.039062 C 12.078125 11.964844 11.613281 11.867188 11.136719 11.875 Z M 11.136719 11.875 "/>
</svg>
