<?xml version="1.0" encoding="UTF-8"?>
<svg xmlns="http://www.w3.org/2000/svg" xmlns:xlink="http://www.w3.org/1999/xlink" width="28" height="28" viewBox="0 0 28 28">
<path fill-rule="nonzero" fill="rgb(6.666667%, 6.666667%, 6.666667%)" fill-opacity="1" stroke-width="3.408" stroke-linecap="butt" stroke-linejoin="miter" stroke="rgb(93.333333%, 93.333333%, 93.333333%)" stroke-opacity="1" stroke-miterlimit="4" d="M 66.269531 1.780134 C 24.921875 1.780134 1.699219 23.141741 1.699219 66.835938 L 1.699219 516.967076 C 1.699219 557.748326 22.575335 579.190848 63.922991 579.190848 L 515.915179 579.190848 C 557.262835 579.190848 578.138951 558.800223 578.138951 516.967076 L 578.138951 66.835938 C 578.138951 24.193638 557.262835 1.780134 514.620536 1.780134 C 514.620536 1.780134 66.107701 1.618304 66.269531 1.780134 Z M 66.269531 1.780134 " transform="matrix(0.0482759, 0, 0, 0.0482759, 0, 0)"/>
<path fill="none" stroke-width="8.7" stroke-linecap="round" stroke-linejoin="round" stroke="rgb(100%, 100%, 100%)" stroke-opacity="1" stroke-miterlimit="4" d="M 162.073103 118.945312 C 154.547991 120.806362 144.190848 117.084263 138.769531 124.042969 C 136.908482 132.377232 145.647321 141.277902 153.981585 138.688616 C 162.639509 138.931362 172.915737 142.087054 180.279018 136.09933 C 179.227121 128.088728 170.811942 123.881138 164.986049 119.430804 C 164.015067 119.107143 163.125 118.783482 162.073103 118.945312 Z M 162.073103 118.945312 " transform="matrix(0.0482759, 0, 0, 0.0482759, 0, 0)"/>
<path fill="none" stroke-width="8.7" stroke-linecap="round" stroke-linejoin="round" stroke="rgb(100%, 100%, 100%)" stroke-opacity="1" stroke-miterlimit="4" d="M 213.13058 306.911272 C 205.524554 308.772321 195.248326 305.131138 189.746094 312.089844 C 187.885045 320.343192 196.623884 329.243862 205.039062 326.654576 C 213.616071 326.897321 223.892299 330.133929 231.25558 324.06529 C 230.203683 316.135603 221.788504 311.847098 215.962612 307.477679 C 215.072545 307.073103 214.101562 306.830357 213.13058 306.911272 Z M 213.13058 306.911272 " transform="matrix(0.0482759, 0, 0, 0.0482759, 0, 0)"/>
<path fill="none" stroke-width="8.7" stroke-linecap="round" stroke-linejoin="round" stroke="rgb(100%, 100%, 100%)" stroke-opacity="1" stroke-miterlimit="4" d="M 317.834821 219.037388 C 310.876116 220.736607 302.137277 217.257254 296.554129 223.002232 C 295.502232 230.689174 303.75558 237.081473 310.957031 234.654018 C 318.563058 234.896763 327.544643 237.80971 334.017857 233.035714 C 331.671317 226.238839 324.550781 222.112165 318.724888 218.875558 C 318.401228 218.956473 318.077567 218.632812 317.834821 219.037388 Z M 317.834821 219.037388 " transform="matrix(0.0482759, 0, 0, 0.0482759, 0, 0)"/>
<path fill="none" stroke-width="8.7" stroke-linecap="round" stroke-linejoin="round" stroke="rgb(100%, 100%, 100%)" stroke-opacity="1" stroke-miterlimit="4" d="M 179.874442 216.367188 C 177.123326 216.124442 176.395089 218.147321 178.90346 219.280134 C 184.162946 221.464844 190.069754 218.875558 195.491071 220.655692 C 199.860491 221.707589 197.513951 219.522879 195.248326 218.228237 C 190.797991 214.991629 185.053013 217.257254 179.874442 216.367188 Z M 179.874442 216.367188 " transform="matrix(0.0482759, 0, 0, 0.0482759, 0, 0)"/>
<path fill="none" stroke-width="8.7" stroke-linecap="round" stroke-linejoin="round" stroke="rgb(100%, 100%, 100%)" stroke-opacity="1" stroke-miterlimit="4" d="M 353.842076 325.926339 C 344.860491 327.382812 332.237723 324.308036 326.978237 333.856027 C 323.822545 344.941406 335.878906 356.755022 346.964286 353.680246 C 356.431362 354.489397 369.37779 357.402344 375.770089 348.258929 C 376.579241 337.416295 365.251116 331.185826 357.321429 326.330915 C 356.188616 326.007254 354.974888 325.845424 353.842076 325.926339 Z M 353.842076 325.926339 " transform="matrix(0.0482759, 0, 0, 0.0482759, 0, 0)"/>
<path fill="none" stroke-width="8.7" stroke-linecap="round" stroke-linejoin="round" stroke="rgb(100%, 100%, 100%)" stroke-opacity="1" stroke-miterlimit="4" d="M 278.914621 291.375558 C 276.163504 291.132812 275.435268 293.155692 277.943638 294.288504 C 283.12221 296.473214 289.029018 293.883929 294.53125 295.664062 C 298.819754 296.71596 296.473214 294.53125 294.288504 293.236607 C 289.757254 290 284.093192 292.265625 278.914621 291.375558 Z M 278.914621 291.375558 " transform="matrix(0.0482759, 0, 0, 0.0482759, 0, 0)"/>
<path fill="none" stroke-width="8.7" stroke-linecap="round" stroke-linejoin="round" stroke="rgb(100%, 100%, 100%)" stroke-opacity="1" stroke-miterlimit="4" d="M 110.853795 257.310268 C 105.675223 258.604911 98.716518 255.530134 94.589844 259.414062 C 95.722656 265.15904 102.681362 265.968192 107.374442 264.754464 C 111.986607 264.835379 118.783482 267.020089 122.262835 264.916295 C 119.430804 261.598772 115.304129 257.957589 110.853795 257.310268 Z M 110.853795 257.310268 " transform="matrix(0.0482759, 0, 0, 0.0482759, 0, 0)"/>
<path fill="none" stroke-width="8.7" stroke-linecap="round" stroke-linejoin="round" stroke="rgb(100%, 100%, 100%)" stroke-opacity="1" stroke-miterlimit="4" d="M 125.823103 403.362165 C 120.644531 404.575893 113.685826 401.582031 109.559152 405.385045 C 110.772879 411.130022 117.65067 411.939174 122.424665 410.806362 C 127.03683 410.806362 133.75279 412.991071 137.232143 410.968192 C 134.400112 407.569754 130.273438 403.928571 125.823103 403.362165 Z M 125.823103 403.362165 " transform="matrix(0.0482759, 0, 0, 0.0482759, 0, 0)"/>
<path fill="none" stroke-width="8.7" stroke-linecap="round" stroke-linejoin="round" stroke="rgb(100%, 100%, 100%)" stroke-opacity="1" stroke-miterlimit="4" d="M 81.077009 509.927455 C 73.551897 511.788504 63.194754 508.066406 57.773438 515.025112 C 55.912388 523.359375 64.651228 532.260045 72.985491 529.670759 C 81.643415 529.913504 91.919643 533.150112 99.282924 527.081473 C 98.231027 519.151786 89.815848 514.863281 83.989955 510.493862 C 83.018973 510.089286 82.128906 509.765625 81.077009 509.927455 Z M 81.077009 509.927455 " transform="matrix(0.0482759, 0, 0, 0.0482759, 0, 0)"/>
<path fill="none" stroke-width="8.7" stroke-linecap="round" stroke-linejoin="round" stroke="rgb(100%, 100%, 100%)" stroke-opacity="1" stroke-miterlimit="4" d="M 184.891183 492.368862 C 182.140067 492.126116 181.41183 494.148996 183.920201 495.281808 C 189.179688 497.466518 195.086496 494.877232 200.507812 496.657366 C 204.796317 497.709263 202.530692 495.524554 200.265067 494.229911 C 195.814732 490.993304 190.069754 493.258929 184.891183 492.368862 Z M 184.891183 492.368862 " transform="matrix(0.0482759, 0, 0, 0.0482759, 0, 0)"/>
<path fill="none" stroke-width="8.7" stroke-linecap="round" stroke-linejoin="round" stroke="rgb(100%, 100%, 100%)" stroke-opacity="1" stroke-miterlimit="4" d="M 86.821987 336.040737 C 79.863281 337.739955 71.124442 334.260603 65.62221 340.00558 C 64.489397 347.692522 72.742746 354.084821 79.944196 351.657366 C 87.550223 351.900112 96.531808 354.813058 103.005022 350.039062 C 100.658482 343.242188 93.537946 339.115513 87.712054 335.878906 C 87.388393 335.878906 87.145647 335.636161 86.821987 336.040737 Z M 86.821987 336.040737 " transform="matrix(0.0482759, 0, 0, 0.0482759, 0, 0)"/>
<path fill="none" stroke-width="8.7" stroke-linecap="round" stroke-linejoin="round" stroke="rgb(100%, 100%, 100%)" stroke-opacity="1" stroke-miterlimit="4" d="M 467.123326 281.908482 C 459.517299 283.769531 449.241071 280.128348 443.738839 287.087054 C 441.87779 295.340402 450.616629 304.241071 459.031808 301.651786 C 467.608817 301.894531 477.885045 305.131138 485.248326 299.0625 C 484.196429 291.132812 475.78125 286.844308 469.955357 282.474888 C 469.06529 282.070312 468.094308 281.827567 467.123326 281.908482 Z M 467.123326 281.908482 " transform="matrix(0.0482759, 0, 0, 0.0482759, 0, 0)"/>
<path fill="none" stroke-width="8.7" stroke-linecap="round" stroke-linejoin="round" stroke="rgb(100%, 100%, 100%)" stroke-opacity="1" stroke-miterlimit="4" d="M 46.849888 151.87779 C 37.868304 153.415179 25.245536 150.259487 19.986049 159.888393 C 16.830357 170.973772 28.886719 182.787388 39.972098 179.712612 C 49.439174 180.440848 62.385603 183.353795 68.777902 174.210379 C 69.506138 163.367746 58.258929 157.218192 50.329241 152.282366 C 49.196429 151.958705 47.982701 151.796875 46.849888 151.87779 Z M 46.849888 151.87779 " transform="matrix(0.0482759, 0, 0, 0.0482759, 0, 0)"/>
<path fill="none" stroke-width="8.7" stroke-linecap="round" stroke-linejoin="round" stroke="rgb(100%, 100%, 100%)" stroke-opacity="1" stroke-miterlimit="4" d="M 520.851004 504.910714 C 511.86942 506.448103 499.246652 503.292411 493.987165 512.840402 C 490.831473 524.006696 502.887835 535.739397 513.973214 532.745536 C 523.44029 533.473772 536.386719 536.386719 542.779018 527.243304 C 543.507254 516.40067 532.260045 510.170201 524.330357 505.31529 C 523.197545 504.991629 521.983817 504.829799 520.851004 504.910714 Z M 520.851004 504.910714 " transform="matrix(0.0482759, 0, 0, 0.0482759, 0, 0)"/>
<path fill="none" stroke-width="8.7" stroke-linecap="round" stroke-linejoin="round" stroke="rgb(100%, 100%, 100%)" stroke-opacity="1" stroke-miterlimit="4" d="M 496.900112 459.436384 C 494.148996 459.112723 493.420759 461.216518 495.929129 462.268415 C 501.107701 464.453125 507.095424 461.944754 512.516741 463.643973 C 516.805246 464.776786 514.539621 462.592076 512.273996 461.216518 C 507.823661 457.979911 502.078683 460.245536 496.900112 459.436384 Z M 496.900112 459.436384 " transform="matrix(0.0482759, 0, 0, 0.0482759, 0, 0)"/>
<path fill="none" stroke-width="8.7" stroke-linecap="round" stroke-linejoin="round" stroke="rgb(100%, 100%, 100%)" stroke-opacity="1" stroke-miterlimit="4" d="M 397.859933 514.37779 C 392.681362 515.591518 385.722656 512.597656 381.595982 516.40067 C 382.728795 522.145647 389.6875 522.954799 394.38058 521.741071 C 398.992746 521.821987 405.789621 524.006696 409.268973 521.902902 C 406.436942 518.585379 402.310268 514.944196 397.859933 514.37779 Z M 397.859933 514.37779 " transform="matrix(0.0482759, 0, 0, 0.0482759, 0, 0)"/>
<path fill="none" stroke-width="8.7" stroke-linecap="round" stroke-linejoin="round" stroke="rgb(100%, 100%, 100%)" stroke-opacity="1" stroke-miterlimit="4" d="M 407.8125 418.007812 C 400.853795 419.707031 392.114955 416.308594 386.612723 421.972656 C 385.479911 429.659598 393.733259 436.051897 400.93471 433.705357 C 408.540737 433.867188 417.603237 436.780134 423.995536 432.087054 C 421.648996 425.290179 414.52846 421.163504 408.702567 417.926897 C 408.378906 417.926897 408.136161 417.603237 407.8125 418.007812 Z M 407.8125 418.007812 " transform="matrix(0.0482759, 0, 0, 0.0482759, 0, 0)"/>
<path fill="none" stroke-width="8.7" stroke-linecap="round" stroke-linejoin="round" stroke="rgb(100%, 100%, 100%)" stroke-opacity="1" stroke-miterlimit="4" d="M 284.093192 450.94029 C 276.56808 452.801339 266.210938 449.079241 260.789621 456.037946 C 258.928571 464.37221 267.667411 473.272879 276.001674 470.683594 C 284.659598 470.926339 294.854911 474.082031 302.299107 468.094308 C 301.166295 460.083705 292.751116 455.876116 287.006138 451.506696 C 286.035156 451.102121 285.064174 450.77846 284.093192 450.94029 Z M 284.093192 450.94029 " transform="matrix(0.0482759, 0, 0, 0.0482759, 0, 0)"/>
<path fill="none" stroke-width="8.7" stroke-linecap="round" stroke-linejoin="round" stroke="rgb(100%, 100%, 100%)" stroke-opacity="1" stroke-miterlimit="4" d="M 499.084821 133.914621 C 491.55971 135.77567 481.202567 132.134487 475.78125 139.093192 C 473.920201 147.34654 482.65904 156.24721 490.993304 153.657924 C 499.651228 153.90067 509.84654 157.137277 517.290737 151.068638 C 516.238839 143.138951 507.823661 138.850446 501.997768 134.481027 C 501.026786 134.076451 500.055804 133.75279 499.084821 133.914621 Z M 499.084821 133.914621 " transform="matrix(0.0482759, 0, 0, 0.0482759, 0, 0)"/>
<path fill="none" stroke-width="8.7" stroke-linecap="round" stroke-linejoin="round" stroke="rgb(100%, 100%, 100%)" stroke-opacity="1" stroke-miterlimit="4" d="M 456.928013 89.411272 C 454.095982 89.087612 453.367746 91.191406 455.957031 92.243304 C 461.135603 94.428013 467.042411 91.919643 472.463728 93.618862 C 476.833147 94.751674 474.486607 92.566964 472.220982 91.191406 C 467.770647 88.035714 462.106585 90.220424 456.928013 89.411272 Z M 456.928013 89.411272 " transform="matrix(0.0482759, 0, 0, 0.0482759, 0, 0)"/>
<path fill="none" stroke-width="8.7" stroke-linecap="round" stroke-linejoin="round" stroke="rgb(100%, 100%, 100%)" stroke-opacity="1" stroke-miterlimit="4" d="M 387.826451 174.37221 C 382.647879 175.585938 375.689174 172.592076 371.5625 176.395089 C 372.776228 182.140067 379.654018 182.949219 384.428013 181.816406 C 389.040179 181.816406 395.756138 184.001116 399.235491 181.897321 C 396.40346 178.579799 392.276786 174.938616 387.826451 174.37221 Z M 387.826451 174.37221 " transform="matrix(0.0482759, 0, 0, 0.0482759, 0, 0)"/>
<path fill="none" stroke-width="8.7" stroke-linecap="round" stroke-linejoin="round" stroke="rgb(100%, 100%, 100%)" stroke-opacity="1" stroke-miterlimit="4" d="M 241.774554 21.928013 C 232.873884 23.384487 220.251116 20.30971 214.991629 29.857701 C 211.835938 40.94308 223.892299 52.756696 234.977679 49.68192 C 244.444754 50.491071 257.391183 53.404018 263.783482 44.260603 C 264.511719 33.417969 253.264509 27.1875 245.334821 22.332589 C 244.202009 22.008929 242.988281 21.766183 241.774554 21.928013 Z M 241.774554 21.928013 " transform="matrix(0.0482759, 0, 0, 0.0482759, 0, 0)"/>
<path fill="none" stroke-width="8.7" stroke-linecap="round" stroke-linejoin="round" stroke="rgb(100%, 100%, 100%)" stroke-opacity="1" stroke-miterlimit="4" d="M 270.904018 73.390067 C 268.152902 73.066406 267.424665 75.170201 269.933036 76.222098 C 275.111607 78.487723 281.09933 75.898438 286.520647 77.678571 C 290.809152 78.730469 288.543527 76.545759 286.277902 75.251116 C 281.827567 72.014509 276.082589 74.199219 270.904018 73.390067 Z M 270.904018 73.390067 " transform="matrix(0.0482759, 0, 0, 0.0482759, 0, 0)"/>
<path fill="none" stroke-width="8.7" stroke-linecap="round" stroke-linejoin="round" stroke="rgb(100%, 100%, 100%)" stroke-opacity="1" stroke-miterlimit="4" d="M 163.853237 50.329241 C 158.674665 51.542969 151.71596 48.549107 147.589286 52.433036 C 148.722098 58.097098 155.680804 58.987165 160.373884 57.773438 C 164.986049 57.854353 171.782924 60.039062 175.262277 57.935268 C 172.430246 54.617746 168.303571 50.976562 163.853237 50.329241 Z M 163.853237 50.329241 " transform="matrix(0.0482759, 0, 0, 0.0482759, 0, 0)"/>
<path fill="none" stroke-width="8.7" stroke-linecap="round" stroke-linejoin="round" stroke="rgb(100%, 100%, 100%)" stroke-opacity="1" stroke-miterlimit="4" d="M 553.864397 171.378348 C 548.685826 172.592076 541.727121 169.598214 537.600446 173.401228 C 538.733259 179.146205 545.691964 179.955357 550.385045 178.741629 C 554.99721 178.822545 561.71317 181.007254 565.273438 178.90346 C 562.360491 175.585938 558.314732 171.944754 553.864397 171.378348 Z M 553.864397 171.378348 " transform="matrix(0.0482759, 0, 0, 0.0482759, 0, 0)"/>
</svg>
