<?xml version="1.0" encoding="UTF-8"?>
<svg xmlns="http://www.w3.org/2000/svg" xmlns:xlink="http://www.w3.org/1999/xlink" width="28" height="28" viewBox="0 0 28 28">
<path fill-rule="nonzero" fill="rgb(6.666667%, 6.666667%, 6.666667%)" fill-opacity="1" stroke-width="3.408" stroke-linecap="butt" stroke-linejoin="miter" stroke="rgb(93.333333%, 93.333333%, 93.333333%)" stroke-opacity="1" stroke-miterlimit="4" d="M 66.269531 1.780134 C 24.921875 1.780134 1.699219 23.141741 1.699219 66.835938 L 1.699219 516.967076 C 1.699219 557.748326 22.575335 579.190848 63.922991 579.190848 L 515.915179 579.190848 C 557.262835 579.190848 578.138951 558.800223 578.138951 516.967076 L 578.138951 66.835938 C 578.138951 24.193638 557.262835 1.780134 514.620536 1.780134 C 514.620536 1.780134 66.107701 1.618304 66.269531 1.780134 Z M 66.269531 1.780134 " transform="matrix(0.0482759, 0, 0, 0.0482759, 0, 0)"/>
<path fill="none" stroke-width="12" stroke-linecap="round" stroke-linejoin="round" stroke="rgb(100%, 100%, 100%)" stroke-opacity="1" stroke-miterlimit="4" d="M 91.838728 454.743304 L 468.660714 454.743304 " transform="matrix(0.0482759, 0, 0, 0.0482759, 0, 0)"/>
<path fill="none" stroke-width="15.573248" stroke-linecap="round" stroke-linejoin="round" stroke="rgb(100%, 100%, 100%)" stroke-opacity="1" stroke-miterlimit="4" d="M 219.393061 376.03338 L 219.825555 264.666209 " transform="matrix(0.0361277, 0, 0, 0.0361277, 2.288681, 1.961661)"/>
<path fill="none" stroke-width="15.573248" stroke-linecap="round" stroke-linejoin="round" stroke="rgb(100%, 100%, 100%)" stroke-opacity="1" stroke-miterlimit="4" d="M 285.4565 304.023151 L 250.208249 376.249627 " transform="matrix(0.0361277, 0, 0, 0.0361277, 2.288681, 1.961661)"/>
<path fill="none" stroke-width="15.573248" stroke-linecap="round" stroke-linejoin="round" stroke="rgb(100%, 100%, 100%)" stroke-opacity="1" stroke-miterlimit="4" d="M 329.570874 332.027129 L 286.429611 376.03338 " transform="matrix(0.0361277, 0, 0, 0.0361277, 2.288681, 1.961661)"/>
<path fill="none" stroke-width="15.573248" stroke-linecap="round" stroke-linejoin="round" stroke="rgb(100%, 100%, 100%)" stroke-opacity="1" stroke-miterlimit="4" d="M 159.384537 300.887571 L 189.767231 376.249627 " transform="matrix(0.0361277, 0, 0, 0.0361277, 2.288681, 1.961661)"/>
<path fill="none" stroke-width="15.573248" stroke-linecap="round" stroke-linejoin="round" stroke="rgb(100%, 100%, 100%)" stroke-opacity="1" stroke-miterlimit="4" d="M 110.837101 333.324611 L 153.54587 376.03338 " transform="matrix(0.0361277, 0, 0, 0.0361277, 2.288681, 1.961661)"/>
<path fill="none" stroke-width="15.573248" stroke-linecap="round" stroke-linejoin="round" stroke="rgb(100%, 100%, 100%)" stroke-opacity="1" stroke-miterlimit="4" d="M 219.422889 376.079617 L 219.855382 264.604323 " transform="matrix(0.0361277, 0, 0, 0.0361277, 11.943854, -2.672822)"/>
<path fill="none" stroke-width="15.573248" stroke-linecap="round" stroke-linejoin="round" stroke="rgb(100%, 100%, 100%)" stroke-opacity="1" stroke-miterlimit="4" d="M 285.378203 303.961265 L 250.238077 376.187741 " transform="matrix(0.0361277, 0, 0, 0.0361277, 11.943854, -2.672822)"/>
<path fill="none" stroke-width="15.573248" stroke-linecap="round" stroke-linejoin="round" stroke="rgb(100%, 100%, 100%)" stroke-opacity="1" stroke-miterlimit="4" d="M 329.600701 332.073366 L 286.351314 376.079617 " transform="matrix(0.0361277, 0, 0, 0.0361277, 11.943854, -2.672822)"/>
<path fill="none" stroke-width="15.573248" stroke-linecap="round" stroke-linejoin="round" stroke="rgb(100%, 100%, 100%)" stroke-opacity="1" stroke-miterlimit="4" d="M 159.306241 300.933808 L 189.688935 376.187741 " transform="matrix(0.0361277, 0, 0, 0.0361277, 11.943854, -2.672822)"/>
<path fill="none" stroke-width="15.573248" stroke-linecap="round" stroke-linejoin="round" stroke="rgb(100%, 100%, 100%)" stroke-opacity="1" stroke-miterlimit="4" d="M 110.866928 333.370848 L 153.575697 376.079617 " transform="matrix(0.0361277, 0, 0, 0.0361277, 11.943854, -2.672822)"/>
<path fill="none" stroke-width="12" stroke-linecap="round" stroke-linejoin="round" stroke="rgb(100%, 100%, 100%)" stroke-opacity="1" stroke-miterlimit="4" d="M 346.397879 394.785156 L 516.077009 394.785156 " transform="matrix(0.0482759, 0, 0, 0.0482759, 0, 0)"/>
</svg>
