<?xml version="1.0" encoding="UTF-8"?>
<svg xmlns="http://www.w3.org/2000/svg" xmlns:xlink="http://www.w3.org/1999/xlink" width="28" height="28" viewBox="0 0 28 28">
<path fill-rule="nonzero" fill="rgb(6.666667%, 6.666667%, 6.666667%)" fill-opacity="1" stroke-width="3.408" stroke-linecap="butt" stroke-linejoin="miter" stroke="rgb(93.333333%, 93.333333%, 93.333333%)" stroke-opacity="1" stroke-miterlimit="4" d="M 66.269531 1.780134 C 24.921875 1.780134 1.699219 23.141741 1.699219 66.835938 L 1.699219 516.967076 C 1.699219 557.748326 22.575335 579.190848 63.922991 579.190848 L 515.915179 579.190848 C 557.262835 579.190848 578.138951 558.800223 578.138951 516.967076 L 578.138951 66.835938 C 578.138951 24.193638 557.262835 1.780134 514.620536 1.780134 C 514.620536 1.780134 66.107701 1.618304 66.269531 1.780134 Z M 66.269531 1.780134 " transform="matrix(0.0482759, 0, 0, 0.0482759, 0, 0)"/>
<path fill-rule="nonzero" fill="rgb(100%, 100%, 100%)" fill-opacity="1" d="M 8.773438 9.398438 C 8.757812 7.089844 8.824219 6.671875 8.773438 5.640625 C 8.742188 4.90625 8.613281 3.636719 8.78125 3.722656 C 9.457031 4.074219 10.089844 12.628906 9.035156 12.628906 C 8.667969 12.628906 8.597656 11.730469 8.773438 9.398438 Z M 8.773438 9.398438 "/>
<path fill-rule="nonzero" fill="rgb(100%, 100%, 100%)" fill-opacity="1" d="M 12.96875 11.851562 C 12.96875 11.425781 13.054688 10.726562 13.332031 9.957031 C 13.6875 8.976562 14.421875 8.726562 13.640625 9.027344 C 13.304688 9.15625 12.726562 9.835938 12.472656 10.5625 C 11.902344 12.199219 11.992188 12.628906 12.539062 12.628906 C 12.773438 12.628906 12.96875 12.28125 12.96875 11.851562 Z M 11.25 11.367188 C 11.25 9.710938 11.640625 8.683594 12.128906 7.308594 C 12.632812 5.894531 13.796875 4.894531 12.695312 5.804688 C 11.078125 7.140625 9.570312 12.628906 10.820312 12.628906 C 11.054688 12.628906 11.25 12.0625 11.25 11.367188 Z M 11.25 11.367188 "/>
<path fill-rule="nonzero" fill="rgb(100%, 100%, 100%)" fill-opacity="1" d="M 13.4375 15.320312 C 12.871094 15.34375 12.292969 15.339844 11.738281 15.453125 C 11.597656 15.535156 11.679688 15.757812 11.835938 15.753906 C 12.679688 15.945312 13.558594 15.886719 14.421875 15.886719 C 14.792969 15.867188 15.179688 15.859375 15.527344 15.730469 C 15.664062 15.636719 15.570312 15.417969 15.410156 15.429688 C 14.765625 15.289062 14.09375 15.3125 13.4375 15.320312 Z M 13.4375 15.320312 "/>
<path fill-rule="nonzero" fill="rgb(100%, 100%, 100%)" fill-opacity="1" d="M 4.882812 11.851562 C 4.882812 11.425781 4.792969 10.726562 4.515625 9.957031 C 4.164062 8.976562 3.429688 8.726562 4.207031 9.027344 C 4.546875 9.15625 5.125 9.835938 5.375 10.5625 C 5.945312 12.199219 5.859375 12.628906 5.3125 12.628906 C 5.074219 12.628906 4.882812 12.28125 4.882812 11.851562 Z M 6.601562 11.367188 C 6.601562 9.710938 6.207031 8.683594 5.71875 7.308594 C 5.214844 5.894531 4.054688 4.894531 5.152344 5.804688 C 6.769531 7.140625 8.277344 12.628906 7.027344 12.628906 C 6.792969 12.628906 6.601562 12.0625 6.601562 11.367188 Z M 6.601562 11.367188 "/>
<path fill-rule="nonzero" fill="rgb(100%, 100%, 100%)" fill-opacity="1" d="M 10.800781 13.710938 C 9.414062 13.730469 8.019531 13.734375 6.636719 13.835938 C 6.503906 13.855469 6.441406 14.050781 6.582031 14.105469 C 7.273438 14.261719 7.996094 14.226562 8.703125 14.265625 C 10.644531 14.304688 12.59375 14.324219 14.53125 14.1875 C 14.667969 14.160156 14.9375 14.15625 14.90625 13.960938 C 14.8125 13.773438 14.542969 13.835938 14.371094 13.796875 C 13.183594 13.707031 11.992188 13.707031 10.800781 13.710938 Z M 10.800781 13.710938 "/>
</svg>
