<?xml version="1.0" encoding="UTF-8"?>
<svg xmlns="http://www.w3.org/2000/svg" xmlns:xlink="http://www.w3.org/1999/xlink" width="24" height="24" viewBox="0 0 24 24">
<path fill-rule="nonzero" fill="rgb(0%, 0%, 0%)" fill-opacity="1" d="M 21.601562 20.800781 L 16.800781 20.800781 L 16.800781 14.398438 L 21.601562 14.398438 C 21.746094 14.398438 21.890625 14.359375 22.015625 14.285156 C 22.140625 14.207031 22.242188 14.097656 22.308594 13.96875 C 22.378906 13.839844 22.40625 13.691406 22.398438 13.546875 C 22.386719 13.402344 22.339844 13.261719 22.253906 13.140625 L 18.65625 8 L 20 8 C 20.152344 8 20.300781 7.957031 20.429688 7.875 C 20.558594 7.792969 20.660156 7.675781 20.722656 7.539062 C 20.789062 7.402344 20.8125 7.25 20.792969 7.097656 C 20.773438 6.945312 20.710938 6.804688 20.613281 6.6875 L 16.613281 1.886719 C 16.535156 1.800781 16.441406 1.734375 16.335938 1.683594 C 16.230469 1.636719 16.117188 1.613281 16 1.613281 C 15.882812 1.613281 15.769531 1.636719 15.664062 1.683594 C 15.558594 1.734375 15.464844 1.800781 15.386719 1.886719 L 11.386719 6.6875 C 11.289062 6.804688 11.226562 6.945312 11.207031 7.097656 C 11.1875 7.25 11.210938 7.402344 11.277344 7.539062 C 11.339844 7.675781 11.441406 7.792969 11.570312 7.875 C 11.699219 7.957031 11.847656 8 12 8 L 13.34375 8 L 9.746094 13.140625 C 9.660156 13.261719 9.613281 13.402344 9.601562 13.546875 C 9.59375 13.691406 9.621094 13.839844 9.691406 13.96875 C 9.757812 14.097656 9.859375 14.207031 9.984375 14.285156 C 10.109375 14.359375 10.253906 14.398438 10.398438 14.398438 L 15.199219 14.398438 L 15.199219 20.800781 L 6.398438 20.800781 L 6.398438 17.601562 L 8.800781 17.601562 C 9.011719 17.601562 9.214844 17.515625 9.367188 17.367188 C 9.515625 17.214844 9.601562 17.011719 9.601562 16.800781 C 9.601562 16.585938 9.515625 16.382812 9.367188 16.234375 C 9.214844 16.085938 9.011719 16 8.800781 16 L 2.398438 16 C 2.1875 16 1.984375 16.085938 1.835938 16.234375 C 1.683594 16.382812 1.601562 16.585938 1.601562 16.800781 C 1.601562 17.011719 1.683594 17.214844 1.835938 17.367188 C 1.984375 17.515625 2.1875 17.601562 2.398438 17.601562 L 4.800781 17.601562 L 4.800781 20.800781 L 2.398438 20.800781 C 2.1875 20.800781 1.984375 20.882812 1.835938 21.035156 C 1.683594 21.183594 1.601562 21.386719 1.601562 21.601562 C 1.601562 21.8125 1.683594 22.015625 1.835938 22.164062 C 1.984375 22.316406 2.1875 22.398438 2.398438 22.398438 L 21.601562 22.398438 C 21.8125 22.398438 22.015625 22.316406 22.164062 22.164062 C 22.316406 22.015625 22.398438 21.8125 22.398438 21.601562 C 22.398438 21.386719 22.316406 21.183594 22.164062 21.035156 C 22.015625 20.882812 21.8125 20.800781 21.601562 20.800781 Z M 21.601562 20.800781 "/>
</svg>
