<?xml version="1.0" encoding="UTF-8"?>
<svg xmlns="http://www.w3.org/2000/svg" xmlns:xlink="http://www.w3.org/1999/xlink" width="24" height="24" viewBox="0 0 24 24">
<path fill-rule="nonzero" fill="rgb(0%, 0%, 0%)" fill-opacity="1" d="M 15.085938 16.6875 C 15.011719 16.609375 14.96875 16.503906 14.964844 16.398438 C 14.96875 16.292969 15.007812 16.191406 15.082031 16.117188 C 15.15625 16.042969 15.253906 16 15.359375 16 L 17.675781 16 C 17.78125 16 17.882812 15.957031 17.957031 15.882812 C 18.03125 15.808594 18.074219 15.707031 18.074219 15.601562 C 18.074219 15.492188 18.027344 15.390625 17.949219 15.3125 L 14.511719 11.871094 C 14.449219 11.792969 14.414062 11.699219 14.410156 11.597656 C 14.410156 11.546875 14.421875 11.492188 14.441406 11.445312 C 14.460938 11.398438 14.492188 11.351562 14.527344 11.316406 C 14.566406 11.277344 14.609375 11.25 14.660156 11.230469 C 14.707031 11.210938 14.757812 11.199219 14.8125 11.199219 L 16.640625 11.199219 C 16.746094 11.199219 16.847656 11.15625 16.921875 11.082031 C 16.996094 11.007812 17.039062 10.90625 17.039062 10.796875 C 17.039062 10.746094 17.027344 10.691406 17.007812 10.644531 C 16.988281 10.59375 16.957031 10.550781 16.917969 10.511719 L 13.492188 7.09375 L 13.46875 7.070312 C 13.402344 6.996094 13.363281 6.898438 13.363281 6.800781 C 13.363281 6.695312 13.40625 6.59375 13.480469 6.519531 C 13.554688 6.445312 13.65625 6.402344 13.761719 6.398438 L 15.144531 6.398438 C 15.25 6.398438 15.351562 6.359375 15.429688 6.28125 C 15.503906 6.207031 15.546875 6.105469 15.546875 6 C 15.542969 5.902344 15.503906 5.808594 15.4375 5.738281 L 15.445312 5.738281 L 12.320312 1.980469 C 12.300781 1.953125 12.277344 1.929688 12.253906 1.910156 C 12.179688 1.851562 12.09375 1.820312 12 1.824219 C 11.90625 1.820312 11.820312 1.851562 11.746094 1.910156 C 11.722656 1.929688 11.699219 1.953125 11.679688 1.980469 L 8.5625 5.738281 C 8.496094 5.808594 8.457031 5.902344 8.453125 6 C 8.453125 6.105469 8.496094 6.207031 8.570312 6.28125 C 8.648438 6.359375 8.75 6.398438 8.855469 6.398438 L 10.238281 6.398438 C 10.320312 6.390625 10.402344 6.410156 10.472656 6.449219 C 10.542969 6.492188 10.597656 6.554688 10.632812 6.628906 C 10.664062 6.703125 10.671875 6.785156 10.65625 6.867188 C 10.636719 6.945312 10.59375 7.019531 10.535156 7.070312 L 10.511719 7.09375 L 7.089844 10.511719 C 7.050781 10.550781 7.019531 10.59375 7 10.644531 C 6.976562 10.691406 6.964844 10.746094 6.964844 10.796875 C 6.964844 10.902344 7.007812 11.003906 7.082031 11.078125 C 7.15625 11.15625 7.253906 11.199219 7.359375 11.199219 L 9.191406 11.199219 C 9.246094 11.199219 9.296875 11.210938 9.34375 11.230469 C 9.394531 11.25 9.4375 11.277344 9.476562 11.316406 C 9.511719 11.351562 9.542969 11.398438 9.5625 11.445312 C 9.582031 11.492188 9.59375 11.546875 9.59375 11.597656 C 9.585938 11.699219 9.550781 11.792969 9.492188 11.871094 L 6.050781 15.3125 C 5.972656 15.386719 5.925781 15.492188 5.921875 15.601562 C 5.921875 15.707031 5.960938 15.808594 6.039062 15.882812 C 6.113281 15.957031 6.214844 16 6.320312 16 L 8.640625 16 C 8.746094 16 8.847656 16.042969 8.921875 16.117188 C 8.996094 16.191406 9.035156 16.292969 9.035156 16.398438 C 9.035156 16.503906 8.992188 16.609375 8.917969 16.6875 L 5.496094 20.097656 L 5.480469 20.113281 C 5.441406 20.148438 5.414062 20.191406 5.394531 20.242188 C 5.375 20.289062 5.363281 20.339844 5.363281 20.394531 C 5.363281 20.445312 5.375 20.496094 5.394531 20.542969 C 5.414062 20.59375 5.441406 20.636719 5.480469 20.671875 C 5.515625 20.710938 5.5625 20.742188 5.613281 20.765625 C 5.660156 20.789062 5.714844 20.800781 5.769531 20.800781 L 11.199219 20.800781 L 11.199219 22.398438 L 12.800781 22.386719 L 12.800781 20.800781 L 18.226562 20.800781 C 18.332031 20.800781 18.4375 20.757812 18.515625 20.679688 C 18.59375 20.605469 18.636719 20.5 18.640625 20.394531 C 18.640625 20.339844 18.632812 20.289062 18.613281 20.242188 C 18.59375 20.191406 18.566406 20.148438 18.527344 20.109375 Z M 15.085938 16.6875 "/>
</svg>
