<?xml version="1.0" encoding="UTF-8"?>
<svg xmlns="http://www.w3.org/2000/svg" xmlns:xlink="http://www.w3.org/1999/xlink" width="24" height="24" viewBox="0 0 24 24">
<path fill-rule="nonzero" fill="rgb(0%, 0%, 0%)" fill-opacity="1" d="M 22.398438 1.601562 L 8 1.601562 C 5.347656 1.601562 3.199219 3.75 3.199219 6.398438 L 3.199219 14.207031 C 2.234375 14.851562 1.601562 15.949219 1.601562 17.199219 C 1.601562 19.1875 3.210938 20.800781 5.199219 20.800781 C 5.941406 20.800781 6.628906 20.574219 7.199219 20.195312 C 7.773438 20.574219 8.460938 20.800781 9.199219 20.800781 C 10.058594 20.800781 10.84375 20.5 11.460938 20 L 12.027344 20 C 12.832031 20.507812 13.78125 20.800781 14.800781 20.800781 C 17.671875 20.800781 20 18.472656 20 15.601562 C 20 13.4375 18.679688 11.582031 16.800781 10.800781 L 16.800781 8 C 16.800781 6.234375 18.234375 4.800781 20 4.800781 L 22.398438 4.800781 Z M 18.398438 15.601562 C 18.398438 17.589844 16.789062 19.199219 14.800781 19.199219 C 13.941406 19.199219 13.15625 18.898438 12.535156 18.398438 L 10.800781 18.398438 C 10.433594 18.886719 9.855469 19.199219 9.199219 19.199219 C 8.546875 19.199219 7.964844 18.886719 7.601562 18.398438 L 6.800781 18.398438 C 6.433594 18.886719 5.855469 19.199219 5.199219 19.199219 C 4.09375 19.199219 3.199219 18.304688 3.199219 17.199219 C 3.199219 16.234375 3.886719 15.425781 4.800781 15.238281 L 4.800781 9.199219 C 4.800781 8.539062 5.335938 8 6 8 C 6.664062 8 7.199219 8.539062 7.199219 9.199219 L 7.199219 14.398438 C 7.199219 14.84375 7.558594 15.199219 8 15.199219 C 8.441406 15.199219 8.800781 14.84375 8.800781 14.398438 L 8.800781 10.800781 C 8.800781 10.136719 9.335938 9.601562 10 9.601562 C 10.664062 9.601562 11.199219 10.136719 11.199219 10.800781 L 11.199219 14.398438 C 11.199219 14.84375 11.558594 15.199219 12 15.199219 C 12.441406 15.199219 12.800781 14.84375 12.800781 14.398438 L 12.800781 9.199219 C 12.800781 8.539062 13.335938 8 14 8 C 14.664062 8 15.199219 8.539062 15.199219 9.199219 L 15.199219 12.023438 C 17 12.222656 18.398438 13.746094 18.398438 15.601562 Z M 18.398438 15.601562 "/>
</svg>
