<?xml version="1.0" encoding="UTF-8"?>
<svg xmlns="http://www.w3.org/2000/svg" xmlns:xlink="http://www.w3.org/1999/xlink" width="24" height="24" viewBox="0 0 24 24">
<path fill-rule="nonzero" fill="rgb(0%, 0%, 0%)" fill-opacity="1" d="M 14.285156 5.144531 C 12.53125 5.144531 11.144531 6.324219 11.144531 8.570312 L 11.144531 8.929688 C 10.703125 8.710938 10.210938 8.570312 9.714844 8.570312 C 8.039062 8.570312 6.570312 9.75 6.570312 12 L 6.570312 13.144531 C 6.570312 14.285156 8.285156 14.285156 8.285156 13.144531 L 8.285156 12 C 8.285156 10.894531 9.066406 10.285156 9.714844 10.285156 C 10.363281 10.285156 11.144531 10.933594 11.144531 12 L 11.144531 14.855469 C 11.566406 14.433594 12.457031 14.457031 12.855469 14.855469 L 12.855469 8.570312 C 12.855469 7.46875 13.675781 6.855469 14.285156 6.855469 C 14.972656 6.855469 15.714844 7.503906 15.714844 8.570312 L 15.714844 10.855469 C 15.714844 12 17.429688 12 17.429688 10.855469 L 17.429688 8.570312 C 17.429688 6.402344 16 5.144531 14.285156 5.144531 Z M 7.429688 16 C 6.820312 16 5.722656 17.144531 5.144531 17.144531 L 5.144531 18.855469 C 5.757812 18.855469 6.886719 17.714844 7.429688 17.714844 C 8.003906 17.714844 9.105469 18.855469 9.714844 18.855469 C 10.257812 18.855469 11.417969 17.714844 12 17.714844 C 12.578125 17.714844 13.738281 18.855469 14.285156 18.855469 C 14.863281 18.855469 16.027344 17.714844 16.570312 17.714844 C 17.113281 17.714844 18.28125 18.855469 18.855469 18.855469 L 18.855469 17.144531 C 18.382812 17.144531 17.179688 15.964844 16.570312 16 C 16.023438 16 14.898438 17.144531 14.285156 17.144531 C 13.777344 17.144531 12.578125 16 12 16 C 11.421875 16 10.222656 17.144531 9.714844 17.144531 C 9.171875 17.144531 8.039062 16 7.429688 16 Z M 7.429688 16 "/>
</svg>
