<?xml version="1.0" encoding="UTF-8"?>
<svg xmlns="http://www.w3.org/2000/svg" xmlns:xlink="http://www.w3.org/1999/xlink" width="24" height="24" viewBox="0 0 24 24">
<path fill-rule="nonzero" fill="rgb(0%, 0%, 0%)" fill-opacity="1" d="M 12 1.601562 C 11.519531 1.601562 11.359375 1.921875 11.039062 2.238281 L 1.761719 17.441406 C 1.601562 17.601562 1.601562 17.921875 1.601562 18.078125 C 1.601562 18.878906 2.238281 19.199219 2.71875 19.199219 L 21.28125 19.199219 C 21.921875 19.199219 22.398438 18.878906 22.398438 18.078125 C 22.398438 17.761719 22.398438 17.761719 22.238281 17.441406 L 13.121094 2.238281 C 12.800781 1.921875 12.480469 1.601562 12 1.601562 Z M 12 4 L 17.28125 12.800781 L 16 12.800781 L 13.601562 10.398438 L 12 12.800781 L 10.398438 10.398438 L 8 12.800781 L 6.558594 12.800781 Z M 12 4 "/>
</svg>
