<?xml version="1.0" encoding="UTF-8"?>
<svg xmlns="http://www.w3.org/2000/svg" xmlns:xlink="http://www.w3.org/1999/xlink" width="24" height="24" viewBox="0 0 24 24">
<path fill-rule="nonzero" fill="rgb(0%, 0%, 0%)" fill-opacity="1" d="M 14.003906 10.042969 C 13.882812 10.117188 13.742188 10.15625 13.597656 10.15625 C 13.453125 10.15625 13.3125 10.117188 13.1875 10.042969 C 12.445312 9.535156 11.8125 8.878906 11.332031 8.113281 C 10.851562 7.347656 10.535156 6.492188 10.398438 5.601562 C 10.332031 4.722656 10.003906 3.882812 9.457031 3.191406 L 9.425781 3.148438 C 9.371094 3.082031 9.339844 3 9.335938 2.917969 C 9.332031 2.863281 9.339844 2.808594 9.359375 2.761719 C 9.378906 2.710938 9.410156 2.664062 9.445312 2.628906 C 9.484375 2.589844 9.53125 2.558594 9.578125 2.542969 C 9.628906 2.523438 9.683594 2.515625 9.734375 2.515625 C 9.765625 2.519531 9.796875 2.523438 9.828125 2.535156 C 10.65625 2.84375 11.402344 3.347656 12 4 L 13.246094 1.503906 C 13.28125 1.4375 13.332031 1.382812 13.394531 1.34375 C 13.457031 1.308594 13.527344 1.285156 13.601562 1.285156 C 13.671875 1.285156 13.746094 1.308594 13.808594 1.34375 C 13.867188 1.382812 13.917969 1.4375 13.953125 1.503906 L 15.199219 4 C 15.785156 3.351562 16.523438 2.851562 17.34375 2.546875 C 17.394531 2.527344 17.449219 2.515625 17.503906 2.515625 C 17.78125 2.53125 17.839844 2.707031 17.855469 2.914062 C 17.847656 2.992188 17.824219 3.070312 17.789062 3.140625 C 17.328125 3.902344 16.996094 4.730469 16.800781 5.601562 C 16.664062 6.492188 16.347656 7.347656 15.863281 8.113281 C 15.382812 8.878906 14.75 9.535156 14.003906 10.042969 Z M 8 12.800781 L 10.0625 12.800781 C 10.167969 12.800781 10.269531 12.757812 10.34375 12.683594 C 10.421875 12.609375 10.460938 12.507812 10.460938 12.398438 C 10.457031 12.3125 10.425781 12.226562 10.363281 12.160156 L 7.519531 8.375 C 7.480469 8.332031 7.433594 8.292969 7.378906 8.269531 C 7.324219 8.242188 7.265625 8.230469 7.207031 8.230469 C 7.148438 8.230469 7.089844 8.242188 7.035156 8.269531 C 6.980469 8.292969 6.933594 8.332031 6.894531 8.375 L 4.027344 12.140625 C 3.96875 12.214844 3.933594 12.304688 3.929688 12.398438 C 3.929688 12.507812 3.972656 12.609375 4.046875 12.683594 C 4.121094 12.757812 4.222656 12.800781 4.328125 12.800781 L 6.398438 12.800781 L 2.136719 16.960938 C 2.082031 17.03125 2.046875 17.113281 2.042969 17.203125 C 2.042969 17.253906 2.054688 17.308594 2.074219 17.355469 C 2.09375 17.40625 2.125 17.449219 2.164062 17.484375 C 2.199219 17.523438 2.246094 17.550781 2.292969 17.570312 C 2.339844 17.589844 2.394531 17.601562 2.445312 17.601562 L 4.800781 17.601562 L 2.296875 20.105469 C 2.238281 20.160156 2.199219 20.234375 2.183594 20.3125 C 2.167969 20.390625 2.175781 20.472656 2.207031 20.546875 C 2.238281 20.621094 2.289062 20.6875 2.359375 20.730469 C 2.425781 20.777344 2.503906 20.800781 2.582031 20.800781 L 6.398438 20.800781 L 6.398438 22.398438 L 8 22.398438 L 8 20.800781 L 11.816406 20.800781 C 11.898438 20.800781 11.976562 20.777344 12.042969 20.730469 C 12.109375 20.6875 12.160156 20.621094 12.191406 20.546875 C 12.222656 20.472656 12.230469 20.390625 12.214844 20.3125 C 12.199219 20.234375 12.160156 20.160156 12.105469 20.105469 L 9.601562 17.601562 L 11.953125 17.601562 C 12.058594 17.601562 12.160156 17.558594 12.238281 17.484375 C 12.3125 17.40625 12.355469 17.304688 12.355469 17.199219 C 12.351562 17.113281 12.320312 17.027344 12.261719 16.960938 Z M 22.953125 18.796875 C 22.953125 18.902344 22.910156 19.007812 22.832031 19.082031 C 22.757812 19.15625 22.65625 19.199219 22.546875 19.199219 L 14.253906 19.199219 C 14.183594 19.199219 14.117188 19.183594 14.054688 19.148438 C 13.996094 19.117188 13.945312 19.066406 13.910156 19.007812 C 13.871094 18.949219 13.851562 18.882812 13.847656 18.816406 C 13.84375 18.746094 13.859375 18.675781 13.890625 18.617188 L 18.03125 10.320312 C 18.066406 10.253906 18.117188 10.199219 18.179688 10.160156 C 18.246094 10.121094 18.316406 10.097656 18.394531 10.097656 C 18.46875 10.097656 18.542969 10.121094 18.605469 10.160156 C 18.667969 10.199219 18.71875 10.253906 18.753906 10.320312 L 22.914062 18.617188 C 22.941406 18.671875 22.953125 18.734375 22.953125 18.796875 Z M 20.398438 16 L 18.398438 12 L 16.398438 16 Z M 20.398438 16 "/>
</svg>
