<?xml version="1.0" encoding="UTF-8"?>
<svg xmlns="http://www.w3.org/2000/svg" xmlns:xlink="http://www.w3.org/1999/xlink" width="24" height="24" viewBox="0 0 24 24">
<path fill-rule="nonzero" fill="rgb(0%, 0%, 0%)" fill-opacity="1" d="M 10.691406 9.214844 C 9.882812 8.054688 9.441406 7.421875 9.683594 5.414062 C 9.90625 3.5625 10.769531 2.828125 11.601562 2.117188 C 12.246094 1.566406 12.875 1.03125 13.167969 0 C 13.652344 1.15625 13.113281 2.351562 12.609375 3.460938 C 12.113281 4.566406 11.652344 5.589844 12.273438 6.398438 C 13.828125 8.433594 15.414062 11.007812 13.828125 13.738281 C 13.484375 14.367188 12.964844 14.828125 12.449219 15.285156 C 11.773438 15.886719 11.105469 16.480469 10.84375 17.441406 C 10.414062 16.359375 10.855469 15.257812 11.300781 14.160156 C 11.789062 12.945312 12.273438 11.734375 11.574219 10.558594 C 11.25 10.015625 10.949219 9.585938 10.691406 9.214844 Z M 16.085938 7.335938 C 15.929688 6.324219 16.140625 5.285156 16.671875 4.441406 C 17.261719 3.722656 17.796875 3.414062 18.257812 3.144531 C 18.8125 2.828125 19.261719 2.566406 19.585938 1.742188 C 20.050781 2.835938 19.585938 3.644531 19.101562 4.492188 C 18.910156 4.824219 18.71875 5.160156 18.574219 5.523438 C 18.269531 6.5 18.734375 6.953125 19.320312 7.519531 C 19.894531 8.070312 20.578125 8.734375 20.761719 10.105469 C 20.894531 11.121094 20.703125 11.957031 20.164062 12.800781 C 19.59375 13.496094 19.074219 13.847656 18.621094 14.152344 C 18.050781 14.539062 17.585938 14.851562 17.25 15.699219 C 16.785156 14.597656 17.300781 13.683594 17.816406 12.773438 C 18.011719 12.425781 18.210938 12.078125 18.351562 11.71875 C 18.46875 10.828125 17.976562 10.332031 17.421875 9.773438 C 16.847656 9.195312 16.207031 8.550781 16.085938 7.335938 Z M 3.257812 7.335938 C 3.097656 6.324219 3.265625 5.257812 3.84375 4.441406 C 4.445312 3.597656 5.011719 3.292969 5.5 3.03125 C 6.019531 2.753906 6.453125 2.523438 6.757812 1.742188 C 7.222656 2.835938 6.734375 3.675781 6.238281 4.539062 C 6.042969 4.878906 5.84375 5.222656 5.699219 5.589844 C 5.457031 6.203125 5.910156 7.210938 6.503906 7.574219 C 8.105469 8.859375 8.464844 11.234375 7.378906 12.941406 C 6.792969 13.65625 6.25 13.976562 5.777344 14.257812 C 5.214844 14.59375 4.746094 14.867188 4.421875 15.695312 C 3.976562 14.644531 4.433594 13.804688 4.902344 12.953125 C 5.109375 12.566406 5.320312 12.183594 5.453125 11.773438 C 5.738281 10.882812 5.238281 10.359375 4.636719 9.730469 C 4.078125 9.144531 3.433594 8.472656 3.257812 7.332031 Z M 20.800781 14.398438 C 21.921875 18.585938 15.242188 19.199219 12 19.199219 C 8.757812 19.199219 2.078125 18.425781 3.199219 14.398438 C 2.1875 14.902344 1.601562 15.9375 1.601562 16.796875 C 1.601562 19.230469 6.257812 21.4375 12 21.4375 C 17.742188 21.4375 22.398438 19.230469 22.398438 16.796875 C 22.398438 15.9375 21.8125 14.902344 20.800781 14.398438 Z M 20.800781 14.398438 "/>
</svg>
