<?xml version="1.0" encoding="UTF-8"?>
<svg xmlns="http://www.w3.org/2000/svg" xmlns:xlink="http://www.w3.org/1999/xlink" width="28" height="28" viewBox="0 0 28 28">
<defs>
<filter id="filter-remove-color" x="0%" y="0%" width="100%" height="100%">
<feColorMatrix color-interpolation-filters="sRGB" values="0 0 0 0 1 0 0 0 0 1 0 0 0 0 1 0 0 0 1 0" />
</filter>
<mask id="mask-0">
<g filter="url(#filter-remove-color)">
<rect x="-2.8" y="-2.8" width="33.6" height="33.6" fill="rgb(0%, 0%, 0%)" fill-opacity="0.25"/>
</g>
</mask>
<clipPath id="clip-0">
<rect x="0" y="0" width="28" height="28"/>
</clipPath>
<g id="source-7" clip-path="url(#clip-0)">
<path fill-rule="nonzero" fill="rgb(100%, 100%, 100%)" fill-opacity="1" stroke-width="20.135939" stroke-linecap="round" stroke-linejoin="round" stroke="rgb(100%, 100%, 100%)" stroke-opacity="1" stroke-miterlimit="4" d="M 207.061942 373.018973 L 376.012835 373.018973 L 376.012835 541.888951 L 207.061942 541.888951 Z M 207.061942 373.018973 " transform="matrix(0.0482759, 0, 0, 0.0482759, 0, 0)"/>
</g>
</defs>
<path fill-rule="nonzero" fill="rgb(6.666667%, 6.666667%, 6.666667%)" fill-opacity="1" stroke-width="3.408" stroke-linecap="butt" stroke-linejoin="miter" stroke="rgb(93.333333%, 93.333333%, 93.333333%)" stroke-opacity="1" stroke-miterlimit="4" d="M 66.269531 1.780134 C 24.921875 1.780134 1.699219 23.141741 1.699219 66.835938 L 1.699219 516.967076 C 1.699219 557.748326 22.575335 579.190848 63.922991 579.190848 L 515.915179 579.190848 C 557.262835 579.190848 578.138951 558.881138 578.138951 516.967076 L 578.138951 66.835938 C 578.138951 24.193638 557.262835 1.780134 514.620536 1.780134 C 514.620536 1.780134 66.107701 1.618304 66.269531 1.780134 Z M 66.269531 1.780134 " transform="matrix(0.0482759, 0, 0, 0.0482759, 0, 0)"/>
<g mask="url(#mask-0)">
<use xlink:href="#source-7"/>
</g>
<path fill="none" stroke-width="20.135939" stroke-linecap="round" stroke-linejoin="round" stroke="rgb(100%, 100%, 100%)" stroke-opacity="1" stroke-miterlimit="4" d="M 207.061942 373.018973 L 376.012835 373.018973 L 376.012835 541.888951 L 207.061942 541.888951 Z M 207.061942 373.018973 " transform="matrix(0.0482759, 0, 0, 0.0482759, 0, 0)"/>
<path fill-rule="nonzero" fill="rgb(100%, 100%, 100%)" fill-opacity="1" d="M 11.199219 14.902344 C 11.191406 13.832031 11.164062 12.933594 11.140625 12.910156 C 11.09375 12.863281 9.15625 13.136719 8 13.351562 C 7.335938 13.476562 7.097656 13.441406 7.097656 13.222656 C 7.097656 13.160156 7.644531 12.429688 8.316406 11.601562 L 9.535156 10.085938 L 9.125 9.847656 C 8.902344 9.714844 8.695312 9.605469 8.664062 9.605469 C 8.636719 9.605469 8.335938 9.429688 8 9.214844 C 7.664062 8.996094 7.136719 8.679688 6.824219 8.503906 C 6.390625 8.257812 6.273438 8.128906 6.300781 7.933594 C 6.328125 7.730469 6.445312 7.667969 6.921875 7.59375 C 8.144531 7.410156 10.019531 6.996094 10.019531 6.910156 C 10.019531 6.859375 9.75 6.046875 9.421875 5.109375 C 8.839844 3.4375 8.785156 3.0625 9.128906 3.0625 C 9.226562 3.0625 9.984375 3.457031 10.8125 3.9375 C 11.644531 4.421875 12.375 4.816406 12.4375 4.816406 C 12.5 4.816406 12.699219 4.386719 12.882812 3.859375 C 13.613281 1.757812 13.847656 1.25 14.101562 1.210938 C 14.234375 1.191406 14.367188 1.242188 14.394531 1.328125 C 14.445312 1.484375 15.136719 3.414062 15.46875 4.316406 C 15.566406 4.589844 15.691406 4.816406 15.746094 4.816406 C 15.796875 4.816406 16.488281 4.429688 17.285156 3.957031 C 18.9375 2.976562 19.042969 2.929688 19.257812 3.066406 C 19.386719 3.144531 19.300781 3.507812 18.800781 4.953125 C 18.464844 5.9375 18.175781 6.792969 18.164062 6.851562 C 18.144531 6.949219 20.167969 7.398438 21.386719 7.558594 C 21.859375 7.625 21.941406 7.671875 21.9375 7.890625 C 21.933594 8.09375 21.605469 8.339844 20.359375 9.078125 C 19.492188 9.589844 18.785156 10.054688 18.785156 10.109375 C 18.785156 10.164062 19.3125 10.855469 19.953125 11.648438 C 20.597656 12.4375 21.125 13.144531 21.125 13.21875 C 21.125 13.402344 20.667969 13.382812 18.902344 13.113281 C 18.050781 12.984375 17.28125 12.878906 17.191406 12.878906 C 17.0625 12.878906 17.03125 13.253906 17.03125 14.867188 C 17.03125 17.394531 17.03125 17.394531 15.394531 15.453125 C 14.746094 14.679688 14.167969 14.050781 14.109375 14.050781 C 14.050781 14.050781 13.488281 14.679688 12.863281 15.453125 C 12.042969 16.460938 11.652344 16.855469 11.46875 16.855469 C 11.222656 16.855469 11.214844 16.820312 11.199219 14.902344 Z M 13.179688 13.113281 C 13.59375 12.601562 14.011719 12.179688 14.109375 12.179688 C 14.207031 12.179688 14.625 12.601562 15.042969 13.113281 L 15.804688 14.042969 L 15.832031 13.023438 C 15.875 11.617188 15.914062 11.476562 16.304688 11.476562 C 16.480469 11.480469 16.808594 11.527344 17.03125 11.582031 C 17.65625 11.742188 18.433594 11.816406 18.433594 11.714844 C 18.433594 11.664062 18.113281 11.222656 17.722656 10.730469 C 17.328125 10.238281 17.035156 9.765625 17.070312 9.679688 C 17.101562 9.59375 17.558594 9.269531 18.078125 8.960938 C 18.601562 8.652344 19.050781 8.363281 19.082031 8.316406 C 19.109375 8.269531 18.855469 8.191406 18.519531 8.140625 C 18.183594 8.089844 17.882812 8.042969 17.851562 8.035156 C 17.816406 8.023438 17.542969 7.976562 17.238281 7.929688 C 16.550781 7.820312 16.535156 7.703125 17.03125 6.332031 C 17.226562 5.796875 17.359375 5.339844 17.332031 5.308594 C 17.304688 5.28125 16.824219 5.527344 16.269531 5.855469 C 15.710938 6.183594 15.210938 6.449219 15.15625 6.449219 C 15.007812 6.449219 14.875 6.164062 14.507812 5.074219 C 14.328125 4.546875 14.148438 4.113281 14.109375 4.113281 C 14.066406 4.113281 13.855469 4.617188 13.632812 5.234375 C 13.414062 5.851562 13.171875 6.382812 13.097656 6.414062 C 12.96875 6.464844 12.546875 6.257812 11.332031 5.550781 C 11.058594 5.390625 10.835938 5.3125 10.835938 5.378906 C 10.835938 5.445312 10.996094 5.945312 11.1875 6.492188 C 11.378906 7.039062 11.539062 7.566406 11.539062 7.664062 C 11.539062 7.851562 11.257812 7.929688 9.753906 8.152344 C 9.445312 8.199219 9.167969 8.277344 9.140625 8.324219 C 9.109375 8.375 9.257812 8.511719 9.46875 8.632812 C 10.65625 9.296875 11.070312 9.5625 11.117188 9.6875 C 11.148438 9.761719 11.023438 10.027344 10.835938 10.269531 C 10.652344 10.515625 10.308594 10.972656 10.074219 11.28125 L 9.652344 11.84375 L 10.214844 11.769531 C 10.523438 11.726562 10.960938 11.644531 11.1875 11.585938 C 11.414062 11.527344 11.742188 11.480469 11.917969 11.476562 L 12.238281 11.476562 L 12.242188 12.5 C 12.242188 13.367188 12.316406 14.050781 12.40625 14.050781 C 12.421875 14.050781 12.769531 13.628906 13.179688 13.113281 Z M 13.179688 13.113281 "/>
</svg>
