<?xml version="1.0" encoding="UTF-8"?>
<svg xmlns="http://www.w3.org/2000/svg" xmlns:xlink="http://www.w3.org/1999/xlink" width="28" height="28" viewBox="0 0 28 28">
<defs>
<filter id="filter-remove-color" x="0%" y="0%" width="100%" height="100%">
<feColorMatrix color-interpolation-filters="sRGB" values="0 0 0 0 1 0 0 0 0 1 0 0 0 0 1 0 0 0 1 0" />
</filter>
<mask id="mask-0">
<g filter="url(#filter-remove-color)">
<rect x="-2.8" y="-2.8" width="33.6" height="33.6" fill="rgb(0%, 0%, 0%)" fill-opacity="0.25"/>
</g>
</mask>
<clipPath id="clip-0">
<rect x="0" y="0" width="28" height="28"/>
</clipPath>
<g id="source-7" clip-path="url(#clip-0)">
<path fill-rule="nonzero" fill="rgb(100%, 100%, 100%)" fill-opacity="1" d="M 10.230469 24.277344 C 10.214844 22.566406 10.171875 21.132812 10.136719 21.09375 C 10.0625 21.023438 6.96875 21.457031 5.125 21.800781 C 4.0625 21.996094 3.679688 21.941406 3.679688 21.59375 C 3.679688 21.496094 4.554688 20.328125 5.625 19.003906 L 7.570312 16.589844 L 6.921875 16.203125 C 6.5625 15.992188 6.234375 15.820312 6.183594 15.820312 C 6.136719 15.820312 5.660156 15.539062 5.121094 15.195312 C 4.585938 14.847656 3.742188 14.339844 3.25 14.058594 C 2.550781 13.667969 2.363281 13.460938 2.410156 13.152344 C 2.457031 12.824219 2.640625 12.722656 3.398438 12.609375 C 5.355469 12.316406 8.34375 11.652344 8.34375 11.511719 C 8.34375 11.433594 7.917969 10.140625 7.394531 8.640625 C 6.464844 5.96875 6.378906 5.371094 6.929688 5.371094 C 7.078125 5.371094 8.289062 6 9.617188 6.769531 C 10.941406 7.539062 12.109375 8.167969 12.207031 8.167969 C 12.304688 8.167969 12.625 7.484375 12.917969 6.644531 C 14.085938 3.289062 14.457031 2.480469 14.863281 2.417969 C 15.078125 2.382812 15.289062 2.46875 15.332031 2.605469 C 15.414062 2.855469 16.519531 5.929688 17.046875 7.375 C 17.203125 7.8125 17.402344 8.167969 17.488281 8.167969 C 17.574219 8.167969 18.679688 7.554688 19.945312 6.800781 C 22.589844 5.234375 22.753906 5.160156 23.097656 5.375 C 23.304688 5.503906 23.164062 6.082031 22.371094 8.390625 C 21.828125 9.960938 21.371094 11.324219 21.351562 11.417969 C 21.320312 11.578125 24.554688 12.292969 26.496094 12.550781 C 27.25 12.652344 27.382812 12.730469 27.375 13.078125 C 27.371094 13.402344 26.847656 13.796875 24.855469 14.976562 C 23.472656 15.792969 22.34375 16.535156 22.34375 16.621094 C 22.34375 16.710938 23.183594 17.816406 24.210938 19.078125 C 25.234375 20.34375 26.074219 21.46875 26.074219 21.585938 C 26.074219 21.878906 25.351562 21.847656 22.53125 21.421875 C 21.171875 21.214844 19.941406 21.046875 19.800781 21.046875 C 19.59375 21.046875 19.542969 21.644531 19.542969 24.21875 C 19.542969 28.253906 19.539062 28.253906 16.929688 25.152344 C 15.894531 23.921875 14.96875 22.914062 14.875 22.914062 C 14.785156 22.914062 13.886719 23.921875 12.886719 25.152344 C 11.578125 26.765625 10.953125 27.394531 10.664062 27.394531 C 10.265625 27.394531 10.257812 27.339844 10.230469 24.277344 Z M 13.394531 21.421875 C 14.054688 20.597656 14.71875 19.929688 14.875 19.929688 C 15.03125 19.929688 15.703125 20.601562 16.371094 21.417969 L 17.582031 22.90625 L 17.628906 21.277344 C 17.695312 19.027344 17.761719 18.808594 18.378906 18.808594 C 18.660156 18.808594 19.183594 18.886719 19.542969 18.976562 C 20.539062 19.234375 21.785156 19.347656 21.785156 19.1875 C 21.785156 19.105469 21.269531 18.398438 20.644531 17.617188 C 20.019531 16.832031 19.550781 16.074219 19.601562 15.9375 C 19.65625 15.796875 20.382812 15.28125 21.214844 14.789062 C 22.050781 14.292969 22.769531 13.832031 22.816406 13.761719 C 22.859375 13.6875 22.457031 13.5625 21.917969 13.480469 C 21.382812 13.402344 20.902344 13.324219 20.851562 13.308594 C 20.796875 13.296875 20.359375 13.21875 19.871094 13.140625 C 18.777344 12.964844 18.753906 12.785156 19.542969 10.59375 C 19.851562 9.738281 20.066406 9.003906 20.023438 8.960938 C 19.980469 8.914062 19.214844 9.308594 18.324219 9.832031 C 17.4375 10.355469 16.636719 10.78125 16.546875 10.78125 C 16.3125 10.78125 16.097656 10.324219 15.511719 8.585938 C 15.226562 7.738281 14.941406 7.050781 14.875 7.050781 C 14.8125 7.050781 14.472656 7.855469 14.117188 8.839844 C 13.765625 9.828125 13.378906 10.671875 13.257812 10.722656 C 13.054688 10.804688 12.378906 10.472656 10.445312 9.34375 C 10.007812 9.089844 9.652344 8.964844 9.652344 9.070312 C 9.652344 9.175781 9.902344 9.972656 10.210938 10.84375 C 10.519531 11.71875 10.773438 12.5625 10.773438 12.71875 C 10.773438 13.019531 10.328125 13.140625 7.921875 13.5 C 7.429688 13.570312 6.992188 13.695312 6.941406 13.773438 C 6.894531 13.855469 7.128906 14.074219 7.46875 14.261719 C 9.363281 15.328125 10.023438 15.75 10.101562 15.949219 C 10.152344 16.070312 9.949219 16.488281 9.652344 16.882812 C 9.355469 17.273438 8.808594 18 8.4375 18.492188 L 7.761719 19.394531 L 8.660156 19.269531 C 9.15625 19.203125 9.851562 19.070312 10.210938 18.980469 C 10.570312 18.886719 11.097656 18.808594 11.378906 18.808594 L 11.890625 18.808594 L 11.894531 20.441406 C 11.894531 21.824219 12.011719 22.914062 12.160156 22.914062 C 12.179688 22.914062 12.738281 22.242188 13.394531 21.421875 Z M 13.394531 21.421875 "/>
</g>
</defs>
<path fill-rule="nonzero" fill="rgb(6.666667%, 6.666667%, 6.666667%)" fill-opacity="1" stroke-width="3.408" stroke-linecap="butt" stroke-linejoin="miter" stroke="rgb(93.333333%, 93.333333%, 93.333333%)" stroke-opacity="1" stroke-miterlimit="4" d="M 66.269531 1.780134 C 24.921875 1.780134 1.699219 23.141741 1.699219 66.835938 L 1.699219 516.967076 C 1.699219 557.748326 22.575335 579.190848 63.922991 579.190848 L 515.915179 579.190848 C 557.262835 579.190848 578.138951 558.881138 578.138951 516.967076 L 578.138951 66.835938 C 578.138951 24.193638 557.262835 1.780134 514.620536 1.780134 C 514.620536 1.780134 66.107701 1.618304 66.269531 1.780134 Z M 66.269531 1.780134 " transform="matrix(0.0482759, 0, 0, 0.0482759, 0, 0)"/>
<g mask="url(#mask-0)">
<use xlink:href="#source-7"/>
</g>
<path fill-rule="nonzero" fill="rgb(100%, 100%, 100%)" fill-opacity="1" d="M 8.300781 22.347656 C 8.285156 20.632812 8.242188 19.203125 8.203125 19.164062 C 8.132812 19.089844 5.039062 19.527344 3.191406 19.871094 C 2.132812 20.066406 1.75 20.011719 1.75 19.664062 C 1.75 19.566406 2.625 18.398438 3.695312 17.070312 L 5.640625 14.65625 L 4.988281 14.273438 C 4.632812 14.0625 4.300781 13.890625 4.253906 13.890625 C 4.207031 13.890625 3.730469 13.609375 3.191406 13.261719 C 2.65625 12.917969 1.8125 12.40625 1.316406 12.128906 C 0.621094 11.734375 0.433594 11.53125 0.476562 11.21875 C 0.523438 10.894531 0.710938 10.792969 1.46875 10.675781 C 3.425781 10.382812 6.414062 9.71875 6.414062 9.582031 C 6.414062 9.5 5.988281 8.207031 5.464844 6.710938 C 4.53125 4.039062 4.445312 3.4375 4.996094 3.4375 C 5.148438 3.4375 6.355469 4.070312 7.683594 4.839844 C 9.011719 5.609375 10.179688 6.238281 10.277344 6.238281 C 10.375 6.238281 10.695312 5.550781 10.984375 4.714844 C 12.15625 1.355469 12.527344 0.546875 12.933594 0.484375 C 13.144531 0.453125 13.359375 0.535156 13.402344 0.671875 C 13.484375 0.921875 14.589844 4 15.113281 5.445312 C 15.273438 5.882812 15.472656 6.238281 15.558594 6.238281 C 15.640625 6.238281 16.746094 5.625 18.015625 4.871094 C 20.65625 3.304688 20.820312 3.230469 21.167969 3.445312 C 21.375 3.570312 21.234375 4.152344 20.4375 6.460938 C 19.898438 8.03125 19.4375 9.394531 19.421875 9.488281 C 19.386719 9.648438 22.621094 10.363281 24.566406 10.621094 C 25.320312 10.722656 25.449219 10.800781 25.445312 11.148438 C 25.4375 11.472656 24.917969 11.867188 22.925781 13.046875 C 21.542969 13.863281 20.414062 14.605469 20.414062 14.691406 C 20.414062 14.777344 21.253906 15.882812 22.277344 17.148438 C 23.304688 18.410156 24.144531 19.539062 24.144531 19.652344 C 24.144531 19.949219 23.421875 19.914062 20.597656 19.488281 C 19.238281 19.285156 18.011719 19.117188 17.871094 19.117188 C 17.660156 19.117188 17.613281 19.714844 17.613281 22.289062 C 17.613281 26.320312 17.609375 26.320312 15 23.222656 C 13.960938 21.992188 13.039062 20.984375 12.945312 20.984375 C 12.851562 20.984375 11.957031 21.992188 10.957031 23.222656 C 9.648438 24.832031 9.023438 25.460938 8.730469 25.460938 C 8.335938 25.460938 8.328125 25.40625 8.300781 22.347656 Z M 11.464844 19.488281 C 12.125 18.667969 12.789062 17.996094 12.945312 17.996094 C 13.101562 18 13.773438 18.667969 14.441406 19.488281 L 15.652344 20.972656 L 15.699219 19.34375 C 15.765625 17.097656 15.832031 16.875 16.449219 16.878906 C 16.730469 16.878906 17.253906 16.953125 17.613281 17.046875 C 18.609375 17.300781 19.851562 17.417969 19.851562 17.257812 C 19.851562 17.175781 19.339844 16.46875 18.714844 15.683594 C 18.085938 14.898438 17.617188 14.144531 17.671875 14.003906 C 17.726562 13.867188 18.453125 13.347656 19.285156 12.855469 C 20.121094 12.363281 20.839844 11.902344 20.882812 11.828125 C 20.929688 11.757812 20.527344 11.632812 19.988281 11.550781 C 19.453125 11.46875 18.96875 11.394531 18.917969 11.378906 C 18.867188 11.363281 18.425781 11.289062 17.9375 11.210938 C 16.847656 11.035156 16.824219 10.851562 17.613281 8.664062 C 17.921875 7.808594 18.136719 7.074219 18.09375 7.027344 C 18.046875 6.984375 17.285156 7.375 16.394531 7.898438 C 15.503906 8.421875 14.703125 8.851562 14.617188 8.851562 C 14.382812 8.851562 14.167969 8.394531 13.578125 6.652344 C 13.296875 5.808594 13.007812 5.117188 12.945312 5.117188 C 12.878906 5.117188 12.539062 5.925781 12.1875 6.910156 C 11.835938 7.894531 11.449219 8.742188 11.328125 8.789062 C 11.125 8.875 10.449219 8.542969 8.515625 7.414062 C 8.078125 7.15625 7.722656 7.035156 7.722656 7.136719 C 7.722656 7.242188 7.972656 8.042969 8.28125 8.914062 C 8.589844 9.785156 8.839844 10.628906 8.839844 10.789062 C 8.839844 11.085938 8.394531 11.210938 5.988281 11.566406 C 5.5 11.640625 5.058594 11.765625 5.011719 11.84375 C 4.960938 11.921875 5.199219 12.144531 5.535156 12.332031 C 7.433594 13.398438 8.09375 13.820312 8.171875 14.015625 C 8.21875 14.136719 8.015625 14.558594 7.71875 14.949219 C 7.425781 15.34375 6.878906 16.066406 6.507812 16.5625 L 5.832031 17.460938 L 6.730469 17.339844 C 7.222656 17.273438 7.921875 17.140625 8.28125 17.046875 C 8.640625 16.953125 9.164062 16.878906 9.445312 16.878906 L 9.960938 16.875 L 9.964844 18.507812 C 9.964844 19.894531 10.082031 20.984375 10.230469 20.984375 C 10.25 20.984375 10.804688 20.3125 11.464844 19.488281 Z M 11.464844 19.488281 "/>
</svg>
