<?xml version="1.0" encoding="UTF-8"?>
<svg xmlns="http://www.w3.org/2000/svg" xmlns:xlink="http://www.w3.org/1999/xlink" width="28" height="28" viewBox="0 0 28 28">
<defs>
<filter id="filter-remove-color" x="0%" y="0%" width="100%" height="100%">
<feColorMatrix color-interpolation-filters="sRGB" values="0 0 0 0 1 0 0 0 0 1 0 0 0 0 1 0 0 0 1 0" />
</filter>
<mask id="mask-0">
<g filter="url(#filter-remove-color)">
<rect x="-2.8" y="-2.8" width="33.6" height="33.6" fill="rgb(0%, 0%, 0%)" fill-opacity="0.25"/>
</g>
</mask>
<clipPath id="clip-0">
<rect x="0" y="0" width="28" height="28"/>
</clipPath>
<g id="source-7" clip-path="url(#clip-0)">
<path fill-rule="nonzero" fill="rgb(100%, 100%, 100%)" fill-opacity="1" stroke-width="20.135939" stroke-linecap="round" stroke-linejoin="round" stroke="rgb(100%, 100%, 100%)" stroke-opacity="1" stroke-miterlimit="4" d="M 207.061942 373.018973 L 376.012835 373.018973 L 376.012835 541.888951 L 207.061942 541.888951 Z M 207.061942 373.018973 " transform="matrix(0.0482759, 0, 0, 0.0482759, 0, 0)"/>
</g>
</defs>
<path fill-rule="nonzero" fill="rgb(6.666667%, 6.666667%, 6.666667%)" fill-opacity="1" stroke-width="3.408" stroke-linecap="butt" stroke-linejoin="miter" stroke="rgb(93.333333%, 93.333333%, 93.333333%)" stroke-opacity="1" stroke-miterlimit="4" d="M 66.269531 1.780134 C 24.921875 1.780134 1.699219 23.141741 1.699219 66.835938 L 1.699219 516.967076 C 1.699219 557.748326 22.575335 579.190848 63.922991 579.190848 L 515.915179 579.190848 C 557.262835 579.190848 578.138951 558.881138 578.138951 516.967076 L 578.138951 66.835938 C 578.138951 24.193638 557.262835 1.780134 514.620536 1.780134 C 514.620536 1.780134 66.107701 1.618304 66.269531 1.780134 Z M 66.269531 1.780134 " transform="matrix(0.0482759, 0, 0, 0.0482759, 0, 0)"/>
<g mask="url(#mask-0)">
<use xlink:href="#source-7"/>
</g>
<path fill="none" stroke-width="20.135939" stroke-linecap="round" stroke-linejoin="round" stroke="rgb(100%, 100%, 100%)" stroke-opacity="1" stroke-miterlimit="4" d="M 207.061942 373.018973 L 376.012835 373.018973 L 376.012835 541.888951 L 207.061942 541.888951 Z M 207.061942 373.018973 " transform="matrix(0.0482759, 0, 0, 0.0482759, 0, 0)"/>
<path fill-rule="nonzero" fill="rgb(100%, 100%, 100%)" fill-opacity="1" d="M 13.539062 16.949219 C 13.394531 16.804688 13.316406 16.578125 13.316406 16.296875 L 13.316406 15.867188 L 12.671875 15.738281 C 10.167969 15.246094 7.957031 12.652344 7.417969 9.964844 C 7.253906 9.953125 7.164062 9.945312 6.992188 9.945312 C 6.449219 9.945312 6.09375 9.585938 6.09375 9.039062 C 6.09375 8.542969 6.398438 8.253906 6.953125 8.21875 L 7.371094 8.195312 L 7.566406 7.429688 C 7.894531 6.15625 8.382812 5.320312 9.371094 4.332031 C 10.382812 3.320312 11.226562 2.8125 12.449219 2.507812 C 12.820312 2.417969 12.851562 2.488281 13.269531 2.394531 C 13.324219 1.816406 13.273438 1.167969 14.160156 1.199219 C 14.863281 1.222656 14.929688 1.652344 14.933594 2.363281 C 15.171875 2.386719 15.25 2.390625 15.667969 2.476562 C 18.171875 2.992188 20.421875 5.253906 20.859375 7.78125 C 20.929688 8.179688 20.96875 8.21875 21.230469 8.1875 C 21.582031 8.148438 22.152344 8.421875 22.25 8.671875 C 22.492188 9.300781 22.136719 9.839844 21.421875 9.9375 C 20.957031 10 20.933594 10.019531 20.859375 10.453125 C 20.742188 11.132812 20.289062 12.171875 19.78125 12.921875 C 18.886719 14.238281 17.492188 15.21875 15.875 15.667969 L 15.039062 15.898438 L 15.003906 16.339844 C 14.984375 16.582031 14.886719 16.871094 14.792969 16.976562 C 14.542969 17.25 13.824219 17.234375 13.539062 16.949219 Z M 13.316406 12.667969 C 13.316406 11.90625 13.277344 11.28125 13.230469 11.28125 C 13.183594 11.28125 12.722656 11.707031 12.207031 12.222656 C 11.6875 12.746094 11.394531 13.066406 11.285156 13.226562 C 11.417969 13.324219 11.652344 13.589844 12.246094 13.832031 C 12.738281 14.035156 13.148438 14.09375 13.335938 14.121094 C 13.304688 13.890625 13.316406 13.542969 13.316406 12.667969 Z M 16.65625 13.570312 L 17.136719 13.273438 L 16.148438 12.277344 C 15.601562 11.730469 15.117188 11.28125 15.070312 11.28125 C 15.023438 11.28125 14.984375 11.910156 14.984375 12.683594 L 14.984375 14.085938 L 15.578125 13.976562 C 15.777344 13.9375 16.261719 13.753906 16.65625 13.570312 Z M 11.09375 10.917969 L 12.121094 9.945312 L 9.179688 9.945312 L 9.253906 10.347656 C 9.339844 10.808594 9.882812 11.964844 9.992188 11.921875 C 10.03125 11.90625 10.527344 11.453125 11.09375 10.917969 Z M 18.855469 11.179688 C 19.027344 10.796875 19.105469 10.480469 19.144531 10.3125 L 19.210938 9.945312 L 16.265625 9.945312 L 17.261719 10.945312 C 17.808594 11.496094 18.300781 11.949219 18.351562 11.949219 C 18.398438 11.949219 18.679688 11.5625 18.855469 11.179688 Z M 14.566406 10.082031 C 14.757812 9.980469 15.070312 9.652344 15.164062 9.429688 C 15.3125 9.078125 15.222656 8.703125 14.945312 8.398438 C 14.503906 7.914062 13.929688 7.914062 13.4375 8.375 C 12.960938 8.824219 13.078125 9.453125 13.347656 9.769531 C 13.660156 10.132812 14.164062 10.289062 14.566406 10.082031 Z M 11.984375 8.167969 C 11.984375 8.132812 11.539062 7.667969 11 7.128906 L 10.011719 6.148438 L 9.777344 6.53125 C 9.507812 6.960938 9.339844 7.425781 9.191406 8.226562 C 9.265625 8.238281 9.386719 8.222656 10.59375 8.222656 C 11.359375 8.222656 11.984375 8.199219 11.984375 8.167969 Z M 19.121094 7.925781 C 19.101562 7.777344 19.015625 7.332031 18.835938 6.929688 C 18.65625 6.523438 18.378906 6.167969 18.332031 6.167969 C 18.25 6.167969 16.316406 8.085938 16.316406 8.167969 C 16.316406 8.199219 16.957031 8.214844 17.734375 8.199219 C 19.136719 8.179688 19.152344 8.175781 19.121094 7.925781 Z M 13.316406 5.5 L 13.316406 4.050781 L 13.011719 4.121094 C 12.453125 4.144531 11.289062 4.789062 11.316406 4.910156 C 11.332031 4.984375 13.210938 6.945312 13.285156 6.945312 C 13.304688 6.945312 13.316406 6.292969 13.316406 5.5 Z M 16.363281 4.425781 C 15.945312 4.230469 15.46875 4.164062 15.316406 4.144531 L 15.039062 4.113281 L 15.007812 5.554688 L 14.976562 7 L 16.042969 5.945312 L 17.105469 4.890625 Z M 16.363281 4.425781 "/>
</svg>
