<?xml version="1.0" encoding="UTF-8"?>
<svg xmlns="http://www.w3.org/2000/svg" xmlns:xlink="http://www.w3.org/1999/xlink" width="28" height="28" viewBox="0 0 28 28">
<defs>
<filter id="filter-remove-color" x="0%" y="0%" width="100%" height="100%">
<feColorMatrix color-interpolation-filters="sRGB" values="0 0 0 0 1 0 0 0 0 1 0 0 0 0 1 0 0 0 1 0" />
</filter>
<mask id="mask-0">
<g filter="url(#filter-remove-color)">
<rect x="-2.8" y="-2.8" width="33.6" height="33.6" fill="rgb(0%, 0%, 0%)" fill-opacity="0.25"/>
</g>
</mask>
<clipPath id="clip-0">
<rect x="0" y="0" width="28" height="28"/>
</clipPath>
<g id="source-7" clip-path="url(#clip-0)">
<path fill-rule="nonzero" fill="rgb(100%, 100%, 100%)" fill-opacity="1" d="M 13.527344 26.894531 C 13.296875 26.664062 13.175781 26.308594 13.175781 25.863281 L 13.175781 25.183594 L 12.15625 24.984375 C 8.203125 24.207031 4.703125 20.105469 3.855469 15.859375 C 3.597656 15.839844 3.453125 15.828125 3.179688 15.828125 C 2.324219 15.828125 1.757812 15.257812 1.757812 14.394531 C 1.757812 13.613281 2.238281 13.152344 3.121094 13.101562 L 3.777344 13.058594 L 4.089844 11.855469 C 4.609375 9.839844 5.378906 8.515625 6.9375 6.957031 C 8.535156 5.355469 9.875 4.554688 11.804688 4.074219 C 12.394531 3.929688 12.4375 4.042969 13.097656 3.894531 C 13.1875 2.976562 13.105469 1.953125 14.507812 2 C 15.617188 2.039062 15.722656 2.71875 15.730469 3.839844 C 16.109375 3.878906 16.230469 3.890625 16.890625 4.023438 C 20.847656 4.839844 24.402344 8.410156 25.097656 12.402344 C 25.207031 13.035156 25.265625 13.101562 25.683594 13.050781 C 26.234375 12.984375 27.140625 13.414062 27.292969 13.816406 C 27.675781 14.808594 27.117188 15.660156 25.988281 15.8125 C 25.246094 15.914062 25.210938 15.945312 25.09375 16.628906 C 24.914062 17.703125 24.195312 19.347656 23.390625 20.527344 C 21.976562 22.609375 19.773438 24.160156 17.214844 24.871094 L 15.898438 25.234375 L 15.839844 25.933594 C 15.808594 26.316406 15.660156 26.769531 15.507812 26.9375 C 15.117188 27.371094 13.976562 27.347656 13.527344 26.894531 Z M 13.175781 20.132812 C 13.175781 18.925781 13.113281 17.9375 13.039062 17.9375 C 12.964844 17.9375 12.238281 18.609375 11.421875 19.429688 C 10.597656 20.253906 10.136719 20.761719 9.960938 21.011719 C 10.175781 21.164062 10.546875 21.585938 11.480469 21.96875 C 12.265625 22.289062 12.910156 22.382812 13.203125 22.425781 C 13.15625 22.058594 13.175781 21.511719 13.175781 20.132812 Z M 18.449219 21.554688 L 19.214844 21.085938 L 17.648438 19.511719 C 16.785156 18.644531 16.019531 17.9375 15.945312 17.9375 C 15.871094 17.9375 15.808594 18.933594 15.808594 20.152344 L 15.808594 22.371094 L 16.75 22.199219 C 17.0625 22.136719 17.828125 21.847656 18.449219 21.554688 Z M 9.660156 17.367188 L 11.289062 15.828125 L 6.636719 15.828125 L 6.757812 16.464844 C 6.894531 17.1875 7.75 19.019531 7.917969 18.949219 C 7.984375 18.921875 8.765625 18.210938 9.660156 17.367188 Z M 21.929688 17.777344 C 22.203125 17.171875 22.324219 16.675781 22.382812 16.410156 L 22.492188 15.828125 L 17.835938 15.828125 L 19.410156 17.410156 C 20.277344 18.277344 21.050781 18.992188 21.128906 18.992188 C 21.210938 18.992188 21.652344 18.378906 21.929688 17.777344 Z M 15.152344 16.039062 C 15.453125 15.882812 15.949219 15.363281 16.097656 15.011719 C 16.328125 14.453125 16.1875 13.863281 15.75 13.382812 C 15.050781 12.617188 14.144531 12.613281 13.367188 13.34375 C 12.613281 14.054688 12.796875 15.046875 13.226562 15.546875 C 13.71875 16.125 14.515625 16.367188 15.152344 16.039062 Z M 11.066406 13.015625 C 11.066406 12.964844 10.367188 12.226562 9.511719 11.375 L 7.953125 9.824219 L 7.582031 10.429688 C 7.160156 11.113281 6.890625 11.847656 6.65625 13.109375 C 6.773438 13.125 6.964844 13.105469 8.871094 13.105469 C 10.078125 13.105469 11.066406 13.066406 11.066406 13.015625 Z M 22.347656 12.632812 C 22.320312 12.402344 22.183594 11.695312 21.898438 11.0625 C 21.613281 10.421875 21.175781 9.855469 21.101562 9.855469 C 20.972656 9.855469 17.917969 12.886719 17.917969 13.015625 C 17.917969 13.066406 18.925781 13.089844 20.15625 13.070312 C 22.375 13.035156 22.398438 13.027344 22.347656 12.632812 Z M 13.175781 8.800781 L 13.175781 6.511719 L 12.691406 6.621094 C 11.8125 6.660156 9.972656 7.679688 10.015625 7.867188 C 10.039062 7.988281 13.011719 11.085938 13.128906 11.085938 C 13.15625 11.085938 13.175781 10.058594 13.175781 8.800781 Z M 17.988281 7.101562 C 17.332031 6.792969 16.578125 6.691406 16.335938 6.660156 L 15.898438 6.605469 L 15.847656 8.890625 L 15.800781 11.175781 L 17.480469 9.503906 L 19.160156 7.835938 Z M 17.988281 7.101562 "/>
</g>
</defs>
<path fill-rule="nonzero" fill="rgb(6.666667%, 6.666667%, 6.666667%)" fill-opacity="1" stroke-width="3.408" stroke-linecap="butt" stroke-linejoin="miter" stroke="rgb(93.333333%, 93.333333%, 93.333333%)" stroke-opacity="1" stroke-miterlimit="4" d="M 66.269531 1.780134 C 24.921875 1.780134 1.699219 23.141741 1.699219 66.835938 L 1.699219 516.967076 C 1.699219 557.748326 22.575335 579.190848 63.922991 579.190848 L 515.915179 579.190848 C 557.262835 579.190848 578.138951 558.881138 578.138951 516.967076 L 578.138951 66.835938 C 578.138951 24.193638 557.262835 1.780134 514.620536 1.780134 C 514.620536 1.780134 66.107701 1.618304 66.269531 1.780134 Z M 66.269531 1.780134 " transform="matrix(0.0482759, 0, 0, 0.0482759, 0, 0)"/>
<g mask="url(#mask-0)">
<use xlink:href="#source-7"/>
</g>
<path fill-rule="nonzero" fill="rgb(100%, 100%, 100%)" fill-opacity="1" d="M 12.175781 25.542969 C 11.945312 25.3125 11.824219 24.957031 11.824219 24.511719 L 11.824219 23.832031 L 10.804688 23.632812 C 6.851562 22.855469 3.351562 18.753906 2.503906 14.507812 C 2.246094 14.488281 2.101562 14.476562 1.828125 14.476562 C 0.972656 14.476562 0.40625 13.90625 0.40625 13.042969 C 0.40625 12.261719 0.886719 11.800781 1.769531 11.75 L 2.425781 11.707031 L 2.738281 10.5 C 3.257812 8.488281 4.027344 7.164062 5.585938 5.605469 C 7.183594 4.003906 8.523438 3.203125 10.453125 2.722656 C 11.042969 2.578125 11.085938 2.691406 11.746094 2.542969 C 11.835938 1.625 11.753906 0.601562 13.15625 0.648438 C 14.265625 0.6875 14.371094 1.367188 14.375 2.488281 C 14.757812 2.527344 14.878906 2.539062 15.539062 2.671875 C 19.496094 3.488281 23.050781 7.058594 23.746094 11.050781 C 23.855469 11.683594 23.914062 11.75 24.332031 11.699219 C 24.882812 11.632812 25.789062 12.0625 25.941406 12.464844 C 26.324219 13.457031 25.765625 14.308594 24.636719 14.460938 C 23.894531 14.5625 23.859375 14.59375 23.742188 15.277344 C 23.5625 16.351562 22.84375 17.996094 22.039062 19.175781 C 20.625 21.257812 18.421875 22.808594 15.863281 23.519531 L 14.546875 23.882812 L 14.488281 24.582031 C 14.457031 24.964844 14.308594 25.417969 14.15625 25.585938 C 13.765625 26.019531 12.625 25.996094 12.175781 25.542969 Z M 11.824219 18.78125 C 11.824219 17.574219 11.761719 16.585938 11.6875 16.585938 C 11.613281 16.585938 10.886719 17.257812 10.070312 18.078125 C 9.246094 18.902344 8.785156 19.410156 8.609375 19.660156 C 8.824219 19.8125 9.195312 20.234375 10.128906 20.617188 C 10.914062 20.9375 11.558594 21.03125 11.851562 21.074219 C 11.804688 20.707031 11.824219 20.15625 11.824219 18.78125 Z M 17.097656 20.203125 L 17.863281 19.734375 L 16.296875 18.160156 C 15.433594 17.292969 14.667969 16.585938 14.59375 16.585938 C 14.519531 16.585938 14.457031 17.582031 14.457031 18.800781 L 14.457031 21.019531 L 15.398438 20.847656 C 15.710938 20.785156 16.476562 20.496094 17.097656 20.203125 Z M 8.308594 16.015625 L 9.9375 14.476562 L 5.285156 14.476562 L 5.40625 15.113281 C 5.542969 15.835938 6.398438 17.664062 6.566406 17.597656 C 6.628906 17.570312 7.414062 16.859375 8.308594 16.015625 Z M 20.578125 16.425781 C 20.851562 15.820312 20.972656 15.320312 21.03125 15.054688 L 21.140625 14.476562 L 16.484375 14.476562 L 18.058594 16.058594 C 18.925781 16.925781 19.699219 17.636719 19.777344 17.636719 C 19.855469 17.636719 20.300781 17.027344 20.578125 16.425781 Z M 13.800781 14.6875 C 14.101562 14.53125 14.597656 14.011719 14.742188 13.660156 C 14.976562 13.101562 14.835938 12.511719 14.398438 12.03125 C 13.699219 11.265625 12.792969 11.261719 12.015625 11.992188 C 11.261719 12.703125 11.445312 13.695312 11.875 14.195312 C 12.367188 14.773438 13.164062 15.015625 13.800781 14.6875 Z M 9.714844 11.664062 C 9.714844 11.613281 9.015625 10.875 8.160156 10.023438 L 6.601562 8.472656 L 6.226562 9.078125 C 5.808594 9.761719 5.539062 10.496094 5.304688 11.757812 C 5.421875 11.773438 5.613281 11.753906 7.519531 11.753906 C 8.726562 11.753906 9.714844 11.714844 9.714844 11.664062 Z M 20.996094 11.28125 C 20.96875 11.050781 20.832031 10.34375 20.546875 9.710938 C 20.261719 9.070312 19.824219 8.503906 19.75 8.503906 C 19.621094 8.503906 16.566406 11.535156 16.566406 11.664062 C 16.566406 11.714844 17.574219 11.738281 18.804688 11.71875 C 21.023438 11.679688 21.046875 11.675781 20.996094 11.28125 Z M 11.824219 7.449219 L 11.824219 5.160156 L 11.339844 5.269531 C 10.460938 5.308594 8.621094 6.324219 8.664062 6.515625 C 8.6875 6.636719 11.660156 9.734375 11.777344 9.734375 C 11.800781 9.734375 11.824219 8.707031 11.824219 7.449219 Z M 16.636719 5.75 C 15.980469 5.441406 15.226562 5.339844 14.984375 5.308594 L 14.546875 5.253906 L 14.496094 7.539062 L 14.449219 9.820312 L 17.808594 6.484375 Z M 16.636719 5.75 "/>
</svg>
