<?xml version="1.0" encoding="UTF-8"?>
<svg xmlns="http://www.w3.org/2000/svg" xmlns:xlink="http://www.w3.org/1999/xlink" width="28" height="28" viewBox="0 0 28 28">
<defs>
<filter id="filter-remove-color" x="0%" y="0%" width="100%" height="100%">
<feColorMatrix color-interpolation-filters="sRGB" values="0 0 0 0 1 0 0 0 0 1 0 0 0 0 1 0 0 0 1 0" />
</filter>
<mask id="mask-0">
<g filter="url(#filter-remove-color)">
<rect x="-2.8" y="-2.8" width="33.6" height="33.6" fill="rgb(0%, 0%, 0%)" fill-opacity="0.25"/>
</g>
</mask>
<clipPath id="clip-0">
<rect x="0" y="0" width="28" height="28"/>
</clipPath>
<g id="source-8" clip-path="url(#clip-0)">
<path fill-rule="nonzero" fill="rgb(100%, 100%, 100%)" fill-opacity="1" stroke-width="20.135939" stroke-linecap="round" stroke-linejoin="round" stroke="rgb(100%, 100%, 100%)" stroke-opacity="1" stroke-miterlimit="4" d="M 207.061942 373.018973 L 376.012835 373.018973 L 376.012835 541.888951 L 207.061942 541.888951 Z M 207.061942 373.018973 " transform="matrix(0.0482759, 0, 0, 0.0482759, 0, 0)"/>
</g>
</defs>
<path fill-rule="nonzero" fill="rgb(6.666667%, 6.666667%, 6.666667%)" fill-opacity="1" stroke-width="3.408" stroke-linecap="butt" stroke-linejoin="miter" stroke="rgb(93.333333%, 93.333333%, 93.333333%)" stroke-opacity="1" stroke-miterlimit="4" d="M 66.269531 1.780134 C 24.921875 1.780134 1.699219 23.141741 1.699219 66.835938 L 1.699219 516.967076 C 1.699219 557.748326 22.575335 579.190848 63.922991 579.190848 L 515.915179 579.190848 C 557.262835 579.190848 578.138951 558.881138 578.138951 516.967076 L 578.138951 66.835938 C 578.138951 24.193638 557.262835 1.780134 514.620536 1.780134 C 514.620536 1.780134 66.107701 1.618304 66.269531 1.780134 Z M 66.269531 1.780134 " transform="matrix(0.0482759, 0, 0, 0.0482759, 0, 0)"/>
<path fill-rule="nonzero" fill="rgb(100%, 100%, 100%)" fill-opacity="1" d="M 12.207031 16.332031 L 12.144531 9.042969 L 8.421875 9.015625 L 8.421875 5.316406 L 12.125 5.25 L 12.191406 1.164062 L 15.976562 1.097656 L 15.976562 5.257812 L 19.742188 5.257812 L 19.742188 8.980469 L 15.976562 8.980469 L 15.976562 16.417969 C 14.777344 16.277344 13.375 16.640625 12.207031 16.332031 Z M 12.207031 16.332031 "/>
<g mask="url(#mask-0)">
<use xlink:href="#source-8"/>
</g>
<path fill="none" stroke-width="20.135939" stroke-linecap="round" stroke-linejoin="round" stroke="rgb(100%, 100%, 100%)" stroke-opacity="1" stroke-miterlimit="4" d="M 207.061942 373.018973 L 376.012835 373.018973 L 376.012835 541.888951 L 207.061942 541.888951 Z M 207.061942 373.018973 " transform="matrix(0.0482759, 0, 0, 0.0482759, 0, 0)"/>
<path fill-rule="nonzero" fill="rgb(100%, 100%, 100%)" fill-opacity="1" d="M 15.960938 16.332031 L 16.023438 9.042969 L 19.742188 9.015625 L 19.742188 5.316406 L 16.042969 5.25 L 15.976562 1.164062 L 12.191406 1.097656 L 12.191406 5.257812 L 8.421875 5.257812 L 8.421875 8.980469 L 12.191406 8.980469 L 12.191406 16.417969 C 13.386719 16.277344 14.792969 16.640625 15.960938 16.332031 Z M 15.960938 16.332031 "/>
</svg>
