<?xml version="1.0" encoding="UTF-8"?>
<svg xmlns="http://www.w3.org/2000/svg" xmlns:xlink="http://www.w3.org/1999/xlink" width="28" height="28" viewBox="0 0 28 28">
<defs>
<filter id="filter-remove-color" x="0%" y="0%" width="100%" height="100%">
<feColorMatrix color-interpolation-filters="sRGB" values="0 0 0 0 1 0 0 0 0 1 0 0 0 0 1 0 0 0 1 0" />
</filter>
<mask id="mask-0">
<g filter="url(#filter-remove-color)">
<rect x="-2.8" y="-2.8" width="33.6" height="33.6" fill="rgb(0%, 0%, 0%)" fill-opacity="0.25"/>
</g>
</mask>
<clipPath id="clip-0">
<rect x="0" y="0" width="28" height="28"/>
</clipPath>
<g id="source-7" clip-path="url(#clip-0)">
<path fill-rule="nonzero" fill="rgb(100%, 100%, 100%)" fill-opacity="1" stroke-width="20" stroke-linecap="round" stroke-linejoin="round" stroke="rgb(100%, 100%, 100%)" stroke-opacity="1" stroke-miterlimit="4" d="M 270.904018 209.813058 C 268.638393 217.742746 258.685826 216.205357 252.374442 215.638951 C 212.564174 216.124442 172.672991 215.719866 132.862723 215.881696 C 132.862723 241.531808 132.862723 267.18192 132.862723 292.832031 C 177.123326 292.993862 221.464844 292.589286 265.725446 292.993862 C 273.816964 296.71596 270.256696 306.668527 270.904018 313.546317 C 270.984933 396.160714 270.904018 478.775112 270.904018 561.389509 C 299.709821 561.389509 328.43471 561.389509 357.159598 561.389509 C 357.321429 473.59654 356.916853 385.803571 357.321429 298.010603 C 361.043527 290 370.996094 293.479353 377.873884 292.912946 C 418.493304 292.832031 459.193638 292.832031 499.813058 292.832031 C 499.813058 267.18192 499.813058 241.531808 499.813058 215.881696 C 454.015067 215.719866 408.136161 216.124442 362.33817 215.638951 C 354.327567 211.997768 357.80692 201.964286 357.159598 195.167411 C 357.078683 149.854911 357.159598 104.623326 357.159598 59.310826 C 328.43471 59.310826 299.709821 59.310826 270.904018 59.310826 C 270.904018 109.478237 270.904018 159.645647 270.904018 209.813058 Z M 270.904018 209.813058 " transform="matrix(0.0482759, 0, 0, 0.0482759, 0, 0)"/>
</g>
</defs>
<path fill-rule="nonzero" fill="rgb(6.666667%, 6.666667%, 6.666667%)" fill-opacity="1" stroke-width="3.408" stroke-linecap="butt" stroke-linejoin="miter" stroke="rgb(93.333333%, 93.333333%, 93.333333%)" stroke-opacity="1" stroke-miterlimit="4" d="M 66.269531 1.780134 C 24.921875 1.780134 1.699219 23.141741 1.699219 66.835938 L 1.699219 516.967076 C 1.699219 557.748326 22.575335 579.190848 63.922991 579.190848 L 515.915179 579.190848 C 557.262835 579.190848 578.138951 558.881138 578.138951 516.967076 L 578.138951 66.835938 C 578.138951 24.193638 557.262835 1.780134 514.620536 1.780134 C 514.620536 1.780134 66.107701 1.618304 66.269531 1.780134 Z M 66.269531 1.780134 " transform="matrix(0.0482759, 0, 0, 0.0482759, 0, 0)"/>
<g mask="url(#mask-0)">
<use xlink:href="#source-7"/>
</g>
<path fill-rule="nonzero" fill="rgb(100%, 100%, 100%)" fill-opacity="1" stroke-width="20" stroke-linecap="round" stroke-linejoin="round" stroke="rgb(100%, 100%, 100%)" stroke-opacity="1" stroke-miterlimit="4" d="M 230.93192 169.84096 C 228.666295 177.689732 218.713728 176.152344 212.402344 175.585938 C 172.592076 176.152344 132.700893 175.666853 92.80971 175.828683 C 92.80971 201.478795 92.80971 227.209821 92.80971 252.859933 C 137.151228 252.940848 181.492746 252.617188 225.753348 253.021763 C 233.763951 256.743862 230.284598 266.696429 230.93192 273.493304 C 231.012835 356.107701 230.93192 438.722098 230.93192 521.336496 C 259.656808 521.336496 288.381696 521.336496 317.1875 521.336496 C 317.268415 433.624442 316.944754 345.750558 317.34933 258.038504 C 321.071429 249.946987 331.023996 253.507254 337.820871 252.859933 C 378.521205 252.779018 419.140625 252.859933 459.84096 252.859933 C 459.84096 227.209821 459.84096 201.478795 459.84096 175.828683 C 414.042969 175.747768 368.164062 176.071429 322.366071 175.666853 C 314.274554 171.944754 317.834821 161.992188 317.1875 155.195312 C 317.106585 109.882812 317.1875 64.651228 317.1875 19.338728 C 288.381696 19.338728 259.656808 19.338728 230.93192 19.338728 C 230.93192 69.506138 230.93192 119.673549 230.93192 169.84096 Z M 230.93192 169.84096 " transform="matrix(0.0482759, 0, 0, 0.0482759, 0, 0)"/>
</svg>
