<?xml version="1.0" encoding="UTF-8"?>
<svg xmlns="http://www.w3.org/2000/svg" xmlns:xlink="http://www.w3.org/1999/xlink" width="28" height="28" viewBox="0 0 28 28">
<defs>
<filter id="filter-remove-color" x="0%" y="0%" width="100%" height="100%">
<feColorMatrix color-interpolation-filters="sRGB" values="0 0 0 0 1 0 0 0 0 1 0 0 0 0 1 0 0 0 1 0" />
</filter>
<mask id="mask-0">
<g filter="url(#filter-remove-color)">
<rect x="-2.8" y="-2.8" width="33.6" height="33.6" fill="rgb(0%, 0%, 0%)" fill-opacity="0.25"/>
</g>
</mask>
<clipPath id="clip-0">
<rect x="0" y="0" width="28" height="28"/>
</clipPath>
<g id="source-7" clip-path="url(#clip-0)">
<path fill-rule="nonzero" fill="rgb(100%, 100%, 100%)" fill-opacity="1" stroke-width="20.135939" stroke-linecap="round" stroke-linejoin="round" stroke="rgb(100%, 100%, 100%)" stroke-opacity="1" stroke-miterlimit="4" d="M 207.061942 373.018973 L 376.012835 373.018973 L 376.012835 541.888951 L 207.061942 541.888951 Z M 207.061942 373.018973 " transform="matrix(0.0482759, 0, 0, 0.0482759, 0, 0)"/>
</g>
</defs>
<path fill-rule="nonzero" fill="rgb(6.666667%, 6.666667%, 6.666667%)" fill-opacity="1" stroke-width="3.408" stroke-linecap="butt" stroke-linejoin="miter" stroke="rgb(93.333333%, 93.333333%, 93.333333%)" stroke-opacity="1" stroke-miterlimit="4" d="M 66.269531 1.780134 C 24.921875 1.780134 1.699219 23.141741 1.699219 66.835938 L 1.699219 516.967076 C 1.699219 557.748326 22.575335 579.190848 63.922991 579.190848 L 515.915179 579.190848 C 557.262835 579.190848 578.138951 558.881138 578.138951 516.967076 L 578.138951 66.835938 C 578.138951 24.193638 557.262835 1.780134 514.620536 1.780134 C 514.620536 1.780134 66.107701 1.618304 66.269531 1.780134 Z M 66.269531 1.780134 " transform="matrix(0.0482759, 0, 0, 0.0482759, 0, 0)"/>
<g mask="url(#mask-0)">
<use xlink:href="#source-7"/>
</g>
<path fill="none" stroke-width="20.135939" stroke-linecap="round" stroke-linejoin="round" stroke="rgb(100%, 100%, 100%)" stroke-opacity="1" stroke-miterlimit="4" d="M 207.061942 373.018973 L 376.012835 373.018973 L 376.012835 541.888951 L 207.061942 541.888951 Z M 207.061942 373.018973 " transform="matrix(0.0482759, 0, 0, 0.0482759, 0, 0)"/>
<path fill-rule="nonzero" fill="rgb(100%, 100%, 100%)" fill-opacity="1" d="M 11.273438 16.78125 C 10.320312 16.53125 9.492188 16.035156 8.71875 15.238281 C 7.480469 13.96875 6.804688 12.609375 6.40625 10.585938 C 6.179688 9.433594 6.175781 9.40625 6.386719 9.25 C 6.816406 8.9375 6.988281 9.050781 7.132812 9.746094 C 7.882812 13.382812 10.242188 15.75 12.535156 15.167969 C 13.21875 14.992188 13.871094 14.335938 14.066406 13.625 C 14.320312 12.707031 13.871094 11.121094 13.097656 10.179688 L 12.824219 9.847656 L 12.359375 10.328125 C 11.867188 10.835938 11.257812 11.253906 11.015625 11.253906 C 10.867188 11.253906 10.195312 9.894531 10.195312 9.597656 C 10.195312 9.507812 10.515625 9.292969 10.90625 9.113281 C 12 8.613281 12.46875 8.046875 12.46875 7.222656 C 12.46875 6.683594 12.371094 6.496094 12.003906 6.304688 C 11.53125 6.0625 10.742188 6.101562 9.785156 6.425781 C 9.320312 6.582031 8.914062 6.707031 8.882812 6.707031 C 8.796875 6.707031 8.148438 5.242188 8.148438 5.054688 C 8.148438 4.726562 8.851562 4.503906 10.023438 4.460938 C 11.101562 4.417969 11.195312 4.433594 11.785156 4.742188 C 12.523438 5.132812 13.074219 5.808594 13.316406 6.621094 C 13.515625 7.285156 13.542969 8.148438 13.382812 8.570312 C 13.210938 9.023438 13.425781 9.027344 14.011719 8.582031 C 14.648438 8.09375 15.078125 7.90625 15.78125 7.800781 C 16.285156 7.722656 16.308594 7.703125 16.449219 7.210938 C 16.777344 6.035156 17.648438 5.339844 18.816406 5.324219 C 19.691406 5.308594 20.179688 5.488281 20.683594 6.003906 C 21.351562 6.6875 21.585938 7.507812 21.644531 9.320312 C 21.71875 11.574219 21.414062 12.789062 20.535156 13.792969 C 19.777344 14.660156 18.582031 14.976562 17.648438 14.566406 C 16.863281 14.21875 16.65625 13.679688 16.566406 11.746094 C 16.507812 10.503906 16.460938 10.207031 16.28125 10.011719 C 16.007812 9.710938 15.839844 9.714844 15.097656 10.0625 L 14.492188 10.34375 L 14.734375 10.714844 C 16.320312 13.113281 15.992188 15.726562 13.992188 16.609375 C 13.367188 16.886719 12.007812 16.972656 11.273438 16.78125 Z M 19.488281 12.730469 C 20.304688 12.230469 20.847656 10.828125 20.730469 9.515625 C 20.652344 8.65625 20.152344 7.644531 19.636719 7.304688 C 18.941406 6.84375 17.984375 6.996094 17.359375 7.667969 L 17.082031 7.964844 L 17.300781 8.332031 C 17.480469 8.636719 17.523438 8.964844 17.554688 10.289062 C 17.597656 12.144531 17.613281 12.257812 17.925781 12.65625 C 18.226562 13.035156 18.929688 13.070312 19.488281 12.730469 Z M 13.832031 5.042969 C 13.550781 4.941406 13.109375 4.714844 12.847656 4.539062 C 12.328125 4.179688 11.332031 3.097656 11.332031 2.886719 C 11.332031 2.816406 11.460938 2.671875 11.621094 2.566406 C 11.90625 2.378906 11.921875 2.386719 12.375 2.792969 C 12.96875 3.332031 13.519531 3.554688 14.246094 3.558594 C 14.898438 3.558594 15.683594 3.179688 16.082031 2.675781 C 16.207031 2.519531 16.34375 2.390625 16.390625 2.390625 C 16.480469 2.390625 17.691406 3.386719 17.839844 3.582031 C 17.980469 3.769531 16.800781 4.753906 16.132812 5.003906 C 15.414062 5.273438 14.535156 5.289062 13.832031 5.042969 Z M 13.871094 2.5 C 13.566406 2.179688 13.304688 1.878906 13.289062 1.832031 C 13.269531 1.785156 13.519531 1.5 13.839844 1.203125 L 14.421875 0.65625 L 15.023438 1.253906 C 15.359375 1.582031 15.601562 1.910156 15.570312 1.980469 C 15.535156 2.050781 15.265625 2.324219 14.964844 2.59375 L 14.421875 3.082031 Z M 13.871094 2.5 "/>
</svg>
