<?xml version="1.0" encoding="UTF-8"?>
<svg xmlns="http://www.w3.org/2000/svg" xmlns:xlink="http://www.w3.org/1999/xlink" width="28" height="28" viewBox="0 0 28 28">
<defs>
<filter id="filter-remove-color" x="0%" y="0%" width="100%" height="100%">
<feColorMatrix color-interpolation-filters="sRGB" values="0 0 0 0 1 0 0 0 0 1 0 0 0 0 1 0 0 0 1 0" />
</filter>
<mask id="mask-0">
<g filter="url(#filter-remove-color)">
<rect x="-2.8" y="-2.8" width="33.6" height="33.6" fill="rgb(0%, 0%, 0%)" fill-opacity="0.25"/>
</g>
</mask>
<clipPath id="clip-0">
<rect x="0" y="0" width="28" height="28"/>
</clipPath>
<g id="source-7" clip-path="url(#clip-0)">
<path fill-rule="nonzero" fill="rgb(100%, 100%, 100%)" fill-opacity="1" d="M 10.671875 27.421875 C 9.179688 27.03125 7.890625 26.253906 6.675781 25.007812 C 4.742188 23.023438 3.6875 20.898438 3.0625 17.738281 C 2.707031 15.933594 2.707031 15.890625 3.035156 15.648438 C 3.707031 15.15625 3.972656 15.335938 4.199219 16.425781 C 5.375 22.109375 9.058594 25.804688 12.640625 24.894531 C 13.710938 24.625 14.730469 23.597656 15.035156 22.484375 C 15.433594 21.050781 14.734375 18.570312 13.523438 17.101562 L 13.09375 16.582031 L 12.367188 17.332031 C 11.597656 18.125 10.648438 18.777344 10.265625 18.777344 C 10.035156 18.78125 8.984375 16.65625 8.984375 16.1875 C 8.984375 16.054688 9.484375 15.710938 10.097656 15.433594 C 11.808594 14.648438 12.539062 13.769531 12.539062 12.476562 C 12.539062 11.636719 12.390625 11.34375 11.816406 11.046875 C 11.074219 10.664062 9.839844 10.730469 8.347656 11.230469 C 7.621094 11.476562 6.984375 11.675781 6.933594 11.675781 C 6.800781 11.675781 5.789062 9.382812 5.789062 9.085938 C 5.789062 8.578125 6.886719 8.230469 8.71875 8.160156 C 10.398438 8.09375 10.546875 8.117188 11.46875 8.601562 C 12.628906 9.210938 13.488281 10.265625 13.867188 11.535156 C 14.175781 12.574219 14.21875 13.925781 13.964844 14.585938 C 13.699219 15.292969 14.039062 15.300781 14.949219 14.601562 C 15.945312 13.84375 16.621094 13.542969 17.714844 13.378906 C 18.503906 13.261719 18.542969 13.226562 18.757812 12.457031 C 19.273438 10.621094 20.636719 9.535156 22.464844 9.507812 C 23.828125 9.488281 24.597656 9.769531 25.382812 10.574219 C 26.421875 11.640625 26.792969 12.925781 26.886719 15.761719 C 26.996094 19.28125 26.523438 21.183594 25.148438 22.75 C 23.960938 24.101562 22.09375 24.601562 20.636719 23.957031 C 19.410156 23.414062 19.085938 22.570312 18.945312 19.546875 C 18.851562 17.605469 18.777344 17.144531 18.5 16.839844 C 18.074219 16.367188 17.808594 16.375 16.652344 16.917969 L 15.699219 17.359375 L 16.082031 17.9375 C 18.558594 21.6875 18.046875 25.769531 14.925781 27.152344 C 13.941406 27.585938 11.820312 27.722656 10.671875 27.421875 Z M 23.511719 21.089844 C 24.789062 20.308594 25.636719 18.113281 25.453125 16.0625 C 25.332031 14.71875 24.550781 13.140625 23.746094 12.605469 C 22.660156 11.886719 21.164062 12.125 20.183594 13.171875 L 19.75 13.636719 L 20.089844 14.210938 C 20.375 14.6875 20.441406 15.199219 20.488281 17.269531 C 20.554688 20.175781 20.582031 20.347656 21.074219 20.972656 C 21.542969 21.566406 22.640625 21.617188 23.511719 21.089844 Z M 14.671875 9.070312 C 14.230469 8.914062 13.539062 8.5625 13.132812 8.28125 C 12.320312 7.722656 10.761719 6.027344 10.761719 5.703125 C 10.761719 5.589844 10.964844 5.363281 11.214844 5.199219 C 11.660156 4.910156 11.6875 4.917969 12.390625 5.554688 C 13.324219 6.394531 14.183594 6.746094 15.320312 6.75 C 16.339844 6.753906 17.566406 6.160156 18.191406 5.367188 C 18.382812 5.125 18.597656 4.925781 18.671875 4.925781 C 18.8125 4.925781 20.703125 6.480469 20.933594 6.785156 C 21.15625 7.082031 19.316406 8.621094 18.269531 9.011719 C 17.140625 9.433594 15.773438 9.453125 14.671875 9.070312 Z M 14.734375 5.097656 C 14.257812 4.597656 13.847656 4.128906 13.820312 4.054688 C 13.792969 3.976562 14.179688 3.535156 14.679688 3.066406 L 15.589844 2.214844 L 16.535156 3.148438 C 17.054688 3.664062 17.4375 4.171875 17.386719 4.28125 C 17.335938 4.390625 16.910156 4.824219 16.445312 5.242188 L 15.597656 6.003906 Z M 14.734375 5.097656 "/>
</g>
</defs>
<path fill-rule="nonzero" fill="rgb(6.666667%, 6.666667%, 6.666667%)" fill-opacity="1" stroke-width="3.408" stroke-linecap="butt" stroke-linejoin="miter" stroke="rgb(93.333333%, 93.333333%, 93.333333%)" stroke-opacity="1" stroke-miterlimit="4" d="M 66.269531 1.780134 C 24.921875 1.780134 1.699219 23.141741 1.699219 66.835938 L 1.699219 516.967076 C 1.699219 557.748326 22.575335 579.190848 63.922991 579.190848 L 515.915179 579.190848 C 557.262835 579.190848 578.138951 558.881138 578.138951 516.967076 L 578.138951 66.835938 C 578.138951 24.193638 557.262835 1.780134 514.620536 1.780134 C 514.620536 1.780134 66.107701 1.618304 66.269531 1.780134 Z M 66.269531 1.780134 " transform="matrix(0.0482759, 0, 0, 0.0482759, 0, 0)"/>
<g mask="url(#mask-0)">
<use xlink:href="#source-7"/>
</g>
<path fill-rule="nonzero" fill="rgb(100%, 100%, 100%)" fill-opacity="1" d="M 8.742188 25.492188 C 7.25 25.101562 5.960938 24.320312 4.746094 23.074219 C 2.8125 21.089844 1.757812 18.96875 1.132812 15.804688 C 0.777344 14.003906 0.773438 13.960938 1.101562 13.71875 C 1.777344 13.226562 2.042969 13.40625 2.265625 14.496094 C 3.441406 20.179688 7.125 23.875 10.710938 22.964844 C 11.777344 22.691406 12.796875 21.667969 13.105469 20.554688 C 13.5 19.121094 12.804688 16.640625 11.59375 15.171875 L 11.164062 14.652344 L 10.433594 15.402344 C 9.664062 16.191406 8.71875 16.847656 8.335938 16.847656 C 8.105469 16.847656 7.054688 14.722656 7.054688 14.257812 C 7.054688 14.121094 7.554688 13.78125 8.164062 13.503906 C 9.878906 12.71875 10.605469 11.835938 10.605469 10.546875 C 10.605469 9.707031 10.460938 9.414062 9.882812 9.117188 C 9.144531 8.730469 7.910156 8.796875 6.417969 9.300781 C 5.6875 9.542969 5.050781 9.742188 5 9.742188 C 4.871094 9.742188 3.859375 7.453125 3.859375 7.15625 C 3.859375 6.648438 4.957031 6.300781 6.789062 6.230469 C 8.46875 6.164062 8.617188 6.1875 9.539062 6.671875 C 10.695312 7.28125 11.558594 8.335938 11.933594 9.605469 C 12.242188 10.644531 12.289062 11.992188 12.035156 12.65625 C 11.765625 13.363281 12.109375 13.367188 13.019531 12.671875 C 14.015625 11.910156 14.691406 11.613281 15.785156 11.449219 C 16.574219 11.332031 16.613281 11.296875 16.828125 10.527344 C 17.34375 8.6875 18.707031 7.601562 20.535156 7.578125 C 21.898438 7.558594 22.664062 7.839844 23.453125 8.644531 C 24.492188 9.707031 24.863281 10.992188 24.953125 13.828125 C 25.066406 17.347656 24.59375 19.25 23.21875 20.820312 C 22.03125 22.171875 20.164062 22.671875 18.707031 22.027344 C 17.476562 21.480469 17.152344 20.640625 17.011719 17.617188 C 16.921875 15.675781 16.847656 15.214844 16.570312 14.910156 C 16.140625 14.433594 15.878906 14.445312 14.71875 14.984375 L 13.769531 15.425781 L 14.152344 16.003906 C 16.628906 19.753906 16.113281 23.839844 12.992188 25.21875 C 12.011719 25.65625 9.890625 25.789062 8.742188 25.492188 Z M 21.578125 19.15625 C 22.859375 18.375 23.707031 16.183594 23.523438 14.128906 C 23.398438 12.789062 22.621094 11.207031 21.816406 10.675781 C 20.726562 9.957031 19.234375 10.191406 18.253906 11.242188 L 17.820312 11.707031 L 18.160156 12.28125 C 18.445312 12.753906 18.511719 13.269531 18.558594 15.339844 C 18.625 18.242188 18.652344 18.414062 19.140625 19.039062 C 19.609375 19.636719 20.707031 19.6875 21.578125 19.15625 Z M 12.738281 7.136719 C 12.300781 6.984375 11.609375 6.628906 11.203125 6.351562 C 10.386719 5.789062 8.832031 4.097656 8.832031 3.773438 C 8.832031 3.660156 9.035156 3.433594 9.285156 3.269531 C 9.730469 2.976562 9.753906 2.984375 10.460938 3.621094 C 11.394531 4.464844 12.253906 4.816406 13.390625 4.820312 C 14.410156 4.820312 15.636719 4.230469 16.257812 3.4375 C 16.453125 3.195312 16.667969 2.992188 16.742188 2.992188 C 16.882812 2.992188 18.773438 4.546875 19.003906 4.855469 C 19.226562 5.148438 17.382812 6.6875 16.339844 7.078125 C 15.210938 7.5 13.84375 7.523438 12.738281 7.136719 Z M 12.800781 3.164062 C 12.328125 2.664062 11.917969 2.195312 11.890625 2.121094 C 11.863281 2.046875 12.25 1.601562 12.75 1.136719 L 13.660156 0.285156 L 14.605469 1.21875 C 15.125 1.734375 15.507812 2.242188 15.457031 2.351562 C 15.402344 2.460938 14.980469 2.894531 14.511719 3.3125 L 13.664062 4.074219 Z M 12.800781 3.164062 "/>
</svg>
