<?xml version="1.0" encoding="UTF-8"?>
<svg xmlns="http://www.w3.org/2000/svg" xmlns:xlink="http://www.w3.org/1999/xlink" width="28" height="28" viewBox="0 0 28 28">
<defs>
<filter id="filter-remove-color" x="0%" y="0%" width="100%" height="100%">
<feColorMatrix color-interpolation-filters="sRGB" values="0 0 0 0 1 0 0 0 0 1 0 0 0 0 1 0 0 0 1 0" />
</filter>
<mask id="mask-0">
<g filter="url(#filter-remove-color)">
<rect x="-2.8" y="-2.8" width="33.6" height="33.6" fill="rgb(0%, 0%, 0%)" fill-opacity="0.25"/>
</g>
</mask>
<clipPath id="clip-0">
<rect x="0" y="0" width="28" height="28"/>
</clipPath>
<g id="source-7" clip-path="url(#clip-0)">
<path fill-rule="nonzero" fill="rgb(100%, 100%, 100%)" fill-opacity="1" stroke-width="20.135939" stroke-linecap="round" stroke-linejoin="round" stroke="rgb(100%, 100%, 100%)" stroke-opacity="1" stroke-miterlimit="4" d="M 207.061942 373.018973 L 376.012835 373.018973 L 376.012835 541.888951 L 207.061942 541.888951 Z M 207.061942 373.018973 " transform="matrix(0.0482759, 0, 0, 0.0482759, 0, 0)"/>
</g>
</defs>
<path fill-rule="nonzero" fill="rgb(6.666667%, 6.666667%, 6.666667%)" fill-opacity="1" stroke-width="3.408" stroke-linecap="butt" stroke-linejoin="miter" stroke="rgb(93.333333%, 93.333333%, 93.333333%)" stroke-opacity="1" stroke-miterlimit="4" d="M 66.269531 1.780134 C 24.921875 1.780134 1.699219 23.141741 1.699219 66.835938 L 1.699219 516.967076 C 1.699219 557.748326 22.575335 579.190848 63.922991 579.190848 L 515.915179 579.190848 C 557.262835 579.190848 578.138951 558.881138 578.138951 516.967076 L 578.138951 66.835938 C 578.138951 24.193638 557.262835 1.780134 514.620536 1.780134 C 514.620536 1.780134 66.107701 1.618304 66.269531 1.780134 Z M 66.269531 1.780134 " transform="matrix(0.0482759, 0, 0, 0.0482759, 0, 0)"/>
<g mask="url(#mask-0)">
<use xlink:href="#source-7"/>
</g>
<path fill="none" stroke-width="20.135939" stroke-linecap="round" stroke-linejoin="round" stroke="rgb(100%, 100%, 100%)" stroke-opacity="1" stroke-miterlimit="4" d="M 207.061942 373.018973 L 376.012835 373.018973 L 376.012835 541.888951 L 207.061942 541.888951 Z M 207.061942 373.018973 " transform="matrix(0.0482759, 0, 0, 0.0482759, 0, 0)"/>
<path fill-rule="nonzero" fill="rgb(100%, 100%, 100%)" fill-opacity="1" d="M 12.855469 16.339844 C 12.582031 16.285156 12.046875 16.132812 11.671875 16 C 9.742188 15.320312 7.878906 13.410156 7.179688 11.398438 C 6.9375 10.695312 6.78125 9.929688 6.792969 8.902344 C 6.800781 7.871094 6.9375 7.210938 7.179688 6.507812 C 7.84375 4.585938 9.523438 2.78125 11.371094 2 C 12.042969 1.714844 13.535156 1.4375 14.398438 1.4375 C 15.683594 1.4375 18.121094 2.25 18.613281 2.84375 C 18.867188 3.148438 18.632812 3.160156 17.390625 2.898438 C 16.394531 2.691406 16.066406 2.671875 15.296875 2.777344 C 13.085938 3.082031 11.09375 4.75 10.296875 6.964844 C 9.921875 8.011719 9.921875 9.890625 10.292969 10.929688 C 11.070312 13.078125 13.027344 14.761719 15.191406 15.132812 C 15.863281 15.246094 16.171875 15.230469 17.273438 15.007812 C 17.988281 14.863281 18.613281 14.792969 18.671875 14.847656 C 18.804688 14.972656 18.210938 15.394531 17.34375 15.792969 C 16.0625 16.378906 14.195312 16.605469 12.855469 16.339844 Z M 16.964844 11.390625 C 16.925781 11.332031 17.035156 10.871094 17.203125 10.375 C 17.375 9.875 17.511719 9.453125 17.511719 9.433594 C 17.511719 9.414062 17.148438 9.140625 16.707031 8.824219 C 16.261719 8.507812 15.898438 8.199219 15.898438 8.140625 C 15.898438 8.078125 16.359375 8.015625 16.921875 7.996094 L 17.949219 7.957031 L 18.269531 7.035156 C 18.449219 6.523438 18.652344 6.089844 18.722656 6.066406 C 18.796875 6.039062 19.003906 6.472656 19.1875 7.019531 L 19.519531 8.019531 L 20.578125 8.019531 C 21.160156 8.019531 21.613281 8.070312 21.589844 8.132812 C 21.566406 8.195312 21.199219 8.503906 20.773438 8.816406 C 20.347656 9.128906 19.996094 9.433594 19.996094 9.492188 C 19.996094 9.550781 20.109375 9.921875 20.246094 10.316406 C 20.484375 11.011719 20.5625 11.5 20.433594 11.5 C 20.398438 11.5 20.027344 11.246094 19.609375 10.9375 C 19.195312 10.632812 18.800781 10.378906 18.734375 10.378906 C 18.671875 10.378906 18.328125 10.59375 17.972656 10.855469 C 17.113281 11.484375 17.046875 11.519531 16.964844 11.390625 Z M 16.964844 11.390625 "/>
<path fill-rule="nonzero" fill="rgb(100%, 100%, 100%)" fill-opacity="1" d="M 18.703125 5.96875 C 18.4375 6.160156 18.386719 6.535156 18.25 6.8125 C 18.121094 7.160156 18.003906 7.515625 17.878906 7.863281 C 17.207031 7.921875 16.5 7.832031 15.855469 8.042969 C 15.691406 8.234375 16.023438 8.382812 16.132812 8.507812 C 16.542969 8.84375 16.992188 9.132812 17.40625 9.464844 C 17.230469 10.105469 16.902344 10.730469 16.867188 11.402344 C 16.976562 11.699219 17.316406 11.453125 17.46875 11.335938 C 17.894531 11.058594 18.289062 10.691406 18.746094 10.484375 C 19.328125 10.796875 19.824219 11.269531 20.402344 11.589844 C 20.664062 11.597656 20.589844 11.230469 20.558594 11.066406 C 20.460938 10.53125 20.195312 10.011719 20.109375 9.492188 C 20.585938 9 21.222656 8.691406 21.675781 8.179688 C 21.707031 7.921875 21.328125 7.984375 21.164062 7.941406 C 20.640625 7.910156 20.113281 7.929688 19.589844 7.925781 C 19.339844 7.285156 19.226562 6.5625 18.820312 6.003906 C 18.789062 5.976562 18.746094 5.957031 18.703125 5.96875 Z M 18.703125 5.96875 "/>
</svg>
