<?xml version="1.0" encoding="UTF-8"?>
<svg xmlns="http://www.w3.org/2000/svg" xmlns:xlink="http://www.w3.org/1999/xlink" width="28" height="28" viewBox="0 0 28 28">
<defs>
<filter id="filter-remove-color" x="0%" y="0%" width="100%" height="100%">
<feColorMatrix color-interpolation-filters="sRGB" values="0 0 0 0 1 0 0 0 0 1 0 0 0 0 1 0 0 0 1 0" />
</filter>
<mask id="mask-0">
<g filter="url(#filter-remove-color)">
<rect x="-2.8" y="-2.8" width="33.6" height="33.6" fill="rgb(0%, 0%, 0%)" fill-opacity="0.25"/>
</g>
</mask>
<clipPath id="clip-0">
<rect x="0" y="0" width="28" height="28"/>
</clipPath>
<g id="source-8" clip-path="url(#clip-0)">
<path fill-rule="nonzero" fill="rgb(100%, 100%, 100%)" fill-opacity="1" d="M 12.988281 26.738281 C 12.554688 26.652344 11.707031 26.410156 11.105469 26.199219 C 8.03125 25.117188 5.066406 22.078125 3.957031 18.871094 C 3.570312 17.753906 3.320312 16.535156 3.335938 14.894531 C 3.351562 13.253906 3.570312 12.203125 3.957031 11.085938 C 5.011719 8.027344 7.683594 5.15625 10.628906 3.910156 C 11.699219 3.457031 14.074219 3.015625 15.449219 3.015625 C 17.496094 3.015625 21.375 4.308594 22.160156 5.253906 C 22.558594 5.738281 22.1875 5.753906 20.210938 5.339844 C 18.625 5.007812 18.101562 4.980469 16.878906 5.148438 C 13.355469 5.632812 10.1875 8.285156 8.917969 11.8125 C 8.320312 13.480469 8.320312 16.472656 8.914062 18.125 C 10.144531 21.550781 13.265625 24.226562 16.710938 24.816406 C 17.78125 25 18.273438 24.972656 20.027344 24.617188 C 21.160156 24.390625 22.160156 24.277344 22.25 24.363281 C 22.460938 24.5625 21.519531 25.234375 20.136719 25.867188 C 18.097656 26.800781 15.121094 27.164062 12.988281 26.738281 Z M 19.535156 18.863281 C 19.472656 18.765625 19.644531 18.035156 19.917969 17.242188 C 20.1875 16.449219 20.40625 15.773438 20.40625 15.746094 C 20.40625 15.714844 19.828125 15.277344 19.121094 14.773438 C 18.414062 14.269531 17.835938 13.777344 17.835938 13.683594 C 17.835938 13.589844 18.570312 13.484375 19.46875 13.453125 L 21.097656 13.394531 L 21.613281 11.921875 C 21.894531 11.113281 22.21875 10.417969 22.335938 10.378906 C 22.449219 10.34375 22.78125 11.027344 23.074219 11.902344 L 23.601562 13.496094 L 25.285156 13.496094 C 26.210938 13.496094 26.9375 13.574219 26.898438 13.675781 C 26.863281 13.773438 26.277344 14.261719 25.597656 14.761719 C 24.917969 15.261719 24.363281 15.746094 24.363281 15.835938 C 24.363281 15.929688 24.539062 16.519531 24.757812 17.152344 C 25.136719 18.261719 25.261719 19.03125 25.054688 19.03125 C 25 19.03125 24.410156 18.632812 23.746094 18.140625 C 23.082031 17.652344 22.457031 17.253906 22.355469 17.253906 C 22.253906 17.253906 21.707031 17.589844 21.140625 18.007812 C 19.769531 19.007812 19.660156 19.066406 19.535156 18.863281 Z M 19.535156 18.863281 "/>
<path fill-rule="nonzero" fill="rgb(100%, 100%, 100%)" fill-opacity="1" d="M 22.300781 10.230469 C 21.882812 10.53125 21.800781 11.128906 21.578125 11.570312 C 21.375 12.128906 21.1875 12.6875 20.988281 13.246094 C 19.921875 13.335938 18.792969 13.195312 17.769531 13.53125 C 17.507812 13.835938 18.035156 14.074219 18.210938 14.273438 C 18.863281 14.808594 19.574219 15.261719 20.234375 15.792969 C 19.953125 16.816406 19.4375 17.808594 19.378906 18.875 C 19.554688 19.351562 20.09375 18.960938 20.339844 18.773438 C 21.011719 18.332031 21.640625 17.746094 22.367188 17.417969 C 23.296875 17.910156 24.082031 18.667969 25.007812 19.179688 C 25.421875 19.191406 25.304688 18.605469 25.253906 18.34375 C 25.101562 17.492188 24.675781 16.664062 24.539062 15.839844 C 25.300781 15.054688 26.3125 14.5625 27.035156 13.746094 C 27.082031 13.335938 26.480469 13.433594 26.21875 13.371094 C 25.386719 13.316406 24.546875 13.351562 23.710938 13.34375 C 23.316406 12.320312 23.136719 11.175781 22.488281 10.28125 C 22.4375 10.242188 22.371094 10.210938 22.300781 10.230469 Z M 22.300781 10.230469 "/>
</g>
</defs>
<path fill-rule="nonzero" fill="rgb(6.666667%, 6.666667%, 6.666667%)" fill-opacity="1" stroke-width="3.408" stroke-linecap="butt" stroke-linejoin="miter" stroke="rgb(93.333333%, 93.333333%, 93.333333%)" stroke-opacity="1" stroke-miterlimit="4" d="M 66.269531 1.780134 C 24.921875 1.780134 1.699219 23.141741 1.699219 66.835938 L 1.699219 516.967076 C 1.699219 557.748326 22.575335 579.190848 63.922991 579.190848 L 515.915179 579.190848 C 557.262835 579.190848 578.138951 558.881138 578.138951 516.967076 L 578.138951 66.835938 C 578.138951 24.193638 557.262835 1.780134 514.620536 1.780134 C 514.620536 1.780134 66.107701 1.618304 66.269531 1.780134 Z M 66.269531 1.780134 " transform="matrix(0.0482759, 0, 0, 0.0482759, 0, 0)"/>
<g mask="url(#mask-0)">
<use xlink:href="#source-8"/>
</g>
<path fill-rule="nonzero" fill="rgb(100%, 100%, 100%)" fill-opacity="1" d="M 11.058594 24.808594 C 10.621094 24.722656 9.773438 24.480469 9.175781 24.269531 C 6.101562 23.1875 3.132812 20.144531 2.027344 16.941406 C 1.640625 15.824219 1.390625 14.605469 1.40625 12.964844 C 1.421875 11.324219 1.640625 10.273438 2.027344 9.152344 C 3.082031 6.097656 5.753906 3.226562 8.699219 1.976562 C 9.769531 1.523438 12.144531 1.085938 13.519531 1.085938 C 15.566406 1.085938 19.441406 2.378906 20.226562 3.324219 C 20.628906 3.808594 20.253906 3.824219 18.277344 3.410156 C 16.695312 3.078125 16.171875 3.046875 14.945312 3.214844 C 11.425781 3.699219 8.253906 6.355469 6.988281 9.882812 C 6.390625 11.546875 6.386719 14.542969 6.984375 16.195312 C 8.214844 19.617188 11.335938 22.296875 14.78125 22.886719 C 15.851562 23.070312 16.339844 23.039062 18.097656 22.6875 C 19.230469 22.460938 20.230469 22.34375 20.320312 22.429688 C 20.53125 22.632812 19.585938 23.304688 18.207031 23.9375 C 16.167969 24.871094 13.191406 25.234375 11.058594 24.808594 Z M 17.601562 16.929688 C 17.542969 16.832031 17.714844 16.105469 17.984375 15.3125 C 18.253906 14.515625 18.476562 13.84375 18.476562 13.8125 C 18.476562 13.785156 17.898438 13.347656 17.191406 12.84375 C 16.484375 12.335938 15.90625 11.847656 15.90625 11.753906 C 15.90625 11.65625 16.640625 11.554688 17.535156 11.523438 L 19.167969 11.464844 L 19.683594 9.992188 C 19.964844 9.183594 20.289062 8.488281 20.402344 8.449219 C 20.519531 8.410156 20.851562 9.097656 21.140625 9.972656 L 21.671875 11.5625 L 23.351562 11.5625 C 24.28125 11.5625 25.003906 11.644531 24.96875 11.746094 C 24.933594 11.84375 24.347656 12.332031 23.667969 12.832031 C 22.988281 13.332031 22.429688 13.8125 22.429688 13.90625 C 22.429688 13.996094 22.609375 14.589844 22.824219 15.222656 C 23.207031 16.328125 23.328125 17.101562 23.125 17.101562 C 23.070312 17.101562 22.480469 16.699219 21.816406 16.210938 C 21.152344 15.722656 20.523438 15.320312 20.421875 15.320312 C 20.320312 15.320312 19.773438 15.660156 19.207031 16.074219 C 17.839844 17.078125 17.730469 17.136719 17.601562 16.929688 Z M 17.601562 16.929688 "/>
<path fill-rule="nonzero" fill="rgb(100%, 100%, 100%)" fill-opacity="1" d="M 20.371094 8.296875 C 19.949219 8.601562 19.867188 9.195312 19.644531 9.640625 C 19.445312 10.195312 19.253906 10.757812 19.058594 11.316406 C 17.992188 11.40625 16.863281 11.265625 15.835938 11.597656 C 15.578125 11.902344 16.105469 12.144531 16.277344 12.339844 C 16.933594 12.875 17.644531 13.332031 18.304688 13.863281 C 18.023438 14.886719 17.503906 15.878906 17.445312 16.945312 C 17.621094 17.417969 18.160156 17.03125 18.40625 16.84375 C 19.082031 16.398438 19.710938 15.816406 20.4375 15.484375 C 21.363281 15.980469 22.152344 16.738281 23.078125 17.25 C 23.492188 17.261719 23.371094 16.675781 23.324219 16.414062 C 23.171875 15.5625 22.746094 14.734375 22.609375 13.90625 C 23.367188 13.125 24.378906 12.632812 25.105469 11.816406 C 25.152344 11.40625 24.550781 11.503906 24.289062 11.441406 C 23.453125 11.386719 22.617188 11.421875 21.78125 11.410156 C 21.386719 10.390625 21.203125 9.242188 20.558594 8.351562 C 20.507812 8.3125 20.4375 8.28125 20.371094 8.296875 Z M 20.371094 8.296875 "/>
</svg>
