<?xml version="1.0" encoding="UTF-8"?>
<svg xmlns="http://www.w3.org/2000/svg" xmlns:xlink="http://www.w3.org/1999/xlink" width="28" height="28" viewBox="0 0 28 28">
<defs>
<filter id="filter-remove-color" x="0%" y="0%" width="100%" height="100%">
<feColorMatrix color-interpolation-filters="sRGB" values="0 0 0 0 1 0 0 0 0 1 0 0 0 0 1 0 0 0 1 0" />
</filter>
<mask id="mask-0">
<g filter="url(#filter-remove-color)">
<rect x="-2.8" y="-2.8" width="33.6" height="33.6" fill="rgb(0%, 0%, 0%)" fill-opacity="0.25"/>
</g>
</mask>
<clipPath id="clip-0">
<rect x="0" y="0" width="28" height="28"/>
</clipPath>
<g id="source-7" clip-path="url(#clip-0)">
<path fill-rule="nonzero" fill="rgb(100%, 100%, 100%)" fill-opacity="1" stroke-width="20.135939" stroke-linecap="round" stroke-linejoin="round" stroke="rgb(100%, 100%, 100%)" stroke-opacity="1" stroke-miterlimit="4" d="M 207.061942 373.018973 L 376.012835 373.018973 L 376.012835 541.888951 L 207.061942 541.888951 Z M 207.061942 373.018973 " transform="matrix(0.0482759, 0, 0, 0.0482759, 0, 0)"/>
</g>
</defs>
<path fill-rule="nonzero" fill="rgb(6.666667%, 6.666667%, 6.666667%)" fill-opacity="1" stroke-width="3.408" stroke-linecap="butt" stroke-linejoin="miter" stroke="rgb(93.333333%, 93.333333%, 93.333333%)" stroke-opacity="1" stroke-miterlimit="4" d="M 66.269531 1.780134 C 24.921875 1.780134 1.699219 23.141741 1.699219 66.835938 L 1.699219 516.967076 C 1.699219 557.748326 22.575335 579.190848 63.922991 579.190848 L 515.915179 579.190848 C 557.262835 579.190848 578.138951 558.881138 578.138951 516.967076 L 578.138951 66.835938 C 578.138951 24.193638 557.262835 1.780134 514.620536 1.780134 C 514.620536 1.780134 66.107701 1.618304 66.269531 1.780134 Z M 66.269531 1.780134 " transform="matrix(0.0482759, 0, 0, 0.0482759, 0, 0)"/>
<g mask="url(#mask-0)">
<use xlink:href="#source-7"/>
</g>
<path fill="none" stroke-width="20.135939" stroke-linecap="round" stroke-linejoin="round" stroke="rgb(100%, 100%, 100%)" stroke-opacity="1" stroke-miterlimit="4" d="M 207.061942 373.018973 L 376.012835 373.018973 L 376.012835 541.888951 L 207.061942 541.888951 Z M 207.061942 373.018973 " transform="matrix(0.0482759, 0, 0, 0.0482759, 0, 0)"/>
<path fill-rule="nonzero" fill="rgb(100%, 100%, 100%)" fill-opacity="1" d="M 12.828125 16.710938 C 12.546875 16.628906 12.152344 16.476562 11.953125 16.375 C 11.324219 16.046875 10.34375 14.992188 10.015625 14.289062 C 10.015625 14.289062 9.746094 13.644531 9.730469 13.308594 C 9.675781 12.117188 9.695312 11.664062 9.703125 9.542969 C 9.714844 7.296875 9.742188 5.324219 9.789062 5.160156 C 9.890625 4.792969 10.554688 4.449219 11.023438 4.519531 L 11.351562 4.566406 L 11.351562 3.53125 C 11.351562 2.796875 11.398438 2.429688 11.523438 2.253906 C 11.71875 1.976562 12.398438 1.71875 12.722656 1.800781 C 12.882812 1.84375 12.941406 1.800781 12.941406 1.636719 C 12.941406 1.515625 13.074219 1.289062 13.242188 1.136719 C 13.480469 0.917969 13.664062 0.859375 14.132812 0.859375 C 14.898438 0.859375 15.132812 1.101562 15.210938 1.972656 L 15.269531 2.609375 L 15.75 2.621094 C 16.042969 2.625 16.355469 2.722656 16.542969 2.863281 C 16.855469 3.09375 16.839844 3.113281 16.890625 4.542969 C 16.917969 5.367188 16.902344 5.871094 16.949219 6.054688 C 17.507812 5.472656 19.210938 5.839844 19.277344 6.269531 C 19.292969 6.402344 19.179688 6.699219 19.023438 6.933594 C 18.53125 7.652344 18.46875 8.058594 18.398438 10.851562 C 18.398438 10.851562 18.417969 12.050781 18.308594 12.910156 C 18.195312 13.769531 17.957031 14.289062 17.957031 14.289062 C 17.496094 15.222656 16.6875 16.058594 15.84375 16.472656 C 15.089844 16.839844 13.65625 16.953125 12.828125 16.710938 Z M 15.351562 15.6875 C 16.246094 15.277344 16.914062 14.5625 17.3125 13.574219 C 17.484375 13.152344 17.53125 12.585938 17.589844 10.28125 C 17.652344 7.988281 17.699219 7.4375 17.855469 7.136719 C 17.960938 6.9375 18.050781 6.726562 18.050781 6.671875 C 18.050781 6.480469 17.503906 6.667969 17.234375 6.953125 C 17.007812 7.195312 16.964844 7.382812 16.914062 8.332031 L 16.855469 9.429688 L 16.195312 9.429688 L 16.222656 6.558594 C 16.25 3.570312 16.21875 3.355469 15.773438 3.355469 C 15.660156 3.355469 15.488281 3.4375 15.390625 3.535156 C 15.238281 3.6875 15.210938 4.089844 15.210938 6.203125 L 15.210938 8.691406 L 14.53125 8.691406 L 14.53125 5.300781 C 14.53125 1.671875 14.507812 1.539062 13.96875 1.710938 C 13.738281 1.78125 13.734375 1.855469 13.734375 5.179688 L 13.734375 8.578125 L 12.941406 8.578125 L 12.941406 5.691406 C 12.941406 3.128906 12.917969 2.789062 12.753906 2.695312 C 12.652344 2.640625 12.480469 2.613281 12.371094 2.644531 C 12.199219 2.6875 12.164062 2.933594 12.09375 4.65625 C 12.050781 5.734375 12.023438 7.097656 12.03125 7.683594 C 12.0625 9.128906 12.078125 9.054688 11.71875 9.011719 L 11.40625 8.976562 L 11.375 7.277344 C 11.34375 5.496094 11.316406 5.40625 10.804688 5.402344 L 10.546875 5.402344 L 10.578125 9.460938 C 10.613281 13.460938 10.617188 13.523438 10.878906 14.015625 C 11.761719 15.671875 13.746094 16.414062 15.351562 15.6875 Z M 15.351562 15.6875 "/>
<path fill-rule="nonzero" fill="rgb(100%, 100%, 100%)" fill-opacity="1" d="M 14.105469 9.453125 C 13.257812 9.398438 12.417969 9.753906 11.875 10.410156 C 11.109375 11.261719 10.957031 12.558594 11.363281 13.609375 C 11.65625 14.265625 12.234375 14.777344 12.855469 15.125 C 13.554688 15.46875 14.410156 15.382812 15.113281 15.121094 C 15.871094 14.78125 16.4375 14.078125 16.738281 13.324219 C 16.996094 12.492188 17.0625 11.503906 16.574219 10.738281 C 16.015625 9.949219 15.078125 9.429688 14.105469 9.453125 Z M 14.105469 9.453125 "/>
</svg>
