<?xml version="1.0" encoding="UTF-8"?>
<svg xmlns="http://www.w3.org/2000/svg" xmlns:xlink="http://www.w3.org/1999/xlink" width="28" height="28" viewBox="0 0 28 28">
<defs>
<filter id="filter-remove-color" x="0%" y="0%" width="100%" height="100%">
<feColorMatrix color-interpolation-filters="sRGB" values="0 0 0 0 1 0 0 0 0 1 0 0 0 0 1 0 0 0 1 0" />
</filter>
<mask id="mask-0">
<g filter="url(#filter-remove-color)">
<rect x="-2.8" y="-2.8" width="33.6" height="33.6" fill="rgb(0%, 0%, 0%)" fill-opacity="0.25"/>
</g>
</mask>
<clipPath id="clip-0">
<rect x="0" y="0" width="28" height="28"/>
</clipPath>
<g id="source-8" clip-path="url(#clip-0)">
<path fill-rule="nonzero" fill="rgb(100%, 100%, 100%)" fill-opacity="1" d="M 12.734375 27.328125 C 12.296875 27.199219 11.679688 26.960938 11.367188 26.800781 C 10.390625 26.292969 8.859375 24.644531 8.347656 23.550781 C 8.347656 23.550781 7.929688 22.542969 7.90625 22.019531 C 7.824219 20.164062 7.851562 19.453125 7.867188 16.152344 C 7.882812 12.648438 7.925781 9.570312 7.996094 9.3125 C 8.15625 8.746094 9.191406 8.207031 9.921875 8.316406 L 10.433594 8.390625 L 10.433594 6.777344 C 10.433594 5.632812 10.507812 5.058594 10.699219 4.789062 C 11.003906 4.351562 12.066406 3.949219 12.566406 4.082031 C 12.820312 4.148438 12.910156 4.078125 12.910156 3.824219 C 12.910156 3.632812 13.121094 3.285156 13.378906 3.046875 C 13.75 2.699219 14.035156 2.609375 14.765625 2.609375 C 15.964844 2.609375 16.328125 2.988281 16.449219 4.347656 L 16.539062 5.335938 L 17.292969 5.355469 C 17.75 5.367188 18.234375 5.515625 18.53125 5.738281 C 19.011719 6.097656 18.992188 6.125 19.066406 8.355469 C 19.113281 9.640625 19.085938 10.425781 19.160156 10.710938 C 20.03125 9.804688 22.691406 10.375 22.789062 11.046875 C 22.816406 11.25 22.640625 11.714844 22.390625 12.078125 C 21.628906 13.203125 21.527344 13.832031 21.421875 18.191406 C 21.421875 18.191406 21.453125 20.0625 21.28125 21.402344 C 21.105469 22.742188 20.730469 23.550781 20.730469 23.550781 C 20.011719 25.003906 18.75 26.308594 17.4375 26.949219 C 16.257812 27.527344 14.027344 27.707031 12.734375 27.328125 Z M 16.667969 25.726562 C 18.066406 25.09375 19.109375 23.972656 19.726562 22.433594 C 19.992188 21.777344 20.066406 20.890625 20.164062 17.300781 C 20.257812 13.726562 20.328125 12.867188 20.578125 12.398438 C 20.742188 12.085938 20.875 11.761719 20.875 11.671875 C 20.875 11.375 20.023438 11.671875 19.605469 12.113281 C 19.25 12.492188 19.183594 12.785156 19.105469 14.261719 L 19.015625 15.976562 L 17.988281 15.976562 L 18.027344 11.496094 C 18.070312 6.835938 18.023438 6.503906 17.328125 6.503906 C 17.152344 6.503906 16.882812 6.628906 16.730469 6.78125 C 16.492188 7.019531 16.449219 7.648438 16.449219 10.941406 L 16.449219 14.824219 L 15.386719 14.824219 L 15.386719 9.535156 C 15.386719 3.875 15.355469 3.667969 14.511719 3.9375 C 14.15625 4.046875 14.148438 4.164062 14.148438 9.347656 L 14.148438 14.648438 L 12.910156 14.648438 L 12.910156 10.140625 C 12.910156 6.148438 12.878906 5.617188 12.621094 5.476562 C 12.460938 5.386719 12.191406 5.347656 12.023438 5.390625 C 11.753906 5.460938 11.703125 5.84375 11.589844 8.53125 C 11.519531 10.210938 11.480469 12.335938 11.496094 13.25 C 11.539062 15.5 11.566406 15.386719 11.007812 15.324219 L 10.519531 15.265625 L 10.472656 12.617188 C 10.421875 9.839844 10.378906 9.699219 9.582031 9.695312 L 9.175781 9.691406 L 9.230469 16.019531 C 9.28125 22.257812 9.289062 22.359375 9.695312 23.121094 C 11.074219 25.703125 14.167969 26.863281 16.667969 25.726562 Z M 16.667969 25.726562 "/>
<path fill-rule="nonzero" fill="rgb(100%, 100%, 100%)" fill-opacity="1" d="M 14.726562 16.007812 C 13.40625 15.921875 12.097656 16.480469 11.25 17.503906 C 10.054688 18.828125 9.820312 20.851562 10.449219 22.488281 C 10.90625 23.515625 11.808594 24.3125 12.777344 24.851562 C 13.871094 25.386719 15.199219 25.253906 16.296875 24.847656 C 17.480469 24.320312 18.363281 23.21875 18.832031 22.042969 C 19.234375 20.75 19.339844 19.203125 18.574219 18.015625 C 17.707031 16.785156 16.246094 15.96875 14.726562 16.007812 Z M 14.726562 16.007812 "/>
</g>
</defs>
<path fill-rule="nonzero" fill="rgb(6.666667%, 6.666667%, 6.666667%)" fill-opacity="1" stroke-width="3.408" stroke-linecap="butt" stroke-linejoin="miter" stroke="rgb(93.333333%, 93.333333%, 93.333333%)" stroke-opacity="1" stroke-miterlimit="4" d="M 66.269531 1.780134 C 24.921875 1.780134 1.699219 23.141741 1.699219 66.835938 L 1.699219 516.967076 C 1.699219 557.748326 22.575335 579.190848 63.922991 579.190848 L 515.915179 579.190848 C 557.262835 579.190848 578.138951 558.881138 578.138951 516.967076 L 578.138951 66.835938 C 578.138951 24.193638 557.262835 1.780134 514.620536 1.780134 C 514.620536 1.780134 66.107701 1.618304 66.269531 1.780134 Z M 66.269531 1.780134 " transform="matrix(0.0482759, 0, 0, 0.0482759, 0, 0)"/>
<g mask="url(#mask-0)">
<use xlink:href="#source-8"/>
</g>
<path fill-rule="nonzero" fill="rgb(100%, 100%, 100%)" fill-opacity="1" d="M 10.800781 25.394531 C 10.363281 25.269531 9.75 25.03125 9.4375 24.867188 C 8.460938 24.359375 6.929688 22.714844 6.417969 21.621094 C 6.417969 21.621094 5.996094 20.613281 5.972656 20.085938 C 5.890625 18.234375 5.917969 17.523438 5.933594 14.222656 C 5.953125 10.714844 5.992188 7.640625 6.066406 7.382812 C 6.226562 6.816406 7.261719 6.277344 7.988281 6.382812 L 8.5 6.460938 L 8.5 4.847656 C 8.5 3.699219 8.578125 3.128906 8.765625 2.855469 C 9.074219 2.417969 10.132812 2.019531 10.636719 2.148438 C 10.890625 2.214844 10.980469 2.148438 10.980469 1.894531 C 10.980469 1.703125 11.191406 1.351562 11.449219 1.113281 C 11.820312 0.769531 12.105469 0.679688 12.835938 0.679688 C 14.03125 0.679688 14.398438 1.054688 14.519531 2.414062 L 14.609375 3.40625 L 15.359375 3.425781 C 15.820312 3.4375 16.300781 3.585938 16.597656 3.804688 C 17.082031 4.164062 17.058594 4.195312 17.136719 6.421875 C 17.179688 7.707031 17.15625 8.496094 17.230469 8.777344 C 18.097656 7.875 20.757812 8.441406 20.855469 9.117188 C 20.886719 9.320312 20.707031 9.785156 20.460938 10.148438 C 19.699219 11.273438 19.597656 11.902344 19.492188 16.261719 C 19.492188 16.261719 19.519531 18.132812 19.347656 19.472656 C 19.175781 20.8125 18.796875 21.621094 18.796875 21.621094 C 18.082031 23.074219 16.820312 24.375 15.503906 25.019531 C 14.328125 25.597656 12.097656 25.773438 10.800781 25.394531 Z M 14.734375 23.796875 C 16.136719 23.160156 17.175781 22.042969 17.796875 20.503906 C 18.0625 19.84375 18.136719 18.960938 18.230469 15.371094 C 18.324219 11.792969 18.398438 10.933594 18.644531 10.46875 C 18.808594 10.15625 18.945312 9.828125 18.945312 9.742188 C 18.945312 9.441406 18.089844 9.738281 17.675781 10.183594 C 17.320312 10.5625 17.25 10.851562 17.175781 12.332031 L 17.085938 14.042969 L 16.054688 14.042969 L 16.097656 9.5625 C 16.140625 4.902344 16.09375 4.574219 15.394531 4.574219 C 15.21875 4.574219 14.949219 4.699219 14.796875 4.851562 C 14.5625 5.089844 14.519531 5.71875 14.519531 9.011719 L 14.519531 12.894531 L 13.457031 12.894531 L 13.457031 7.605469 C 13.457031 1.945312 13.425781 1.738281 12.582031 2.003906 C 12.226562 2.117188 12.21875 2.234375 12.21875 7.417969 L 12.21875 12.714844 L 10.980469 12.714844 L 10.980469 8.210938 C 10.980469 4.21875 10.945312 3.6875 10.6875 3.542969 C 10.527344 3.453125 10.261719 3.417969 10.09375 3.460938 C 9.824219 3.53125 9.769531 3.914062 9.660156 6.597656 C 9.589844 8.28125 9.546875 10.40625 9.566406 11.320312 C 9.609375 13.570312 9.636719 13.457031 9.078125 13.390625 L 8.589844 13.335938 L 8.539062 10.6875 C 8.488281 7.90625 8.445312 7.769531 7.652344 7.761719 L 7.246094 7.761719 L 7.296875 14.089844 C 7.351562 20.328125 7.355469 20.425781 7.761719 21.1875 C 9.140625 23.773438 12.238281 24.929688 14.734375 23.796875 Z M 14.734375 23.796875 "/>
<path fill-rule="nonzero" fill="rgb(100%, 100%, 100%)" fill-opacity="1" d="M 12.796875 14.078125 C 11.476562 13.992188 10.164062 14.550781 9.320312 15.570312 C 8.125 16.894531 7.886719 18.921875 8.519531 20.554688 C 8.976562 21.582031 9.878906 22.378906 10.847656 22.921875 C 11.9375 23.457031 13.269531 23.324219 14.367188 22.917969 C 15.546875 22.386719 16.433594 21.289062 16.902344 20.113281 C 17.304688 18.820312 17.40625 17.273438 16.644531 16.085938 C 15.773438 14.855469 14.316406 14.039062 12.796875 14.078125 Z M 12.796875 14.078125 "/>
</svg>
