<?xml version="1.0" encoding="UTF-8"?>
<svg xmlns="http://www.w3.org/2000/svg" xmlns:xlink="http://www.w3.org/1999/xlink" width="28" height="28" viewBox="0 0 28 28">
<defs>
<filter id="filter-remove-color" x="0%" y="0%" width="100%" height="100%">
<feColorMatrix color-interpolation-filters="sRGB" values="0 0 0 0 1 0 0 0 0 1 0 0 0 0 1 0 0 0 1 0" />
</filter>
<mask id="mask-0">
<g filter="url(#filter-remove-color)">
<rect x="-2.8" y="-2.8" width="33.6" height="33.6" fill="rgb(0%, 0%, 0%)" fill-opacity="0.25"/>
</g>
</mask>
<clipPath id="clip-0">
<rect x="0" y="0" width="28" height="28"/>
</clipPath>
<g id="source-7" clip-path="url(#clip-0)">
<path fill-rule="nonzero" fill="rgb(100%, 100%, 100%)" fill-opacity="1" stroke-width="20.135939" stroke-linecap="round" stroke-linejoin="round" stroke="rgb(100%, 100%, 100%)" stroke-opacity="1" stroke-miterlimit="4" d="M 207.061942 373.018973 L 376.012835 373.018973 L 376.012835 541.888951 L 207.061942 541.888951 Z M 207.061942 373.018973 " transform="matrix(0.0482759, 0, 0, 0.0482759, 0, 0)"/>
</g>
</defs>
<path fill-rule="nonzero" fill="rgb(6.666667%, 6.666667%, 6.666667%)" fill-opacity="1" stroke-width="3.408" stroke-linecap="butt" stroke-linejoin="miter" stroke="rgb(93.333333%, 93.333333%, 93.333333%)" stroke-opacity="1" stroke-miterlimit="4" d="M 66.269531 1.780134 C 24.921875 1.780134 1.699219 23.141741 1.699219 66.835938 L 1.699219 516.967076 C 1.699219 557.748326 22.575335 579.190848 63.922991 579.190848 L 515.915179 579.190848 C 557.262835 579.190848 578.138951 558.881138 578.138951 516.967076 L 578.138951 66.835938 C 578.138951 24.193638 557.262835 1.780134 514.620536 1.780134 C 514.620536 1.780134 66.107701 1.618304 66.269531 1.780134 Z M 66.269531 1.780134 " transform="matrix(0.0482759, 0, 0, 0.0482759, 0, 0)"/>
<g mask="url(#mask-0)">
<use xlink:href="#source-7"/>
</g>
<path fill="none" stroke-width="20.135939" stroke-linecap="round" stroke-linejoin="round" stroke="rgb(100%, 100%, 100%)" stroke-opacity="1" stroke-miterlimit="4" d="M 207.061942 373.018973 L 376.012835 373.018973 L 376.012835 541.888951 L 207.061942 541.888951 Z M 207.061942 373.018973 " transform="matrix(0.0482759, 0, 0, 0.0482759, 0, 0)"/>
<path fill-rule="nonzero" fill="rgb(100%, 100%, 100%)" fill-opacity="1" d="M 12.902344 15.109375 L 11.753906 13.121094 L 9.5 13.117188 C 8.09375 13.117188 7.214844 13.070312 7.167969 12.992188 C 7.125 12.925781 7.589844 12.003906 8.199219 10.941406 C 8.953125 9.628906 9.28125 8.949219 9.226562 8.804688 C 9.183594 8.6875 8.6875 7.796875 8.125 6.828125 C 7.566406 5.859375 7.109375 5.003906 7.109375 4.929688 C 7.109375 4.828125 7.75 4.789062 9.429688 4.789062 L 11.753906 4.789062 L 12.898438 2.796875 C 13.527344 1.699219 14.082031 0.804688 14.128906 0.804688 C 14.257812 0.804688 14.578125 1.304688 15.625 3.128906 L 16.578125 4.789062 L 18.90625 4.789062 C 20.6875 4.789062 21.230469 4.824219 21.226562 4.9375 C 21.222656 5.023438 20.714844 5.957031 20.097656 7.019531 L 18.976562 8.945312 L 20.105469 10.898438 C 20.722656 11.96875 21.230469 12.910156 21.230469 12.984375 C 21.230469 13.078125 20.53125 13.117188 18.90625 13.117188 L 16.578125 13.117188 L 15.625 14.777344 C 14.582031 16.59375 14.257812 17.101562 14.132812 17.097656 C 14.085938 17.097656 13.53125 16.203125 12.902344 15.109375 Z M 14.582031 13.917969 C 14.785156 13.5625 14.953125 13.234375 14.953125 13.191406 C 14.953125 13.152344 14.601562 13.117188 14.167969 13.117188 C 13.738281 13.117188 13.382812 13.152344 13.382812 13.191406 C 13.382812 13.292969 14.113281 14.566406 14.167969 14.566406 C 14.191406 14.566406 14.378906 14.273438 14.582031 13.917969 Z M 10.582031 11.066406 C 10.363281 10.667969 10.160156 10.34375 10.125 10.34375 C 10.09375 10.34375 9.886719 10.667969 9.667969 11.066406 L 9.269531 11.789062 L 10.980469 11.789062 Z M 16.261719 10.976562 C 16.523438 10.527344 16.890625 9.882812 17.078125 9.546875 L 17.417969 8.929688 L 16.636719 7.554688 L 15.851562 6.175781 L 12.496094 6.175781 L 11.734375 7.488281 C 11.3125 8.210938 10.96875 8.859375 10.96875 8.929688 C 10.96875 9.054688 12.222656 11.34375 12.453125 11.636719 C 12.535156 11.746094 13.035156 11.789062 14.179688 11.789062 L 15.789062 11.789062 Z M 18.671875 11.066406 C 18.453125 10.667969 18.246094 10.34375 18.214844 10.34375 C 18.179688 10.34375 17.972656 10.667969 17.753906 11.066406 L 17.359375 11.789062 L 19.066406 11.789062 Z M 10.574219 6.839844 L 10.964844 6.117188 L 9.269531 6.117188 L 9.667969 6.839844 C 9.886719 7.238281 10.09375 7.5625 10.125 7.5625 C 10.160156 7.5625 10.359375 7.234375 10.574219 6.839844 Z M 18.664062 6.839844 L 19.050781 6.117188 L 17.359375 6.117188 L 17.753906 6.839844 C 17.972656 7.238281 18.179688 7.5625 18.214844 7.5625 C 18.246094 7.5625 18.449219 7.234375 18.664062 6.839844 Z M 14.953125 4.710938 C 14.953125 4.613281 14.226562 3.339844 14.167969 3.339844 C 14.113281 3.339844 13.382812 4.613281 13.382812 4.710938 C 13.382812 4.753906 13.738281 4.789062 14.167969 4.789062 C 14.601562 4.789062 14.953125 4.753906 14.953125 4.710938 Z M 14.953125 4.710938 "/>
</svg>
