<?xml version="1.0" encoding="UTF-8"?>
<svg xmlns="http://www.w3.org/2000/svg" xmlns:xlink="http://www.w3.org/1999/xlink" width="28" height="28" viewBox="0 0 28 28">
<defs>
<filter id="filter-remove-color" x="0%" y="0%" width="100%" height="100%">
<feColorMatrix color-interpolation-filters="sRGB" values="0 0 0 0 1 0 0 0 0 1 0 0 0 0 1 0 0 0 1 0" />
</filter>
<mask id="mask-0">
<g filter="url(#filter-remove-color)">
<rect x="-2.8" y="-2.8" width="33.6" height="33.6" fill="rgb(0%, 0%, 0%)" fill-opacity="0.25"/>
</g>
</mask>
<clipPath id="clip-0">
<rect x="0" y="0" width="28" height="28"/>
</clipPath>
<g id="source-7" clip-path="url(#clip-0)">
<path fill-rule="nonzero" fill="rgb(100%, 100%, 100%)" fill-opacity="1" d="M 12.996094 24.421875 L 11.234375 21.367188 L 7.765625 21.363281 C 5.605469 21.363281 4.257812 21.292969 4.183594 21.171875 C 4.121094 21.070312 4.832031 19.652344 5.769531 18.023438 C 6.929688 16.003906 7.433594 14.957031 7.347656 14.734375 C 7.28125 14.554688 6.519531 13.191406 5.660156 11.703125 C 4.796875 10.214844 4.09375 8.902344 4.09375 8.78125 C 4.09375 8.625 5.078125 8.566406 7.664062 8.566406 L 11.234375 8.566406 L 12.988281 5.507812 C 13.957031 3.824219 14.804688 2.449219 14.878906 2.449219 C 15.074219 2.449219 15.570312 3.214844 17.179688 6.019531 L 18.644531 8.566406 L 22.214844 8.566406 C 24.957031 8.566406 25.789062 8.621094 25.78125 8.800781 C 25.777344 8.925781 25 10.363281 24.050781 11.992188 L 22.328125 14.953125 L 24.058594 17.953125 C 25.011719 19.601562 25.789062 21.042969 25.789062 21.15625 C 25.789062 21.300781 24.714844 21.363281 22.214844 21.363281 L 18.644531 21.363281 L 17.179688 23.914062 C 15.578125 26.703125 15.074219 27.484375 14.882812 27.480469 C 14.8125 27.480469 13.964844 26.105469 12.996094 24.421875 Z M 15.578125 22.59375 C 15.890625 22.042969 16.148438 21.542969 16.148438 21.480469 C 16.148438 21.414062 15.605469 21.363281 14.941406 21.363281 C 14.277344 21.363281 13.738281 21.414062 13.738281 21.480469 C 13.738281 21.628906 14.855469 23.589844 14.941406 23.589844 C 14.976562 23.589844 15.265625 23.140625 15.578125 22.59375 Z M 9.433594 18.210938 C 9.097656 17.601562 8.78125 17.101562 8.730469 17.101562 C 8.679688 17.101562 8.363281 17.601562 8.027344 18.210938 L 7.417969 19.324219 L 10.042969 19.324219 Z M 18.15625 18.070312 C 18.554688 17.382812 19.121094 16.394531 19.40625 15.875 L 19.929688 14.929688 L 18.730469 12.816406 L 17.527344 10.699219 L 12.371094 10.699219 L 11.199219 12.71875 C 10.554688 13.828125 10.027344 14.824219 10.027344 14.929688 C 10.027344 15.125 11.949219 18.636719 12.304688 19.089844 C 12.433594 19.257812 13.199219 19.324219 14.957031 19.324219 L 17.429688 19.324219 Z M 21.855469 18.210938 C 21.519531 17.601562 21.203125 17.101562 21.152344 17.101562 C 21.101562 17.101562 20.785156 17.601562 20.453125 18.210938 L 19.839844 19.324219 L 22.464844 19.324219 Z M 9.421875 11.71875 L 10.019531 10.605469 L 7.417969 10.605469 L 8.027344 11.71875 C 8.363281 12.328125 8.679688 12.828125 8.730469 12.828125 C 8.78125 12.828125 9.089844 12.328125 9.421875 11.71875 Z M 21.84375 11.71875 L 22.441406 10.605469 L 19.839844 10.605469 L 20.453125 11.71875 C 20.785156 12.328125 21.101562 12.828125 21.152344 12.828125 C 21.203125 12.828125 21.515625 12.328125 21.84375 11.71875 Z M 16.148438 8.449219 C 16.148438 8.300781 15.027344 6.34375 14.941406 6.34375 C 14.855469 6.34375 13.738281 8.300781 13.738281 8.449219 C 13.738281 8.515625 14.277344 8.566406 14.941406 8.566406 C 15.605469 8.566406 16.148438 8.515625 16.148438 8.449219 Z M 16.148438 8.449219 "/>
</g>
</defs>
<path fill-rule="nonzero" fill="rgb(6.666667%, 6.666667%, 6.666667%)" fill-opacity="1" stroke-width="3.408" stroke-linecap="butt" stroke-linejoin="miter" stroke="rgb(93.333333%, 93.333333%, 93.333333%)" stroke-opacity="1" stroke-miterlimit="4" d="M 66.269531 1.780134 C 24.921875 1.780134 1.699219 23.141741 1.699219 66.835938 L 1.699219 516.967076 C 1.699219 557.748326 22.575335 579.190848 63.922991 579.190848 L 515.915179 579.190848 C 557.262835 579.190848 578.138951 558.881138 578.138951 516.967076 L 578.138951 66.835938 C 578.138951 24.193638 557.262835 1.780134 514.620536 1.780134 C 514.620536 1.780134 66.107701 1.618304 66.269531 1.780134 Z M 66.269531 1.780134 " transform="matrix(0.0482759, 0, 0, 0.0482759, 0, 0)"/>
<g mask="url(#mask-0)">
<use xlink:href="#source-7"/>
</g>
<path fill-rule="nonzero" fill="rgb(100%, 100%, 100%)" fill-opacity="1" d="M 11.109375 22.539062 L 9.347656 19.480469 L 5.882812 19.480469 C 3.722656 19.480469 2.375 19.40625 2.300781 19.289062 C 2.234375 19.183594 2.949219 17.765625 3.886719 16.140625 C 5.046875 14.121094 5.550781 13.074219 5.464844 12.851562 C 5.398438 12.671875 4.636719 11.308594 3.773438 9.820312 C 2.914062 8.332031 2.210938 7.015625 2.210938 6.898438 C 2.210938 6.742188 3.195312 6.683594 5.78125 6.683594 L 9.347656 6.683594 L 11.105469 3.625 C 12.074219 1.941406 12.921875 0.5625 12.996094 0.5625 C 13.191406 0.5625 13.6875 1.332031 15.296875 4.132812 L 16.761719 6.683594 L 20.332031 6.683594 C 23.074219 6.683594 23.90625 6.738281 23.898438 6.914062 C 23.894531 7.042969 23.113281 8.480469 22.167969 10.109375 L 20.445312 13.070312 L 22.175781 16.070312 C 23.128906 17.71875 23.90625 19.160156 23.90625 19.273438 C 23.90625 19.417969 22.828125 19.480469 20.332031 19.480469 L 16.761719 19.480469 L 15.296875 22.027344 C 13.695312 24.816406 13.191406 25.597656 13 25.597656 C 12.929688 25.597656 12.078125 24.21875 11.109375 22.539062 Z M 13.695312 20.707031 C 14.007812 20.160156 14.261719 19.660156 14.261719 19.59375 C 14.261719 19.53125 13.722656 19.480469 13.058594 19.480469 C 12.394531 19.480469 11.851562 19.53125 11.851562 19.59375 C 11.851562 19.746094 12.972656 21.703125 13.058594 21.703125 C 13.09375 21.703125 13.378906 21.257812 13.695312 20.707031 Z M 7.546875 16.328125 C 7.214844 15.71875 6.898438 15.21875 6.847656 15.21875 C 6.796875 15.21875 6.480469 15.71875 6.144531 16.328125 L 5.535156 17.4375 L 8.160156 17.4375 Z M 16.273438 16.1875 C 16.671875 15.5 17.234375 14.511719 17.523438 13.992188 L 18.046875 13.046875 L 16.847656 10.933594 L 15.644531 8.816406 L 10.488281 8.816406 L 9.316406 10.835938 C 8.671875 11.945312 8.144531 12.941406 8.144531 13.046875 C 8.144531 13.238281 10.066406 16.753906 10.417969 17.207031 C 10.546875 17.371094 11.316406 17.4375 13.074219 17.4375 L 15.546875 17.4375 Z M 19.972656 16.328125 C 19.636719 15.71875 19.320312 15.21875 19.269531 15.21875 C 19.21875 15.21875 18.902344 15.71875 18.566406 16.328125 L 17.957031 17.4375 L 20.582031 17.4375 Z M 7.535156 9.832031 L 8.132812 8.722656 L 5.535156 8.722656 L 6.144531 9.835938 C 6.480469 10.445312 6.796875 10.945312 6.847656 10.945312 C 6.898438 10.941406 7.207031 10.445312 7.535156 9.832031 Z M 19.960938 9.832031 L 20.558594 8.722656 L 17.957031 8.722656 L 18.566406 9.835938 C 18.902344 10.445312 19.21875 10.945312 19.269531 10.945312 C 19.320312 10.941406 19.632812 10.445312 19.960938 9.832031 Z M 14.261719 6.566406 C 14.261719 6.417969 13.144531 4.457031 13.058594 4.457031 C 12.972656 4.457031 11.851562 6.417969 11.851562 6.566406 C 11.851562 6.632812 12.394531 6.683594 13.058594 6.683594 C 13.722656 6.683594 14.261719 6.632812 14.261719 6.566406 Z M 14.261719 6.566406 "/>
</svg>
