<?xml version="1.0" encoding="UTF-8"?>
<svg xmlns="http://www.w3.org/2000/svg" xmlns:xlink="http://www.w3.org/1999/xlink" width="28" height="28" viewBox="0 0 28 28">
<defs>
<filter id="filter-remove-color" x="0%" y="0%" width="100%" height="100%">
<feColorMatrix color-interpolation-filters="sRGB" values="0 0 0 0 1 0 0 0 0 1 0 0 0 0 1 0 0 0 1 0" />
</filter>
<mask id="mask-0">
<g filter="url(#filter-remove-color)">
<rect x="-2.8" y="-2.8" width="33.6" height="33.6" fill="rgb(0%, 0%, 0%)" fill-opacity="0.25"/>
</g>
</mask>
<clipPath id="clip-0">
<rect x="0" y="0" width="28" height="28"/>
</clipPath>
<g id="source-7" clip-path="url(#clip-0)">
<path fill-rule="nonzero" fill="rgb(100%, 100%, 100%)" fill-opacity="1" d="M 9.164062 26.105469 C 9.039062 25.871094 8.984375 24.214844 9.003906 21.273438 C 9.03125 17.449219 8.992188 16.714844 8.753906 16.25 C 8.386719 15.539062 8.386719 15.527344 8.992188 15.316406 C 9.484375 15.148438 9.515625 15.082031 9.515625 14.226562 L 9.515625 13.320312 L 7.820312 13.28125 C 6.890625 13.257812 6.074219 13.1875 6.007812 13.121094 C 5.851562 12.960938 5.777344 11.289062 5.917969 11.058594 C 5.988281 10.949219 6.53125 10.910156 7.328125 10.964844 C 8.414062 11.03125 8.6875 10.992188 9.03125 10.71875 C 9.722656 10.167969 9.464844 9.832031 8.246094 9.707031 C 5.902344 9.46875 5.914062 9.472656 5.789062 8.820312 C 5.730469 8.492188 5.601562 8.222656 5.507812 8.222656 C 5.417969 8.222656 5.027344 8.015625 4.644531 7.765625 C 4.105469 7.40625 3.90625 7.136719 3.757812 6.542969 C 3.652344 6.128906 3.339844 5.472656 3.0625 5.085938 C 2.785156 4.703125 2.601562 4.316406 2.660156 4.222656 C 2.816406 3.96875 3.566406 4.023438 4.164062 4.332031 C 4.828125 4.675781 6.210938 5.09375 6.957031 5.175781 C 7.265625 5.207031 8.417969 5.371094 9.515625 5.53125 C 11.160156 5.777344 12.347656 5.816406 16.285156 5.746094 C 18.914062 5.699219 21.414062 5.578125 21.84375 5.472656 C 22.273438 5.371094 23.121094 5.207031 23.730469 5.113281 C 24.339844 5.015625 25.328125 4.707031 25.925781 4.425781 C 27.382812 3.746094 27.828125 4.132812 27.050781 5.40625 C 26.863281 5.71875 26.707031 6.160156 26.707031 6.382812 C 26.707031 6.785156 25.355469 8.222656 24.976562 8.222656 C 24.882812 8.222656 24.738281 8.476562 24.660156 8.78125 C 24.5 9.398438 24.144531 9.566406 22.949219 9.59375 C 21.886719 9.621094 21.148438 9.804688 21.148438 10.039062 C 21.148438 10.152344 21.328125 10.414062 21.546875 10.621094 C 21.914062 10.96875 22.042969 10.984375 23.152344 10.847656 C 23.894531 10.753906 24.441406 10.761719 24.570312 10.863281 C 24.777344 11.03125 24.699219 12.691406 24.46875 12.949219 C 24.410156 13.015625 23.59375 13.082031 22.660156 13.097656 L 20.957031 13.128906 L 21.011719 14.019531 C 21.058594 14.851562 21.097656 14.921875 21.625 15.089844 C 22.539062 15.386719 22.617188 15.570312 22.085938 16.199219 L 21.617188 16.757812 L 21.714844 21.21875 C 21.777344 23.984375 21.753906 25.792969 21.648438 25.980469 C 21.441406 26.351562 19.90625 26.410156 19.613281 26.054688 C 19.492188 25.910156 19.378906 24.128906 19.308594 21.234375 C 19.242188 18.710938 19.117188 16.5 19.027344 16.324219 C 18.914062 16.109375 18.921875 15.9375 19.050781 15.8125 C 19.152344 15.707031 19.238281 15.070312 19.238281 14.398438 L 19.238281 13.171875 L 15.289062 13.230469 C 13.117188 13.261719 11.3125 13.3125 11.28125 13.347656 C 11.246094 13.378906 11.179688 16.207031 11.125 19.628906 C 11.074219 23.050781 10.960938 25.984375 10.875 26.152344 C 10.640625 26.605469 9.414062 26.570312 9.164062 26.105469 Z M 14.203125 10.480469 L 14.203125 9.785156 L 12.910156 9.785156 C 11.886719 9.785156 11.582031 9.847656 11.453125 10.074219 C 11.335938 10.289062 11.40625 10.460938 11.75 10.761719 C 12.113281 11.082031 12.414062 11.164062 13.203125 11.171875 L 14.203125 11.175781 Z M 18.714844 10.703125 C 18.90625 10.539062 19.066406 10.265625 19.066406 10.09375 C 19.066406 9.828125 18.894531 9.785156 17.761719 9.785156 L 16.460938 9.785156 L 16.460938 11.003906 L 17.414062 11.003906 C 18.0625 11.003906 18.476562 10.90625 18.714844 10.703125 Z M 18.714844 10.703125 "/>
</g>
</defs>
<path fill-rule="nonzero" fill="rgb(6.666667%, 6.666667%, 6.666667%)" fill-opacity="1" stroke-width="3.408" stroke-linecap="butt" stroke-linejoin="miter" stroke="rgb(93.333333%, 93.333333%, 93.333333%)" stroke-opacity="1" stroke-miterlimit="4" d="M 66.269531 1.780134 C 24.921875 1.780134 1.699219 23.141741 1.699219 66.835938 L 1.699219 516.967076 C 1.699219 557.748326 22.575335 579.190848 63.922991 579.190848 L 515.915179 579.190848 C 557.262835 579.190848 578.138951 558.881138 578.138951 516.967076 L 578.138951 66.835938 C 578.138951 24.193638 557.262835 1.780134 514.620536 1.780134 C 514.620536 1.780134 66.107701 1.618304 66.269531 1.780134 Z M 66.269531 1.780134 " transform="matrix(0.0482759, 0, 0, 0.0482759, 0, 0)"/>
<g mask="url(#mask-0)">
<use xlink:href="#source-7"/>
</g>
<path fill-rule="nonzero" fill="rgb(100%, 100%, 100%)" fill-opacity="1" d="M 7.234375 24.171875 C 7.109375 23.941406 7.054688 22.285156 7.074219 19.339844 C 7.097656 15.515625 7.0625 14.78125 6.824219 14.320312 C 6.453125 13.605469 6.457031 13.597656 7.0625 13.386719 C 7.550781 13.214844 7.582031 13.148438 7.582031 12.296875 L 7.582031 11.390625 L 5.890625 11.347656 C 4.960938 11.328125 4.144531 11.253906 4.078125 11.1875 C 3.917969 11.03125 3.847656 9.359375 3.988281 9.128906 C 4.058594 9.019531 4.601562 8.980469 5.394531 9.03125 C 6.484375 9.101562 6.757812 9.0625 7.097656 8.789062 C 7.792969 8.234375 7.535156 7.902344 6.316406 7.777344 C 3.972656 7.539062 3.980469 7.542969 3.859375 6.886719 C 3.796875 6.5625 3.671875 6.292969 3.578125 6.292969 C 3.484375 6.292969 3.097656 6.085938 2.714844 5.832031 C 2.171875 5.476562 1.976562 5.207031 1.828125 4.613281 C 1.722656 4.195312 1.410156 3.539062 1.132812 3.15625 C 0.851562 2.773438 0.671875 2.382812 0.730469 2.292969 C 0.886719 2.039062 1.632812 2.09375 2.230469 2.402344 C 2.894531 2.746094 4.28125 3.164062 5.023438 3.242188 C 5.335938 3.277344 6.484375 3.4375 7.582031 3.601562 C 9.230469 3.847656 10.417969 3.882812 14.355469 3.816406 C 16.980469 3.769531 19.484375 3.644531 19.914062 3.542969 C 20.34375 3.441406 21.191406 3.277344 21.800781 3.179688 C 22.40625 3.085938 23.394531 2.777344 23.996094 2.496094 C 25.453125 1.816406 25.898438 2.203125 25.121094 3.476562 C 24.929688 3.789062 24.773438 4.226562 24.773438 4.453125 C 24.773438 4.851562 23.421875 6.292969 23.046875 6.292969 C 22.953125 6.292969 22.808594 6.542969 22.730469 6.851562 C 22.570312 7.46875 22.214844 7.636719 21.019531 7.664062 C 19.957031 7.691406 19.21875 7.871094 19.21875 8.109375 C 19.21875 8.222656 19.398438 8.484375 19.617188 8.691406 C 19.984375 9.035156 20.113281 9.054688 21.222656 8.917969 C 21.964844 8.824219 22.511719 8.832031 22.636719 8.933594 C 22.847656 9.097656 22.765625 10.757812 22.535156 11.015625 C 22.476562 11.085938 21.664062 11.152344 20.726562 11.167969 L 19.027344 11.195312 L 19.078125 12.085938 C 19.128906 12.921875 19.167969 12.988281 19.695312 13.160156 C 20.605469 13.457031 20.683594 13.640625 20.15625 14.269531 L 19.683594 14.828125 L 19.785156 19.289062 C 19.847656 22.050781 19.820312 23.863281 19.714844 24.050781 C 19.507812 24.421875 17.976562 24.476562 17.679688 24.125 C 17.5625 23.980469 17.449219 22.199219 17.375 19.304688 C 17.3125 16.78125 17.1875 14.570312 17.09375 14.390625 C 16.984375 14.179688 16.992188 14.003906 17.117188 13.878906 C 17.222656 13.773438 17.308594 13.140625 17.308594 12.464844 L 17.308594 11.242188 L 13.359375 11.296875 C 11.1875 11.328125 9.382812 11.382812 9.347656 11.414062 C 9.316406 11.449219 9.246094 14.273438 9.195312 17.695312 C 9.144531 21.117188 9.03125 24.054688 8.945312 24.222656 C 8.710938 24.675781 7.484375 24.640625 7.234375 24.171875 Z M 12.273438 8.550781 L 12.273438 7.855469 L 10.976562 7.855469 C 9.957031 7.855469 9.652344 7.914062 9.523438 8.144531 C 9.402344 8.359375 9.476562 8.53125 9.820312 8.832031 C 10.179688 9.152344 10.480469 9.234375 11.273438 9.238281 L 12.273438 9.246094 Z M 16.785156 8.773438 C 16.976562 8.609375 17.132812 8.335938 17.132812 8.164062 C 17.132812 7.894531 16.964844 7.855469 15.832031 7.855469 L 14.53125 7.855469 L 14.53125 9.070312 L 15.484375 9.070312 C 16.132812 9.070312 16.546875 8.976562 16.785156 8.773438 Z M 16.785156 8.773438 "/>
</svg>
