<?xml version="1.0" encoding="UTF-8"?>
<svg xmlns="http://www.w3.org/2000/svg" xmlns:xlink="http://www.w3.org/1999/xlink" width="28" height="28" viewBox="0 0 28 28">
<defs>
<filter id="filter-remove-color" x="0%" y="0%" width="100%" height="100%">
<feColorMatrix color-interpolation-filters="sRGB" values="0 0 0 0 1 0 0 0 0 1 0 0 0 0 1 0 0 0 1 0" />
</filter>
<mask id="mask-0">
<g filter="url(#filter-remove-color)">
<rect x="-2.8" y="-2.8" width="33.6" height="33.6" fill="rgb(0%, 0%, 0%)" fill-opacity="0.25"/>
</g>
</mask>
<clipPath id="clip-0">
<rect x="0" y="0" width="28" height="28"/>
</clipPath>
<g id="source-7" clip-path="url(#clip-0)">
<path fill-rule="nonzero" fill="rgb(100%, 100%, 100%)" fill-opacity="1" stroke-width="20.135939" stroke-linecap="round" stroke-linejoin="round" stroke="rgb(100%, 100%, 100%)" stroke-opacity="1" stroke-miterlimit="4" d="M 207.061942 373.018973 L 376.012835 373.018973 L 376.012835 541.888951 L 207.061942 541.888951 Z M 207.061942 373.018973 " transform="matrix(0.0482759, 0, 0, 0.0482759, 0, 0)"/>
</g>
</defs>
<path fill-rule="nonzero" fill="rgb(6.666667%, 6.666667%, 6.666667%)" fill-opacity="1" stroke-width="3.408" stroke-linecap="butt" stroke-linejoin="miter" stroke="rgb(93.333333%, 93.333333%, 93.333333%)" stroke-opacity="1" stroke-miterlimit="4" d="M 66.269531 1.780134 C 24.921875 1.780134 1.699219 23.141741 1.699219 66.835938 L 1.699219 516.967076 C 1.699219 557.748326 22.575335 579.190848 63.922991 579.190848 L 515.915179 579.190848 C 557.262835 579.190848 578.138951 558.881138 578.138951 516.967076 L 578.138951 66.835938 C 578.138951 24.193638 557.262835 1.780134 514.620536 1.780134 C 514.620536 1.780134 66.107701 1.618304 66.269531 1.780134 Z M 66.269531 1.780134 " transform="matrix(0.0482759, 0, 0, 0.0482759, 0, 0)"/>
<g mask="url(#mask-0)">
<use xlink:href="#source-7"/>
</g>
<path fill="none" stroke-width="20.135939" stroke-linecap="round" stroke-linejoin="round" stroke="rgb(100%, 100%, 100%)" stroke-opacity="1" stroke-miterlimit="4" d="M 207.061942 373.018973 L 376.012835 373.018973 L 376.012835 541.888951 L 207.061942 541.888951 Z M 207.061942 373.018973 " transform="matrix(0.0482759, 0, 0, 0.0482759, 0, 0)"/>
<path fill-rule="nonzero" fill="rgb(100%, 100%, 100%)" fill-opacity="1" d="M 10.136719 16.1875 C 10.054688 16.035156 10.019531 14.964844 10.03125 13.058594 C 10.050781 10.582031 10.023438 10.109375 9.871094 9.808594 C 9.632812 9.347656 9.632812 9.339844 10.027344 9.203125 C 10.34375 9.09375 10.363281 9.050781 10.363281 8.5 L 10.363281 7.910156 L 9.265625 7.886719 C 8.664062 7.871094 8.136719 7.824219 8.09375 7.78125 C 7.992188 7.679688 7.945312 6.597656 8.035156 6.449219 C 8.078125 6.378906 8.433594 6.351562 8.945312 6.386719 C 9.652344 6.429688 9.828125 6.40625 10.050781 6.230469 C 10.496094 5.871094 10.332031 5.65625 9.542969 5.574219 C 8.023438 5.417969 8.03125 5.421875 7.953125 5 C 7.914062 4.785156 7.832031 4.613281 7.769531 4.613281 C 7.710938 4.613281 7.457031 4.480469 7.210938 4.316406 C 6.859375 4.082031 6.734375 3.910156 6.636719 3.527344 C 6.570312 3.257812 6.367188 2.832031 6.1875 2.582031 C 6.007812 2.335938 5.890625 2.082031 5.925781 2.023438 C 6.027344 1.859375 6.511719 1.894531 6.898438 2.09375 C 7.328125 2.316406 8.222656 2.585938 8.707031 2.640625 C 8.90625 2.660156 9.652344 2.765625 10.363281 2.871094 C 11.429688 3.03125 12.195312 3.054688 14.746094 3.007812 C 16.445312 2.980469 18.066406 2.898438 18.34375 2.832031 C 18.621094 2.765625 19.171875 2.660156 19.5625 2.597656 C 19.957031 2.539062 20.597656 2.335938 20.984375 2.15625 C 21.929688 1.714844 22.21875 1.964844 21.714844 2.789062 C 21.589844 2.992188 21.488281 3.277344 21.488281 3.421875 C 21.488281 3.679688 20.613281 4.613281 20.371094 4.613281 C 20.308594 4.613281 20.21875 4.777344 20.167969 4.976562 C 20.0625 5.375 19.832031 5.480469 19.058594 5.5 C 18.371094 5.519531 17.894531 5.636719 17.894531 5.789062 C 17.894531 5.863281 18.007812 6.03125 18.152344 6.164062 C 18.390625 6.386719 18.472656 6.398438 19.191406 6.3125 C 19.671875 6.253906 20.023438 6.257812 20.105469 6.320312 C 20.242188 6.429688 20.191406 7.503906 20.042969 7.671875 C 20.003906 7.714844 19.476562 7.757812 18.871094 7.769531 L 17.769531 7.789062 L 17.804688 8.363281 C 17.835938 8.902344 17.859375 8.949219 18.203125 9.058594 C 18.792969 9.25 18.84375 9.371094 18.5 9.777344 L 18.195312 10.136719 L 18.261719 13.023438 C 18.300781 14.8125 18.285156 15.984375 18.214844 16.105469 C 18.082031 16.347656 17.089844 16.382812 16.898438 16.152344 C 16.820312 16.0625 16.75 14.910156 16.699219 13.035156 C 16.660156 11.402344 16.578125 9.96875 16.519531 9.855469 C 16.449219 9.714844 16.453125 9.605469 16.535156 9.523438 C 16.601562 9.457031 16.65625 9.042969 16.65625 8.609375 L 16.65625 7.816406 L 14.101562 7.851562 C 12.695312 7.875 11.527344 7.90625 11.503906 7.929688 C 11.484375 7.949219 11.4375 9.78125 11.40625 11.996094 C 11.371094 14.207031 11.300781 16.109375 11.242188 16.21875 C 11.089844 16.511719 10.296875 16.488281 10.136719 16.1875 Z M 13.398438 6.074219 L 13.398438 5.625 L 12.558594 5.625 C 11.898438 5.625 11.699219 5.664062 11.617188 5.8125 C 11.539062 5.949219 11.589844 6.0625 11.808594 6.257812 C 12.042969 6.460938 12.238281 6.515625 12.75 6.519531 L 13.398438 6.523438 Z M 16.320312 6.21875 C 16.441406 6.113281 16.542969 5.933594 16.542969 5.824219 C 16.542969 5.652344 16.433594 5.625 15.703125 5.625 L 14.859375 5.625 L 14.859375 6.410156 L 15.476562 6.410156 C 15.898438 6.410156 16.164062 6.351562 16.320312 6.21875 Z M 16.320312 6.21875 "/>
</svg>
