<?xml version="1.0" encoding="UTF-8"?>
<svg xmlns="http://www.w3.org/2000/svg" xmlns:xlink="http://www.w3.org/1999/xlink" width="28" height="28" viewBox="0 0 28 28">
<defs>
<filter id="filter-remove-color" x="0%" y="0%" width="100%" height="100%">
<feColorMatrix color-interpolation-filters="sRGB" values="0 0 0 0 1 0 0 0 0 1 0 0 0 0 1 0 0 0 1 0" />
</filter>
<mask id="mask-0">
<g filter="url(#filter-remove-color)">
<rect x="-2.8" y="-2.8" width="33.6" height="33.6" fill="rgb(0%, 0%, 0%)" fill-opacity="0.25"/>
</g>
</mask>
<clipPath id="clip-0">
<rect x="0" y="0" width="28" height="28"/>
</clipPath>
<g id="source-8" clip-path="url(#clip-0)">
<path fill-rule="nonzero" fill="rgb(100%, 100%, 100%)" fill-opacity="1" d="M 14.96875 3.65625 C 14.851562 3.832031 14.734375 4.011719 14.574219 4.148438 C 14.050781 4.746094 13.347656 5.1875 12.925781 5.871094 C 12.953125 6.179688 12.867188 7.179688 12.597656 7.355469 C 12.175781 7.667969 11.671875 7.878906 11.328125 8.285156 C 10.3125 9.261719 9.546875 10.175781 9.464844 11.605469 C 9.324219 13.027344 9.523438 14.054688 10.367188 15.234375 C 10.90625 16 11.539062 16.730469 12.378906 17.144531 C 12.726562 17.324219 13.027344 17.871094 12.933594 18.289062 C 12.929688 18.492188 12.796875 18.753906 12.910156 18.929688 C 13.230469 19.070312 13.570312 19.1875 13.832031 19.4375 C 14.367188 19.828125 14.917969 20.441406 14.789062 21.164062 C 14.765625 21.484375 14.410156 21.769531 14.105469 21.5625 C 13.367188 21.25 12.78125 20.671875 12.128906 20.210938 C 10.488281 18.925781 8.894531 17.40625 8.195312 15.390625 C 7.589844 13.769531 7.238281 11.894531 7.933594 10.246094 C 8.277344 9.394531 8.898438 8.699219 9.546875 8.070312 C 9.589844 8.019531 9.707031 7.882812 9.550781 7.933594 C 9.003906 8.0625 8.550781 8.449219 8.109375 8.789062 C 6.703125 9.980469 5.9375 11.828125 5.988281 13.667969 C 5.957031 16.195312 6.980469 18.625 8.46875 20.621094 C 9.140625 21.566406 9.886719 22.503906 10.21875 23.625 C 10.234375 23.683594 10.179688 23.878906 10.289062 23.777344 C 11.09375 23.371094 11.621094 22.589844 12.371094 22.121094 C 12.71875 21.875 13.167969 21.980469 13.5 22.199219 C 13.691406 22.371094 14.007812 22.390625 14.132812 22.617188 C 14.203125 22.949219 13.765625 23.027344 13.550781 23.136719 C 12.660156 23.539062 11.769531 24.25 11.597656 25.261719 C 11.507812 25.691406 11.898438 26.164062 12.34375 26.019531 C 12.824219 25.902344 13.152344 25.335938 12.960938 24.867188 C 12.917969 24.328125 13.4375 24 13.878906 23.839844 C 14.121094 23.675781 14.554688 23.527344 14.722656 23.859375 C 14.9375 24.335938 14.761719 24.875 14.734375 25.375 C 14.675781 25.792969 14.472656 26.171875 14.253906 26.523438 C 14.214844 26.910156 14.558594 27.199219 14.804688 27.445312 C 14.855469 27.480469 14.914062 27.511719 14.96875 27.535156 Z M 13.089844 8.34375 C 13.558594 8.355469 13.714844 8.886719 13.785156 9.265625 C 14.304688 11.359375 14.707031 12.742188 14.066406 14.859375 C 13.921875 15.351562 13.84375 15.925781 13.46875 16.292969 C 13.023438 16.507812 12.589844 16.109375 12.261719 15.847656 C 10.753906 14.601562 9.917969 12.914062 10.550781 11.007812 C 10.953125 9.757812 11.84375 9.070312 12.949219 8.375 C 12.992188 8.355469 13.042969 8.351562 13.089844 8.34375 Z M 13.089844 8.34375 "/>
</g>
<mask id="mask-1">
<g filter="url(#filter-remove-color)">
<rect x="-2.8" y="-2.8" width="33.6" height="33.6" fill="rgb(0%, 0%, 0%)" fill-opacity="0.25"/>
</g>
</mask>
<clipPath id="clip-1">
<rect x="0" y="0" width="28" height="28"/>
</clipPath>
<g id="source-12" clip-path="url(#clip-1)">
<path fill-rule="nonzero" fill="rgb(100%, 100%, 100%)" fill-opacity="1" d="M 14.964844 3.65625 C 15.082031 3.832031 15.195312 4.011719 15.359375 4.148438 C 15.878906 4.746094 16.585938 5.1875 17.007812 5.871094 C 16.980469 6.179688 17.066406 7.179688 17.335938 7.355469 C 17.753906 7.667969 18.261719 7.878906 18.605469 8.285156 C 19.621094 9.261719 20.386719 10.175781 20.46875 11.605469 C 20.605469 13.027344 20.410156 14.054688 19.5625 15.234375 C 19.027344 16 18.394531 16.730469 17.554688 17.144531 C 17.207031 17.324219 16.902344 17.871094 17 18.289062 C 17.003906 18.492188 17.132812 18.753906 17.023438 18.929688 C 16.703125 19.070312 16.363281 19.1875 16.101562 19.4375 C 15.566406 19.828125 15.015625 20.441406 15.144531 21.164062 C 15.167969 21.484375 15.523438 21.769531 15.824219 21.5625 C 16.566406 21.25 17.152344 20.671875 17.804688 20.210938 C 19.445312 18.925781 21.039062 17.40625 21.738281 15.390625 C 22.34375 13.769531 22.695312 11.894531 22 10.246094 C 21.652344 9.394531 21.035156 8.699219 20.386719 8.070312 C 20.34375 8.019531 20.226562 7.882812 20.378906 7.933594 C 20.929688 8.0625 21.382812 8.449219 21.824219 8.789062 C 23.230469 9.980469 23.996094 11.828125 23.945312 13.667969 C 23.976562 16.195312 22.949219 18.625 21.464844 20.621094 C 20.792969 21.566406 20.046875 22.503906 19.714844 23.625 C 19.699219 23.683594 19.753906 23.878906 19.644531 23.777344 C 18.839844 23.371094 18.3125 22.589844 17.5625 22.121094 C 17.214844 21.875 16.765625 21.980469 16.433594 22.199219 C 16.242188 22.371094 15.925781 22.390625 15.796875 22.617188 C 15.730469 22.949219 16.167969 23.027344 16.382812 23.136719 C 17.273438 23.539062 18.164062 24.25 18.335938 25.261719 C 18.421875 25.691406 18.035156 26.164062 17.589844 26.019531 C 17.109375 25.902344 16.78125 25.335938 16.972656 24.867188 C 17.015625 24.328125 16.492188 24 16.050781 23.839844 C 15.8125 23.675781 15.378906 23.527344 15.207031 23.859375 C 14.996094 24.335938 15.171875 24.875 15.199219 25.375 C 15.257812 25.792969 15.460938 26.171875 15.679688 26.523438 C 15.71875 26.910156 15.375 27.199219 15.128906 27.445312 C 15.078125 27.480469 15.019531 27.511719 14.964844 27.535156 Z M 16.84375 8.34375 C 16.375 8.355469 16.21875 8.886719 16.148438 9.265625 C 15.628906 11.359375 15.226562 12.742188 15.863281 14.859375 C 16.011719 15.351562 16.089844 15.925781 16.464844 16.292969 C 16.910156 16.507812 17.34375 16.109375 17.671875 15.847656 C 19.179688 14.601562 20.015625 12.914062 19.382812 11.007812 C 18.980469 9.757812 18.089844 9.070312 16.984375 8.375 C 16.9375 8.355469 16.890625 8.351562 16.84375 8.34375 Z M 16.84375 8.34375 "/>
</g>
</defs>
<path fill-rule="nonzero" fill="rgb(6.666667%, 6.666667%, 6.666667%)" fill-opacity="1" stroke-width="3.408" stroke-linecap="butt" stroke-linejoin="miter" stroke="rgb(93.333333%, 93.333333%, 93.333333%)" stroke-opacity="1" stroke-miterlimit="4" d="M 66.269531 1.780134 C 24.921875 1.780134 1.699219 23.141741 1.699219 66.835938 L 1.699219 516.967076 C 1.699219 557.748326 22.575335 579.190848 63.922991 579.190848 L 515.915179 579.190848 C 557.262835 579.190848 578.138951 558.881138 578.138951 516.967076 L 578.138951 66.835938 C 578.138951 24.193638 557.262835 1.780134 514.620536 1.780134 C 514.620536 1.780134 66.107701 1.618304 66.269531 1.780134 Z M 66.269531 1.780134 " transform="matrix(0.0482759, 0, 0, 0.0482759, 0, 0)"/>
<path fill-rule="nonzero" fill="rgb(100%, 100%, 100%)" fill-opacity="1" d="M 12.957031 1.671875 C 12.40625 2.535156 11.429688 3.039062 10.894531 3.917969 C 10.898438 4.390625 10.894531 4.917969 10.636719 5.324219 C 10.148438 5.671875 9.589844 5.945312 9.199219 6.410156 C 8.316406 7.238281 7.527344 8.289062 7.445312 9.535156 C 7.308594 10.667969 7.421875 11.863281 8.027344 12.851562 C 8.648438 13.851562 9.414062 14.820312 10.488281 15.351562 C 10.894531 15.648438 11.007812 16.207031 10.851562 16.671875 C 10.785156 16.898438 10.886719 17.152344 11.152344 17.175781 C 11.742188 17.421875 12.269531 17.851562 12.609375 18.402344 C 12.789062 18.738281 12.902344 19.246094 12.589844 19.535156 C 12.316406 19.734375 12.027344 19.414062 11.78125 19.320312 C 11.019531 18.828125 10.324219 18.246094 9.613281 17.679688 C 8.148438 16.472656 6.519531 14.878906 5.957031 13.027344 C 5.390625 11.414062 5.230469 9.335938 6.039062 7.757812 C 6.402344 6.996094 7.011719 6.417969 7.578125 5.804688 C 7.675781 5.652344 7.476562 5.550781 7.351562 5.632812 C 6.65625 5.847656 6.089844 6.34375 5.566406 6.824219 C 4.273438 8.113281 3.554688 10.179688 3.671875 11.996094 C 3.738281 14.546875 5.140625 17.046875 6.671875 19.039062 C 7.269531 19.882812 7.929688 20.742188 8.191406 21.757812 C 8.136719 21.953125 8.359375 22.035156 8.476562 21.890625 C 9.320312 21.453125 9.84375 20.566406 10.710938 20.167969 C 11.089844 20.0625 11.425781 20.300781 11.734375 20.484375 C 11.882812 20.539062 12.25 20.679688 12.058594 20.882812 C 11.675781 21.117188 11.226562 21.234375 10.867188 21.511719 C 10.1875 21.964844 9.5625 22.691406 9.5625 23.546875 C 9.597656 24 10.109375 24.359375 10.535156 24.148438 C 11.035156 23.972656 11.308594 23.363281 11.125 22.871094 C 11.136719 22.363281 11.671875 22.125 12.070312 21.945312 C 12.273438 21.808594 12.667969 21.734375 12.738281 22.054688 C 12.886719 22.566406 12.722656 23.101562 12.671875 23.613281 C 12.601562 23.984375 12.351562 24.289062 12.222656 24.628906 C 12.222656 25.066406 12.589844 25.40625 12.910156 25.648438 C 13.234375 25.910156 13.117188 25.476562 13.132812 25.265625 C 13.132812 17.3125 13.132812 9.359375 13.132812 1.40625 C 13.074219 1.492188 13.015625 1.582031 12.957031 1.671875 Z M 11.171875 6.707031 C 11.59375 6.738281 11.699219 7.257812 11.773438 7.597656 C 12.171875 9.15625 12.597656 10.589844 12.222656 12.195312 C 12.0625 12.804688 11.949219 13.242188 11.683594 13.816406 C 11.59375 14.050781 11.359375 14.207031 11.105469 14.109375 C 10.5 13.851562 10.230469 13.445312 9.792969 12.976562 C 8.917969 12.003906 8.457031 10.695312 8.816406 9.40625 C 9.054688 8.316406 9.648438 7.644531 10.558594 7.054688 C 10.761719 6.949219 10.9375 6.726562 11.171875 6.707031 Z M 11.171875 6.707031 "/>
<g mask="url(#mask-0)">
<use xlink:href="#source-8"/>
</g>
<g mask="url(#mask-1)">
<use xlink:href="#source-12"/>
</g>
<path fill-rule="nonzero" fill="rgb(100%, 100%, 100%)" fill-opacity="1" d="M 13.210938 1.671875 C 13.761719 2.535156 14.738281 3.039062 15.273438 3.917969 C 15.269531 4.390625 15.273438 4.917969 15.53125 5.324219 C 16.019531 5.671875 16.578125 5.945312 16.96875 6.410156 C 17.851562 7.238281 18.640625 8.289062 18.722656 9.535156 C 18.859375 10.667969 18.746094 11.863281 18.140625 12.851562 C 17.519531 13.851562 16.753906 14.820312 15.679688 15.351562 C 15.273438 15.648438 15.15625 16.207031 15.3125 16.671875 C 15.378906 16.898438 15.28125 17.152344 15.015625 17.175781 C 14.425781 17.421875 13.894531 17.851562 13.558594 18.402344 C 13.378906 18.738281 13.265625 19.246094 13.578125 19.535156 C 13.851562 19.734375 14.140625 19.414062 14.386719 19.320312 C 15.148438 18.828125 15.84375 18.246094 16.554688 17.679688 C 18.015625 16.472656 19.648438 14.878906 20.210938 13.027344 C 20.777344 11.414062 20.9375 9.335938 20.128906 7.757812 C 19.765625 6.996094 19.15625 6.417969 18.589844 5.804688 C 18.492188 5.652344 18.691406 5.550781 18.816406 5.632812 C 19.511719 5.847656 20.078125 6.34375 20.601562 6.824219 C 21.894531 8.113281 22.613281 10.179688 22.492188 11.996094 C 22.429688 14.546875 21.027344 17.046875 19.496094 19.039062 C 18.898438 19.882812 18.238281 20.742188 17.972656 21.757812 C 18.03125 21.953125 17.808594 22.035156 17.691406 21.890625 C 16.84375 21.453125 16.324219 20.566406 15.457031 20.167969 C 15.078125 20.0625 14.738281 20.300781 14.433594 20.484375 C 14.285156 20.539062 13.917969 20.679688 14.109375 20.882812 C 14.492188 21.117188 14.941406 21.234375 15.300781 21.511719 C 15.980469 21.964844 16.605469 22.691406 16.605469 23.546875 C 16.570312 24 16.058594 24.359375 15.632812 24.148438 C 15.132812 23.972656 14.859375 23.363281 15.042969 22.871094 C 15.03125 22.363281 14.492188 22.125 14.097656 21.945312 C 13.894531 21.808594 13.5 21.734375 13.429688 22.054688 C 13.28125 22.566406 13.445312 23.101562 13.496094 23.613281 C 13.566406 23.984375 13.816406 24.289062 13.941406 24.628906 C 13.945312 25.066406 13.578125 25.40625 13.257812 25.648438 C 12.933594 25.910156 13.050781 25.476562 13.035156 25.265625 C 13.035156 17.3125 13.035156 9.359375 13.035156 1.40625 C 13.09375 1.492188 13.152344 1.582031 13.210938 1.671875 Z M 14.996094 6.707031 C 14.570312 6.738281 14.464844 7.257812 14.394531 7.597656 C 13.996094 9.15625 13.570312 10.589844 13.941406 12.195312 C 14.105469 12.804688 14.21875 13.242188 14.484375 13.816406 C 14.574219 14.050781 14.808594 14.207031 15.0625 14.109375 C 15.664062 13.851562 15.933594 13.445312 16.375 12.976562 C 17.25 12.003906 17.710938 10.695312 17.351562 9.40625 C 17.113281 8.316406 16.519531 7.644531 15.609375 7.054688 C 15.40625 6.949219 15.230469 6.726562 14.996094 6.707031 Z M 14.996094 6.707031 "/>
</svg>
