<?xml version="1.0" encoding="UTF-8"?>
<svg xmlns="http://www.w3.org/2000/svg" xmlns:xlink="http://www.w3.org/1999/xlink" width="28" height="28" viewBox="0 0 28 28">
<defs>
<filter id="filter-remove-color" x="0%" y="0%" width="100%" height="100%">
<feColorMatrix color-interpolation-filters="sRGB" values="0 0 0 0 1 0 0 0 0 1 0 0 0 0 1 0 0 0 1 0" />
</filter>
<mask id="mask-0">
<g filter="url(#filter-remove-color)">
<rect x="-2.8" y="-2.8" width="33.6" height="33.6" fill="rgb(0%, 0%, 0%)" fill-opacity="0.25"/>
</g>
</mask>
<clipPath id="clip-0">
<rect x="0" y="0" width="28" height="28"/>
</clipPath>
<g id="source-7" clip-path="url(#clip-0)">
<path fill-rule="nonzero" fill="rgb(100%, 100%, 100%)" fill-opacity="1" stroke-width="20.135939" stroke-linecap="round" stroke-linejoin="round" stroke="rgb(100%, 100%, 100%)" stroke-opacity="1" stroke-miterlimit="4" d="M 207.061942 373.018973 L 376.012835 373.018973 L 376.012835 541.888951 L 207.061942 541.888951 Z M 207.061942 373.018973 " transform="matrix(0.0482759, 0, 0, 0.0482759, 0, 0)"/>
</g>
</defs>
<path fill-rule="nonzero" fill="rgb(6.666667%, 6.666667%, 6.666667%)" fill-opacity="1" stroke-width="3.408" stroke-linecap="butt" stroke-linejoin="miter" stroke="rgb(93.333333%, 93.333333%, 93.333333%)" stroke-opacity="1" stroke-miterlimit="4" d="M 66.269531 1.780134 C 24.921875 1.780134 1.699219 23.141741 1.699219 66.835938 L 1.699219 516.967076 C 1.699219 557.748326 22.575335 579.190848 63.922991 579.190848 L 515.915179 579.190848 C 557.262835 579.190848 578.138951 558.881138 578.138951 516.967076 L 578.138951 66.835938 C 578.138951 24.193638 557.262835 1.780134 514.620536 1.780134 C 514.620536 1.780134 66.107701 1.618304 66.269531 1.780134 Z M 66.269531 1.780134 " transform="matrix(0.0482759, 0, 0, 0.0482759, 0, 0)"/>
<g mask="url(#mask-0)">
<use xlink:href="#source-7"/>
</g>
<path fill="none" stroke-width="20.135939" stroke-linecap="round" stroke-linejoin="round" stroke="rgb(100%, 100%, 100%)" stroke-opacity="1" stroke-miterlimit="4" d="M 207.061942 373.018973 L 376.012835 373.018973 L 376.012835 541.888951 L 207.061942 541.888951 Z M 207.061942 373.018973 " transform="matrix(0.0482759, 0, 0, 0.0482759, 0, 0)"/>
<path fill-rule="nonzero" fill="rgb(100%, 100%, 100%)" fill-opacity="1" d="M 13.453125 16.855469 C 13.136719 16.449219 13.121094 16.296875 13.371094 15.96875 C 13.546875 15.738281 13.652344 14.640625 13.496094 14.640625 C 13.457031 14.640625 13.265625 14.722656 13.070312 14.824219 C 12.78125 14.972656 12.722656 15.074219 12.773438 15.339844 C 12.886719 15.941406 12.101562 16.429688 11.683594 16.011719 C 11.234375 15.5625 11.710938 14.558594 12.585938 14.113281 L 13.109375 13.847656 L 12.757812 13.664062 C 12.421875 13.484375 12.390625 13.5 11.707031 14.125 C 10.992188 14.777344 10.640625 14.925781 10.640625 14.570312 C 10.640625 14.273438 10.296875 13.652344 9.625 12.730469 C 8.449219 11.125 7.933594 9.714844 7.929688 8.089844 C 7.921875 6.601562 8.507812 5.414062 9.65625 4.582031 C 10.503906 3.96875 11.027344 4.1875 10.3125 4.855469 C 9.398438 5.707031 9.101562 6.816406 9.417969 8.179688 C 9.703125 9.398438 10.074219 10.113281 10.882812 10.984375 C 11.535156 11.6875 13.207031 12.984375 13.460938 12.984375 C 13.519531 12.984375 13.566406 12.847656 13.566406 12.679688 C 13.566406 12.355469 13.011719 11.796875 12.539062 11.648438 C 12.316406 11.578125 12.285156 11.492188 12.347656 11.160156 C 12.414062 10.792969 12.378906 10.730469 11.964844 10.507812 C 11.410156 10.207031 10.742188 9.421875 10.394531 8.652344 C 10.039062 7.867188 10.039062 6.273438 10.394531 5.488281 C 10.742188 4.71875 11.410156 3.933594 11.960938 3.636719 C 12.285156 3.460938 12.402344 3.324219 12.355469 3.175781 C 12.308594 3.035156 12.492188 2.78125 12.910156 2.410156 C 13.253906 2.105469 13.632812 1.699219 13.753906 1.507812 C 14.050781 1.039062 14.210938 1.066406 14.648438 1.640625 C 14.847656 1.910156 15.234375 2.292969 15.503906 2.5 C 15.839844 2.75 15.980469 2.941406 15.9375 3.097656 C 15.902344 3.234375 15.980469 3.375 16.140625 3.460938 C 16.675781 3.746094 17.542969 4.664062 17.871094 5.285156 C 18.164062 5.839844 18.207031 6.078125 18.207031 7.070312 C 18.207031 8.0625 18.164062 8.300781 17.871094 8.855469 C 17.542969 9.480469 16.671875 10.394531 16.132812 10.683594 C 15.921875 10.796875 15.878906 10.90625 15.9375 11.195312 C 15.996094 11.492188 15.960938 11.578125 15.742188 11.644531 C 15.269531 11.796875 14.710938 12.355469 14.710938 12.679688 C 14.710938 12.847656 14.761719 12.984375 14.816406 12.984375 C 15.011719 12.984375 16.421875 11.953125 17.042969 11.351562 C 18.328125 10.117188 18.929688 8.824219 18.957031 7.261719 C 18.972656 6.441406 18.925781 6.226562 18.636719 5.734375 C 18.449219 5.421875 18.148438 5.023438 17.96875 4.855469 C 17.261719 4.195312 17.773438 3.96875 18.609375 4.570312 C 19.859375 5.480469 20.351562 6.464844 20.359375 8.089844 C 20.367188 9.84375 19.863281 11.175781 18.503906 12.972656 C 18.167969 13.421875 17.824219 14.007812 17.742188 14.277344 C 17.664062 14.546875 17.523438 14.765625 17.4375 14.765625 C 17.347656 14.765625 16.960938 14.476562 16.574219 14.125 C 15.890625 13.5 15.859375 13.484375 15.519531 13.664062 L 15.171875 13.847656 L 15.691406 14.113281 C 15.980469 14.257812 16.335938 14.53125 16.480469 14.714844 C 16.773438 15.089844 16.832031 15.773438 16.59375 16.011719 C 16.179688 16.429688 15.390625 15.941406 15.507812 15.339844 C 15.558594 15.074219 15.5 14.972656 15.210938 14.824219 C 15.011719 14.722656 14.820312 14.640625 14.78125 14.640625 C 14.625 14.640625 14.726562 15.550781 14.925781 15.972656 C 15.132812 16.40625 15.132812 16.4375 14.882812 16.769531 C 14.507812 17.277344 13.820312 17.316406 13.453125 16.855469 Z M 13.117188 8.855469 C 13.367188 7.898438 13.367188 6.996094 13.117188 5.789062 C 12.785156 4.1875 12.8125 4.214844 12.179688 4.785156 C 11.027344 5.828125 10.761719 7.230469 11.46875 8.515625 C 11.835938 9.1875 12.640625 9.894531 12.824219 9.707031 C 12.875 9.65625 13.007812 9.273438 13.117188 8.855469 Z M 16.214844 9.246094 C 16.914062 8.484375 17.257812 7.773438 17.257812 7.070312 C 17.257812 6.097656 16.609375 4.917969 15.863281 4.53125 L 15.5 4.34375 L 15.292969 5.261719 C 14.941406 6.804688 14.914062 7.519531 15.15625 8.613281 C 15.476562 10.058594 15.46875 10.054688 16.214844 9.246094 Z M 16.214844 9.246094 "/>
</svg>
