<?xml version="1.0" encoding="UTF-8"?>
<svg xmlns="http://www.w3.org/2000/svg" xmlns:xlink="http://www.w3.org/1999/xlink" width="28" height="28" viewBox="0 0 28 28">
<defs>
<filter id="filter-remove-color" x="0%" y="0%" width="100%" height="100%">
<feColorMatrix color-interpolation-filters="sRGB" values="0 0 0 0 1 0 0 0 0 1 0 0 0 0 1 0 0 0 1 0" />
</filter>
<mask id="mask-0">
<g filter="url(#filter-remove-color)">
<rect x="-2.8" y="-2.8" width="33.6" height="33.6" fill="rgb(0%, 0%, 0%)" fill-opacity="0.25"/>
</g>
</mask>
<mask id="mask-1">
<g filter="url(#filter-remove-color)">
<rect x="-6.16" y="-6.16" width="40.32" height="40.32" fill="rgb(0%, 0%, 0%)" fill-opacity="0.25"/>
</g>
</mask>
<clipPath id="clip-0">
<rect x="0" y="0" width="28" height="28"/>
</clipPath>
<g id="source-8" clip-path="url(#clip-0)">
<path fill-rule="nonzero" fill="rgb(100%, 100%, 100%)" fill-opacity="1" stroke-width="35.170967" stroke-linecap="round" stroke-linejoin="round" stroke="rgb(100%, 100%, 100%)" stroke-opacity="1" stroke-miterlimit="4" d="M 143.981585 145.923549 L 439.079241 145.923549 L 439.079241 441.021205 L 143.981585 441.021205 Z M 143.981585 145.923549 " transform="matrix(0.0482759, 0, 0, 0.0482759, 0.482759, 0.482759)"/>
</g>
<clipPath id="clip-1">
<rect x="0" y="0" width="28" height="28"/>
</clipPath>
<g id="source-11" clip-path="url(#clip-1)">
<g mask="url(#mask-1)">
<use xlink:href="#source-8"/>
</g>
<path fill="none" stroke-width="35.170967" stroke-linecap="round" stroke-linejoin="round" stroke="rgb(100%, 100%, 100%)" stroke-opacity="1" stroke-miterlimit="4" d="M 143.981585 145.923549 L 439.079241 145.923549 L 439.079241 441.021205 L 143.981585 441.021205 Z M 143.981585 145.923549 " transform="matrix(0.0482759, 0, 0, 0.0482759, 0.482759, 0.482759)"/>
</g>
<mask id="mask-2">
<g filter="url(#filter-remove-color)">
<rect x="-2.8" y="-2.8" width="33.6" height="33.6" fill="rgb(0%, 0%, 0%)" fill-opacity="0.25"/>
</g>
</mask>
<clipPath id="clip-2">
<rect x="0" y="0" width="28" height="28"/>
</clipPath>
<g id="source-15" clip-path="url(#clip-2)">
<path fill-rule="nonzero" fill="rgb(100%, 100%, 100%)" fill-opacity="1" stroke-width="35.170967" stroke-linecap="round" stroke-linejoin="round" stroke="rgb(100%, 100%, 100%)" stroke-opacity="1" stroke-miterlimit="4" d="M 143.995536 145.9375 L 439.012277 145.9375 L 439.012277 440.954241 L 143.995536 440.954241 Z M 143.995536 145.9375 " transform="matrix(0.0482759, 0, 0, 0.0482759, -0.482759, -0.482759)"/>
</g>
</defs>
<path fill-rule="nonzero" fill="rgb(6.666667%, 6.666667%, 6.666667%)" fill-opacity="1" stroke-width="3.408" stroke-linecap="butt" stroke-linejoin="miter" stroke="rgb(93.333333%, 93.333333%, 93.333333%)" stroke-opacity="1" stroke-miterlimit="4" d="M 66.269531 1.780134 C 24.921875 1.780134 1.699219 23.141741 1.699219 66.835938 L 1.699219 516.967076 C 1.699219 557.748326 22.575335 579.190848 63.922991 579.190848 L 515.915179 579.190848 C 557.262835 579.190848 578.138951 558.881138 578.138951 516.967076 L 578.138951 66.835938 C 578.138951 24.193638 557.262835 1.780134 514.620536 1.780134 C 514.620536 1.780134 66.107701 1.618304 66.269531 1.780134 Z M 66.269531 1.780134 " transform="matrix(0.0482759, 0, 0, 0.0482759, 0, 0)"/>
<g mask="url(#mask-0)">
<use xlink:href="#source-11"/>
</g>
<g mask="url(#mask-2)">
<use xlink:href="#source-15"/>
</g>
<path fill="none" stroke-width="35.170967" stroke-linecap="round" stroke-linejoin="round" stroke="rgb(100%, 100%, 100%)" stroke-opacity="1" stroke-miterlimit="4" d="M 143.995536 145.9375 L 439.012277 145.9375 L 439.012277 440.954241 L 143.995536 440.954241 Z M 143.995536 145.9375 " transform="matrix(0.0482759, 0, 0, 0.0482759, -0.482759, -0.482759)"/>
</svg>
