<?xml version="1.0" encoding="UTF-8"?>
<svg xmlns="http://www.w3.org/2000/svg" xmlns:xlink="http://www.w3.org/1999/xlink" width="28" height="28" viewBox="0 0 28 28">
<defs>
<filter id="filter-remove-color" x="0%" y="0%" width="100%" height="100%">
<feColorMatrix color-interpolation-filters="sRGB" values="0 0 0 0 1 0 0 0 0 1 0 0 0 0 1 0 0 0 1 0" />
</filter>
<mask id="mask-0">
<g filter="url(#filter-remove-color)">
<rect x="-2.8" y="-2.8" width="33.6" height="33.6" fill="rgb(0%, 0%, 0%)" fill-opacity="0.75"/>
</g>
</mask>
<clipPath id="clip-0">
<rect x="0" y="0" width="28" height="28"/>
</clipPath>
<g id="source-7" clip-path="url(#clip-0)">
<path fill-rule="nonzero" fill="rgb(100%, 100%, 100%)" fill-opacity="1" d="M 13.945312 2.246094 C 13.648438 2.25 13.382812 2.433594 13.269531 2.707031 L 11.359375 7.230469 L 12.972656 7.230469 L 14.03125 4.726562 L 15.09375 7.230469 L 16.707031 7.230469 L 14.789062 2.707031 C 14.664062 2.402344 14.355469 2.214844 14.027344 2.25 C 14 2.246094 13.972656 2.246094 13.945312 2.246094 Z M 6.179688 20.460938 L 4.601562 24.273438 C 4.488281 24.519531 4.519531 24.808594 4.683594 25.027344 C 4.847656 25.246094 5.113281 25.355469 5.382812 25.316406 C 5.652344 25.277344 5.878906 25.097656 5.972656 24.839844 L 7.785156 20.460938 Z M 20.179688 20.460938 L 20.472656 20.9375 L 22.085938 24.839844 C 22.242188 25.21875 22.675781 25.402344 23.054688 25.246094 C 23.433594 25.085938 23.617188 24.652344 23.460938 24.273438 L 21.882812 20.460938 Z M 20.179688 20.460938 "/>
</g>
</defs>
<path fill-rule="nonzero" fill="rgb(6.666667%, 6.666667%, 6.666667%)" fill-opacity="1" stroke-width="3.408" stroke-linecap="butt" stroke-linejoin="miter" stroke="rgb(93.333333%, 93.333333%, 93.333333%)" stroke-opacity="1" stroke-miterlimit="4" d="M 66.269531 1.780134 C 24.921875 1.780134 1.699219 23.141741 1.699219 66.835938 L 1.699219 516.967076 C 1.699219 557.748326 22.575335 579.190848 63.922991 579.190848 L 515.915179 579.190848 C 557.262835 579.190848 578.138951 558.881138 578.138951 516.967076 L 578.138951 66.835938 C 578.138951 24.193638 557.262835 1.780134 514.620536 1.780134 C 514.620536 1.780134 66.107701 1.618304 66.269531 1.780134 Z M 66.269531 1.780134 " transform="matrix(0.0482759, 0, 0, 0.0482759, 0, 0)"/>
<g mask="url(#mask-0)">
<use xlink:href="#source-7"/>
</g>
<path fill-rule="nonzero" fill="rgb(100%, 100%, 100%)" fill-opacity="1" d="M 3.460938 7.382812 L 3.703125 20.449219 L 24.707031 20.230469 L 24.59375 7.304688 Z M 18.835938 9.332031 C 18.890625 9.332031 18.945312 9.332031 19 9.335938 C 19.382812 9.328125 19.773438 9.347656 20.144531 9.398438 C 21.890625 9.636719 23.40625 11.09375 23.613281 12.855469 C 23.863281 14.238281 23.417969 15.808594 22.175781 16.59375 L 23.945312 16.59375 L 23.945312 18.316406 L 19.898438 18.316406 L 19.898438 16.46875 C 21.257812 15.585938 21.671875 13.660156 21.015625 12.21875 C 20.5625 10.90625 18.671875 10.574219 17.710938 11.515625 C 16.449219 12.917969 16.769531 15.445312 18.363281 16.46875 L 18.363281 18.316406 L 14.992188 18.316406 C 14.363281 18.46875 14.203125 18.160156 14.316406 17.574219 C 14.378906 17.167969 14.070312 16.386719 14.75 16.59375 C 15.15625 16.574219 15.753906 16.628906 16.039062 16.566406 C 14.597656 15.617188 14.28125 13.625 14.839844 12.089844 C 15.363281 10.390625 17.109375 9.339844 18.835938 9.332031 Z M 4.386719 9.492188 L 6.65625 9.492188 C 6.65625 10.214844 6.652344 10.933594 6.65625 11.65625 C 6.601562 12.6875 6.816406 13.832031 7.703125 14.472656 C 7.730469 12.8125 7.714844 11.152344 7.71875 9.492188 L 9.988281 9.492188 L 9.988281 14.480469 C 10.3125 14.222656 10.578125 13.910156 10.757812 13.539062 C 11.269531 12.261719 10.984375 10.835938 11.054688 9.492188 L 13.320312 9.492188 C 13.277344 10.878906 13.484375 12.300781 13.089844 13.652344 C 12.660156 15.015625 11.507812 16.359375 9.996094 16.496094 C 9.984375 17.101562 9.988281 17.707031 9.988281 18.316406 L 7.71875 18.316406 L 7.71875 16.496094 C 6.683594 16.429688 5.832031 15.71875 5.246094 14.917969 C 4.109375 13.410156 4.425781 11.414062 4.390625 9.652344 C 4.390625 9.597656 4.386719 9.546875 4.386719 9.492188 Z M 4.386719 9.492188 "/>
<path fill="none" stroke-width="20.524557" stroke-linecap="round" stroke-linejoin="round" stroke="rgb(100%, 100%, 100%)" stroke-opacity="1" stroke-miterlimit="4" d="M 73.228237 149.854911 L 510.979353 149.854911 L 510.979353 423.833705 L 73.228237 423.833705 Z M 73.228237 149.854911 " transform="matrix(0.0482759, 0, 0, 0.0482759, 0, 0)"/>
</svg>
