<?xml version="1.0" encoding="UTF-8"?>
<svg xmlns="http://www.w3.org/2000/svg" xmlns:xlink="http://www.w3.org/1999/xlink" width="28" height="28" viewBox="0 0 28 28">
<defs>
<filter id="filter-remove-color" x="0%" y="0%" width="100%" height="100%">
<feColorMatrix color-interpolation-filters="sRGB" values="0 0 0 0 1 0 0 0 0 1 0 0 0 0 1 0 0 0 1 0" />
</filter>
<mask id="mask-0">
<g filter="url(#filter-remove-color)">
<rect x="-2.8" y="-2.8" width="33.6" height="33.6" fill="rgb(0%, 0%, 0%)" fill-opacity="0.75"/>
</g>
</mask>
<clipPath id="clip-0">
<rect x="0" y="0" width="28" height="28"/>
</clipPath>
<g id="source-7" clip-path="url(#clip-0)">
<path fill-rule="nonzero" fill="rgb(100%, 100%, 100%)" fill-opacity="1" d="M 13.945312 2.246094 C 13.648438 2.25 13.382812 2.433594 13.269531 2.707031 L 11.359375 7.230469 L 12.972656 7.230469 L 14.03125 4.726562 L 15.09375 7.230469 L 16.707031 7.230469 L 14.789062 2.707031 C 14.664062 2.402344 14.355469 2.214844 14.027344 2.25 C 14 2.246094 13.972656 2.246094 13.945312 2.246094 Z M 6.179688 20.460938 L 4.601562 24.273438 C 4.488281 24.519531 4.519531 24.808594 4.683594 25.027344 C 4.847656 25.246094 5.113281 25.355469 5.382812 25.316406 C 5.652344 25.277344 5.878906 25.097656 5.972656 24.839844 L 7.785156 20.460938 Z M 20.179688 20.460938 L 20.472656 20.9375 L 22.085938 24.839844 C 22.242188 25.21875 22.675781 25.402344 23.054688 25.246094 C 23.433594 25.085938 23.617188 24.652344 23.460938 24.273438 L 21.882812 20.460938 Z M 20.179688 20.460938 "/>
</g>
</defs>
<path fill-rule="nonzero" fill="rgb(6.666667%, 6.666667%, 6.666667%)" fill-opacity="1" stroke-width="3.408" stroke-linecap="butt" stroke-linejoin="miter" stroke="rgb(93.333333%, 93.333333%, 93.333333%)" stroke-opacity="1" stroke-miterlimit="4" d="M 66.269531 1.780134 C 24.921875 1.780134 1.699219 23.141741 1.699219 66.835938 L 1.699219 516.967076 C 1.699219 557.748326 22.575335 579.190848 63.922991 579.190848 L 515.915179 579.190848 C 557.262835 579.190848 578.138951 558.881138 578.138951 516.967076 L 578.138951 66.835938 C 578.138951 24.193638 557.262835 1.780134 514.620536 1.780134 C 514.620536 1.780134 66.107701 1.618304 66.269531 1.780134 Z M 66.269531 1.780134 " transform="matrix(0.0482759, 0, 0, 0.0482759, 0, 0)"/>
<g mask="url(#mask-0)">
<use xlink:href="#source-7"/>
</g>
<path fill-rule="nonzero" fill="rgb(100%, 100%, 100%)" fill-opacity="1" d="M 3.648438 7.363281 L 3.648438 20.328125 L 24.363281 20.328125 L 24.363281 7.363281 Z M 8.140625 10.613281 C 8.222656 10.617188 8.300781 10.664062 8.34375 10.734375 L 9.101562 11.984375 L 9.113281 12 C 9.34375 12.320312 9.476562 12.65625 9.65625 12.851562 C 13.992188 12.808594 18.328125 12.765625 22.664062 12.726562 C 22.667969 12.726562 22.671875 12.726562 22.675781 12.726562 C 23.496094 12.683594 24.132812 13.417969 24.113281 14.195312 C 24.113281 14.199219 24.113281 14.203125 24.113281 14.207031 C 24.113281 14.210938 24.113281 14.214844 24.113281 14.21875 C 24.140625 14.996094 23.503906 15.691406 22.710938 15.691406 C 22.707031 15.691406 22.703125 15.691406 22.699219 15.691406 C 19.554688 15.566406 16.414062 15.382812 13.277344 15.238281 C 13.273438 15.238281 13.273438 15.238281 13.273438 15.238281 C 12.054688 15.191406 10.832031 15.09375 9.636719 15.078125 C 9.148438 15.695312 8.707031 16.386719 8.21875 17.050781 C 8.164062 17.125 8.0625 17.164062 7.972656 17.148438 L 4.414062 16.433594 C 4.300781 16.414062 4.214844 16.304688 4.21875 16.191406 L 4.234375 15.175781 C 4.238281 15.046875 4.355469 14.933594 4.480469 14.933594 C 5.3125 14.9375 6.144531 14.984375 6.941406 14.960938 C 7.148438 14.648438 7.34375 14.3125 7.503906 13.984375 C 7.355469 13.644531 7.167969 13.304688 6.972656 12.984375 C 6.152344 12.933594 5.304688 12.953125 4.453125 12.925781 C 4.324219 12.921875 4.214844 12.804688 4.214844 12.675781 L 4.234375 11.566406 C 4.234375 11.453125 4.324219 11.351562 4.433594 11.328125 L 8.085938 10.621094 C 8.105469 10.617188 8.121094 10.613281 8.140625 10.613281 Z M 22.730469 13.746094 C 22.722656 13.746094 22.710938 13.746094 22.699219 13.746094 C 22.691406 13.746094 22.6875 13.75 22.679688 13.75 C 22.378906 13.75 22.148438 14.089844 22.25 14.371094 C 22.25 14.375 22.253906 14.378906 22.253906 14.386719 C 22.351562 14.722656 22.894531 14.796875 23.082031 14.5 C 23.085938 14.492188 23.089844 14.488281 23.09375 14.480469 C 23.304688 14.214844 23.0625 13.75 22.730469 13.746094 Z M 22.730469 13.746094 "/>
<path fill="none" stroke-width="20.524557" stroke-linecap="round" stroke-linejoin="round" stroke="rgb(100%, 100%, 100%)" stroke-opacity="1" stroke-miterlimit="4" d="M 73.228237 149.854911 L 510.979353 149.854911 L 510.979353 423.833705 L 73.228237 423.833705 Z M 73.228237 149.854911 " transform="matrix(0.0482759, 0, 0, 0.0482759, 0, 0)"/>
</svg>
