<?xml version="1.0" encoding="UTF-8"?>
<svg xmlns="http://www.w3.org/2000/svg" xmlns:xlink="http://www.w3.org/1999/xlink" width="28" height="28" viewBox="0 0 28 28">
<path fill-rule="nonzero" fill="rgb(6.666667%, 6.666667%, 6.666667%)" fill-opacity="1" stroke-width="3.408" stroke-linecap="butt" stroke-linejoin="miter" stroke="rgb(93.333333%, 93.333333%, 93.333333%)" stroke-opacity="1" stroke-miterlimit="4" d="M 66.269531 1.780134 C 24.921875 1.780134 1.699219 23.141741 1.699219 66.835938 L 1.699219 516.967076 C 1.699219 557.748326 22.575335 579.190848 63.922991 579.190848 L 515.915179 579.190848 C 557.262835 579.190848 578.138951 558.800223 578.138951 516.967076 L 578.138951 66.835938 C 578.138951 24.193638 557.262835 1.780134 514.620536 1.780134 C 514.620536 1.780134 66.107701 1.618304 66.269531 1.780134 Z M 66.269531 1.780134 " transform="matrix(0.0482759, 0, 0, 0.0482759, 0, 0)"/>
<path fill-rule="nonzero" fill="rgb(100%, 100%, 100%)" fill-opacity="1" d="M 13.683594 8.632812 C 15.617188 8.632812 17.1875 7.0625 17.1875 5.128906 C 17.1875 3.195312 15.617188 1.625 13.683594 1.625 C 11.75 1.625 10.179688 3.195312 10.179688 5.128906 C 10.179688 7.0625 11.75 8.632812 13.683594 8.632812 Z M 13.683594 8.632812 "/>
<path fill-rule="nonzero" fill="rgb(100%, 100%, 100%)" fill-opacity="1" d="M 13.679688 15.953125 L 9.976562 15.953125 L 9.976562 13.28125 L 7.144531 16.132812 C 5.863281 17.410156 4.128906 15.769531 5.410156 14.488281 L 10.101562 9.789062 C 10.480469 9.414062 10.898438 9.171875 11.558594 9.171875 L 15.761719 9.171875 C 16.421875 9.171875 16.867188 9.40625 17.257812 9.789062 L 21.996094 14.535156 C 23.214844 15.753906 21.433594 17.410156 20.265625 16.179688 L 17.359375 13.265625 L 17.359375 15.953125 Z M 13.679688 15.953125 "/>
<path fill-rule="nonzero" fill="rgb(100%, 100%, 100%)" fill-opacity="1" d="M 17.34375 17.339844 L 14.558594 20.125 L 16.605469 22.164062 L 14.511719 24.257812 C 13.273438 25.492188 14.980469 27.261719 16.257812 25.984375 L 19.566406 22.539062 C 20.277344 21.816406 20.476562 20.476562 19.714844 19.714844 C 19.710938 19.710938 17.34375 17.339844 17.34375 17.339844 Z M 17.34375 17.339844 "/>
<path fill-rule="nonzero" fill="rgb(100%, 100%, 100%)" fill-opacity="1" d="M 9.976562 17.339844 L 12.757812 20.125 L 10.714844 22.164062 L 12.808594 24.257812 C 14.042969 25.492188 12.339844 27.261719 11.0625 25.984375 L 7.75 22.539062 C 7.039062 21.816406 6.84375 20.476562 7.605469 19.714844 C 7.609375 19.710938 9.976562 17.339844 9.976562 17.339844 Z M 9.976562 17.339844 "/>
</svg>
