<?xml version="1.0" encoding="UTF-8"?>
<svg xmlns="http://www.w3.org/2000/svg" xmlns:xlink="http://www.w3.org/1999/xlink" width="28" height="28" viewBox="0 0 28 28">
<defs>
<filter id="filter-remove-color" x="0%" y="0%" width="100%" height="100%">
<feColorMatrix color-interpolation-filters="sRGB" values="0 0 0 0 1 0 0 0 0 1 0 0 0 0 1 0 0 0 1 0" />
</filter>
<mask id="mask-0">
<g filter="url(#filter-remove-color)">
<rect x="-2.8" y="-2.8" width="33.6" height="33.6" fill="rgb(0%, 0%, 0%)" fill-opacity="0.9"/>
</g>
</mask>
<clipPath id="clip-0">
<rect x="0" y="0" width="28" height="28"/>
</clipPath>
<g id="source-10" clip-path="url(#clip-0)">
<path fill-rule="nonzero" fill="rgb(100%, 100%, 100%)" fill-opacity="1" d="M 3.324219 6.53125 C 3.121094 6.527344 2.917969 6.609375 2.777344 6.757812 C 2.636719 6.902344 2.5625 7.109375 2.574219 7.3125 L 3.40625 20.511719 C 3.421875 20.777344 3.59375 21.023438 3.835938 21.136719 L 14.855469 26.175781 C 15.074219 26.277344 15.347656 26.257812 15.550781 26.128906 C 15.757812 26 15.890625 25.761719 15.894531 25.515625 L 16.101562 11.226562 C 16.105469 10.914062 15.890625 10.613281 15.597656 10.515625 L 3.539062 6.566406 C 3.46875 6.546875 3.398438 6.53125 3.324219 6.53125 Z M 6.648438 11.5 C 6.878906 11.496094 7.160156 11.535156 7.503906 11.625 C 7.957031 11.738281 8.453125 11.914062 8.988281 12.152344 C 9.84375 12.539062 10.53125 12.902344 11.054688 13.246094 C 11.578125 13.589844 12.023438 14.011719 12.382812 14.515625 C 12.636719 14.863281 12.84375 15.289062 13.003906 15.792969 C 13.164062 16.296875 13.25 16.753906 13.269531 17.152344 L 13.425781 20.910156 C 13.445312 21.308594 13.480469 21.636719 13.535156 21.886719 C 13.589844 22.132812 13.699219 22.464844 13.863281 22.882812 L 11.179688 21.679688 C 11.0625 21.414062 10.988281 21.214844 10.949219 21.085938 C 10.914062 20.957031 10.871094 20.757812 10.828125 20.5 C 10.46875 20.742188 10.109375 20.867188 9.75 20.875 C 9.253906 20.882812 8.671875 20.742188 8.003906 20.441406 C 7.113281 20.039062 6.425781 19.5 5.945312 18.824219 C 5.464844 18.148438 5.210938 17.460938 5.179688 16.773438 C 5.152344 16.125 5.296875 15.667969 5.613281 15.402344 C 5.925781 15.132812 6.523438 15.101562 7.410156 15.296875 C 8.472656 15.535156 9.160156 15.675781 9.472656 15.71875 C 9.789062 15.761719 10.121094 15.785156 10.46875 15.785156 C 10.453125 15.382812 10.367188 15.070312 10.214844 14.84375 C 10.0625 14.621094 9.804688 14.425781 9.441406 14.261719 C 8.972656 14.050781 8.625 13.980469 8.398438 14.042969 C 8.21875 14.097656 8.082031 14.28125 7.984375 14.597656 L 5.242188 13.042969 C 5.320312 12.542969 5.449219 12.183594 5.632812 11.957031 C 5.8125 11.730469 6.082031 11.585938 6.4375 11.519531 C 6.5 11.507812 6.574219 11.503906 6.648438 11.5 Z M 8.628906 17.242188 C 8.449219 17.246094 8.320312 17.273438 8.246094 17.324219 C 8.09375 17.429688 8.027344 17.597656 8.035156 17.820312 C 8.046875 18.078125 8.132812 18.320312 8.296875 18.554688 C 8.460938 18.789062 8.695312 18.972656 9 19.109375 C 9.316406 19.253906 9.609375 19.296875 9.875 19.246094 C 10.144531 19.191406 10.324219 19.0625 10.429688 18.859375 C 10.535156 18.660156 10.578125 18.355469 10.5625 17.949219 L 10.539062 17.429688 C 10.152344 17.414062 9.75 17.367188 9.328125 17.296875 C 9.042969 17.253906 8.808594 17.238281 8.628906 17.242188 Z M 8.628906 17.242188 "/>
</g>
<mask id="mask-1">
<g filter="url(#filter-remove-color)">
<rect x="-2.8" y="-2.8" width="33.6" height="33.6" fill="rgb(0%, 0%, 0%)" fill-opacity="0.6"/>
</g>
</mask>
<clipPath id="clip-1">
<rect x="0" y="0" width="28" height="28"/>
</clipPath>
<g id="source-14" clip-path="url(#clip-1)">
<path fill-rule="nonzero" fill="rgb(100%, 100%, 100%)" fill-opacity="1" d="M 24.78125 5.597656 C 24.679688 5.601562 24.578125 5.628906 24.488281 5.675781 L 15.027344 10.5625 C 14.792969 10.683594 14.632812 10.941406 14.632812 11.207031 L 14.476562 25.550781 C 14.472656 25.816406 14.628906 26.082031 14.863281 26.207031 C 15.101562 26.332031 15.40625 26.316406 15.628906 26.164062 L 24.304688 20.1875 C 24.488281 20.0625 24.605469 19.855469 24.621094 19.632812 L 25.558594 6.382812 C 25.574219 6.175781 25.496094 5.960938 25.347656 5.8125 C 25.203125 5.664062 24.988281 5.585938 24.78125 5.597656 Z M 22.28125 13.011719 C 22.316406 13.011719 22.347656 13.011719 22.378906 13.015625 C 22.878906 13.050781 23.210938 13.335938 23.367188 13.867188 L 21.113281 15.417969 C 21.066406 15.210938 20.953125 15.097656 20.78125 15.074219 C 20.609375 15.054688 20.367188 15.136719 20.054688 15.3125 C 19.664062 15.535156 19.335938 15.847656 19.070312 16.25 C 18.804688 16.652344 18.648438 17.125 18.601562 17.660156 C 18.5625 18.140625 18.652344 18.433594 18.871094 18.546875 C 19.089844 18.65625 19.386719 18.605469 19.757812 18.394531 C 20.070312 18.214844 20.335938 17.992188 20.558594 17.71875 C 20.785156 17.449219 20.960938 17.128906 21.09375 16.757812 L 23.320312 15.714844 C 23.160156 16.226562 22.921875 16.726562 22.613281 17.210938 C 22.300781 17.695312 21.921875 18.152344 21.464844 18.585938 C 21.007812 19.015625 20.441406 19.421875 19.761719 19.8125 C 19.109375 20.1875 18.566406 20.4375 18.140625 20.574219 C 17.714844 20.707031 17.355469 20.738281 17.0625 20.660156 C 16.769531 20.582031 16.550781 20.417969 16.402344 20.175781 C 16.253906 19.929688 16.203125 19.519531 16.253906 18.945312 C 16.304688 18.347656 16.453125 17.789062 16.707031 17.265625 C 16.890625 16.882812 17.128906 16.496094 17.425781 16.109375 C 17.722656 15.71875 18.019531 15.382812 18.320312 15.105469 C 18.796875 14.660156 19.394531 14.234375 20.117188 13.820312 C 21.0625 13.28125 21.785156 13.011719 22.28125 13.011719 Z M 22.28125 13.011719 "/>
</g>
<mask id="mask-2">
<g filter="url(#filter-remove-color)">
<rect x="-2.8" y="-2.8" width="33.6" height="33.6" fill="rgb(0%, 0%, 0%)" fill-opacity="0.75"/>
</g>
</mask>
<clipPath id="clip-2">
<rect x="0" y="0" width="28" height="28"/>
</clipPath>
<g id="source-18" clip-path="url(#clip-2)">
<path fill-rule="nonzero" fill="rgb(100%, 100%, 100%)" fill-opacity="1" d="M 13.164062 2.269531 C 13.074219 2.273438 12.980469 2.292969 12.898438 2.328125 L 3.140625 6.472656 C 2.867188 6.585938 2.679688 6.882812 2.691406 7.179688 C 2.703125 7.472656 2.910156 7.753906 3.191406 7.847656 L 15.132812 11.859375 C 15.320312 11.921875 15.535156 11.90625 15.710938 11.8125 L 25.0625 6.890625 C 25.320312 6.753906 25.480469 6.453125 25.449219 6.164062 C 25.417969 5.871094 25.199219 5.609375 24.917969 5.53125 L 13.382812 2.296875 C 13.3125 2.277344 13.238281 2.269531 13.164062 2.269531 Z M 15.214844 5.371094 C 15.269531 5.371094 15.328125 5.371094 15.382812 5.375 C 16.292969 5.394531 17.257812 5.582031 18.269531 5.933594 C 18.945312 6.171875 19.457031 6.414062 19.800781 6.671875 C 20.148438 6.925781 20.300781 7.164062 20.257812 7.390625 C 20.210938 7.613281 20.011719 7.808594 19.648438 7.972656 C 19.335938 8.113281 18.960938 8.210938 18.523438 8.265625 C 18.191406 8.304688 17.714844 8.308594 17.101562 8.277344 L 18.015625 8.597656 L 16.355469 9.347656 L 7.816406 6.375 L 9.609375 5.5625 L 12.566406 6.59375 C 12.496094 6.425781 12.511719 6.273438 12.613281 6.125 C 12.714844 5.980469 12.898438 5.847656 13.171875 5.722656 C 13.703125 5.484375 14.382812 5.367188 15.214844 5.371094 Z M 15.121094 6.46875 C 14.816406 6.46875 14.574219 6.507812 14.398438 6.585938 C 14.15625 6.695312 14.078125 6.824219 14.164062 6.976562 C 14.253906 7.128906 14.539062 7.292969 15.023438 7.460938 C 15.554688 7.644531 16.015625 7.746094 16.40625 7.761719 C 16.792969 7.777344 17.101562 7.734375 17.332031 7.628906 C 17.542969 7.53125 17.601562 7.410156 17.511719 7.265625 C 17.421875 7.117188 17.097656 6.949219 16.542969 6.753906 C 16.054688 6.582031 15.625 6.492188 15.253906 6.476562 C 15.207031 6.472656 15.164062 6.472656 15.121094 6.46875 Z M 15.121094 6.46875 "/>
</g>
</defs>
<path fill-rule="nonzero" fill="rgb(6.666667%, 6.666667%, 6.666667%)" fill-opacity="1" stroke-width="3.408" stroke-linecap="butt" stroke-linejoin="miter" stroke="rgb(93.333333%, 93.333333%, 93.333333%)" stroke-opacity="1" stroke-miterlimit="4" d="M 66.269531 1.780134 C 24.921875 1.780134 1.699219 23.141741 1.699219 66.835938 L 1.699219 516.967076 C 1.699219 557.748326 22.575335 579.190848 63.922991 579.190848 L 515.915179 579.190848 C 557.262835 579.190848 578.138951 558.800223 578.138951 516.967076 L 578.138951 66.835938 C 578.138951 24.193638 557.262835 1.780134 514.620536 1.780134 C 514.620536 1.780134 66.107701 1.618304 66.269531 1.780134 Z M 66.269531 1.780134 " transform="matrix(0.0482759, 0, 0, 0.0482759, 0, 0)"/>
<path fill="none" stroke-width="30.447163" stroke-linecap="round" stroke-linejoin="round" stroke="rgb(100%, 100%, 100%)" stroke-opacity="1" stroke-miterlimit="4" d="M 68.535156 150.502232 L 318.320312 232.307478 L 314.031808 528.376116 L 85.770089 423.914621 Z M 68.535156 150.502232 " transform="matrix(0.0482759, 0, 0, 0.0482759, 0, 0)"/>
<path fill="none" stroke-width="30.447163" stroke-linecap="round" stroke-linejoin="round" stroke="rgb(100%, 100%, 100%)" stroke-opacity="1" stroke-miterlimit="4" d="M 514.21596 131.163504 L 318.320312 232.307478 L 315.083705 529.428013 L 494.877232 405.62779 Z M 514.21596 131.163504 " transform="matrix(0.0482759, 0, 0, 0.0482759, 0, 0)"/>
<path fill="none" stroke-width="30.447163" stroke-linecap="round" stroke-linejoin="round" stroke="rgb(100%, 100%, 100%)" stroke-opacity="1" stroke-miterlimit="4" d="M 273.088728 62.223772 L 70.962612 148.074777 L 318.320312 231.25558 L 512.03125 129.22154 Z M 273.088728 62.223772 " transform="matrix(0.0482759, 0, 0, 0.0482759, 0, 0)"/>
<g mask="url(#mask-0)">
<use xlink:href="#source-10"/>
</g>
<g mask="url(#mask-1)">
<use xlink:href="#source-14"/>
</g>
<g mask="url(#mask-2)">
<use xlink:href="#source-18"/>
</g>
</svg>
