<?xml version="1.0" encoding="UTF-8"?>
<svg xmlns="http://www.w3.org/2000/svg" xmlns:xlink="http://www.w3.org/1999/xlink" width="28" height="28" viewBox="0 0 28 28">
<defs>
<filter id="filter-remove-color" x="0%" y="0%" width="100%" height="100%">
<feColorMatrix color-interpolation-filters="sRGB" values="0 0 0 0 1 0 0 0 0 1 0 0 0 0 1 0 0 0 1 0" />
</filter>
<mask id="mask-0">
<g filter="url(#filter-remove-color)">
<rect x="-2.8" y="-2.8" width="33.6" height="33.6" fill="rgb(0%, 0%, 0%)" fill-opacity="0.9"/>
</g>
</mask>
<clipPath id="clip-0">
<rect x="0" y="0" width="28" height="28"/>
</clipPath>
<g id="source-16" clip-path="url(#clip-0)">
<path fill-rule="nonzero" fill="rgb(100%, 100%, 100%)" fill-opacity="1" d="M 8.441406 6.457031 C 8.332031 6.457031 8.222656 6.5 8.148438 6.582031 C 8.070312 6.660156 8.03125 6.773438 8.035156 6.882812 L 8.488281 14.042969 C 8.496094 14.1875 8.589844 14.320312 8.71875 14.382812 L 14.699219 17.117188 C 14.820312 17.171875 14.964844 17.160156 15.078125 17.089844 C 15.1875 17.019531 15.261719 16.890625 15.261719 16.757812 L 15.375 9.003906 C 15.378906 8.835938 15.261719 8.671875 15.101562 8.621094 L 8.558594 6.476562 C 8.523438 6.464844 8.480469 6.460938 8.441406 6.457031 Z M 10.246094 9.15625 C 10.371094 9.152344 10.523438 9.171875 10.710938 9.21875 C 10.957031 9.285156 11.226562 9.378906 11.515625 9.507812 C 11.980469 9.71875 12.351562 9.914062 12.636719 10.101562 C 12.921875 10.289062 13.164062 10.515625 13.359375 10.789062 C 13.496094 10.980469 13.609375 11.210938 13.695312 11.484375 C 13.78125 11.757812 13.828125 12.003906 13.839844 12.222656 L 13.925781 14.257812 C 13.933594 14.476562 13.953125 14.65625 13.984375 14.789062 C 14.011719 14.921875 14.070312 15.101562 14.160156 15.332031 L 12.707031 14.675781 C 12.640625 14.53125 12.601562 14.425781 12.582031 14.355469 C 12.558594 14.285156 12.539062 14.175781 12.515625 14.035156 C 12.320312 14.167969 12.125 14.234375 11.929688 14.242188 C 11.660156 14.246094 11.34375 14.167969 10.980469 14.003906 C 10.5 13.789062 10.125 13.496094 9.863281 13.128906 C 9.605469 12.761719 9.464844 12.386719 9.449219 12.015625 C 9.433594 11.664062 9.511719 11.417969 9.683594 11.269531 C 9.855469 11.125 10.179688 11.105469 10.660156 11.214844 C 11.234375 11.34375 11.609375 11.417969 11.78125 11.441406 C 11.949219 11.46875 12.128906 11.480469 12.320312 11.480469 C 12.308594 11.261719 12.265625 11.089844 12.183594 10.96875 C 12.101562 10.847656 11.960938 10.742188 11.761719 10.652344 C 11.507812 10.539062 11.320312 10.5 11.195312 10.535156 C 11.097656 10.5625 11.023438 10.664062 10.972656 10.835938 L 9.484375 9.988281 C 9.527344 9.71875 9.597656 9.523438 9.695312 9.402344 C 9.792969 9.28125 9.9375 9.199219 10.132812 9.164062 C 10.167969 9.160156 10.207031 9.15625 10.246094 9.15625 Z M 11.320312 12.269531 C 11.222656 12.273438 11.152344 12.289062 11.113281 12.316406 C 11.03125 12.371094 10.996094 12.460938 11 12.582031 C 11.003906 12.722656 11.050781 12.855469 11.140625 12.980469 C 11.230469 13.109375 11.355469 13.210938 11.519531 13.285156 C 11.695312 13.359375 11.855469 13.382812 12 13.355469 C 12.144531 13.328125 12.242188 13.257812 12.296875 13.148438 C 12.355469 13.039062 12.378906 12.875 12.371094 12.652344 L 12.355469 12.371094 C 12.148438 12.363281 11.929688 12.335938 11.699219 12.300781 C 11.546875 12.277344 11.417969 12.265625 11.320312 12.269531 Z M 11.320312 12.269531 "/>
</g>
<mask id="mask-1">
<g filter="url(#filter-remove-color)">
<rect x="-2.8" y="-2.8" width="33.6" height="33.6" fill="rgb(0%, 0%, 0%)" fill-opacity="0.6"/>
</g>
</mask>
<clipPath id="clip-1">
<rect x="0" y="0" width="28" height="28"/>
</clipPath>
<g id="source-20" clip-path="url(#clip-1)">
<path fill-rule="nonzero" fill="rgb(100%, 100%, 100%)" fill-opacity="1" stroke-width="16.520189" stroke-linecap="round" stroke-linejoin="round" stroke="rgb(100%, 100%, 100%)" stroke-opacity="1" stroke-miterlimit="4" d="M 416.551339 131.487165 L 310.228795 186.428571 L 308.448661 347.611607 L 406.032366 280.452009 Z M 416.551339 131.487165 " transform="matrix(0.0482759, 0, 0, 0.0482759, 0, 0)"/>
</g>
<mask id="mask-2">
<g filter="url(#filter-remove-color)">
<rect x="-2.8" y="-2.8" width="33.6" height="33.6" fill="rgb(0%, 0%, 0%)" fill-opacity="0.75"/>
</g>
</mask>
<clipPath id="clip-2">
<rect x="0" y="0" width="28" height="28"/>
</clipPath>
<g id="source-24" clip-path="url(#clip-2)">
<path fill-rule="nonzero" fill="rgb(100%, 100%, 100%)" fill-opacity="1" stroke-width="16.520189" stroke-linecap="round" stroke-linejoin="round" stroke="rgb(100%, 100%, 100%)" stroke-opacity="1" stroke-miterlimit="4" d="M 285.711496 94.104353 L 176.071429 140.711496 L 310.228795 185.862165 L 415.337612 130.516183 Z M 285.711496 94.104353 " transform="matrix(0.0482759, 0, 0, 0.0482759, 0, 0)"/>
</g>
<mask id="mask-3">
<g filter="url(#filter-remove-color)">
<rect x="-2.8" y="-2.8" width="33.6" height="33.6" fill="rgb(0%, 0%, 0%)" fill-opacity="0.75"/>
</g>
</mask>
<clipPath id="clip-3">
<rect x="0" y="0" width="28" height="28"/>
</clipPath>
<g id="source-28" clip-path="url(#clip-3)">
<path fill-rule="nonzero" fill="rgb(100%, 100%, 100%)" fill-opacity="1" d="M 5.722656 11.117188 C 5.628906 11.117188 5.539062 11.148438 5.464844 11.207031 L 1.238281 14.648438 C 1.121094 14.742188 1.066406 14.902344 1.097656 15.042969 C 1.128906 15.1875 1.246094 15.308594 1.386719 15.34375 L 8.410156 17.121094 C 8.546875 17.15625 8.703125 17.113281 8.796875 17.007812 L 10.789062 14.925781 L 10.019531 14.578125 L 8.871094 13.816406 L 8.382812 11.695312 L 5.800781 11.128906 C 5.777344 11.121094 5.75 11.117188 5.722656 11.117188 Z M 5.722656 11.117188 "/>
</g>
<mask id="mask-4">
<g filter="url(#filter-remove-color)">
<rect x="-2.8" y="-2.8" width="33.6" height="33.6" fill="rgb(0%, 0%, 0%)" fill-opacity="0.9"/>
</g>
</mask>
<clipPath id="clip-4">
<rect x="0" y="0" width="28" height="28"/>
</clipPath>
<g id="source-32" clip-path="url(#clip-4)">
<path fill-rule="nonzero" fill="rgb(100%, 100%, 100%)" fill-opacity="1" d="M 1.410156 14.558594 C 1.296875 14.566406 1.1875 14.621094 1.117188 14.710938 C 1.046875 14.800781 1.019531 14.917969 1.039062 15.027344 L 2.167969 21.289062 C 2.191406 21.433594 2.308594 21.5625 2.453125 21.601562 L 8.9375 23.40625 C 9.058594 23.441406 9.199219 23.414062 9.300781 23.332031 C 9.398438 23.25 9.453125 23.117188 9.441406 22.988281 L 8.933594 16.703125 C 8.921875 16.539062 8.792969 16.386719 8.632812 16.347656 L 1.527344 14.570312 C 1.488281 14.5625 1.449219 14.558594 1.410156 14.558594 Z M 2.445312 15.988281 L 4.0625 16.363281 L 4.375 18.019531 C 4.507812 17.917969 4.671875 17.855469 4.859375 17.832031 C 5.050781 17.808594 5.269531 17.828125 5.515625 17.882812 C 6.027344 18 6.476562 18.25 6.867188 18.628906 C 7.257812 19.007812 7.503906 19.484375 7.609375 20.050781 C 7.683594 20.425781 7.667969 20.746094 7.570312 20.996094 C 7.46875 21.25 7.300781 21.414062 7.058594 21.496094 C 6.816406 21.578125 6.53125 21.578125 6.203125 21.503906 C 5.921875 21.4375 5.65625 21.328125 5.402344 21.175781 C 5.210938 21.054688 4.992188 20.867188 4.746094 20.601562 L 4.839844 21.113281 L 3.339844 20.769531 Z M 4.988281 18.738281 C 4.875 18.742188 4.785156 18.773438 4.714844 18.839844 C 4.601562 18.941406 4.570312 19.128906 4.621094 19.398438 C 4.675781 19.695312 4.785156 19.925781 4.945312 20.09375 C 5.105469 20.257812 5.289062 20.363281 5.496094 20.410156 C 5.6875 20.457031 5.835938 20.425781 5.941406 20.324219 C 6.046875 20.222656 6.070312 20.019531 6.011719 19.707031 C 5.960938 19.433594 5.863281 19.21875 5.710938 19.058594 C 5.558594 18.902344 5.390625 18.804688 5.210938 18.761719 C 5.128906 18.742188 5.054688 18.734375 4.988281 18.738281 Z M 4.988281 18.738281 "/>
</g>
<mask id="mask-5">
<g filter="url(#filter-remove-color)">
<rect x="-2.8" y="-2.8" width="33.6" height="33.6" fill="rgb(0%, 0%, 0%)" fill-opacity="0.6"/>
</g>
</mask>
<clipPath id="clip-5">
<rect x="0" y="0" width="28" height="28"/>
</clipPath>
<g id="source-36" clip-path="url(#clip-5)">
<path fill-rule="nonzero" fill="rgb(100%, 100%, 100%)" fill-opacity="1" d="M 10.066406 14.597656 L 8.253906 16.457031 C 8.171875 16.539062 8.128906 16.652344 8.140625 16.769531 L 8.675781 23.054688 C 8.691406 23.214844 8.808594 23.359375 8.960938 23.402344 C 9.113281 23.449219 9.292969 23.390625 9.386719 23.265625 L 12.574219 19.121094 C 12.628906 19.050781 12.660156 18.960938 12.660156 18.871094 L 12.617188 15.75 Z M 10.066406 14.597656 "/>
</g>
<mask id="mask-6">
<g filter="url(#filter-remove-color)">
<rect x="-2.8" y="-2.8" width="33.6" height="33.6" fill="rgb(0%, 0%, 0%)" fill-opacity="0.9"/>
</g>
</mask>
<clipPath id="clip-6">
<rect x="0" y="0" width="28" height="28"/>
</clipPath>
<g id="source-40" clip-path="url(#clip-6)">
<path fill-rule="nonzero" fill="rgb(100%, 100%, 100%)" fill-opacity="1" d="M 26.511719 15.429688 C 26.488281 15.429688 26.464844 15.433594 26.441406 15.441406 L 19.195312 17.214844 C 19.035156 17.257812 18.90625 17.40625 18.894531 17.574219 L 18.386719 24.058594 C 18.375 24.1875 18.433594 24.316406 18.53125 24.398438 C 18.632812 24.480469 18.773438 24.507812 18.898438 24.472656 L 25.578125 22.5 C 25.722656 22.457031 25.835938 22.328125 25.859375 22.183594 L 26.929688 15.894531 C 26.949219 15.777344 26.914062 15.648438 26.832031 15.558594 C 26.753906 15.46875 26.632812 15.421875 26.511719 15.429688 Z M 23.839844 17.511719 C 24.042969 17.511719 24.207031 17.539062 24.339844 17.605469 C 24.644531 17.75 24.828125 18.039062 24.882812 18.476562 L 23.386719 19.125 C 23.375 18.953125 23.316406 18.84375 23.210938 18.785156 C 23.105469 18.730469 22.953125 18.734375 22.75 18.792969 C 22.492188 18.871094 22.269531 19.03125 22.074219 19.273438 C 21.882812 19.515625 21.753906 19.835938 21.683594 20.230469 C 21.625 20.582031 21.65625 20.820312 21.78125 20.957031 C 21.90625 21.089844 22.09375 21.121094 22.335938 21.046875 C 22.539062 20.988281 22.722656 20.878906 22.878906 20.726562 C 23.035156 20.578125 23.167969 20.375 23.277344 20.128906 L 24.71875 19.859375 C 24.582031 20.207031 24.398438 20.527344 24.171875 20.820312 C 23.945312 21.113281 23.679688 21.371094 23.367188 21.589844 C 23.054688 21.808594 22.679688 21.984375 22.234375 22.117188 C 21.804688 22.246094 21.457031 22.3125 21.1875 22.316406 C 20.914062 22.316406 20.691406 22.257812 20.519531 22.128906 C 20.347656 22.003906 20.222656 21.832031 20.148438 21.609375 C 20.078125 21.390625 20.078125 21.070312 20.148438 20.648438 C 20.226562 20.210938 20.359375 19.824219 20.550781 19.488281 C 20.691406 19.242188 20.867188 19.007812 21.078125 18.785156 C 21.289062 18.558594 21.496094 18.375 21.703125 18.234375 C 22.027344 18.011719 22.425781 17.828125 22.894531 17.6875 C 23.269531 17.574219 23.582031 17.515625 23.839844 17.511719 Z M 23.839844 17.511719 "/>
</g>
<mask id="mask-7">
<g filter="url(#filter-remove-color)">
<rect x="-2.8" y="-2.8" width="33.6" height="33.6" fill="rgb(0%, 0%, 0%)" fill-opacity="0.75"/>
</g>
</mask>
<clipPath id="clip-7">
<rect x="0" y="0" width="28" height="28"/>
</clipPath>
<g id="source-44" clip-path="url(#clip-7)">
<path fill-rule="nonzero" fill="rgb(100%, 100%, 100%)" fill-opacity="1" d="M 22.277344 11.820312 C 22.25 11.820312 22.21875 11.824219 22.191406 11.828125 L 20.070312 12.3125 L 19.738281 13.179688 L 17.375 14.925781 L 16.917969 15.621094 L 18.96875 17.898438 C 19.0625 18.003906 19.21875 18.050781 19.359375 18.019531 L 26.660156 16.214844 C 26.800781 16.179688 26.917969 16.058594 26.953125 15.917969 C 26.984375 15.777344 26.933594 15.617188 26.824219 15.523438 L 22.535156 11.914062 C 22.464844 11.851562 22.371094 11.820312 22.277344 11.820312 Z M 22.277344 11.820312 "/>
</g>
<mask id="mask-8">
<g filter="url(#filter-remove-color)">
<rect x="-2.8" y="-2.8" width="33.6" height="33.6" fill="rgb(0%, 0%, 0%)" fill-opacity="0.6"/>
</g>
</mask>
<clipPath id="clip-8">
<rect x="0" y="0" width="28" height="28"/>
</clipPath>
<g id="source-48" clip-path="url(#clip-8)">
<path fill-rule="nonzero" fill="rgb(100%, 100%, 100%)" fill-opacity="1" d="M 17.441406 15.066406 L 15.226562 16.550781 L 15.113281 19.730469 C 15.109375 19.820312 15.136719 19.914062 15.195312 19.988281 L 18.464844 24.300781 C 18.5625 24.429688 18.742188 24.488281 18.894531 24.441406 C 19.050781 24.398438 19.167969 24.25 19.179688 24.09375 L 19.691406 17.664062 C 19.699219 17.554688 19.660156 17.441406 19.585938 17.363281 Z M 17.441406 15.066406 "/>
</g>
</defs>
<path fill-rule="nonzero" fill="rgb(6.666667%, 6.666667%, 6.666667%)" fill-opacity="1" stroke-width="3.408" stroke-linecap="butt" stroke-linejoin="miter" stroke="rgb(93.333333%, 93.333333%, 93.333333%)" stroke-opacity="1" stroke-miterlimit="4" d="M 66.269531 1.780134 C 24.921875 1.780134 1.699219 23.141741 1.699219 66.835938 L 1.699219 516.967076 C 1.699219 557.748326 22.575335 579.190848 63.922991 579.190848 L 515.915179 579.190848 C 557.262835 579.190848 578.138951 558.800223 578.138951 516.967076 L 578.138951 66.835938 C 578.138951 24.193638 557.262835 1.780134 514.620536 1.780134 C 514.620536 1.780134 66.107701 1.618304 66.269531 1.780134 Z M 66.269531 1.780134 " transform="matrix(0.0482759, 0, 0, 0.0482759, 0, 0)"/>
<path fill-rule="nonzero" fill="rgb(100%, 100%, 100%)" fill-opacity="1" d="M 5.722656 11.117188 C 5.628906 11.117188 5.539062 11.148438 5.464844 11.207031 L 1.238281 14.648438 C 1.121094 14.746094 1.066406 14.898438 1.097656 15.042969 C 1.128906 15.191406 1.242188 15.308594 1.386719 15.34375 L 8.410156 17.121094 C 8.550781 17.15625 8.699219 17.113281 8.796875 17.007812 L 10.789062 14.925781 L 10.019531 14.578125 L 8.382812 16.289062 L 2.355469 14.765625 L 5.820312 11.949219 L 8.433594 12.519531 L 8.382812 11.695312 L 5.800781 11.128906 C 5.777344 11.121094 5.75 11.117188 5.722656 11.117188 Z M 5.722656 11.117188 "/>
<path fill="none" stroke-width="16.520189" stroke-linecap="round" stroke-linejoin="round" stroke="rgb(100%, 100%, 100%)" stroke-opacity="1" stroke-miterlimit="4" d="M 186.965085 476.914062 L 176.446112 346.640625 L 29.261402 309.824219 L 52.645889 439.53125 Z M 186.965085 476.914062 " transform="matrix(0.0482759, 0, 0, 0.0482759, 0.0170681, 0)"/>
<path fill-rule="nonzero" fill="rgb(100%, 100%, 100%)" fill-opacity="1" d="M 10.066406 14.597656 L 8.253906 16.457031 C 8.171875 16.539062 8.128906 16.652344 8.140625 16.769531 L 8.675781 23.054688 C 8.691406 23.21875 8.804688 23.359375 8.960938 23.402344 C 9.117188 23.449219 9.289062 23.394531 9.386719 23.265625 L 12.574219 19.121094 C 12.628906 19.050781 12.660156 18.960938 12.660156 18.871094 L 12.617188 15.75 L 11.8125 15.386719 L 11.859375 18.742188 L 9.382812 21.960938 L 8.949219 16.882812 L 10.839844 14.949219 Z M 10.066406 14.597656 "/>
<path fill="none" stroke-width="16.520189" stroke-linecap="round" stroke-linejoin="round" stroke="rgb(100%, 100%, 100%)" stroke-opacity="1" stroke-miterlimit="4" d="M 389.121094 499.003906 L 399.559152 364.68471 L 549.737723 327.868304 L 527.486049 458.060826 Z M 389.121094 499.003906 " transform="matrix(0.0482759, 0, 0, 0.0482759, 0, 0)"/>
<path fill-rule="nonzero" fill="rgb(100%, 100%, 100%)" fill-opacity="1" d="M 22.277344 11.820312 C 22.25 11.820312 22.21875 11.824219 22.191406 11.828125 L 19.984375 12.332031 L 19.925781 13.164062 L 22.175781 12.652344 L 25.710938 15.628906 L 19.402344 17.1875 L 17.121094 14.976562 L 16.832031 15.175781 L 18.96875 17.898438 C 19.0625 18.003906 19.21875 18.050781 19.359375 18.019531 L 26.660156 16.214844 C 26.800781 16.179688 26.917969 16.058594 26.953125 15.917969 C 26.984375 15.777344 26.933594 15.617188 26.824219 15.523438 L 22.535156 11.914062 C 22.464844 11.851562 22.371094 11.820312 22.277344 11.820312 Z M 22.277344 11.820312 "/>
<path fill-rule="nonzero" fill="rgb(100%, 100%, 100%)" fill-opacity="1" d="M 17.441406 15.066406 L 16.777344 15.519531 L 18.878906 17.773438 L 18.46875 22.984375 L 15.917969 19.621094 L 16.042969 15.988281 L 15.226562 16.550781 L 15.113281 19.730469 C 15.109375 19.820312 15.136719 19.914062 15.195312 19.988281 L 18.464844 24.300781 C 18.5625 24.429688 18.742188 24.488281 18.894531 24.441406 C 19.050781 24.398438 19.167969 24.25 19.179688 24.09375 L 19.691406 17.664062 C 19.699219 17.554688 19.660156 17.441406 19.585938 17.363281 Z M 17.441406 15.066406 "/>
<path fill="none" stroke-width="16.520189" stroke-linecap="round" stroke-linejoin="round" stroke="rgb(100%, 100%, 100%)" stroke-opacity="1" stroke-miterlimit="4" d="M 174.695871 142.006138 L 310.228795 186.428571 L 307.882254 347.045201 L 184.082031 290.404576 Z M 174.695871 142.006138 " transform="matrix(0.0482759, 0, 0, 0.0482759, 0, 0)"/>
<path fill="none" stroke-width="16.520189" stroke-linecap="round" stroke-linejoin="round" stroke="rgb(100%, 100%, 100%)" stroke-opacity="1" stroke-miterlimit="4" d="M 416.551339 131.487165 L 310.228795 186.428571 L 308.448661 347.611607 L 406.032366 280.452009 Z M 416.551339 131.487165 " transform="matrix(0.0482759, 0, 0, 0.0482759, 0, 0)"/>
<path fill="none" stroke-width="16.520189" stroke-linecap="round" stroke-linejoin="round" stroke="rgb(100%, 100%, 100%)" stroke-opacity="1" stroke-miterlimit="4" d="M 285.711496 94.104353 L 176.071429 140.711496 L 310.228795 185.862165 L 415.337612 130.516183 Z M 285.711496 94.104353 " transform="matrix(0.0482759, 0, 0, 0.0482759, 0, 0)"/>
<g mask="url(#mask-0)">
<use xlink:href="#source-16"/>
</g>
<g mask="url(#mask-1)">
<use xlink:href="#source-20"/>
</g>
<g mask="url(#mask-2)">
<use xlink:href="#source-24"/>
</g>
<g mask="url(#mask-3)">
<use xlink:href="#source-28"/>
</g>
<g mask="url(#mask-4)">
<use xlink:href="#source-32"/>
</g>
<g mask="url(#mask-5)">
<use xlink:href="#source-36"/>
</g>
<g mask="url(#mask-6)">
<use xlink:href="#source-40"/>
</g>
<g mask="url(#mask-7)">
<use xlink:href="#source-44"/>
</g>
<g mask="url(#mask-8)">
<use xlink:href="#source-48"/>
</g>
</svg>
