<?xml version="1.0" encoding="UTF-8"?>
<svg xmlns="http://www.w3.org/2000/svg" xmlns:xlink="http://www.w3.org/1999/xlink" width="28" height="28" viewBox="0 0 28 28">
<defs>
<filter id="filter-remove-color" x="0%" y="0%" width="100%" height="100%">
<feColorMatrix color-interpolation-filters="sRGB" values="0 0 0 0 1 0 0 0 0 1 0 0 0 0 1 0 0 0 1 0" />
</filter>
<mask id="mask-0">
<g filter="url(#filter-remove-color)">
<rect x="-2.8" y="-2.8" width="33.6" height="33.6" fill="rgb(0%, 0%, 0%)" fill-opacity="0.75"/>
</g>
</mask>
<clipPath id="clip-0">
<rect x="0" y="0" width="28" height="28"/>
</clipPath>
<g id="source-7" clip-path="url(#clip-0)">
<path fill-rule="nonzero" fill="rgb(100%, 100%, 100%)" fill-opacity="1" d="M 13.945312 2.246094 C 13.648438 2.25 13.382812 2.433594 13.269531 2.707031 L 11.359375 7.230469 L 12.972656 7.230469 L 14.03125 4.726562 L 15.09375 7.230469 L 16.707031 7.230469 L 14.789062 2.707031 C 14.664062 2.402344 14.355469 2.214844 14.027344 2.25 C 14 2.246094 13.972656 2.246094 13.945312 2.246094 Z M 6.179688 20.460938 L 4.601562 24.273438 C 4.488281 24.519531 4.519531 24.808594 4.683594 25.027344 C 4.847656 25.246094 5.113281 25.355469 5.382812 25.316406 C 5.652344 25.277344 5.878906 25.097656 5.972656 24.839844 L 7.785156 20.460938 Z M 20.179688 20.460938 L 20.472656 20.9375 L 22.085938 24.839844 C 22.242188 25.21875 22.675781 25.402344 23.054688 25.246094 C 23.433594 25.085938 23.617188 24.652344 23.460938 24.273438 L 21.882812 20.460938 Z M 20.179688 20.460938 "/>
</g>
</defs>
<path fill-rule="nonzero" fill="rgb(6.666667%, 6.666667%, 6.666667%)" fill-opacity="1" stroke-width="3.408" stroke-linecap="butt" stroke-linejoin="miter" stroke="rgb(93.333333%, 93.333333%, 93.333333%)" stroke-opacity="1" stroke-miterlimit="4" d="M 66.269531 1.780134 C 24.921875 1.780134 1.699219 23.141741 1.699219 66.835938 L 1.699219 516.967076 C 1.699219 557.748326 22.575335 579.190848 63.922991 579.190848 L 515.915179 579.190848 C 557.262835 579.190848 578.138951 558.881138 578.138951 516.967076 L 578.138951 66.835938 C 578.138951 24.193638 557.262835 1.780134 514.620536 1.780134 C 514.620536 1.780134 66.107701 1.618304 66.269531 1.780134 Z M 66.269531 1.780134 " transform="matrix(0.0482759, 0, 0, 0.0482759, 0, 0)"/>
<g mask="url(#mask-0)">
<use xlink:href="#source-7"/>
</g>
<path fill-rule="nonzero" fill="rgb(100%, 100%, 100%)" fill-opacity="1" d="M 3.53125 7.347656 L 3.511719 20.09375 L 24.585938 20.164062 L 24.640625 7.304688 Z M 4.699219 10.21875 L 6.644531 10.21875 C 6.96875 10.804688 7.292969 11.394531 7.617188 11.984375 C 7.988281 11.394531 8.359375 10.804688 8.730469 10.21875 L 10.6875 10.21875 C 10.023438 11.246094 9.355469 12.273438 8.6875 13.300781 C 9.410156 14.453125 10.128906 15.601562 10.851562 16.75 L 8.921875 16.75 C 8.496094 16.058594 8.0625 15.375 7.644531 14.679688 C 7.230469 15.371094 6.816406 16.0625 6.402344 16.75 L 4.527344 16.75 C 5.203125 15.621094 5.882812 14.492188 6.558594 13.359375 C 6.09375 12.570312 5.621094 11.777344 5.15625 10.988281 Z M 17.828125 10.21875 L 19.621094 10.21875 C 20.050781 11.488281 20.476562 12.761719 20.910156 14.03125 C 21.3125 12.761719 21.71875 11.488281 22.121094 10.21875 L 23.933594 10.21875 L 22.058594 15.425781 C 21.679688 16.203125 21.621094 17.089844 21.292969 17.882812 C 20.882812 18.96875 19.558594 19.519531 18.464844 19.148438 C 18.375 18.777344 18.382812 18.316406 18.328125 17.914062 C 18.183594 17.515625 18.476562 17.660156 18.722656 17.703125 C 19.269531 17.832031 20.066406 17.632812 20.148438 16.988281 C 19.542969 14.839844 18.6875 12.753906 17.972656 10.636719 Z M 13.457031 10.460938 L 15.0625 10.460938 L 15.0625 12.644531 L 17.25 12.644531 L 17.25 14.226562 L 15.0625 14.226562 L 15.0625 16.441406 L 13.457031 16.441406 L 13.457031 14.226562 L 11.273438 14.226562 L 11.273438 12.644531 L 12.425781 12.644531 C 12.738281 12.574219 13.34375 12.792969 13.457031 12.523438 Z M 13.457031 10.460938 "/>
<path fill="none" stroke-width="20.524557" stroke-linecap="round" stroke-linejoin="round" stroke="rgb(100%, 100%, 100%)" stroke-opacity="1" stroke-miterlimit="4" d="M 73.228237 149.854911 L 510.979353 149.854911 L 510.979353 423.833705 L 73.228237 423.833705 Z M 73.228237 149.854911 " transform="matrix(0.0482759, 0, 0, 0.0482759, 0, 0)"/>
</svg>
