<?xml version="1.0" encoding="UTF-8"?>
<svg xmlns="http://www.w3.org/2000/svg" xmlns:xlink="http://www.w3.org/1999/xlink" width="28" height="28" viewBox="0 0 28 28">
<defs>
<filter id="filter-remove-color" x="0%" y="0%" width="100%" height="100%">
<feColorMatrix color-interpolation-filters="sRGB" values="0 0 0 0 1 0 0 0 0 1 0 0 0 0 1 0 0 0 1 0" />
</filter>
<mask id="mask-0">
<g filter="url(#filter-remove-color)">
<rect x="-2.8" y="-2.8" width="33.6" height="33.6" fill="rgb(0%, 0%, 0%)" fill-opacity="0.75"/>
</g>
</mask>
<clipPath id="clip-0">
<path clip-rule="nonzero" d="M 0 0 L 28 0 L 28 28 L 0 28 Z M 0 0 "/>
</clipPath>
<clipPath id="clip-1">
<rect x="0" y="0" width="28" height="28"/>
</clipPath>
<g id="source-7" clip-path="url(#clip-1)">
<g clip-path="url(#clip-0)">
<path fill="none" stroke-width="30.786835" stroke-linecap="round" stroke-linejoin="miter" stroke="rgb(100%, 100%, 100%)" stroke-opacity="1" stroke-miterlimit="4" d="M 109.559152 508.713728 L 154.386161 400.125558 L 221.626674 361.367188 L 223.244978 214.182478 L 241.774554 173.967634 L 289.029018 62.061942 M 471.735491 508.713728 L 437.832031 426.584821 L 329.729353 251.322545 L 333.856027 160.373884 L 292.18471 62.061942 " transform="matrix(0.0482759, 0, 0, 0.0482759, 0, 0)"/>
</g>
</g>
</defs>
<path fill-rule="nonzero" fill="rgb(6.666667%, 6.666667%, 6.666667%)" fill-opacity="1" stroke-width="3.408" stroke-linecap="butt" stroke-linejoin="miter" stroke="rgb(93.333333%, 93.333333%, 93.333333%)" stroke-opacity="1" stroke-miterlimit="4" d="M 66.269531 1.780134 C 24.921875 1.780134 1.699219 23.141741 1.699219 66.835938 L 1.699219 516.967076 C 1.699219 557.748326 22.575335 579.190848 63.922991 579.190848 L 515.915179 579.190848 C 557.262835 579.190848 578.138951 558.881138 578.138951 516.967076 L 578.138951 66.835938 C 578.138951 24.193638 557.262835 1.780134 514.620536 1.780134 C 514.620536 1.780134 66.107701 1.618304 66.269531 1.780134 Z M 66.269531 1.780134 " transform="matrix(0.0482759, 0, 0, 0.0482759, 0, 0)"/>
<g mask="url(#mask-0)">
<use xlink:href="#source-7"/>
</g>
<path fill-rule="nonzero" fill="rgb(100%, 100%, 100%)" fill-opacity="1" d="M 3.535156 7.234375 L 3.535156 20.460938 L 24.667969 20.460938 L 24.667969 7.234375 Z M 6.914062 8.480469 C 7.507812 8.480469 7.980469 8.515625 8.339844 8.582031 C 8.699219 8.648438 9 8.789062 9.238281 8.996094 C 9.40625 9.144531 9.539062 9.347656 9.636719 9.617188 C 9.734375 9.882812 9.78125 10.136719 9.78125 10.378906 L 9.78125 12.65625 C 9.78125 12.898438 9.796875 13.089844 9.828125 13.226562 C 9.859375 13.363281 9.925781 13.539062 10.027344 13.753906 L 8.175781 13.753906 C 8.101562 13.621094 8.054688 13.519531 8.03125 13.449219 C 8.007812 13.378906 7.984375 13.269531 7.960938 13.121094 C 7.703125 13.371094 7.445312 13.546875 7.191406 13.65625 C 6.839844 13.796875 6.4375 13.867188 5.972656 13.867188 C 5.359375 13.867188 4.890625 13.726562 4.574219 13.441406 C 4.253906 13.15625 4.09375 12.804688 4.09375 12.386719 C 4.09375 11.996094 4.210938 11.675781 4.441406 11.421875 C 4.671875 11.167969 5.09375 10.984375 5.710938 10.859375 C 6.453125 10.710938 6.929688 10.605469 7.152344 10.546875 C 7.371094 10.488281 7.605469 10.410156 7.851562 10.3125 C 7.851562 10.070312 7.800781 9.898438 7.699219 9.800781 C 7.601562 9.707031 7.421875 9.65625 7.171875 9.65625 C 6.847656 9.65625 6.605469 9.707031 6.445312 9.8125 C 6.316406 9.894531 6.214844 10.046875 6.136719 10.269531 L 4.25 10.070312 C 4.320312 9.738281 4.421875 9.480469 4.558594 9.289062 C 4.691406 9.101562 4.886719 8.9375 5.136719 8.796875 C 5.320312 8.699219 5.566406 8.621094 5.886719 8.566406 C 6.203125 8.511719 6.546875 8.480469 6.914062 8.480469 Z M 20.476562 8.480469 C 21.320312 8.480469 21.960938 8.632812 22.402344 8.933594 C 22.84375 9.234375 23.152344 9.675781 23.332031 10.253906 L 21.472656 10.5 C 21.414062 10.28125 21.308594 10.117188 21.15625 10.003906 C 21 9.890625 20.792969 9.835938 20.535156 9.835938 C 20.207031 9.835938 19.945312 9.953125 19.742188 10.1875 C 19.539062 10.421875 19.4375 10.777344 19.4375 11.253906 C 19.4375 11.675781 19.539062 11.996094 19.738281 12.21875 C 19.941406 12.4375 20.195312 12.550781 20.507812 12.550781 C 20.765625 12.550781 20.984375 12.480469 21.160156 12.347656 C 21.335938 12.214844 21.46875 12.011719 21.554688 11.738281 L 23.433594 11.953125 C 23.328125 12.34375 23.160156 12.683594 22.921875 12.96875 C 22.6875 13.253906 22.386719 13.476562 22.019531 13.636719 C 21.652344 13.792969 21.183594 13.871094 20.617188 13.871094 C 20.070312 13.871094 19.617188 13.820312 19.253906 13.71875 C 18.890625 13.617188 18.574219 13.453125 18.3125 13.226562 C 18.050781 12.996094 17.847656 12.730469 17.699219 12.421875 C 17.546875 12.113281 17.472656 11.707031 17.472656 11.199219 C 17.472656 10.667969 17.5625 10.226562 17.746094 9.875 C 17.878906 9.617188 18.058594 9.382812 18.289062 9.179688 C 18.519531 8.972656 18.753906 8.820312 18.996094 8.71875 C 19.382812 8.5625 19.875 8.480469 20.476562 8.480469 Z M 7.851562 11.304688 C 7.578125 11.402344 7.296875 11.488281 7 11.5625 C 6.601562 11.667969 6.347656 11.773438 6.238281 11.878906 C 6.128906 11.984375 6.074219 12.105469 6.074219 12.242188 C 6.074219 12.398438 6.128906 12.523438 6.238281 12.625 C 6.347656 12.722656 6.503906 12.773438 6.714844 12.773438 C 6.933594 12.773438 7.140625 12.71875 7.328125 12.609375 C 7.519531 12.503906 7.652344 12.375 7.730469 12.222656 C 7.8125 12.066406 7.851562 11.867188 7.851562 11.621094 Z M 11.605469 12.316406 L 13.601562 12.316406 L 13.601562 14.78125 C 13.796875 14.574219 14.023438 14.417969 14.273438 14.316406 C 14.523438 14.210938 14.800781 14.160156 15.105469 14.160156 C 15.730469 14.160156 16.25 14.386719 16.660156 14.835938 C 17.074219 15.289062 17.277344 15.9375 17.277344 16.78125 C 17.277344 17.34375 17.183594 17.839844 16.996094 18.269531 C 16.808594 18.695312 16.550781 19.015625 16.21875 19.226562 C 15.886719 19.441406 15.519531 19.546875 15.113281 19.546875 C 14.765625 19.546875 14.449219 19.472656 14.164062 19.324219 C 13.945312 19.207031 13.710938 18.988281 13.457031 18.667969 L 13.457031 19.429688 L 11.605469 19.429688 Z M 14.496094 15.636719 C 14.230469 15.636719 14.011719 15.734375 13.839844 15.933594 C 13.671875 16.132812 13.585938 16.433594 13.585938 16.839844 C 13.585938 17.28125 13.667969 17.601562 13.835938 17.800781 C 14.003906 18 14.210938 18.101562 14.46875 18.101562 C 14.703125 18.101562 14.902344 18.003906 15.0625 17.808594 C 15.222656 17.609375 15.304688 17.28125 15.304688 16.820312 C 15.304688 16.410156 15.226562 16.113281 15.070312 15.921875 C 14.910156 15.730469 14.71875 15.636719 14.496094 15.636719 Z M 14.496094 15.636719 "/>
<path fill="none" stroke-width="20.524557" stroke-linecap="round" stroke-linejoin="round" stroke="rgb(100%, 100%, 100%)" stroke-opacity="1" stroke-miterlimit="4" d="M 73.228237 149.854911 L 510.979353 149.854911 L 510.979353 423.833705 L 73.228237 423.833705 Z M 73.228237 149.854911 " transform="matrix(0.0482759, 0, 0, 0.0482759, 0, 0)"/>
</svg>
