<?xml version="1.0" encoding="UTF-8"?>
<svg xmlns="http://www.w3.org/2000/svg" xmlns:xlink="http://www.w3.org/1999/xlink" width="28" height="28" viewBox="0 0 28 28">
<path fill-rule="nonzero" fill="rgb(6.666667%, 6.666667%, 6.666667%)" fill-opacity="1" stroke-width="3.408" stroke-linecap="butt" stroke-linejoin="miter" stroke="rgb(93.333333%, 93.333333%, 93.333333%)" stroke-opacity="1" stroke-miterlimit="4" d="M 66.269531 1.780134 C 24.921875 1.780134 1.699219 23.141741 1.699219 66.835938 L 1.699219 516.967076 C 1.699219 557.748326 22.575335 579.190848 63.922991 579.190848 L 515.915179 579.190848 C 557.262835 579.190848 578.138951 558.881138 578.138951 516.967076 L 578.138951 66.835938 C 578.138951 24.193638 557.262835 1.780134 514.620536 1.780134 C 514.620536 1.780134 66.107701 1.618304 66.269531 1.780134 Z M 66.269531 1.780134 " transform="matrix(0.0482759, 0, 0, 0.0482759, 0, 0)"/>
<path fill-rule="evenodd" fill="rgb(100%, 100%, 100%)" fill-opacity="1" stroke-width="10" stroke-linecap="round" stroke-linejoin="round" stroke="rgb(100%, 100%, 100%)" stroke-opacity="1" stroke-miterlimit="4" d="M 272.926897 135.452009 L 24.517299 260.223214 L 334.017857 264.349888 L 559.52846 146.780134 Z M 272.926897 135.452009 " transform="matrix(0.0482759, 0, 0, 0.0482759, 0, 0)"/>
<path fill-rule="evenodd" fill="rgb(100%, 100%, 100%)" fill-opacity="1" stroke-width="10" stroke-linecap="round" stroke-linejoin="round" stroke="rgb(100%, 100%, 100%)" stroke-opacity="1" stroke-miterlimit="4" d="M 127.279576 365.412946 L 154.0625 286.116071 L 341.057478 291.456473 L 465.585938 223.649554 L 515.429688 281.503906 C 515.429688 281.503906 452.558594 288.381696 425.128348 305.454799 C 397.698103 322.446987 362.176339 363.470982 362.176339 363.470982 C 362.176339 363.470982 284.821429 336.607143 248.976004 336.040737 C 180.683594 334.907924 131.487165 364.441964 127.279576 365.412946 Z M 127.279576 365.412946 " transform="matrix(0.0482759, 0, 0, 0.0482759, 0, 0)"/>
<path fill-rule="evenodd" fill="rgb(100%, 100%, 100%)" fill-opacity="1" d="M 6.480469 13.523438 L 5.03125 13.542969 C 4.828125 13.878906 4.683594 14.304688 4.527344 14.808594 C 4.304688 15.53125 4.113281 16.402344 4 17.269531 C 3.578125 20.535156 3.578125 22.046875 3.578125 22.046875 L 4.542969 22.046875 C 4.542969 22.046875 4.542969 20.621094 4.957031 17.394531 C 5.0625 16.582031 5.242188 15.753906 5.449219 15.09375 C 5.65625 14.429688 5.941406 13.910156 6.011719 13.835938 C 6.183594 13.667969 6.332031 13.585938 6.429688 13.542969 C 6.453125 13.535156 6.46875 13.527344 6.480469 13.523438 Z M 6.480469 13.523438 "/>
<path fill-rule="nonzero" fill="rgb(100%, 100%, 100%)" fill-opacity="1" stroke-width="15.474642" stroke-linecap="butt" stroke-linejoin="round" stroke="rgb(100%, 100%, 100%)" stroke-opacity="1" stroke-miterlimit="4" d="M 106.484375 433.219866 C 106.484375 446.328125 91.838728 480.959821 78.730469 480.959821 C 65.62221 480.959821 58.987165 446.328125 58.987165 433.219866 C 58.987165 420.111607 69.587054 409.511719 82.695312 409.511719 C 95.803571 409.511719 106.484375 420.111607 106.484375 433.219866 Z M 106.484375 433.219866 " transform="matrix(0.0482759, 0, 0, 0.0482759, 0, 0)"/>
<path fill="none" stroke-width="10" stroke-linecap="round" stroke-linejoin="round" stroke="rgb(100%, 100%, 100%)" stroke-opacity="1" stroke-miterlimit="4" d="M 81.967076 438.155692 L 69.182478 492.773438 Z M 81.967076 438.155692 " transform="matrix(0.0482759, 0, 0, 0.0482759, 0, 0)"/>
<path fill="none" stroke-width="10" stroke-linecap="round" stroke-linejoin="round" stroke="rgb(100%, 100%, 100%)" stroke-opacity="1" stroke-miterlimit="4" d="M 106.40346 437.912946 L 88.602121 496.495536 Z M 106.40346 437.912946 " transform="matrix(0.0482759, 0, 0, 0.0482759, 0, 0)"/>
<path fill="none" stroke-width="10" stroke-linecap="round" stroke-linejoin="round" stroke="rgb(100%, 100%, 100%)" stroke-opacity="1" stroke-miterlimit="4" d="M 56.074219 432.491629 L 51.785714 485.733817 Z M 56.074219 432.491629 " transform="matrix(0.0482759, 0, 0, 0.0482759, 0, 0)"/>
<path fill="none" stroke-width="10" stroke-linecap="round" stroke-linejoin="round" stroke="rgb(100%, 100%, 100%)" stroke-opacity="1" stroke-miterlimit="4" d="M 65.703125 436.618304 L 61.414621 489.860491 Z M 65.703125 436.618304 " transform="matrix(0.0482759, 0, 0, 0.0482759, 0, 0)"/>
<path fill="none" stroke-width="10" stroke-linecap="round" stroke-linejoin="round" stroke="rgb(100%, 100%, 100%)" stroke-opacity="1" stroke-miterlimit="4" d="M 91.919643 440.178571 L 79.21596 494.796317 Z M 91.919643 440.178571 " transform="matrix(0.0482759, 0, 0, 0.0482759, 0, 0)"/>
</svg>
