<?xml version="1.0" encoding="UTF-8"?>
<svg xmlns="http://www.w3.org/2000/svg" xmlns:xlink="http://www.w3.org/1999/xlink" width="28" height="28" viewBox="0 0 28 28">
<defs>
<filter id="filter-remove-color" x="0%" y="0%" width="100%" height="100%">
<feColorMatrix color-interpolation-filters="sRGB" values="0 0 0 0 1 0 0 0 0 1 0 0 0 0 1 0 0 0 1 0" />
</filter>
<mask id="mask-0">
<g filter="url(#filter-remove-color)">
<rect x="-2.8" y="-2.8" width="33.6" height="33.6" fill="rgb(0%, 0%, 0%)" fill-opacity="0.1"/>
</g>
</mask>
<clipPath id="clip-0">
<rect x="0" y="0" width="28" height="28"/>
</clipPath>
<g id="source-8" clip-path="url(#clip-0)">
<path fill-rule="nonzero" fill="rgb(100%, 100%, 100%)" fill-opacity="1" d="M 1.675781 19.703125 C 1.789062 19.4375 3.238281 17.390625 4.898438 15.15625 C 7.277344 11.945312 8.5 10.835938 10.691406 9.890625 C 14.125 8.414062 17.5625 8.328125 18.816406 9.691406 C 21.777344 12.910156 24.832031 16.589844 25.710938 17.992188 C 27.375 20.679688 24.617188 20.996094 17.308594 21.175781 C 13.417969 21.285156 13.195312 21.21875 9.152344 21.257812 C 7.265625 21.203125 1.605469 20.304688 1.675781 19.703125 Z M 1.675781 19.703125 "/>
</g>
</defs>
<path fill-rule="nonzero" fill="rgb(6.666667%, 6.666667%, 6.666667%)" fill-opacity="1" stroke-width="3.408" stroke-linecap="butt" stroke-linejoin="miter" stroke="rgb(93.333333%, 93.333333%, 93.333333%)" stroke-opacity="1" stroke-miterlimit="4" d="M 66.269531 1.780134 C 24.921875 1.780134 1.699219 23.141741 1.699219 66.835938 L 1.699219 516.967076 C 1.699219 557.748326 22.575335 579.190848 63.922991 579.190848 L 515.915179 579.190848 C 557.262835 579.190848 578.138951 558.800223 578.138951 516.967076 L 578.138951 66.835938 C 578.138951 24.193638 557.262835 1.780134 514.620536 1.780134 C 514.620536 1.780134 66.107701 1.618304 66.269531 1.780134 Z M 66.269531 1.780134 " transform="matrix(0.0482759, 0, 0, 0.0482759, 0, 0)"/>
<path fill-rule="nonzero" fill="rgb(100%, 100%, 100%)" fill-opacity="1" d="M 1.675781 19.703125 C 1.789062 19.4375 3.238281 17.390625 4.898438 15.15625 C 7.277344 11.945312 8.5 10.835938 10.691406 9.890625 C 14.125 8.414062 17.5625 8.328125 18.816406 9.691406 C 21.777344 12.910156 24.832031 16.589844 25.710938 17.992188 C 26.953125 19.96875 26.320312 20.890625 25.011719 19.015625 C 24.496094 18.277344 23.050781 16.511719 21.796875 15.09375 C 16.433594 9.015625 16.417969 9.007812 11.4375 11.132812 C 8.988281 12.175781 8.035156 13.039062 5.96875 16.09375 C 4.589844 18.125 3.011719 19.878906 2.464844 19.988281 C 1.917969 20.09375 1.5625 19.96875 1.675781 19.703125 Z M 1.675781 19.703125 "/>
<g mask="url(#mask-0)">
<use xlink:href="#source-8"/>
</g>
<path fill-rule="nonzero" fill="rgb(100%, 100%, 100%)" fill-opacity="1" d="M 7.289062 20.042969 C 7.289062 18.480469 11.644531 13.535156 13.019531 13.535156 C 15.21875 13.535156 17.5 14.902344 19.164062 17.214844 C 20.144531 18.582031 20.945312 19.847656 20.945312 20.03125 C 20.945312 20.214844 17.871094 20.363281 14.117188 20.363281 C 10.359375 20.363281 7.289062 20.21875 7.289062 20.042969 Z M 7.289062 20.042969 "/>
</svg>
