<?xml version="1.0" encoding="UTF-8"?>
<svg xmlns="http://www.w3.org/2000/svg" xmlns:xlink="http://www.w3.org/1999/xlink" width="28" height="28" viewBox="0 0 28 28">
<path fill-rule="nonzero" fill="rgb(6.666667%, 6.666667%, 6.666667%)" fill-opacity="1" stroke-width="3.408" stroke-linecap="butt" stroke-linejoin="miter" stroke="rgb(93.333333%, 93.333333%, 93.333333%)" stroke-opacity="1" stroke-miterlimit="4" d="M 66.269531 1.780134 C 24.921875 1.780134 1.699219 23.141741 1.699219 66.835938 L 1.699219 516.967076 C 1.699219 557.748326 22.575335 579.190848 63.922991 579.190848 L 515.915179 579.190848 C 557.262835 579.190848 578.138951 558.800223 578.138951 516.967076 L 578.138951 66.835938 C 578.138951 24.193638 557.262835 1.780134 514.620536 1.780134 C 514.620536 1.780134 66.107701 1.618304 66.269531 1.780134 Z M 66.269531 1.780134 " transform="matrix(0.0482759, 0, 0, 0.0482759, 0, 0)"/>
<path fill="none" stroke-width="27.802547" stroke-linecap="round" stroke-linejoin="round" stroke="rgb(100%, 100%, 100%)" stroke-opacity="1" stroke-miterlimit="4" d="M -279.285163 527.09428 L -220.943717 224.030068 L -147.267464 221.262885 L -102.761934 521.502264 " transform="matrix(0.0677584, 0, 0, 0.0677584, 23.302831, -10.949458)"/>
<path fill="none" stroke-width="27.802547" stroke-linecap="round" stroke-linejoin="round" stroke="rgb(100%, 100%, 100%)" stroke-opacity="1" stroke-miterlimit="4" d="M -286.26077 222.646476 L -287.471413 304.681929 L -170.90382 299.089913 L 8.444242 218.495702 Z M -286.26077 222.646476 " transform="matrix(0.0677584, 0, 0, 0.0677584, 23.302831, -10.949458)"/>
<path fill="none" stroke-width="13.901274" stroke-linecap="butt" stroke-linejoin="miter" stroke="rgb(100%, 100%, 100%)" stroke-opacity="1" stroke-miterlimit="4" d="M -272.367205 489.564357 L -119.422683 438.140869 L -240.371649 378.358182 L -131.932657 322.726269 " transform="matrix(0.0677584, 0, 0, 0.0677584, 23.302831, -10.949458)"/>
<path fill="none" stroke-width="12.293" stroke-linecap="round" stroke-linejoin="round" stroke="rgb(100%, 100%, 100%)" stroke-opacity="1" stroke-miterlimit="4" d="M 18.187033 217.05446 L 18.187033 421.768369 " transform="matrix(0.0677584, 0, 0, 0.0677584, 23.302831, -10.949458)"/>
<path fill="none" stroke-width="22.242037" stroke-linecap="round" stroke-linejoin="round" stroke="rgb(100%, 100%, 100%)" stroke-opacity="1" stroke-miterlimit="4" d="M 16.803441 411.67968 C 16.803441 411.67968 23.951998 439.582111 20.954216 454.801618 C 17.956434 470.021126 -24.934906 449.267252 -24.934906 449.267252 " transform="matrix(0.0677584, 0, 0, 0.0677584, 23.302831, -10.949458)"/>
</svg>
