<?xml version="1.0" encoding="UTF-8"?>
<svg xmlns="http://www.w3.org/2000/svg" xmlns:xlink="http://www.w3.org/1999/xlink" width="28" height="28" viewBox="0 0 28 28">
<path fill-rule="nonzero" fill="rgb(6.666667%, 6.666667%, 6.666667%)" fill-opacity="1" stroke-width="3.408" stroke-linecap="butt" stroke-linejoin="miter" stroke="rgb(93.333333%, 93.333333%, 93.333333%)" stroke-opacity="1" stroke-miterlimit="4" d="M 66.269531 1.780134 C 24.921875 1.780134 1.699219 23.141741 1.699219 66.835938 L 1.699219 516.967076 C 1.699219 557.748326 22.575335 579.190848 63.922991 579.190848 L 515.915179 579.190848 C 557.262835 579.190848 578.138951 558.881138 578.138951 516.967076 L 578.138951 66.835938 C 578.138951 24.193638 557.262835 1.780134 514.620536 1.780134 C 514.620536 1.780134 66.107701 1.618304 66.269531 1.780134 Z M 66.269531 1.780134 " transform="matrix(0.0482759, 0, 0, 0.0482759, 0, 0)"/>
<path fill-rule="nonzero" fill="rgb(100%, 100%, 100%)" fill-opacity="1" stroke-width="4.217406" stroke-linecap="round" stroke-linejoin="round" stroke="rgb(100%, 100%, 100%)" stroke-opacity="1" stroke-miterlimit="4" d="M 45.393415 51.704799 C 45.393415 51.704799 29.048549 101.791295 56.55971 138.445871 C 70.558036 159.645647 105.998884 181.978237 138.28404 192.254464 L 186.266741 244.84933 C 177.285156 238.942522 166.442522 233.197545 153.819754 228.666295 C 112.391183 213.777902 56.802455 231.498326 57.530692 229.880022 C 57.530692 229.880022 77.112165 285.873326 120.15904 301.489955 C 144.83817 312.170759 197.352121 308.610491 214.506138 278.267299 C 243.959263 312.81808 270.499442 334.179688 294.854911 348.258929 C 267.18192 344.941406 239.104353 344.21317 211.350446 347.126116 C 173.643973 352.952009 153.496094 379.330357 113.928571 400.772879 C 111.09654 402.714844 100.982143 412.424665 97.50279 412.829241 C 134.319196 434.352679 170.650112 467.932478 205.767299 471.978237 C 274.868862 479.907924 339.358259 429.012277 337.416295 367.435826 C 352.061942 372.371652 365.817522 375.770089 379.006696 379.330357 C 403.362165 385.884487 419.464286 393.247768 442.606027 412.748326 C 465.666853 432.329799 483.872768 464.453125 510.898438 521.174665 L 534.202009 515.753348 C 506.690848 458.060826 481.607143 424.319196 456.604353 403.200335 C 431.682478 382.081473 407.084263 374.070871 382.243304 367.354911 C 370.915179 364.280134 373.504464 367.516741 361.690848 363.875558 C 418.978795 330.376674 409.835379 183.677455 298.172433 136.261161 C 263.459821 234.330357 294.69308 305.697545 336.445312 354.732143 C 306.263951 341.704799 259.009487 313.060826 219.118304 264.511719 C 280.047433 202.611607 262.003348 132.700893 183.030134 68.616071 C 146.294643 145.970982 164.824219 191.849888 193.387277 234.249442 L 150.340402 186.994978 C 150.340402 172.34933 147.751116 141.520647 128.331473 115.789621 C 101.791295 80.672433 43.856027 52.675781 45.393415 51.704799 Z M 45.393415 51.704799 " transform="matrix(0.0482759, 0, 0, 0.0482759, 0, 0)"/>
</svg>
