<?xml version="1.0" encoding="UTF-8"?>
<svg xmlns="http://www.w3.org/2000/svg" xmlns:xlink="http://www.w3.org/1999/xlink" width="28" height="28" viewBox="0 0 28 28">
<path fill-rule="nonzero" fill="rgb(6.666667%, 6.666667%, 6.666667%)" fill-opacity="1" stroke-width="3.408" stroke-linecap="butt" stroke-linejoin="miter" stroke="rgb(93.333333%, 93.333333%, 93.333333%)" stroke-opacity="1" stroke-miterlimit="4" d="M 66.269531 1.780134 C 24.921875 1.780134 1.699219 23.141741 1.699219 66.835938 L 1.699219 516.967076 C 1.699219 557.748326 22.575335 579.190848 63.922991 579.190848 L 515.915179 579.190848 C 557.262835 579.190848 578.138951 558.881138 578.138951 516.967076 L 578.138951 66.835938 C 578.138951 24.193638 557.262835 1.780134 514.620536 1.780134 C 514.620536 1.780134 66.107701 1.618304 66.269531 1.780134 Z M 66.269531 1.780134 " transform="matrix(0.0482759, 0, 0, 0.0482759, 0, 0)"/>
<path fill-rule="nonzero" fill="rgb(100%, 100%, 100%)" fill-opacity="1" d="M 5.371094 1.71875 C 5.222656 1.710938 5.085938 1.84375 5.089844 1.988281 L 5.183594 15.292969 C 5.183594 15.640625 5.410156 15.910156 5.695312 16.15625 C 5.980469 16.402344 6.351562 16.628906 6.757812 16.828125 C 7.574219 17.222656 8.519531 17.511719 9.207031 17.511719 C 10.09375 17.511719 11.136719 17.167969 12.15625 16.835938 C 13.171875 16.5 14.167969 16.183594 14.828125 16.183594 C 15.484375 16.183594 16.277344 16.496094 17.132812 16.832031 C 17.984375 17.164062 18.902344 17.511719 19.855469 17.511719 C 21.738281 17.511719 23.824219 16.449219 23.824219 16.449219 C 23.914062 16.40625 23.972656 16.308594 23.972656 16.207031 L 23.972656 2.300781 C 23.972656 2.210938 23.921875 2.121094 23.84375 2.074219 C 23.765625 2.023438 23.664062 2.019531 23.582031 2.0625 C 23.582031 2.0625 21.527344 3.066406 19.855469 3.066406 C 19.035156 3.066406 18.175781 2.75 17.328125 2.417969 C 16.480469 2.089844 15.648438 1.738281 14.828125 1.738281 C 14.007812 1.738281 13.003906 2.082031 11.988281 2.414062 C 10.972656 2.746094 9.945312 3.066406 9.207031 3.066406 C 8.464844 3.066406 7.523438 2.746094 6.78125 2.414062 C 6.039062 2.085938 5.5 1.757812 5.5 1.757812 C 5.460938 1.734375 5.414062 1.71875 5.371094 1.71875 Z M 5.371094 1.71875 "/>
<path fill-rule="evenodd" fill="rgb(100%, 100%, 100%)" fill-opacity="1" d="M 4.605469 1.609375 C 4.464844 1.609375 4.335938 1.738281 4.335938 1.878906 L 4.335938 26.917969 C 4.335938 27.058594 4.464844 27.1875 4.605469 27.1875 L 5.394531 27.1875 C 5.539062 27.1875 5.667969 27.058594 5.667969 26.917969 L 5.667969 1.878906 C 5.667969 1.738281 5.539062 1.609375 5.394531 1.609375 Z M 4.605469 1.609375 "/>
<path fill-rule="nonzero" fill="rgb(100%, 100%, 100%)" fill-opacity="1" stroke-width="2.501969" stroke-linecap="round" stroke-linejoin="round" stroke="rgb(100%, 100%, 100%)" stroke-opacity="1" stroke-miterlimit="4" d="M 137.798549 86.09375 C 137.798549 86.09375 131.648996 116.760603 150.340402 136.422991 C 160.050223 147.993862 182.463728 158.674665 202.207031 162.558594 L 234.087612 190.231585 C 228.423549 187.399554 221.626674 184.729353 213.858817 182.868304 C 188.451451 177.042411 156.894531 191.283482 157.218192 190.231585 C 157.218192 190.231585 172.592076 221.950335 199.051339 228.180804 C 214.344308 232.712054 245.011161 227.047991 253.102679 207.952009 C 272.765067 226.319754 289.919085 237.081473 305.212054 243.716518 C 288.705357 243.635603 272.03683 245.092076 255.93471 248.814174 C 234.168527 254.801897 224.054129 271.71317 202.207031 287.087054 C 200.669643 288.381696 195.410156 294.854911 193.387277 295.340402 C 216.529018 305.454799 240.237165 322.770647 261.194196 322.689732 C 302.460938 322.608817 337.011719 288.219866 331.671317 252.050781 C 340.571987 253.992746 348.90625 254.963728 356.916853 256.177455 C 371.72433 258.362165 385.31808 261.194196 400.206473 271.146763 C 415.175781 281.018415 431.682478 298.334263 451.506696 329.891183 L 457.737165 325.926339 C 437.589286 293.803013 420.516183 275.678013 404.333147 264.916295 C 388.150112 254.235491 373.180804 251.160714 358.049665 248.895089 C 351.171875 247.843192 344.21317 247.03404 337.011719 245.739397 C 368.487723 222.03125 353.032924 136.180246 283.931362 115.951451 C 270.256696 176.152344 293.479353 216.043527 321.476004 242.098214 C 302.865513 236.515067 281.665737 225.429688 254.801897 199.53683 C 286.439732 158.917411 271.065848 118.945312 220.089286 86.579241 C 203.74442 134.723772 217.823661 160.454799 237.566964 183.43471 L 209.003906 158.59375 C 207.952009 150.016741 204.310826 131.972656 191.040737 118.136161 C 172.996652 99.282924 136.989397 86.821987 137.798549 86.09375 Z M 137.798549 86.09375 " transform="matrix(0.0482759, 0, 0, 0.0482759, 0, 0)"/>
</svg>
