<?xml version="1.0" encoding="UTF-8"?>
<svg xmlns="http://www.w3.org/2000/svg" xmlns:xlink="http://www.w3.org/1999/xlink" width="28" height="28" viewBox="0 0 28 28">
<defs>
<filter id="filter-remove-color" x="0%" y="0%" width="100%" height="100%">
<feColorMatrix color-interpolation-filters="sRGB" values="0 0 0 0 1 0 0 0 0 1 0 0 0 0 1 0 0 0 1 0" />
</filter>
<mask id="mask-0">
<g filter="url(#filter-remove-color)">
<rect x="-2.8" y="-2.8" width="33.6" height="33.6" fill="rgb(0%, 0%, 0%)" fill-opacity="0.1"/>
</g>
</mask>
<clipPath id="clip-0">
<rect x="0" y="0" width="28" height="28"/>
</clipPath>
<g id="source-7" clip-path="url(#clip-0)">
<path fill-rule="nonzero" fill="rgb(100%, 100%, 100%)" fill-opacity="1" stroke-width="10" stroke-linecap="round" stroke-linejoin="round" stroke="rgb(100%, 100%, 100%)" stroke-opacity="1" stroke-miterlimit="4" d="M 376.498326 54.860491 C 365.493862 61.414621 357.159598 71.609933 347.045201 79.37779 C 338.144531 87.469308 327.787388 94.913504 320.505022 104.542411 C 320.262277 113.44308 330.457589 117.165179 335.069754 123.638393 C 352.385603 140.792411 369.782366 158.027344 387.179129 175.181362 C 362.33817 202.207031 336.849888 228.74721 312.251674 255.93471 C 309.581473 264.107143 318.805804 268.395647 323.256138 273.088728 C 326.978237 278.59096 335.878906 285.064174 341.623884 278.429129 C 365.170201 250.513393 389.930246 223.325893 414.609375 196.462054 C 430.549665 204.310826 439.69308 220.655692 454.824219 229.556362 C 481.849888 243.311942 508.309152 258.604911 535.739397 271.389509 C 541.969866 271.875 543.58817 263.136161 539.461496 259.575893 C 522.550223 227.614397 510.817522 192.982701 492.773438 161.506696 C 483.710938 152.686942 473.920201 144.514509 464.614955 136.018415 C 469.955357 130.354353 478.613281 125.742188 479.584263 117.407924 C 474.162946 110.772879 467.608817 103.490513 459.112723 101.629464 C 452.073103 104.542411 448.108259 111.339286 442.606027 116.032366 C 421.325335 96.369978 400.530134 76.303013 380.139509 55.588728 C 379.006696 55.022321 377.792969 54.698661 376.498326 54.860491 Z M 240.31808 334.098772 C 231.09375 340.00558 225.429688 349.877232 217.33817 357.078683 C 178.741629 398.58817 139.659598 439.773996 101.386719 481.526228 C 98.797433 490.265067 108.992746 494.391741 113.685826 499.570312 C 119.430804 503.858817 124.204799 512.840402 132.296317 511.788504 C 156.813616 487.02846 178.741629 459.84096 202.368862 434.271763 C 223.811384 409.835379 245.982143 385.965402 266.858259 361.124442 C 268.800223 351.981027 258.200335 347.854353 253.507254 342.19029 C 250.027902 338.468192 246.224888 332.561384 240.31808 334.098772 Z M 240.31808 334.098772 " transform="matrix(0.0482759, 0, 0, 0.0482759, 0, 0)"/>
</g>
<mask id="mask-1">
<g filter="url(#filter-remove-color)">
<rect x="-2.8" y="-2.8" width="33.6" height="33.6" fill="rgb(0%, 0%, 0%)" fill-opacity="0.1"/>
</g>
</mask>
<clipPath id="clip-1">
<rect x="0" y="0" width="28" height="28"/>
</clipPath>
<g id="source-11" clip-path="url(#clip-1)">
<path fill-rule="nonzero" fill="rgb(100%, 100%, 100%)" fill-opacity="1" stroke-width="10" stroke-linecap="round" stroke-linejoin="round" stroke="rgb(100%, 100%, 100%)" stroke-opacity="1" stroke-miterlimit="4" d="M 211.835938 53.242188 C 197.19029 61.09096 184.486607 72.014509 170.569196 80.996094 C 132.215402 107.779018 95.31808 138.12221 70.477121 178.337054 C 58.097098 197.109375 45.15067 215.638951 33.417969 234.654018 C 34.146205 244.202009 45.15067 246.063058 50.814732 251.888951 C 64.327567 260.951451 76.626674 272.926897 91.434152 279.885603 C 100.577567 277.700893 102.681362 266.777344 108.58817 260.62779 C 123.395647 239.751674 137.474888 218.147321 152.686942 197.756696 C 157.865513 201.074219 160.212054 207.304688 165.552455 210.864955 C 263.783482 308.853237 361.286272 407.569754 459.274554 505.881696 C 466.799665 510.008371 472.382812 501.269531 476.752232 496.495536 C 481.688058 490.426897 490.993304 485.976562 491.55971 477.480469 C 479.260603 462.592076 463.967634 449.645647 450.050223 435.970982 C 358.858817 348.74442 267.424665 260.951451 176.071429 173.724888 C 175.747768 171.702009 180.602679 171.459263 181.492746 169.436384 C 206.333705 150.987723 232.307478 133.833705 256.420201 114.575893 C 259.333147 105.513393 249.299665 100.334821 245.577567 93.376116 C 234.815848 80.186942 226.157924 64.813058 213.535156 53.404018 C 212.96875 53.242188 212.402344 53.242188 211.835938 53.242188 Z M 211.835938 53.242188 " transform="matrix(0.0482759, 0, 0, 0.0482759, 0, 0)"/>
</g>
</defs>
<path fill-rule="nonzero" fill="rgb(6.666667%, 6.666667%, 6.666667%)" fill-opacity="1" stroke-width="3.408" stroke-linecap="butt" stroke-linejoin="miter" stroke="rgb(93.333333%, 93.333333%, 93.333333%)" stroke-opacity="1" stroke-miterlimit="4" d="M 66.269531 1.780134 C 24.921875 1.780134 1.699219 23.141741 1.699219 66.835938 L 1.699219 516.967076 C 1.699219 557.748326 22.575335 579.190848 63.922991 579.190848 L 515.915179 579.190848 C 557.262835 579.190848 578.138951 558.800223 578.138951 516.967076 L 578.138951 66.835938 C 578.138951 24.193638 557.262835 1.780134 514.620536 1.780134 C 514.620536 1.780134 66.107701 1.618304 66.269531 1.780134 Z M 66.269531 1.780134 " transform="matrix(0.0482759, 0, 0, 0.0482759, 0, 0)"/>
<g mask="url(#mask-0)">
<use xlink:href="#source-7"/>
</g>
<g mask="url(#mask-1)">
<use xlink:href="#source-11"/>
</g>
<path fill="none" stroke-width="10" stroke-linecap="round" stroke-linejoin="round" stroke="rgb(100%, 100%, 100%)" stroke-opacity="1" stroke-miterlimit="4" d="M 211.835938 53.242188 C 197.19029 61.09096 184.486607 72.014509 170.569196 80.996094 C 132.215402 107.779018 95.31808 138.12221 70.477121 178.337054 C 58.097098 197.109375 45.15067 215.638951 33.417969 234.654018 C 34.146205 244.202009 45.15067 246.063058 50.814732 251.888951 C 64.327567 260.951451 76.626674 272.926897 91.434152 279.885603 C 100.577567 277.700893 102.681362 266.777344 108.58817 260.62779 C 123.395647 239.751674 137.474888 218.147321 152.686942 197.756696 C 157.865513 201.074219 160.212054 207.304688 165.552455 210.864955 C 263.783482 308.853237 361.286272 407.569754 459.274554 505.881696 C 466.799665 510.008371 472.382812 501.269531 476.752232 496.495536 C 481.688058 490.426897 490.993304 485.976562 491.55971 477.480469 C 479.260603 462.592076 463.967634 449.645647 450.050223 435.970982 C 358.858817 348.74442 267.424665 260.951451 176.071429 173.724888 C 175.747768 171.702009 180.602679 171.459263 181.492746 169.436384 C 206.333705 150.987723 232.307478 133.833705 256.420201 114.575893 C 259.333147 105.513393 249.299665 100.334821 245.577567 93.376116 C 234.815848 80.186942 226.157924 64.813058 213.535156 53.404018 C 212.96875 53.242188 212.402344 53.242188 211.835938 53.242188 Z M 211.835938 53.242188 " transform="matrix(0.0482759, 0, 0, 0.0482759, 0, 0)"/>
<path fill="none" stroke-width="10" stroke-linecap="round" stroke-linejoin="round" stroke="rgb(100%, 100%, 100%)" stroke-opacity="1" stroke-miterlimit="4" d="M 376.498326 54.860491 C 365.493862 61.414621 357.159598 71.609933 347.045201 79.37779 C 338.144531 87.469308 327.787388 94.913504 320.505022 104.542411 C 320.262277 113.44308 330.457589 117.165179 335.069754 123.638393 C 352.385603 140.792411 369.782366 158.027344 387.179129 175.181362 C 362.33817 202.207031 336.849888 228.74721 312.251674 255.93471 C 309.581473 264.107143 318.805804 268.395647 323.256138 273.088728 C 326.978237 278.59096 335.878906 285.064174 341.623884 278.429129 C 365.170201 250.513393 389.930246 223.325893 414.609375 196.462054 C 430.549665 204.310826 439.69308 220.655692 454.824219 229.556362 C 481.849888 243.311942 508.309152 258.604911 535.739397 271.389509 C 541.969866 271.875 543.58817 263.136161 539.461496 259.575893 C 522.550223 227.614397 510.817522 192.982701 492.773438 161.506696 C 483.710938 152.686942 473.920201 144.514509 464.614955 136.018415 C 469.955357 130.354353 478.613281 125.742188 479.584263 117.407924 C 474.162946 110.772879 467.608817 103.490513 459.112723 101.629464 C 452.073103 104.542411 448.108259 111.339286 442.606027 116.032366 C 421.325335 96.369978 400.530134 76.303013 380.139509 55.588728 C 379.006696 55.022321 377.792969 54.698661 376.498326 54.860491 Z M 240.31808 334.098772 C 231.09375 340.00558 225.429688 349.877232 217.33817 357.078683 C 178.741629 398.58817 139.659598 439.773996 101.386719 481.526228 C 98.797433 490.265067 108.992746 494.391741 113.685826 499.570312 C 119.430804 503.858817 124.204799 512.840402 132.296317 511.788504 C 156.813616 487.02846 178.741629 459.84096 202.368862 434.271763 C 223.811384 409.835379 245.982143 385.965402 266.858259 361.124442 C 268.800223 351.981027 258.200335 347.854353 253.507254 342.19029 C 250.027902 338.468192 246.224888 332.561384 240.31808 334.098772 Z M 240.31808 334.098772 " transform="matrix(0.0482759, 0, 0, 0.0482759, 0, 0)"/>
</svg>
