<?xml version="1.0" encoding="UTF-8"?>
<svg xmlns="http://www.w3.org/2000/svg" xmlns:xlink="http://www.w3.org/1999/xlink" width="28" height="28" viewBox="0 0 28 28">
<path fill-rule="nonzero" fill="rgb(6.666667%, 6.666667%, 6.666667%)" fill-opacity="1" stroke-width="3.408" stroke-linecap="butt" stroke-linejoin="miter" stroke="rgb(93.333333%, 93.333333%, 93.333333%)" stroke-opacity="1" stroke-miterlimit="4" d="M 66.269531 1.780134 C 24.921875 1.780134 1.699219 23.141741 1.699219 66.835938 L 1.699219 516.967076 C 1.699219 557.748326 22.575335 579.190848 63.922991 579.190848 L 515.915179 579.190848 C 557.262835 579.190848 578.138951 558.800223 578.138951 516.967076 L 578.138951 66.835938 C 578.138951 24.193638 557.262835 1.780134 514.620536 1.780134 C 514.620536 1.780134 66.107701 1.618304 66.269531 1.780134 Z M 66.269531 1.780134 " transform="matrix(0.0482759, 0, 0, 0.0482759, 0, 0)"/>
<path fill-rule="nonzero" fill="rgb(100%, 100%, 100%)" fill-opacity="1" stroke-width="20" stroke-linecap="round" stroke-linejoin="round" stroke="rgb(100%, 100%, 100%)" stroke-opacity="1" stroke-miterlimit="4" d="M 382.97154 74.927455 L 331.428571 120.15904 L 401.177455 189.017857 C 375.122768 217.257254 348.987165 245.334821 322.770647 273.412388 C 328.758371 278.995536 334.746094 284.578683 340.652902 290.16183 C 366.222098 261.356027 391.87221 232.631138 417.684152 204.148996 C 423.024554 200.265067 453.529576 229.556362 457.251674 235.139509 L 541.808036 279.723772 C 537.195871 276.40625 499.084821 183.677455 493.097098 178.417969 C 483.791853 170.326451 472.949219 160.616629 461.621094 150.421317 L 479.503348 133.024554 L 465.747768 121.291853 L 448.351004 138.364955 C 423.995536 116.032366 398.992746 92.243304 382.97154 74.927455 Z M 247.843192 353.4375 C 243.635603 357.96875 239.428013 362.5 235.139509 367.112165 L 111.905692 498.922991 L 135.694754 520.608259 L 255.691964 385.803571 C 259.575893 381.353237 263.540737 376.902902 267.50558 372.452567 C 260.951451 366.141183 254.397321 359.748884 247.843192 353.4375 Z M 247.843192 353.4375 " transform="matrix(0.0482759, 0, 0, 0.0482759, 0, 0)"/>
<path fill-rule="nonzero" fill="rgb(100%, 100%, 100%)" fill-opacity="1" stroke-width="20" stroke-linecap="round" stroke-linejoin="round" stroke="rgb(100%, 100%, 100%)" stroke-opacity="1" stroke-miterlimit="4" d="M 116.032366 151.635045 C 87.550223 180.521763 68.454241 217.33817 44.584263 250.027902 L 97.421875 288.543527 L 154.547991 206.171875 C 161.425781 202.530692 165.876116 211.431362 170.00279 215.396205 C 227.614397 272.522321 284.578683 330.457589 341.866629 387.826451 L 469.146205 515.834263 L 491.640625 492.854353 L 361.286272 368.002232 C 302.784598 311.766183 243.878348 256.015625 185.700335 199.455915 C 181.654576 195.410156 172.672991 191.121652 176.152344 184.162946 L 257.472098 125.499442 L 217.904576 73.390067 C 182.706473 98.069196 146.861049 121.453683 116.032366 151.635045 Z M 116.032366 151.635045 " transform="matrix(0.0482759, 0, 0, 0.0482759, 0, 0)"/>
</svg>
