<?xml version="1.0" encoding="UTF-8"?>
<svg xmlns="http://www.w3.org/2000/svg" xmlns:xlink="http://www.w3.org/1999/xlink" width="28" height="28" viewBox="0 0 28 28">
<defs>
<filter id="filter-remove-color" x="0%" y="0%" width="100%" height="100%">
<feColorMatrix color-interpolation-filters="sRGB" values="0 0 0 0 1 0 0 0 0 1 0 0 0 0 1 0 0 0 1 0" />
</filter>
<mask id="mask-0">
<g filter="url(#filter-remove-color)">
<rect x="-2.8" y="-2.8" width="33.6" height="33.6" fill="rgb(0%, 0%, 0%)" fill-opacity="0.25"/>
</g>
</mask>
<clipPath id="clip-0">
<rect x="0" y="0" width="28" height="28"/>
</clipPath>
<g id="source-10" clip-path="url(#clip-0)">
<path fill-rule="nonzero" fill="rgb(100%, 100%, 100%)" fill-opacity="1" d="M 16.570312 4.601562 L 16.128906 5.539062 L 15.773438 6.296875 C 14.535156 8.917969 13.296875 11.539062 12.050781 14.15625 C 11.457031 13.335938 10.859375 12.519531 10.257812 11.707031 L 9.828125 11.121094 L 9.449219 11.738281 C 7.105469 15.488281 4.785156 19.25 2.429688 22.988281 L 1.960938 23.730469 L 2.839844 23.734375 C 10.199219 23.796875 17.554688 23.855469 24.910156 23.921875 L 25.695312 23.925781 L 25.359375 23.21875 C 22.585938 17.320312 19.796875 11.433594 17.011719 5.539062 Z M 16.570312 4.601562 "/>
</g>
</defs>
<path fill-rule="nonzero" fill="rgb(6.666667%, 6.666667%, 6.666667%)" fill-opacity="1" stroke-width="3.408" stroke-linecap="butt" stroke-linejoin="miter" stroke="rgb(93.333333%, 93.333333%, 93.333333%)" stroke-opacity="1" stroke-miterlimit="4" d="M 66.269531 1.780134 C 24.921875 1.780134 1.699219 23.141741 1.699219 66.835938 L 1.699219 516.967076 C 1.699219 557.748326 22.575335 579.190848 63.922991 579.190848 L 515.915179 579.190848 C 557.262835 579.190848 578.138951 558.881138 578.138951 516.967076 L 578.138951 66.835938 C 578.138951 24.193638 557.262835 1.780134 514.620536 1.780134 C 514.620536 1.780134 66.107701 1.618304 66.269531 1.780134 Z M 66.269531 1.780134 " transform="matrix(0.0482759, 0, 0, 0.0482759, 0, 0)"/>
<path fill="none" stroke-width="5" stroke-linecap="butt" stroke-linejoin="miter" stroke="rgb(100%, 100%, 100%)" stroke-opacity="1" stroke-miterlimit="4" d="M 348.778882 372.607789 C 341.900763 387.198942 335.002766 401.809973 328.065011 416.381247 C 324.228373 411.093445 320.351976 405.805643 316.47558 400.53772 C 304.548207 419.621517 292.740108 438.76495 280.753099 457.78911 C 318.18517 458.107173 355.617242 458.405357 393.069193 458.72342 C 378.955135 428.706199 364.761561 398.748614 350.587866 368.751272 C 349.991498 370.043404 349.395129 371.315657 348.778882 372.607789 Z M 348.778882 372.607789 " transform="matrix(0.196502, 0, 0, 0.196502, -52.320828, -66.710282)"/>
<path fill-rule="nonzero" fill="rgb(100%, 100%, 100%)" fill-opacity="1" d="M 16.570312 4.601562 L 16.128906 5.539062 L 15.773438 6.296875 C 14.535156 8.917969 13.296875 11.539062 12.050781 14.15625 C 11.457031 13.335938 10.859375 12.519531 10.257812 11.707031 L 9.828125 11.121094 L 9.449219 11.738281 C 7.105469 15.488281 4.785156 19.25 2.429688 22.988281 L 1.960938 23.730469 L 2.839844 23.734375 C 10.199219 23.796875 17.554688 23.855469 24.910156 23.921875 L 25.695312 23.925781 L 25.359375 23.21875 C 22.585938 17.320312 19.796875 11.433594 17.011719 5.539062 Z M 16.570312 12.921875 C 16.71875 12.921875 16.867188 12.996094 16.957031 13.113281 C 17.398438 13.664062 17.824219 14.117188 17.996094 14.1875 C 18.082031 14.222656 18.0625 14.226562 18.148438 14.167969 C 18.238281 14.109375 18.417969 13.921875 18.617188 13.535156 C 18.699219 13.375 18.878906 13.269531 19.058594 13.273438 C 19.238281 13.273438 19.414062 13.386719 19.496094 13.546875 L 23.5 22.023438 C 23.644531 22.324219 23.382812 22.734375 23.050781 22.730469 L 4.960938 22.574219 C 4.785156 22.574219 4.617188 22.476562 4.535156 22.324219 C 4.453125 22.171875 4.457031 21.972656 4.546875 21.824219 L 8.109375 16.109375 C 8.265625 15.859375 8.660156 15.8125 8.871094 16.015625 C 9.1875 16.332031 9.464844 16.5 9.792969 16.519531 C 10.121094 16.542969 10.582031 16.417969 11.261719 15.917969 C 11.46875 15.761719 11.800781 15.8125 11.953125 16.023438 L 12.265625 16.453125 L 13.554688 13.726562 C 13.632812 13.5625 13.804688 13.445312 13.984375 13.4375 C 14.167969 13.429688 14.347656 13.535156 14.433594 13.695312 C 14.5625 13.925781 14.6875 14.054688 14.785156 14.113281 C 14.878906 14.171875 14.941406 14.179688 15.054688 14.15625 C 15.28125 14.109375 15.71875 13.796875 16.171875 13.136719 C 16.261719 13.007812 16.414062 12.925781 16.570312 12.921875 Z M 16.570312 12.921875 "/>
<path fill="none" stroke-width="5" stroke-linecap="butt" stroke-linejoin="miter" stroke="rgb(100%, 100%, 100%)" stroke-opacity="1" stroke-miterlimit="4" d="M 348.778882 372.607789 C 341.900763 387.198942 335.002766 401.809973 328.065011 416.381247 C 324.228373 411.093445 320.351976 405.805643 316.47558 400.53772 C 304.548207 419.621517 292.740108 438.76495 280.753099 457.78911 C 318.18517 458.107173 355.617242 458.405357 393.069193 458.72342 C 378.955135 428.706199 364.761561 398.748614 350.587866 368.751272 C 349.991498 370.043404 349.395129 371.315657 348.778882 372.607789 Z M 348.778882 372.607789 " transform="matrix(0.196502, 0, 0, 0.196502, -52.320828, -66.710282)"/>
<g mask="url(#mask-0)">
<use xlink:href="#source-10"/>
</g>
</svg>
