<?xml version="1.0" encoding="UTF-8"?>
<svg xmlns="http://www.w3.org/2000/svg" xmlns:xlink="http://www.w3.org/1999/xlink" width="28" height="28" viewBox="0 0 28 28">
<path fill-rule="nonzero" fill="rgb(6.666667%, 6.666667%, 6.666667%)" fill-opacity="1" stroke-width="3.408" stroke-linecap="butt" stroke-linejoin="miter" stroke="rgb(93.333333%, 93.333333%, 93.333333%)" stroke-opacity="1" stroke-miterlimit="4" d="M 66.269531 1.780134 C 24.921875 1.780134 1.699219 23.141741 1.699219 66.835938 L 1.699219 516.967076 C 1.699219 557.748326 22.575335 579.190848 63.922991 579.190848 L 515.915179 579.190848 C 557.262835 579.190848 578.138951 558.881138 578.138951 516.967076 L 578.138951 66.835938 C 578.138951 24.193638 557.262835 1.780134 514.620536 1.780134 C 514.620536 1.780134 66.107701 1.618304 66.269531 1.780134 Z M 66.269531 1.780134 " transform="matrix(0.0482759, 0, 0, 0.0482759, 0, 0)"/>
<path fill-rule="nonzero" fill="rgb(100%, 100%, 100%)" fill-opacity="1" d="M 24.425781 18.042969 L 21.476562 18.015625 L 23.546875 15.945312 C 23.757812 15.738281 23.859375 15.492188 23.859375 15.207031 C 23.859375 14.925781 23.753906 14.683594 23.546875 14.484375 C 23.339844 14.285156 23.09375 14.1875 22.8125 14.1875 C 22.527344 14.1875 22.28125 14.28125 22.074219 14.46875 L 20.003906 16.570312 L 20.003906 13.621094 C 20.003906 13.335938 19.902344 13.089844 19.707031 12.882812 C 19.507812 12.675781 19.257812 12.570312 18.953125 12.570312 C 18.671875 12.570312 18.429688 12.675781 18.230469 12.882812 C 18.03125 13.089844 17.933594 13.335938 17.933594 13.621094 L 17.933594 16.570312 L 15.835938 14.46875 C 15.644531 14.28125 15.410156 14.1875 15.125 14.1875 C 14.824219 14.1875 14.570312 14.285156 14.375 14.484375 C 14.175781 14.683594 14.074219 14.925781 14.074219 15.207031 C 14.074219 15.492188 14.179688 15.738281 14.386719 15.945312 L 16.457031 18.042969 L 13.507812 18.042969 C 13.226562 18.042969 12.980469 18.140625 12.773438 18.339844 C 12.5625 18.539062 12.460938 18.78125 12.460938 19.0625 C 12.460938 19.347656 12.5625 19.59375 12.773438 19.800781 C 12.980469 20.007812 13.226562 20.113281 13.507812 20.113281 L 16.457031 20.113281 L 14.386719 22.183594 C 14.179688 22.390625 14.074219 22.636719 14.074219 22.921875 C 14.074219 23.203125 14.175781 23.449219 14.375 23.660156 C 14.570312 23.867188 14.824219 23.96875 15.125 23.96875 C 15.410156 23.96875 15.644531 23.867188 15.835938 23.660156 L 17.933594 21.589844 L 17.933594 24.507812 C 17.933594 24.8125 18.03125 25.0625 18.230469 25.261719 C 18.429688 25.460938 18.671875 25.558594 18.953125 25.558594 C 19.257812 25.558594 19.507812 25.460938 19.707031 25.261719 C 19.902344 25.0625 20.003906 24.8125 20.003906 24.507812 L 20.003906 21.589844 L 22.074219 23.660156 C 22.28125 23.867188 22.527344 23.96875 22.8125 23.96875 C 23.113281 23.96875 23.363281 23.867188 23.5625 23.660156 C 23.761719 23.449219 23.859375 23.203125 23.859375 22.921875 C 23.859375 22.636719 23.757812 22.390625 23.546875 22.183594 L 21.476562 20.113281 L 24.425781 20.113281 C 24.710938 20.113281 24.953125 20.007812 25.148438 19.800781 C 25.347656 19.59375 25.449219 19.347656 25.449219 19.0625 C 25.449219 18.78125 25.347656 18.539062 25.148438 18.339844 C 24.953125 18.140625 24.710938 18.042969 24.425781 18.042969 Z M 13.195312 12.285156 L 13.226562 5.453125 C 13.226562 5.167969 13.121094 4.921875 12.914062 4.714844 C 12.707031 4.507812 12.460938 4.402344 12.175781 4.402344 C 11.890625 4.402344 11.648438 4.507812 11.4375 4.714844 C 11.230469 4.921875 11.125 5.167969 11.125 5.453125 L 11.125 9.761719 L 5.03125 3.664062 C 4.820312 3.457031 4.574219 3.355469 4.292969 3.355469 C 4.007812 3.355469 3.769531 3.457031 3.570312 3.664062 C 3.371094 3.875 3.273438 4.117188 3.273438 4.402344 C 3.273438 4.6875 3.367188 4.933594 3.554688 5.140625 L 9.652344 11.238281 L 5.34375 11.238281 C 5.058594 11.238281 4.8125 11.335938 4.605469 11.535156 C 4.394531 11.734375 4.292969 11.984375 4.292969 12.285156 C 4.292969 12.570312 4.394531 12.8125 4.605469 13.011719 C 4.8125 13.207031 5.058594 13.308594 5.34375 13.308594 L 12.175781 13.308594 C 12.460938 13.308594 12.699219 13.207031 12.898438 13.011719 C 13.097656 12.8125 13.195312 12.570312 13.195312 12.285156 Z M 13.195312 12.285156 "/>
</svg>
