<?xml version="1.0" encoding="UTF-8"?>
<svg xmlns="http://www.w3.org/2000/svg" xmlns:xlink="http://www.w3.org/1999/xlink" width="28" height="28" viewBox="0 0 28 28">
<defs>
<filter id="filter-remove-color" x="0%" y="0%" width="100%" height="100%">
<feColorMatrix color-interpolation-filters="sRGB" values="0 0 0 0 1 0 0 0 0 1 0 0 0 0 1 0 0 0 1 0" />
</filter>
<mask id="mask-0">
<g filter="url(#filter-remove-color)">
<rect x="-2.8" y="-2.8" width="33.6" height="33.6" fill="rgb(0%, 0%, 0%)" fill-opacity="0.5"/>
</g>
</mask>
<clipPath id="clip-0">
<path clip-rule="nonzero" d="M 0 1 L 17 1 L 17 9 L 0 9 Z M 0 1 "/>
</clipPath>
<clipPath id="clip-1">
<rect x="0" y="0" width="28" height="28"/>
</clipPath>
<g id="source-13" clip-path="url(#clip-1)">
<g clip-path="url(#clip-0)">
<path fill="none" stroke-width="10" stroke-linecap="butt" stroke-linejoin="miter" stroke="rgb(100%, 100%, 100%)" stroke-opacity="1" stroke-miterlimit="4" d="M 294.36942 90.78683 C 167.089844 171.378348 35.602679 89.411272 35.602679 89.411272 " transform="matrix(0.0482759, 0, 0, 0.0482759, 0, 0)"/>
</g>
</g>
<mask id="mask-1">
<g filter="url(#filter-remove-color)">
<rect x="-2.8" y="-2.8" width="33.6" height="33.6" fill="rgb(0%, 0%, 0%)" fill-opacity="0.5"/>
</g>
</mask>
<clipPath id="clip-2">
<path clip-rule="nonzero" d="M 11 1 L 28 1 L 28 9 L 11 9 Z M 11 1 "/>
</clipPath>
<clipPath id="clip-3">
<rect x="0" y="0" width="28" height="28"/>
</clipPath>
<g id="source-17" clip-path="url(#clip-3)">
<g clip-path="url(#clip-2)">
<path fill="none" stroke-width="10" stroke-linecap="butt" stroke-linejoin="miter" stroke="rgb(100%, 100%, 100%)" stroke-opacity="1" stroke-miterlimit="4" d="M 550.385045 92.80971 C 423.105469 173.401228 291.618304 91.353237 291.618304 91.353237 " transform="matrix(0.0482759, 0, 0, 0.0482759, 0, 0)"/>
</g>
</g>
<mask id="mask-2">
<g filter="url(#filter-remove-color)">
<rect x="-2.8" y="-2.8" width="33.6" height="33.6" fill="rgb(0%, 0%, 0%)" fill-opacity="0.5"/>
</g>
</mask>
<clipPath id="clip-4">
<path clip-rule="nonzero" d="M 0 3 L 17 3 L 17 11 L 0 11 Z M 0 3 "/>
</clipPath>
<clipPath id="clip-5">
<rect x="0" y="0" width="28" height="28"/>
</clipPath>
<g id="source-21" clip-path="url(#clip-5)">
<g clip-path="url(#clip-4)">
<path fill="none" stroke-width="10" stroke-linecap="butt" stroke-linejoin="miter" stroke="rgb(100%, 100%, 100%)" stroke-opacity="1" stroke-miterlimit="4" d="M 294.36942 130.839844 C 167.089844 211.431362 35.602679 129.383371 35.602679 129.383371 " transform="matrix(0.0482759, 0, 0, 0.0482759, 0, 0)"/>
</g>
</g>
<mask id="mask-3">
<g filter="url(#filter-remove-color)">
<rect x="-2.8" y="-2.8" width="33.6" height="33.6" fill="rgb(0%, 0%, 0%)" fill-opacity="0.5"/>
</g>
</mask>
<clipPath id="clip-6">
<path clip-rule="nonzero" d="M 11 3 L 28 3 L 28 11 L 11 11 Z M 11 3 "/>
</clipPath>
<clipPath id="clip-7">
<rect x="0" y="0" width="28" height="28"/>
</clipPath>
<g id="source-25" clip-path="url(#clip-7)">
<g clip-path="url(#clip-6)">
<path fill="none" stroke-width="10" stroke-linecap="butt" stroke-linejoin="miter" stroke="rgb(100%, 100%, 100%)" stroke-opacity="1" stroke-miterlimit="4" d="M 550.385045 132.781808 C 423.105469 213.454241 291.618304 131.40625 291.618304 131.40625 " transform="matrix(0.0482759, 0, 0, 0.0482759, 0, 0)"/>
</g>
</g>
<mask id="mask-4">
<g filter="url(#filter-remove-color)">
<rect x="-2.8" y="-2.8" width="33.6" height="33.6" fill="rgb(0%, 0%, 0%)" fill-opacity="0.5"/>
</g>
</mask>
<clipPath id="clip-8">
<path clip-rule="nonzero" d="M 0 5 L 17 5 L 17 13 L 0 13 Z M 0 5 "/>
</clipPath>
<clipPath id="clip-9">
<rect x="0" y="0" width="28" height="28"/>
</clipPath>
<g id="source-29" clip-path="url(#clip-9)">
<g clip-path="url(#clip-8)">
<path fill="none" stroke-width="10" stroke-linecap="butt" stroke-linejoin="miter" stroke="rgb(100%, 100%, 100%)" stroke-opacity="1" stroke-miterlimit="4" d="M 294.36942 170.811942 C 167.089844 251.40346 35.602679 169.355469 35.602679 169.355469 " transform="matrix(0.0482759, 0, 0, 0.0482759, 0, 0)"/>
</g>
</g>
<mask id="mask-5">
<g filter="url(#filter-remove-color)">
<rect x="-2.8" y="-2.8" width="33.6" height="33.6" fill="rgb(0%, 0%, 0%)" fill-opacity="0.5"/>
</g>
</mask>
<clipPath id="clip-10">
<path clip-rule="nonzero" d="M 11 5 L 28 5 L 28 13 L 11 13 Z M 11 5 "/>
</clipPath>
<clipPath id="clip-11">
<rect x="0" y="0" width="28" height="28"/>
</clipPath>
<g id="source-33" clip-path="url(#clip-11)">
<g clip-path="url(#clip-10)">
<path fill="none" stroke-width="10" stroke-linecap="butt" stroke-linejoin="miter" stroke="rgb(100%, 100%, 100%)" stroke-opacity="1" stroke-miterlimit="4" d="M 550.385045 172.834821 C 423.105469 253.426339 291.618304 171.378348 291.618304 171.378348 " transform="matrix(0.0482759, 0, 0, 0.0482759, 0, 0)"/>
</g>
</g>
</defs>
<path fill-rule="nonzero" fill="rgb(6.666667%, 6.666667%, 6.666667%)" fill-opacity="1" stroke-width="3.408" stroke-linecap="butt" stroke-linejoin="miter" stroke="rgb(93.333333%, 93.333333%, 93.333333%)" stroke-opacity="1" stroke-miterlimit="4" d="M 66.269531 1.780134 C 24.921875 1.780134 1.699219 23.141741 1.699219 66.835938 L 1.699219 516.967076 C 1.699219 557.748326 22.575335 579.190848 63.922991 579.190848 L 515.915179 579.190848 C 557.262835 579.190848 578.138951 558.800223 578.138951 516.967076 L 578.138951 66.835938 C 578.138951 24.193638 557.262835 1.780134 514.620536 1.780134 C 514.620536 1.780134 66.107701 1.618304 66.269531 1.780134 Z M 66.269531 1.780134 " transform="matrix(0.0482759, 0, 0, 0.0482759, 0, 0)"/>
<path fill="none" stroke-width="19.809278" stroke-linecap="round" stroke-linejoin="round" stroke="rgb(100%, 100%, 100%)" stroke-opacity="1" stroke-miterlimit="4" d="M 292.508371 132.619978 C 292.508371 132.943638 292.508371 93.214286 292.508371 93.537946 C 292.508371 117.893415 276.24442 369.782366 172.106585 508.713728 " transform="matrix(0.0482759, 0, 0, 0.0482759, 0, 0)"/>
<path fill="none" stroke-width="19.809278" stroke-linecap="round" stroke-linejoin="round" stroke="rgb(100%, 100%, 100%)" stroke-opacity="1" stroke-miterlimit="4" d="M 292.265625 132.134487 C 292.265625 132.458147 292.265625 92.728795 292.265625 93.052455 C 292.265625 117.407924 308.610491 369.296875 412.667411 508.309152 " transform="matrix(0.0482759, 0, 0, 0.0482759, 0, 0)"/>
<path fill="none" stroke-width="12.53017" stroke-linecap="round" stroke-linejoin="miter" stroke="rgb(100%, 100%, 100%)" stroke-opacity="1" stroke-miterlimit="4" d="M 317.834821 284.659598 L 249.38058 348.016183 " transform="matrix(0.0482759, 0, 0, 0.0482759, 0, 0)"/>
<path fill="none" stroke-width="12.53017" stroke-linecap="round" stroke-linejoin="miter" stroke="rgb(100%, 100%, 100%)" stroke-opacity="1" stroke-miterlimit="4" d="M 267.34375 284.659598 L 335.878906 348.016183 " transform="matrix(0.0482759, 0, 0, 0.0482759, 0, 0)"/>
<path fill="none" stroke-width="15.421748" stroke-linecap="round" stroke-linejoin="miter" stroke="rgb(100%, 100%, 100%)" stroke-opacity="1" stroke-miterlimit="4" d="M 262.893415 347.854353 L 370.106027 447.137277 " transform="matrix(0.0482759, 0, 0, 0.0482759, 0, 0)"/>
<path fill="none" stroke-width="15.421748" stroke-linecap="round" stroke-linejoin="miter" stroke="rgb(100%, 100%, 100%)" stroke-opacity="1" stroke-miterlimit="4" d="M 322.042411 347.854353 L 214.748884 447.137277 " transform="matrix(0.0482759, 0, 0, 0.0482759, 0, 0)"/>
<g mask="url(#mask-0)">
<use xlink:href="#source-13"/>
</g>
<g mask="url(#mask-1)">
<use xlink:href="#source-17"/>
</g>
<g mask="url(#mask-2)">
<use xlink:href="#source-21"/>
</g>
<g mask="url(#mask-3)">
<use xlink:href="#source-25"/>
</g>
<g mask="url(#mask-4)">
<use xlink:href="#source-29"/>
</g>
<g mask="url(#mask-5)">
<use xlink:href="#source-33"/>
</g>
</svg>
