<?xml version="1.0" encoding="UTF-8"?>
<svg xmlns="http://www.w3.org/2000/svg" xmlns:xlink="http://www.w3.org/1999/xlink" width="28" height="28" viewBox="0 0 28 28">
<path fill-rule="nonzero" fill="rgb(6.666667%, 6.666667%, 6.666667%)" fill-opacity="1" stroke-width="3.408" stroke-linecap="butt" stroke-linejoin="miter" stroke="rgb(93.333333%, 93.333333%, 93.333333%)" stroke-opacity="1" stroke-miterlimit="4" d="M 66.269531 1.780134 C 24.921875 1.780134 1.699219 23.141741 1.699219 66.835938 L 1.699219 516.967076 C 1.699219 557.748326 22.575335 579.190848 63.922991 579.190848 L 515.915179 579.190848 C 557.262835 579.190848 578.138951 558.881138 578.138951 516.967076 L 578.138951 66.835938 C 578.138951 24.193638 557.262835 1.780134 514.620536 1.780134 C 514.620536 1.780134 66.107701 1.618304 66.269531 1.780134 Z M 66.269531 1.780134 " transform="matrix(0.0482759, 0, 0, 0.0482759, 0, 0)"/>
<path fill-rule="nonzero" fill="rgb(100%, 100%, 100%)" fill-opacity="1" d="M 9.371094 24.667969 L 9.054688 26.097656 L 7.007812 26.089844 L 10.515625 10.257812 L 8.492188 10.242188 L 8.492188 4.480469 L 14.40625 1.828125 L 20.324219 4.480469 L 20.324219 10.242188 L 18.300781 10.257812 L 21.800781 26.089844 L 19.757812 26.097656 L 19.441406 24.671875 L 14.402344 18.53125 Z M 10.195312 20.9375 L 13.296875 17.164062 L 11.507812 15 Z M 16.832031 12.851562 L 16.261719 10.253906 L 12.558594 10.253906 L 11.984375 12.847656 L 14.40625 15.816406 Z M 17.304688 15 L 15.519531 17.164062 L 18.617188 20.9375 Z M 10.710938 5.285156 L 10.710938 8.191406 L 18.101562 8.191406 L 18.101562 5.285156 Z M 10.710938 5.285156 "/>
</svg>
