<?xml version="1.0" encoding="UTF-8"?>
<svg xmlns="http://www.w3.org/2000/svg" xmlns:xlink="http://www.w3.org/1999/xlink" width="28" height="28" viewBox="0 0 28 28">
<defs>
<filter id="filter-remove-color" x="0%" y="0%" width="100%" height="100%">
<feColorMatrix color-interpolation-filters="sRGB" values="0 0 0 0 1 0 0 0 0 1 0 0 0 0 1 0 0 0 1 0" />
</filter>
<mask id="mask-0">
<g filter="url(#filter-remove-color)">
<rect x="-2.8" y="-2.8" width="33.6" height="33.6" fill="rgb(0%, 0%, 0%)" fill-opacity="0.25"/>
</g>
</mask>
<clipPath id="clip-0">
<rect x="0" y="0" width="28" height="28"/>
</clipPath>
<g id="source-15" clip-path="url(#clip-0)">
<path fill-rule="nonzero" fill="rgb(100%, 100%, 100%)" fill-opacity="1" d="M 6.5 4.789062 L 21.285156 4.789062 C 21.824219 4.789062 22.257812 5.222656 22.257812 5.757812 L 22.257812 11.191406 C 22.257812 11.726562 21.824219 12.160156 21.285156 12.160156 L 6.5 12.160156 C 5.964844 12.160156 5.53125 11.726562 5.53125 11.191406 L 5.53125 5.757812 C 5.53125 5.222656 5.964844 4.789062 6.5 4.789062 Z M 6.5 4.789062 "/>
</g>
</defs>
<path fill-rule="nonzero" fill="rgb(6.666667%, 6.666667%, 6.666667%)" fill-opacity="1" stroke-width="3.408" stroke-linecap="butt" stroke-linejoin="miter" stroke="rgb(93.333333%, 93.333333%, 93.333333%)" stroke-opacity="1" stroke-miterlimit="4" d="M 66.269531 1.780134 C 24.921875 1.780134 1.699219 23.141741 1.699219 66.835938 L 1.699219 516.967076 C 1.699219 557.748326 22.575335 579.190848 63.922991 579.190848 L 515.915179 579.190848 C 557.262835 579.190848 578.138951 558.800223 578.138951 516.967076 L 578.138951 66.835938 C 578.138951 24.193638 557.262835 1.780134 514.620536 1.780134 C 514.620536 1.780134 66.107701 1.618304 66.269531 1.780134 Z M 66.269531 1.780134 " transform="matrix(0.0482759, 0, 0, 0.0482759, 0, 0)"/>
<path fill="none" stroke-width="25" stroke-linecap="round" stroke-linejoin="round" stroke="rgb(100%, 100%, 100%)" stroke-opacity="1" stroke-miterlimit="4" d="M 465.828683 62.547433 L 465.828683 259.818638 L 109.801897 259.818638 L 109.801897 62.547433 " transform="matrix(0.0482759, 0, 0, 0.0482759, 0, 0)"/>
<path fill="none" stroke-width="15" stroke-linecap="round" stroke-linejoin="miter" stroke="rgb(100%, 100%, 100%)" stroke-opacity="1" stroke-miterlimit="4" d="M 412.586496 386.936384 L 159.969308 518.666295 " transform="matrix(0.0482759, 0, 0, 0.0482759, 0, 0)"/>
<path fill="none" stroke-width="30" stroke-linecap="round" stroke-linejoin="round" stroke="rgb(100%, 100%, 100%)" stroke-opacity="1" stroke-miterlimit="4" d="M 408.783482 266.453683 L 428.769531 541.646205 " transform="matrix(0.0482759, 0, 0, 0.0482759, 0, 0)"/>
<path fill="none" stroke-width="30" stroke-linecap="round" stroke-linejoin="round" stroke="rgb(100%, 100%, 100%)" stroke-opacity="1" stroke-miterlimit="4" d="M 170.811942 266.453683 L 150.744978 541.646205 " transform="matrix(0.0482759, 0, 0, 0.0482759, 0, 0)"/>
<path fill="none" stroke-width="15" stroke-linecap="round" stroke-linejoin="miter" stroke="rgb(100%, 100%, 100%)" stroke-opacity="1" stroke-miterlimit="4" d="M 161.911272 386.936384 L 414.609375 518.666295 " transform="matrix(0.0482759, 0, 0, 0.0482759, 0, 0)"/>
<path fill="none" stroke-width="15" stroke-linecap="round" stroke-linejoin="miter" stroke="rgb(100%, 100%, 100%)" stroke-opacity="1" stroke-miterlimit="4" d="M 407.488839 276.001674 L 165.795201 388.311942 " transform="matrix(0.0482759, 0, 0, 0.0482759, 0, 0)"/>
<path fill="none" stroke-width="15" stroke-linecap="round" stroke-linejoin="miter" stroke="rgb(100%, 100%, 100%)" stroke-opacity="1" stroke-miterlimit="4" d="M 167.737165 276.001674 L 409.511719 388.311942 " transform="matrix(0.0482759, 0, 0, 0.0482759, 0, 0)"/>
<path fill-rule="evenodd" fill="rgb(100%, 100%, 100%)" fill-opacity="1" d="M 12.433594 3.4375 C 11.304688 3.503906 10.324219 4.410156 9.160156 4.179688 C 8.273438 4.011719 7.433594 3.324219 6.496094 3.632812 C 6.140625 3.71875 5.796875 3.851562 5.449219 3.980469 C 5.460938 4.457031 5.429688 5 5.46875 5.4375 C 6.265625 5.113281 7.210938 4.855469 8.03125 5.257812 C 8.714844 5.535156 9.472656 5.890625 10.214844 5.59375 C 11.15625 5.292969 12.15625 4.683594 13.175781 5.03125 C 13.988281 5.273438 14.839844 5.773438 15.703125 5.457031 C 16.648438 5.191406 17.660156 4.769531 18.648438 5.117188 C 19.554688 5.367188 20.519531 5.882812 21.464844 5.523438 C 21.628906 5.425781 21.980469 5.449219 21.996094 5.242188 C 21.996094 4.785156 21.996094 4.332031 21.996094 3.878906 C 21.257812 4.183594 20.410156 4.265625 19.65625 3.964844 C 18.785156 3.679688 17.84375 3.285156 16.933594 3.625 C 16.0625 3.878906 15.105469 4.285156 14.203125 3.921875 C 13.621094 3.742188 13.058594 3.417969 12.433594 3.4375 Z M 12.433594 3.4375 "/>
<g mask="url(#mask-0)">
<use xlink:href="#source-15"/>
</g>
</svg>
