<?xml version="1.0" encoding="UTF-8"?>
<svg xmlns="http://www.w3.org/2000/svg" xmlns:xlink="http://www.w3.org/1999/xlink" width="28" height="28" viewBox="0 0 28 28">
<path fill-rule="nonzero" fill="rgb(6.666667%, 6.666667%, 6.666667%)" fill-opacity="1" stroke-width="3.408" stroke-linecap="butt" stroke-linejoin="miter" stroke="rgb(93.333333%, 93.333333%, 93.333333%)" stroke-opacity="1" stroke-miterlimit="4" d="M 66.269531 1.780134 C 24.921875 1.780134 1.699219 23.141741 1.699219 66.835938 L 1.699219 516.967076 C 1.699219 557.748326 22.575335 579.190848 63.922991 579.190848 L 515.915179 579.190848 C 557.262835 579.190848 578.138951 558.800223 578.138951 516.967076 L 578.138951 66.835938 C 578.138951 24.193638 557.262835 1.780134 514.620536 1.780134 C 514.620536 1.780134 66.107701 1.618304 66.269531 1.780134 Z M 66.269531 1.780134 " transform="matrix(0.0482759, 0, 0, 0.0482759, 0, 0)"/>
<path fill-rule="nonzero" fill="rgb(100%, 100%, 100%)" fill-opacity="1" stroke-width="1.25" stroke-linecap="round" stroke-linejoin="miter" stroke="rgb(100%, 100%, 100%)" stroke-opacity="1" stroke-miterlimit="4" d="M 358.462426 388.888337 C 358.348086 395.225236 353.164676 400.322307 346.799753 400.230468 C 340.472944 400.184548 335.36576 394.949719 335.403874 388.61282 C 335.4801 382.275921 340.66351 377.17885 346.99032 377.22477 C 353.355242 377.22477 358.462426 382.41368 358.462426 388.750579 " transform="matrix(0.10249, 0, 0, 0.0850672, -21.020223, -26.062127)"/>
<path fill="none" stroke-width="19.809278" stroke-linecap="round" stroke-linejoin="miter" stroke="rgb(100%, 100%, 100%)" stroke-opacity="1" stroke-miterlimit="4" d="M 300.518973 162.639509 C 300.518973 162.882254 300.518973 163.205915 300.518973 163.529576 C 300.518973 187.885045 284.174107 399.801897 180.117188 538.733259 " transform="matrix(0.0482759, 0, 0, 0.0482759, 0, 0)"/>
<path fill="none" stroke-width="19.809278" stroke-linecap="round" stroke-linejoin="miter" stroke="rgb(100%, 100%, 100%)" stroke-opacity="1" stroke-miterlimit="4" d="M 300.276228 162.154018 C 300.276228 162.477679 300.276228 162.720424 300.276228 163.044085 C 300.276228 187.399554 316.621094 399.316406 420.678013 538.247768 " transform="matrix(0.0482759, 0, 0, 0.0482759, 0, 0)"/>
<path fill="none" stroke-width="12.499156" stroke-linecap="round" stroke-linejoin="miter" stroke="rgb(100%, 100%, 100%)" stroke-opacity="1" stroke-miterlimit="4" d="M 659.78713 385.109129 C 746.410437 462.137804 792.712427 574.883687 785.188354 690.641864 C 777.857205 806.400041 717.664618 912.260678 621.973838 977.670503 " transform="matrix(0.0202475, 0, 0, 0.0181548, 7.250329, -5.015003)"/>
<path fill="none" stroke-width="12.499156" stroke-linecap="round" stroke-linejoin="miter" stroke="rgb(100%, 100%, 100%)" stroke-opacity="1" stroke-miterlimit="4" d="M 559.369668 477.936622 C 621.29858 526.993991 655.253373 602.946847 650.237324 681.696833 C 645.221275 760.44682 602.006084 831.66607 534.482348 872.332047 " transform="matrix(0.0202475, 0, 0, 0.0181548, 7.224938, -4.99714)"/>
<path fill="none" stroke-width="12.499156" stroke-linecap="round" stroke-linejoin="miter" stroke="rgb(100%, 100%, 100%)" stroke-opacity="1" stroke-miterlimit="4" d="M 485.252362 571.618821 C 516.449927 596.21291 533.396752 634.496162 530.893244 674.171533 C 528.389736 713.846903 506.628471 749.577938 472.73482 769.995673 " transform="matrix(0.020284, 0, 0, 0.0168359, 7.211812, -4.240879)"/>
<path fill="none" stroke-width="12.499156" stroke-linecap="round" stroke-linejoin="miter" stroke="rgb(100%, 100%, 100%)" stroke-opacity="1" stroke-miterlimit="4" d="M 659.818735 384.965745 C 746.442042 462.209584 792.551107 574.955467 785.219959 690.49848 C 777.88881 806.256657 717.696223 912.117295 622.005443 977.742283 " transform="matrix(-0.0202475, 0, 0, 0.0181548, 22.000311, -5.004588)"/>
<path fill="none" stroke-width="12.499156" stroke-linecap="round" stroke-linejoin="miter" stroke="rgb(100%, 100%, 100%)" stroke-opacity="1" stroke-miterlimit="4" d="M 559.404256 478.008443 C 621.333168 526.850648 655.095036 603.018667 650.271912 681.768654 C 645.255863 760.303477 602.040672 831.737891 534.516936 872.403867 " transform="matrix(-0.0202475, 0, 0, 0.0181548, 22.025762, -4.986725)"/>
<path fill="none" stroke-width="12.499156" stroke-linecap="round" stroke-linejoin="miter" stroke="rgb(100%, 100%, 100%)" stroke-opacity="1" stroke-miterlimit="4" d="M 485.308822 571.741225 C 516.31381 596.335314 533.453213 634.618566 530.949705 674.293937 C 528.446196 713.737287 506.684932 749.700342 472.791281 770.118077 " transform="matrix(-0.020284, 0, 0, 0.0168359, 22.039334, -4.231221)"/>
<path fill="none" stroke-width="12.53017" stroke-linecap="round" stroke-linejoin="miter" stroke="rgb(100%, 100%, 100%)" stroke-opacity="1" stroke-miterlimit="4" d="M 325.845424 314.679129 L 257.310268 378.035714 " transform="matrix(0.0482759, 0, 0, 0.0482759, 0, 0)"/>
<path fill="none" stroke-width="12.53017" stroke-linecap="round" stroke-linejoin="miter" stroke="rgb(100%, 100%, 100%)" stroke-opacity="1" stroke-miterlimit="4" d="M 275.354353 314.679129 L 343.889509 378.035714 " transform="matrix(0.0482759, 0, 0, 0.0482759, 0, 0)"/>
<path fill="none" stroke-width="15.421748" stroke-linecap="round" stroke-linejoin="miter" stroke="rgb(100%, 100%, 100%)" stroke-opacity="1" stroke-miterlimit="4" d="M 270.904018 377.873884 L 378.116629 477.156808 " transform="matrix(0.0482759, 0, 0, 0.0482759, 0, 0)"/>
<path fill="none" stroke-width="15.421748" stroke-linecap="round" stroke-linejoin="miter" stroke="rgb(100%, 100%, 100%)" stroke-opacity="1" stroke-miterlimit="4" d="M 330.053013 377.873884 L 222.759487 477.156808 " transform="matrix(0.0482759, 0, 0, 0.0482759, 0, 0)"/>
</svg>
