<?xml version="1.0" encoding="UTF-8"?>
<svg xmlns="http://www.w3.org/2000/svg" xmlns:xlink="http://www.w3.org/1999/xlink" width="24" height="24" viewBox="0 0 24 24">
<path fill-rule="nonzero" fill="rgb(0%, 0%, 0%)" fill-opacity="1" d="M 20.160156 13.921875 L 18.398438 10.398438 C 18.25 10.152344 18.035156 9.953125 17.785156 9.8125 C 17.53125 9.671875 17.25 9.597656 16.960938 9.601562 L 7.039062 9.601562 C 6.75 9.597656 6.46875 9.671875 6.214844 9.8125 C 5.964844 9.953125 5.75 10.152344 5.601562 10.398438 L 3.839844 13.921875 L 1.855469 15.761719 C 1.773438 15.839844 1.710938 15.929688 1.667969 16.027344 C 1.621094 16.128906 1.601562 16.238281 1.601562 16.347656 L 1.601562 23.199219 C 1.601562 23.414062 1.683594 23.617188 1.835938 23.765625 C 1.984375 23.914062 2.1875 24 2.398438 24 L 5.601562 24 C 5.921875 24 6.398438 23.679688 6.398438 23.359375 L 6.398438 22.398438 L 17.601562 22.398438 L 17.601562 23.199219 C 17.601562 23.519531 17.921875 24 18.238281 24 L 21.601562 24 C 21.8125 24 22.015625 23.914062 22.164062 23.765625 C 22.316406 23.617188 22.398438 23.414062 22.398438 23.199219 L 22.398438 16.347656 C 22.398438 16.238281 22.378906 16.128906 22.332031 16.027344 C 22.289062 15.929688 22.226562 15.839844 22.144531 15.761719 Z M 7.199219 11.199219 L 16.800781 11.199219 L 18.398438 14.398438 L 5.601562 14.398438 Z M 8 18.558594 C 8 18.878906 7.519531 19.199219 7.199219 19.199219 L 3.839844 19.199219 C 3.519531 19.199219 3.199219 18.71875 3.199219 18.398438 L 3.199219 16.640625 C 3.359375 16.160156 3.679688 15.839844 4.160156 16 L 7.359375 16.640625 C 7.679688 16.640625 8 17.121094 8 17.441406 Z M 20.800781 18.398438 C 20.800781 18.71875 20.480469 19.199219 20.160156 19.199219 L 16.800781 19.199219 C 16.480469 19.199219 16 18.878906 16 18.558594 L 16 17.441406 C 16 17.121094 16.320312 16.640625 16.640625 16.640625 L 19.839844 16 C 20.320312 15.839844 20.640625 16.160156 20.800781 16.640625 Z M 12.800781 6.398438 L 11.199219 6.398438 L 9.601562 0 L 14.398438 0 Z M 1.761719 2.878906 L 5.921875 0.480469 L 7.679688 6.878906 L 6.398438 7.519531 Z M 18.078125 0.480469 L 22.238281 2.878906 L 17.601562 7.679688 L 16.160156 6.878906 Z M 18.078125 0.480469 "/>
</svg>
