<?xml version="1.0" encoding="UTF-8"?>
<svg xmlns="http://www.w3.org/2000/svg" xmlns:xlink="http://www.w3.org/1999/xlink" width="24" height="24" viewBox="0 0 24 24">
<path fill-rule="nonzero" fill="rgb(0%, 0%, 0%)" fill-opacity="1" d="M 10.910156 1.089844 L 7.636719 1.089844 C 6.546875 1.089844 6.546875 0 7.636719 0 L 16.363281 0 C 17.453125 0 17.453125 1.089844 16.363281 1.089844 L 13.089844 1.089844 C 13.089844 1.089844 14.398438 2.035156 14.398438 4.21875 L 14.398438 6.398438 L 24 6.398438 L 24 9.601562 L 14.398438 12.800781 L 13.601562 20.800781 L 17.601562 22.910156 L 17.601562 24 L 6.398438 24 L 6.398438 22.910156 L 10.398438 20.800781 L 9.601562 12.800781 L 0 9.601562 L 0 6.398438 L 9.601562 6.398438 L 9.601562 4.21875 C 9.601562 2.035156 10.910156 1.089844 10.910156 1.089844 Z M 10.910156 1.089844 "/>
</svg>
