<?xml version="1.0" encoding="UTF-8"?>
<svg xmlns="http://www.w3.org/2000/svg" xmlns:xlink="http://www.w3.org/1999/xlink" width="24" height="24" viewBox="0 0 24 24">
<path fill-rule="nonzero" fill="rgb(0%, 0%, 0%)" fill-opacity="1" d="M 1.601562 6.398438 C 1.601562 5.550781 1.9375 4.738281 2.539062 4.136719 C 3.136719 3.539062 3.953125 3.199219 4.800781 3.199219 C 5.648438 3.199219 6.460938 3.539062 7.0625 4.136719 C 7.664062 4.738281 8 5.550781 8 6.398438 L 8 19.199219 C 8 19.625 7.832031 20.03125 7.53125 20.332031 C 7.230469 20.632812 6.824219 20.800781 6.398438 20.800781 L 3.199219 20.800781 C 2.777344 20.800781 2.367188 20.632812 2.070312 20.332031 C 1.769531 20.03125 1.601562 19.625 1.601562 19.199219 Z M 6.398438 6.398438 C 6.398438 5.976562 6.230469 5.570312 5.929688 5.269531 C 5.632812 4.96875 5.222656 4.800781 4.800781 4.800781 C 4.375 4.800781 3.96875 4.96875 3.667969 5.269531 C 3.367188 5.570312 3.199219 5.976562 3.199219 6.398438 C 3.199219 6.824219 3.367188 7.230469 3.667969 7.53125 C 3.96875 7.832031 4.375 8 4.800781 8 C 5.222656 8 5.632812 7.832031 5.929688 7.53125 C 6.230469 7.230469 6.398438 6.824219 6.398438 6.398438 Z M 13.601562 9.601562 L 11.199219 4.800781 L 9.601562 4.800781 L 9.601562 9.601562 Z M 16 9.601562 L 18.398438 9.601562 L 16 4.800781 L 13.601562 4.800781 Z M 21.199219 9.601562 L 20.800781 9.601562 L 18.398438 4.800781 L 21.199219 4.800781 C 21.519531 4.800781 21.824219 4.925781 22.046875 5.152344 C 22.273438 5.375 22.398438 5.683594 22.398438 6 L 22.398438 8.398438 C 22.398438 8.71875 22.273438 9.023438 22.046875 9.25 C 21.824219 9.472656 21.519531 9.601562 21.199219 9.601562 Z M 21.199219 9.601562 "/>
</svg>
