<?xml version="1.0" encoding="UTF-8"?>
<svg xmlns="http://www.w3.org/2000/svg" xmlns:xlink="http://www.w3.org/1999/xlink" width="24" height="24" viewBox="0 0 24 24">
<path fill-rule="nonzero" fill="rgb(0%, 0%, 0%)" fill-opacity="1" d="M 17.601562 1.601562 L 6.398438 1.601562 C 5.976562 1.601562 5.570312 1.769531 5.269531 2.070312 C 4.96875 2.367188 4.800781 2.777344 4.800781 3.199219 L 4.800781 20.800781 C 4.800781 21.222656 4.96875 21.632812 5.269531 21.929688 C 5.570312 22.230469 5.976562 22.398438 6.398438 22.398438 L 17.601562 22.398438 C 18.023438 22.398438 18.429688 22.230469 18.730469 21.929688 C 19.03125 21.632812 19.199219 21.222656 19.199219 20.800781 L 19.199219 3.199219 C 19.199219 2.777344 19.03125 2.367188 18.730469 2.070312 C 18.429688 1.769531 18.023438 1.601562 17.601562 1.601562 Z M 12 20 L 8.800781 13.601562 L 15.199219 13.601562 Z M 8.800781 10.398438 L 12 4 L 15.199219 10.398438 Z M 8.800781 10.398438 "/>
</svg>
