<?xml version="1.0" encoding="UTF-8"?>
<svg xmlns="http://www.w3.org/2000/svg" xmlns:xlink="http://www.w3.org/1999/xlink" width="24" height="22.4" viewBox="0 0 24 22.4">
<path fill-rule="nonzero" fill="rgb(0%, 0%, 0%)" fill-opacity="1" d="M 3.199219 4.480469 C 3.199219 2.835938 4.640625 1.492188 6.398438 1.492188 L 17.601562 1.492188 C 19.359375 1.492188 20.800781 2.835938 20.800781 4.480469 L 20.800781 16.425781 C 20.800781 17.921875 19.199219 17.921875 19.199219 17.921875 L 19.199219 19.414062 C 19.199219 20.234375 18.480469 20.90625 17.601562 20.90625 C 16.71875 20.90625 16 20.234375 16 19.414062 L 16 17.921875 L 8 17.921875 L 8 19.414062 C 8 20.234375 7.28125 20.90625 6.398438 20.90625 C 5.519531 20.90625 4.800781 20.234375 4.800781 19.414062 L 4.800781 17.921875 C 3.199219 17.921875 3.199219 16.425781 3.199219 16.425781 Z M 5.601562 5.972656 C 5.152344 5.972656 4.800781 6.300781 4.800781 6.71875 L 4.800781 11.199219 C 4.800781 11.617188 5.152344 11.945312 5.601562 11.945312 L 18.398438 11.945312 C 18.847656 11.945312 19.199219 11.617188 19.199219 11.199219 L 19.199219 6.71875 C 19.199219 6.300781 18.847656 5.972656 18.398438 5.972656 Z M 6.398438 13.441406 C 5.519531 13.441406 4.800781 14.113281 4.800781 14.933594 C 4.800781 15.753906 5.519531 16.425781 6.398438 16.425781 C 7.28125 16.425781 8 15.753906 8 14.933594 C 8 14.113281 7.28125 13.441406 6.398438 13.441406 Z M 17.601562 13.441406 C 16.71875 13.441406 16 14.113281 16 14.933594 C 16 15.753906 16.71875 16.425781 17.601562 16.425781 C 18.480469 16.425781 19.199219 15.753906 19.199219 14.933594 C 19.199219 14.113281 18.480469 13.441406 17.601562 13.441406 Z M 6.398438 3.734375 C 6.398438 4.152344 6.753906 4.480469 7.199219 4.480469 L 16.800781 4.480469 C 17.246094 4.480469 17.601562 4.152344 17.601562 3.734375 C 17.601562 3.316406 17.246094 2.988281 16.800781 2.988281 L 7.199219 2.988281 C 6.753906 2.988281 6.398438 3.316406 6.398438 3.734375 Z M 6.398438 3.734375 "/>
</svg>
