<?xml version="1.0" encoding="UTF-8"?>
<svg xmlns="http://www.w3.org/2000/svg" xmlns:xlink="http://www.w3.org/1999/xlink" width="24" height="24" viewBox="0 0 24 24">
<path fill-rule="nonzero" fill="rgb(0%, 0%, 0%)" fill-opacity="1" d="M 3.199219 16 L 22.398438 18.390625 L 22.398438 19.199219 L 3.199219 19.199219 Z M 22.398438 9.601562 L 20.800781 11.199219 L 20.800781 12.132812 L 8.3125 6.929688 L 8.414062 6.730469 L 10.574219 4.550781 L 11.90625 4.550781 C 12.054688 4.550781 12.195312 4.492188 12.300781 4.386719 C 12.40625 4.28125 12.464844 4.140625 12.464844 3.992188 C 12.464844 3.84375 12.40625 3.699219 12.300781 3.597656 C 12.195312 3.492188 12.054688 3.433594 11.90625 3.433594 L 10.34375 3.433594 C 10.195312 3.433594 10.050781 3.492188 9.945312 3.597656 L 7.558594 6.003906 C 7.515625 6.046875 7.480469 6.097656 7.453125 6.148438 L 7.277344 6.5 L 3.199219 4.800781 C 3.199219 8 3.152344 11.132812 7.777344 12 C 10.046875 12.425781 20.800781 14.398438 20.800781 14.398438 L 24 11.199219 Z M 22.398438 9.601562 "/>
</svg>
