<?xml version="1.0" encoding="UTF-8"?>
<svg xmlns="http://www.w3.org/2000/svg" xmlns:xlink="http://www.w3.org/1999/xlink" width="24" height="24" viewBox="0 0 24 24">
<path fill-rule="nonzero" fill="rgb(0%, 0%, 0%)" fill-opacity="1" d="M 21.601562 14.398438 L 20.800781 14.398438 L 20.800781 9.601562 L 21.601562 9.601562 C 21.8125 9.601562 22.015625 9.515625 22.164062 9.367188 C 22.316406 9.214844 22.398438 9.011719 22.398438 8.800781 C 22.398438 8.585938 22.316406 8.382812 22.164062 8.234375 C 22.015625 8.085938 21.8125 8 21.601562 8 L 20.800781 8 L 20.800781 4.800781 L 20.34375 3.882812 C 20.308594 3.824219 20.257812 3.777344 20.199219 3.742188 C 20.140625 3.707031 20.074219 3.691406 20.007812 3.6875 C 19.9375 3.6875 19.871094 3.703125 19.8125 3.738281 C 19.75 3.769531 19.699219 3.816406 19.664062 3.875 L 19.199219 4.800781 L 19.199219 8 L 17.601562 8 L 17.601562 4.800781 L 17.140625 3.882812 C 17.109375 3.824219 17.058594 3.777344 17 3.742188 C 16.941406 3.707031 16.875 3.691406 16.804688 3.6875 C 16.738281 3.6875 16.671875 3.703125 16.609375 3.738281 C 16.550781 3.769531 16.5 3.816406 16.464844 3.875 L 16 4.800781 L 16 8 L 14.398438 8 L 14.398438 4.800781 L 13.941406 3.882812 C 13.90625 3.824219 13.859375 3.777344 13.800781 3.742188 C 13.742188 3.707031 13.675781 3.691406 13.605469 3.6875 C 13.539062 3.6875 13.472656 3.703125 13.410156 3.738281 C 13.351562 3.769531 13.300781 3.816406 13.265625 3.875 L 12.800781 4.800781 L 12.800781 8 L 11.199219 8 L 11.199219 4.800781 L 10.742188 3.882812 C 10.707031 3.824219 10.660156 3.777344 10.597656 3.742188 C 10.539062 3.707031 10.472656 3.691406 10.40625 3.6875 C 10.335938 3.6875 10.269531 3.703125 10.210938 3.738281 C 10.152344 3.769531 10.101562 3.816406 10.0625 3.875 L 9.601562 4.800781 L 9.601562 8 L 8 8 L 8 4.800781 L 7.542969 3.882812 C 7.507812 3.824219 7.457031 3.777344 7.398438 3.742188 C 7.339844 3.707031 7.273438 3.691406 7.207031 3.6875 C 7.136719 3.6875 7.070312 3.703125 7.011719 3.738281 C 6.949219 3.769531 6.902344 3.816406 6.863281 3.875 L 6.398438 4.800781 L 6.398438 8 L 4.800781 8 L 4.800781 4.800781 L 4.34375 3.882812 C 4.308594 3.824219 4.257812 3.777344 4.199219 3.742188 C 4.140625 3.707031 4.074219 3.691406 4.007812 3.6875 C 3.9375 3.6875 3.871094 3.703125 3.8125 3.738281 C 3.75 3.769531 3.699219 3.816406 3.664062 3.875 L 3.199219 4.800781 L 3.199219 8 L 2.398438 8 C 2.1875 8 1.984375 8.085938 1.835938 8.234375 C 1.683594 8.382812 1.601562 8.585938 1.601562 8.800781 C 1.601562 9.011719 1.683594 9.214844 1.835938 9.367188 C 1.984375 9.515625 2.1875 9.601562 2.398438 9.601562 L 3.199219 9.601562 L 3.199219 14.398438 L 2.398438 14.398438 C 2.1875 14.398438 1.984375 14.484375 1.835938 14.632812 C 1.683594 14.785156 1.601562 14.988281 1.601562 15.199219 C 1.601562 15.414062 1.683594 15.617188 1.835938 15.765625 C 1.984375 15.914062 2.1875 16 2.398438 16 L 3.199219 16 L 3.199219 18.398438 C 3.199219 18.613281 3.285156 18.816406 3.433594 18.964844 C 3.585938 19.117188 3.789062 19.199219 4 19.199219 C 4.210938 19.199219 4.414062 19.117188 4.566406 18.964844 C 4.714844 18.816406 4.800781 18.613281 4.800781 18.398438 L 4.800781 16 L 6.398438 16 L 6.398438 18.398438 C 6.398438 18.613281 6.484375 18.816406 6.632812 18.964844 C 6.785156 19.117188 6.988281 19.199219 7.199219 19.199219 C 7.414062 19.199219 7.617188 19.117188 7.765625 18.964844 C 7.914062 18.816406 8 18.613281 8 18.398438 L 8 16 L 9.601562 16 L 9.601562 18.398438 C 9.601562 18.613281 9.683594 18.816406 9.835938 18.964844 C 9.984375 19.117188 10.1875 19.199219 10.398438 19.199219 C 10.613281 19.199219 10.816406 19.117188 10.964844 18.964844 C 11.117188 18.816406 11.199219 18.613281 11.199219 18.398438 L 11.199219 16 L 12.800781 16 L 12.800781 18.398438 C 12.800781 18.613281 12.882812 18.816406 13.035156 18.964844 C 13.183594 19.117188 13.386719 19.199219 13.601562 19.199219 C 13.8125 19.199219 14.015625 19.117188 14.164062 18.964844 C 14.316406 18.816406 14.398438 18.613281 14.398438 18.398438 L 14.398438 16 L 16 16 L 16 18.398438 C 16 18.613281 16.085938 18.816406 16.234375 18.964844 C 16.382812 19.117188 16.585938 19.199219 16.800781 19.199219 C 17.011719 19.199219 17.214844 19.117188 17.367188 18.964844 C 17.515625 18.816406 17.601562 18.613281 17.601562 18.398438 L 17.601562 16 L 19.199219 16 L 19.199219 18.398438 C 19.199219 18.613281 19.285156 18.816406 19.433594 18.964844 C 19.585938 19.117188 19.789062 19.199219 20 19.199219 C 20.210938 19.199219 20.414062 19.117188 20.566406 18.964844 C 20.714844 18.816406 20.800781 18.613281 20.800781 18.398438 L 20.800781 16 L 21.601562 16 C 21.8125 16 22.015625 15.914062 22.164062 15.765625 C 22.316406 15.617188 22.398438 15.414062 22.398438 15.199219 C 22.398438 14.988281 22.316406 14.785156 22.164062 14.632812 C 22.015625 14.484375 21.8125 14.398438 21.601562 14.398438 Z M 4.800781 14.398438 L 4.800781 9.601562 L 6.398438 9.601562 L 6.398438 14.398438 Z M 8 14.398438 L 8 9.601562 L 9.601562 9.601562 L 9.601562 14.398438 Z M 11.199219 14.398438 L 11.199219 9.601562 L 12.800781 9.601562 L 12.800781 14.398438 Z M 14.398438 14.398438 L 14.398438 9.601562 L 16 9.601562 L 16 14.398438 Z M 17.601562 14.398438 L 17.601562 9.601562 L 19.199219 9.601562 L 19.199219 14.398438 Z M 17.601562 14.398438 "/>
</svg>
