<?xml version="1.0" encoding="UTF-8"?>
<svg xmlns="http://www.w3.org/2000/svg" xmlns:xlink="http://www.w3.org/1999/xlink" width="24" height="24" viewBox="0 0 24 24">
<path fill-rule="nonzero" fill="rgb(0%, 0%, 0%)" fill-opacity="1" d="M 12.800781 10.398438 L 12.800781 8.800781 C 12.800781 8.375 12.632812 7.96875 12.332031 7.667969 C 12.03125 7.367188 11.625 7.199219 11.199219 7.199219 C 10.777344 7.199219 10.367188 7.367188 10.070312 7.667969 C 9.769531 7.96875 9.601562 8.375 9.601562 8.800781 L 9.601562 13.601562 Z M 9.601562 4.800781 C 9.601562 4.484375 9.695312 4.175781 9.871094 3.910156 C 10.046875 3.648438 10.296875 3.441406 10.585938 3.320312 C 10.878906 3.199219 11.203125 3.167969 11.511719 3.230469 C 11.824219 3.292969 12.109375 3.445312 12.332031 3.667969 C 12.554688 3.890625 12.707031 4.175781 12.769531 4.488281 C 12.832031 4.796875 12.800781 5.121094 12.679688 5.414062 C 12.558594 5.703125 12.351562 5.953125 12.089844 6.128906 C 11.824219 6.304688 11.515625 6.398438 11.199219 6.398438 C 10.777344 6.398438 10.367188 6.230469 10.070312 5.929688 C 9.769531 5.632812 9.601562 5.222656 9.601562 4.800781 Z M 24 9.601562 C 24 10.023438 23.832031 10.429688 23.53125 10.730469 C 23.230469 11.03125 22.824219 11.199219 22.398438 11.199219 L 19.871094 11.199219 C 19.660156 11.199219 19.453125 11.238281 19.257812 11.320312 C 19.0625 11.398438 18.886719 11.515625 18.734375 11.664062 L 10.0625 20.335938 C 9.765625 20.632812 9.363281 20.796875 8.945312 20.800781 L 4.800781 20.800781 C 4.375 20.800781 3.96875 20.632812 3.667969 20.332031 C 3.367188 20.03125 3.199219 19.625 3.199219 19.199219 C 3.199219 18.777344 3.367188 18.367188 3.667969 18.070312 C 3.96875 17.769531 4.375 17.601562 4.800781 17.601562 L 7.34375 17.601562 C 7.765625 17.597656 8.164062 17.429688 8.464844 17.136719 L 17.136719 8.464844 C 17.285156 8.316406 17.460938 8.199219 17.65625 8.117188 C 17.851562 8.039062 18.0625 8 18.273438 8 L 22.398438 8 C 22.824219 8 23.230469 8.167969 23.53125 8.46875 C 23.832031 8.769531 24 9.175781 24 9.601562 Z M 24 9.601562 "/>
</svg>
