<?xml version="1.0" encoding="UTF-8"?>
<svg xmlns="http://www.w3.org/2000/svg" xmlns:xlink="http://www.w3.org/1999/xlink" width="24" height="22.4" viewBox="0 0 24 22.4">
<defs>
<clipPath id="clip-0">
<path clip-rule="nonzero" d="M 1 0 L 23 0 L 23 22.398438 L 1 22.398438 Z M 1 0 "/>
</clipPath>
</defs>
<g clip-path="url(#clip-0)">
<path fill-rule="nonzero" fill="rgb(0%, 0%, 0%)" fill-opacity="1" d="M 8.527344 16.425781 C 9.605469 16.441406 10.648438 16.792969 11.488281 17.425781 L 11.902344 17.769531 L 11.984375 17.769531 L 12.480469 17.351562 C 14.050781 16.140625 16.285156 16.03125 17.984375 17.082031 L 21.601562 10.453125 L 19.199219 8.960938 L 19.199219 3.660156 C 19.125 2.464844 18.082031 1.523438 16.800781 1.492188 L 16 1.492188 C 16.054688 0.71875 15.425781 0.0507812 14.597656 0 C 14.53125 -0.00390625 14.464844 -0.00390625 14.398438 0 L 9.601562 0 C 8.769531 -0.0507812 8.054688 0.535156 8 1.308594 C 7.996094 1.371094 7.996094 1.433594 8 1.492188 L 7.199219 1.492188 C 5.917969 1.523438 4.875 2.464844 4.800781 3.660156 L 4.800781 8.960938 L 2.398438 10.453125 L 6 17.21875 C 6.742188 16.730469 7.621094 16.457031 8.527344 16.425781 Z M 6.398438 3.660156 C 6.417969 3.269531 6.765625 2.96875 7.183594 2.984375 C 7.1875 2.984375 7.195312 2.988281 7.199219 2.988281 L 16.800781 2.988281 C 17.214844 2.960938 17.574219 3.253906 17.601562 3.640625 C 17.601562 3.671875 17.601562 3.703125 17.601562 3.734375 L 17.601562 8.214844 L 12 5.226562 L 6.398438 8.136719 Z M 22.398438 19.414062 L 22.398438 20.90625 C 21.980469 20.9375 21.589844 21.117188 21.3125 21.414062 C 20.878906 21.84375 20.324219 22.15625 19.710938 22.308594 C 18.726562 22.582031 17.664062 22.375 16.878906 21.757812 L 16.257812 21.234375 C 15.769531 20.785156 14.984375 20.785156 14.496094 21.234375 C 14.273438 21.414062 14.0625 21.609375 13.824219 21.789062 C 12.652344 22.664062 10.972656 22.617188 9.855469 21.683594 L 9.230469 21.160156 C 8.773438 20.785156 8.089844 20.785156 7.632812 21.160156 C 7.328125 21.382812 7.054688 21.636719 6.753906 21.863281 C 5.625 22.640625 4.074219 22.605469 2.992188 21.773438 L 2.496094 21.371094 C 2.265625 21.121094 1.949219 20.957031 1.601562 20.90625 L 1.601562 19.414062 C 2.011719 19.367188 2.433594 19.4375 2.800781 19.621094 C 3.246094 19.878906 3.667969 20.167969 4.0625 20.488281 C 4.390625 20.820312 4.886719 20.964844 5.359375 20.863281 C 5.539062 20.8125 5.707031 20.730469 5.855469 20.621094 C 6.113281 20.445312 6.320312 20.234375 6.574219 20.039062 C 7.714844 19.160156 9.359375 19.160156 10.496094 20.039062 C 10.753906 20.234375 10.992188 20.457031 11.246094 20.652344 C 11.707031 21.027344 12.390625 21.027344 12.847656 20.652344 C 13.105469 20.457031 13.34375 20.234375 13.601562 20.039062 C 14.738281 19.152344 16.394531 19.152344 17.535156 20.039062 C 17.777344 20.234375 18 20.445312 18.238281 20.621094 C 18.699219 20.996094 19.382812 20.996094 19.839844 20.621094 L 20.59375 20.011719 C 21.101562 19.625 21.742188 19.414062 22.398438 19.414062 Z M 22.398438 19.414062 "/>
</g>
</svg>
