<?xml version="1.0" encoding="UTF-8"?>
<svg xmlns="http://www.w3.org/2000/svg" xmlns:xlink="http://www.w3.org/1999/xlink" width="24" height="22.4" viewBox="0 0 24 22.4">
<path fill-rule="nonzero" fill="rgb(0%, 0%, 0%)" fill-opacity="1" d="M 6.398438 2.988281 C 4.800781 2.988281 4.800781 4.480469 6.398438 4.480469 L 12.800781 4.480469 L 12.800781 5.972656 C 12.355469 5.972656 12 6.304688 12 6.71875 L 12 7.464844 L 6.289062 7.464844 C 5.925781 6.152344 4.660156 5.226562 3.199219 5.226562 C 1.433594 5.226562 0 6.5625 0 8.214844 C 0 9.863281 1.433594 11.199219 3.199219 11.199219 C 3.796875 11.199219 4.378906 11.042969 4.882812 10.746094 L 8.800781 15.679688 C 10.410156 17.847656 13.308594 17.921875 14.398438 17.921875 L 22.398438 17.921875 C 22.398438 17.921875 24 17.921875 24 16.425781 L 24 14.941406 C 24 13.847656 23.796875 13.25 23.199219 12.691406 L 18.398438 8.214844 C 18.398438 8.214844 17.453125 7.464844 16.363281 7.464844 L 15.199219 7.464844 L 15.199219 6.71875 C 15.199219 6.304688 14.84375 5.972656 14.398438 5.972656 L 14.398438 4.480469 L 20.800781 4.480469 C 22.398438 4.480469 22.398438 2.988281 20.800781 2.988281 Z M 3.199219 6.71875 C 4.082031 6.71875 4.800781 7.386719 4.800781 8.214844 C 4.800781 9.039062 4.082031 9.707031 3.199219 9.707031 C 2.316406 9.707031 1.601562 9.039062 1.601562 8.214844 C 1.601562 7.386719 2.316406 6.71875 3.199219 6.71875 Z M 16 8.960938 C 16.800781 8.960938 17.261719 9.441406 17.601562 9.707031 L 21.601562 13.441406 L 16 13.441406 C 16 13.441406 14.398438 13.441406 14.398438 11.945312 L 14.398438 10.453125 C 14.398438 10.453125 14.398438 8.960938 16 8.960938 Z M 16 8.960938 "/>
</svg>
