<?xml version="1.0" encoding="UTF-8"?>
<svg xmlns="http://www.w3.org/2000/svg" xmlns:xlink="http://www.w3.org/1999/xlink" width="24" height="24" viewBox="0 0 24 24">
<path fill-rule="nonzero" fill="rgb(0%, 0%, 0%)" fill-opacity="1" d="M 24 16 C 24 16.425781 23.832031 16.832031 23.53125 17.132812 C 23.230469 17.429688 22.824219 17.601562 22.398438 17.601562 L 15.0625 17.601562 C 14.636719 17.601562 14.230469 17.429688 13.929688 17.132812 L 11.433594 14.632812 C 11.359375 14.558594 11.269531 14.5 11.175781 14.460938 C 11.078125 14.421875 10.972656 14.398438 10.867188 14.398438 L 5.335938 14.398438 C 4.988281 14.398438 4.648438 14.289062 4.371094 14.078125 L 2.21875 12.460938 C 2.027344 12.308594 1.871094 12.117188 1.765625 11.902344 C 1.660156 11.683594 1.601562 11.441406 1.601562 11.199219 C 1.601562 10.929688 1.671875 10.664062 1.800781 10.425781 C 1.933594 10.191406 2.125 9.992188 2.355469 9.851562 L 8 6.398438 L 9.660156 3.691406 C 9.730469 3.523438 9.859375 3.378906 10.023438 3.292969 C 10.1875 3.207031 10.375 3.179688 10.554688 3.214844 C 10.738281 3.25 10.902344 3.347656 11.019531 3.492188 C 11.136719 3.636719 11.199219 3.816406 11.199219 4 L 11.199219 9.601562 L 12.800781 11.199219 L 14.398438 11.199219 L 23.058594 9.613281 C 23.242188 9.582031 23.429688 9.613281 23.59375 9.703125 C 23.753906 9.792969 23.878906 9.9375 23.945312 10.109375 C 24.011719 10.285156 24.019531 10.476562 23.960938 10.652344 C 23.902344 10.828125 23.785156 10.976562 23.628906 11.078125 L 20.800781 12.800781 L 23.410156 14.757812 C 23.59375 14.90625 23.746094 15.097656 23.847656 15.3125 C 23.949219 15.527344 24 15.761719 24 16 Z M 8.800781 16 L 5.160156 16 C 4.355469 16 3.5625 15.796875 2.855469 15.410156 L 1.183594 14.5 C 1 14.402344 0.78125 14.382812 0.582031 14.445312 C 0.382812 14.503906 0.214844 14.640625 0.113281 14.824219 C 0.0117188 15.007812 -0.0117188 15.222656 0.046875 15.425781 C 0.101562 15.625 0.234375 15.796875 0.414062 15.902344 L 2.445312 17.011719 C 3.152344 17.398438 3.945312 17.601562 4.75 17.601562 L 8.800781 17.601562 C 9.011719 17.601562 9.214844 17.515625 9.367188 17.367188 C 9.515625 17.214844 9.601562 17.011719 9.601562 16.800781 C 9.601562 16.585938 9.515625 16.382812 9.367188 16.234375 C 9.214844 16.085938 9.011719 16 8.800781 16 Z M 8.800781 16 "/>
</svg>
