<?xml version="1.0" encoding="UTF-8"?>
<svg xmlns="http://www.w3.org/2000/svg" xmlns:xlink="http://www.w3.org/1999/xlink" width="24" height="24" viewBox="0 0 24 24">
<path fill-rule="nonzero" fill="rgb(0%, 0%, 0%)" fill-opacity="1" d="M 1.601562 20.800781 L 1.601562 3.199219 L 8.800781 3.199219 C 9.890625 3.199219 10.957031 3.519531 11.871094 4.117188 C 12.78125 4.714844 13.5 5.566406 13.9375 6.566406 C 13.621094 6.890625 13.351562 7.253906 13.128906 7.644531 C 12.761719 8.300781 12.757812 8.984375 12.851562 9.492188 L 13.332031 12.09375 C 12.8125 12.808594 12.128906 13.390625 11.34375 13.792969 C 10.554688 14.191406 9.683594 14.402344 8.800781 14.398438 L 4.800781 14.398438 L 4.800781 20.800781 Z M 8.800781 11.199219 C 9.113281 11.199219 9.425781 11.136719 9.71875 11.015625 C 10.007812 10.898438 10.273438 10.71875 10.496094 10.496094 C 10.71875 10.273438 10.898438 10.007812 11.015625 9.71875 C 11.136719 9.425781 11.199219 9.113281 11.199219 8.800781 C 11.199219 8.484375 11.136719 8.171875 11.015625 7.882812 C 10.898438 7.589844 10.71875 7.324219 10.496094 7.101562 C 10.273438 6.878906 10.007812 6.703125 9.71875 6.582031 C 9.425781 6.460938 9.113281 6.398438 8.800781 6.398438 L 4.800781 6.398438 L 4.800781 11.199219 Z M 14.425781 9.203125 C 14.367188 8.941406 14.402344 8.667969 14.523438 8.429688 C 14.902344 7.757812 15.964844 6.398438 18.398438 6.398438 C 20.832031 6.398438 21.894531 7.753906 22.273438 8.429688 C 22.398438 8.667969 22.433594 8.941406 22.375 9.203125 L 20.832031 17.601562 L 19.199219 17.601562 L 19.199219 20.800781 L 17.601562 20.800781 L 17.601562 17.601562 L 15.96875 17.601562 Z M 20.398438 11.199219 L 20.800781 9.046875 C 20.527344 8.65625 19.871094 8 18.398438 8 C 16.929688 8 16.273438 8.65625 16 9.046875 L 16.398438 11.199219 Z M 20.398438 11.199219 "/>
</svg>
