<?xml version="1.0" encoding="UTF-8"?>
<svg xmlns="http://www.w3.org/2000/svg" xmlns:xlink="http://www.w3.org/1999/xlink" width="24" height="24" viewBox="0 0 24 24">
<path fill-rule="nonzero" fill="rgb(0%, 0%, 0%)" fill-opacity="1" d="M 4 1.601562 C 3.558594 1.601562 3.199219 1.957031 3.199219 2.398438 L 3.199219 20.800781 L 2.398438 20.800781 C 1.957031 20.800781 1.601562 21.160156 1.601562 21.601562 C 1.601562 22.042969 1.957031 22.398438 2.398438 22.398438 L 13.601562 22.398438 C 14.042969 22.398438 14.398438 22.042969 14.398438 21.601562 C 14.398438 21.160156 14.042969 20.800781 13.601562 20.800781 L 11.199219 20.800781 L 11.199219 16.15625 L 22.042969 8.875 C 22.410156 8.625 22.507812 8.128906 22.257812 7.761719 L 21.8125 7.097656 C 21.566406 6.730469 21.070312 6.632812 20.703125 6.882812 L 11.199219 13.265625 L 11.199219 3.199219 L 12 3.199219 C 12.441406 3.199219 12.800781 2.84375 12.800781 2.398438 C 12.800781 1.957031 12.441406 1.601562 12 1.601562 Z M 4.800781 5.601562 C 4.800781 5.15625 5.15625 4.800781 5.601562 4.800781 L 8.800781 4.800781 C 9.242188 4.800781 9.601562 5.15625 9.601562 5.601562 L 9.601562 12 C 9.601562 12.441406 9.242188 12.800781 8.800781 12.800781 L 5.601562 12.800781 C 5.15625 12.800781 4.800781 12.441406 4.800781 12 Z M 4.800781 5.601562 "/>
</svg>
