<?xml version="1.0" encoding="UTF-8"?>
<svg xmlns="http://www.w3.org/2000/svg" xmlns:xlink="http://www.w3.org/1999/xlink" width="24" height="24" viewBox="0 0 24 24">
<path fill-rule="nonzero" fill="rgb(0%, 0%, 0%)" fill-opacity="1" d="M 0 10.945312 L 0 17.601562 L 3.199219 17.601562 L 3.199219 16 C 3.257812 14.257812 4.65625 12.859375 6.398438 12.800781 C 8.140625 12.859375 9.542969 14.257812 9.601562 16 L 9.601562 17.601562 L 14.398438 17.601562 L 14.398438 16 C 14.457031 14.257812 15.859375 12.859375 17.601562 12.800781 C 19.34375 12.859375 20.742188 14.257812 20.800781 16 L 20.800781 17.601562 L 24 17.601562 L 24 10.945312 C 16.960938 1.730469 4.914062 3.839844 0 10.945312 Z M 15.199219 5.972656 C 16.023438 6.167969 16.824219 6.4375 17.601562 6.773438 L 17.601562 11.199219 L 15.199219 11.199219 Z M 14.398438 5.8125 L 14.398438 11.199219 L 12 11.199219 L 12 5.609375 C 12.804688 5.609375 13.609375 5.679688 14.398438 5.8125 Z M 5.601562 7.164062 C 6.367188 6.765625 7.171875 6.441406 8 6.195312 L 8 11.199219 L 5.601562 11.199219 Z M 8.800781 11.199219 L 8.800781 5.96875 C 9.589844 5.785156 10.390625 5.667969 11.199219 5.625 L 11.199219 11.199219 Z M 4.800781 7.589844 L 4.800781 11.199219 L 0.800781 11.199219 C 1.882812 9.75 3.25 8.523438 4.800781 7.589844 Z M 18.398438 11.199219 L 18.398438 7.199219 L 18.316406 7.113281 C 20.238281 8.078125 21.910156 9.476562 23.199219 11.199219 Z M 18.398438 11.199219 "/>
</svg>
