<?xml version="1.0" encoding="UTF-8"?>
<svg xmlns="http://www.w3.org/2000/svg" xmlns:xlink="http://www.w3.org/1999/xlink" width="24" height="24" viewBox="0 0 24 24">
<path fill-rule="nonzero" fill="rgb(0%, 0%, 0%)" fill-opacity="1" d="M 12 4 C 9.867188 4 8.265625 5.671875 8.265625 7.734375 C 8.269531 9.402344 9.375 10.828125 10.933594 11.292969 L 10.933594 17.734375 C 9.941406 17.558594 8.933594 17.148438 8.109375 16.382812 C 6.984375 15.335938 6.136719 13.671875 6.136719 10.929688 C 6.144531 10.328125 5.652344 9.839844 5.050781 9.851562 C 4.460938 9.859375 3.992188 10.34375 4 10.929688 C 4 14.132812 5.078125 16.472656 6.65625 17.941406 C 8.234375 19.410156 10.226562 20 12 20 C 13.777344 20 15.769531 19.402344 17.347656 17.929688 C 18.921875 16.460938 19.996094 14.121094 19.996094 10.929688 C 20.066406 9.441406 17.796875 9.441406 17.867188 10.929688 C 17.867188 13.65625 17.011719 15.320312 15.890625 16.371094 C 15.066406 17.140625 14.058594 17.554688 13.066406 17.734375 L 13.066406 11.296875 C 14.625 10.832031 15.730469 9.402344 15.734375 7.734375 C 15.734375 5.671875 14.132812 4 12 4 Z M 12 6.132812 C 12.882812 6.132812 13.601562 6.851562 13.601562 7.734375 C 13.601562 8.617188 12.882812 9.332031 12 9.332031 C 11.117188 9.332031 10.398438 8.617188 10.398438 7.734375 C 10.398438 6.851562 11.117188 6.132812 12 6.132812 Z M 12 6.132812 "/>
</svg>
