<?xml version="1.0" encoding="UTF-8"?>
<svg xmlns="http://www.w3.org/2000/svg" xmlns:xlink="http://www.w3.org/1999/xlink" width="24" height="24" viewBox="0 0 24 24">
<path fill-rule="nonzero" fill="rgb(0%, 0%, 0%)" fill-opacity="1" d="M 7.851562 19.199219 C 7.984375 19.5625 8.03125 19.953125 7.980469 20.335938 C 7.929688 20.71875 7.789062 21.085938 7.566406 21.402344 C 7.347656 21.71875 7.050781 21.976562 6.710938 22.15625 C 6.367188 22.335938 5.988281 22.425781 5.601562 22.425781 C 5.214844 22.425781 4.832031 22.335938 4.488281 22.15625 C 4.148438 21.976562 3.851562 21.71875 3.632812 21.402344 C 3.410156 21.085938 3.269531 20.71875 3.21875 20.335938 C 3.171875 19.953125 3.214844 19.5625 3.347656 19.199219 Z M 21.691406 9.601562 C 21.664062 9.601562 20.800781 9.601562 20.800781 9.601562 L 20.800781 4.800781 L 21.363281 4.800781 C 21.4375 4.792969 21.507812 4.769531 21.570312 4.726562 C 21.632812 4.683594 21.683594 4.628906 21.71875 4.5625 L 22.148438 3.707031 C 22.15625 3.671875 22.160156 3.636719 22.160156 3.601562 C 22.160156 3.546875 22.152344 3.496094 22.132812 3.445312 C 22.109375 3.398438 22.082031 3.355469 22.042969 3.316406 C 22.007812 3.28125 21.960938 3.25 21.914062 3.230469 C 21.863281 3.210938 21.8125 3.199219 21.761719 3.199219 L 20.800781 3.199219 L 20.800781 2.71875 C 20.792969 2.636719 20.757812 2.558594 20.699219 2.5 C 20.640625 2.441406 20.5625 2.40625 20.480469 2.398438 L 14.800781 2.398438 C 14.695312 2.398438 14.59375 2.441406 14.515625 2.515625 C 14.441406 2.59375 14.398438 2.695312 14.398438 2.800781 C 14.398438 2.90625 14.441406 3.007812 14.515625 3.082031 C 14.59375 3.15625 14.695312 3.199219 14.800781 3.199219 L 19.199219 3.199219 L 19.199219 10.558594 L 12.160156 16 L 9.601562 16 L 9.601562 12 C 9.601562 11.789062 9.515625 11.585938 9.367188 11.433594 C 9.214844 11.285156 9.011719 11.199219 8.800781 11.199219 L 8 11.199219 L 8 8 L 10.800781 8 C 10.90625 8 11.007812 7.957031 11.082031 7.882812 C 11.15625 7.808594 11.199219 7.707031 11.199219 7.601562 C 11.199219 7.492188 11.15625 7.390625 11.082031 7.316406 C 11.007812 7.242188 10.90625 7.199219 10.800781 7.199219 L 3.625 6.453125 C 3.617188 6.453125 3.609375 6.441406 3.601562 6.441406 C 3.492188 6.441406 3.390625 6.484375 3.316406 6.558594 C 3.242188 6.636719 3.199219 6.738281 3.199219 6.84375 L 3.199219 7.601562 C 3.199219 7.707031 3.242188 7.808594 3.316406 7.882812 C 3.390625 7.957031 3.492188 8 3.601562 8 L 4.800781 8 L 4.800781 11.199219 L 4 11.199219 C 3.367188 11.214844 2.765625 11.472656 2.320312 11.921875 C 1.875 12.367188 1.617188 12.96875 1.601562 13.601562 L 1.601562 16.800781 C 1.585938 17 1.65625 17.195312 1.789062 17.347656 C 1.921875 17.496094 2.105469 17.585938 2.308594 17.601562 C 2.335938 17.601562 12 17.601562 12 17.601562 L 16 16 L 21.601562 16 C 21.800781 16.011719 21.996094 15.945312 22.144531 15.8125 C 22.296875 15.679688 22.386719 15.492188 22.398438 15.292969 C 22.398438 15.261719 22.398438 10.398438 22.398438 10.398438 C 22.414062 10.199219 22.34375 10.003906 22.210938 9.855469 C 22.078125 9.703125 21.894531 9.613281 21.691406 9.601562 Z M 20 17.601562 C 19.523438 17.601562 19.0625 17.742188 18.667969 18.003906 C 18.273438 18.269531 17.964844 18.644531 17.78125 19.082031 C 17.601562 19.519531 17.554688 20.003906 17.644531 20.46875 C 17.738281 20.933594 17.96875 21.363281 18.304688 21.695312 C 18.636719 22.03125 19.066406 22.261719 19.53125 22.355469 C 19.996094 22.445312 20.480469 22.398438 20.917969 22.21875 C 21.355469 22.035156 21.730469 21.726562 21.996094 21.332031 C 22.257812 20.9375 22.398438 20.476562 22.398438 20 C 22.382812 19.367188 22.125 18.765625 21.679688 18.320312 C 21.234375 17.875 20.632812 17.617188 20 17.601562 Z M 20 17.601562 "/>
</svg>
