<?xml version="1.0" encoding="UTF-8"?>
<svg xmlns="http://www.w3.org/2000/svg" xmlns:xlink="http://www.w3.org/1999/xlink" width="24" height="24" viewBox="0 0 24 24">
<path fill-rule="nonzero" fill="rgb(0%, 0%, 0%)" fill-opacity="1" d="M 2 8.398438 L 2 8 L 4.398438 8 L 4.398438 8.398438 C 4.398438 9.503906 5.296875 10.398438 6.398438 10.398438 L 17.601562 10.398438 C 18.703125 10.398438 19.601562 9.503906 19.601562 8.398438 L 19.601562 8 L 22 8 L 22 8.398438 C 22 10.828125 20.03125 12.800781 17.601562 12.800781 L 6.398438 12.800781 C 3.96875 12.800781 2 10.828125 2 8.398438 Z M 8 16 C 8 16.882812 7.285156 17.601562 6.398438 17.601562 C 5.515625 17.601562 4.800781 16.882812 4.800781 16 C 4.800781 15.117188 5.515625 14.398438 6.398438 14.398438 C 7.285156 14.398438 8 15.117188 8 16 Z M 19.199219 16 C 19.199219 16.882812 18.484375 17.601562 17.601562 17.601562 C 16.714844 17.601562 16 16.882812 16 16 C 16 15.117188 16.714844 14.398438 17.601562 14.398438 C 18.484375 14.398438 19.199219 15.117188 19.199219 16 Z M 19.199219 16 "/>
</svg>
