<?xml version="1.0" encoding="UTF-8"?>
<svg xmlns="http://www.w3.org/2000/svg" xmlns:xlink="http://www.w3.org/1999/xlink" width="24" height="22.4" viewBox="0 0 24 22.4">
<path fill-rule="nonzero" fill="rgb(0%, 0%, 0%)" fill-opacity="1" d="M 20.800781 7.464844 L 12.800781 7.464844 L 12.800781 3.882812 C 13.097656 3.726562 13.332031 3.484375 13.472656 3.195312 L 21.601562 2.238281 C 22.042969 2.238281 22.398438 1.90625 22.398438 1.492188 C 22.398438 1.082031 22.042969 0.746094 21.601562 0.746094 L 13.246094 1.71875 C 12.953125 1.347656 12.492188 1.128906 12 1.121094 C 11.355469 1.121094 10.773438 1.488281 10.527344 2.046875 L 2.398438 2.988281 C 1.957031 2.988281 1.601562 3.320312 1.601562 3.734375 C 1.601562 4.144531 1.957031 4.480469 2.398438 4.480469 L 10.753906 3.507812 C 10.875 3.660156 11.027344 3.785156 11.199219 3.882812 L 11.199219 7.464844 L 3.199219 7.464844 C 2.316406 7.464844 1.601562 8.136719 1.601562 8.960938 L 1.601562 19.414062 C 1.601562 20.238281 2.316406 20.90625 3.199219 20.90625 L 20.800781 20.90625 C 21.683594 20.90625 22.398438 20.238281 22.398438 19.414062 L 22.398438 8.960938 C 22.398438 8.136719 21.683594 7.464844 20.800781 7.464844 Z M 11.199219 16.425781 L 4.800781 16.425781 L 4.800781 10.453125 L 11.199219 10.453125 Z M 19.199219 16.425781 L 12.800781 16.425781 L 12.800781 10.453125 L 19.199219 10.453125 Z M 19.199219 16.425781 "/>
</svg>
