<?xml version="1.0" encoding="UTF-8"?>
<svg xmlns="http://www.w3.org/2000/svg" xmlns:xlink="http://www.w3.org/1999/xlink" width="24" height="24" viewBox="0 0 24 24">
<path fill-rule="nonzero" fill="rgb(0%, 0%, 0%)" fill-opacity="1" d="M 5.277344 3.359375 C 5.484375 3.257812 5.722656 3.25 5.933594 3.332031 L 15.417969 7.128906 L 21.039062 4.796875 C 22.109375 4.351562 23.34375 4.835938 23.828125 5.890625 C 24.355469 7.03125 23.800781 8.375 22.625 8.816406 L 7.535156 14.492188 C 6.355469 14.933594 5.027344 14.648438 4.140625 13.753906 L 0.3125 9.914062 C 0.160156 9.757812 0.203125 9.5 0.394531 9.402344 L 1.207031 8.996094 C 1.453125 8.875 1.742188 8.886719 1.976562 9.027344 L 5.601562 11.199219 L 10.476562 9.175781 L 4.390625 4.3125 C 4.207031 4.167969 4.238281 3.878906 4.449219 3.777344 Z M 0.800781 19.199219 C 0.359375 19.199219 0 19.558594 0 20 C 0 20.441406 0.359375 20.800781 0.800781 20.800781 L 23.199219 20.800781 C 23.640625 20.800781 24 20.441406 24 20 C 24 19.558594 23.640625 19.199219 23.199219 19.199219 Z M 0.800781 19.199219 "/>
</svg>
