<?xml version="1.0" encoding="UTF-8"?>
<svg xmlns="http://www.w3.org/2000/svg" xmlns:xlink="http://www.w3.org/1999/xlink" width="24" height="24" viewBox="0 0 24 24">
<path fill-rule="nonzero" fill="rgb(0%, 0%, 0%)" fill-opacity="1" d="M 6.398438 3.199219 C 3.75 3.199219 1.601562 5.324219 1.601562 7.941406 L 1.601562 19.21875 C 1.601562 20.09375 2.316406 20.800781 3.199219 20.800781 L 4.800781 20.800781 L 4.800781 13.6875 C 4.800781 9.757812 8.023438 6.574219 12 6.574219 C 15.976562 6.574219 19.199219 9.757812 19.199219 13.6875 L 19.199219 20.800781 L 20.800781 20.800781 C 21.683594 20.800781 22.398438 20.09375 22.398438 19.21875 L 22.398438 7.941406 C 22.398438 5.324219 20.25 3.199219 17.601562 3.199219 Z M 17.601562 16 L 17.601562 14.476562 C 17.601562 10.984375 15.09375 8.152344 12 8.152344 C 8.90625 8.152344 6.398438 10.984375 6.398438 14.476562 L 6.398438 20.800781 Z M 17.601562 16 "/>
</svg>
