<?xml version="1.0" encoding="UTF-8"?>
<svg xmlns="http://www.w3.org/2000/svg" xmlns:xlink="http://www.w3.org/1999/xlink" width="24" height="22.4" viewBox="0 0 24 22.4">
<path fill-rule="nonzero" fill="rgb(0%, 0%, 0%)" fill-opacity="1" d="M 12 2.988281 C 10.917969 2.972656 10.917969 4.496094 12 4.480469 L 14.398438 4.480469 L 14.398438 6.371094 L 9.914062 9.855469 L 8.355469 5.972656 L 8.800781 5.972656 C 9.882812 5.988281 9.882812 4.464844 8.800781 4.480469 L 5.601562 4.480469 C 4.519531 4.464844 4.519531 5.988281 5.601562 5.972656 L 6.644531 5.972656 L 8.070312 9.519531 C 7.320312 9.171875 6.488281 8.960938 5.601562 8.960938 C 2.515625 8.960938 0 11.308594 0 14.1875 C 0 17.066406 2.515625 19.414062 5.601562 19.414062 C 8.683594 19.414062 11.199219 17.066406 11.199219 14.1875 C 11.199219 13.1875 10.878906 12.257812 10.351562 11.460938 L 14.867188 7.953125 L 15.605469 9.6875 C 13.9375 10.59375 12.800781 12.261719 12.800781 14.1875 C 12.800781 17.066406 15.316406 19.414062 18.398438 19.414062 C 21.484375 19.414062 24 17.066406 24 14.1875 C 24 11.308594 21.484375 8.960938 18.398438 8.960938 C 17.945312 8.960938 17.511719 9.023438 17.089844 9.121094 L 16 6.574219 L 16 3.734375 C 16 3.320312 15.640625 2.988281 15.199219 2.988281 Z M 5.601562 10.453125 C 6.546875 10.453125 7.402344 10.769531 8.085938 11.277344 L 5.085938 13.613281 C 4.269531 14.25 5.292969 15.394531 6.113281 14.761719 L 9.113281 12.429688 C 9.414062 12.953125 9.601562 13.546875 9.601562 14.1875 C 9.601562 16.257812 7.820312 17.921875 5.601562 17.921875 C 3.382812 17.921875 1.601562 16.257812 1.601562 14.1875 C 1.601562 12.117188 3.382812 10.453125 5.601562 10.453125 Z M 18.398438 10.453125 C 20.617188 10.453125 22.398438 12.117188 22.398438 14.1875 C 22.398438 16.257812 20.617188 17.921875 18.398438 17.921875 C 16.179688 17.921875 14.398438 16.257812 14.398438 14.1875 C 14.398438 12.878906 15.113281 11.734375 16.199219 11.070312 L 17.65625 14.464844 C 18.050781 15.394531 19.546875 14.835938 19.144531 13.910156 L 17.691406 10.519531 C 17.921875 10.480469 18.15625 10.453125 18.398438 10.453125 Z M 18.398438 10.453125 "/>
</svg>
