<?xml version="1.0" encoding="UTF-8"?>
<svg xmlns="http://www.w3.org/2000/svg" xmlns:xlink="http://www.w3.org/1999/xlink" width="24" height="22.4" viewBox="0 0 24 22.4">
<path fill-rule="nonzero" fill="rgb(0%, 0%, 0%)" fill-opacity="1" d="M 22.144531 10.230469 L 20.160156 8.511719 L 18.398438 5.226562 C 18.25 4.996094 18.035156 4.808594 17.785156 4.675781 C 17.53125 4.546875 17.25 4.480469 16.960938 4.480469 L 7.039062 4.480469 C 6.75 4.480469 6.46875 4.546875 6.214844 4.675781 C 5.964844 4.808594 5.75 4.996094 5.601562 5.226562 L 3.839844 8.511719 L 1.855469 10.230469 C 1.773438 10.300781 1.710938 10.386719 1.667969 10.480469 C 1.621094 10.574219 1.601562 10.675781 1.601562 10.78125 L 1.601562 17.171875 C 1.601562 17.371094 1.683594 17.5625 1.835938 17.703125 C 1.984375 17.839844 2.1875 17.921875 2.398438 17.921875 L 5.601562 17.921875 C 5.921875 17.921875 6.398438 17.621094 6.398438 17.324219 L 6.398438 16.425781 L 17.601562 16.425781 L 17.601562 17.171875 C 17.601562 17.472656 17.921875 17.921875 18.238281 17.921875 L 21.601562 17.921875 C 21.8125 17.921875 22.015625 17.839844 22.164062 17.703125 C 22.316406 17.5625 22.398438 17.371094 22.398438 17.171875 L 22.398438 10.78125 C 22.398438 10.675781 22.378906 10.574219 22.332031 10.480469 C 22.289062 10.386719 22.226562 10.300781 22.144531 10.230469 Z M 7.199219 5.972656 L 16.800781 5.972656 L 18.398438 8.960938 L 5.601562 8.960938 Z M 8 12.84375 C 8 13.140625 7.519531 13.441406 7.199219 13.441406 L 3.839844 13.441406 C 3.519531 13.441406 3.199219 12.992188 3.199219 12.691406 L 3.199219 11.050781 C 3.359375 10.601562 3.679688 10.304688 4.160156 10.453125 L 7.359375 11.050781 C 7.679688 11.050781 8 11.5 8 11.796875 Z M 20.800781 12.691406 C 20.800781 12.992188 20.480469 13.441406 20.160156 13.441406 L 16.800781 13.441406 C 16.480469 13.441406 16 13.140625 16 12.84375 L 16 11.796875 C 16 11.5 16.320312 11.050781 16.640625 11.050781 L 19.839844 10.453125 C 20.320312 10.304688 20.640625 10.601562 20.800781 11.050781 Z M 20.800781 12.691406 "/>
</svg>
