<?xml version="1.0" encoding="UTF-8"?>
<svg xmlns="http://www.w3.org/2000/svg" xmlns:xlink="http://www.w3.org/1999/xlink" width="24" height="24" viewBox="0 0 24 24">
<path fill-rule="nonzero" fill="rgb(0%, 0%, 0%)" fill-opacity="1" d="M 12 0 L 8.800781 3.199219 L 8.800781 6.398438 L 15.199219 6.398438 L 15.199219 3.199219 Z M 8.800781 7.199219 L 6.398438 9.601562 L 17.601562 9.601562 L 15.199219 7.199219 Z M 3.199219 10.398438 C 2.316406 10.398438 1.601562 11.117188 1.601562 12 L 1.601562 20.800781 L 4.800781 20.800781 L 4.800781 12 C 4.800781 11.117188 4.082031 10.398438 3.199219 10.398438 Z M 6.398438 10.398438 L 6.398438 20.800781 L 17.601562 20.800781 L 17.601562 10.398438 Z M 20.800781 10.398438 C 19.917969 10.398438 19.199219 11.117188 19.199219 12 L 19.199219 20.800781 L 22.398438 20.800781 L 22.398438 12 C 22.398438 11.117188 21.683594 10.398438 20.800781 10.398438 Z M 20.800781 10.398438 "/>
</svg>
