<?xml version="1.0" encoding="UTF-8"?>
<svg xmlns="http://www.w3.org/2000/svg" xmlns:xlink="http://www.w3.org/1999/xlink" width="24" height="24" viewBox="0 0 24 24">
<path fill-rule="nonzero" fill="rgb(0%, 0%, 0%)" fill-opacity="1" d="M 20 4 L 4 4 C 3.785156 3.988281 3.574219 4.019531 3.371094 4.09375 C 3.171875 4.171875 2.992188 4.289062 2.839844 4.441406 C 2.6875 4.589844 2.570312 4.773438 2.496094 4.972656 C 2.417969 5.171875 2.386719 5.386719 2.398438 5.601562 C 2.386719 5.8125 2.417969 6.027344 2.496094 6.226562 C 2.570312 6.425781 2.6875 6.609375 2.839844 6.761719 C 2.992188 6.910156 3.171875 7.027344 3.371094 7.105469 C 3.574219 7.179688 3.785156 7.214844 4 7.199219 L 4.800781 7.199219 L 4.800781 19.199219 C 4.789062 19.414062 4.820312 19.628906 4.894531 19.828125 C 4.972656 20.027344 5.089844 20.207031 5.238281 20.359375 C 5.390625 20.511719 5.574219 20.628906 5.773438 20.703125 C 5.972656 20.78125 6.1875 20.8125 6.398438 20.800781 C 6.613281 20.8125 6.828125 20.78125 7.027344 20.703125 C 7.226562 20.628906 7.410156 20.511719 7.558594 20.359375 C 7.710938 20.207031 7.828125 20.027344 7.90625 19.828125 C 7.980469 19.628906 8.011719 19.414062 8 19.199219 L 8 12.800781 L 16 12.800781 L 16 19.199219 C 15.988281 19.414062 16.019531 19.628906 16.09375 19.828125 C 16.171875 20.027344 16.289062 20.207031 16.441406 20.359375 C 16.589844 20.511719 16.773438 20.628906 16.972656 20.703125 C 17.171875 20.78125 17.386719 20.8125 17.601562 20.800781 C 17.8125 20.8125 18.027344 20.78125 18.226562 20.703125 C 18.425781 20.628906 18.609375 20.511719 18.761719 20.359375 C 18.910156 20.207031 19.027344 20.027344 19.105469 19.828125 C 19.179688 19.628906 19.214844 19.414062 19.199219 19.199219 L 19.199219 7.199219 L 20 7.199219 C 20.214844 7.214844 20.425781 7.179688 20.628906 7.105469 C 20.828125 7.027344 21.007812 6.910156 21.160156 6.761719 C 21.3125 6.609375 21.429688 6.425781 21.503906 6.226562 C 21.582031 6.027344 21.613281 5.8125 21.601562 5.601562 C 21.613281 5.386719 21.582031 5.171875 21.503906 4.972656 C 21.429688 4.773438 21.3125 4.589844 21.160156 4.441406 C 21.007812 4.289062 20.828125 4.171875 20.628906 4.09375 C 20.425781 4.019531 20.214844 3.988281 20 4 Z M 16 9.601562 L 12.800781 9.601562 L 12.800781 7.199219 L 16 7.199219 Z M 11.199219 9.601562 L 8 9.601562 L 8 7.199219 L 11.199219 7.199219 Z M 11.199219 9.601562 "/>
</svg>
