<?xml version="1.0" encoding="UTF-8"?>
<svg xmlns="http://www.w3.org/2000/svg" xmlns:xlink="http://www.w3.org/1999/xlink" width="24" height="24" viewBox="0 0 24 24">
<path fill-rule="nonzero" fill="rgb(0%, 0%, 0%)" fill-opacity="1" d="M 19.355469 19.355469 C 15.292969 23.414062 8.707031 23.414062 4.644531 19.355469 C 0.585938 15.292969 0.585938 8.707031 4.644531 4.644531 C 8.707031 0.585938 15.292969 0.585938 19.355469 4.644531 C 19.628906 4.921875 19.882812 5.207031 20.121094 5.5 C 16.890625 2.980469 12.214844 3.207031 9.242188 6.179688 C 6.027344 9.394531 6.027344 14.605469 9.242188 17.820312 C 12.214844 20.792969 16.890625 21.019531 20.121094 18.5 C 19.882812 18.792969 19.628906 19.078125 19.355469 19.355469 Z M 16.160156 10.398438 L 12.800781 10.398438 L 15.519531 12.800781 L 14.398438 16.800781 L 17.601562 14.398438 L 20.800781 16.800781 L 19.679688 12.800781 L 22.398438 10.398438 L 19.039062 10.398438 L 17.601562 7.199219 Z M 16.160156 10.398438 "/>
</svg>
