<?xml version="1.0" encoding="UTF-8"?>
<svg xmlns="http://www.w3.org/2000/svg" xmlns:xlink="http://www.w3.org/1999/xlink" width="24" height="24" viewBox="0 0 24 24">
<path fill-rule="nonzero" fill="rgb(0%, 0%, 0%)" fill-opacity="1" d="M 1.75 19.027344 L 10.945312 2.226562 C 11.402344 1.390625 12.597656 1.390625 13.054688 2.226562 L 22.25 19.027344 C 22.6875 19.828125 22.109375 20.804688 21.195312 20.804688 L 2.804688 20.804688 C 1.890625 20.804688 1.3125 19.828125 1.75 19.027344 Z M 13.28125 12.800781 L 13.925781 8.929688 C 14.007812 8.445312 13.628906 8 13.136719 8 L 10.863281 8 C 10.371094 8 9.992188 8.445312 10.074219 8.929688 L 10.71875 12.800781 Z M 13.761719 15.839844 C 13.761719 14.867188 12.972656 14.078125 12 14.078125 C 11.027344 14.078125 10.238281 14.867188 10.238281 15.839844 C 10.238281 16.8125 11.027344 17.601562 12 17.601562 C 12.972656 17.601562 13.761719 16.8125 13.761719 15.839844 Z M 13.761719 15.839844 "/>
</svg>
