<?xml version="1.0" encoding="UTF-8"?>
<svg xmlns="http://www.w3.org/2000/svg" xmlns:xlink="http://www.w3.org/1999/xlink" width="24" height="24" viewBox="0 0 24 24">
<path fill-rule="nonzero" fill="rgb(0%, 0%, 0%)" fill-opacity="1" d="M 10.488281 15.421875 C 10.339844 15.574219 10.261719 15.773438 10.261719 15.984375 C 10.265625 16.195312 10.347656 16.394531 10.496094 16.542969 C 10.644531 16.691406 10.84375 16.777344 11.054688 16.777344 C 11.265625 16.78125 11.464844 16.699219 11.617188 16.554688 L 15.886719 12.269531 C 15.921875 12.234375 15.953125 12.1875 15.972656 12.140625 C 15.992188 12.09375 16.003906 12.039062 16.003906 11.988281 C 16.003906 11.933594 15.992188 11.882812 15.972656 11.832031 C 15.953125 11.785156 15.921875 11.742188 15.886719 11.703125 L 11.617188 7.421875 C 11.464844 7.277344 11.265625 7.195312 11.054688 7.199219 C 10.84375 7.199219 10.644531 7.285156 10.496094 7.433594 C 10.347656 7.582031 10.265625 7.78125 10.261719 7.992188 C 10.261719 8.199219 10.339844 8.402344 10.488281 8.554688 L 13.121094 11.199219 L 2.398438 11.199219 C 2.1875 11.199219 1.984375 11.285156 1.835938 11.433594 C 1.683594 11.585938 1.601562 11.789062 1.601562 12 C 1.601562 12.210938 1.683594 12.414062 1.835938 12.566406 C 1.984375 12.714844 2.1875 12.800781 2.398438 12.800781 L 13.121094 12.800781 Z M 19.199219 1.601562 L 8.800781 1.601562 C 8.585938 1.601562 8.382812 1.683594 8.234375 1.835938 C 8.085938 1.984375 8 2.1875 8 2.398438 C 8 2.613281 8.085938 2.816406 8.234375 2.964844 C 8.382812 3.117188 8.585938 3.199219 8.800781 3.199219 L 18.398438 3.199219 C 18.613281 3.199219 18.816406 3.285156 18.964844 3.433594 C 19.117188 3.585938 19.199219 3.789062 19.199219 4 L 19.199219 20 C 19.199219 20.210938 19.117188 20.414062 18.964844 20.566406 C 18.816406 20.714844 18.613281 20.800781 18.398438 20.800781 L 8.398438 20.800781 C 8.1875 20.800781 7.984375 20.882812 7.835938 21.035156 C 7.683594 21.183594 7.601562 21.386719 7.601562 21.601562 C 7.601562 21.8125 7.683594 22.015625 7.835938 22.164062 C 7.984375 22.316406 8.1875 22.398438 8.398438 22.398438 L 19.199219 22.398438 C 19.625 22.398438 20.03125 22.230469 20.332031 21.929688 C 20.632812 21.632812 20.800781 21.222656 20.800781 20.800781 L 20.800781 3.199219 C 20.800781 2.777344 20.632812 2.367188 20.332031 2.070312 C 20.03125 1.769531 19.625 1.601562 19.199219 1.601562 Z M 19.199219 1.601562 "/>
</svg>
