<?xml version="1.0" encoding="UTF-8"?>
<svg xmlns="http://www.w3.org/2000/svg" xmlns:xlink="http://www.w3.org/1999/xlink" width="24" height="24" viewBox="0 0 24 24">
<path fill-rule="nonzero" fill="rgb(0%, 0%, 0%)" fill-opacity="1" d="M 12 1.601562 C 10.398438 1.601562 10.398438 3.199219 8.800781 3.199219 L 3.199219 3.199219 C 2.328125 3.199219 1.601562 3.929688 1.601562 4.800781 L 1.601562 16 C 1.601562 16.871094 2.328125 17.601562 3.199219 17.601562 L 11.199219 17.601562 L 11.199219 21.601562 C 11.199219 21.601562 11.199219 22.398438 12 22.398438 C 12.800781 22.398438 12.800781 21.601562 12.800781 21.601562 L 12.800781 17.601562 L 20.800781 17.601562 C 21.671875 17.601562 22.398438 16.871094 22.398438 16 L 22.398438 4.800781 C 22.398438 3.929688 21.671875 3.199219 20.800781 3.199219 L 15.199219 3.199219 C 13.601562 3.199219 13.601562 1.601562 12 1.601562 Z M 4.800781 8 L 4.800781 6.398438 L 19.199219 6.398438 L 19.199219 8 Z M 4.800781 9.601562 L 11.199219 9.601562 L 11.199219 11.199219 L 4.800781 11.199219 Z M 4.800781 12.800781 L 16 12.800781 L 16 14.398438 L 4.800781 14.398438 Z M 4.800781 12.800781 "/>
</svg>
