<?xml version="1.0" encoding="UTF-8"?>
<svg xmlns="http://www.w3.org/2000/svg" xmlns:xlink="http://www.w3.org/1999/xlink" width="24" height="24" viewBox="0 0 24 24">
<path fill-rule="nonzero" fill="rgb(0%, 0%, 0%)" fill-opacity="1" d="M 12 1.601562 C 10.71875 1.601562 9.601562 2.71875 9.601562 4 C 9.601562 5.28125 10.71875 6.398438 12 6.398438 C 13.28125 6.398438 14.398438 5.28125 14.398438 4 C 14.398438 2.71875 13.28125 1.601562 12 1.601562 Z M 6.398438 8 L 6.398438 9.601562 C 6.398438 9.601562 9.601562 9.601562 9.601562 12.800781 L 9.601562 16 C 9.601562 19.199219 6.398438 19.199219 6.398438 19.199219 L 6.398438 20.800781 L 17.601562 20.800781 L 17.601562 19.199219 C 17.601562 19.199219 14.398438 19.199219 14.398438 16 L 14.398438 9.601562 C 14.398438 8.800781 13.601562 8 12.800781 8 Z M 6.398438 8 "/>
</svg>
