<?xml version="1.0" encoding="UTF-8"?>
<svg xmlns="http://www.w3.org/2000/svg" xmlns:xlink="http://www.w3.org/1999/xlink" width="24" height="24" viewBox="0 0 24 24">
<path fill-rule="nonzero" fill="rgb(0%, 0%, 0%)" fill-opacity="1" d="M 12 1.601562 C 9.941406 1.601562 7.933594 2.210938 6.222656 3.351562 C 4.511719 4.496094 3.179688 6.121094 2.390625 8.019531 C 1.605469 9.921875 1.398438 12.011719 1.800781 14.027344 C 2.199219 16.046875 3.191406 17.898438 4.644531 19.355469 C 6.101562 20.808594 7.953125 21.800781 9.972656 22.199219 C 11.988281 22.601562 14.078125 22.394531 15.980469 21.609375 C 17.878906 20.820312 19.503906 19.488281 20.648438 17.777344 C 21.789062 16.066406 22.398438 14.058594 22.398438 12 C 22.398438 10.632812 22.132812 9.28125 21.609375 8.019531 C 21.085938 6.757812 20.320312 5.613281 19.355469 4.644531 C 18.386719 3.679688 17.242188 2.914062 15.980469 2.390625 C 14.71875 1.867188 13.367188 1.601562 12 1.601562 Z M 16.160156 6.144531 L 12 10.304688 L 7.839844 6.144531 C 9.050781 5.269531 10.507812 4.800781 12 4.800781 C 13.492188 4.800781 14.949219 5.269531 16.160156 6.144531 Z M 6.144531 7.839844 L 10.304688 12 L 6.144531 16.160156 C 5.269531 14.949219 4.800781 13.492188 4.800781 12 C 4.800781 10.507812 5.269531 9.050781 6.144531 7.839844 Z M 7.839844 17.855469 L 12 13.695312 L 16.160156 17.855469 C 14.949219 18.730469 13.492188 19.199219 12 19.199219 C 10.507812 19.199219 9.050781 18.730469 7.839844 17.855469 Z M 17.855469 16.160156 L 13.695312 12 L 17.855469 7.839844 C 18.730469 9.050781 19.199219 10.507812 19.199219 12 C 19.199219 13.492188 18.730469 14.949219 17.855469 16.160156 Z M 17.855469 16.160156 "/>
</svg>
