<?xml version="1.0" encoding="UTF-8"?>
<svg xmlns="http://www.w3.org/2000/svg" xmlns:xlink="http://www.w3.org/1999/xlink" width="28" height="28" viewBox="0 0 28 28">
<path fill-rule="nonzero" fill="rgb(6.666667%, 6.666667%, 6.666667%)" fill-opacity="1" stroke-width="3.408" stroke-linecap="butt" stroke-linejoin="miter" stroke="rgb(93.333333%, 93.333333%, 93.333333%)" stroke-opacity="1" stroke-miterlimit="4" d="M 66.269531 1.780134 C 24.921875 1.780134 1.699219 23.141741 1.699219 66.835938 L 1.699219 516.967076 C 1.699219 557.748326 22.575335 579.190848 63.922991 579.190848 L 515.915179 579.190848 C 557.262835 579.190848 578.138951 558.881138 578.138951 516.967076 L 578.138951 66.835938 C 578.138951 24.193638 557.262835 1.780134 514.620536 1.780134 C 514.620536 1.780134 66.107701 1.618304 66.269531 1.780134 Z M 66.269531 1.780134 " transform="matrix(0.0482759, 0, 0, 0.0482759, 0, 0)"/>
<path fill-rule="nonzero" fill="rgb(100%, 100%, 100%)" fill-opacity="1" d="M 12.601562 6.476562 C 13.179688 6.476562 13.675781 6.273438 14.085938 5.859375 C 14.5 5.449219 14.703125 4.945312 14.703125 4.34375 C 14.703125 3.765625 14.5 3.269531 14.085938 2.859375 C 13.675781 2.449219 13.179688 2.242188 12.601562 2.242188 C 12.019531 2.242188 11.519531 2.449219 11.097656 2.859375 C 10.679688 3.269531 10.46875 3.765625 10.46875 4.34375 C 10.46875 4.945312 10.679688 5.449219 11.097656 5.859375 C 11.519531 6.273438 12.019531 6.476562 12.601562 6.476562 Z M 14.011719 7.796875 C 13.933594 8.238281 13.652344 8.460938 13.171875 8.460938 L 8.15625 8.460938 C 7.554688 8.460938 7.253906 8.199219 7.253906 7.679688 C 7.253906 7.457031 7.324219 7.277344 7.464844 7.136719 C 7.085938 7.277344 6.894531 7.527344 6.894531 7.886719 C 6.894531 8.410156 7.207031 8.667969 7.824219 8.667969 L 13.082031 8.667969 C 13.742188 8.667969 14.054688 8.378906 14.011719 7.796875 Z M 8.15625 8.460938 L 13.171875 8.460938 C 13.652344 8.460938 13.933594 8.238281 14.011719 7.796875 C 13.992188 7.277344 13.683594 7.015625 13.082031 7.015625 L 7.824219 7.015625 C 7.804688 7.015625 7.6875 7.058594 7.464844 7.136719 C 7.324219 7.277344 7.253906 7.457031 7.253906 7.679688 C 7.253906 8.199219 7.554688 8.460938 8.15625 8.460938 Z M 15.246094 7.015625 L 20.019531 2.210938 C 21.199219 3.59375 21.871094 5.195312 22.03125 7.015625 Z M 20.019531 13.414062 C 19.019531 12.414062 17.585938 10.980469 15.726562 9.121094 L 15.726562 8.667969 L 22.03125 8.667969 C 21.851562 10.453125 21.179688 12.035156 20.019531 13.414062 Z M 13.414062 16.476562 L 13.414062 16.386719 C 13.414062 16.386719 13.414062 16.398438 13.414062 16.417969 Z M 13.351562 17.078125 L 13.351562 16.988281 C 13.351562 17.007812 13.351562 17.019531 13.351562 17.019531 Z M 20.378906 1.070312 L 14.3125 7.105469 C 14.332031 7.128906 14.351562 7.148438 14.371094 7.167969 C 14.453125 7.328125 14.511719 7.507812 14.554688 7.707031 C 14.574219 7.910156 14.523438 8.136719 14.402344 8.398438 C 14.402344 8.4375 14.382812 8.488281 14.34375 8.550781 C 14.0625 8.96875 13.640625 9.179688 13.082031 9.179688 L 10.199219 9.179688 L 10.199219 16.925781 L 8.546875 25.15625 C 8.488281 25.476562 8.546875 25.773438 8.726562 26.042969 C 8.90625 26.3125 9.15625 26.476562 9.476562 26.539062 C 9.796875 26.597656 10.09375 26.539062 10.363281 26.359375 C 10.632812 26.179688 10.808594 25.929688 10.890625 25.605469 L 12.570312 17.078125 L 13.351562 17.078125 L 15.035156 25.605469 C 15.09375 25.929688 15.257812 26.179688 15.527344 26.359375 C 15.800781 26.539062 16.105469 26.597656 16.445312 26.539062 C 16.746094 26.476562 16.992188 26.3125 17.179688 26.042969 C 17.371094 25.773438 17.425781 25.476562 17.347656 25.15625 L 15.695312 16.867188 L 15.695312 9.929688 L 20.378906 14.585938 L 20.769531 14.164062 C 22.332031 12.445312 23.113281 10.332031 23.113281 7.828125 C 23.113281 5.34375 22.320312 3.234375 20.738281 1.492188 C 20.738281 1.492188 20.621094 1.351562 20.378906 1.070312 Z M 13.414062 16.476562 L 13.414062 16.417969 C 13.414062 16.417969 13.414062 16.40625 13.414062 16.386719 Z M 13.414062 16.476562 "/>
</svg>
