<?xml version="1.0" encoding="UTF-8"?>
<svg xmlns="http://www.w3.org/2000/svg" xmlns:xlink="http://www.w3.org/1999/xlink" width="28" height="28" viewBox="0 0 28 28">
<path fill-rule="nonzero" fill="rgb(6.666667%, 6.666667%, 6.666667%)" fill-opacity="1" stroke-width="3.408" stroke-linecap="butt" stroke-linejoin="miter" stroke="rgb(93.333333%, 93.333333%, 93.333333%)" stroke-opacity="1" stroke-miterlimit="4" d="M 66.269531 1.780134 C 24.921875 1.780134 1.699219 23.141741 1.699219 66.835938 L 1.699219 516.967076 C 1.699219 557.748326 22.575335 579.190848 63.922991 579.190848 L 515.915179 579.190848 C 557.262835 579.190848 578.138951 558.881138 578.138951 516.967076 L 578.138951 66.835938 C 578.138951 24.193638 557.262835 1.780134 514.620536 1.780134 C 514.620536 1.780134 66.107701 1.618304 66.269531 1.780134 Z M 66.269531 1.780134 " transform="matrix(0.0482759, 0, 0, 0.0482759, 0, 0)"/>
<path fill-rule="nonzero" fill="rgb(100%, 100%, 100%)" fill-opacity="1" d="M 13.316406 6.1875 C 13.316406 6.71875 13.5 7.167969 13.867188 7.535156 C 14.238281 7.90625 14.6875 8.089844 15.214844 8.089844 C 15.726562 8.089844 16.171875 7.90625 16.550781 7.535156 C 16.925781 7.167969 17.117188 6.71875 17.117188 6.1875 C 17.117188 5.660156 16.925781 5.210938 16.550781 4.84375 C 16.171875 4.472656 15.726562 4.289062 15.214844 4.289062 C 14.6875 4.289062 14.238281 4.472656 13.867188 4.84375 C 13.5 5.210938 13.316406 5.660156 13.316406 6.1875 Z M 17.570312 16.171875 L 17.570312 9.367188 C 17.511719 8.796875 17.210938 8.515625 16.664062 8.515625 L 13.0625 8.515625 C 12.964844 8.496094 12.804688 8.570312 12.578125 8.742188 L 10.480469 9.960938 L 8.269531 7.777344 C 8.042969 7.53125 7.777344 7.410156 7.472656 7.410156 C 6.832031 7.410156 6.511719 7.738281 6.511719 8.402344 C 6.511719 8.648438 6.59375 8.875 6.765625 9.082031 L 9.574219 11.890625 C 9.800781 12.117188 10.046875 12.230469 10.308594 12.230469 C 10.480469 12.230469 10.679688 12.164062 10.90625 12.03125 L 12.75 11.011719 L 12.75 16.03125 L 9.941406 24.652344 C 9.882812 24.785156 9.855469 24.914062 9.855469 25.046875 C 9.855469 25.425781 9.996094 25.753906 10.28125 26.027344 C 10.566406 26.300781 10.894531 26.4375 11.273438 26.4375 C 11.953125 26.4375 12.417969 26.089844 12.664062 25.386719 L 15.128906 17.929688 L 17.625 25.417969 C 17.871094 26.117188 18.335938 26.464844 19.015625 26.464844 C 19.394531 26.464844 19.726562 26.328125 20.007812 26.054688 C 20.292969 25.78125 20.433594 25.453125 20.433594 25.078125 C 20.433594 24.945312 20.414062 24.8125 20.378906 24.679688 Z M 5.746094 9.082031 L 5.714844 9.109375 C 5.601562 9.222656 5.601562 9.347656 5.714844 9.480469 L 6.253906 10.046875 C 6.367188 10.160156 6.492188 10.160156 6.625 10.046875 L 6.652344 10.019531 C 6.765625 9.886719 6.765625 9.761719 6.652344 9.648438 L 6.113281 9.082031 C 6 8.96875 5.875 8.96875 5.746094 9.082031 Z M 12.292969 4.460938 L 14.707031 2.21875 C 14.800781 2.105469 14.847656 1.972656 14.847656 1.820312 C 14.847656 1.425781 14.648438 1.226562 14.25 1.226562 C 14.082031 1.226562 13.941406 1.273438 13.828125 1.367188 L 11.53125 3.664062 L 8.269531 7.183594 L 8.664062 7.578125 Z M 12.292969 4.460938 "/>
</svg>
