<?xml version="1.0" encoding="UTF-8"?>
<svg xmlns="http://www.w3.org/2000/svg" xmlns:xlink="http://www.w3.org/1999/xlink" width="28" height="28" viewBox="0 0 28 28">
<path fill-rule="nonzero" fill="rgb(6.666667%, 6.666667%, 6.666667%)" fill-opacity="1" stroke-width="3.408" stroke-linecap="butt" stroke-linejoin="miter" stroke="rgb(93.333333%, 93.333333%, 93.333333%)" stroke-opacity="1" stroke-miterlimit="4" d="M 66.269531 1.780134 C 24.921875 1.780134 1.699219 23.141741 1.699219 66.835938 L 1.699219 516.967076 C 1.699219 557.748326 22.575335 579.190848 63.922991 579.190848 L 515.915179 579.190848 C 557.262835 579.190848 578.138951 558.881138 578.138951 516.967076 L 578.138951 66.835938 C 578.138951 24.193638 557.262835 1.780134 514.620536 1.780134 C 514.620536 1.780134 66.107701 1.618304 66.269531 1.780134 Z M 66.269531 1.780134 " transform="matrix(0.0482759, 0, 0, 0.0482759, 0, 0)"/>
<path fill-rule="nonzero" fill="rgb(100%, 100%, 100%)" fill-opacity="1" d="M 12.765625 5.976562 C 12.765625 7.140625 11.820312 8.085938 10.65625 8.085938 C 9.488281 8.085938 8.546875 7.140625 8.546875 5.976562 C 8.546875 4.8125 9.488281 3.867188 10.65625 3.867188 C 11.820312 3.867188 12.765625 4.8125 12.765625 5.976562 Z M 12.765625 5.976562 "/>
<path fill-rule="nonzero" fill="rgb(100%, 100%, 100%)" fill-opacity="1" d="M 2.871094 19.621094 C 3.367188 19.621094 3.84375 19.507812 4.265625 19.316406 C 4.703125 19.113281 5.199219 18.996094 5.710938 18.996094 C 6.21875 18.996094 6.714844 19.113281 7.148438 19.316406 C 7.574219 19.507812 8.054688 19.617188 8.554688 19.617188 C 9.050781 19.617188 9.527344 19.507812 9.953125 19.316406 C 10.386719 19.113281 10.882812 18.996094 11.394531 18.996094 C 11.910156 18.996094 12.398438 19.113281 12.835938 19.316406 C 13.261719 19.507812 13.742188 19.617188 14.238281 19.617188 C 14.734375 19.617188 15.214844 19.507812 15.636719 19.316406 C 16.078125 19.113281 16.570312 18.996094 17.082031 18.996094 C 17.597656 18.996094 18.085938 19.113281 18.519531 19.316406 C 18.949219 19.507812 19.425781 19.617188 19.925781 19.617188 C 20.425781 19.617188 20.898438 19.507812 21.328125 19.316406 C 21.761719 19.113281 22.253906 18.996094 22.765625 18.996094 C 23.203125 18.996094 23.628906 19.078125 24.015625 19.230469 C 24.644531 18.546875 25.03125 17.632812 25.03125 16.636719 C 25.03125 14.511719 23.308594 12.789062 21.1875 12.789062 L 20.753906 12.835938 C 20.28125 14.753906 18.367188 14.835938 18.367188 14.835938 L 9.589844 14.832031 L 8.855469 14.402344 L 10.625 11.433594 L 12.5625 12.550781 C 13.722656 13.304688 14.324219 12.25 14.324219 12.25 L 16.265625 9.085938 C 17.113281 7.710938 15.320312 6.609375 14.484375 7.988281 L 13.125 10.210938 L 9.894531 8.421875 C 7.652344 7.175781 6.707031 9.242188 6.707031 9.242188 L 4.167969 13.589844 C 3.738281 14.492188 4.121094 14.882812 4.121094 14.882812 L 2.867188 14.878906 L 2.867188 19.621094 Z M 2.871094 19.621094 "/>
<path fill-rule="nonzero" fill="rgb(100%, 100%, 100%)" fill-opacity="1" d="M 25.613281 23.816406 C 25.117188 23.816406 24.636719 23.707031 24.214844 23.515625 C 23.777344 23.316406 23.285156 23.195312 22.769531 23.195312 C 22.257812 23.195312 21.765625 23.316406 21.332031 23.515625 C 20.90625 23.707031 20.429688 23.816406 19.929688 23.816406 C 19.433594 23.816406 18.953125 23.707031 18.527344 23.515625 C 18.089844 23.316406 17.597656 23.195312 17.085938 23.195312 C 16.570312 23.195312 16.082031 23.316406 15.644531 23.515625 C 15.222656 23.707031 14.738281 23.816406 14.242188 23.816406 C 13.746094 23.816406 13.265625 23.707031 12.84375 23.515625 C 12.402344 23.316406 11.910156 23.195312 11.402344 23.195312 C 10.882812 23.195312 10.394531 23.316406 9.960938 23.515625 C 9.535156 23.707031 9.054688 23.816406 8.558594 23.816406 C 8.058594 23.816406 7.582031 23.707031 7.152344 23.515625 C 6.71875 23.316406 6.226562 23.195312 5.714844 23.195312 C 5.203125 23.195312 4.710938 23.316406 4.273438 23.515625 C 3.847656 23.707031 3.371094 23.816406 2.871094 23.816406 L 2.871094 21.71875 C 3.371094 21.71875 3.847656 21.605469 4.273438 21.414062 C 4.710938 21.214844 5.203125 21.09375 5.714844 21.09375 C 6.226562 21.09375 6.71875 21.214844 7.152344 21.414062 C 7.582031 21.605469 8.058594 21.71875 8.558594 21.71875 C 9.054688 21.71875 9.535156 21.605469 9.960938 21.414062 C 10.394531 21.214844 10.886719 21.09375 11.402344 21.09375 C 11.914062 21.09375 12.402344 21.214844 12.84375 21.414062 C 13.265625 21.605469 13.746094 21.71875 14.242188 21.71875 C 14.738281 21.71875 15.222656 21.605469 15.644531 21.414062 C 16.082031 21.214844 16.574219 21.09375 17.085938 21.09375 C 17.601562 21.09375 18.089844 21.214844 18.527344 21.414062 C 18.953125 21.605469 19.433594 21.71875 19.929688 21.71875 C 20.429688 21.71875 20.90625 21.605469 21.332031 21.414062 C 21.765625 21.214844 22.261719 21.09375 22.769531 21.09375 C 23.289062 21.09375 23.777344 21.214844 24.214844 21.414062 C 24.636719 21.605469 25.117188 21.71875 25.613281 21.71875 Z M 25.613281 23.816406 "/>
</svg>
