<?xml version="1.0" encoding="UTF-8"?>
<svg xmlns="http://www.w3.org/2000/svg" xmlns:xlink="http://www.w3.org/1999/xlink" width="28" height="28" viewBox="0 0 28 28">
<path fill-rule="nonzero" fill="rgb(6.666667%, 6.666667%, 6.666667%)" fill-opacity="1" stroke-width="3.408" stroke-linecap="butt" stroke-linejoin="miter" stroke="rgb(93.333333%, 93.333333%, 93.333333%)" stroke-opacity="1" stroke-miterlimit="4" d="M 66.269531 1.780134 C 24.921875 1.780134 1.699219 23.141741 1.699219 66.835938 L 1.699219 516.967076 C 1.699219 557.748326 22.575335 579.190848 63.922991 579.190848 L 515.915179 579.190848 C 557.262835 579.190848 578.138951 558.881138 578.138951 516.967076 L 578.138951 66.835938 C 578.138951 24.193638 557.262835 1.780134 514.620536 1.780134 C 514.620536 1.780134 66.107701 1.618304 66.269531 1.780134 Z M 66.269531 1.780134 " transform="matrix(0.0482759, 0, 0, 0.0482759, 0, 0)"/>
<path fill-rule="nonzero" fill="rgb(100%, 100%, 100%)" fill-opacity="1" d="M 5.433594 25.132812 C 5.773438 25.132812 6.242188 25.238281 6.835938 25.445312 C 7.433594 25.652344 7.898438 25.757812 8.238281 25.757812 C 8.578125 25.757812 9.046875 25.652344 9.644531 25.445312 C 10.238281 25.238281 10.707031 25.132812 11.046875 25.132812 C 11.386719 25.132812 11.859375 25.238281 12.464844 25.445312 C 13.070312 25.652344 13.535156 25.757812 13.855469 25.757812 C 14.195312 25.757812 14.667969 25.652344 15.273438 25.445312 C 15.878906 25.238281 16.351562 25.132812 16.691406 25.132812 C 17.011719 25.132812 17.476562 25.238281 18.082031 25.445312 C 18.683594 25.652344 19.15625 25.757812 19.496094 25.757812 C 19.839844 25.757812 20.304688 25.652344 20.902344 25.445312 C 21.496094 25.238281 21.964844 25.132812 22.304688 25.132812 C 22.644531 25.132812 23.113281 25.238281 23.710938 25.445312 C 24.304688 25.652344 24.773438 25.757812 25.113281 25.757812 L 25.113281 23.660156 C 24.773438 23.660156 24.304688 23.558594 23.710938 23.359375 C 23.113281 23.160156 22.644531 23.0625 22.304688 23.0625 C 21.964844 23.0625 21.492188 23.160156 20.886719 23.359375 C 20.28125 23.558594 19.820312 23.660156 19.496094 23.660156 C 19.15625 23.660156 18.683594 23.558594 18.082031 23.359375 C 17.476562 23.160156 17.011719 23.0625 16.691406 23.0625 C 16.351562 23.0625 15.878906 23.160156 15.273438 23.359375 C 14.667969 23.558594 14.195312 23.660156 13.855469 23.660156 C 13.535156 23.660156 13.070312 23.558594 12.464844 23.359375 C 11.859375 23.160156 11.386719 23.0625 11.046875 23.0625 C 10.707031 23.0625 10.238281 23.160156 9.644531 23.359375 C 9.046875 23.558594 8.578125 23.660156 8.238281 23.660156 C 7.898438 23.660156 7.433594 23.558594 6.835938 23.359375 C 6.242188 23.160156 5.773438 23.0625 5.433594 23.0625 C 5.09375 23.0625 4.621094 23.160156 4.015625 23.359375 C 3.410156 23.558594 2.945312 23.660156 2.625 23.660156 L 2.625 25.757812 C 2.945312 25.757812 3.410156 25.652344 4.015625 25.445312 C 4.621094 25.238281 5.09375 25.132812 5.433594 25.132812 Z M 8.976562 15.546875 C 9.507812 15.546875 9.957031 15.363281 10.324219 14.996094 C 10.691406 14.625 10.878906 14.175781 10.878906 13.648438 C 10.878906 13.136719 10.691406 12.699219 10.324219 12.328125 C 9.957031 11.960938 9.507812 11.777344 8.976562 11.777344 C 8.449219 11.777344 8 11.960938 7.628906 12.328125 C 7.261719 12.699219 7.078125 13.136719 7.078125 13.648438 C 7.078125 14.175781 7.261719 14.625 7.628906 14.996094 C 8 15.363281 8.449219 15.546875 8.976562 15.546875 Z M 8.324219 22.667969 C 8.742188 22.667969 9.054688 22.488281 9.261719 22.128906 L 12.324219 16.796875 L 19.015625 12.65625 C 19.300781 12.464844 19.515625 12.238281 19.667969 11.976562 L 24.289062 4.117188 C 24.40625 3.929688 24.460938 3.714844 24.460938 3.46875 C 24.460938 3.109375 24.332031 2.796875 24.078125 2.53125 C 23.824219 2.265625 23.515625 2.132812 23.15625 2.132812 C 22.644531 2.132812 22.257812 2.363281 21.992188 2.816406 L 18.136719 9.367188 L 12.492188 12.769531 C 12.191406 12.957031 11.964844 13.183594 11.8125 13.449219 L 7.386719 21.050781 C 7.292969 21.199219 7.246094 21.378906 7.246094 21.589844 C 7.246094 21.871094 7.355469 22.121094 7.574219 22.339844 C 7.789062 22.558594 8.042969 22.667969 8.324219 22.667969 Z M 8.324219 22.667969 "/>
</svg>
