<?xml version="1.0" encoding="UTF-8"?>
<svg xmlns="http://www.w3.org/2000/svg" xmlns:xlink="http://www.w3.org/1999/xlink" width="28" height="28" viewBox="0 0 28 28">
<path fill-rule="nonzero" fill="rgb(6.666667%, 6.666667%, 6.666667%)" fill-opacity="1" stroke-width="3.408" stroke-linecap="butt" stroke-linejoin="miter" stroke="rgb(93.333333%, 93.333333%, 93.333333%)" stroke-opacity="1" stroke-miterlimit="4" d="M 66.269531 1.780134 C 24.921875 1.780134 1.699219 23.141741 1.699219 66.835938 L 1.699219 516.967076 C 1.699219 557.748326 22.575335 579.190848 63.922991 579.190848 L 515.915179 579.190848 C 557.262835 579.190848 578.138951 558.881138 578.138951 516.967076 L 578.138951 66.835938 C 578.138951 24.193638 557.262835 1.780134 514.620536 1.780134 C 514.620536 1.780134 66.107701 1.618304 66.269531 1.780134 Z M 66.269531 1.780134 " transform="matrix(0.0482759, 0, 0, 0.0482759, 0, 0)"/>
<path fill-rule="nonzero" fill="rgb(100%, 100%, 100%)" fill-opacity="1" stroke-width="20.947577" stroke-linecap="square" stroke-linejoin="miter" stroke="rgb(100%, 100%, 100%)" stroke-opacity="1" stroke-miterlimit="4" d="M 73.309152 56.236049 L 85.122768 56.236049 L 85.122768 523.763951 L 73.309152 523.763951 Z M 73.309152 56.236049 " transform="matrix(0.0482759, 0, 0, 0.0482759, 0, 0)"/>
<path fill-rule="evenodd" fill="rgb(100%, 100%, 100%)" fill-opacity="1" d="M 3.761719 2.5 L 12.425781 5.722656 L 3.78125 9.242188 Z M 3.761719 2.5 "/>
<path fill-rule="nonzero" fill="rgb(100%, 100%, 100%)" fill-opacity="1" d="M 18.699219 7.597656 C 18.699219 7.089844 18.515625 6.664062 18.148438 6.320312 C 17.785156 5.972656 17.351562 5.800781 16.84375 5.800781 C 16.339844 5.800781 15.910156 5.972656 15.554688 6.320312 C 15.199219 6.664062 15.019531 7.089844 15.019531 7.597656 C 15.019531 8.101562 15.199219 8.527344 15.554688 8.875 C 15.910156 9.21875 16.339844 9.394531 16.84375 9.394531 C 17.351562 9.394531 17.785156 9.21875 18.148438 8.875 C 18.515625 8.527344 18.699219 8.101562 18.699219 7.597656 Z M 13.871094 26.289062 C 14.261719 26.289062 14.582031 26.101562 14.824219 25.726562 L 20.101562 17.785156 L 20.382812 18.878906 L 19.597656 24.828125 C 19.558594 25.128906 19.625 25.394531 19.792969 25.628906 C 19.960938 25.863281 20.195312 26.007812 20.492188 26.066406 C 20.792969 26.121094 21.070312 26.058594 21.320312 25.882812 C 21.574219 25.703125 21.71875 25.464844 21.757812 25.167969 L 22.570312 19.078125 C 22.589844 18.871094 22.570312 18.65625 22.515625 18.429688 L 20.71875 11.273438 L 25.40625 10.429688 C 25.648438 10.394531 25.847656 10.269531 25.996094 10.050781 C 26.144531 9.835938 26.203125 9.609375 26.164062 9.363281 C 26.109375 9.121094 25.96875 8.914062 25.742188 8.746094 L 14.964844 1.644531 L 13.980469 3.078125 C 13.738281 3.414062 13.796875 3.703125 14.152344 3.949219 C 14.488281 4.152344 14.777344 4.097656 15.019531 3.777344 L 15.582031 2.9375 L 24.339844 8.691406 L 17.183594 9.980469 C 16.921875 10.039062 16.710938 10.171875 16.550781 10.390625 C 16.390625 10.605469 16.347656 10.832031 16.425781 11.078125 L 17.96875 17.113281 L 12.914062 24.660156 C 12.820312 24.828125 12.773438 25.007812 12.773438 25.195312 C 12.773438 25.492188 12.882812 25.75 13.097656 25.964844 C 13.3125 26.183594 13.570312 26.289062 13.871094 26.289062 Z M 13.871094 26.289062 "/>
</svg>
