<?xml version="1.0" encoding="UTF-8"?>
<svg xmlns="http://www.w3.org/2000/svg" xmlns:xlink="http://www.w3.org/1999/xlink" width="28" height="28" viewBox="0 0 28 28">
<path fill-rule="nonzero" fill="rgb(6.666667%, 6.666667%, 6.666667%)" fill-opacity="1" stroke-width="3.408" stroke-linecap="butt" stroke-linejoin="miter" stroke="rgb(93.333333%, 93.333333%, 93.333333%)" stroke-opacity="1" stroke-miterlimit="4" d="M 66.269531 1.780134 C 24.921875 1.780134 1.699219 23.141741 1.699219 66.835938 L 1.699219 516.967076 C 1.699219 557.748326 22.575335 579.190848 63.922991 579.190848 L 515.915179 579.190848 C 557.262835 579.190848 578.138951 558.881138 578.138951 516.967076 L 578.138951 66.835938 C 578.138951 24.193638 557.262835 1.780134 514.620536 1.780134 C 514.620536 1.780134 66.107701 1.618304 66.269531 1.780134 Z M 66.269531 1.780134 " transform="matrix(0.0482759, 0, 0, 0.0482759, 0, 0)"/>
<path fill-rule="nonzero" fill="rgb(100%, 100%, 100%)" fill-opacity="1" d="M 7.550781 23.988281 C 7.550781 24.871094 6.839844 25.582031 5.957031 25.582031 C 5.078125 25.582031 4.367188 24.871094 4.367188 23.988281 C 4.367188 23.109375 5.078125 22.398438 5.957031 22.398438 C 6.839844 22.398438 7.550781 23.109375 7.550781 23.988281 Z M 7.550781 23.988281 "/>
<path fill-rule="nonzero" fill="rgb(100%, 100%, 100%)" fill-opacity="1" d="M 23.53125 22.734375 C 23.53125 24.308594 22.253906 25.582031 20.683594 25.582031 C 19.109375 25.582031 17.835938 24.308594 17.835938 22.734375 C 17.835938 21.160156 19.109375 19.886719 20.683594 19.886719 C 22.253906 19.886719 23.53125 21.160156 23.53125 22.734375 Z M 23.53125 22.734375 "/>
<path fill-rule="nonzero" fill="rgb(100%, 100%, 100%)" fill-opacity="1" d="M 20.050781 18.835938 L 20.035156 18.839844 L 5.476562 21.347656 C 4.195312 21.582031 3.269531 22.691406 3.269531 23.988281 C 3.269531 25.472656 4.476562 26.675781 5.957031 26.675781 L 20.683594 26.675781 C 22.855469 26.675781 24.625 24.910156 24.625 22.734375 C 24.625 20.5625 22.855469 18.792969 20.683594 18.792969 C 20.363281 18.792969 20.101562 18.828125 20.050781 18.835938 Z M 20.152344 19.503906 C 20.175781 19.5 20.40625 19.46875 20.683594 19.46875 C 22.484375 19.46875 23.949219 20.933594 23.949219 22.734375 C 23.949219 23.605469 23.609375 24.425781 22.992188 25.042969 C 22.375 25.660156 21.554688 26 20.683594 26 L 5.957031 26 C 4.847656 26 3.945312 25.097656 3.945312 23.988281 C 3.945312 23.019531 4.640625 22.1875 5.59375 22.011719 C 5.59375 22.011719 20.140625 19.507812 20.148438 19.503906 C 20.148438 19.503906 20.152344 19.503906 20.152344 19.503906 Z M 20.152344 19.503906 "/>
<path fill-rule="nonzero" fill="rgb(100%, 100%, 100%)" fill-opacity="1" d="M 13.121094 6.144531 C 12.941406 5.691406 12.429688 5.46875 11.976562 5.640625 L 9.777344 6.515625 C 9.730469 6.527344 9.683594 6.539062 9.640625 6.558594 C 9.40625 6.648438 9.238281 6.828125 9.148438 7.039062 C 9.054688 7.25 9.042969 7.496094 9.132812 7.726562 C 9.152344 7.773438 9.175781 7.816406 9.199219 7.855469 L 10.074219 10.054688 C 10.257812 10.503906 10.769531 10.722656 11.222656 10.542969 C 11.675781 10.363281 11.898438 9.851562 11.726562 9.398438 L 11.128906 7.894531 L 12.632812 7.292969 C 13.082031 7.109375 13.300781 6.597656 13.121094 6.144531 Z M 13.121094 6.144531 "/>
<path fill-rule="nonzero" fill="rgb(100%, 100%, 100%)" fill-opacity="1" d="M 16.957031 15.765625 C 16.929688 15.714844 16.898438 15.671875 16.863281 15.628906 L 15.5 13.265625 C 15.210938 12.78125 14.589844 12.617188 14.101562 12.898438 C 13.617188 13.179688 13.445312 13.800781 13.722656 14.289062 L 14.65625 15.910156 L 13.035156 16.84375 C 12.554688 17.128906 12.390625 17.75 12.671875 18.238281 C 12.949219 18.726562 13.570312 18.894531 14.0625 18.621094 L 16.425781 17.257812 C 16.476562 17.238281 16.527344 17.214844 16.574219 17.1875 C 16.824219 17.042969 16.988281 16.8125 17.054688 16.554688 C 17.128906 16.296875 17.101562 16.015625 16.957031 15.765625 Z M 16.957031 15.765625 "/>
<path fill-rule="nonzero" fill="rgb(100%, 100%, 100%)" fill-opacity="1" d="M 18.355469 3.480469 C 18.355469 4.652344 17.40625 5.605469 16.234375 5.605469 C 15.058594 5.605469 14.109375 4.652344 14.109375 3.480469 C 14.109375 2.308594 15.058594 1.355469 16.234375 1.355469 C 17.40625 1.355469 18.355469 2.308594 18.355469 3.480469 Z M 18.355469 3.480469 "/>
<path fill-rule="nonzero" fill="rgb(100%, 100%, 100%)" fill-opacity="1" d="M 19.429688 7.929688 C 19.199219 7.519531 18.683594 7.371094 18.269531 7.597656 L 16.90625 8.359375 L 15.914062 6.589844 C 15.84375 6.28125 15.632812 6.007812 15.320312 5.871094 C 14.804688 5.648438 14.203125 5.886719 13.976562 6.398438 L 8.617188 18.820312 C 8.394531 19.339844 8.632812 19.945312 9.152344 20.167969 C 9.675781 20.394531 10.277344 20.15625 10.503906 19.632812 L 15.175781 8.792969 L 15.757812 9.828125 C 15.773438 9.871094 15.792969 9.914062 15.816406 9.957031 C 15.933594 10.164062 16.125 10.304688 16.339844 10.363281 C 16.554688 10.425781 16.792969 10.40625 17 10.289062 C 17.042969 10.265625 17.078125 10.242188 17.117188 10.210938 L 19.109375 9.09375 C 19.515625 8.859375 19.660156 8.34375 19.429688 7.929688 Z M 19.429688 7.929688 "/>
</svg>
