<?xml version="1.0" encoding="UTF-8"?>
<svg xmlns="http://www.w3.org/2000/svg" xmlns:xlink="http://www.w3.org/1999/xlink" width="28" height="28" viewBox="0 0 28 28">
<defs>
<filter id="filter-remove-color" x="0%" y="0%" width="100%" height="100%">
<feColorMatrix color-interpolation-filters="sRGB" values="0 0 0 0 1 0 0 0 0 1 0 0 0 0 1 0 0 0 1 0" />
</filter>
<mask id="mask-0">
<g filter="url(#filter-remove-color)">
<rect x="-2.8" y="-2.8" width="33.6" height="33.6" fill="rgb(0%, 0%, 0%)" fill-opacity="0.5"/>
</g>
</mask>
<clipPath id="clip-0">
<rect x="0" y="0" width="28" height="28"/>
</clipPath>
<g id="source-11" clip-path="url(#clip-0)">
<path fill="none" stroke-width="8" stroke-linecap="butt" stroke-linejoin="miter" stroke="rgb(100%, 100%, 100%)" stroke-opacity="1" stroke-miterlimit="4" d="M 152.83203 160.503827 L 152.83203 42.232043 " transform="matrix(0.0524481, 0, 0, 0.0524481, -1.261836, -1.207176)"/>
</g>
<mask id="mask-1">
<g filter="url(#filter-remove-color)">
<rect x="-2.8" y="-2.8" width="33.6" height="33.6" fill="rgb(0%, 0%, 0%)" fill-opacity="0.5"/>
</g>
</mask>
<clipPath id="clip-1">
<rect x="0" y="0" width="28" height="28"/>
</clipPath>
<g id="source-15" clip-path="url(#clip-1)">
<path fill="none" stroke-width="8" stroke-linecap="butt" stroke-linejoin="miter" stroke="rgb(100%, 100%, 100%)" stroke-opacity="1" stroke-miterlimit="4" d="M 452.83124 160.503827 L 452.83124 42.232043 " transform="matrix(0.0524481, 0, 0, 0.0524481, -1.261836, -1.207176)"/>
</g>
</defs>
<path fill-rule="nonzero" fill="rgb(6.666667%, 6.666667%, 6.666667%)" fill-opacity="1" stroke-width="3.408" stroke-linecap="butt" stroke-linejoin="miter" stroke="rgb(93.333333%, 93.333333%, 93.333333%)" stroke-opacity="1" stroke-miterlimit="4" d="M 66.269531 1.780134 C 24.921875 1.780134 1.699219 23.141741 1.699219 66.835938 L 1.699219 516.967076 C 1.699219 557.748326 22.575335 579.190848 63.922991 579.190848 L 515.915179 579.190848 C 557.262835 579.190848 578.138951 558.881138 578.138951 516.967076 L 578.138951 66.835938 C 578.138951 24.193638 557.262835 1.780134 514.620536 1.780134 C 514.620536 1.780134 66.107701 1.618304 66.269531 1.780134 Z M 66.269531 1.780134 " transform="matrix(0.0482759, 0, 0, 0.0482759, 0, 0)"/>
<path fill-rule="nonzero" fill="rgb(100%, 100%, 100%)" fill-opacity="1" d="M 13.070312 12.359375 C 13.070312 12.8125 13.226562 13.191406 13.542969 13.503906 C 13.855469 13.820312 14.234375 13.976562 14.683594 13.976562 C 15.117188 13.976562 15.496094 13.820312 15.816406 13.503906 C 16.136719 13.191406 16.300781 12.8125 16.300781 12.359375 C 16.300781 11.910156 16.136719 11.53125 15.816406 11.21875 C 15.496094 10.902344 15.117188 10.746094 14.683594 10.746094 C 14.234375 10.746094 13.855469 10.902344 13.542969 11.21875 C 13.226562 11.53125 13.070312 11.910156 13.070312 12.359375 Z M 16.683594 20.839844 L 16.683594 15.058594 C 16.636719 14.578125 16.378906 14.335938 15.914062 14.335938 L 12.855469 14.335938 L 10.546875 13.6875 L 8.785156 10.582031 C 8.589844 10.371094 8.367188 10.265625 8.109375 10.265625 C 7.5625 10.265625 7.289062 10.546875 7.289062 11.109375 C 7.289062 11.320312 7.363281 11.511719 7.507812 11.6875 L 9.378906 15.039062 C 9.574219 15.234375 9.441406 15.1875 9.75 15.445312 L 12.589844 16.246094 L 12.589844 20.71875 L 7.816406 25.253906 C 7.765625 25.367188 7.742188 25.480469 7.742188 25.589844 C 7.742188 25.914062 7.863281 26.1875 8.105469 26.421875 C 8.34375 26.65625 8.625 26.773438 8.945312 26.773438 C 9.523438 26.773438 9.523438 26.714844 9.917969 26.507812 L 14.613281 22.332031 L 18.554688 26.472656 C 19.074219 27.023438 19.269531 27.136719 19.847656 27.136719 C 20.167969 27.136719 20.449219 27.019531 20.691406 26.789062 C 20.933594 26.554688 21.050781 26.277344 21.050781 25.957031 C 21.050781 25.84375 21.035156 25.730469 21.003906 25.621094 Z M 16.683594 20.839844 "/>
<path fill-rule="nonzero" fill="rgb(100%, 100%, 100%)" fill-opacity="1" d="M 16.015625 14.34375 L 18.691406 13.6875 L 20.457031 10.582031 C 20.648438 10.371094 20.875 10.265625 21.128906 10.265625 C 21.675781 10.265625 21.949219 10.546875 21.949219 11.109375 C 21.949219 11.320312 21.878906 11.511719 21.734375 11.6875 L 19.859375 15.039062 C 19.667969 15.234375 19.800781 15.1875 19.488281 15.445312 L 16.648438 16.246094 Z M 16.015625 14.34375 "/>
<path fill-rule="nonzero" fill="rgb(100%, 100%, 100%)" fill-opacity="1" stroke-width="5" stroke-linecap="butt" stroke-linejoin="miter" stroke="rgb(100%, 100%, 100%)" stroke-opacity="1" stroke-miterlimit="4" d="M 150.523198 162.29131 L 154.321599 162.29131 C 156.555953 162.29131 158.417914 164.078793 158.417914 166.387625 L 158.417914 235.280194 C 158.417914 237.514547 156.555953 239.30203 154.321599 239.30203 L 150.523198 239.30203 C 148.288844 239.30203 146.501361 237.514547 146.501361 235.280194 L 146.501361 166.387625 C 146.501361 164.078793 148.288844 162.29131 150.523198 162.29131 Z M 150.523198 162.29131 " transform="matrix(0.0524481, 0, 0, 0.0524481, -1.261836, -1.207176)"/>
<path fill-rule="nonzero" fill="rgb(100%, 100%, 100%)" fill-opacity="1" stroke-width="5" stroke-linecap="butt" stroke-linejoin="miter" stroke="rgb(100%, 100%, 100%)" stroke-opacity="1" stroke-miterlimit="4" d="M 450.522408 162.29131 L 454.320809 162.29131 C 456.555162 162.29131 458.417124 164.078793 458.417124 166.387625 L 458.417124 235.280194 C 458.417124 237.514547 456.555162 239.30203 454.320809 239.30203 L 450.522408 239.30203 C 448.288054 239.30203 446.500571 237.514547 446.500571 235.280194 L 446.500571 166.387625 C 446.500571 164.078793 448.288054 162.29131 450.522408 162.29131 Z M 450.522408 162.29131 " transform="matrix(0.0524481, 0, 0, 0.0524481, -1.261836, -1.207176)"/>
<g mask="url(#mask-0)">
<use xlink:href="#source-11"/>
</g>
<g mask="url(#mask-1)">
<use xlink:href="#source-15"/>
</g>
</svg>
