<?xml version="1.0" encoding="UTF-8"?>
<svg xmlns="http://www.w3.org/2000/svg" xmlns:xlink="http://www.w3.org/1999/xlink" width="28" height="28" viewBox="0 0 28 28">
<defs>
<filter id="filter-remove-color" x="0%" y="0%" width="100%" height="100%">
<feColorMatrix color-interpolation-filters="sRGB" values="0 0 0 0 1 0 0 0 0 1 0 0 0 0 1 0 0 0 1 0" />
</filter>
<mask id="mask-0">
<g filter="url(#filter-remove-color)">
<rect x="-2.8" y="-2.8" width="33.6" height="33.6" fill="rgb(0%, 0%, 0%)" fill-opacity="0.8"/>
</g>
</mask>
<clipPath id="clip-0">
<rect x="0" y="0" width="28" height="28"/>
</clipPath>
<g id="source-7" clip-path="url(#clip-0)">
<path fill-rule="nonzero" fill="rgb(100%, 100%, 100%)" fill-opacity="1" stroke-width="10" stroke-linecap="butt" stroke-linejoin="miter" stroke="rgb(100%, 100%, 100%)" stroke-opacity="1" stroke-miterlimit="4" d="M 299.305246 13.512835 L 299.305246 67.159598 L 313.869978 67.159598 L 313.869978 13.512835 Z M 299.305246 13.512835 " transform="matrix(0.0482759, 0, 0, 0.0482759, 0, 0)"/>
</g>
</defs>
<path fill-rule="nonzero" fill="rgb(6.666667%, 6.666667%, 6.666667%)" fill-opacity="1" stroke-width="3.408" stroke-linecap="butt" stroke-linejoin="miter" stroke="rgb(93.333333%, 93.333333%, 93.333333%)" stroke-opacity="1" stroke-miterlimit="4" d="M 66.269531 1.780134 C 24.921875 1.780134 1.699219 23.141741 1.699219 66.835938 L 1.699219 516.967076 C 1.699219 557.748326 22.575335 579.190848 63.922991 579.190848 L 515.915179 579.190848 C 557.262835 579.190848 578.138951 558.881138 578.138951 516.967076 L 578.138951 66.835938 C 578.138951 24.193638 557.262835 1.780134 514.620536 1.780134 C 514.620536 1.780134 66.107701 1.618304 66.269531 1.780134 Z M 66.269531 1.780134 " transform="matrix(0.0482759, 0, 0, 0.0482759, 0, 0)"/>
<g mask="url(#mask-0)">
<use xlink:href="#source-7"/>
</g>
<path fill="none" stroke-width="14.672951" stroke-linecap="round" stroke-linejoin="round" stroke="rgb(100%, 100%, 100%)" stroke-opacity="1" stroke-miterlimit="4" d="M 305.77846 70.558036 C 284.255022 70.558036 266.858259 87.954799 266.858259 109.478237 C 266.858259 123.395647 274.05971 135.532924 284.983259 142.410714 C 288.705357 133.510045 296.958705 126.389509 307.073103 126.227679 C 316.621094 125.661272 326.007254 131.24442 330.538504 139.578683 C 339.196429 132.458147 344.779576 121.615513 344.779576 109.478237 C 344.779576 87.954799 327.301897 70.558036 305.77846 70.558036 Z M 305.77846 70.558036 " transform="matrix(0.0482759, 0, 0, 0.0482759, 0, 0)"/>
<path fill-rule="nonzero" fill="rgb(100%, 100%, 100%)" fill-opacity="1" d="M 17.585938 9.015625 C 17.085938 9.015625 16.65625 9.175781 16.296875 9.496094 C 16.308594 9.835938 16.320312 10.175781 16.335938 10.511719 C 16.535156 11.257812 16.917969 11.960938 17.207031 12.679688 C 17.226562 12.75 17.253906 12.8125 17.28125 12.878906 C 17.378906 12.894531 17.480469 12.898438 17.585938 12.898438 C 18.109375 12.898438 18.5625 12.710938 18.949219 12.335938 C 19.335938 11.957031 19.527344 11.5 19.527344 10.957031 C 19.527344 10.417969 19.335938 9.957031 18.949219 9.578125 C 18.5625 9.203125 18.109375 9.015625 17.585938 9.015625 Z M 17.585938 9.015625 "/>
<path fill-rule="nonzero" fill="rgb(100%, 100%, 100%)" fill-opacity="1" d="M 15.046875 19.734375 C 14.753906 19.742188 14.46875 19.851562 14.246094 20.042969 L 8.535156 24.730469 C 8.164062 25.023438 7.976562 25.496094 8.050781 25.964844 C 8.125 26.433594 8.445312 26.828125 8.894531 26.988281 C 9.339844 27.152344 9.835938 27.0625 10.195312 26.753906 L 15.90625 22.0625 C 16.34375 21.710938 16.511719 21.117188 16.316406 20.585938 C 16.121094 20.058594 15.609375 19.714844 15.046875 19.734375 Z M 15.046875 19.734375 "/>
<path fill-rule="nonzero" fill="rgb(100%, 100%, 100%)" fill-opacity="1" d="M 16.703125 13.019531 C 15.945312 12.996094 15.273438 13.511719 15.101562 14.25 L 13.496094 20.65625 C 13.339844 21.214844 13.5 21.8125 13.914062 22.21875 C 14.328125 22.625 14.929688 22.773438 15.484375 22.609375 C 16.042969 22.449219 16.464844 21.996094 16.59375 21.429688 L 18.199219 15.027344 C 18.324219 14.558594 18.230469 14.054688 17.9375 13.664062 C 17.644531 13.273438 17.191406 13.035156 16.703125 13.019531 Z M 16.703125 13.019531 "/>
<path fill-rule="nonzero" fill="rgb(100%, 100%, 100%)" fill-opacity="1" d="M 14.929688 5.902344 C 14.644531 5.886719 14.363281 5.996094 14.164062 6.203125 C 13.960938 6.40625 13.851562 6.6875 13.867188 6.972656 L 14.027344 10.96875 C 14.03125 11.09375 14.058594 11.214844 14.109375 11.328125 L 15.589844 14.796875 C 15.730469 15.136719 16.039062 15.375 16.40625 15.421875 C 16.769531 15.46875 17.128906 15.3125 17.347656 15.019531 C 17.566406 14.722656 17.609375 14.332031 17.460938 14 L 16.050781 10.699219 L 15.902344 6.894531 C 15.890625 6.359375 15.464844 5.925781 14.929688 5.902344 Z M 14.929688 5.902344 "/>
</svg>
