<?xml version="1.0" encoding="UTF-8"?>
<svg xmlns="http://www.w3.org/2000/svg" xmlns:xlink="http://www.w3.org/1999/xlink" width="28" height="28" viewBox="0 0 28 28">
<path fill-rule="nonzero" fill="rgb(6.666667%, 6.666667%, 6.666667%)" fill-opacity="1" stroke-width="3.408" stroke-linecap="butt" stroke-linejoin="miter" stroke="rgb(93.333333%, 93.333333%, 93.333333%)" stroke-opacity="1" stroke-miterlimit="4" d="M 66.269531 1.780134 C 24.921875 1.780134 1.699219 23.141741 1.699219 66.835938 L 1.699219 516.967076 C 1.699219 557.748326 22.575335 579.190848 63.922991 579.190848 L 515.915179 579.190848 C 557.262835 579.190848 578.138951 558.881138 578.138951 516.967076 L 578.138951 66.835938 C 578.138951 24.193638 557.262835 1.780134 514.620536 1.780134 C 514.620536 1.780134 66.107701 1.618304 66.269531 1.780134 Z M 66.269531 1.780134 " transform="matrix(0.0482759, 0, 0, 0.0482759, 0, 0)"/>
<path fill-rule="nonzero" fill="rgb(100%, 100%, 100%)" fill-opacity="1" d="M 10.878906 17.417969 L 11.414062 20.824219 C 11.492188 21.390625 11.832031 21.722656 12.4375 21.816406 C 12.851562 21.871094 13.214844 21.753906 13.527344 21.460938 C 13.839844 21.167969 13.96875 20.8125 13.910156 20.398438 L 13.257812 16.285156 C 13.183594 15.851562 12.945312 15.546875 12.550781 15.378906 L 9.601562 14.042969 L 11.472656 10.785156 L 12.40625 11.976562 C 12.484375 12.089844 12.597656 12.171875 12.75 12.230469 L 16.292969 13.25 C 16.386719 13.289062 16.472656 13.308594 16.546875 13.308594 C 16.8125 13.308594 17.039062 13.203125 17.230469 12.996094 C 17.417969 12.789062 17.511719 12.550781 17.511719 12.285156 C 17.511719 11.8125 17.285156 11.5 16.832031 11.351562 L 13.769531 10.445312 L 11.445312 7.636719 C 11.121094 7.257812 10.667969 7.019531 10.082031 6.925781 C 9.0625 6.777344 8.296875 7.132812 7.785156 8.003906 L 5.203125 12.457031 C 5.035156 12.742188 4.960938 13.089844 4.976562 13.503906 L 5.0625 19.148438 L 3.105469 23.347656 C 3.03125 23.515625 2.984375 23.660156 2.964844 23.773438 C 2.90625 24.132812 2.984375 24.449219 3.191406 24.722656 C 3.398438 24.996094 3.683594 25.160156 4.042969 25.21875 C 4.648438 25.3125 5.074219 25.105469 5.320312 24.59375 L 7.472656 20 C 7.550781 19.828125 7.585938 19.648438 7.585938 19.460938 L 7.558594 15.972656 Z M 22.902344 3.296875 L 21.738281 8.570312 L 19.753906 9.394531 L 18.023438 14.242188 L 19.667969 17.957031 L 19.214844 19.40625 L 15.386719 20.539062 L 15.160156 22.242188 L 9.0625 23.742188 L 9.117188 24.765625 L 24.007812 24.765625 C 24.273438 24.765625 24.492188 24.675781 24.671875 24.496094 C 24.851562 24.316406 24.941406 24.09375 24.941406 23.828125 L 24.941406 3.75 Z M 11.246094 6.671875 C 11.757812 6.671875 12.199219 6.488281 12.578125 6.117188 C 12.957031 5.75 13.144531 5.300781 13.144531 4.773438 C 13.144531 4.261719 12.957031 3.816406 12.578125 3.4375 C 12.199219 3.058594 11.757812 2.871094 11.246094 2.871094 C 10.714844 2.871094 10.265625 3.058594 9.898438 3.4375 C 9.53125 3.816406 9.34375 4.261719 9.34375 4.773438 C 9.34375 5.300781 9.53125 5.75 9.898438 6.117188 C 10.265625 6.488281 10.714844 6.671875 11.246094 6.671875 Z M 4.609375 11.863281 L 7.445312 6.984375 C 7.636719 6.664062 7.570312 6.417969 7.246094 6.246094 L 6.339844 5.707031 C 6.019531 5.519531 5.773438 5.585938 5.601562 5.90625 L 2.765625 10.785156 C 2.578125 11.105469 2.644531 11.351562 2.964844 11.519531 L 3.871094 12.058594 C 4.195312 12.25 4.4375 12.183594 4.609375 11.863281 Z M 4.609375 11.863281 "/>
</svg>
