<?xml version="1.0" encoding="UTF-8"?>
<svg xmlns="http://www.w3.org/2000/svg" xmlns:xlink="http://www.w3.org/1999/xlink" width="28" height="28" viewBox="0 0 28 28">
<defs>
<filter id="filter-remove-color" x="0%" y="0%" width="100%" height="100%">
<feColorMatrix color-interpolation-filters="sRGB" values="0 0 0 0 1 0 0 0 0 1 0 0 0 0 1 0 0 0 1 0" />
</filter>
<mask id="mask-0">
<g filter="url(#filter-remove-color)">
<rect x="-2.8" y="-2.8" width="33.6" height="33.6" fill="rgb(0%, 0%, 0%)" fill-opacity="0.75"/>
</g>
</mask>
<clipPath id="clip-0">
<rect x="0" y="0" width="28" height="28"/>
</clipPath>
<g id="source-7" clip-path="url(#clip-0)">
<path fill-rule="evenodd" fill="rgb(100%, 100%, 100%)" fill-opacity="1" stroke-width="5.736135" stroke-linecap="round" stroke-linejoin="round" stroke="rgb(100%, 100%, 100%)" stroke-opacity="1" stroke-miterlimit="4" d="M 189.988839 330.61942 L 99.768415 393.733259 C 65.055804 433.058036 138.445871 432.006138 173.077567 450.454799 L 214.748884 469.388951 L 211.350446 437.832031 L 167.413504 406.275112 L 212.483259 359.667969 Z M 189.988839 330.61942 " transform="matrix(0.0482759, 0, 0, 0.0482759, 0, 0)"/>
</g>
<mask id="mask-1">
<g filter="url(#filter-remove-color)">
<rect x="-2.8" y="-2.8" width="33.6" height="33.6" fill="rgb(0%, 0%, 0%)" fill-opacity="0.75"/>
</g>
</mask>
<clipPath id="clip-1">
<rect x="0" y="0" width="28" height="28"/>
</clipPath>
<g id="source-11" clip-path="url(#clip-1)">
<path fill-rule="evenodd" fill="rgb(100%, 100%, 100%)" fill-opacity="1" stroke-width="5.736135" stroke-linecap="round" stroke-linejoin="round" stroke="rgb(100%, 100%, 100%)" stroke-opacity="1" stroke-miterlimit="4" d="M 411.939174 354.570312 C 427.555804 399.235491 458.546317 484.277344 448.027344 513.487723 L 485.167411 512.273996 C 467.042411 459.679129 464.53404 407.165179 458.141741 354.570312 Z M 411.939174 354.570312 " transform="matrix(0.0482759, 0, 0, 0.0482759, 0, 0)"/>
</g>
</defs>
<path fill-rule="nonzero" fill="rgb(6.666667%, 6.666667%, 6.666667%)" fill-opacity="1" stroke-width="3.408" stroke-linecap="butt" stroke-linejoin="miter" stroke="rgb(93.333333%, 93.333333%, 93.333333%)" stroke-opacity="1" stroke-miterlimit="4" d="M 66.269531 1.780134 C 24.921875 1.780134 1.699219 23.141741 1.699219 66.835938 L 1.699219 516.967076 C 1.699219 557.748326 22.575335 579.190848 63.922991 579.190848 L 515.915179 579.190848 C 557.262835 579.190848 578.138951 558.881138 578.138951 516.967076 L 578.138951 66.835938 C 578.138951 24.193638 557.262835 1.780134 514.620536 1.780134 C 514.620536 1.780134 66.107701 1.618304 66.269531 1.780134 Z M 66.269531 1.780134 " transform="matrix(0.0482759, 0, 0, 0.0482759, 0, 0)"/>
<g mask="url(#mask-0)">
<use xlink:href="#source-7"/>
</g>
<g mask="url(#mask-1)">
<use xlink:href="#source-11"/>
</g>
<path fill-rule="evenodd" fill="rgb(100%, 100%, 100%)" fill-opacity="1" stroke-width="5.814756" stroke-linecap="round" stroke-linejoin="round" stroke="rgb(100%, 100%, 100%)" stroke-opacity="1" stroke-miterlimit="4" d="M 133.75279 216.124442 C 154.628906 199.698661 248.895089 134.561942 259.414062 126.71317 C 270.175781 118.702567 274.949777 119.99721 282.393973 121.858259 L 350.039062 138.769531 C 395.027902 152.767857 360.881696 205.524554 331.914062 221.86942 C 328.353795 243.959263 344.860491 266.210938 395.998884 294.69308 L 331.914062 305.535714 C 329.891183 266.210938 265.078125 278.995536 263.055246 256.015625 L 299.305246 196.785714 C 282.070312 195.895647 268.233817 193.144531 250.998884 185.053013 C 201.72154 205.200893 177.285156 221.950335 145.809152 239.104353 Z M 133.75279 216.124442 " transform="matrix(0.0482759, 0, 0, 0.0482759, 0, 0)"/>
<path fill-rule="evenodd" fill="rgb(100%, 100%, 100%)" fill-opacity="1" stroke-width="8.060563" stroke-linecap="round" stroke-linejoin="round" stroke="rgb(100%, 100%, 100%)" stroke-opacity="1" stroke-miterlimit="4" d="M 171.863839 71.609933 L 227.533482 75.170201 L 222.112165 83.180804 L 170.164621 74.765625 Z M 171.863839 71.609933 " transform="matrix(0.0482759, 0, 0, 0.0482759, 0, 0)"/>
<path fill-rule="nonzero" fill="rgb(100%, 100%, 100%)" fill-opacity="1" stroke-width="14.307461" stroke-linecap="round" stroke-linejoin="round" stroke="rgb(100%, 100%, 100%)" stroke-opacity="1" stroke-miterlimit="4" d="M 224.863281 57.530692 C 212.402344 57.530692 201.883371 65.703125 198.242188 76.86942 L 252.698103 86.336496 C 252.698103 86.012835 252.698103 85.689174 252.698103 85.365513 C 252.698103 69.991629 240.237165 57.530692 224.863281 57.530692 Z M 224.863281 57.530692 " transform="matrix(0.0482759, 0, 0, 0.0482759, 0, 0)"/>
<path fill-rule="evenodd" fill="rgb(100%, 100%, 100%)" fill-opacity="1" stroke-width="6.505145" stroke-linecap="round" stroke-linejoin="round" stroke="rgb(100%, 100%, 100%)" stroke-opacity="1" stroke-miterlimit="4" d="M 190.717076 92.486049 C 190.636161 93.537946 190.555246 94.589844 190.47433 95.641741 C 190.15067 112.148438 203.258929 125.823103 219.765625 126.146763 C 234.249442 126.470424 246.386719 116.517857 249.542411 103.005022 Z M 190.717076 92.486049 " transform="matrix(0.0482759, 0, 0, 0.0482759, 0, 0)"/>
<path fill-rule="evenodd" fill="rgb(100%, 100%, 100%)" fill-opacity="1" stroke-width="11.472269" stroke-linecap="round" stroke-linejoin="round" stroke="rgb(100%, 100%, 100%)" stroke-opacity="1" stroke-miterlimit="4" d="M 213.616071 247.438616 L 331.914062 220.898438 C 386.046317 212.645089 413.962054 223.892299 432.248884 242.34096 C 503.454241 225.267857 532.34096 249.704241 556.210938 278.914621 L 540.675223 299.628906 C 521.579241 273.007812 489.779576 247.924107 440.825893 258.038504 C 447.056362 290.242746 466.961496 316.297433 494.229911 338.387277 C 511.545759 380.220424 529.347098 441.71596 558.476562 476.914062 L 540.432478 504.667969 C 520.770089 458.303571 492.287946 390.739397 451.668527 364.522879 C 420.354353 355.62221 391.467634 347.530692 369.135045 321.961496 L 354.246652 317.1875 C 317.592076 351.010045 261.517857 362.823661 210.217634 363.632812 C 175.505022 400.287388 146.213728 451.749442 97.50279 513.487723 L 63.761161 498.356585 C 104.137835 466.961496 135.047433 398.021763 169.679129 353.518415 C 168.141741 298.172433 136.180246 249.785156 114.333147 234.734933 C 92.486049 219.603795 66.350446 251.079799 41.185826 254.963728 C 26.782924 257.229353 15.94029 236.353237 24.274554 225.996094 C 33.013393 215.072545 66.188616 177.042411 95.31808 161.668527 L 106.56529 132.619978 L 113.28125 160.373884 C 148.155692 183.111049 184.486607 199.21317 213.616071 247.438616 Z M 213.616071 247.438616 " transform="matrix(0.0482759, 0, 0, 0.0482759, 0, 0)"/>
</svg>
