<?xml version="1.0" encoding="UTF-8"?>
<svg xmlns="http://www.w3.org/2000/svg" xmlns:xlink="http://www.w3.org/1999/xlink" width="28" height="28" viewBox="0 0 28 28">
<path fill-rule="nonzero" fill="rgb(6.666667%, 6.666667%, 6.666667%)" fill-opacity="1" stroke-width="3.408" stroke-linecap="butt" stroke-linejoin="miter" stroke="rgb(93.333333%, 93.333333%, 93.333333%)" stroke-opacity="1" stroke-miterlimit="4" d="M 66.269531 1.780134 C 24.921875 1.780134 1.699219 23.141741 1.699219 66.835938 L 1.699219 516.967076 C 1.699219 557.748326 22.575335 579.190848 63.922991 579.190848 L 515.915179 579.190848 C 557.262835 579.190848 578.138951 558.881138 578.138951 516.967076 L 578.138951 66.835938 C 578.138951 24.193638 557.262835 1.780134 514.620536 1.780134 C 514.620536 1.780134 66.107701 1.618304 66.269531 1.780134 Z M 66.269531 1.780134 " transform="matrix(0.0482759, 0, 0, 0.0482759, 0, 0)"/>
<path fill-rule="nonzero" fill="rgb(100%, 100%, 100%)" fill-opacity="1" d="M 25.269531 4.234375 C 25.269531 5.441406 24.289062 6.421875 23.078125 6.421875 C 21.867188 6.421875 20.890625 5.441406 20.890625 4.234375 C 20.890625 3.023438 21.867188 2.042969 23.078125 2.042969 C 24.289062 2.042969 25.269531 3.023438 25.269531 4.234375 Z M 25.269531 4.234375 "/>
<path fill-rule="nonzero" fill="rgb(100%, 100%, 100%)" fill-opacity="1" d="M 16.855469 25.105469 L 22.511719 25.105469 C 22.511719 25.105469 22.941406 25.148438 22.941406 24.703125 L 22.941406 24.253906 L 23.777344 24.253906 C 23.777344 24.253906 23.972656 25.785156 22.828125 25.929688 L 16.855469 25.929688 Z M 16.855469 25.105469 "/>
<path fill-rule="nonzero" fill="rgb(100%, 100%, 100%)" fill-opacity="1" d="M 2.746094 20.734375 L 6.75 24.734375 C 6.75 24.734375 7.015625 25.0625 7.335938 24.75 L 7.652344 24.429688 L 8.246094 25.023438 C 8.246094 25.023438 7.292969 26.246094 6.386719 25.542969 L 2.167969 21.320312 Z M 2.746094 20.734375 "/>
<path fill-rule="nonzero" fill="rgb(100%, 100%, 100%)" fill-opacity="1" d="M 18.1875 19.339844 L 18.195312 23.304688 C 18.195312 24.050781 18.796875 24.65625 19.546875 24.65625 C 20.230469 24.65625 20.894531 23.867188 20.894531 23.304688 L 20.894531 17.785156 C 20.894531 17.402344 20.734375 17.054688 20.476562 16.804688 L 17.238281 13.578125 L 21.53125 9.285156 C 22.339844 8.277344 21.914062 7.070312 21.914062 7.070312 C 21.464844 5.730469 19.949219 5.683594 19.949219 5.683594 L 8.878906 5.679688 C 8.289062 5.679688 7.808594 6.15625 7.808594 6.75 C 7.808594 7.34375 8.289062 7.820312 8.878906 7.820312 L 16.523438 7.832031 L 13.300781 11.039062 C 12.839844 11.507812 12.605469 12.039062 12.605469 12.734375 C 12.605469 13.398438 12.871094 13.992188 13.3125 14.425781 Z M 18.1875 19.339844 "/>
<path fill-rule="nonzero" fill="rgb(100%, 100%, 100%)" fill-opacity="1" d="M 12.628906 15.027344 C 12.527344 14.929688 12.433594 14.820312 12.347656 14.703125 L 5.964844 21.101562 C 5.480469 21.492188 5.324219 22.175781 5.613281 22.746094 C 5.945312 23.398438 6.75 23.65625 7.402344 23.324219 C 7.488281 23.277344 7.570312 23.222656 7.648438 23.160156 L 14.203125 16.59375 Z M 12.628906 15.027344 "/>
</svg>
