<?xml version="1.0" encoding="UTF-8"?>
<svg xmlns="http://www.w3.org/2000/svg" xmlns:xlink="http://www.w3.org/1999/xlink" width="28" height="28" viewBox="0 0 28 28">
<path fill-rule="nonzero" fill="rgb(6.666667%, 6.666667%, 6.666667%)" fill-opacity="1" stroke-width="3.408" stroke-linecap="butt" stroke-linejoin="miter" stroke="rgb(93.333333%, 93.333333%, 93.333333%)" stroke-opacity="1" stroke-miterlimit="4" d="M 66.269531 1.780134 C 24.921875 1.780134 1.699219 23.141741 1.699219 66.835938 L 1.699219 516.967076 C 1.699219 557.748326 22.575335 579.190848 63.922991 579.190848 L 515.915179 579.190848 C 557.262835 579.190848 578.138951 558.881138 578.138951 516.967076 L 578.138951 66.835938 C 578.138951 24.193638 557.262835 1.780134 514.620536 1.780134 C 514.620536 1.780134 66.107701 1.618304 66.269531 1.780134 Z M 66.269531 1.780134 " transform="matrix(0.0482759, 0, 0, 0.0482759, 0, 0)"/>
<path fill-rule="nonzero" fill="rgb(100%, 100%, 100%)" fill-opacity="1" d="M 10.132812 8.0625 C 10.664062 7.984375 11.089844 7.746094 11.410156 7.339844 C 11.730469 6.933594 11.855469 6.464844 11.777344 5.933594 C 11.722656 5.425781 11.492188 5.003906 11.085938 4.671875 C 10.679688 4.339844 10.210938 4.214844 9.679688 4.289062 C 9.152344 4.347656 8.726562 4.582031 8.40625 5 C 8.082031 5.414062 7.960938 5.878906 8.035156 6.386719 C 8.09375 6.917969 8.324219 7.34375 8.730469 7.664062 C 9.136719 7.984375 9.605469 8.117188 10.132812 8.0625 Z M 25.730469 16.996094 C 25.710938 16.976562 23.105469 15.652344 17.90625 13.023438 L 15.917969 10.445312 C 15.597656 10.160156 15.285156 10.179688 14.984375 10.5 C 14.792969 10.726562 14.765625 10.972656 14.898438 11.238281 L 16.375 13.136719 L 15.152344 15.917969 L 11.949219 15.121094 L 11.808594 13.960938 L 14.445312 13.648438 C 15.011719 13.570312 15.296875 13.269531 15.296875 12.742188 C 15.296875 12.496094 15.191406 12.277344 14.984375 12.089844 C 14.773438 11.898438 14.546875 11.824219 14.300781 11.863281 L 11.609375 12.171875 L 11.355469 10.1875 C 11.296875 9.679688 11.058594 9.257812 10.644531 8.925781 C 10.226562 8.59375 9.765625 8.46875 9.253906 8.542969 C 8.726562 8.601562 8.300781 8.835938 7.980469 9.253906 C 7.65625 9.667969 7.523438 10.132812 7.582031 10.640625 L 8.148438 15.265625 C 8.226562 15.871094 8.519531 16.332031 9.027344 16.652344 L 4.804688 17.164062 L 3.5 20.425781 C 4.160156 20.125 4.792969 19.972656 5.398438 19.972656 C 5.984375 19.972656 6.5625 20.105469 7.128906 20.367188 C 7.46875 20.519531 7.828125 20.59375 8.207031 20.59375 C 8.585938 20.59375 8.945312 20.519531 9.285156 20.367188 C 9.832031 20.105469 10.410156 19.972656 11.011719 19.972656 C 11.371094 19.972656 11.851562 20.074219 12.445312 20.285156 C 13.039062 20.492188 13.5 20.59375 13.820312 20.59375 C 14.199219 20.59375 14.558594 20.519531 14.898438 20.367188 C 15.464844 20.105469 16.050781 19.972656 16.65625 19.972656 C 17.035156 19.972656 17.398438 20.027344 17.75 20.140625 C 18.097656 20.253906 18.445312 20.378906 18.785156 20.511719 C 23.605469 19.226562 26.015625 18.195312 26.015625 17.417969 C 26.015625 17.230469 25.921875 17.089844 25.730469 16.996094 Z M 22.273438 21.703125 C 21.929688 21.703125 21.457031 21.804688 20.855469 22.011719 C 20.25 22.222656 19.785156 22.324219 19.464844 22.324219 C 19.125 22.324219 18.652344 22.222656 18.046875 22.011719 C 17.441406 21.804688 16.976562 21.703125 16.65625 21.703125 C 16.316406 21.703125 15.84375 21.804688 15.238281 22.011719 C 14.632812 22.222656 14.160156 22.324219 13.820312 22.324219 C 13.480469 22.324219 13.011719 22.222656 12.417969 22.011719 C 11.820312 21.804688 11.355469 21.703125 11.011719 21.703125 C 10.671875 21.703125 10.207031 21.804688 9.609375 22.011719 C 9.015625 22.222656 8.546875 22.324219 8.207031 22.324219 C 7.867188 22.324219 7.398438 22.222656 6.800781 22.011719 C 6.207031 21.804688 5.738281 21.703125 5.398438 21.703125 C 5.058594 21.703125 4.585938 21.804688 3.980469 22.011719 C 3.375 22.222656 2.902344 22.324219 2.5625 22.324219 L 2.5625 24.394531 C 2.902344 24.394531 3.375 24.292969 3.980469 24.082031 C 4.585938 23.875 5.058594 23.773438 5.398438 23.773438 C 5.71875 23.773438 6.183594 23.875 6.789062 24.082031 C 7.394531 24.292969 7.867188 24.394531 8.207031 24.394531 C 8.546875 24.394531 9.015625 24.292969 9.609375 24.082031 C 10.207031 23.875 10.671875 23.773438 11.011719 23.773438 C 11.355469 23.773438 11.820312 23.875 12.417969 24.082031 C 13.011719 24.292969 13.480469 24.394531 13.820312 24.394531 C 14.160156 24.394531 14.632812 24.292969 15.238281 24.082031 C 15.84375 23.875 16.316406 23.773438 16.65625 23.773438 C 16.976562 23.773438 17.441406 23.875 18.046875 24.082031 C 18.652344 24.292969 19.125 24.394531 19.464844 24.394531 C 19.785156 24.394531 20.25 24.292969 20.855469 24.082031 C 21.457031 23.875 21.929688 23.773438 22.273438 23.773438 C 22.613281 23.773438 23.078125 23.875 23.675781 24.082031 C 24.269531 24.292969 24.738281 24.394531 25.078125 24.394531 L 25.078125 22.324219 C 24.738281 22.324219 24.269531 22.222656 23.675781 22.011719 C 23.078125 21.804688 22.613281 21.703125 22.273438 21.703125 Z M 22.273438 21.703125 "/>
</svg>
