<?xml version="1.0" encoding="UTF-8"?>
<svg xmlns="http://www.w3.org/2000/svg" xmlns:xlink="http://www.w3.org/1999/xlink" width="28" height="28" viewBox="0 0 28 28">
<path fill-rule="nonzero" fill="rgb(6.666667%, 6.666667%, 6.666667%)" fill-opacity="1" stroke-width="3.408" stroke-linecap="butt" stroke-linejoin="miter" stroke="rgb(93.333333%, 93.333333%, 93.333333%)" stroke-opacity="1" stroke-miterlimit="4" d="M 66.269531 1.780134 C 24.921875 1.780134 1.699219 23.141741 1.699219 86.821987 L 1.699219 536.953125 C 1.699219 557.748326 22.575335 579.190848 63.922991 579.190848 L 515.915179 579.190848 C 557.262835 579.190848 578.138951 558.881138 578.138951 516.967076 L 578.138951 66.835938 C 578.138951 24.193638 557.262835 1.780134 514.620536 1.780134 C 514.620536 1.780134 66.107701 1.618304 66.269531 1.780134 Z M 66.269531 1.780134 " transform="matrix(0.0482759, 0, 0, 0.0482759, 0, 0)"/>
<path fill-rule="nonzero" fill="rgb(100%, 100%, 100%)" fill-opacity="1" d="M 19.695312 19.691406 L 15.402344 14.722656 C 15.351562 14.644531 14.820312 13.78125 14.820312 13.132812 C 14.820312 12.457031 15.382812 11.195312 15.394531 11.171875 C 15.40625 11.164062 15.414062 11.15625 15.425781 11.148438 L 19.042969 7.691406 C 19.425781 7.324219 19.441406 6.71875 19.078125 6.332031 L 19.003906 6.253906 C 18.640625 5.871094 18.03125 5.855469 17.648438 6.21875 L 14.25 9.464844 C 14.183594 9.449219 14.117188 9.4375 14.050781 9.4375 L 12.6875 9.4375 L 10.03125 5.777344 C 9.722656 5.347656 9.125 5.242188 8.691406 5.550781 L 8.605469 5.613281 C 8.171875 5.917969 8.070312 6.519531 8.375 6.949219 L 11.152344 10.773438 L 11.152344 15.324219 L 8.96875 21.433594 C 8.789062 21.933594 9.046875 22.480469 9.546875 22.660156 L 9.648438 22.695312 C 10.148438 22.875 10.695312 22.613281 10.875 22.117188 L 13.003906 16.171875 L 13.976562 16.171875 L 18.164062 21.019531 C 18.507812 21.417969 19.117188 21.464844 19.515625 21.117188 L 19.597656 21.046875 C 20 20.699219 20.042969 20.09375 19.695312 19.691406 Z M 19.695312 19.691406 "/>
<path fill="none" stroke-width="20" stroke-linecap="butt" stroke-linejoin="miter" stroke="rgb(100%, 100%, 100%)" stroke-opacity="1" stroke-miterlimit="4" d="M 535.496652 286.277902 C 535.496652 421.729911 425.694754 531.531808 290.242746 531.531808 C 154.790737 531.531808 44.988839 421.729911 44.988839 286.277902 C 44.988839 150.825893 154.790737 41.023996 290.242746 41.023996 C 425.694754 41.023996 535.496652 150.825893 535.496652 286.277902 Z M 535.496652 286.277902 " transform="matrix(0.0482759, 0, 0, 0.0482759, 0, 0)"/>
<path fill-rule="nonzero" fill="rgb(100%, 100%, 100%)" fill-opacity="1" d="M 15.46875 6.949219 C 15.46875 7.882812 14.710938 8.636719 13.777344 8.636719 C 12.847656 8.636719 12.089844 7.882812 12.089844 6.949219 C 12.089844 6.015625 12.847656 5.257812 13.777344 5.257812 C 14.710938 5.257812 15.46875 6.015625 15.46875 6.949219 Z M 15.46875 6.949219 "/>
</svg>
