<?xml version="1.0" encoding="UTF-8"?>
<svg xmlns="http://www.w3.org/2000/svg" xmlns:xlink="http://www.w3.org/1999/xlink" width="28" height="28" viewBox="0 0 28 28">
<defs>
<filter id="filter-remove-color" x="0%" y="0%" width="100%" height="100%">
<feColorMatrix color-interpolation-filters="sRGB" values="0 0 0 0 1 0 0 0 0 1 0 0 0 0 1 0 0 0 1 0" />
</filter>
<mask id="mask-0">
<g filter="url(#filter-remove-color)">
<rect x="-2.8" y="-2.8" width="33.6" height="33.6" fill="rgb(0%, 0%, 0%)" fill-opacity="0.5"/>
</g>
</mask>
<clipPath id="clip-0">
<rect x="0" y="0" width="28" height="28"/>
</clipPath>
<g id="source-7" clip-path="url(#clip-0)">
<path fill-rule="evenodd" fill="rgb(100%, 100%, 100%)" fill-opacity="1" d="M 4.339844 24.660156 L 6.070312 13.285156 L 7.429688 12.472656 L 8.757812 13.308594 C 8.757812 13.308594 10.261719 24.796875 10.121094 24.726562 C 9.976562 24.660156 4.367188 24.761719 4.339844 24.660156 Z M 4.339844 24.660156 "/>
</g>
</defs>
<path fill-rule="nonzero" fill="rgb(6.666667%, 6.666667%, 6.666667%)" fill-opacity="1" stroke-width="3.408" stroke-linecap="butt" stroke-linejoin="miter" stroke="rgb(93.333333%, 93.333333%, 93.333333%)" stroke-opacity="1" stroke-miterlimit="4" d="M 66.269531 1.780134 C 24.921875 1.780134 1.699219 23.141741 1.699219 66.835938 L 1.699219 516.967076 C 1.699219 557.748326 22.575335 579.190848 63.922991 579.190848 L 515.915179 579.190848 C 557.262835 579.190848 578.138951 558.800223 578.138951 516.967076 L 578.138951 66.835938 C 578.138951 24.193638 557.262835 1.780134 514.620536 1.780134 C 514.620536 1.780134 66.107701 1.618304 66.269531 1.780134 Z M 66.269531 1.780134 " transform="matrix(0.0482759, 0, 0, 0.0482759, 0, 0)"/>
<g mask="url(#mask-0)">
<use xlink:href="#source-7"/>
</g>
<path fill-rule="evenodd" fill="rgb(100%, 100%, 100%)" fill-opacity="1" stroke-width="13.219694" stroke-linecap="round" stroke-linejoin="round" stroke="rgb(100%, 100%, 100%)" stroke-opacity="1" stroke-miterlimit="4" d="M 38.758371 211.512277 L 71.367188 181.007254 L 150.421317 288.786272 L 140.30692 298.577009 Z M 38.758371 211.512277 " transform="matrix(0.0482759, 0, 0, 0.0482759, 0, 0)"/>
<path fill-rule="evenodd" fill="rgb(100%, 100%, 100%)" fill-opacity="1" stroke-width="13.219694" stroke-linecap="round" stroke-linejoin="round" stroke="rgb(100%, 100%, 100%)" stroke-opacity="1" stroke-miterlimit="4" d="M 268.638393 211.512277 L 236.029576 181.007254 L 156.975446 288.786272 L 167.008929 298.577009 Z M 268.638393 211.512277 " transform="matrix(0.0482759, 0, 0, 0.0482759, 0, 0)"/>
<path fill-rule="evenodd" fill="rgb(100%, 100%, 100%)" fill-opacity="1" stroke-width="13.219694" stroke-linecap="round" stroke-linejoin="round" stroke="rgb(100%, 100%, 100%)" stroke-opacity="1" stroke-miterlimit="4" d="M 268.638393 386.208147 L 236.029576 416.794085 L 156.975446 309.015067 L 167.008929 299.22433 Z M 268.638393 386.208147 " transform="matrix(0.0482759, 0, 0, 0.0482759, 0, 0)"/>
<path fill-rule="evenodd" fill="rgb(100%, 100%, 100%)" fill-opacity="1" stroke-width="13.219694" stroke-linecap="round" stroke-linejoin="round" stroke="rgb(100%, 100%, 100%)" stroke-opacity="1" stroke-miterlimit="4" d="M 38.758371 386.208147 L 71.367188 416.794085 L 150.421317 309.015067 L 140.30692 299.22433 Z M 38.758371 386.208147 " transform="matrix(0.0482759, 0, 0, 0.0482759, 0, 0)"/>
<path fill-rule="nonzero" fill="rgb(100%, 100%, 100%)" fill-opacity="1" d="M 19.101562 7.496094 C 19.101562 6.992188 18.917969 6.566406 18.554688 6.21875 C 18.1875 5.871094 17.753906 5.699219 17.25 5.699219 C 16.742188 5.699219 16.3125 5.871094 15.957031 6.21875 C 15.601562 6.566406 15.425781 6.992188 15.425781 7.496094 C 15.425781 8 15.601562 8.425781 15.957031 8.773438 C 16.3125 9.121094 16.742188 9.292969 17.25 9.292969 C 17.753906 9.292969 18.1875 9.121094 18.554688 8.773438 C 18.917969 8.425781 19.101562 8 19.101562 7.496094 Z M 14.273438 26.1875 C 14.667969 26.1875 14.984375 26.003906 15.226562 25.628906 L 20.503906 17.683594 L 20.785156 18.777344 L 20 24.730469 C 19.960938 25.027344 20.027344 25.296875 20.195312 25.53125 C 20.363281 25.765625 20.597656 25.910156 20.898438 25.964844 C 21.199219 26.019531 21.472656 25.960938 21.726562 25.78125 C 21.976562 25.605469 22.125 25.367188 22.160156 25.066406 L 22.976562 18.976562 C 22.992188 18.769531 22.976562 18.554688 22.917969 18.332031 L 21.121094 11.171875 L 25.808594 10.332031 C 26.054688 10.292969 26.25 10.167969 26.398438 9.953125 C 26.550781 9.738281 26.605469 9.507812 26.566406 9.265625 C 26.511719 9.019531 26.371094 8.816406 26.148438 8.648438 L 15.367188 1.546875 L 14.386719 2.976562 C 14.144531 3.3125 14.199219 3.605469 14.554688 3.847656 C 14.890625 4.054688 15.179688 3.996094 15.425781 3.679688 L 15.984375 2.835938 L 24.742188 8.589844 L 17.585938 9.882812 C 17.324219 9.9375 17.113281 10.074219 16.953125 10.289062 C 16.796875 10.503906 16.753906 10.734375 16.828125 10.976562 L 18.371094 17.011719 L 13.320312 24.5625 C 13.226562 24.730469 13.179688 24.90625 13.179688 25.09375 C 13.179688 25.394531 13.285156 25.652344 13.503906 25.867188 C 13.71875 26.082031 13.976562 26.1875 14.273438 26.1875 Z M 14.273438 26.1875 "/>
</svg>
