<?xml version="1.0" encoding="UTF-8"?>
<svg xmlns="http://www.w3.org/2000/svg" xmlns:xlink="http://www.w3.org/1999/xlink" width="28" height="28" viewBox="0 0 28 28">
<path fill-rule="nonzero" fill="rgb(6.666667%, 6.666667%, 6.666667%)" fill-opacity="1" stroke-width="3.408" stroke-linecap="butt" stroke-linejoin="miter" stroke="rgb(93.333333%, 93.333333%, 93.333333%)" stroke-opacity="1" stroke-miterlimit="4" d="M 66.269531 1.780134 C 24.921875 1.780134 1.699219 23.141741 1.699219 66.835938 L 1.699219 516.967076 C 1.699219 557.748326 22.575335 579.190848 63.922991 579.190848 L 515.915179 579.190848 C 557.262835 579.190848 578.138951 558.881138 578.138951 516.967076 L 578.138951 66.835938 C 578.138951 24.193638 557.262835 1.780134 514.620536 1.780134 C 514.620536 1.780134 66.107701 1.618304 66.269531 1.780134 Z M 66.269531 1.780134 " transform="matrix(0.0482759, 0, 0, 0.0482759, 0, 0)"/>
<path fill-rule="evenodd" fill="rgb(100%, 100%, 100%)" fill-opacity="1" stroke-width="5" stroke-linecap="round" stroke-linejoin="round" stroke="rgb(100%, 100%, 100%)" stroke-opacity="1" stroke-miterlimit="4" d="M 305.616629 68.939732 C 304.160156 68.939732 302.460938 69.101562 300.842634 69.182478 L 300.842634 151.311384 C 302.460938 151.149554 304.160156 151.068638 305.616629 151.068638 C 328.272879 151.068638 354.570312 167.81808 381.595982 173.643973 L 381.595982 91.515067 C 354.570312 85.689174 328.272879 68.939732 305.616629 68.939732 Z M 305.616629 68.939732 " transform="matrix(0.0482759, 0, 0, 0.0482759, 0, 0)"/>
<path fill="none" stroke-width="10" stroke-linecap="round" stroke-linejoin="round" stroke="rgb(100%, 100%, 100%)" stroke-opacity="1" stroke-miterlimit="4" d="M 130.435268 68.616071 L 132.215402 314.760045 C 132.296317 330.376674 179.227121 350.929129 201.640625 350.929129 C 231.741071 350.929129 278.267299 326.25 305.616629 326.25 C 333.046875 326.25 365.898438 350.929129 398.75 350.929129 C 431.520647 350.929129 469.874442 331.752232 469.874442 331.752232 L 469.874442 74.441964 C 469.874442 74.441964 431.520647 93.618862 398.75 93.618862 C 365.898438 93.618862 333.046875 68.939732 305.616629 68.939732 C 278.267299 68.939732 231.741071 93.618862 201.640625 93.618862 C 171.540179 93.618862 130.435268 68.616071 130.435268 68.616071 Z M 130.435268 68.616071 " transform="matrix(0.0482759, 0, 0, 0.0482759, 0, 0)"/>
<path fill-rule="evenodd" fill="rgb(100%, 100%, 100%)" fill-opacity="1" stroke-width="5" stroke-linecap="round" stroke-linejoin="round" stroke="rgb(100%, 100%, 100%)" stroke-opacity="1" stroke-miterlimit="4" d="M 467.851562 162.96317 C 462.511161 165.552455 428.931362 181.169085 398.75 181.169085 C 394.866071 181.169085 390.982143 180.845424 387.098214 180.279018 L 387.098214 262.327009 C 390.982143 262.97433 394.866071 263.297991 398.75 263.297991 C 428.931362 263.297991 462.511161 247.681362 467.851562 245.092076 Z M 467.851562 162.96317 " transform="matrix(0.0482759, 0, 0, 0.0482759, 0, 0)"/>
<path fill-rule="evenodd" fill="rgb(100%, 100%, 100%)" fill-opacity="1" stroke-width="5" stroke-linecap="round" stroke-linejoin="round" stroke="rgb(100%, 100%, 100%)" stroke-opacity="1" stroke-miterlimit="4" d="M 305.616629 244.121094 C 304.160156 244.121094 302.460938 244.282924 300.842634 244.363839 L 300.842634 326.492746 C 302.460938 326.41183 304.160156 326.25 305.616629 326.25 C 328.272879 326.25 354.570312 342.999442 381.595982 348.825335 L 381.595982 266.696429 C 354.570312 260.870536 328.272879 244.121094 305.616629 244.121094 Z M 305.616629 244.121094 " transform="matrix(0.0482759, 0, 0, 0.0482759, 0, 0)"/>
<path fill-rule="nonzero" fill="rgb(100%, 100%, 100%)" fill-opacity="1" stroke-width="5" stroke-linecap="round" stroke-linejoin="round" stroke="rgb(100%, 100%, 100%)" stroke-opacity="1" stroke-miterlimit="4" d="M 130.435268 243.797433 L 132.134487 314.84096 C 132.539062 330.457589 179.227121 350.929129 201.640625 350.929129 C 204.472656 350.929129 207.466518 350.605469 210.541295 350.200893 L 210.541295 268.071987 C 207.466518 268.476562 204.472656 268.800223 201.640625 268.800223 C 171.540179 268.800223 130.435268 243.797433 130.435268 243.797433 Z M 130.435268 243.797433 " transform="matrix(0.0482759, 0, 0, 0.0482759, 0, 0)"/>
<path fill-rule="nonzero" fill="rgb(100%, 100%, 100%)" fill-opacity="1" stroke-width="5" stroke-linecap="round" stroke-linejoin="round" stroke="rgb(100%, 100%, 100%)" stroke-opacity="1" stroke-miterlimit="4" d="M 296.068638 157.380022 C 272.684152 160.94029 240.884487 175.343192 215.31529 179.793527 L 215.31529 261.922433 C 240.884487 257.472098 272.684152 243.069196 296.068638 239.508929 Z M 296.068638 157.380022 " transform="matrix(0.0482759, 0, 0, 0.0482759, 0, 0)"/>
<path fill-rule="nonzero" fill="rgb(100%, 100%, 100%)" fill-opacity="1" stroke-width="5" stroke-linecap="round" stroke-linejoin="round" stroke="rgb(100%, 100%, 100%)" stroke-opacity="1" stroke-miterlimit="4" d="M 130.435268 68.616071 L 132.134487 139.578683 C 132.539062 155.276228 179.227121 175.747768 201.640625 175.747768 C 204.472656 175.747768 207.466518 175.424107 210.541295 175.019531 L 210.541295 92.890625 C 207.466518 93.295201 204.472656 93.618862 201.640625 93.618862 C 171.540179 93.618862 130.435268 68.616071 130.435268 68.616071 Z M 130.435268 68.616071 " transform="matrix(0.0482759, 0, 0, 0.0482759, 0, 0)"/>
<path fill-rule="evenodd" fill="rgb(100%, 100%, 100%)" fill-opacity="1" stroke-width="10" stroke-linecap="round" stroke-linejoin="round" stroke="rgb(100%, 100%, 100%)" stroke-opacity="1" stroke-miterlimit="4" d="M 116.517857 529.913504 L 116.517857 66.593192 L 131.163504 66.593192 L 131.163504 529.913504 Z M 116.517857 529.913504 " transform="matrix(0.0482759, 0, 0, 0.0482759, 0, 0)"/>
</svg>
