<?xml version="1.0" encoding="UTF-8"?>
<svg xmlns="http://www.w3.org/2000/svg" xmlns:xlink="http://www.w3.org/1999/xlink" width="28" height="28" viewBox="0 0 28 28">
<path fill-rule="nonzero" fill="rgb(6.666667%, 6.666667%, 6.666667%)" fill-opacity="1" stroke-width="3.408" stroke-linecap="butt" stroke-linejoin="miter" stroke="rgb(93.333333%, 93.333333%, 93.333333%)" stroke-opacity="1" stroke-miterlimit="4" d="M 66.269531 1.780134 C 24.921875 1.780134 1.699219 23.141741 1.699219 66.835938 L 1.699219 516.967076 C 1.699219 557.748326 22.575335 579.190848 63.922991 579.190848 L 515.915179 579.190848 C 557.262835 579.190848 578.138951 558.881138 578.138951 516.967076 L 578.138951 66.835938 C 578.138951 24.193638 557.262835 1.780134 514.620536 1.780134 C 514.620536 1.780134 66.107701 1.618304 66.269531 1.780134 Z M 66.269531 1.780134 " transform="matrix(0.0482759, 0, 0, 0.0482759, 0, 0)"/>
<path fill-rule="nonzero" fill="rgb(100%, 100%, 100%)" fill-opacity="1" d="M 7.554688 13.796875 C 7.554688 15.332031 6.308594 16.574219 4.777344 16.574219 C 3.242188 16.574219 2 15.332031 2 13.796875 C 2 12.261719 3.242188 11.019531 4.777344 11.019531 C 6.308594 11.019531 7.554688 12.261719 7.554688 13.796875 Z M 7.554688 13.796875 "/>
<path fill-rule="nonzero" fill="rgb(100%, 100%, 100%)" fill-opacity="1" d="M 20.347656 21.347656 C 20.480469 21.261719 20.648438 21.285156 20.746094 21.410156 L 21.253906 22.121094 C 21.34375 22.246094 21.316406 22.421875 21.191406 22.515625 L 17.421875 25.257812 C 17.300781 25.34375 17.121094 25.320312 17.027344 25.191406 L 16.515625 24.484375 C 16.429688 24.359375 16.453125 24.183594 16.578125 24.085938 Z M 20.347656 21.347656 "/>
<path fill-rule="nonzero" fill="rgb(100%, 100%, 100%)" fill-opacity="1" d="M 15.300781 18.402344 L 16.089844 17.816406 L 14.589844 15.191406 L 13.804688 15.765625 Z M 15.300781 18.402344 "/>
<path fill-rule="nonzero" fill="rgb(100%, 100%, 100%)" fill-opacity="1" d="M 11.804688 12.269531 L 12.597656 11.6875 L 6.78125 1.472656 L 5.664062 1.480469 Z M 11.804688 12.269531 "/>
<path fill-rule="nonzero" fill="rgb(100%, 100%, 100%)" fill-opacity="1" d="M 18.074219 17.089844 C 18.402344 16.855469 18.777344 16.667969 19.207031 16.667969 L 24.613281 16.675781 C 25.667969 16.675781 26.511719 17.527344 26.511719 18.574219 C 26.511719 19.628906 25.667969 20.472656 24.613281 20.472656 L 20.105469 20.46875 L 14.347656 24.53125 C 12.316406 25.992188 11.085938 24.386719 11.085938 24.386719 L 6.566406 19.867188 C 5.808594 18.957031 5.972656 17.226562 6.882812 16.460938 L 13.136719 12.007812 C 13.757812 11.492188 14.679688 11.570312 15.207031 12.1875 C 15.726562 12.808594 15.644531 13.738281 15.023438 14.257812 L 11.015625 17.191406 L 13.890625 20.035156 Z M 18.074219 17.089844 "/>
</svg>
