<?xml version="1.0" encoding="UTF-8"?>
<svg xmlns="http://www.w3.org/2000/svg" xmlns:xlink="http://www.w3.org/1999/xlink" width="28" height="28" viewBox="0 0 28 28">
<path fill-rule="nonzero" fill="rgb(6.666667%, 6.666667%, 6.666667%)" fill-opacity="1" stroke-width="3.408" stroke-linecap="butt" stroke-linejoin="miter" stroke="rgb(93.333333%, 93.333333%, 93.333333%)" stroke-opacity="1" stroke-miterlimit="4" d="M 66.269531 1.780134 C 24.921875 1.780134 1.699219 23.141741 1.699219 66.835938 L 1.699219 516.967076 C 1.699219 557.748326 22.575335 579.190848 63.922991 579.190848 L 515.915179 579.190848 C 557.262835 579.190848 578.138951 558.881138 578.138951 516.967076 L 578.138951 66.835938 C 578.138951 24.193638 557.262835 1.780134 514.620536 1.780134 C 514.620536 1.780134 66.107701 1.618304 66.269531 1.780134 Z M 66.269531 1.780134 " transform="matrix(0.0482759, 0, 0, 0.0482759, 0, 0)"/>
<path fill-rule="nonzero" fill="rgb(100%, 100%, 100%)" fill-opacity="1" d="M 22.5 23.203125 C 22.160156 23.203125 21.691406 23.308594 21.09375 23.515625 C 20.5 23.726562 20.03125 23.828125 19.691406 23.828125 C 19.351562 23.828125 18.878906 23.726562 18.273438 23.515625 C 17.667969 23.308594 17.203125 23.203125 16.882812 23.203125 C 16.542969 23.203125 16.070312 23.308594 15.464844 23.515625 C 14.859375 23.726562 14.386719 23.828125 14.046875 23.828125 C 13.726562 23.828125 13.261719 23.726562 12.65625 23.515625 C 12.054688 23.308594 11.582031 23.203125 11.242188 23.203125 C 10.898438 23.203125 10.433594 23.308594 9.835938 23.515625 C 9.242188 23.726562 8.773438 23.828125 8.433594 23.828125 C 8.09375 23.828125 7.625 23.726562 7.027344 23.515625 C 6.433594 23.308594 5.964844 23.203125 5.625 23.203125 C 5.285156 23.203125 4.8125 23.308594 4.207031 23.515625 C 3.601562 23.726562 3.140625 23.828125 2.816406 23.828125 L 2.816406 25.898438 C 3.140625 25.898438 3.601562 25.792969 4.207031 25.585938 C 4.8125 25.378906 5.285156 25.273438 5.625 25.273438 C 5.964844 25.273438 6.433594 25.378906 7.027344 25.585938 C 7.625 25.792969 8.09375 25.898438 8.433594 25.898438 C 8.773438 25.898438 9.242188 25.792969 9.835938 25.585938 C 10.433594 25.378906 10.898438 25.273438 11.242188 25.273438 C 11.582031 25.273438 12.054688 25.378906 12.65625 25.585938 C 13.261719 25.792969 13.726562 25.898438 14.046875 25.898438 C 14.386719 25.898438 14.859375 25.792969 15.464844 25.585938 C 16.070312 25.378906 16.542969 25.273438 16.882812 25.273438 C 17.203125 25.273438 17.667969 25.378906 18.273438 25.585938 C 18.878906 25.792969 19.351562 25.898438 19.691406 25.898438 C 20.03125 25.898438 20.5 25.792969 21.09375 25.585938 C 21.691406 25.378906 22.160156 25.273438 22.5 25.273438 C 22.839844 25.273438 23.308594 25.378906 23.902344 25.585938 C 24.5 25.792969 24.964844 25.898438 25.304688 25.898438 L 25.304688 23.828125 C 24.964844 23.828125 24.5 23.726562 23.902344 23.515625 C 23.308594 23.308594 22.839844 23.203125 22.5 23.203125 Z M 16.289062 1.566406 L 3.46875 17.222656 L 16.289062 17.222656 Z M 17.480469 5.167969 L 17.480469 17.222656 L 25.164062 17.222656 C 25.203125 16.878906 25.222656 16.550781 25.222656 16.226562 C 25.222656 13.828125 24.371094 11.550781 22.667969 9.394531 C 21.214844 7.523438 19.484375 6.113281 17.480469 5.167969 Z M 6.503906 18.355469 L 6.503906 21.445312 C 6.808594 21.542969 7.121094 21.644531 7.441406 21.757812 C 7.761719 21.871094 8.09375 21.929688 8.433594 21.929688 C 8.773438 21.929688 9.246094 21.824219 9.851562 21.617188 C 10.457031 21.410156 10.917969 21.304688 11.242188 21.304688 C 11.582031 21.304688 12.054688 21.410156 12.65625 21.617188 C 13.261719 21.824219 13.726562 21.929688 14.046875 21.929688 C 14.386719 21.929688 14.859375 21.824219 15.464844 21.617188 C 16.070312 21.410156 16.542969 21.304688 16.882812 21.304688 C 17.203125 21.304688 17.667969 21.410156 18.273438 21.617188 C 18.878906 21.824219 19.351562 21.929688 19.691406 21.929688 C 19.691406 21.929688 19.785156 21.917969 19.976562 21.902344 C 19.976562 21.902344 19.980469 21.902344 19.988281 21.902344 C 20 21.902344 20.023438 21.902344 20.058594 21.902344 C 20.097656 21.882812 20.140625 21.871094 20.1875 21.871094 C 20.234375 21.871094 20.335938 21.851562 20.484375 21.816406 C 20.9375 21.605469 21.488281 21.277344 22.128906 20.824219 L 24.113281 18.355469 Z M 6.503906 18.355469 "/>
</svg>
