<?xml version="1.0" encoding="UTF-8"?>
<svg xmlns="http://www.w3.org/2000/svg" xmlns:xlink="http://www.w3.org/1999/xlink" width="28" height="28" viewBox="0 0 28 28">
<path fill-rule="nonzero" fill="rgb(6.666667%, 6.666667%, 6.666667%)" fill-opacity="1" stroke-width="3.408" stroke-linecap="butt" stroke-linejoin="miter" stroke="rgb(93.333333%, 93.333333%, 93.333333%)" stroke-opacity="1" stroke-miterlimit="4" d="M 66.269531 1.780134 C 24.921875 1.780134 1.699219 23.141741 1.699219 66.835938 L 1.699219 516.967076 C 1.699219 557.748326 22.575335 579.190848 63.922991 579.190848 L 515.915179 579.190848 C 557.262835 579.190848 578.138951 558.881138 578.138951 516.967076 L 578.138951 66.835938 C 578.138951 24.193638 557.262835 1.780134 514.620536 1.780134 C 514.620536 1.780134 66.107701 1.618304 66.269531 1.780134 Z M 66.269531 1.780134 " transform="matrix(0.0482759, 0, 0, 0.0482759, 0, 0)"/>
<path fill-rule="nonzero" fill="rgb(100%, 100%, 100%)" fill-opacity="1" d="M 10.367188 6.140625 C 10.945312 6.140625 11.441406 5.9375 11.851562 5.527344 C 12.261719 5.117188 12.46875 4.609375 12.46875 4.011719 C 12.46875 3.429688 12.261719 2.933594 11.851562 2.523438 C 11.441406 2.113281 10.945312 1.910156 10.367188 1.90625 C 9.785156 1.910156 9.285156 2.113281 8.863281 2.523438 C 8.441406 2.933594 8.234375 3.429688 8.234375 4.011719 C 8.234375 4.609375 8.441406 5.117188 8.863281 5.527344 C 9.285156 5.9375 9.785156 6.140625 10.367188 6.140625 Z M 11.777344 7.464844 C 11.695312 7.90625 11.417969 8.125 10.9375 8.125 L 5.921875 8.125 C 5.320312 8.125 5.019531 7.863281 5.019531 7.34375 C 5.019531 7.125 5.089844 6.941406 5.230469 6.804688 C 4.851562 6.941406 4.660156 7.195312 4.660156 7.554688 C 4.660156 8.074219 4.96875 8.335938 5.589844 8.335938 L 10.847656 8.335938 C 11.507812 8.335938 11.816406 8.042969 11.777344 7.464844 Z M 5.921875 8.125 L 10.9375 8.125 C 11.417969 8.125 11.695312 7.90625 11.777344 7.464844 C 11.757812 6.945312 11.445312 6.683594 10.847656 6.683594 L 5.589844 6.683594 C 5.570312 6.683594 5.449219 6.722656 5.230469 6.804688 C 5.089844 6.941406 5.019531 7.125 5.019531 7.34375 C 5.019531 7.863281 5.320312 8.125 5.921875 8.125 Z M 11.175781 16.144531 L 11.175781 16.054688 C 11.175781 16.054688 11.175781 16.0625 11.175781 16.082031 Z M 11.117188 16.742188 L 11.117188 16.652344 C 11.117188 16.675781 11.117188 16.683594 11.117188 16.683594 Z M 12.078125 6.773438 C 12.097656 6.792969 12.117188 6.8125 12.136719 6.832031 C 12.21875 6.992188 12.277344 7.175781 12.316406 7.375 C 12.339844 7.574219 12.289062 7.804688 12.167969 8.0625 C 12.167969 8.105469 12.148438 8.15625 12.105469 8.214844 C 11.828125 8.636719 11.40625 8.84375 10.847656 8.84375 L 7.960938 8.84375 L 7.960938 16.59375 L 6.3125 24.824219 C 6.25 25.144531 6.3125 25.4375 6.492188 25.707031 C 6.671875 25.980469 6.921875 26.144531 7.242188 26.203125 C 7.5625 26.265625 7.859375 26.203125 8.128906 26.023438 C 8.398438 25.84375 8.574219 25.59375 8.652344 25.273438 L 10.335938 16.742188 L 11.117188 16.742188 L 12.796875 25.273438 C 12.859375 25.59375 13.023438 25.84375 13.292969 26.023438 C 13.5625 26.203125 13.867188 26.265625 14.210938 26.203125 C 14.511719 26.144531 14.753906 25.980469 14.945312 25.707031 C 15.136719 25.4375 15.191406 25.144531 15.109375 24.824219 L 13.457031 16.535156 L 13.457031 9.597656 L 14.542969 8.191406 L 15.664062 8.117188 L 16.554688 6.957031 L 24.078125 6.539062 L 24.042969 5.789062 L 12.527344 6.035156 C 12.527344 6.035156 11.695312 6.339844 11.375 6.515625 Z M 11.175781 16.144531 L 11.175781 16.082031 C 11.175781 16.082031 11.175781 16.074219 11.175781 16.054688 Z M 11.175781 16.144531 "/>
</svg>
