<?xml version="1.0" encoding="UTF-8"?>
<svg xmlns="http://www.w3.org/2000/svg" xmlns:xlink="http://www.w3.org/1999/xlink" width="28" height="28" viewBox="0 0 28 28">
<path fill-rule="nonzero" fill="rgb(6.666667%, 6.666667%, 6.666667%)" fill-opacity="1" stroke-width="3.408" stroke-linecap="butt" stroke-linejoin="miter" stroke="rgb(93.333333%, 93.333333%, 93.333333%)" stroke-opacity="1" stroke-miterlimit="4" d="M 66.269531 1.780134 C 24.921875 1.780134 1.699219 23.141741 1.699219 66.835938 L 1.699219 516.967076 C 1.699219 557.748326 22.575335 579.190848 63.922991 579.190848 L 515.915179 579.190848 C 557.262835 579.190848 578.138951 558.881138 578.138951 516.967076 L 578.138951 66.835938 C 578.138951 24.193638 557.262835 1.780134 514.620536 1.780134 C 514.620536 1.780134 66.107701 1.618304 66.269531 1.780134 Z M 66.269531 1.780134 " transform="matrix(0.0482759, 0, 0, 0.0482759, 0, 0)"/>
<path fill-rule="nonzero" fill="rgb(100%, 100%, 100%)" fill-opacity="1" d="M 24.375 24.792969 L 5.488281 24.792969 L 5.488281 25.585938 L 24.375 25.585938 C 24.90625 25.585938 25.359375 25.398438 25.738281 25.019531 C 26.117188 24.640625 26.304688 24.1875 26.304688 23.660156 L 25.539062 23.660156 C 25.539062 23.980469 25.425781 24.25 25.199219 24.464844 C 24.972656 24.683594 24.699219 24.792969 24.375 24.792969 Z M 19.894531 6.074219 C 20.40625 6.074219 20.851562 5.890625 21.226562 5.523438 C 21.605469 5.152344 21.796875 4.707031 21.796875 4.175781 C 21.796875 3.648438 21.605469 3.199219 21.226562 2.828125 C 20.851562 2.460938 20.40625 2.277344 19.894531 2.277344 C 19.367188 2.277344 18.917969 2.460938 18.546875 2.828125 C 18.179688 3.199219 17.996094 3.648438 17.996094 4.175781 C 17.996094 4.707031 18.179688 5.152344 18.546875 5.523438 C 18.917969 5.890625 19.367188 6.074219 19.894531 6.074219 Z M 7.417969 23.089844 C 7.625 23.28125 7.878906 23.375 8.183594 23.375 C 8.523438 23.375 8.882812 23.242188 9.261719 22.976562 L 8.695312 22.382812 C 8.523438 22.496094 8.363281 22.550781 8.210938 22.550781 C 8.058594 22.550781 7.945312 22.515625 7.871094 22.4375 L 7.84375 22.410156 L 1.546875 16.085938 L 1.546875 17.191406 Z M 8.042969 10.472656 L 1.605469 10.472656 L 1.605469 11.238281 L 8.042969 11.238281 Z M 18.929688 23.6875 L 26.277344 8.941406 L 25.539062 8.628906 L 18.109375 23.6875 Z M 4.15625 15.007812 C 3.796875 15.007812 3.492188 15.121094 3.25 15.347656 C 3.003906 15.578125 2.878906 15.871094 2.878906 16.226562 C 2.878906 16.570312 3.003906 16.855469 3.25 17.09375 C 3.492188 17.328125 3.789062 17.449219 4.128906 17.449219 L 9.261719 17.449219 C 9.46875 17.449219 9.65625 17.429688 9.828125 17.390625 C 10.261719 17.316406 10.566406 17.183594 10.734375 16.996094 L 13.257812 14.1875 L 16.207031 17.023438 L 15.015625 22.324219 C 14.980469 22.4375 14.960938 22.535156 14.960938 22.609375 C 14.960938 22.949219 15.082031 23.242188 15.328125 23.488281 C 15.574219 23.734375 15.867188 23.855469 16.207031 23.855469 C 16.851562 23.855469 17.25 23.527344 17.398438 22.863281 L 18.847656 16.425781 C 19.015625 15.746094 18.941406 15.246094 18.621094 14.925781 L 16.039062 12.34375 L 18.847656 9.082031 L 20.660156 10.898438 C 20.851562 11.085938 21.066406 11.179688 21.3125 11.179688 C 21.636719 11.179688 21.945312 11.039062 22.25 10.753906 L 25.199219 7.804688 C 25.351562 7.617188 25.425781 7.410156 25.425781 7.183594 C 25.425781 6.898438 25.324219 6.664062 25.128906 6.472656 C 24.929688 6.285156 24.699219 6.1875 24.433594 6.1875 C 24.167969 6.1875 23.960938 6.265625 23.808594 6.414062 L 21.371094 8.855469 L 18.421875 5.90625 C 18.195312 5.679688 17.910156 5.566406 17.570312 5.566406 L 12.949219 5.566406 C 12.664062 5.566406 12.417969 5.679688 12.210938 5.90625 L 9.035156 9.566406 C 8.808594 9.753906 8.695312 9.988281 8.695312 10.273438 C 8.695312 10.539062 8.789062 10.765625 8.976562 10.953125 C 9.167969 11.144531 9.394531 11.238281 9.65625 11.238281 C 9.941406 11.238281 10.1875 11.125 10.394531 10.898438 L 13.34375 7.464844 L 15.046875 7.496094 L 8.550781 15.039062 Z M 4.15625 15.007812 "/>
</svg>
