<?xml version="1.0" encoding="UTF-8"?>
<svg xmlns="http://www.w3.org/2000/svg" xmlns:xlink="http://www.w3.org/1999/xlink" width="28" height="28" viewBox="0 0 28 28">
<path fill-rule="nonzero" fill="rgb(6.666667%, 6.666667%, 6.666667%)" fill-opacity="1" stroke-width="3.408" stroke-linecap="butt" stroke-linejoin="miter" stroke="rgb(93.333333%, 93.333333%, 93.333333%)" stroke-opacity="1" stroke-miterlimit="4" d="M 66.269531 1.780134 C 24.921875 1.780134 1.699219 23.141741 1.699219 66.835938 L 1.699219 516.967076 C 1.699219 557.748326 22.575335 579.190848 63.922991 579.190848 L 515.915179 579.190848 C 557.262835 579.190848 578.138951 558.881138 578.138951 516.967076 L 578.138951 66.835938 C 578.138951 24.193638 557.262835 1.780134 514.620536 1.780134 C 514.620536 1.780134 66.107701 1.618304 66.269531 1.780134 Z M 66.269531 1.780134 " transform="matrix(0.0482759, 0, 0, 0.0482759, 0, 0)"/>
<path fill-rule="nonzero" fill="rgb(100%, 100%, 100%)" fill-opacity="1" d="M 23.101562 11.605469 C 23.628906 11.605469 24.078125 11.421875 24.445312 11.054688 C 24.816406 10.683594 25 10.234375 25 9.707031 C 25 9.175781 24.816406 8.726562 24.445312 8.359375 C 24.078125 7.988281 23.628906 7.804688 23.101562 7.804688 C 22.589844 7.804688 22.144531 7.988281 21.765625 8.359375 C 21.386719 8.726562 21.199219 9.175781 21.199219 9.707031 C 21.199219 10.234375 21.386719 10.683594 21.765625 11.054688 C 22.144531 11.421875 22.589844 11.605469 23.101562 11.605469 Z M 24.828125 24.59375 L 24.148438 24.199219 C 23.921875 24.574219 23.589844 24.765625 23.15625 24.765625 C 22.949219 24.765625 22.75 24.707031 22.5625 24.59375 L 2.597656 12.855469 L 2.199219 13.535156 L 22.164062 25.273438 C 22.464844 25.445312 22.796875 25.53125 23.15625 25.53125 C 23.894531 25.53125 24.453125 25.21875 24.828125 24.59375 Z M 8.863281 15.492188 C 8.976562 15.511719 9.136719 15.480469 9.34375 15.40625 L 14.820312 13.621094 C 15.347656 13.429688 15.640625 13.136719 15.699219 12.742188 C 15.753906 12.34375 15.773438 12.125 15.753906 12.089844 L 14.933594 9.109375 L 18.222656 11.066406 L 18.621094 13.929688 C 18.695312 14.441406 18.914062 14.800781 19.269531 15.007812 L 23.554688 17.503906 C 23.703125 17.597656 23.855469 17.648438 24.007812 17.648438 C 24.289062 17.648438 24.527344 17.546875 24.714844 17.347656 C 24.90625 17.148438 25 16.917969 25 16.652344 C 25 16.277344 24.828125 15.992188 24.488281 15.804688 L 21.085938 13.816406 L 20.71875 8.714844 C 20.660156 8.03125 20.367188 7.542969 19.839844 7.238281 L 14.933594 4.347656 C 14.480469 4.082031 14.003906 3.949219 13.515625 3.949219 C 12.625 3.949219 11.9375 4.308594 11.445312 5.027344 C 11.160156 5.460938 11.019531 5.933594 11.019531 6.445312 C 11.019531 6.671875 11.046875 6.898438 11.105469 7.125 L 12.4375 11.464844 L 8.4375 12.742188 C 7.871094 12.910156 7.550781 13.328125 7.472656 13.988281 C 7.359375 14.878906 7.824219 15.378906 8.863281 15.492188 Z M 8.863281 15.492188 "/>
</svg>
