<?xml version="1.0" encoding="UTF-8"?>
<svg xmlns="http://www.w3.org/2000/svg" xmlns:xlink="http://www.w3.org/1999/xlink" width="28" height="28" viewBox="0 0 28 28">
<path fill-rule="nonzero" fill="rgb(6.666667%, 6.666667%, 6.666667%)" fill-opacity="1" stroke-width="3.408" stroke-linecap="butt" stroke-linejoin="miter" stroke="rgb(93.333333%, 93.333333%, 93.333333%)" stroke-opacity="1" stroke-miterlimit="4" d="M 66.269531 1.780134 C 24.921875 1.780134 1.699219 23.141741 1.699219 66.835938 L 1.699219 516.967076 C 1.699219 557.748326 22.575335 579.190848 63.922991 579.190848 L 515.915179 579.190848 C 557.262835 579.190848 578.138951 558.881138 578.138951 516.967076 L 578.138951 66.835938 C 578.138951 24.193638 557.262835 1.780134 514.620536 1.780134 C 514.620536 1.780134 66.107701 1.618304 66.269531 1.780134 Z M 66.269531 1.780134 " transform="matrix(0.0482759, 0, 0, 0.0482759, 0, 0)"/>
<path fill-rule="nonzero" fill="rgb(100%, 100%, 100%)" fill-opacity="1" d="M 8.570312 21.960938 C 8.570312 22.859375 7.84375 23.589844 6.945312 23.589844 C 6.046875 23.589844 5.320312 22.859375 5.320312 21.960938 C 5.320312 21.066406 6.046875 20.335938 6.945312 20.335938 C 7.84375 20.335938 8.570312 21.066406 8.570312 21.960938 Z M 8.570312 21.960938 "/>
<path fill-rule="nonzero" fill="rgb(100%, 100%, 100%)" fill-opacity="1" d="M 12.066406 21.960938 C 12.066406 22.859375 11.339844 23.589844 10.441406 23.589844 C 9.542969 23.589844 8.8125 22.859375 8.8125 21.960938 C 8.8125 21.066406 9.542969 20.335938 10.441406 20.335938 C 11.339844 20.335938 12.066406 21.066406 12.066406 21.960938 Z M 12.066406 21.960938 "/>
<path fill-rule="nonzero" fill="rgb(100%, 100%, 100%)" fill-opacity="1" d="M 15.558594 21.960938 C 15.558594 22.859375 14.832031 23.589844 13.933594 23.589844 C 13.035156 23.589844 12.308594 22.859375 12.308594 21.960938 C 12.308594 21.066406 13.035156 20.335938 13.933594 20.335938 C 14.832031 20.335938 15.558594 21.066406 15.558594 21.960938 Z M 15.558594 21.960938 "/>
<path fill-rule="nonzero" fill="rgb(100%, 100%, 100%)" fill-opacity="1" d="M 19.054688 21.960938 C 19.054688 22.859375 18.328125 23.589844 17.429688 23.589844 C 16.53125 23.589844 15.800781 22.859375 15.800781 21.960938 C 15.800781 21.066406 16.53125 20.335938 17.429688 20.335938 C 18.328125 20.335938 19.054688 21.066406 19.054688 21.960938 Z M 19.054688 21.960938 "/>
<path fill-rule="nonzero" fill="rgb(100%, 100%, 100%)" fill-opacity="1" d="M 22.546875 21.960938 C 22.546875 22.859375 21.820312 23.589844 20.921875 23.589844 C 20.023438 23.589844 19.296875 22.859375 19.296875 21.960938 C 19.296875 21.066406 20.023438 20.335938 20.921875 20.335938 C 21.820312 20.335938 22.546875 21.066406 22.546875 21.960938 Z M 22.546875 21.960938 "/>
<path fill-rule="nonzero" fill="rgb(100%, 100%, 100%)" fill-opacity="1" d="M 10.269531 18.878906 C 10.269531 19.777344 9.539062 20.507812 8.640625 20.507812 C 7.742188 20.507812 7.015625 19.777344 7.015625 18.878906 C 7.015625 17.984375 7.742188 17.253906 8.640625 17.253906 C 9.539062 17.253906 10.269531 17.984375 10.269531 18.878906 Z M 10.269531 18.878906 "/>
<path fill-rule="nonzero" fill="rgb(100%, 100%, 100%)" fill-opacity="1" d="M 13.761719 18.878906 C 13.761719 19.777344 13.035156 20.507812 12.136719 20.507812 C 11.238281 20.507812 10.507812 19.777344 10.507812 18.878906 C 10.507812 17.984375 11.238281 17.253906 12.136719 17.253906 C 13.035156 17.253906 13.761719 17.984375 13.761719 18.878906 Z M 13.761719 18.878906 "/>
<path fill-rule="nonzero" fill="rgb(100%, 100%, 100%)" fill-opacity="1" d="M 17.257812 18.878906 C 17.257812 19.777344 16.527344 20.507812 15.628906 20.507812 C 14.730469 20.507812 14.003906 19.777344 14.003906 18.878906 C 14.003906 17.984375 14.730469 17.253906 15.628906 17.253906 C 16.527344 17.253906 17.257812 17.984375 17.257812 18.878906 Z M 17.257812 18.878906 "/>
<path fill-rule="nonzero" fill="rgb(100%, 100%, 100%)" fill-opacity="1" d="M 20.75 18.878906 C 20.75 19.777344 20.023438 20.507812 19.125 20.507812 C 18.226562 20.507812 17.496094 19.777344 17.496094 18.878906 C 17.496094 17.984375 18.226562 17.253906 19.125 17.253906 C 20.023438 17.253906 20.75 17.984375 20.75 18.878906 Z M 20.75 18.878906 "/>
<path fill-rule="nonzero" fill="rgb(100%, 100%, 100%)" fill-opacity="1" d="M 12.035156 15.84375 C 12.035156 16.742188 11.308594 17.46875 10.410156 17.46875 C 9.511719 17.46875 8.78125 16.742188 8.78125 15.84375 C 8.78125 14.945312 9.511719 14.21875 10.410156 14.21875 C 11.308594 14.21875 12.035156 14.945312 12.035156 15.84375 Z M 12.035156 15.84375 "/>
<path fill-rule="nonzero" fill="rgb(100%, 100%, 100%)" fill-opacity="1" d="M 15.53125 15.84375 C 15.53125 16.742188 14.800781 17.46875 13.902344 17.46875 C 13.003906 17.46875 12.277344 16.742188 12.277344 15.84375 C 12.277344 14.945312 13.003906 14.21875 13.902344 14.21875 C 14.800781 14.21875 15.53125 14.945312 15.53125 15.84375 Z M 15.53125 15.84375 "/>
<path fill-rule="nonzero" fill="rgb(100%, 100%, 100%)" fill-opacity="1" d="M 19.023438 15.84375 C 19.023438 16.742188 18.296875 17.46875 17.398438 17.46875 C 16.5 17.46875 15.769531 16.742188 15.769531 15.84375 C 15.769531 14.945312 16.5 14.21875 17.398438 14.21875 C 18.296875 14.21875 19.023438 14.945312 19.023438 15.84375 Z M 19.023438 15.84375 "/>
<path fill-rule="nonzero" fill="rgb(100%, 100%, 100%)" fill-opacity="1" d="M 13.761719 12.835938 C 13.761719 13.734375 13.03125 14.460938 12.132812 14.460938 C 11.234375 14.460938 10.507812 13.734375 10.507812 12.835938 C 10.507812 11.9375 11.234375 11.210938 12.132812 11.210938 C 13.03125 11.210938 13.761719 11.9375 13.761719 12.835938 Z M 13.761719 12.835938 "/>
<path fill-rule="nonzero" fill="rgb(100%, 100%, 100%)" fill-opacity="1" d="M 17.253906 12.835938 C 17.253906 13.734375 16.527344 14.460938 15.628906 14.460938 C 14.730469 14.460938 14 13.734375 14 12.835938 C 14 11.9375 14.730469 11.210938 15.628906 11.210938 C 16.527344 11.210938 17.253906 11.9375 17.253906 12.835938 Z M 17.253906 12.835938 "/>
<path fill-rule="nonzero" fill="rgb(100%, 100%, 100%)" fill-opacity="1" d="M 15.53125 9.878906 C 15.53125 10.777344 14.800781 11.503906 13.902344 11.503906 C 13.003906 11.503906 12.277344 10.777344 12.277344 9.878906 C 12.277344 8.980469 13.003906 8.253906 13.902344 8.253906 C 14.800781 8.253906 15.53125 8.980469 15.53125 9.878906 Z M 15.53125 9.878906 "/>
<path fill="none" stroke-width="15.759854" stroke-linecap="butt" stroke-linejoin="round" stroke="rgb(100%, 100%, 100%)" stroke-opacity="1" stroke-miterlimit="4" d="M 405.385045 294.448661 L 460.488281 390.333147 C 466.799665 400.771205 471.978237 409.429129 478.532366 420.919085 C 491.72154 443.737165 483.872768 472.947545 461.054688 486.136719 C 449.645647 492.690848 437.022879 493.014509 424.804688 493.014509 L 318.886719 491.558036 L 174.857701 491.881696 C 162.639509 492.043527 154.305246 491.15346 141.116071 491.15346 C 114.737723 491.15346 91.272321 467.607143 91.272321 441.228795 C 91.272321 428.120536 98.959263 418.006138 105.270647 407.487165 L 174.048549 296.066964 L 230.93192 191.443638 C 237.000558 180.762835 240.075335 172.914062 246.629464 161.505022 C 259.818638 138.606027 289.029018 130.83817 311.928013 143.946429 C 323.337054 150.581473 330.053013 162.395089 336.121652 172.994978 Z M 405.385045 294.448661 " transform="matrix(0.0482759, 0, 0, 0.0482759, 0, 0.675862)"/>
<path fill-rule="nonzero" fill="rgb(100%, 100%, 100%)" fill-opacity="1" d="M 15.433594 4.359375 C 15.433594 5.257812 14.707031 5.984375 13.808594 5.984375 C 12.910156 5.984375 12.179688 5.257812 12.179688 4.359375 C 12.179688 3.460938 12.910156 2.730469 13.808594 2.730469 C 14.707031 2.730469 15.433594 3.460938 15.433594 4.359375 Z M 15.433594 4.359375 "/>
</svg>
