<?xml version="1.0" encoding="UTF-8"?>
<svg xmlns="http://www.w3.org/2000/svg" xmlns:xlink="http://www.w3.org/1999/xlink" width="28" height="28" viewBox="0 0 28 28">
<defs>
<filter id="filter-remove-color" x="0%" y="0%" width="100%" height="100%">
<feColorMatrix color-interpolation-filters="sRGB" values="0 0 0 0 1 0 0 0 0 1 0 0 0 0 1 0 0 0 1 0" />
</filter>
<mask id="mask-0">
<g filter="url(#filter-remove-color)">
<rect x="-2.8" y="-2.8" width="33.6" height="33.6" fill="rgb(0%, 0%, 0%)" fill-opacity="0.5"/>
</g>
</mask>
<clipPath id="clip-0">
<rect x="0" y="0" width="28" height="28"/>
</clipPath>
<g id="source-12" clip-path="url(#clip-0)">
<path fill-rule="nonzero" fill="rgb(100%, 100%, 100%)" fill-opacity="1" stroke-width="10" stroke-linecap="round" stroke-linejoin="round" stroke="rgb(100%, 100%, 100%)" stroke-opacity="1" stroke-miterlimit="4" d="M 454.905134 189.907924 L 438.722098 187.642299 L 406.598772 257.472098 L 407.165179 258.44308 Z M 356.269531 171.621094 L 343.404018 170.407366 L 338.468192 248.976004 L 340.167411 249.946987 Z M 138.445871 189.907924 L 154.628906 187.642299 L 186.752232 257.472098 L 186.185826 258.44308 Z M 237.081473 171.621094 L 250.027902 170.407366 L 254.963728 248.976004 L 253.183594 249.946987 Z M 296.392299 248.005022 C 238.214286 248.733259 179.631696 254.154576 123.719308 270.337612 C 189.665179 286.601562 258.362165 289.757254 326.08817 287.81529 C 375.527344 285.873326 425.290179 281.018415 472.949219 267.586496 C 415.580357 252.455357 355.703125 247.762277 296.392299 248.005022 Z M 296.392299 248.005022 " transform="matrix(0.0482759, 0, 0, 0.0482759, 0, 0)"/>
</g>
</defs>
<path fill-rule="nonzero" fill="rgb(6.666667%, 6.666667%, 6.666667%)" fill-opacity="1" stroke-width="3.408" stroke-linecap="butt" stroke-linejoin="miter" stroke="rgb(93.333333%, 93.333333%, 93.333333%)" stroke-opacity="1" stroke-miterlimit="4" d="M 66.269531 1.780134 C 24.921875 1.780134 1.699219 23.141741 1.699219 66.835938 L 1.699219 516.967076 C 1.699219 557.748326 22.575335 579.190848 63.922991 579.190848 L 515.915179 579.190848 C 557.262835 579.190848 578.138951 558.881138 578.138951 516.967076 L 578.138951 66.835938 C 578.138951 24.193638 557.262835 1.780134 514.620536 1.780134 C 514.620536 1.780134 66.107701 1.618304 66.269531 1.780134 Z M 66.269531 1.780134 " transform="matrix(0.0482759, 0, 0, 0.0482759, 0, 0)"/>
<path fill-rule="nonzero" fill="rgb(100%, 100%, 100%)" fill-opacity="1" d="M 24.871094 18.203125 C 23.867188 19.957031 19.453125 21.277344 14.15625 21.277344 C 8.867188 21.277344 4.453125 19.957031 3.445312 18.203125 C 3.367188 18.398438 3.320312 18.609375 3.320312 18.835938 C 3.320312 19.589844 3.820312 20.171875 4.433594 20.59375 C 5.050781 21.015625 5.847656 21.347656 6.808594 21.628906 C 8.734375 22.1875 11.3125 22.519531 14.15625 22.519531 C 17.003906 22.519531 19.582031 22.1875 21.503906 21.628906 C 22.464844 21.347656 23.265625 21.015625 23.878906 20.59375 C 24.496094 20.171875 24.996094 19.589844 24.996094 18.835938 C 24.996094 18.609375 24.949219 18.398438 24.871094 18.203125 Z M 24.871094 18.203125 "/>
<path fill-rule="nonzero" fill="rgb(100%, 100%, 100%)" fill-opacity="1" stroke-width="27.495024" stroke-linecap="round" stroke-linejoin="round" stroke="rgb(100%, 100%, 100%)" stroke-opacity="1" stroke-miterlimit="4" d="M 52.999442 235.625 L 80.915179 398.669085 " transform="matrix(0.0482759, 0, 0, 0.0482759, 0, 0)"/>
<path fill-rule="nonzero" fill="rgb(100%, 100%, 100%)" fill-opacity="1" stroke-width="27.495024" stroke-linecap="round" stroke-linejoin="round" stroke="rgb(100%, 100%, 100%)" stroke-opacity="1" stroke-miterlimit="4" d="M 534.84933 235.625 L 504.910714 398.669085 " transform="matrix(0.0482759, 0, 0, 0.0482759, 0, 0)"/>
<path fill-rule="nonzero" fill="rgb(100%, 100%, 100%)" fill-opacity="1" stroke-width="1.833002" stroke-linecap="butt" stroke-linejoin="miter" stroke="rgb(100%, 100%, 100%)" stroke-opacity="1" stroke-miterlimit="4" d="M 380.139509 401.662946 L 380.139509 471.25 C 380.139509 478.936942 370.186942 485.167411 357.80692 485.167411 L 238.457031 485.167411 C 226.077009 485.167411 216.124442 478.936942 216.124442 471.25 L 216.124442 401.662946 C 231.174665 326.08817 380.78683 336.607143 380.139509 401.662946 Z M 380.139509 401.662946 " transform="matrix(0.0482759, 0, 0, 0.0482759, 0, 0)"/>
<path fill-rule="nonzero" fill="rgb(100%, 100%, 100%)" fill-opacity="1" d="M 14.15625 7.300781 C 10.886719 7.300781 7.929688 7.667969 5.71875 8.292969 C 4.613281 8.605469 3.699219 8.972656 2.992188 9.445312 C 2.289062 9.914062 1.710938 10.5625 1.710938 11.402344 C 1.710938 12.246094 2.289062 12.894531 2.992188 13.363281 C 3.699219 13.835938 4.613281 14.203125 5.71875 14.515625 C 7.929688 15.140625 10.886719 15.511719 14.15625 15.511719 C 17.425781 15.511719 20.386719 15.140625 22.59375 14.515625 C 23.699219 14.203125 24.621094 13.835938 25.324219 13.363281 C 26.03125 12.894531 26.605469 12.246094 26.605469 11.402344 C 26.605469 10.5625 26.03125 9.914062 25.324219 9.445312 C 24.621094 8.972656 23.699219 8.605469 22.59375 8.292969 C 20.386719 7.667969 17.425781 7.300781 14.15625 7.300781 Z M 14.15625 8.953125 C 17.296875 8.953125 20.140625 9.320312 22.132812 9.882812 C 23.128906 10.164062 23.90625 10.5 24.378906 10.8125 C 24.847656 11.128906 24.921875 11.339844 24.921875 11.402344 C 24.921875 11.46875 24.847656 11.683594 24.378906 11.996094 C 23.90625 12.308594 23.128906 12.644531 22.132812 12.925781 C 20.140625 13.488281 17.296875 13.855469 14.15625 13.855469 C 11.019531 13.855469 8.175781 13.488281 6.183594 12.925781 C 5.191406 12.644531 4.40625 12.308594 3.9375 11.996094 C 3.46875 11.683594 3.394531 11.46875 3.394531 11.402344 C 3.394531 11.339844 3.46875 11.128906 3.9375 10.8125 C 4.40625 10.5 5.191406 10.164062 6.183594 9.882812 C 8.175781 9.320312 11.019531 8.953125 14.15625 8.953125 Z M 14.15625 8.953125 "/>
<g mask="url(#mask-0)">
<use xlink:href="#source-12"/>
</g>
</svg>
