<?xml version="1.0" encoding="UTF-8"?>
<svg xmlns="http://www.w3.org/2000/svg" xmlns:xlink="http://www.w3.org/1999/xlink" width="28" height="28" viewBox="0 0 28 28">
<path fill-rule="nonzero" fill="rgb(6.666667%, 6.666667%, 6.666667%)" fill-opacity="1" stroke-width="3.408" stroke-linecap="butt" stroke-linejoin="miter" stroke="rgb(93.333333%, 93.333333%, 93.333333%)" stroke-opacity="1" stroke-miterlimit="4" d="M 66.269531 1.780134 C 24.921875 1.780134 1.699219 23.141741 1.699219 66.835938 L 1.699219 516.967076 C 1.699219 557.748326 22.575335 579.190848 63.922991 579.190848 L 515.915179 579.190848 C 557.262835 579.190848 578.138951 558.881138 578.138951 516.967076 L 578.138951 66.835938 C 578.138951 24.193638 557.262835 1.780134 514.620536 1.780134 C 514.620536 1.780134 66.107701 1.618304 66.269531 1.780134 Z M 66.269531 1.780134 " transform="matrix(0.0482759, 0, 0, 0.0482759, 0, 0)"/>
<path fill-rule="evenodd" fill="rgb(100%, 100%, 100%)" fill-opacity="1" d="M 25.136719 16.339844 C 24.9375 16.398438 24.683594 16.386719 24.351562 16.316406 C 24.011719 16.238281 23.707031 15.878906 23.144531 15.898438 C 22.566406 15.921875 21.753906 16.4375 20.964844 16.4375 C 20.167969 16.417969 19.273438 15.878906 18.460938 15.878906 C 17.648438 15.882812 16.910156 16.445312 16.132812 16.460938 C 15.34375 16.464844 14.554688 15.9375 13.777344 15.925781 C 12.992188 15.90625 12.246094 16.394531 11.511719 16.386719 C 10.789062 16.375 10.144531 15.855469 9.429688 15.878906 C 8.691406 15.90625 7.882812 16.476562 7.164062 16.511719 C 6.4375 16.523438 5.777344 15.980469 5.136719 15.972656 C 4.488281 15.964844 3.761719 16.371094 3.324219 16.460938 C 2.890625 16.542969 2.613281 16.554688 2.507812 16.488281 L 2.507812 18 C 2.613281 18.0625 2.890625 18.054688 3.324219 17.972656 C 3.761719 17.882812 4.488281 17.472656 5.136719 17.484375 C 5.777344 17.492188 6.4375 18.03125 7.164062 18.023438 C 7.882812 17.992188 8.691406 17.410156 9.429688 17.386719 C 10.144531 17.359375 10.789062 17.890625 11.511719 17.902344 C 12.246094 17.90625 12.992188 17.421875 13.777344 17.4375 C 14.554688 17.449219 15.34375 17.976562 16.132812 17.972656 C 16.910156 17.957031 17.648438 17.394531 18.460938 17.386719 C 19.273438 17.386719 20.167969 17.9375 20.964844 17.949219 C 21.753906 17.949219 22.566406 17.433594 23.144531 17.414062 C 23.707031 17.386719 24.011719 17.753906 24.351562 17.828125 C 24.683594 17.898438 24.9375 17.910156 25.136719 17.851562 Z M 25.136719 16.339844 "/>
<path fill-rule="evenodd" fill="rgb(100%, 100%, 100%)" fill-opacity="1" d="M 12.195312 15.535156 L 18.445312 12.203125 C 17.953125 11.125 17.605469 10.3125 17.402344 9.734375 C 17.195312 9.15625 17.109375 9.027344 17.226562 8.753906 C 17.347656 8.472656 17.179688 8.429688 18.09375 8.054688 C 19.007812 7.667969 21.746094 6.558594 22.636719 6.503906 C 23.511719 6.457031 23.476562 7.421875 23.332031 7.746094 C 23.171875 8.0625 22.359375 8.140625 21.742188 8.394531 C 21.117188 8.632812 20.429688 8.902344 19.632812 9.195312 L 22.492188 15.488281 C 22.125 15.804688 21.636719 15.925781 20.976562 15.878906 C 20.304688 15.8125 19.40625 15.171875 18.570312 15.171875 C 17.738281 15.171875 16.789062 15.886719 16.027344 15.898438 C 15.261719 15.898438 14.65625 15.28125 14.019531 15.21875 C 13.375 15.15625 12.773438 15.261719 12.195312 15.535156 Z M 12.195312 15.535156 "/>
<path fill-rule="evenodd" fill="rgb(100%, 100%, 100%)" fill-opacity="1" d="M 23.421875 10.09375 C 24.382812 10.09375 25.164062 10.910156 25.164062 11.914062 C 25.164062 12.921875 24.382812 13.738281 23.421875 13.738281 C 22.457031 13.738281 21.675781 12.921875 21.675781 11.914062 C 21.675781 10.910156 22.457031 10.09375 23.421875 10.09375 "/>
<path fill-rule="evenodd" fill="rgb(100%, 100%, 100%)" fill-opacity="1" d="M 7.980469 15.65625 C 7.242188 15.519531 6.488281 15.308594 5.667969 15.023438 C 4.84375 14.722656 3.4375 14.316406 3.105469 13.921875 C 2.773438 13.515625 3.015625 12.699219 3.6875 12.660156 C 4.359375 12.625 5.699219 13.222656 7.089844 13.71875 C 8.46875 14.210938 10.050781 14.824219 11.914062 15.589844 C 11.6875 15.714844 11.382812 15.753906 10.996094 15.699219 C 10.601562 15.632812 10.105469 15.269531 9.601562 15.257812 C 9.09375 15.25 8.558594 15.386719 7.980469 15.65625 Z M 7.980469 15.65625 "/>
<path fill-rule="evenodd" fill="rgb(100%, 100%, 100%)" fill-opacity="1" d="M 25.136719 18.867188 C 24.9375 18.921875 24.683594 18.914062 24.351562 18.84375 C 24.011719 18.769531 23.707031 18.402344 23.144531 18.429688 C 22.566406 18.449219 21.753906 18.964844 20.964844 18.964844 C 20.167969 18.949219 19.273438 18.40625 18.460938 18.40625 C 17.648438 18.414062 16.910156 18.972656 16.132812 18.992188 C 15.34375 18.992188 14.554688 18.464844 13.777344 18.453125 C 12.992188 18.433594 12.246094 18.921875 11.511719 18.917969 C 10.789062 18.902344 10.144531 18.382812 9.429688 18.40625 C 8.691406 18.433594 7.882812 19.003906 7.164062 19.039062 C 6.4375 19.050781 5.777344 18.507812 5.136719 18.503906 C 4.488281 18.492188 3.761719 18.898438 3.324219 18.992188 C 2.890625 19.078125 2.613281 19.078125 2.507812 19.015625 L 2.507812 20.523438 C 2.613281 20.585938 2.890625 20.589844 3.324219 20.503906 C 3.761719 20.410156 4.488281 20.003906 5.136719 20.015625 C 5.777344 20.019531 6.4375 20.5625 7.164062 20.550781 C 7.882812 20.515625 8.691406 19.945312 9.429688 19.917969 C 10.144531 19.894531 10.789062 20.414062 11.511719 20.429688 C 12.246094 20.433594 12.992188 19.945312 13.777344 19.964844 C 14.554688 19.976562 15.34375 20.503906 16.132812 20.503906 C 16.910156 20.484375 17.648438 19.921875 18.460938 19.917969 C 19.273438 19.917969 20.167969 20.460938 20.964844 20.476562 C 21.753906 20.476562 22.566406 19.960938 23.144531 19.941406 C 23.707031 19.921875 24.011719 20.28125 24.351562 20.355469 C 24.683594 20.429688 24.9375 20.441406 25.136719 20.378906 Z M 25.136719 18.867188 "/>
<path fill-rule="evenodd" fill="rgb(100%, 100%, 100%)" fill-opacity="1" d="M 25.054688 21.347656 C 24.859375 21.402344 24.605469 21.394531 24.269531 21.324219 C 23.933594 21.25 23.625 20.882812 23.0625 20.910156 C 22.484375 20.929688 21.671875 21.445312 20.886719 21.445312 C 20.089844 21.429688 19.191406 20.886719 18.378906 20.886719 C 17.566406 20.890625 16.832031 21.453125 16.050781 21.472656 C 15.261719 21.472656 14.472656 20.945312 13.695312 20.933594 C 12.910156 20.914062 12.164062 21.402344 11.429688 21.398438 C 10.707031 21.382812 10.066406 20.863281 9.347656 20.886719 C 8.609375 20.914062 7.800781 21.484375 7.082031 21.519531 C 6.355469 21.53125 5.695312 20.988281 5.054688 20.984375 C 4.40625 20.972656 3.683594 21.378906 3.246094 21.472656 C 2.808594 21.558594 2.53125 21.558594 2.429688 21.492188 L 2.429688 23.003906 C 2.53125 23.066406 2.808594 23.070312 3.246094 22.980469 C 3.683594 22.890625 4.40625 22.484375 5.054688 22.496094 C 5.695312 22.5 6.355469 23.042969 7.082031 23.03125 C 7.800781 22.996094 8.609375 22.425781 9.347656 22.398438 C 10.066406 22.375 10.707031 22.894531 11.429688 22.910156 C 12.164062 22.914062 12.910156 22.425781 13.695312 22.445312 C 14.472656 22.457031 15.261719 22.984375 16.050781 22.980469 C 16.832031 22.964844 17.566406 22.402344 18.378906 22.398438 C 19.191406 22.398438 20.089844 22.941406 20.886719 22.957031 C 21.671875 22.957031 22.484375 22.441406 23.0625 22.421875 C 23.625 22.402344 23.933594 22.761719 24.269531 22.835938 C 24.605469 22.910156 24.859375 22.917969 25.054688 22.859375 Z M 25.054688 21.347656 "/>
</svg>
