<?xml version="1.0" encoding="UTF-8"?>
<svg xmlns="http://www.w3.org/2000/svg" xmlns:xlink="http://www.w3.org/1999/xlink" width="28" height="28" viewBox="0 0 28 28">
<path fill-rule="nonzero" fill="rgb(6.666667%, 6.666667%, 6.666667%)" fill-opacity="1" stroke-width="3.408" stroke-linecap="butt" stroke-linejoin="miter" stroke="rgb(93.333333%, 93.333333%, 93.333333%)" stroke-opacity="1" stroke-miterlimit="4" d="M 66.269531 1.780134 C 24.921875 1.780134 1.699219 23.141741 1.699219 66.835938 L 1.699219 516.967076 C 1.699219 557.748326 22.575335 579.190848 63.922991 579.190848 L 515.915179 579.190848 C 557.262835 579.190848 578.138951 558.881138 578.138951 516.967076 L 578.138951 66.835938 C 578.138951 24.193638 557.262835 1.780134 514.620536 1.780134 C 514.620536 1.780134 66.107701 1.618304 66.269531 1.780134 Z M 66.269531 1.780134 " transform="matrix(0.0482759, 0, 0, 0.0482759, 0, 0)"/>
<path fill="none" stroke-width="32.78994" stroke-linecap="butt" stroke-linejoin="miter" stroke="rgb(100%, 100%, 100%)" stroke-opacity="1" stroke-miterlimit="4" d="M 544.720982 158.351004 C 544.720982 160.94029 542.779018 162.154018 540.513393 160.94029 L 301.328125 82.695312 C 299.0625 81.5625 295.178571 81.481585 292.832031 82.614397 L 40.78125 157.784598 C 38.43471 158.917411 36.492746 157.703683 36.492746 155.033482 L 36.492746 133.914621 C 36.492746 131.325335 38.43471 128.331473 40.78125 127.198661 L 292.832031 51.947545 C 295.178571 50.895647 299.0625 50.895647 301.328125 52.109375 L 540.513393 130.354353 C 542.779018 131.487165 544.720982 134.642857 544.720982 137.232143 Z M 544.720982 158.351004 " transform="matrix(0.0482759, 0, 0, 0.0482759, 0, 0)"/>
<path fill-rule="evenodd" fill="rgb(100%, 100%, 100%)" fill-opacity="1" d="M 25.136719 20.203125 C 24.9375 20.261719 24.683594 20.25 24.351562 20.179688 C 24.011719 20.101562 23.707031 19.742188 23.144531 19.761719 C 22.566406 19.78125 21.753906 20.296875 20.964844 20.296875 C 20.167969 20.28125 19.273438 19.738281 18.460938 19.738281 C 17.648438 19.746094 16.910156 20.308594 16.132812 20.324219 C 15.34375 20.328125 14.554688 19.800781 13.777344 19.789062 C 12.992188 19.769531 12.246094 20.253906 11.511719 20.25 C 10.789062 20.234375 10.144531 19.714844 9.429688 19.738281 C 8.691406 19.769531 7.882812 20.339844 7.164062 20.371094 C 6.4375 20.382812 5.777344 19.84375 5.136719 19.835938 C 4.488281 19.824219 3.761719 20.234375 3.324219 20.324219 C 2.890625 20.40625 2.613281 20.414062 2.507812 20.351562 L 2.507812 21.859375 C 2.613281 21.925781 2.890625 21.917969 3.324219 21.835938 C 3.761719 21.742188 4.488281 21.335938 5.136719 21.347656 C 5.777344 21.351562 6.4375 21.894531 7.164062 21.882812 C 7.882812 21.855469 8.691406 21.269531 9.429688 21.25 C 10.144531 21.222656 10.789062 21.753906 11.511719 21.765625 C 12.246094 21.769531 12.992188 21.285156 13.777344 21.300781 C 14.554688 21.308594 15.34375 21.839844 16.132812 21.835938 C 16.910156 21.816406 17.648438 21.257812 18.460938 21.25 C 19.273438 21.246094 20.167969 21.796875 20.964844 21.8125 C 21.753906 21.8125 22.566406 21.296875 23.144531 21.277344 C 23.707031 21.25 24.011719 21.617188 24.351562 21.691406 C 24.683594 21.761719 24.9375 21.773438 25.136719 21.710938 Z M 25.136719 20.203125 "/>
<path fill-rule="evenodd" fill="rgb(100%, 100%, 100%)" fill-opacity="1" d="M 12.195312 19.398438 L 18.445312 16.0625 C 17.953125 14.988281 17.605469 14.175781 17.402344 13.59375 C 17.195312 13.019531 17.109375 12.890625 17.226562 12.617188 C 17.347656 12.335938 17.179688 12.292969 18.09375 11.917969 C 19.007812 11.53125 21.746094 10.417969 22.636719 10.363281 C 23.511719 10.320312 23.476562 11.28125 23.332031 11.609375 C 23.171875 11.925781 22.359375 12.003906 21.742188 12.253906 C 21.117188 12.496094 20.429688 12.761719 19.632812 13.058594 L 22.492188 19.347656 C 22.125 19.664062 21.636719 19.789062 20.976562 19.738281 C 20.304688 19.675781 19.40625 19.035156 18.570312 19.03125 C 17.738281 19.035156 16.789062 19.75 16.027344 19.761719 C 15.261719 19.757812 14.65625 19.144531 14.019531 19.082031 C 13.375 19.019531 12.773438 19.125 12.195312 19.398438 Z M 12.195312 19.398438 "/>
<path fill-rule="evenodd" fill="rgb(100%, 100%, 100%)" fill-opacity="1" d="M 23.421875 13.953125 C 24.382812 13.953125 25.164062 14.769531 25.164062 15.777344 C 25.164062 16.78125 24.382812 17.597656 23.421875 17.597656 C 22.457031 17.597656 21.675781 16.78125 21.675781 15.777344 C 21.675781 14.769531 22.457031 13.953125 23.421875 13.953125 "/>
<path fill-rule="evenodd" fill="rgb(100%, 100%, 100%)" fill-opacity="1" d="M 7.980469 19.519531 C 7.242188 19.382812 6.488281 19.171875 5.667969 18.886719 C 4.84375 18.585938 3.4375 18.179688 3.105469 17.785156 C 2.773438 17.375 3.015625 16.558594 3.6875 16.523438 C 4.359375 16.488281 5.699219 17.085938 7.089844 17.582031 C 8.46875 18.070312 10.050781 18.683594 11.914062 19.453125 C 11.6875 19.578125 11.382812 19.617188 10.996094 19.558594 C 10.601562 19.496094 10.105469 19.132812 9.601562 19.121094 C 9.09375 19.113281 8.558594 19.25 7.980469 19.519531 Z M 7.980469 19.519531 "/>
<path fill-rule="evenodd" fill="rgb(100%, 100%, 100%)" fill-opacity="1" d="M 25.136719 22.730469 C 24.9375 22.785156 24.683594 22.777344 24.351562 22.703125 C 24.011719 22.628906 23.707031 22.265625 23.144531 22.292969 C 22.566406 22.3125 21.753906 22.828125 20.964844 22.828125 C 20.167969 22.808594 19.273438 22.269531 18.460938 22.269531 C 17.648438 22.273438 16.910156 22.835938 16.132812 22.851562 C 15.34375 22.855469 14.554688 22.328125 13.777344 22.316406 C 12.992188 22.296875 12.246094 22.785156 11.511719 22.777344 C 10.789062 22.765625 10.144531 22.246094 9.429688 22.269531 C 8.691406 22.296875 7.882812 22.867188 7.164062 22.902344 C 6.4375 22.914062 5.777344 22.371094 5.136719 22.367188 C 4.488281 22.355469 3.761719 22.761719 3.324219 22.851562 C 2.890625 22.941406 2.613281 22.9375 2.507812 22.875 L 2.507812 24.386719 C 2.613281 24.449219 2.890625 24.453125 3.324219 24.363281 C 3.761719 24.273438 4.488281 23.867188 5.136719 23.875 C 5.777344 23.882812 6.4375 24.425781 7.164062 24.414062 C 7.882812 24.378906 8.691406 23.808594 9.429688 23.78125 C 10.144531 23.757812 10.789062 24.277344 11.511719 24.289062 C 12.246094 24.296875 12.992188 23.808594 13.777344 23.828125 C 14.554688 23.839844 15.34375 24.367188 16.132812 24.363281 C 16.910156 24.347656 17.648438 23.785156 18.460938 23.78125 C 19.273438 23.78125 20.167969 24.320312 20.964844 24.339844 C 21.753906 24.339844 22.566406 23.824219 23.144531 23.800781 C 23.707031 23.78125 24.011719 24.140625 24.351562 24.21875 C 24.683594 24.289062 24.9375 24.300781 25.136719 24.242188 Z M 25.136719 22.730469 "/>
</svg>
