<?xml version="1.0" encoding="UTF-8"?>
<svg xmlns="http://www.w3.org/2000/svg" xmlns:xlink="http://www.w3.org/1999/xlink" width="28" height="28" viewBox="0 0 28 28">
<path fill-rule="nonzero" fill="rgb(6.666667%, 6.666667%, 6.666667%)" fill-opacity="1" stroke-width="3.408" stroke-linecap="butt" stroke-linejoin="miter" stroke="rgb(93.333333%, 93.333333%, 93.333333%)" stroke-opacity="1" stroke-miterlimit="4" d="M 66.269531 1.780134 C 24.921875 1.780134 1.699219 23.141741 1.699219 66.835938 L 1.699219 516.967076 C 1.699219 557.748326 22.575335 579.190848 63.922991 579.190848 L 515.915179 579.190848 C 557.262835 579.190848 578.138951 558.881138 578.138951 516.967076 L 578.138951 66.835938 C 578.138951 24.193638 557.262835 1.780134 514.620536 1.780134 C 514.620536 1.780134 66.107701 1.618304 66.269531 1.780134 Z M 66.269531 1.780134 " transform="matrix(0.0482759, 0, 0, 0.0482759, 0, 0)"/>
<path fill-rule="nonzero" fill="rgb(100%, 100%, 100%)" fill-opacity="1" d="M 10.722656 19.210938 C 10.722656 20.558594 9.632812 21.652344 8.285156 21.652344 C 6.9375 21.652344 5.84375 20.558594 5.84375 19.210938 C 5.84375 17.863281 6.9375 16.769531 8.285156 16.769531 C 9.632812 16.769531 10.722656 17.863281 10.722656 19.210938 Z M 10.722656 19.210938 "/>
<path fill-rule="nonzero" fill="rgb(100%, 100%, 100%)" fill-opacity="1" d="M 13.765625 5.027344 C 11.179688 2.445312 7.589844 1.914062 5.402344 4.035156 C 3.015625 6.347656 3.808594 9.816406 6.390625 12.398438 C 8.414062 14.421875 10.828125 15.453125 13.007812 14.578125 C 13.90625 14.882812 15.425781 15.511719 16.898438 16.601562 C 16.847656 16.832031 16.914062 17.085938 17.09375 17.265625 L 21.460938 21.632812 C 21.746094 21.917969 22.203125 21.917969 22.484375 21.632812 L 22.996094 21.121094 C 23.28125 20.839844 23.28125 20.378906 22.996094 20.097656 L 18.628906 15.726562 C 18.449219 15.546875 18.199219 15.484375 17.964844 15.53125 C 16.871094 14.058594 16.242188 12.53125 15.9375 11.632812 C 16.789062 9.464844 15.777344 7.042969 13.765625 5.027344 Z M 16.605469 15.242188 C 15.648438 14.71875 14.738281 14.296875 13.933594 13.964844 C 14.179688 13.761719 14.425781 13.542969 14.664062 13.300781 C 14.90625 13.0625 15.125 12.816406 15.332031 12.570312 C 15.664062 13.375 16.082031 14.285156 16.605469 15.242188 Z M 16.605469 15.242188 "/>
</svg>
