<?xml version="1.0" encoding="UTF-8"?>
<svg xmlns="http://www.w3.org/2000/svg" xmlns:xlink="http://www.w3.org/1999/xlink" width="28" height="28" viewBox="0 0 28 28">
<path fill-rule="nonzero" fill="rgb(6.666667%, 6.666667%, 6.666667%)" fill-opacity="1" stroke-width="3.408" stroke-linecap="butt" stroke-linejoin="miter" stroke="rgb(93.333333%, 93.333333%, 93.333333%)" stroke-opacity="1" stroke-miterlimit="4" d="M 66.269531 1.780134 C 24.921875 1.780134 1.699219 23.141741 1.699219 66.835938 L 1.699219 516.967076 C 1.699219 557.748326 22.575335 579.190848 63.922991 579.190848 L 515.915179 579.190848 C 557.262835 579.190848 578.138951 558.881138 578.138951 516.967076 L 578.138951 66.835938 C 578.138951 24.193638 557.262835 1.780134 514.620536 1.780134 C 514.620536 1.780134 66.107701 1.618304 66.269531 1.780134 Z M 66.269531 1.780134 " transform="matrix(0.0482759, 0, 0, 0.0482759, 0, 0)"/>
<path fill-rule="nonzero" fill="rgb(100%, 100%, 100%)" fill-opacity="1" d="M 26.023438 26.226562 C 25.519531 26.226562 25.035156 26.113281 24.601562 25.917969 C 24.160156 25.710938 23.660156 25.59375 23.140625 25.59375 C 22.621094 25.59375 22.117188 25.710938 21.675781 25.917969 C 21.246094 26.113281 20.757812 26.226562 20.257812 26.226562 C 19.753906 26.226562 19.265625 26.113281 18.835938 25.917969 C 18.394531 25.710938 17.894531 25.59375 17.371094 25.59375 C 16.851562 25.59375 16.351562 25.710938 15.90625 25.917969 C 15.476562 26.113281 14.988281 26.226562 14.484375 26.226562 C 13.980469 26.226562 13.496094 26.113281 13.066406 25.917969 C 12.621094 25.710938 12.125 25.59375 11.601562 25.59375 C 11.082031 25.59375 10.582031 25.710938 10.140625 25.917969 C 9.707031 26.113281 9.222656 26.226562 8.71875 26.226562 C 8.214844 26.226562 7.730469 26.113281 7.296875 25.917969 C 6.855469 25.710938 6.355469 25.59375 5.832031 25.59375 C 5.308594 25.59375 4.8125 25.710938 4.371094 25.917969 C 3.9375 26.113281 3.453125 26.226562 2.949219 26.226562 L 2.949219 24.09375 C 3.457031 24.09375 3.9375 23.980469 4.371094 23.785156 C 4.8125 23.585938 5.308594 23.464844 5.832031 23.464844 C 6.355469 23.464844 6.855469 23.585938 7.296875 23.785156 C 7.730469 23.980469 8.214844 24.09375 8.71875 24.09375 C 9.222656 24.09375 9.707031 23.980469 10.140625 23.785156 C 10.582031 23.585938 11.082031 23.464844 11.601562 23.464844 C 12.125 23.464844 12.621094 23.585938 13.066406 23.785156 C 13.496094 23.980469 13.984375 24.09375 14.484375 24.09375 C 14.992188 24.09375 15.476562 23.980469 15.90625 23.785156 C 16.351562 23.585938 16.851562 23.464844 17.371094 23.464844 C 17.894531 23.464844 18.394531 23.585938 18.835938 23.785156 C 19.265625 23.980469 19.753906 24.09375 20.257812 24.09375 C 20.757812 24.09375 21.246094 23.980469 21.675781 23.785156 C 22.117188 23.585938 22.621094 23.464844 23.140625 23.464844 C 23.660156 23.464844 24.160156 23.585938 24.601562 23.785156 C 25.035156 23.980469 25.523438 24.09375 26.023438 24.09375 Z M 26.023438 26.226562 "/>
<path fill-rule="nonzero" fill="rgb(100%, 100%, 100%)" fill-opacity="1" d="M 11.5625 20.234375 L 7.5625 20.234375 C 6.976562 20.234375 6.464844 19.882812 6.234375 19.378906 L 4.753906 16.003906 C 4.722656 15.890625 4.710938 15.773438 4.710938 15.65625 C 4.710938 14.84375 5.367188 14.1875 6.171875 14.1875 L 9.421875 14.183594 L 11.652344 13.171875 C 11.6875 13.148438 11.777344 13.125 11.875 13.125 C 12.257812 13.125 12.570312 13.4375 12.570312 13.816406 C 12.570312 14.054688 12.449219 14.265625 12.269531 14.390625 L 9.84375 15.484375 C 9.683594 15.609375 9.378906 15.628906 9.378906 15.628906 L 7.921875 15.628906 L 9.144531 18.347656 L 11.847656 18.347656 C 12.117188 18.347656 12.300781 18.4375 12.46875 18.582031 L 15.117188 21.097656 C 15.484375 21.441406 15.507812 22.023438 15.164062 22.394531 C 14.816406 22.765625 14.234375 22.789062 13.863281 22.445312 Z M 11.5625 20.234375 "/>
<path fill-rule="nonzero" fill="rgb(100%, 100%, 100%)" fill-opacity="1" d="M 24.027344 15.664062 C 24.082031 15.75 24.207031 15.785156 24.320312 15.785156 C 24.542969 15.785156 24.730469 15.597656 24.730469 15.367188 C 24.730469 15.261719 24.675781 15.164062 24.628906 15.070312 C 22.128906 10.296875 15.378906 11.71875 14.550781 12.027344 C 14.410156 12.082031 14.332031 12.234375 14.332031 12.390625 C 14.332031 12.613281 14.519531 12.800781 14.742188 12.800781 C 14.808594 12.800781 14.84375 12.792969 14.90625 12.777344 C 21.523438 11.289062 23.675781 15.058594 24.027344 15.664062 Z M 25.179688 16.09375 L 16.714844 21.429688 L 9.007812 1.746094 C 15.902344 2.664062 24.671875 8.019531 25.179688 16.09375 Z M 25.179688 16.09375 "/>
<path fill-rule="nonzero" fill="rgb(100%, 100%, 100%)" fill-opacity="1" d="M 6.8125 12.496094 C 6.8125 13.269531 6.1875 13.894531 5.417969 13.894531 C 4.644531 13.894531 4.019531 13.269531 4.019531 12.496094 C 4.019531 11.726562 4.644531 11.097656 5.417969 11.097656 C 6.1875 11.097656 6.8125 11.726562 6.8125 12.496094 Z M 6.8125 12.496094 "/>
</svg>
