<?xml version="1.0" encoding="UTF-8"?>
<svg xmlns="http://www.w3.org/2000/svg" xmlns:xlink="http://www.w3.org/1999/xlink" width="28" height="28" viewBox="0 0 28 28">
<path fill-rule="nonzero" fill="rgb(6.666667%, 6.666667%, 6.666667%)" fill-opacity="1" stroke-width="3.408" stroke-linecap="butt" stroke-linejoin="miter" stroke="rgb(93.333333%, 93.333333%, 93.333333%)" stroke-opacity="1" stroke-miterlimit="4" d="M 66.269531 1.780134 C 24.921875 1.780134 1.699219 23.141741 1.699219 66.835938 L 1.699219 516.967076 C 1.699219 557.748326 22.575335 579.190848 63.922991 579.190848 L 515.915179 579.190848 C 557.262835 579.190848 578.138951 558.881138 578.138951 516.967076 L 578.138951 66.835938 C 578.138951 24.193638 557.262835 1.780134 514.620536 1.780134 C 514.620536 1.780134 66.107701 1.618304 66.269531 1.780134 Z M 66.269531 1.780134 " transform="matrix(0.0482759, 0, 0, 0.0482759, 0, 0)"/>
<path fill-rule="evenodd" fill="rgb(100%, 100%, 100%)" fill-opacity="1" stroke-width="10.829243" stroke-linecap="round" stroke-linejoin="round" stroke="rgb(100%, 100%, 100%)" stroke-opacity="1" stroke-miterlimit="4" d="M 290.728237 56.640625 L 274.140625 495.039062 L 161.992188 495.039062 L 161.992188 519.313616 L 293.236607 519.313616 Z M 290.728237 56.640625 " transform="matrix(0.0482759, 0, 0, 0.0482759, 0, 0)"/>
<path fill-rule="evenodd" fill="rgb(100%, 100%, 100%)" fill-opacity="1" stroke-width="5.414621" stroke-linecap="round" stroke-linejoin="round" stroke="rgb(100%, 100%, 100%)" stroke-opacity="1" stroke-miterlimit="4" d="M 58.097098 137.960379 C 72.5 151.958705 108.264509 167.898996 129.464286 166.280692 C 154.143415 166.118862 179.631696 156.651786 205.929129 139.497768 C 230.284598 123.152902 258.928571 115.46596 290.080915 112.714844 L 289.433594 133.105469 C 256.258371 129.464286 233.116629 148.560268 205.929129 158.59375 C 186.104911 169.112723 167.49442 180.279018 129.464286 180.926339 C 90.220424 176.799665 72.014509 156.975446 58.097098 137.960379 Z M 58.097098 137.960379 " transform="matrix(0.0482759, 0, 0, 0.0482759, 0, 0)"/>
<path fill="none" stroke-width="10.829243" stroke-linecap="round" stroke-linejoin="round" stroke="rgb(100%, 100%, 100%)" stroke-opacity="1" stroke-miterlimit="4" d="M 37.706473 384.589844 L 121.858259 182.140067 L 204.715402 384.589844 Z M 37.706473 384.589844 " transform="matrix(0.0482759, 0, 0, 0.0482759, 0, 0)"/>
<path fill-rule="nonzero" fill="rgb(100%, 100%, 100%)" fill-opacity="1" stroke-width="10.829243" stroke-linecap="round" stroke-linejoin="round" stroke="rgb(100%, 100%, 100%)" stroke-opacity="1" stroke-miterlimit="4" d="M 35.117188 379.006696 C 40.133929 412.020089 76.788504 437.670201 121.210938 437.670201 C 165.633371 437.670201 202.287946 412.020089 207.304688 379.006696 Z M 35.117188 379.006696 " transform="matrix(0.0482759, 0, 0, 0.0482759, 0, 0)"/>
<path fill-rule="evenodd" fill="rgb(100%, 100%, 100%)" fill-opacity="1" stroke-width="10.829243" stroke-linecap="round" stroke-linejoin="round" stroke="rgb(100%, 100%, 100%)" stroke-opacity="1" stroke-miterlimit="4" d="M 291.132812 56.640625 L 307.639509 495.039062 L 419.787946 495.039062 L 419.787946 519.313616 L 288.543527 519.313616 Z M 291.132812 56.640625 " transform="matrix(0.0482759, 0, 0, 0.0482759, 0, 0)"/>
<path fill-rule="evenodd" fill="rgb(100%, 100%, 100%)" fill-opacity="1" stroke-width="5.414621" stroke-linecap="round" stroke-linejoin="round" stroke="rgb(100%, 100%, 100%)" stroke-opacity="1" stroke-miterlimit="4" d="M 523.683036 137.960379 C 509.361049 151.958705 473.59654 167.898996 452.315848 166.280692 C 427.717634 166.118862 402.148438 156.651786 375.851004 139.497768 C 351.495536 123.152902 322.851562 115.46596 291.699219 112.714844 L 292.34654 133.105469 C 325.602679 129.464286 348.663504 148.560268 375.851004 158.59375 C 395.756138 169.112723 414.285714 180.279018 452.315848 180.926339 C 491.640625 176.799665 509.765625 156.975446 523.683036 137.960379 Z M 523.683036 137.960379 " transform="matrix(0.0482759, 0, 0, 0.0482759, 0, 0)"/>
<path fill="none" stroke-width="10.829243" stroke-linecap="round" stroke-linejoin="round" stroke="rgb(100%, 100%, 100%)" stroke-opacity="1" stroke-miterlimit="4" d="M 544.073661 384.589844 L 460.00279 182.140067 L 377.145647 384.589844 Z M 544.073661 384.589844 " transform="matrix(0.0482759, 0, 0, 0.0482759, 0, 0)"/>
<path fill-rule="nonzero" fill="rgb(100%, 100%, 100%)" fill-opacity="1" stroke-width="10.829243" stroke-linecap="round" stroke-linejoin="round" stroke="rgb(100%, 100%, 100%)" stroke-opacity="1" stroke-miterlimit="4" d="M 546.662946 379.006696 C 541.727121 412.020089 505.072545 437.670201 460.569196 437.670201 C 416.146763 437.670201 379.492188 412.020089 374.556362 379.006696 Z M 546.662946 379.006696 " transform="matrix(0.0482759, 0, 0, 0.0482759, 0, 0)"/>
</svg>
