<?xml version="1.0" encoding="UTF-8"?>
<svg xmlns="http://www.w3.org/2000/svg" xmlns:xlink="http://www.w3.org/1999/xlink" width="28" height="28" viewBox="0 0 28 28">
<path fill-rule="nonzero" fill="rgb(6.666667%, 6.666667%, 6.666667%)" fill-opacity="1" stroke-width="3.408" stroke-linecap="butt" stroke-linejoin="miter" stroke="rgb(93.333333%, 93.333333%, 93.333333%)" stroke-opacity="1" stroke-miterlimit="4" d="M 66.269531 1.780134 C 24.921875 1.780134 1.699219 23.141741 1.699219 66.835938 L 1.699219 516.967076 C 1.699219 557.748326 22.575335 579.190848 63.922991 579.190848 L 515.915179 579.190848 C 557.262835 579.190848 578.138951 558.881138 578.138951 516.967076 L 578.138951 66.835938 C 578.138951 24.193638 557.262835 1.780134 514.620536 1.780134 C 514.620536 1.780134 66.107701 1.618304 66.269531 1.780134 Z M 66.269531 1.780134 " transform="matrix(0.0482759, 0, 0, 0.0482759, 0, 0)"/>
<path fill-rule="nonzero" fill="rgb(100%, 100%, 100%)" fill-opacity="1" d="M 13.996094 0.917969 C 13.335938 0.917969 12.566406 1.121094 12.015625 1.4375 C 11.941406 1.480469 11.800781 1.558594 11.703125 1.613281 C 11.609375 1.667969 11.359375 1.8125 11.152344 1.933594 C 10.578125 2.273438 10.070312 2.519531 9.679688 2.648438 C 8.910156 2.90625 8.222656 3.011719 7.375 3.003906 C 6.652344 2.996094 6.320312 3.035156 6.0625 3.164062 C 5.878906 3.257812 5.773438 3.355469 5.695312 3.511719 C 5.636719 3.632812 5.628906 3.65625 5.621094 3.832031 C 5.613281 4.035156 5.636719 4.175781 5.691406 4.28125 C 5.730469 4.351562 5.851562 4.507812 6.039062 4.726562 C 6.101562 4.796875 6.207031 4.921875 6.273438 5.003906 C 6.339844 5.082031 6.480469 5.242188 6.582031 5.359375 C 6.679688 5.472656 6.792969 5.605469 6.832031 5.652344 C 6.914062 5.75 7.257812 6.128906 7.410156 6.296875 C 7.46875 6.359375 7.621094 6.527344 7.75 6.671875 C 7.890625 6.828125 8.03125 6.988281 8.175781 7.148438 C 8.421875 6.941406 8.679688 6.746094 8.949219 6.566406 C 8.933594 6.550781 8.925781 6.539062 8.910156 6.523438 C 8.671875 6.25 8.363281 5.894531 8.226562 5.738281 C 7.902344 5.367188 7.675781 5.109375 7.566406 4.984375 C 7.519531 4.933594 7.414062 4.816406 7.339844 4.726562 C 7.261719 4.636719 7.164062 4.523438 7.121094 4.472656 C 7.074219 4.425781 7.019531 4.359375 6.996094 4.328125 C 6.972656 4.300781 6.90625 4.21875 6.84375 4.148438 C 6.75 4.039062 6.738281 4.019531 6.757812 3.996094 C 6.789062 3.96875 6.984375 3.960938 7.960938 3.949219 C 8.890625 3.9375 8.972656 3.925781 9.609375 3.714844 C 9.972656 3.597656 10.257812 3.46875 10.699219 3.230469 C 11.070312 3.03125 11.5 2.796875 11.6875 2.691406 C 12.152344 2.429688 12.644531 2.191406 12.890625 2.109375 C 13.089844 2.042969 13.4375 1.949219 13.625 1.910156 C 13.882812 1.859375 14.335938 1.855469 14.574219 1.902344 C 15.140625 2.003906 15.878906 2.292969 16.410156 2.617188 C 16.53125 2.6875 16.667969 2.769531 16.71875 2.792969 C 16.769531 2.820312 16.96875 2.929688 17.15625 3.035156 C 17.34375 3.140625 17.539062 3.25 17.585938 3.277344 C 17.636719 3.300781 17.78125 3.382812 17.910156 3.457031 C 18.4375 3.753906 18.992188 3.996094 19.496094 4.148438 C 19.855469 4.257812 20.050781 4.285156 20.539062 4.304688 C 21.359375 4.339844 21.714844 4.371094 21.742188 4.410156 C 21.746094 4.414062 21.558594 4.613281 21.328125 4.847656 C 20.929688 5.25 20.082031 6.089844 19.394531 6.765625 C 19.667969 6.96875 19.929688 7.183594 20.179688 7.414062 C 20.445312 7.148438 20.707031 6.886719 21.027344 6.566406 C 22.113281 5.480469 22.710938 4.875 22.75 4.8125 C 22.847656 4.652344 22.855469 4.625 22.855469 4.34375 C 22.859375 4.136719 22.851562 4.066406 22.824219 3.984375 C 22.78125 3.855469 22.671875 3.726562 22.550781 3.664062 C 22.230469 3.503906 21.933594 3.445312 21.296875 3.40625 C 20.542969 3.363281 20.40625 3.347656 20.078125 3.285156 C 19.578125 3.1875 19.082031 3.019531 18.546875 2.769531 C 18.339844 2.671875 18.25 2.621094 17.640625 2.253906 C 17.421875 2.121094 17.15625 1.964844 17.054688 1.910156 C 16.953125 1.851562 16.78125 1.75 16.671875 1.683594 C 16.121094 1.351562 15.390625 1.0625 14.902344 0.980469 C 14.679688 0.945312 14.339844 0.921875 13.996094 0.917969 Z M 4.382812 5.09375 C 4.21875 5.089844 4.027344 5.113281 3.902344 5.164062 C 3.585938 5.28125 3.460938 5.652344 3.417969 6.621094 C 3.382812 7.414062 3.378906 7.460938 3.234375 7.984375 C 3.109375 8.445312 2.976562 8.78125 2.695312 9.359375 C 2.484375 9.765625 2.265625 10.199219 1.988281 10.554688 C 1.988281 10.585938 1.855469 10.859375 1.8125 10.914062 C 1.757812 10.988281 1.382812 11.71875 1.296875 11.925781 C 1.050781 12.496094 0.929688 12.992188 0.886719 13.578125 C 0.851562 14.121094 0.914062 14.550781 1.144531 15.261719 C 1.238281 15.550781 1.449219 16 1.859375 16.796875 C 2.453125 17.941406 2.605469 18.269531 2.78125 18.808594 C 3.019531 19.550781 3.066406 19.890625 3.058594 20.777344 C 3.054688 21.152344 3.058594 21.417969 3.070312 21.492188 C 3.152344 22.019531 3.425781 22.320312 3.851562 22.351562 C 3.980469 22.359375 3.992188 22.359375 4.113281 22.300781 C 4.277344 22.21875 4.382812 22.152344 4.722656 21.90625 C 4.984375 21.71875 5.125 21.605469 5.46875 21.324219 C 5.546875 21.257812 5.65625 21.171875 5.707031 21.132812 C 5.761719 21.09375 5.863281 21.003906 5.933594 20.9375 C 6.007812 20.867188 6.164062 20.730469 6.28125 20.628906 C 6.648438 20.316406 6.859375 20.136719 7.09375 19.929688 C 6.878906 19.671875 6.675781 19.40625 6.488281 19.125 C 6.484375 19.128906 6.472656 19.140625 6.46875 19.144531 C 6.410156 19.199219 6.320312 19.273438 6.273438 19.3125 C 6.226562 19.351562 6.09375 19.460938 5.984375 19.554688 C 5.710938 19.792969 5.390625 20.0625 5.160156 20.257812 C 4.976562 20.410156 4.914062 20.464844 4.539062 20.789062 C 4.457031 20.859375 4.316406 20.976562 4.226562 21.050781 C 4.140625 21.125 4.066406 21.1875 4.058594 21.1875 C 4.03125 21.1875 4.023438 21.039062 4.019531 20.367188 C 4.019531 19.867188 4.011719 19.566406 4 19.484375 C 3.9375 19.125 3.796875 18.660156 3.621094 18.246094 C 3.535156 18.039062 3.261719 17.503906 2.84375 16.710938 C 2.316406 15.71875 2.175781 15.410156 2.027344 14.921875 C 1.773438 14.097656 1.769531 13.558594 2.007812 12.78125 C 2.175781 12.238281 2.40625 11.761719 2.875 10.972656 C 3.566406 9.8125 3.75 9.457031 4.015625 8.804688 C 4.296875 8.105469 4.3125 7.996094 4.375 6.558594 C 4.386719 6.289062 4.390625 6.269531 4.421875 6.261719 C 4.449219 6.257812 4.832031 6.632812 6.070312 7.875 C 6.335938 8.144531 6.574219 8.386719 6.792969 8.609375 C 6.992188 8.34375 7.207031 8.09375 7.429688 7.855469 C 7.410156 7.835938 7.398438 7.824219 7.375 7.800781 C 6.484375 6.898438 5.609375 5.957031 4.640625 5.132812 C 4.574219 5.109375 4.484375 5.097656 4.382812 5.09375 Z M 23.890625 5.636719 C 23.789062 5.636719 23.722656 5.65625 23.667969 5.695312 C 23.628906 5.71875 23.441406 5.882812 23.25 6.058594 C 23.058594 6.230469 22.851562 6.417969 22.792969 6.46875 C 22.734375 6.519531 22.546875 6.691406 22.371094 6.851562 C 21.761719 7.421875 21.527344 7.632812 21.339844 7.796875 C 21.238281 7.890625 21.097656 8.011719 21.035156 8.070312 C 21 8.101562 20.953125 8.140625 20.914062 8.175781 C 21.132812 8.429688 21.339844 8.699219 21.53125 8.980469 C 21.589844 8.921875 21.660156 8.859375 21.703125 8.816406 C 21.828125 8.703125 22.011719 8.539062 22.109375 8.453125 C 22.203125 8.367188 22.390625 8.199219 22.519531 8.078125 C 22.648438 7.957031 22.816406 7.804688 22.894531 7.734375 C 22.972656 7.667969 23.144531 7.511719 23.28125 7.386719 C 23.800781 6.902344 23.941406 6.785156 23.960938 6.804688 C 23.972656 6.816406 23.980469 7.097656 23.988281 7.59375 C 24 8.570312 24.003906 8.589844 24.207031 9.246094 C 24.359375 9.730469 24.425781 9.878906 25.066406 11.167969 C 25.613281 12.269531 25.667969 12.390625 25.878906 12.992188 C 26.132812 13.699219 26.203125 14.253906 26.109375 14.792969 C 26.054688 15.113281 26.027344 15.207031 25.925781 15.472656 C 25.710938 16.035156 25.570312 16.300781 24.984375 17.285156 C 24.808594 17.585938 24.617188 17.902344 24.566406 17.992188 C 24.511719 18.085938 24.441406 18.207031 24.410156 18.265625 C 24.238281 18.5625 23.894531 19.328125 23.820312 19.582031 C 23.734375 19.890625 23.6875 20.183594 23.671875 20.550781 C 23.648438 21.109375 23.617188 21.59375 23.601562 21.640625 C 23.597656 21.664062 23.578125 21.6875 23.5625 21.691406 C 23.519531 21.699219 23.519531 21.699219 22.738281 20.953125 C 22.527344 20.75 22.050781 20.300781 21.683594 19.949219 C 21.507812 19.785156 21.398438 19.679688 21.265625 19.550781 C 21.074219 19.804688 20.867188 20.046875 20.652344 20.28125 C 20.890625 20.511719 21.144531 20.753906 21.21875 20.832031 C 21.296875 20.90625 21.507812 21.113281 21.691406 21.285156 C 21.871094 21.457031 22.113281 21.691406 22.230469 21.800781 C 22.347656 21.910156 22.644531 22.195312 22.894531 22.429688 C 23.421875 22.921875 23.390625 22.90625 23.707031 22.894531 C 23.894531 22.890625 23.917969 22.886719 24.023438 22.832031 C 24.101562 22.796875 24.171875 22.742188 24.230469 22.679688 C 24.441406 22.445312 24.523438 22.15625 24.5625 21.46875 C 24.609375 20.6875 24.609375 20.660156 24.675781 20.378906 C 24.851562 19.59375 25.152344 18.878906 25.707031 17.941406 C 26.019531 17.40625 26.183594 17.132812 26.269531 16.992188 C 26.390625 16.789062 26.589844 16.414062 26.65625 16.246094 C 26.855469 15.773438 26.878906 15.707031 26.953125 15.417969 C 27.160156 14.597656 27.140625 13.828125 26.898438 13.027344 C 26.742188 12.507812 26.609375 12.203125 25.960938 10.871094 C 25.542969 10.011719 25.5625 10.058594 25.394531 9.613281 C 25.171875 9.035156 25.058594 8.636719 24.980469 8.179688 C 24.949219 7.996094 24.941406 7.859375 24.929688 7.292969 C 24.917969 6.652344 24.914062 6.609375 24.871094 6.410156 C 24.789062 6.039062 24.734375 5.910156 24.609375 5.792969 C 24.511719 5.703125 24.40625 5.671875 24.132812 5.648438 C 24.035156 5.636719 23.957031 5.632812 23.890625 5.636719 Z M 7.765625 20.644531 C 7.230469 21.203125 6.574219 21.875 6.175781 22.273438 C 5.265625 23.191406 5.175781 23.300781 5.128906 23.570312 C 5.082031 23.832031 5.132812 24.050781 5.28125 24.222656 C 5.488281 24.464844 5.816406 24.574219 6.398438 24.601562 C 7.339844 24.640625 7.480469 24.660156 8.039062 24.820312 C 8.722656 25.015625 9.5 25.386719 10.464844 25.976562 C 10.550781 26.027344 10.667969 26.097656 10.726562 26.128906 C 10.785156 26.164062 10.925781 26.242188 11.039062 26.3125 C 11.84375 26.789062 12.5 27.015625 13.257812 27.070312 C 13.402344 27.082031 13.523438 27.09375 13.527344 27.101562 C 13.542969 27.117188 14.234375 27.089844 14.402344 27.0625 C 14.9375 26.980469 15.394531 26.847656 15.832031 26.640625 C 15.933594 26.589844 16.160156 26.484375 16.339844 26.398438 C 16.515625 26.316406 16.828125 26.167969 17.027344 26.070312 C 17.441406 25.863281 17.90625 25.648438 17.996094 25.613281 C 18.03125 25.601562 18.117188 25.566406 18.191406 25.535156 C 18.683594 25.328125 19.085938 25.207031 19.65625 25.09375 C 20.09375 25.003906 20.082031 25.003906 20.707031 25.007812 C 21.253906 25.011719 21.285156 25.011719 21.507812 24.96875 C 21.757812 24.917969 22.046875 24.835938 22.117188 24.789062 C 22.21875 24.726562 22.296875 24.597656 22.324219 24.453125 C 22.335938 24.398438 22.347656 24.257812 22.355469 24.140625 C 22.363281 23.964844 22.359375 23.90625 22.339844 23.859375 C 22.316406 23.800781 21.964844 23.382812 21.71875 23.117188 C 21.582031 22.972656 21.214844 22.558594 20.710938 21.992188 C 20.511719 21.765625 20.207031 21.429688 20.035156 21.242188 C 19.972656 21.175781 19.910156 21.109375 19.847656 21.039062 C 19.601562 21.242188 19.351562 21.433594 19.085938 21.613281 C 19.214844 21.75 19.320312 21.867188 19.414062 21.964844 C 19.496094 22.050781 19.710938 22.289062 19.890625 22.488281 C 20.070312 22.691406 20.289062 22.925781 20.371094 23.011719 C 20.453125 23.097656 20.570312 23.222656 20.625 23.292969 C 20.683594 23.359375 20.792969 23.480469 20.871094 23.5625 C 21.058594 23.757812 21.246094 23.984375 21.234375 24 C 21.210938 24.042969 21.050781 24.050781 20.429688 24.050781 C 19.773438 24.050781 19.769531 24.050781 19.472656 24.101562 C 18.992188 24.183594 18.445312 24.34375 18.023438 24.523438 C 17.9375 24.558594 17.421875 24.808594 16.878906 25.078125 C 15.546875 25.738281 15.605469 25.710938 15.027344 25.902344 C 14.6875 26.015625 14.457031 26.070312 14.183594 26.113281 C 14.019531 26.136719 13.871094 26.144531 13.652344 26.144531 C 13.320312 26.140625 13.328125 26.140625 13.058594 26.101562 C 12.703125 26.046875 11.988281 25.789062 11.589844 25.570312 C 11.433594 25.484375 10.886719 25.167969 10.867188 25.152344 C 10.828125 25.125 9.855469 24.558594 9.625 24.429688 C 9.292969 24.246094 8.800781 24.035156 8.402344 23.902344 C 7.976562 23.761719 7.769531 23.734375 6.714844 23.683594 C 6.488281 23.671875 6.292969 23.65625 6.28125 23.648438 C 6.265625 23.636719 6.273438 23.621094 6.308594 23.578125 C 6.371094 23.503906 6.867188 22.988281 7.523438 22.3125 C 7.691406 22.140625 8.050781 21.765625 8.324219 21.484375 C 8.394531 21.414062 8.445312 21.359375 8.515625 21.285156 C 8.257812 21.085938 8.003906 20.871094 7.765625 20.644531 Z M 7.765625 20.644531 "/>
<path fill-rule="nonzero" fill="rgb(100%, 100%, 100%)" fill-opacity="1" d="M 14.242188 4.453125 C 14.273438 4.671875 14.300781 4.894531 14.351562 5.101562 C 14.382812 5.265625 14.425781 5.421875 14.480469 5.578125 C 18.976562 5.8125 22.542969 9.527344 22.542969 14.082031 C 22.542969 17.085938 20.992188 19.722656 18.644531 21.238281 C 18.605469 21.269531 18.566406 21.296875 18.523438 21.316406 C 18.519531 21.320312 18.515625 21.320312 18.511719 21.320312 C 18.0625 21.601562 17.585938 21.839844 17.085938 22.03125 C 16.675781 22.582031 16.207031 23.089844 15.707031 23.5625 C 20.21875 22.765625 23.660156 18.816406 23.660156 14.082031 C 23.660156 8.84375 19.453125 4.566406 14.242188 4.453125 Z M 12.601562 4.554688 C 7.964844 5.246094 4.398438 9.257812 4.398438 14.082031 C 4.398438 18.992188 8.097656 23.058594 12.855469 23.636719 C 12.226562 23.210938 11.644531 22.703125 11.175781 22.109375 C 7.875 20.9375 5.511719 17.785156 5.511719 14.082031 C 5.511719 9.929688 8.476562 6.476562 12.402344 5.71875 C 12.449219 5.328125 12.515625 4.9375 12.601562 4.554688 Z M 13.601562 22.585938 C 13.5625 22.953125 13.550781 23.328125 13.574219 23.699219 C 13.660156 23.703125 13.746094 23.707031 13.835938 23.707031 C 13.945312 23.339844 14.050781 22.96875 14.136719 22.59375 C 14.101562 22.59375 14.066406 22.597656 14.027344 22.597656 C 13.886719 22.597656 13.742188 22.589844 13.601562 22.585938 Z M 13.601562 22.585938 "/>
<path fill-rule="evenodd" fill="rgb(100%, 100%, 100%)" fill-opacity="1" d="M 9.808594 20.199219 C 8.53125 19.476562 7.75 17.789062 8.324219 15.265625 C 8.730469 13.496094 9.90625 11.3125 9.003906 9.492188 C 10.097656 10.25 11.238281 12.050781 12.386719 14.082031 C 12.464844 11.882812 11.324219 10.445312 12.144531 7.441406 C 12.707031 11.15625 14.964844 11.386719 16.109375 14.765625 C 16.597656 13.175781 17.609375 12.652344 17.113281 8.707031 C 22.097656 15.511719 19.257812 17.925781 18.261719 20.359375 L 18.585938 16.980469 C 17.023438 21.496094 15.769531 22.328125 14.640625 23.339844 C 15.273438 21.21875 15.519531 19.101562 14.238281 16.980469 C 13.925781 20.460938 13.046875 19.734375 12.867188 22.535156 C 11.109375 21.207031 10.75 19.84375 10.433594 17.625 C 10.195312 17.882812 9.789062 18.96875 9.808594 20.199219 Z M 9.808594 20.199219 "/>
<path fill-rule="evenodd" fill="rgb(100%, 100%, 100%)" fill-opacity="1" d="M 13.453125 3.957031 C 12.148438 9.25 14.527344 9.203125 15.847656 12.3125 C 16.773438 7.515625 14.003906 8.59375 13.453125 3.957031 Z M 13.453125 3.957031 "/>
</svg>
