<?xml version="1.0" encoding="UTF-8"?>
<svg xmlns="http://www.w3.org/2000/svg" xmlns:xlink="http://www.w3.org/1999/xlink" width="28" height="28" viewBox="0 0 28 28">
<defs>
<filter id="filter-remove-color" x="0%" y="0%" width="100%" height="100%">
<feColorMatrix color-interpolation-filters="sRGB" values="0 0 0 0 1 0 0 0 0 1 0 0 0 0 1 0 0 0 1 0" />
</filter>
<mask id="mask-0">
<g filter="url(#filter-remove-color)">
<rect x="-2.8" y="-2.8" width="33.6" height="33.6" fill="rgb(0%, 0%, 0%)" fill-opacity="0.1"/>
</g>
</mask>
<clipPath id="clip-0">
<rect x="0" y="0" width="28" height="28"/>
</clipPath>
<g id="source-10" clip-path="url(#clip-0)">
<path fill-rule="evenodd" fill="rgb(100%, 100%, 100%)" fill-opacity="1" d="M 4.035156 5.621094 L 3.769531 7.769531 L 3.039062 9.648438 L 1.734375 12.066406 L 1.234375 13.871094 L 2.078125 16.25 L 3.269531 18.589844 L 3.769531 21.8125 L 6.492188 19.703125 L 7.914062 21.238281 L 5.570312 23.695312 L 5.992188 24.078125 L 7.566406 24.230469 L 9.023438 24.613281 L 11.519531 26.074219 L 13.285156 26.609375 L 14.972656 26.378906 L 17.121094 25.421875 L 19.003906 24.691406 L 21.035156 24.421875 L 21.917969 23.886719 L 19.730469 21.621094 L 21.304688 20.164062 L 23.644531 22.390625 L 24.066406 21.699219 L 24.296875 19.625 L 25.332031 17.632812 L 26.445312 15.519531 L 26.714844 14.023438 L 26.023438 12.105469 L 24.871094 9.957031 L 24.414062 7.769531 L 24.222656 6.082031 L 22.878906 7.078125 L 21.496094 8.308594 L 20.113281 6.808594 L 22.300781 4.429688 L 21.839844 3.933594 L 19.769531 3.703125 L 17.8125 2.933594 L 15.664062 1.746094 L 14.089844 1.398438 L 12.210938 1.820312 L 10.40625 2.894531 L 8.757812 3.394531 L 6.148438 3.585938 L 6.148438 4.046875 L 8.371094 6.582031 L 6.761719 7.960938 Z M 4.035156 5.621094 "/>
</g>
</defs>
<path fill-rule="nonzero" fill="rgb(6.666667%, 6.666667%, 6.666667%)" fill-opacity="1" stroke-width="3.408" stroke-linecap="butt" stroke-linejoin="miter" stroke="rgb(93.333333%, 93.333333%, 93.333333%)" stroke-opacity="1" stroke-miterlimit="4" d="M 66.269531 1.780134 C 24.921875 1.780134 1.699219 23.141741 1.699219 66.835938 L 1.699219 516.967076 C 1.699219 557.748326 22.575335 579.190848 63.922991 579.190848 L 515.915179 579.190848 C 557.262835 579.190848 578.138951 558.881138 578.138951 516.967076 L 578.138951 66.835938 C 578.138951 24.193638 557.262835 1.780134 514.620536 1.780134 C 514.620536 1.780134 66.107701 1.618304 66.269531 1.780134 Z M 66.269531 1.780134 " transform="matrix(0.0482759, 0, 0, 0.0482759, 0, 0)"/>
<path fill-rule="nonzero" fill="rgb(100%, 100%, 100%)" fill-opacity="1" stroke-width="9.500467" stroke-linecap="round" stroke-linejoin="round" stroke="rgb(100%, 100%, 100%)" stroke-opacity="1" stroke-miterlimit="4" d="M 287.572545 24.84096 C 262.97433 24.921875 242.664621 40.376674 222.03125 51.785714 C 198.404018 64.165737 171.378348 69.506138 144.83817 67.96875 C 136.827567 68.292411 124.69029 68.292411 122.262835 77.921317 C 120.078125 87.792969 130.111607 93.780692 135.047433 100.820312 C 146.456473 114.171317 158.108259 127.279576 170.164621 140.145089 C 172.02567 137.555804 179.631696 135.856585 174.938616 132.619978 C 161.506696 116.598772 146.213728 101.791295 134.319196 84.556362 C 133.267299 77.354911 142.006138 75.736607 147.427455 76.383929 C 167.979911 76.222098 189.665179 77.435826 208.27567 67.321429 C 235.78683 54.779576 261.113281 33.417969 292.832031 33.094308 C 323.175223 33.741629 348.178013 53.484933 374.070871 66.916853 C 392.438616 77.273996 412.829241 84.799107 434.190848 84.070871 C 441.149554 84.637277 449.888393 83.018973 454.986049 88.763951 C 457.898996 95.884487 449.321987 99.606585 445.842634 104.38058 C 434.029018 116.194196 422.215402 127.926897 410.401786 139.659598 C 413.395647 140.873326 416.389509 147.022879 419.05971 144.352679 C 435.16183 127.765067 452.720424 112.472098 467.366071 94.508929 C 469.631696 88.197545 466.799665 79.21596 459.031808 78.892299 C 441.068638 74.765625 422.053571 76.86942 404.252232 71.286272 C 370.510603 62.304688 344.53683 34.712612 310.47154 26.621094 C 303.027344 25.00279 295.259487 24.679129 287.572545 24.84096 Z M 86.902902 111.339286 C 79.458705 111.177455 77.516741 120.078125 77.597656 125.904018 C 75.817522 143.543527 76.383929 161.911272 69.020647 178.256138 C 56.55971 212.96875 27.996652 241.127232 24.193638 278.833705 C 21.685268 305.050223 34.793527 328.758371 46.688058 351.09096 C 60.200893 376.25558 71.771763 404.171317 69.020647 433.381696 C 68.696987 441.473214 68.777902 453.205915 77.435826 456.847098 C 85.041853 458.869978 90.139509 451.183036 96.046317 447.946429 C 111.09654 436.780134 125.013951 424.481027 138.931362 411.939174 C 136.09933 409.592634 134.076451 401.501116 130.435268 407.084263 C 115.385045 419.464286 101.305804 433.138951 85.365513 444.305246 C 78.325893 445.276228 76.86942 436.618304 77.678571 431.439732 C 78.164062 413.962054 77.921317 395.837054 69.667969 379.977679 C 56.55971 349.472656 33.822545 321.71875 32.366071 287.248884 C 32.285156 255.691964 52.594866 229.475446 67.078683 203.097098 C 77.516741 184.972098 85.365513 164.824219 84.637277 143.624442 C 85.284598 137.393973 83.261719 128.493304 89.492188 124.771205 C 96.936384 122.748326 100.577567 131.56808 105.756138 135.128348 C 117.407924 146.537388 128.493304 158.351004 140.387835 169.517299 C 143.138951 166.037946 148.722098 162.558594 142.572545 159.483817 C 126.227679 143.058036 110.853795 125.580357 92.486049 111.420201 C 90.625 111.258371 88.763951 111.258371 86.902902 111.339286 Z M 494.391741 122.586496 C 487.02846 126.227679 482.65904 133.75279 475.94308 138.28404 C 464.37221 148.964844 452.639509 159.321987 441.311384 170.164621 C 443.981585 172.02567 445.842634 179.955357 449.079241 175.585938 C 464.129464 162.315848 478.12779 147.427455 494.472656 135.532924 C 501.350446 133.995536 503.373326 142.572545 502.321429 147.589286 C 501.916853 166.280692 502.80692 185.457589 511.545759 202.368862 C 524.654018 233.44029 546.09654 262.488839 547.310268 297.282366 C 546.501116 327.544643 526.595982 352.304688 512.435826 377.712054 C 502.240513 394.866071 494.715402 414.204799 495.524554 434.514509 C 494.877232 441.068638 496.657366 450.292969 490.265067 454.338728 C 482.982701 456.685268 478.694196 448.189174 473.839286 444.628906 C 462.915737 434.190848 451.992188 423.833705 441.068638 413.395647 C 439.854911 416.227679 433.219866 419.22154 437.751116 421.729911 C 454.743304 437.427455 470.198103 455.147879 488.727679 468.741629 C 496.495536 470.036272 501.997768 462.268415 501.835938 455.228795 C 504.263393 438.803013 502.96875 421.56808 509.603795 405.951451 C 519.960938 373.828125 544.963728 348.501674 553.378906 315.731027 C 558.719308 292.508371 553.136161 268.071987 542.050781 247.357701 C 527.324219 216.529018 508.956473 184.729353 510.574777 149.288504 C 510.170201 140.63058 511.303013 130.111607 504.667969 123.557478 C 501.431362 122.262835 497.709263 122.748326 494.391741 122.586496 Z M 156.40904 440.502232 C 141.925223 456.847098 124.204799 470.198103 111.986607 488.323103 C 109.559152 496.171875 117.246094 503.454241 124.933036 502.887835 C 141.439732 505.072545 158.75558 503.858817 174.37221 510.493862 C 204.958147 520.365513 229.637277 543.669085 260.546875 552.65067 C 287.167969 559.69029 315.731027 553.783482 339.196429 540.027902 C 368.244978 525.867746 398.830915 510.170201 432.167969 512.354911 C 440.178571 511.950335 449.807478 512.516741 456.037946 507.095424 C 459.031808 501.188616 457.332589 494.06808 452.073103 490.103237 C 438.722098 474.243862 424.157366 459.193638 410.644531 443.496094 C 409.268973 445.842634 400.853795 447.946429 405.385045 450.050223 C 418.250558 464.938616 433.138951 478.694196 444.871652 494.715402 C 447.460938 501.350446 439.045759 504.748884 433.786272 503.858817 C 411.291853 502.240513 388.635603 506.124442 368.487723 516.481585 C 339.762835 529.832589 311.037946 549.090402 277.943638 547.148438 C 244.6875 544.882812 218.713728 521.498326 189.907924 507.580915 C 174.37221 499.651228 157.218192 496.010045 139.902344 496.25279 C 134.400112 496.25279 124.771205 496.657366 124.52846 489.051339 C 125.661272 482.254464 133.105469 479.098772 136.827567 473.677455 C 147.18471 462.915737 157.541853 452.154018 167.979911 441.392299 C 164.662388 439.69308 161.425781 432.734375 158.512835 438.317522 C 157.784598 439.045759 157.056362 439.773996 156.40904 440.502232 Z M 156.40904 440.502232 " transform="matrix(0.0482759, 0, 0, 0.0482759, 0, 0)"/>
<path fill-rule="evenodd" fill="rgb(100%, 100%, 100%)" fill-opacity="1" d="M 9.375 20.597656 C 7.960938 19.800781 7.101562 17.941406 7.738281 15.15625 C 8.183594 13.207031 9.480469 10.796875 8.484375 8.792969 C 9.691406 9.625 10.949219 11.609375 12.214844 13.851562 C 12.300781 11.425781 11.042969 9.839844 11.949219 6.527344 C 12.566406 10.625 15.058594 10.878906 16.320312 14.605469 C 16.855469 12.851562 17.976562 12.277344 17.429688 7.925781 C 22.921875 15.425781 19.792969 18.09375 18.695312 20.773438 L 19.050781 17.046875 C 17.328125 22.027344 15.945312 22.945312 14.699219 24.058594 C 15.398438 21.722656 15.671875 19.382812 14.257812 17.046875 C 13.914062 20.886719 12.941406 20.085938 12.746094 23.171875 C 10.808594 21.707031 10.410156 20.207031 10.0625 17.757812 C 9.796875 18.042969 9.351562 19.242188 9.375 20.597656 Z M 9.375 20.597656 "/>
<path fill-rule="evenodd" fill="rgb(100%, 100%, 100%)" fill-opacity="1" d="M 13.390625 2.6875 C 11.953125 8.519531 14.578125 8.46875 16.03125 11.898438 C 17.050781 6.613281 14 7.800781 13.390625 2.6875 Z M 13.390625 2.6875 "/>
<g mask="url(#mask-0)">
<use xlink:href="#source-10"/>
</g>
</svg>
