<?xml version="1.0" encoding="UTF-8"?>
<svg xmlns="http://www.w3.org/2000/svg" xmlns:xlink="http://www.w3.org/1999/xlink" width="28" height="28" viewBox="0 0 28 28">
<path fill-rule="nonzero" fill="rgb(6.666667%, 6.666667%, 6.666667%)" fill-opacity="1" stroke-width="3.408" stroke-linecap="butt" stroke-linejoin="miter" stroke="rgb(93.333333%, 93.333333%, 93.333333%)" stroke-opacity="1" stroke-miterlimit="4" d="M 66.269531 1.780134 C 24.921875 1.780134 1.699219 23.141741 1.699219 66.835938 L 1.699219 516.967076 C 1.699219 557.748326 22.575335 579.190848 63.922991 579.190848 L 515.915179 579.190848 C 557.262835 579.190848 578.138951 558.881138 578.138951 516.967076 L 578.138951 66.835938 C 578.138951 24.193638 557.262835 1.780134 514.620536 1.780134 C 514.620536 1.780134 66.107701 1.618304 66.269531 1.780134 Z M 66.269531 1.780134 " transform="matrix(0.0482759, 0, 0, 0.0482759, 0, 0)"/>
<path fill-rule="evenodd" fill="rgb(100%, 100%, 100%)" fill-opacity="1" d="M 8.246094 23.160156 C 6.480469 22.164062 5.40625 19.832031 6.199219 16.351562 C 6.757812 13.910156 8.382812 10.898438 7.136719 8.386719 C 8.648438 9.433594 10.21875 11.914062 11.800781 14.71875 C 11.910156 11.6875 10.335938 9.699219 11.46875 5.554688 C 12.246094 10.683594 15.359375 11 16.9375 15.664062 C 17.609375 13.46875 19.007812 12.75 18.324219 7.304688 C 25.199219 16.691406 21.28125 20.023438 19.910156 23.382812 L 20.351562 18.714844 C 18.199219 24.945312 16.472656 26.097656 14.910156 27.488281 C 15.78125 24.566406 16.125 21.640625 14.355469 18.714844 C 13.925781 23.519531 12.710938 22.519531 12.46875 26.378906 C 10.042969 24.546875 9.542969 22.671875 9.109375 19.605469 C 8.777344 19.964844 8.222656 21.460938 8.246094 23.160156 Z M 8.246094 23.160156 "/>
<path fill-rule="evenodd" fill="rgb(100%, 100%, 100%)" fill-opacity="1" d="M 13.273438 0.753906 C 11.476562 8.050781 14.757812 7.988281 16.578125 12.273438 C 17.851562 5.660156 14.035156 7.148438 13.273438 0.753906 Z M 13.273438 0.753906 "/>
</svg>
