<?xml version="1.0" encoding="UTF-8"?>
<svg xmlns="http://www.w3.org/2000/svg" xmlns:xlink="http://www.w3.org/1999/xlink" width="28" height="28" viewBox="0 0 28 28">
<path fill-rule="nonzero" fill="rgb(6.666667%, 6.666667%, 6.666667%)" fill-opacity="1" stroke-width="3.408" stroke-linecap="butt" stroke-linejoin="miter" stroke="rgb(93.333333%, 93.333333%, 93.333333%)" stroke-opacity="1" stroke-miterlimit="4" d="M 66.269531 1.780134 C 24.921875 1.780134 1.699219 23.141741 1.699219 66.835938 L 1.699219 516.967076 C 1.699219 557.748326 22.575335 579.190848 63.922991 579.190848 L 515.915179 579.190848 C 557.262835 579.190848 578.138951 558.881138 578.138951 516.967076 L 578.138951 66.835938 C 578.138951 24.193638 557.262835 1.780134 514.620536 1.780134 C 514.620536 1.780134 66.107701 1.618304 66.269531 1.780134 Z M 66.269531 1.780134 " transform="matrix(0.0482759, 0, 0, 0.0482759, 0, 0)"/>
<path fill-rule="nonzero" fill="rgb(100%, 100%, 100%)" fill-opacity="1" d="M 8.621094 10.019531 C 7.957031 9.875 7.25 10.074219 6.640625 10.511719 C 6.035156 10.945312 5.496094 11.632812 4.964844 12.527344 C 3.902344 14.3125 2.941406 17.4375 2.648438 18.855469 C 2.355469 20.273438 2.015625 21.917969 1.875 23.140625 C 2.125 21.96875 2.59375 20.210938 2.984375 18.859375 C 3.371094 17.511719 4.550781 14.449219 5.566406 12.917969 C 6.105469 12.109375 6.679688 11.488281 7.148438 11.152344 C 7.621094 10.8125 8.011719 10.71875 8.417969 10.808594 C 9.238281 10.988281 10.652344 11.957031 11.527344 14.332031 C 12.402344 16.710938 13.347656 20.304688 13.828125 25.132812 L 14.058594 25.199219 C 13.574219 20.328125 12.839844 16.722656 11.925781 14.242188 C 11.011719 11.765625 9.953125 10.3125 8.621094 10.019531 Z M 8.621094 10.019531 "/>
<path fill-rule="nonzero" fill="rgb(100%, 100%, 100%)" fill-opacity="1" d="M 12.144531 1.910156 C 11.960938 1.792969 11.675781 1.847656 11.503906 1.960938 C 11.15625 2.195312 10.921875 2.527344 10.746094 3.03125 C 10.605469 3.441406 10.292969 4.507812 10.035156 5.832031 C 9.777344 7.152344 9.777344 7.910156 9.691406 9.054688 C 9.824219 7.902344 10.070312 7.171875 10.371094 5.90625 C 10.710938 4.675781 11.234375 3.691406 11.460938 3.320312 C 11.617188 3.058594 11.71875 2.875 11.796875 2.871094 C 12.011719 2.871094 12.25 3.933594 12.402344 4.644531 C 13.023438 7.558594 13.550781 13.714844 13.789062 24.894531 L 14.261719 24.875 C 14.023438 13.675781 13.554688 7.085938 12.980469 4.050781 C 12.835938 3.292969 12.671875 2.769531 12.488281 2.390625 C 12.394531 2.199219 12.324219 2.023438 12.144531 1.910156 Z M 12.144531 1.910156 "/>
<path fill-rule="nonzero" fill="rgb(100%, 100%, 100%)" fill-opacity="1" d="M 9.488281 10.019531 C 8.886719 9.863281 8.230469 10.070312 7.707031 10.511719 C 7.1875 10.953125 6.730469 11.632812 6.285156 12.527344 C 5.394531 14.308594 4.777344 16.671875 4.429688 18.75 C 4.078125 20.832031 3.910156 23.234375 3.910156 23.234375 C 3.910156 23.234375 4.339844 20.898438 4.738281 18.828125 C 5.136719 16.757812 5.9375 14.539062 6.773438 12.871094 C 7.191406 12.035156 7.878906 11.480469 8.265625 11.152344 C 8.65625 10.820312 8.976562 10.726562 9.285156 10.808594 C 9.589844 10.886719 10.097656 11.097656 10.492188 11.703125 C 10.886719 12.308594 11.570312 13.25 11.9375 14.441406 C 12.675781 16.824219 13.234375 20.390625 13.640625 25.222656 L 14.109375 25.199219 C 13.703125 20.335938 13.046875 16.71875 12.28125 14.246094 C 11.898438 13.011719 11.519531 12.046875 11.0625 11.347656 C 10.605469 10.648438 10.085938 10.179688 9.488281 10.023438 Z M 9.488281 10.019531 "/>
<path fill-rule="nonzero" fill="rgb(100%, 100%, 100%)" fill-opacity="1" d="M 9.84375 10.070312 C 9.589844 10.171875 9.378906 10.335938 9.183594 10.5625 C 8.785156 11.011719 8.445312 11.6875 8.113281 12.574219 C 7.453125 14.347656 6.898438 16.890625 6.570312 19.027344 C 6.246094 21.160156 6.1875 22.914062 6.1875 22.914062 C 6.1875 22.914062 6.511719 21.246094 6.988281 19.089844 C 7.464844 16.933594 8.179688 14.546875 8.804688 12.871094 C 9.117188 12.03125 9.507812 11.425781 9.792969 11.101562 C 9.933594 10.941406 10.058594 10.84375 10.148438 10.808594 C 10.234375 10.769531 10.273438 10.78125 10.351562 10.808594 C 10.503906 10.863281 11 11.054688 11.296875 11.664062 C 11.59375 12.273438 12.039062 13.230469 12.316406 14.425781 C 12.871094 16.816406 13.472656 20.386719 13.773438 25.222656 L 14.160156 25.203125 C 13.855469 20.339844 13.359375 16.761719 12.789062 14.296875 C 12.503906 13.066406 12.214844 12.09375 11.875 11.398438 C 11.535156 10.703125 11.175781 10.253906 10.65625 10.074219 C 10.394531 9.980469 10.09375 9.96875 9.84375 10.074219 Z M 9.84375 10.070312 "/>
<path fill-rule="nonzero" fill="rgb(100%, 100%, 100%)" fill-opacity="1" d="M 11.925781 9.972656 C 11.78125 9.988281 11.664062 10.046875 11.570312 10.121094 C 11.382812 10.261719 11.269531 10.4375 11.164062 10.660156 C 10.953125 11.105469 10.78125 11.746094 10.605469 12.625 C 10.25 14.382812 9.890625 17.066406 9.640625 20.535156 L 9.625 22.851562 L 10.109375 20.582031 C 10.359375 17.136719 10.859375 14.46875 11.203125 12.773438 C 11.371094 11.925781 11.71875 11.332031 11.875 11.003906 C 11.90625 10.941406 11.898438 10.945312 11.925781 10.90625 C 11.945312 10.933594 11.957031 10.90625 11.976562 10.957031 C 12.050781 11.113281 12.242188 11.382812 12.378906 11.675781 C 12.660156 12.269531 12.867188 13.191406 13.019531 14.394531 C 13.320312 16.800781 13.667969 20.390625 13.832031 25.234375 L 14.210938 25.203125 C 14.046875 20.347656 13.804688 16.746094 13.5 14.296875 C 13.347656 13.074219 13.171875 12.175781 12.992188 11.496094 C 12.902344 11.15625 12.84375 10.835938 12.738281 10.613281 C 12.632812 10.390625 12.488281 10.207031 12.28125 10.074219 C 12.175781 10.007812 12.070312 9.964844 11.925781 9.976562 Z M 11.925781 9.972656 "/>
<path fill-rule="nonzero" fill="rgb(100%, 100%, 100%)" fill-opacity="1" d="M 12.78125 2.070312 C 12.652344 2.210938 12.476562 2.761719 12.339844 3.195312 C 12.199219 3.632812 11.890625 5.027344 11.804688 5.789062 C 11.71875 6.554688 11.632812 8.703125 11.644531 8.703125 C 11.644531 8.703125 12.003906 6.328125 12.089844 5.796875 C 12.179688 5.269531 12.429688 4.222656 12.640625 3.644531 C 12.8125 3.167969 13.042969 2.917969 13.175781 2.917969 C 13.304688 2.917969 13.464844 3.316406 13.59375 5.1875 C 13.722656 7.058594 13.695312 14.183594 13.785156 24.847656 L 14.09375 24.875 C 14 13.683594 14.058594 5.792969 13.941406 4.105469 C 13.820312 2.414062 13.367188 1.855469 13.148438 1.855469 C 12.933594 1.855469 12.90625 1.929688 12.78125 2.070312 Z M 12.78125 2.070312 "/>
<path fill-rule="nonzero" fill="rgb(100%, 100%, 100%)" fill-opacity="1" d="M 15.445312 23.148438 C 10.210938 22.53125 7.359375 25.394531 3.347656 25.265625 C 3.347656 25.265625 3.347656 25.976562 3.347656 25.976562 C 4.859375 25.976562 6.371094 25.976562 13.933594 25.976562 "/>
<path fill-rule="nonzero" fill="rgb(100%, 100%, 100%)" fill-opacity="1" d="M 19.242188 10.019531 C 19.90625 9.875 20.617188 10.074219 21.222656 10.511719 C 21.832031 10.945312 22.371094 11.632812 22.902344 12.527344 C 23.960938 14.3125 24.921875 17.4375 25.21875 18.855469 C 25.511719 20.273438 25.851562 21.917969 25.992188 23.140625 C 25.738281 21.96875 25.269531 20.210938 24.882812 18.859375 C 24.496094 17.511719 23.3125 14.449219 22.296875 12.917969 C 21.761719 12.109375 21.1875 11.488281 20.714844 11.152344 C 20.246094 10.8125 19.855469 10.71875 19.445312 10.808594 C 18.628906 10.988281 17.210938 11.957031 16.335938 14.332031 C 15.460938 16.710938 14.519531 20.304688 14.039062 25.132812 L 13.804688 25.199219 C 14.289062 20.328125 15.027344 16.722656 15.941406 14.242188 C 16.851562 11.765625 17.910156 10.3125 19.242188 10.019531 Z M 19.242188 10.019531 "/>
<path fill-rule="nonzero" fill="rgb(100%, 100%, 100%)" fill-opacity="1" d="M 15.722656 1.910156 C 15.902344 1.792969 16.191406 1.847656 16.363281 1.960938 C 16.707031 2.195312 16.941406 2.527344 17.117188 3.03125 C 17.257812 3.441406 17.574219 4.507812 17.828125 5.832031 C 18.085938 7.152344 18.089844 7.910156 18.175781 9.054688 C 18.039062 7.902344 17.796875 7.171875 17.492188 5.90625 C 17.15625 4.675781 16.632812 3.691406 16.40625 3.320312 C 16.246094 3.058594 16.144531 2.875 16.066406 2.871094 C 15.855469 2.871094 15.613281 3.933594 15.464844 4.644531 C 14.84375 7.558594 14.316406 13.714844 14.078125 24.894531 L 13.601562 24.875 C 13.839844 13.675781 14.3125 7.085938 14.882812 4.050781 C 15.027344 3.292969 15.191406 2.769531 15.378906 2.390625 C 15.46875 2.199219 15.542969 2.023438 15.722656 1.910156 Z M 15.722656 1.910156 "/>
<path fill-rule="nonzero" fill="rgb(100%, 100%, 100%)" fill-opacity="1" d="M 18.378906 10.019531 C 18.980469 9.863281 19.636719 10.070312 20.15625 10.511719 C 20.675781 10.953125 21.132812 11.632812 21.578125 12.527344 C 22.472656 14.308594 23.089844 16.671875 23.4375 18.75 C 23.785156 20.832031 23.953125 23.234375 23.953125 23.234375 C 23.953125 23.234375 23.527344 20.898438 23.128906 18.828125 C 22.730469 16.757812 21.925781 14.539062 21.089844 12.871094 C 20.675781 12.035156 19.984375 11.480469 19.597656 11.152344 C 19.210938 10.820312 18.886719 10.726562 18.582031 10.808594 C 18.277344 10.886719 17.769531 11.097656 17.371094 11.703125 C 16.976562 12.308594 16.296875 13.25 15.925781 14.441406 C 15.1875 16.824219 14.632812 20.390625 14.226562 25.222656 L 13.753906 25.199219 C 14.164062 20.335938 14.816406 16.71875 15.585938 14.246094 C 15.96875 13.011719 16.347656 12.046875 16.804688 11.347656 C 17.261719 10.648438 17.777344 10.179688 18.378906 10.023438 Z M 18.378906 10.019531 "/>
<path fill-rule="nonzero" fill="rgb(100%, 100%, 100%)" fill-opacity="1" d="M 18.023438 10.070312 C 18.277344 10.171875 18.484375 10.335938 18.683594 10.5625 C 19.078125 11.011719 19.417969 11.6875 19.75 12.574219 C 20.414062 14.347656 20.96875 16.890625 21.292969 19.027344 C 21.621094 21.160156 21.675781 22.914062 21.675781 22.914062 C 21.675781 22.914062 21.351562 21.246094 20.875 19.089844 C 20.402344 16.933594 19.6875 14.546875 19.058594 12.871094 C 18.746094 12.03125 18.355469 11.425781 18.074219 11.101562 C 17.933594 10.941406 17.804688 10.84375 17.71875 10.808594 C 17.628906 10.769531 17.59375 10.78125 17.515625 10.808594 C 17.359375 10.863281 16.867188 11.054688 16.570312 11.664062 C 16.269531 12.273438 15.828125 13.230469 15.550781 14.425781 C 14.996094 16.816406 14.394531 20.386719 14.089844 25.222656 L 13.703125 25.203125 C 14.007812 20.339844 14.503906 16.761719 15.074219 14.296875 C 15.359375 13.066406 15.652344 12.09375 15.992188 11.398438 C 16.332031 10.703125 16.6875 10.253906 17.210938 10.074219 C 17.46875 9.980469 17.769531 9.96875 18.023438 10.074219 Z M 18.023438 10.070312 "/>
<path fill-rule="nonzero" fill="rgb(100%, 100%, 100%)" fill-opacity="1" d="M 15.941406 9.972656 C 16.085938 9.988281 16.203125 10.046875 16.296875 10.121094 C 16.484375 10.261719 16.597656 10.4375 16.703125 10.660156 C 16.914062 11.105469 17.085938 11.746094 17.261719 12.625 C 17.613281 14.382812 17.972656 17.066406 18.226562 20.535156 L 18.242188 22.851562 L 17.757812 20.582031 C 17.507812 17.136719 17.003906 14.46875 16.664062 12.773438 C 16.492188 11.925781 16.144531 11.332031 15.992188 11.003906 C 15.960938 10.941406 15.964844 10.945312 15.941406 10.90625 C 15.921875 10.933594 15.910156 10.90625 15.890625 10.957031 C 15.816406 11.113281 15.625 11.382812 15.484375 11.675781 C 15.203125 12.269531 14.996094 13.191406 14.847656 14.394531 C 14.546875 16.800781 14.199219 20.390625 14.035156 25.234375 L 13.652344 25.203125 C 13.816406 20.347656 14.058594 16.746094 14.363281 14.296875 C 14.515625 13.074219 14.695312 12.175781 14.871094 11.496094 C 14.960938 11.15625 15.023438 10.835938 15.125 10.613281 C 15.230469 10.390625 15.375 10.207031 15.582031 10.074219 C 15.6875 10.007812 15.796875 9.964844 15.941406 9.976562 Z M 15.941406 9.972656 "/>
<path fill-rule="nonzero" fill="rgb(100%, 100%, 100%)" fill-opacity="1" d="M 15.085938 2.070312 C 15.210938 2.210938 15.390625 2.761719 15.527344 3.195312 C 15.664062 3.632812 15.976562 5.027344 16.058594 5.789062 C 16.144531 6.554688 16.230469 8.703125 16.222656 8.703125 C 16.222656 8.703125 15.859375 6.328125 15.773438 5.796875 C 15.6875 5.269531 15.433594 4.222656 15.226562 3.644531 C 15.050781 3.167969 14.820312 2.917969 14.691406 2.917969 C 14.558594 2.917969 14.402344 3.316406 14.273438 5.1875 C 14.144531 7.058594 14.167969 14.183594 14.078125 24.847656 L 13.773438 24.875 C 13.867188 13.683594 13.804688 5.792969 13.925781 4.105469 C 14.042969 2.414062 14.5 1.855469 14.714844 1.855469 C 14.933594 1.855469 14.960938 1.929688 15.085938 2.070312 Z M 15.085938 2.070312 "/>
<path fill-rule="nonzero" fill="rgb(100%, 100%, 100%)" fill-opacity="1" d="M 12.421875 23.148438 C 17.65625 22.53125 20.503906 25.394531 24.519531 25.265625 C 24.519531 25.265625 24.519531 25.976562 24.519531 25.976562 C 23.007812 25.976562 21.492188 25.976562 13.933594 25.976562 "/>
</svg>
