<?xml version="1.0" encoding="UTF-8"?>
<svg xmlns="http://www.w3.org/2000/svg" xmlns:xlink="http://www.w3.org/1999/xlink" width="28" height="28" viewBox="0 0 28 28">
<defs>
<filter id="filter-remove-color" x="0%" y="0%" width="100%" height="100%">
<feColorMatrix color-interpolation-filters="sRGB" values="0 0 0 0 1 0 0 0 0 1 0 0 0 0 1 0 0 0 1 0" />
</filter>
<mask id="mask-0">
<g filter="url(#filter-remove-color)">
<rect x="-2.8" y="-2.8" width="33.6" height="33.6" fill="rgb(0%, 0%, 0%)" fill-opacity="0.01"/>
</g>
</mask>
<clipPath id="clip-0">
<rect x="0" y="0" width="28" height="28"/>
</clipPath>
<g id="source-10" clip-path="url(#clip-0)">
<path fill-rule="nonzero" fill="rgb(100%, 100%, 100%)" fill-opacity="1" d="M 17.691406 9.742188 C 19.316406 9.800781 19.996094 11.097656 19.996094 11.097656 L 25.230469 18.273438 C 25.445312 18.597656 25.570312 18.980469 25.570312 19.402344 C 25.570312 20.519531 24.667969 21.425781 23.550781 21.425781 C 23.285156 21.425781 23.042969 21.367188 22.804688 21.277344 L 19.648438 20.398438 L 19.648438 23.550781 L 8.691406 23.550781 L 8.691406 20.398438 L 5.535156 21.277344 C 5.308594 21.367188 5.058594 21.425781 4.789062 21.425781 C 3.671875 21.425781 2.769531 20.519531 2.769531 19.402344 C 2.769531 18.980469 2.894531 18.597656 3.117188 18.273438 L 8.347656 11.097656 C 8.347656 11.097656 9.035156 9.800781 10.648438 9.742188 Z M 17.691406 9.742188 "/>
</g>
</defs>
<path fill-rule="nonzero" fill="rgb(6.666667%, 6.666667%, 6.666667%)" fill-opacity="1" stroke-width="3.408" stroke-linecap="butt" stroke-linejoin="miter" stroke="rgb(93.333333%, 93.333333%, 93.333333%)" stroke-opacity="1" stroke-miterlimit="4" d="M 66.269531 1.780134 C 24.921875 1.780134 1.699219 23.141741 1.699219 66.835938 L 1.699219 516.967076 C 1.699219 557.748326 22.575335 579.190848 63.922991 579.190848 L 515.915179 579.190848 C 557.262835 579.190848 578.138951 558.881138 578.138951 516.967076 L 578.138951 66.835938 C 578.138951 24.193638 557.262835 1.780134 514.620536 1.780134 C 514.620536 1.780134 66.107701 1.618304 66.269531 1.780134 Z M 66.269531 1.780134 " transform="matrix(0.0482759, 0, 0, 0.0482759, 0, 0)"/>
<path fill-rule="nonzero" fill="rgb(100%, 100%, 100%)" fill-opacity="1" d="M 17.792969 5.335938 C 17.792969 7.292969 16.207031 8.882812 14.246094 8.882812 C 12.289062 8.882812 10.699219 7.292969 10.699219 5.335938 C 10.699219 3.375 12.289062 1.789062 14.246094 1.789062 C 16.207031 1.789062 17.792969 3.375 17.792969 5.335938 Z M 17.792969 5.335938 "/>
<path fill-rule="nonzero" fill="rgb(100%, 100%, 100%)" fill-opacity="1" d="M 17.691406 9.742188 C 19.316406 9.800781 19.996094 11.097656 19.996094 11.097656 L 25.230469 18.273438 C 25.445312 18.597656 25.570312 18.980469 25.570312 19.402344 C 25.570312 20.519531 24.667969 21.425781 23.550781 21.425781 C 23.285156 21.425781 23.042969 21.367188 22.804688 21.277344 L 19.648438 20.398438 L 19.648438 23.550781 L 8.691406 23.550781 L 8.691406 20.398438 L 5.535156 21.277344 C 5.308594 21.367188 5.058594 21.425781 4.789062 21.425781 C 3.671875 21.425781 2.769531 20.519531 2.769531 19.402344 C 2.769531 18.980469 2.894531 18.597656 3.117188 18.273438 L 8.347656 11.097656 C 8.347656 11.097656 9.035156 9.800781 10.648438 9.742188 Z M 14.171875 21.347656 L 18.265625 19.992188 L 18.171875 19.972656 C 15.355469 19.144531 16.449219 15.414062 19.265625 16.246094 L 19.652344 16.378906 L 19.652344 12.167969 L 14.171875 13.960938 L 8.691406 12.167969 L 8.691406 16.378906 L 9.078125 16.246094 C 11.894531 15.414062 13 19.144531 10.171875 19.972656 L 10.082031 19.992188 Z M 14.171875 21.347656 "/>
<path fill-rule="nonzero" fill="rgb(100%, 100%, 100%)" fill-opacity="1" d="M 25.429688 26.03125 C 25.710938 26.03125 25.933594 25.808594 25.933594 25.527344 C 25.933594 25.246094 25.710938 25.027344 25.429688 25.027344 L 3.3125 25.027344 C 3.039062 25.027344 2.808594 25.246094 2.808594 25.527344 C 2.808594 25.808594 3.039062 26.03125 3.3125 26.03125 Z M 25.429688 26.03125 "/>
<g mask="url(#mask-0)">
<use xlink:href="#source-10"/>
</g>
</svg>
