<?xml version="1.0" encoding="UTF-8"?>
<svg xmlns="http://www.w3.org/2000/svg" xmlns:xlink="http://www.w3.org/1999/xlink" width="28" height="28" viewBox="0 0 28 28">
<path fill-rule="nonzero" fill="rgb(6.666667%, 6.666667%, 6.666667%)" fill-opacity="1" stroke-width="3.408" stroke-linecap="butt" stroke-linejoin="miter" stroke="rgb(93.333333%, 93.333333%, 93.333333%)" stroke-opacity="1" stroke-miterlimit="4" d="M 66.269531 1.780134 C 24.921875 1.780134 1.699219 23.141741 1.699219 66.835938 L 1.699219 516.967076 C 1.699219 557.748326 22.575335 579.190848 63.922991 579.190848 L 515.915179 579.190848 C 557.262835 579.190848 578.138951 558.800223 578.138951 516.967076 L 578.138951 66.835938 C 578.138951 24.193638 557.262835 1.780134 514.620536 1.780134 C 514.620536 1.780134 66.107701 1.618304 66.269531 1.780134 Z M 66.269531 1.780134 " transform="matrix(0.0482759, 0, 0, 0.0482759, 0, 0)"/>
<path fill-rule="nonzero" fill="rgb(100%, 100%, 100%)" fill-opacity="1" stroke-width="34.524319" stroke-linecap="round" stroke-linejoin="miter" stroke="rgb(100%, 100%, 100%)" stroke-opacity="1" stroke-miterlimit="1.1" d="M 44.422433 269.933036 L 540.351562 367.840402 " transform="matrix(0.0482759, 0, 0, 0.0482759, 0, 0)"/>
<path fill-rule="evenodd" fill="rgb(100%, 100%, 100%)" fill-opacity="1" stroke-width="2.022569" stroke-linecap="butt" stroke-linejoin="miter" stroke="rgb(100%, 100%, 100%)" stroke-opacity="1" stroke-miterlimit="4" d="M 292.34654 322.042411 L 240.075335 431.844308 L 344.698661 431.844308 Z M 292.34654 322.042411 " transform="matrix(0.0482759, 0, 0, 0.0482759, 0, 0)"/>
<path fill-rule="evenodd" fill="rgb(100%, 100%, 100%)" fill-opacity="1" stroke-width="1.33471" stroke-linecap="butt" stroke-linejoin="miter" stroke="rgb(100%, 100%, 100%)" stroke-opacity="1" stroke-miterlimit="4" d="M 338.556692 463.228239 C 329.589561 464.89314 317.588223 511.831314 317.588223 511.831314 L 352.1998 507.077533 C 352.1998 507.077533 347.85171 522.578496 344.008239 534.072296 C 341.611672 541.258121 349.608488 543.572333 353.662222 535.592399 C 361.101898 520.918295 366.698311 504.643294 366.698311 504.643294 C 366.698311 504.643294 347.9742 461.456377 338.556692 463.228239 Z M 338.556692 463.228239 " transform="matrix(0.103103, 0.0436556, -0.0406312, 0.110778, -9.975413, -57.689031)"/>
<path fill-rule="nonzero" fill="rgb(100%, 100%, 100%)" fill-opacity="1" stroke-width="5.9" stroke-linecap="butt" stroke-linejoin="miter" stroke="rgb(100%, 100%, 100%)" stroke-opacity="1" stroke-miterlimit="4" d="M 286.86146 449.515011 C 286.873492 454.647871 283.145918 458.803682 278.579341 458.799054 C 273.984172 458.80408 270.287176 454.630952 270.275144 449.498091 C 270.280765 444.377046 273.990687 440.209421 278.574916 440.225863 C 283.152432 440.209023 286.878021 444.372497 286.86146 449.515011 Z M 286.86146 449.515011 " transform="matrix(-0.165007, -0.0908099, -0.0840873, 0.135676, 91.558444, -28.79393)"/>
<path fill-rule="evenodd" fill="rgb(100%, 100%, 100%)" fill-opacity="1" stroke-width="1.33471" stroke-linecap="butt" stroke-linejoin="miter" stroke="rgb(100%, 100%, 100%)" stroke-opacity="1" stroke-miterlimit="4" d="M 338.534938 463.238108 C 329.579375 464.89004 317.581056 511.841589 317.581056 511.841589 L 352.204895 507.060446 C 352.204895 507.060446 347.875527 522.57891 343.999757 534.09053 C 341.612158 541.259335 349.630482 543.567878 353.648483 535.618119 C 361.112961 520.902338 366.716921 504.635755 366.716921 504.635755 C 366.716921 504.635755 348.000022 461.467657 338.534938 463.238108 Z M 338.534938 463.238108 " transform="matrix(-0.111398, -0.0111881, -0.0174854, 0.116696, 70.355109, -37.992994)"/>
<path fill-rule="nonzero" fill="rgb(100%, 100%, 100%)" fill-opacity="1" stroke-width="5.9" stroke-linecap="butt" stroke-linejoin="miter" stroke="rgb(100%, 100%, 100%)" stroke-opacity="1" stroke-miterlimit="4" d="M 286.860864 449.496186 C 286.872046 454.642488 283.154015 458.797564 278.569577 458.808567 C 273.986271 458.795067 270.27863 454.642626 270.288187 449.496386 C 270.275873 444.374587 273.993905 440.219511 278.578343 440.208508 C 283.161649 440.222007 286.86929 444.374449 286.860864 449.496186 Z M 286.860864 449.496186 " transform="matrix(0.188328, -0.00046949, 0.00869928, 0.159399, -32.586506, -61.378059)"/>
</svg>
