<?xml version="1.0" encoding="UTF-8"?>
<svg xmlns="http://www.w3.org/2000/svg" xmlns:xlink="http://www.w3.org/1999/xlink" width="28" height="28" viewBox="0 0 28 28">
<defs>
<filter id="filter-remove-color" x="0%" y="0%" width="100%" height="100%">
<feColorMatrix color-interpolation-filters="sRGB" values="0 0 0 0 1 0 0 0 0 1 0 0 0 0 1 0 0 0 1 0" />
</filter>
<mask id="mask-0">
<g filter="url(#filter-remove-color)">
<rect x="-2.8" y="-2.8" width="33.6" height="33.6" fill="rgb(0%, 0%, 0%)" fill-opacity="0.8"/>
</g>
</mask>
<clipPath id="clip-0">
<rect x="0" y="0" width="28" height="28"/>
</clipPath>
<g id="source-13" clip-path="url(#clip-0)">
<path fill-rule="nonzero" fill="rgb(100%, 100%, 100%)" fill-opacity="1" d="M 4.441406 13.550781 C 1.144531 15.132812 -0.257812 19.117188 1.324219 22.414062 C 2.488281 24.835938 4.792969 26.535156 7.328125 26.472656 L 7.554688 23.453125 C 5.871094 23.894531 4.578125 23.277344 3.691406 21.425781 C 2.609375 19.179688 3.335938 16.6875 5.585938 15.609375 C 6.210938 15.308594 6.558594 15.449219 7.300781 15.375 L 6.835938 12.917969 C 6.027344 12.972656 5.214844 13.179688 4.441406 13.550781 Z M 4.441406 13.550781 "/>
</g>
<mask id="mask-1">
<g filter="url(#filter-remove-color)">
<rect x="-2.8" y="-2.8" width="33.6" height="33.6" fill="rgb(0%, 0%, 0%)" fill-opacity="0.8"/>
</g>
</mask>
<clipPath id="clip-1">
<rect x="0" y="0" width="28" height="28"/>
</clipPath>
<g id="source-20" clip-path="url(#clip-1)">
<path fill-rule="nonzero" fill="rgb(100%, 100%, 100%)" fill-opacity="1" d="M 18.574219 3.671875 C 22.058594 2.574219 25.808594 4.527344 26.902344 8.015625 C 27.710938 10.578125 27.1875 13.394531 25.292969 15.082031 L 23.066406 13.027344 C 24.597656 12.203125 25.117188 10.867188 24.5 8.910156 C 23.753906 6.53125 21.523438 5.207031 19.144531 5.957031 C 18.480469 6.164062 18.324219 6.507812 17.730469 6.960938 L 16.390625 4.84375 C 17.023438 4.332031 17.753906 3.929688 18.574219 3.671875 Z M 18.574219 3.671875 "/>
</g>
</defs>
<path fill-rule="nonzero" fill="rgb(6.666667%, 6.666667%, 6.666667%)" fill-opacity="1" stroke-width="3.408" stroke-linecap="butt" stroke-linejoin="miter" stroke="rgb(93.333333%, 93.333333%, 93.333333%)" stroke-opacity="1" stroke-miterlimit="4" d="M 66.269531 1.780134 C 24.921875 1.780134 1.699219 23.141741 1.699219 66.835938 L 1.699219 516.967076 C 1.699219 557.748326 22.575335 579.190848 63.922991 579.190848 L 515.915179 579.190848 C 557.262835 579.190848 578.138951 558.881138 578.138951 516.967076 L 578.138951 66.835938 C 578.138951 24.193638 557.262835 1.780134 514.620536 1.780134 C 514.620536 1.780134 66.107701 1.618304 66.269531 1.780134 Z M 66.269531 1.780134 " transform="matrix(0.0482759, 0, 0, 0.0482759, 0, 0)"/>
<path fill-rule="nonzero" fill="rgb(100%, 100%, 100%)" fill-opacity="1" d="M 7.449219 11.320312 C 7.527344 11.921875 8.023438 12.363281 8.542969 12.296875 L 9.042969 12.234375 C 9.5625 12.167969 9.929688 11.613281 9.855469 11.015625 L 9.59375 8.96875 C 9.515625 8.371094 9.019531 7.929688 8.5 7.996094 L 8 8.058594 C 7.480469 8.125 7.113281 8.679688 7.1875 9.277344 Z M 8.417969 11.175781 C 8.152344 10.9375 7.964844 9.476562 8.164062 9.175781 C 8.363281 8.878906 8.355469 8.878906 8.621094 9.117188 C 8.890625 9.355469 9.078125 10.816406 8.878906 11.117188 C 8.679688 11.414062 8.6875 11.414062 8.417969 11.175781 Z M 8.417969 11.175781 "/>
<path fill-rule="nonzero" fill="rgb(100%, 100%, 100%)" fill-opacity="1" d="M 13.21875 5.601562 C 13.730469 5.972656 14.417969 5.933594 14.722656 5.519531 L 15.019531 5.121094 C 15.324219 4.707031 15.148438 4.054688 14.636719 3.683594 L 12.875 2.425781 C 12.363281 2.058594 11.675781 2.097656 11.371094 2.511719 L 11.074219 2.910156 C 10.769531 3.324219 10.941406 3.976562 11.457031 4.34375 Z M 13.769531 4.8125 C 13.402344 4.832031 12.144531 3.933594 12.050781 3.582031 C 11.960938 3.234375 11.957031 3.238281 12.324219 3.21875 C 12.691406 3.195312 13.949219 4.097656 14.042969 4.445312 C 14.132812 4.796875 14.136719 4.792969 13.769531 4.8125 Z M 13.769531 4.8125 "/>
<path fill-rule="nonzero" fill="rgb(100%, 100%, 100%)" fill-opacity="1" d="M 11.335938 4.089844 C 11.9375 4.035156 12.402344 3.558594 12.355469 3.035156 L 12.332031 3.511719 C 12.289062 2.992188 11.75 2.601562 11.148438 2.652344 L 9.09375 2.828125 C 8.492188 2.878906 8.027344 3.359375 8.074219 3.878906 L 8.097656 3.402344 C 8.144531 3.925781 8.683594 4.316406 9.285156 4.265625 Z M 11.230469 3.113281 C 10.980469 3.371094 9.511719 3.496094 9.222656 3.285156 C 8.933594 3.074219 8.953125 4.058594 9.203125 3.804688 C 9.449219 3.546875 10.917969 3.421875 11.207031 3.628906 C 11.496094 3.839844 11.476562 2.855469 11.230469 3.113281 Z M 11.230469 3.113281 "/>
<path fill-rule="nonzero" fill="rgb(100%, 100%, 100%)" fill-opacity="1" d="M 9.398438 4.542969 C 9.777344 4.035156 9.753906 3.351562 9.347656 3.035156 L 8.953125 2.730469 C 8.546875 2.417969 7.890625 2.578125 7.511719 3.085938 L 6.214844 4.816406 C 5.835938 5.324219 5.859375 6.007812 6.269531 6.324219 L 6.660156 6.628906 C 7.066406 6.941406 7.722656 6.78125 8.105469 6.273438 Z M 8.621094 3.972656 C 8.632812 4.339844 7.707031 5.578125 7.355469 5.664062 C 7.003906 5.75 7.007812 5.753906 6.996094 5.386719 C 6.980469 5.019531 7.90625 3.78125 8.257812 3.695312 C 8.613281 3.609375 8.605469 3.605469 8.621094 3.972656 Z M 8.621094 3.972656 "/>
<path fill-rule="nonzero" fill="rgb(100%, 100%, 100%)" fill-opacity="1" d="M 7.421875 8.550781 C 7.621094 9.121094 8.199219 9.449219 8.695312 9.277344 L 8.226562 9.371094 C 8.722656 9.199219 8.964844 8.582031 8.765625 8.011719 L 8.085938 6.066406 C 7.882812 5.496094 7.304688 5.167969 6.8125 5.339844 L 7.28125 5.246094 C 6.785156 5.417969 6.539062 6.039062 6.738281 6.605469 Z M 8.339844 8.203125 C 8.027344 8.027344 7.542969 6.636719 7.671875 6.304688 C 7.804688 5.972656 6.855469 6.234375 7.167969 6.414062 C 7.476562 6.589844 7.964844 7.980469 7.832031 8.3125 C 7.703125 8.644531 8.648438 8.382812 8.339844 8.203125 Z M 8.339844 8.203125 "/>
<path fill-rule="nonzero" fill="rgb(100%, 100%, 100%)" fill-opacity="1" d="M 4.617188 13.277344 C 4.242188 13.496094 4.375 14.265625 4.464844 14.667969 C 4.710938 15.289062 5.746094 16.058594 6.003906 15.855469 C 8.089844 14.855469 10.0625 15.652344 11.066406 17.738281 C 12.066406 19.820312 11.402344 21.996094 9.320312 22.996094 C 8.492188 23.394531 7.714844 22.863281 6.953125 23.390625 C 6.210938 23.902344 5.980469 24.46875 5.953125 25.007812 C 5.917969 25.578125 6.003906 26.421875 7.125 26.652344 C 8.277344 26.890625 9.0625 26.589844 10.179688 26.054688 C 13.636719 24.390625 15.265625 19.976562 13.605469 16.515625 C 11.941406 13.058594 8.074219 11.617188 4.617188 13.277344 Z M 4.617188 13.277344 "/>
<g mask="url(#mask-0)">
<use xlink:href="#source-13"/>
</g>
<path fill-rule="evenodd" fill="rgb(100%, 100%, 100%)" fill-opacity="1" d="M 7.238281 16.269531 L 8.277344 16.441406 C 10.40625 16.882812 11.34375 16.347656 11.648438 14.589844 C 11.953125 12.832031 8.625 10.84375 8.625 10.84375 C 8.625 10.84375 8.585938 10.835938 8.585938 10.835938 C 8.585938 10.835938 4.78125 11.585938 4.476562 13.34375 C 4.171875 15.101562 4.875 15.917969 7.023438 16.222656 L 8.0625 16.414062 "/>
<path fill-rule="nonzero" fill="rgb(100%, 100%, 100%)" fill-opacity="1" d="M 9.332031 24.941406 C 9.332031 25.917969 8.539062 26.707031 7.566406 26.707031 C 6.589844 26.707031 5.796875 25.917969 5.796875 24.941406 C 5.796875 23.964844 6.589844 23.171875 7.566406 23.171875 C 8.539062 23.171875 9.332031 23.964844 9.332031 24.941406 Z M 9.332031 24.941406 "/>
<path fill-rule="nonzero" fill="rgb(100%, 100%, 100%)" fill-opacity="1" d="M 18.261719 3.59375 C 18.679688 3.496094 19.109375 4.148438 19.320312 4.503906 C 19.5625 5.125 19.332031 6.394531 19.007812 6.425781 C 16.800781 7.117188 15.902344 9.046875 16.597656 11.253906 C 17.289062 13.457031 19.261719 14.59375 21.464844 13.902344 C 22.339844 13.628906 22.542969 12.707031 23.460938 12.570312 C 24.351562 12.441406 24.910156 12.699219 25.296875 13.070312 C 25.710938 13.464844 26.226562 14.136719 25.5625 15.074219 C 24.882812 16.035156 24.105469 16.351562 22.925781 16.71875 C 19.265625 17.871094 15.058594 15.757812 13.910156 12.097656 C 12.757812 8.4375 14.597656 4.742188 18.261719 3.59375 Z M 18.261719 3.59375 "/>
<g mask="url(#mask-1)">
<use xlink:href="#source-20"/>
</g>
<path fill-rule="evenodd" fill="rgb(100%, 100%, 100%)" fill-opacity="1" d="M 18.390625 7.566406 L 17.746094 8.40625 C 16.492188 10.175781 15.445312 10.429688 14.019531 9.355469 C 12.597656 8.277344 13.667969 4.554688 13.667969 4.554688 C 13.667969 4.554688 13.691406 4.523438 13.691406 4.523438 C 13.691406 4.523438 16.980469 2.46875 18.40625 3.542969 C 19.828125 4.621094 19.875 5.695312 18.511719 7.386719 L 17.882812 8.234375 "/>
<path fill-rule="nonzero" fill="rgb(100%, 100%, 100%)" fill-opacity="1" d="M 22.785156 15.332031 C 23.449219 16.042969 24.570312 16.082031 25.28125 15.414062 C 25.996094 14.746094 26.03125 13.628906 25.363281 12.914062 C 24.699219 12.203125 23.578125 12.164062 22.867188 12.832031 C 22.152344 13.5 22.117188 14.617188 22.785156 15.332031 Z M 22.785156 15.332031 "/>
</svg>
