<?xml version="1.0" encoding="UTF-8"?>
<svg xmlns="http://www.w3.org/2000/svg" xmlns:xlink="http://www.w3.org/1999/xlink" width="28" height="28" viewBox="0 0 28 28">
<defs>
<filter id="filter-remove-color" x="0%" y="0%" width="100%" height="100%">
<feColorMatrix color-interpolation-filters="sRGB" values="0 0 0 0 1 0 0 0 0 1 0 0 0 0 1 0 0 0 1 0" />
</filter>
<mask id="mask-0">
<g filter="url(#filter-remove-color)">
<rect x="-2.8" y="-2.8" width="33.6" height="33.6" fill="rgb(0%, 0%, 0%)" fill-opacity="0.8"/>
</g>
</mask>
<clipPath id="clip-0">
<rect x="0" y="0" width="28" height="28"/>
</clipPath>
<g id="source-13" clip-path="url(#clip-0)">
<path fill-rule="nonzero" fill="rgb(100%, 100%, 100%)" fill-opacity="1" d="M 6.476562 12.519531 C 4.128906 13.648438 3.125 16.488281 4.253906 18.835938 C 5.082031 20.5625 6.726562 21.773438 8.53125 21.730469 L 8.691406 19.578125 C 7.492188 19.894531 6.574219 19.453125 5.941406 18.132812 C 5.171875 16.53125 5.6875 14.757812 7.289062 13.988281 C 7.734375 13.773438 7.984375 13.875 8.515625 13.820312 L 8.179688 12.070312 C 7.605469 12.109375 7.027344 12.257812 6.476562 12.519531 Z M 6.476562 12.519531 "/>
</g>
<mask id="mask-1">
<g filter="url(#filter-remove-color)">
<rect x="-2.8" y="-2.8" width="33.6" height="33.6" fill="rgb(0%, 0%, 0%)" fill-opacity="0.8"/>
</g>
</mask>
<clipPath id="clip-1">
<rect x="0" y="0" width="28" height="28"/>
</clipPath>
<g id="source-20" clip-path="url(#clip-1)">
<path fill-rule="nonzero" fill="rgb(100%, 100%, 100%)" fill-opacity="1" d="M 16.367188 5.300781 C 18.851562 4.519531 21.519531 5.910156 22.300781 8.394531 C 22.875 10.222656 22.503906 12.226562 21.15625 13.429688 L 19.566406 11.96875 C 20.660156 11.378906 21.03125 10.429688 20.589844 9.03125 C 20.058594 7.335938 18.46875 6.394531 16.773438 6.925781 C 16.300781 7.074219 16.1875 7.320312 15.765625 7.644531 L 14.8125 6.136719 C 15.261719 5.769531 15.78125 5.484375 16.367188 5.300781 Z M 16.367188 5.300781 "/>
</g>
<mask id="mask-2">
<g filter="url(#filter-remove-color)">
<rect x="-2.8" y="-2.8" width="33.6" height="33.6" fill="rgb(0%, 0%, 0%)" fill-opacity="0.1"/>
</g>
</mask>
<clipPath id="clip-2">
<rect x="0" y="0" width="28" height="28"/>
</clipPath>
<g id="source-27" clip-path="url(#clip-2)">
<path fill-rule="evenodd" fill="rgb(100%, 100%, 100%)" fill-opacity="1" stroke-width="9.548326" stroke-linecap="round" stroke-linejoin="round" stroke="rgb(100%, 100%, 100%)" stroke-opacity="1" stroke-miterlimit="4" d="M 299.386161 552.8125 C 386.936384 492.287946 534.202009 481.526228 535.577567 343.242188 C 536.143973 281.261161 499.246652 261.679688 486.462054 185.053013 C 480.636161 150.016741 512.435826 85.203683 512.435826 85.203683 L 451.344866 39.243862 C 414.771205 62.385603 345.993304 76.303013 288.300781 28.724888 C 232.469308 78.487723 163.205915 67.159598 125.742188 45.393415 L 66.593192 93.618862 C 66.593192 93.618862 100.982143 157.218192 96.531808 192.416295 C 86.902902 269.447545 50.814732 290.404576 53.970424 352.304688 C 60.848214 490.426897 208.518415 495.767299 298.496094 552.97433 " transform="matrix(0.0482759, 0, 0, 0.0482759, 0, 0)"/>
</g>
</defs>
<path fill-rule="nonzero" fill="rgb(6.666667%, 6.666667%, 6.666667%)" fill-opacity="1" stroke-width="3.408" stroke-linecap="butt" stroke-linejoin="miter" stroke="rgb(93.333333%, 93.333333%, 93.333333%)" stroke-opacity="1" stroke-miterlimit="4" d="M 66.269531 1.780134 C 24.921875 1.780134 1.699219 23.141741 1.699219 66.835938 L 1.699219 516.967076 C 1.699219 557.748326 22.575335 579.190848 63.922991 579.190848 L 515.915179 579.190848 C 557.262835 579.190848 578.138951 558.881138 578.138951 516.967076 L 578.138951 66.835938 C 578.138951 24.193638 557.262835 1.780134 514.620536 1.780134 C 514.620536 1.780134 66.107701 1.618304 66.269531 1.780134 Z M 66.269531 1.780134 " transform="matrix(0.0482759, 0, 0, 0.0482759, 0, 0)"/>
<path fill-rule="nonzero" fill="rgb(100%, 100%, 100%)" fill-opacity="1" d="M 8.621094 10.933594 C 8.675781 11.359375 9.027344 11.675781 9.398438 11.628906 L 9.753906 11.582031 C 10.125 11.535156 10.386719 11.140625 10.332031 10.710938 L 10.144531 9.257812 C 10.089844 8.828125 9.738281 8.515625 9.367188 8.5625 L 9.011719 8.605469 C 8.640625 8.652344 8.378906 9.050781 8.433594 9.476562 Z M 9.308594 10.828125 C 9.121094 10.65625 8.988281 9.617188 9.128906 9.402344 C 9.269531 9.191406 9.265625 9.191406 9.453125 9.363281 C 9.644531 9.53125 9.777344 10.574219 9.636719 10.785156 C 9.496094 10.996094 9.5 10.996094 9.308594 10.828125 Z M 9.308594 10.828125 "/>
<path fill-rule="nonzero" fill="rgb(100%, 100%, 100%)" fill-opacity="1" d="M 12.546875 6.855469 C 12.914062 7.121094 13.402344 7.09375 13.621094 6.796875 L 13.832031 6.511719 C 14.050781 6.21875 13.925781 5.753906 13.558594 5.488281 L 12.304688 4.59375 C 11.9375 4.332031 11.449219 4.359375 11.234375 4.652344 L 11.023438 4.9375 C 10.804688 5.230469 10.929688 5.699219 11.296875 5.960938 Z M 12.941406 6.292969 C 12.679688 6.308594 11.785156 5.667969 11.71875 5.417969 C 11.652344 5.167969 11.648438 5.171875 11.910156 5.15625 C 12.171875 5.140625 13.070312 5.78125 13.136719 6.03125 C 13.203125 6.28125 13.207031 6.277344 12.941406 6.292969 Z M 12.941406 6.292969 "/>
<path fill-rule="nonzero" fill="rgb(100%, 100%, 100%)" fill-opacity="1" d="M 11.390625 5.777344 C 11.816406 5.738281 12.148438 5.398438 12.117188 5.027344 L 12.097656 5.367188 C 12.066406 4.996094 11.683594 4.714844 11.253906 4.753906 L 9.792969 4.878906 C 9.363281 4.917969 9.03125 5.257812 9.0625 5.628906 L 9.082031 5.289062 C 9.113281 5.660156 9.496094 5.941406 9.925781 5.902344 Z M 11.3125 5.082031 C 11.132812 5.265625 10.089844 5.355469 9.882812 5.207031 C 9.675781 5.054688 9.691406 5.757812 9.867188 5.574219 C 10.046875 5.390625 11.089844 5.300781 11.296875 5.449219 C 11.503906 5.601562 11.488281 4.898438 11.3125 5.082031 Z M 11.3125 5.082031 "/>
<path fill-rule="nonzero" fill="rgb(100%, 100%, 100%)" fill-opacity="1" d="M 10.007812 6.101562 C 10.277344 5.738281 10.261719 5.25 9.96875 5.027344 L 9.691406 4.8125 C 9.402344 4.585938 8.933594 4.699219 8.664062 5.0625 L 7.738281 6.296875 C 7.46875 6.65625 7.484375 7.144531 7.777344 7.371094 L 8.054688 7.585938 C 8.347656 7.8125 8.816406 7.695312 9.085938 7.335938 Z M 9.453125 5.695312 C 9.460938 5.957031 8.800781 6.839844 8.550781 6.902344 C 8.300781 6.960938 8.304688 6.964844 8.292969 6.703125 C 8.285156 6.441406 8.945312 5.558594 9.195312 5.496094 C 9.449219 5.433594 9.445312 5.433594 9.453125 5.695312 Z M 9.453125 5.695312 "/>
<path fill-rule="nonzero" fill="rgb(100%, 100%, 100%)" fill-opacity="1" d="M 8.597656 8.957031 C 8.742188 9.363281 9.152344 9.597656 9.507812 9.476562 L 9.171875 9.542969 C 9.523438 9.417969 9.699219 8.976562 9.558594 8.574219 L 9.070312 7.1875 C 8.929688 6.78125 8.515625 6.546875 8.164062 6.667969 L 8.496094 6.601562 C 8.144531 6.726562 7.972656 7.167969 8.113281 7.574219 Z M 9.253906 8.710938 C 9.03125 8.585938 8.683594 7.59375 8.777344 7.355469 C 8.871094 7.121094 8.195312 7.308594 8.417969 7.433594 C 8.640625 7.558594 8.988281 8.550781 8.894531 8.789062 C 8.800781 9.023438 9.472656 8.835938 9.253906 8.710938 Z M 9.253906 8.710938 "/>
<path fill-rule="nonzero" fill="rgb(100%, 100%, 100%)" fill-opacity="1" d="M 6.597656 12.328125 C 6.332031 12.480469 6.429688 13.027344 6.492188 13.316406 C 6.667969 13.757812 7.40625 14.308594 7.589844 14.164062 C 9.074219 13.449219 10.480469 14.019531 11.195312 15.503906 C 11.90625 16.988281 11.4375 18.539062 9.953125 19.253906 C 9.363281 19.535156 8.808594 19.15625 8.265625 19.53125 C 7.738281 19.898438 7.574219 20.300781 7.550781 20.683594 C 7.527344 21.089844 7.589844 21.691406 8.390625 21.855469 C 9.210938 22.027344 9.769531 21.8125 10.5625 21.429688 C 13.027344 20.246094 14.1875 17.101562 13.003906 14.632812 C 11.820312 12.167969 9.066406 11.144531 6.597656 12.328125 Z M 6.597656 12.328125 "/>
<g mask="url(#mask-0)">
<use xlink:href="#source-13"/>
</g>
<path fill-rule="evenodd" fill="rgb(100%, 100%, 100%)" fill-opacity="1" d="M 8.46875 14.457031 L 9.210938 14.582031 C 10.726562 14.894531 11.394531 14.511719 11.609375 13.261719 C 11.828125 12.007812 9.457031 10.589844 9.457031 10.589844 C 9.457031 10.589844 9.429688 10.585938 9.429688 10.585938 C 9.429688 10.585938 6.71875 11.121094 6.5 12.371094 C 6.285156 13.625 6.785156 14.207031 8.316406 14.425781 L 9.054688 14.558594 "/>
<path fill-rule="nonzero" fill="rgb(100%, 100%, 100%)" fill-opacity="1" d="M 9.960938 20.636719 C 9.960938 21.332031 9.398438 21.898438 8.699219 21.898438 C 8.003906 21.898438 7.441406 21.332031 7.441406 20.636719 C 7.441406 19.941406 8.003906 19.378906 8.699219 19.378906 C 9.398438 19.378906 9.960938 19.941406 9.960938 20.636719 Z M 9.960938 20.636719 "/>
<path fill-rule="nonzero" fill="rgb(100%, 100%, 100%)" fill-opacity="1" d="M 16.140625 5.242188 C 16.441406 5.175781 16.746094 5.640625 16.898438 5.894531 C 17.070312 6.335938 16.90625 7.238281 16.675781 7.261719 C 15.101562 7.753906 14.464844 9.132812 14.957031 10.703125 C 15.449219 12.273438 16.855469 13.085938 18.425781 12.589844 C 19.050781 12.394531 19.195312 11.738281 19.847656 11.644531 C 20.484375 11.550781 20.878906 11.730469 21.15625 11.996094 C 21.453125 12.277344 21.816406 12.757812 21.347656 13.425781 C 20.863281 14.109375 20.308594 14.335938 19.46875 14.597656 C 16.859375 15.417969 13.863281 13.914062 13.042969 11.304688 C 12.222656 8.695312 13.535156 6.0625 16.140625 5.242188 Z M 16.140625 5.242188 "/>
<g mask="url(#mask-1)">
<use xlink:href="#source-20"/>
</g>
<path fill-rule="evenodd" fill="rgb(100%, 100%, 100%)" fill-opacity="1" d="M 16.234375 8.074219 L 15.777344 8.671875 C 14.882812 9.9375 14.136719 10.113281 13.121094 9.347656 C 12.105469 8.582031 12.871094 5.929688 12.871094 5.929688 C 12.871094 5.929688 12.886719 5.90625 12.886719 5.90625 C 12.886719 5.90625 15.230469 4.445312 16.246094 5.210938 C 17.261719 5.976562 17.292969 6.742188 16.324219 7.949219 L 15.875 8.550781 "/>
<path fill-rule="nonzero" fill="rgb(100%, 100%, 100%)" fill-opacity="1" d="M 19.367188 13.609375 C 19.839844 14.117188 20.636719 14.144531 21.148438 13.667969 C 21.65625 13.191406 21.679688 12.394531 21.207031 11.886719 C 20.730469 11.378906 19.933594 11.351562 19.425781 11.828125 C 18.917969 12.304688 18.890625 13.101562 19.367188 13.609375 Z M 19.367188 13.609375 "/>
<path fill="none" stroke-width="16" stroke-linecap="round" stroke-linejoin="round" stroke="rgb(100%, 100%, 100%)" stroke-opacity="1" stroke-miterlimit="4" d="M 287.65346 25.083705 C 272.441406 36.978237 256.015625 48.387277 237.081473 53.727679 C 201.236049 65.136719 160.697545 60.443638 127.765067 42.399554 C 119.754464 41.914062 115.62779 50.329241 109.235491 53.727679 C 94.104353 66.269531 78.325893 78.083147 64.084821 91.595982 C 61.576451 97.34096 67.96875 101.791295 68.858817 107.131696 C 82.452567 136.989397 97.260045 169.274554 91.272321 202.935268 C 85.203683 245.739397 58.825335 282.555804 51.219308 325.036272 C 42.723214 379.896763 67.321429 439.450335 114.818638 469.227121 C 169.921875 507.580915 237.728795 520.527344 294.854911 554.99721 C 302.541853 558.638393 308.448661 550.223214 314.84096 547.633929 C 369.296875 514.620536 433.462612 499.084821 483.872768 458.950893 C 512.759487 437.34654 532.179129 404.171317 537.681362 368.487723 C 543.426339 334.988839 537.03404 299.952567 520.770089 270.256696 C 505.234375 237.000558 487.271205 202.207031 490.750558 164.419643 C 493.420759 137.070312 505.962612 111.986607 515.591518 86.579241 C 515.672433 79.782366 507.419085 78.325893 503.777902 73.875558 C 486.785714 61.010045 470.117188 46.849888 451.668527 36.169085 C 440.178571 38.677455 430.954241 47.65904 419.22154 49.762835 C 375.689174 64.165737 324.874442 54.941406 289.595424 25.245536 C 289.029018 25.00279 288.300781 24.921875 287.65346 25.083705 Z M 287.65346 25.083705 " transform="matrix(0.0482759, 0, 0, 0.0482759, 0, 0)"/>
<g mask="url(#mask-2)">
<use xlink:href="#source-27"/>
</g>
</svg>
