<?xml version="1.0" encoding="UTF-8"?>
<svg xmlns="http://www.w3.org/2000/svg" xmlns:xlink="http://www.w3.org/1999/xlink" width="28" height="28" viewBox="0 0 28 28">
<defs>
<filter id="filter-remove-color" x="0%" y="0%" width="100%" height="100%">
<feColorMatrix color-interpolation-filters="sRGB" values="0 0 0 0 1 0 0 0 0 1 0 0 0 0 1 0 0 0 1 0" />
</filter>
<mask id="mask-0">
<g filter="url(#filter-remove-color)">
<rect x="-2.8" y="-2.8" width="33.6" height="33.6" fill="rgb(0%, 0%, 0%)" fill-opacity="0.1"/>
</g>
</mask>
<clipPath id="clip-0">
<path clip-rule="nonzero" d="M 0 0 L 28 0 L 28 28 L 0 28 Z M 0 0 "/>
</clipPath>
<clipPath id="clip-1">
<rect x="0" y="0" width="28" height="28"/>
</clipPath>
<g id="source-9" clip-path="url(#clip-1)">
<path fill-rule="nonzero" fill="rgb(100%, 100%, 100%)" fill-opacity="1" d="M 27.253906 14.117188 C 27.253906 21.40625 21.347656 27.3125 14.0625 27.3125 C 6.777344 27.3125 0.871094 21.40625 0.871094 14.117188 C 0.871094 6.832031 6.777344 0.925781 14.0625 0.925781 C 21.347656 0.925781 27.253906 6.832031 27.253906 14.117188 Z M 27.253906 14.117188 "/>
<g clip-path="url(#clip-0)">
<path fill="none" stroke-width="25.137615" stroke-linecap="butt" stroke-linejoin="miter" stroke="rgb(100%, 100%, 100%)" stroke-opacity="1" stroke-miterlimit="4" d="M 505.682311 305.673753 C 505.682311 465.121417 376.483561 594.320167 217.121346 594.320167 C 57.759131 594.320167 -71.439619 465.121417 -71.439619 305.673753 C -71.439619 146.311538 57.759131 17.112788 217.121346 17.112788 C 376.483561 17.112788 505.682311 146.311538 505.682311 305.673753 Z M 505.682311 305.673753 " transform="matrix(0.0457145, 0, 0, 0.0457145, 4.136917, 0.14348)"/>
</g>
</g>
</defs>
<path fill-rule="nonzero" fill="rgb(6.666667%, 6.666667%, 6.666667%)" fill-opacity="1" stroke-width="3.408" stroke-linecap="butt" stroke-linejoin="miter" stroke="rgb(93.333333%, 93.333333%, 93.333333%)" stroke-opacity="1" stroke-miterlimit="4" d="M 66.269531 1.780134 C 24.921875 1.780134 1.699219 23.141741 1.699219 66.835938 L 1.699219 516.967076 C 1.699219 557.748326 22.575335 579.190848 63.922991 579.190848 L 515.915179 579.190848 C 557.262835 579.190848 578.138951 558.881138 578.138951 516.967076 L 578.138951 66.835938 C 578.138951 24.193638 557.262835 1.780134 514.620536 1.780134 C 514.620536 1.780134 66.107701 1.618304 66.269531 1.780134 Z M 66.269531 1.780134 " transform="matrix(0.0482759, 0, 0, 0.0482759, 0, 0)"/>
<path fill-rule="nonzero" fill="rgb(100%, 100%, 100%)" fill-opacity="1" d="M 6.363281 9.269531 L 11.019531 13.949219 L 6.363281 18.605469 Z M 20.847656 8.394531 L 15.113281 14.105469 C 14.828125 14.390625 14.46875 14.535156 14.03125 14.535156 C 13.582031 14.535156 13.207031 14.386719 12.90625 14.085938 L 7.21875 8.394531 Z M 21.75 18.605469 L 17.09375 13.949219 L 21.75 9.269531 Z M 7.195312 19.484375 L 11.875 14.828125 L 12.074219 15.03125 C 12.617188 15.554688 13.269531 15.816406 14.03125 15.816406 C 14.796875 15.816406 15.441406 15.554688 15.96875 15.03125 L 16.171875 14.828125 L 20.847656 19.484375 Z M 5.101562 20.742188 L 23.054688 20.742188 L 23.054688 7.113281 L 5.101562 7.113281 Z M 5.101562 20.742188 "/>
<path fill="none" stroke-width="25.137615" stroke-linecap="butt" stroke-linejoin="miter" stroke="rgb(100%, 100%, 100%)" stroke-opacity="1" stroke-miterlimit="4" d="M 505.682311 305.673753 C 505.682311 465.121417 376.483561 594.320167 217.121346 594.320167 C 57.759131 594.320167 -71.439619 465.121417 -71.439619 305.673753 C -71.439619 146.311538 57.759131 17.112788 217.121346 17.112788 C 376.483561 17.112788 505.682311 146.311538 505.682311 305.673753 Z M 505.682311 305.673753 " transform="matrix(0.0457145, 0, 0, 0.0457145, 4.136917, 0.14348)"/>
<g mask="url(#mask-0)">
<use xlink:href="#source-9"/>
</g>
</svg>
