<?xml version="1.0" encoding="UTF-8"?>
<svg xmlns="http://www.w3.org/2000/svg" xmlns:xlink="http://www.w3.org/1999/xlink" width="28" height="28" viewBox="0 0 28 28">
<path fill-rule="nonzero" fill="rgb(6.666667%, 6.666667%, 6.666667%)" fill-opacity="1" stroke-width="3.408" stroke-linecap="butt" stroke-linejoin="miter" stroke="rgb(93.333333%, 93.333333%, 93.333333%)" stroke-opacity="1" stroke-miterlimit="4" d="M 66.269531 1.780134 C 24.921875 1.780134 1.699219 23.141741 1.699219 66.835938 L 1.699219 516.967076 C 1.699219 557.748326 22.575335 579.190848 63.922991 579.190848 L 515.915179 579.190848 C 557.262835 579.190848 578.138951 558.881138 578.138951 516.967076 L 578.138951 66.835938 C 578.138951 24.193638 557.262835 1.780134 514.620536 1.780134 C 514.620536 1.780134 66.107701 1.618304 66.269531 1.780134 Z M 66.269531 1.780134 " transform="matrix(0.0482759, 0, 0, 0.0482759, 0, 0)"/>
<path fill-rule="nonzero" fill="rgb(100%, 100%, 100%)" fill-opacity="1" d="M 6.09375 9.109375 L 10.910156 13.949219 L 6.09375 18.769531 Z M 21.085938 8.199219 L 15.148438 14.113281 C 14.855469 14.410156 14.480469 14.554688 14.03125 14.554688 C 13.566406 14.554688 13.175781 14.402344 12.867188 14.089844 L 6.976562 8.199219 Z M 22.015625 18.769531 L 17.199219 13.949219 L 22.015625 9.109375 Z M 6.953125 19.679688 L 11.796875 14.859375 L 12.003906 15.070312 C 12.566406 15.613281 13.238281 15.882812 14.03125 15.882812 C 14.824219 15.882812 15.492188 15.613281 16.035156 15.070312 L 16.242188 14.859375 L 21.085938 19.679688 Z M 4.789062 20.980469 L 23.367188 20.980469 L 23.367188 6.871094 L 4.789062 6.871094 Z M 4.789062 20.980469 "/>
</svg>
