<?xml version="1.0" encoding="UTF-8"?>
<svg xmlns="http://www.w3.org/2000/svg" xmlns:xlink="http://www.w3.org/1999/xlink" width="28" height="28" viewBox="0 0 28 28">
<defs>
<filter id="filter-remove-color" x="0%" y="0%" width="100%" height="100%">
<feColorMatrix color-interpolation-filters="sRGB" values="0 0 0 0 1 0 0 0 0 1 0 0 0 0 1 0 0 0 1 0" />
</filter>
<mask id="mask-0">
<g filter="url(#filter-remove-color)">
<rect x="-2.8" y="-2.8" width="33.6" height="33.6" fill="rgb(0%, 0%, 0%)" fill-opacity="0.5"/>
</g>
</mask>
<clipPath id="clip-0">
<rect x="0" y="0" width="28" height="28"/>
</clipPath>
<g id="source-7" clip-path="url(#clip-0)">
<path fill-rule="nonzero" fill="rgb(100%, 100%, 100%)" fill-opacity="1" d="M 14.484375 3.730469 C 13.53125 3.730469 12.695312 4.074219 11.988281 4.765625 C 11.28125 5.457031 10.929688 6.292969 10.929688 7.285156 C 10.929688 8.273438 11.28125 9.117188 11.988281 9.808594 C 12.695312 10.5 13.53125 10.839844 14.484375 10.839844 C 14.519531 10.839844 14.554688 10.839844 14.589844 10.839844 C 14.625 10.839844 14.660156 10.839844 14.695312 10.839844 C 15.652344 10.839844 16.484375 10.5 17.191406 9.808594 C 17.898438 9.117188 18.25 8.273438 18.25 7.285156 C 18.25 6.292969 17.898438 5.457031 17.191406 4.765625 C 16.484375 4.074219 15.652344 3.730469 14.695312 3.730469 C 14.660156 3.730469 14.625 3.730469 14.589844 3.730469 C 14.554688 3.730469 14.519531 3.730469 14.484375 3.730469 Z M 11.777344 11.058594 C 11.5625 11.058594 11.367188 11.082031 11.191406 11.128906 C 11.078125 11.117188 10.960938 11.113281 10.847656 11.117188 C 9.171875 11.15625 7.847656 12.542969 7.886719 14.21875 L 7.949219 21.285156 C 7.941406 22.378906 8.527344 23.390625 9.476562 23.933594 C 9.667969 24.046875 9.871094 24.132812 10.082031 24.199219 L 10.082031 25.390625 L 14.589844 25.261719 L 19.101562 25.390625 L 19.101562 24.0625 C 19.203125 24.015625 19.300781 23.964844 19.398438 23.90625 C 20.335938 23.347656 20.902344 22.328125 20.878906 21.234375 L 20.816406 14.160156 C 20.820312 13.34375 20.492188 12.554688 19.910156 11.980469 C 19.382812 11.464844 18.6875 11.160156 17.957031 11.121094 C 17.789062 11.078125 17.605469 11.058594 17.40625 11.058594 Z M 11.777344 11.058594 "/>
</g>
</defs>
<path fill-rule="nonzero" fill="rgb(6.666667%, 6.666667%, 6.666667%)" fill-opacity="1" stroke-width="3.408" stroke-linecap="butt" stroke-linejoin="miter" stroke="rgb(93.333333%, 93.333333%, 93.333333%)" stroke-opacity="1" stroke-miterlimit="4" d="M 66.269531 1.780134 C 24.921875 1.780134 1.699219 23.141741 1.699219 66.835938 L 1.699219 516.967076 C 1.699219 557.748326 22.575335 579.190848 63.922991 579.190848 L 515.915179 579.190848 C 557.262835 579.190848 578.138951 558.800223 578.138951 516.967076 L 578.138951 66.835938 C 578.138951 24.193638 557.262835 1.780134 514.620536 1.780134 C 514.620536 1.780134 66.107701 1.618304 66.269531 1.780134 Z M 66.269531 1.780134 " transform="matrix(0.0482759, 0, 0, 0.0482759, 0, 0)"/>
<g mask="url(#mask-0)">
<use xlink:href="#source-7"/>
</g>
<path fill-rule="nonzero" fill="rgb(100%, 100%, 100%)" fill-opacity="1" stroke-width="13.244785" stroke-linecap="round" stroke-linejoin="round" stroke="rgb(100%, 100%, 100%)" stroke-opacity="1" stroke-miterlimit="4" d="M 384.508929 47.739955 C 382.243304 47.739955 380.301339 47.982701 378.925781 49.034598 C 378.925781 170.488281 378.925781 292.022879 378.925781 413.557478 C 380.058594 403.28125 385.560826 392.924107 395.998884 390.658482 C 395.998884 276.40625 395.998884 162.154018 395.998884 47.901786 C 392.681362 48.387277 388.311942 47.65904 384.508929 47.739955 Z M 378.925781 421.891741 C 378.925781 461.782924 378.925781 501.593192 378.925781 541.484375 C 384.266183 540.675223 392.438616 543.102679 395.998884 540.351562 C 395.998884 508.632812 395.998884 476.833147 395.998884 445.033482 C 385.884487 443.496094 379.411272 431.601562 378.925781 421.891741 Z M 378.925781 421.891741 " transform="matrix(0.0482759, 0, 0, 0.0482759, 0, 0)"/>
<path fill-rule="nonzero" fill="rgb(100%, 100%, 100%)" fill-opacity="1" stroke-width="13.244785" stroke-linecap="round" stroke-linejoin="round" stroke="rgb(100%, 100%, 100%)" stroke-opacity="1" stroke-miterlimit="4" d="M 211.835938 47.739955 C 209.570312 47.739955 207.628348 47.982701 206.25279 49.034598 C 206.25279 162.882254 206.25279 276.729911 206.25279 390.658482 C 215.234375 391.953125 221.222098 401.339286 222.840402 409.835379 C 223.002232 410.806362 223.164062 411.858259 223.325893 412.910156 C 223.325893 291.294643 223.325893 169.598214 223.325893 47.901786 C 220.008371 48.387277 215.558036 47.65904 211.835938 47.739955 Z M 223.325893 423.105469 C 222.03125 433.058036 216.771763 442.444196 206.657366 445.033482 C 206.576451 445.114397 206.414621 445.114397 206.25279 445.114397 C 206.25279 477.237723 206.25279 509.361049 206.25279 541.484375 C 211.593192 540.675223 219.68471 543.102679 223.325893 540.351562 C 223.325893 501.269531 223.325893 462.1875 223.325893 423.105469 Z M 223.325893 423.105469 " transform="matrix(0.0482759, 0, 0, 0.0482759, 0, 0)"/>
<path fill-rule="nonzero" fill="rgb(100%, 100%, 100%)" fill-opacity="1" stroke-width="13.244785" stroke-linecap="round" stroke-linejoin="round" stroke="rgb(100%, 100%, 100%)" stroke-opacity="1" stroke-miterlimit="4" d="M 510.898438 541.484375 C 516.238839 540.675223 524.411272 543.102679 528.052455 540.351562 C 528.052455 376.174665 528.052455 212.078683 528.052455 47.901786 C 522.712054 48.710938 514.539621 46.283482 510.898438 49.034598 C 510.898438 213.211496 510.898438 377.307478 510.898438 541.484375 Z M 510.898438 541.484375 " transform="matrix(0.0482759, 0, 0, 0.0482759, 0, 0)"/>
<path fill-rule="nonzero" fill="rgb(100%, 100%, 100%)" fill-opacity="1" stroke-width="13.244785" stroke-linecap="round" stroke-linejoin="round" stroke="rgb(100%, 100%, 100%)" stroke-opacity="1" stroke-miterlimit="4" d="M 54.21317 541.484375 C 59.553571 540.675223 67.726004 543.102679 71.367188 540.351562 C 71.367188 376.174665 71.367188 212.078683 71.367188 47.901786 C 66.026786 48.710938 57.854353 46.283482 54.21317 49.034598 C 54.21317 213.211496 54.21317 377.307478 54.21317 541.484375 Z M 54.21317 541.484375 " transform="matrix(0.0482759, 0, 0, 0.0482759, 0, 0)"/>
<path fill-rule="nonzero" fill="rgb(100%, 100%, 100%)" fill-opacity="1" stroke-width="13.054887" stroke-linecap="round" stroke-linejoin="round" stroke="rgb(100%, 100%, 100%)" stroke-opacity="1" stroke-miterlimit="4" d="M 528.295201 46.526228 C 527.486049 41.185826 529.832589 32.932478 527.243304 29.291295 C 369.539621 29.291295 211.755022 29.291295 54.051339 29.291295 C 54.860491 34.631696 52.513951 42.885045 55.103237 46.526228 C 212.887835 46.526228 370.591518 46.526228 528.295201 46.526228 Z M 528.295201 46.526228 " transform="matrix(0.0482759, 0, 0, 0.0482759, 0, 0)"/>
<path fill-rule="nonzero" fill="rgb(100%, 100%, 100%)" fill-opacity="1" stroke-width="13.054887" stroke-linecap="round" stroke-linejoin="round" stroke="rgb(100%, 100%, 100%)" stroke-opacity="1" stroke-miterlimit="4" d="M 528.295201 552.569754 C 527.486049 547.229353 529.832589 538.895089 527.243304 535.253906 C 369.539621 535.253906 211.755022 535.253906 54.051339 535.253906 C 54.860491 540.594308 52.513951 548.928571 55.103237 552.569754 C 212.887835 552.569754 370.591518 552.569754 528.295201 552.569754 Z M 528.295201 552.569754 " transform="matrix(0.0482759, 0, 0, 0.0482759, 0, 0)"/>
</svg>
