<?xml version="1.0" encoding="UTF-8"?>
<svg xmlns="http://www.w3.org/2000/svg" xmlns:xlink="http://www.w3.org/1999/xlink" width="28" height="28" viewBox="0 0 28 28">
<defs>
<filter id="filter-remove-color" x="0%" y="0%" width="100%" height="100%">
<feColorMatrix color-interpolation-filters="sRGB" values="0 0 0 0 1 0 0 0 0 1 0 0 0 0 1 0 0 0 1 0" />
</filter>
<mask id="mask-0">
<g filter="url(#filter-remove-color)">
<rect x="-2.8" y="-2.8" width="33.6" height="33.6" fill="rgb(0%, 0%, 0%)" fill-opacity="0.2"/>
</g>
</mask>
<clipPath id="clip-0">
<rect x="0" y="0" width="28" height="28"/>
</clipPath>
<g id="source-7" clip-path="url(#clip-0)">
<path fill-rule="evenodd" fill="rgb(100%, 100%, 100%)" fill-opacity="1" stroke-width="1.24142" stroke-linecap="butt" stroke-linejoin="miter" stroke="rgb(100%, 100%, 100%)" stroke-opacity="1" stroke-miterlimit="4" d="M 286.925223 44.017857 L 34.874442 235.948661 L 85.284598 235.948661 L 85.284598 543.75 L 488.565848 543.75 L 488.565848 235.948661 L 538.976004 235.948661 Z M 286.925223 44.017857 " transform="matrix(0.0482759, 0, 0, 0.0482759, 0, 0)"/>
</g>
</defs>
<path fill-rule="nonzero" fill="rgb(6.666667%, 6.666667%, 6.666667%)" fill-opacity="1" stroke-width="3.408" stroke-linecap="butt" stroke-linejoin="miter" stroke="rgb(93.333333%, 93.333333%, 93.333333%)" stroke-opacity="1" stroke-miterlimit="4" d="M 66.269531 1.780134 C 24.921875 1.780134 1.699219 23.141741 1.699219 66.835938 L 1.699219 516.967076 C 1.699219 557.748326 22.575335 579.190848 63.922991 579.190848 L 515.915179 579.190848 C 557.262835 579.190848 578.138951 558.881138 578.138951 516.967076 L 578.138951 66.835938 C 578.138951 24.193638 557.262835 1.780134 514.620536 1.780134 C 514.620536 1.780134 66.107701 1.618304 66.269531 1.780134 Z M 66.269531 1.780134 " transform="matrix(0.0482759, 0, 0, 0.0482759, 0, 0)"/>
<g mask="url(#mask-0)">
<use xlink:href="#source-7"/>
</g>
<path fill="none" stroke-width="20" stroke-linecap="butt" stroke-linejoin="round" stroke="rgb(100%, 100%, 100%)" stroke-opacity="1" stroke-miterlimit="4" d="M 286.925223 33.984375 L 34.874442 225.915179 L 85.284598 225.915179 L 85.284598 543.75 L 488.565848 543.75 L 488.565848 225.915179 L 538.976004 225.915179 Z M 286.925223 33.984375 " transform="matrix(0.0482759, 0, 0, 0.0482759, 0, 0)"/>
<path fill-rule="nonzero" fill="rgb(100%, 100%, 100%)" fill-opacity="1" d="M 9.800781 14.667969 C 9.351562 14.667969 8.960938 14.828125 8.628906 15.152344 C 8.296875 15.476562 8.132812 15.867188 8.132812 16.332031 C 8.132812 16.796875 8.296875 17.191406 8.628906 17.515625 C 8.960938 17.839844 9.351562 18 9.800781 18 C 9.816406 18 9.832031 18 9.847656 17.996094 C 9.863281 18 9.882812 18 9.898438 18 C 10.347656 18 10.734375 17.839844 11.066406 17.515625 C 11.398438 17.191406 11.5625 16.796875 11.5625 16.332031 C 11.5625 15.867188 11.398438 15.476562 11.066406 15.152344 C 10.734375 14.828125 10.347656 14.667969 9.898438 14.667969 C 9.882812 14.667969 9.863281 14.667969 9.847656 14.667969 C 9.832031 14.667969 9.816406 14.667969 9.800781 14.667969 Z M 8.53125 18.371094 C 8.050781 18.371094 7.785156 18.621094 7.734375 19.117188 L 7.734375 25.085938 L 9.847656 25.023438 L 11.960938 25.085938 L 11.960938 19.117188 C 11.910156 18.621094 11.648438 18.371094 11.167969 18.371094 Z M 8.53125 18.371094 "/>
<path fill-rule="evenodd" fill="rgb(100%, 100%, 100%)" fill-opacity="1" stroke-width="67.09684" stroke-linecap="round" stroke-linejoin="miter" stroke="rgb(100%, 100%, 100%)" stroke-opacity="1" stroke-miterlimit="4" d="M 79.021292 243.025653 L 78.375141 164.841375 " transform="matrix(0.0423179, 0, 0, 0.0423179, 4.812236, 12.864104)"/>
<path fill-rule="evenodd" fill="rgb(100%, 100%, 100%)" fill-opacity="1" stroke-width="67.09684" stroke-linecap="round" stroke-linejoin="miter" stroke="rgb(100%, 100%, 100%)" stroke-opacity="1" stroke-miterlimit="4" d="M 155.082502 243.025653 L 154.344044 164.841375 " transform="matrix(0.0423179, 0, 0, 0.0423179, 4.812236, 12.864104)"/>
<path fill-rule="nonzero" fill="rgb(100%, 100%, 100%)" fill-opacity="1" d="M 17.839844 14.667969 C 17.390625 14.667969 17.003906 14.828125 16.671875 15.152344 C 16.339844 15.476562 16.171875 15.867188 16.171875 16.332031 C 16.171875 16.796875 16.339844 17.191406 16.671875 17.515625 C 17.003906 17.839844 17.390625 18 17.839844 18 C 17.855469 18 17.871094 18 17.886719 17.996094 C 17.90625 18 17.921875 18 17.9375 18 C 18.386719 18 18.773438 17.839844 19.105469 17.515625 C 19.4375 17.191406 19.605469 16.796875 19.605469 16.332031 C 19.605469 15.867188 19.4375 15.476562 19.105469 15.152344 C 18.773438 14.828125 18.386719 14.667969 17.9375 14.667969 C 17.921875 14.667969 17.90625 14.667969 17.886719 14.667969 C 17.871094 14.667969 17.855469 14.667969 17.839844 14.667969 Z M 16.570312 18.371094 C 16.089844 18.371094 15.824219 18.621094 15.777344 19.117188 L 15.777344 25.085938 L 17.886719 25.023438 L 20 25.085938 L 20 19.117188 C 19.953125 18.621094 19.6875 18.371094 19.207031 18.371094 Z M 16.570312 18.371094 "/>
<path fill-rule="evenodd" fill="rgb(100%, 100%, 100%)" fill-opacity="1" stroke-width="67.09684" stroke-linecap="round" stroke-linejoin="miter" stroke="rgb(100%, 100%, 100%)" stroke-opacity="1" stroke-miterlimit="4" d="M 79.082006 243.025653 L 78.343548 164.841375 " transform="matrix(0.0423179, 0, 0, 0.0423179, 12.852635, 12.864104)"/>
<path fill-rule="evenodd" fill="rgb(100%, 100%, 100%)" fill-opacity="1" stroke-width="67.09684" stroke-linecap="round" stroke-linejoin="miter" stroke="rgb(100%, 100%, 100%)" stroke-opacity="1" stroke-miterlimit="4" d="M 155.050909 243.025653 L 154.404757 164.841375 " transform="matrix(0.0423179, 0, 0, 0.0423179, 12.852635, 12.864104)"/>
<path fill-rule="nonzero" fill="rgb(100%, 100%, 100%)" fill-opacity="1" d="M 8.921875 7.894531 C 8.671875 7.894531 8.453125 7.984375 8.269531 8.164062 C 8.085938 8.34375 7.992188 8.5625 7.992188 8.824219 C 7.992188 9.082031 8.085938 9.300781 8.269531 9.480469 C 8.453125 9.664062 8.671875 9.753906 8.921875 9.753906 C 8.929688 9.753906 8.941406 9.753906 8.949219 9.75 C 8.957031 9.753906 8.96875 9.753906 8.976562 9.753906 C 9.226562 9.753906 9.445312 9.664062 9.628906 9.480469 C 9.816406 9.300781 9.90625 9.082031 9.90625 8.824219 C 9.90625 8.5625 9.816406 8.34375 9.628906 8.164062 C 9.445312 7.984375 9.226562 7.894531 8.976562 7.894531 C 8.96875 7.894531 8.957031 7.894531 8.949219 7.894531 C 8.941406 7.894531 8.929688 7.894531 8.921875 7.894531 Z M 8.214844 9.960938 C 7.945312 9.960938 7.796875 10.097656 7.769531 10.378906 L 7.769531 13.707031 L 8.949219 13.671875 L 10.128906 13.707031 L 10.128906 10.378906 C 10.101562 10.097656 9.953125 9.960938 9.6875 9.960938 Z M 8.214844 9.960938 "/>
<path fill-rule="evenodd" fill="rgb(100%, 100%, 100%)" fill-opacity="1" stroke-width="67.09684" stroke-linecap="round" stroke-linejoin="miter" stroke="rgb(100%, 100%, 100%)" stroke-opacity="1" stroke-miterlimit="4" d="M 79.131012 243.107666 L 78.30419 164.890352 " transform="matrix(0.0236221, 0, 0, 0.0236221, 6.138573, 6.886196)"/>
<path fill-rule="evenodd" fill="rgb(100%, 100%, 100%)" fill-opacity="1" stroke-width="67.09684" stroke-linecap="round" stroke-linejoin="miter" stroke="rgb(100%, 100%, 100%)" stroke-opacity="1" stroke-miterlimit="4" d="M 155.033225 243.107666 L 154.371768 164.890352 " transform="matrix(0.0236221, 0, 0, 0.0236221, 6.138573, 6.886196)"/>
<path fill-rule="nonzero" fill="rgb(100%, 100%, 100%)" fill-opacity="1" d="M 13.75 7.894531 C 13.5 7.894531 13.28125 7.984375 13.097656 8.164062 C 12.914062 8.34375 12.820312 8.5625 12.820312 8.824219 C 12.820312 9.082031 12.914062 9.300781 13.097656 9.480469 C 13.28125 9.664062 13.5 9.753906 13.75 9.753906 C 13.757812 9.753906 13.769531 9.753906 13.777344 9.75 C 13.785156 9.753906 13.796875 9.753906 13.804688 9.753906 C 14.054688 9.753906 14.273438 9.664062 14.457031 9.480469 C 14.640625 9.300781 14.734375 9.082031 14.734375 8.824219 C 14.734375 8.5625 14.640625 8.34375 14.457031 8.164062 C 14.273438 7.984375 14.054688 7.894531 13.804688 7.894531 C 13.796875 7.894531 13.785156 7.894531 13.777344 7.894531 C 13.769531 7.894531 13.757812 7.894531 13.75 7.894531 Z M 13.042969 9.960938 C 12.773438 9.960938 12.625 10.097656 12.597656 10.378906 L 12.597656 13.707031 L 13.777344 13.671875 L 14.957031 13.707031 L 14.957031 10.378906 C 14.929688 10.097656 14.78125 9.960938 14.511719 9.960938 Z M 13.042969 9.960938 "/>
<path fill-rule="evenodd" fill="rgb(100%, 100%, 100%)" fill-opacity="1" stroke-width="67.09684" stroke-linecap="round" stroke-linejoin="miter" stroke="rgb(100%, 100%, 100%)" stroke-opacity="1" stroke-miterlimit="4" d="M 78.988472 243.107666 L 78.327015 164.890352 " transform="matrix(0.0236221, 0, 0, 0.0236221, 10.966159, 6.886196)"/>
<path fill-rule="evenodd" fill="rgb(100%, 100%, 100%)" fill-opacity="1" stroke-width="67.09684" stroke-linecap="round" stroke-linejoin="miter" stroke="rgb(100%, 100%, 100%)" stroke-opacity="1" stroke-miterlimit="4" d="M 155.05605 243.107666 L 154.394592 164.890352 " transform="matrix(0.0236221, 0, 0, 0.0236221, 10.966159, 6.886196)"/>
<path fill-rule="nonzero" fill="rgb(100%, 100%, 100%)" fill-opacity="1" d="M 18.578125 7.894531 C 18.328125 7.894531 18.109375 7.984375 17.925781 8.164062 C 17.738281 8.34375 17.648438 8.5625 17.648438 8.824219 C 17.648438 9.082031 17.738281 9.300781 17.925781 9.480469 C 18.109375 9.664062 18.328125 9.753906 18.578125 9.753906 C 18.585938 9.753906 18.59375 9.753906 18.605469 9.75 C 18.613281 9.753906 18.625 9.753906 18.632812 9.753906 C 18.882812 9.753906 19.097656 9.664062 19.285156 9.480469 C 19.46875 9.300781 19.5625 9.082031 19.5625 8.824219 C 19.5625 8.5625 19.46875 8.34375 19.285156 8.164062 C 19.097656 7.984375 18.882812 7.894531 18.632812 7.894531 C 18.625 7.894531 18.613281 7.894531 18.605469 7.894531 C 18.59375 7.894531 18.585938 7.894531 18.578125 7.894531 Z M 17.871094 9.960938 C 17.601562 9.960938 17.453125 10.097656 17.425781 10.378906 L 17.425781 13.707031 L 18.605469 13.671875 L 19.785156 13.707031 L 19.785156 10.378906 C 19.757812 10.097656 19.609375 9.960938 19.339844 9.960938 Z M 17.871094 9.960938 "/>
<path fill-rule="evenodd" fill="rgb(100%, 100%, 100%)" fill-opacity="1" stroke-width="67.09684" stroke-linecap="round" stroke-linejoin="miter" stroke="rgb(100%, 100%, 100%)" stroke-opacity="1" stroke-miterlimit="4" d="M 79.011249 243.107666 L 78.349792 164.890352 " transform="matrix(0.0236221, 0, 0, 0.0236221, 15.793746, 6.886196)"/>
<path fill-rule="evenodd" fill="rgb(100%, 100%, 100%)" fill-opacity="1" stroke-width="67.09684" stroke-linecap="round" stroke-linejoin="miter" stroke="rgb(100%, 100%, 100%)" stroke-opacity="1" stroke-miterlimit="4" d="M 155.078827 243.107666 L 154.41737 164.890352 " transform="matrix(0.0236221, 0, 0, 0.0236221, 15.793746, 6.886196)"/>
</svg>
