<?xml version="1.0" encoding="UTF-8"?>
<svg xmlns="http://www.w3.org/2000/svg" xmlns:xlink="http://www.w3.org/1999/xlink" width="28" height="28" viewBox="0 0 28 28">
<defs>
<filter id="filter-remove-color" x="0%" y="0%" width="100%" height="100%">
<feColorMatrix color-interpolation-filters="sRGB" values="0 0 0 0 1 0 0 0 0 1 0 0 0 0 1 0 0 0 1 0" />
</filter>
<mask id="mask-0">
<g filter="url(#filter-remove-color)">
<rect x="-2.8" y="-2.8" width="33.6" height="33.6" fill="rgb(0%, 0%, 0%)" fill-opacity="0.2"/>
</g>
</mask>
<clipPath id="clip-0">
<rect x="0" y="0" width="28" height="28"/>
</clipPath>
<g id="source-10" clip-path="url(#clip-0)">
<path fill-rule="evenodd" fill="rgb(100%, 100%, 100%)" fill-opacity="1" stroke-width="1.24142" stroke-linecap="butt" stroke-linejoin="miter" stroke="rgb(100%, 100%, 100%)" stroke-opacity="1" stroke-miterlimit="4" d="M 286.957653 44.011648 L 34.861678 235.863703 L 85.280873 235.863703 L 85.280873 543.777074 L 488.634433 543.777074 L 488.634433 235.863703 L 539.053628 235.863703 Z M 286.957653 44.011648 " transform="matrix(0.036181, 0, 0, 0.036181, 3.555075, -0.135356)"/>
</g>
<mask id="mask-1">
<g filter="url(#filter-remove-color)">
<rect x="-2.8" y="-2.8" width="33.6" height="33.6" fill="rgb(0%, 0%, 0%)" fill-opacity="0.5"/>
</g>
</mask>
<clipPath id="clip-1">
<rect x="0" y="0" width="28" height="28"/>
</clipPath>
<g id="source-17" clip-path="url(#clip-1)">
<path fill-rule="nonzero" fill="rgb(100%, 100%, 100%)" fill-opacity="1" stroke-width="27.801861" stroke-linecap="round" stroke-linejoin="round" stroke="rgb(100%, 100%, 100%)" stroke-opacity="1" stroke-miterlimit="4" d="M 220.736607 391.953125 C 267.829241 393.085938 314.921875 394.21875 362.014509 395.351562 C 362.014509 332.318638 362.014509 269.285714 362.014509 206.25279 C 314.921875 206.25279 267.829241 206.25279 220.736607 206.25279 C 220.736607 268.152902 220.736607 330.053013 220.736607 391.953125 Z M 220.736607 391.953125 " transform="matrix(0.0482759, 0, 0, 0.0482759, 0, 0)"/>
</g>
</defs>
<path fill-rule="nonzero" fill="rgb(6.666667%, 6.666667%, 6.666667%)" fill-opacity="1" stroke-width="3.408" stroke-linecap="butt" stroke-linejoin="miter" stroke="rgb(93.333333%, 93.333333%, 93.333333%)" stroke-opacity="1" stroke-miterlimit="4" d="M 66.269531 1.780134 C 24.921875 1.780134 1.699219 23.141741 1.699219 66.835938 L 1.699219 516.967076 C 1.699219 557.748326 22.575335 579.190848 63.922991 579.190848 L 515.915179 579.190848 C 557.262835 579.190848 578.138951 558.881138 578.138951 516.967076 L 578.138951 66.835938 C 578.138951 24.193638 557.262835 1.780134 514.620536 1.780134 C 514.620536 1.780134 66.107701 1.618304 66.269531 1.780134 Z M 66.269531 1.780134 " transform="matrix(0.0482759, 0, 0, 0.0482759, 0, 0)"/>
<path fill-rule="nonzero" fill="rgb(100%, 100%, 100%)" fill-opacity="1" d="M 22.671875 14.230469 C 22.113281 14.230469 21.625 14.433594 21.210938 14.835938 C 20.796875 15.242188 20.589844 15.730469 20.589844 16.3125 C 20.589844 16.890625 20.796875 17.386719 21.210938 17.789062 C 21.625 18.195312 22.113281 18.394531 22.671875 18.394531 C 22.695312 18.394531 22.714844 18.394531 22.734375 18.394531 C 22.753906 18.394531 22.777344 18.394531 22.796875 18.394531 C 23.355469 18.394531 23.84375 18.195312 24.257812 17.789062 C 24.671875 17.386719 24.878906 16.890625 24.878906 16.3125 C 24.878906 15.730469 24.671875 15.242188 24.257812 14.835938 C 23.84375 14.433594 23.355469 14.230469 22.796875 14.230469 C 22.777344 14.230469 22.753906 14.230469 22.734375 14.234375 C 22.714844 14.230469 22.695312 14.230469 22.671875 14.230469 Z M 21.085938 18.859375 C 20.488281 18.859375 20.15625 19.171875 20.09375 19.792969 L 20.09375 27.25 L 22.734375 27.171875 L 25.375 27.25 L 25.375 19.792969 C 25.3125 19.171875 24.984375 18.859375 24.382812 18.859375 Z M 21.085938 18.859375 "/>
<path fill-rule="evenodd" fill="rgb(100%, 100%, 100%)" fill-opacity="1" stroke-width="67.09684" stroke-linecap="round" stroke-linejoin="miter" stroke="rgb(100%, 100%, 100%)" stroke-opacity="1" stroke-miterlimit="4" d="M 79.053928 243.050744 L 78.389261 164.841549 " transform="matrix(0.052893, 0, 0, 0.052893, 16.439695, 11.976349)"/>
<path fill-rule="evenodd" fill="rgb(100%, 100%, 100%)" fill-opacity="1" stroke-width="67.09684" stroke-linecap="round" stroke-linejoin="miter" stroke="rgb(100%, 100%, 100%)" stroke-opacity="1" stroke-miterlimit="4" d="M 155.047565 243.050744 L 154.382898 164.841549 " transform="matrix(0.052893, 0, 0, 0.052893, 16.439695, 11.976349)"/>
<g mask="url(#mask-0)">
<use xlink:href="#source-10"/>
</g>
<path fill="none" stroke-width="20" stroke-linecap="butt" stroke-linejoin="round" stroke="rgb(100%, 100%, 100%)" stroke-opacity="1" stroke-miterlimit="4" d="M 286.957653 33.970995 L 34.861678 225.931014 L 85.280873 225.931014 L 85.280873 543.777074 L 488.634433 543.777074 L 488.634433 225.931014 L 539.053628 225.931014 Z M 286.957653 33.970995 " transform="matrix(0.036181, 0, 0, 0.036181, 3.555075, -0.135356)"/>
<path fill-rule="nonzero" fill="rgb(100%, 100%, 100%)" fill-opacity="1" stroke-width="9.267287" stroke-linecap="round" stroke-linejoin="round" stroke="rgb(100%, 100%, 100%)" stroke-opacity="1" stroke-miterlimit="4" d="M 358.292411 356.188616 C 336.445312 329.082031 314.598214 301.975446 292.751116 274.868862 C 269.52846 303.59375 246.305804 332.237723 223.083147 360.881696 C 236.029576 360.881696 249.05692 360.881696 262.003348 360.881696 C 262.003348 393.085938 262.003348 425.209263 262.003348 457.413504 C 282.232143 457.413504 302.541853 457.413504 322.770647 457.413504 C 323.094308 424.642857 323.417969 391.953125 323.741629 359.182478 C 336.040737 359.182478 348.420759 359.182478 360.719866 359.182478 C 359.910714 358.211496 359.101562 357.159598 358.292411 356.188616 Z M 358.292411 356.188616 " transform="matrix(0.0482759, 0, 0, 0.0482759, 0, 0)"/>
<path fill-rule="nonzero" fill="rgb(100%, 100%, 100%)" fill-opacity="1" stroke-width="9.267287" stroke-linecap="round" stroke-linejoin="round" stroke="rgb(100%, 100%, 100%)" stroke-opacity="1" stroke-miterlimit="4" d="M 358.292411 450.212054 C 336.445312 477.318638 314.598214 504.425223 292.751116 531.531808 C 269.52846 502.80692 246.305804 474.162946 223.083147 445.518973 C 236.029576 445.518973 249.05692 445.518973 262.003348 445.518973 C 262.003348 413.314732 262.003348 381.191406 262.003348 349.06808 C 282.232143 349.06808 302.541853 349.06808 322.770647 349.06808 C 323.094308 381.757812 323.417969 414.52846 323.741629 447.218192 C 336.040737 447.218192 348.420759 447.218192 360.719866 447.218192 C 359.910714 448.189174 359.101562 449.241071 358.292411 450.212054 Z M 358.292411 450.212054 " transform="matrix(0.0482759, 0, 0, 0.0482759, 0, 0)"/>
<g mask="url(#mask-1)">
<use xlink:href="#source-17"/>
</g>
<path fill-rule="nonzero" fill="rgb(100%, 100%, 100%)" fill-opacity="1" d="M 5.488281 14.230469 C 4.925781 14.230469 4.441406 14.433594 4.027344 14.835938 C 3.609375 15.242188 3.402344 15.730469 3.402344 16.3125 C 3.402344 16.890625 3.609375 17.386719 4.027344 17.789062 C 4.441406 18.195312 4.925781 18.394531 5.488281 18.394531 C 5.507812 18.394531 5.527344 18.394531 5.546875 18.394531 C 5.570312 18.394531 5.589844 18.394531 5.609375 18.394531 C 6.171875 18.394531 6.65625 18.195312 7.070312 17.789062 C 7.484375 17.386719 7.691406 16.890625 7.691406 16.3125 C 7.691406 15.730469 7.484375 15.242188 7.070312 14.835938 C 6.65625 14.433594 6.171875 14.230469 5.609375 14.230469 C 5.589844 14.230469 5.570312 14.230469 5.546875 14.234375 C 5.527344 14.230469 5.507812 14.230469 5.488281 14.230469 Z M 3.902344 18.859375 C 3.300781 18.859375 2.96875 19.171875 2.90625 19.792969 L 2.90625 27.25 L 5.546875 27.171875 L 8.1875 27.25 L 8.1875 19.792969 C 8.128906 19.171875 7.796875 18.859375 7.195312 18.859375 Z M 3.902344 18.859375 "/>
<path fill-rule="evenodd" fill="rgb(100%, 100%, 100%)" fill-opacity="1" stroke-width="67.09684" stroke-linecap="round" stroke-linejoin="miter" stroke="rgb(100%, 100%, 100%)" stroke-opacity="1" stroke-miterlimit="4" d="M 79.029481 243.050744 L 78.364813 164.841549 " transform="matrix(0.052893, 0, 0, 0.052893, -0.746512, 11.976349)"/>
<path fill-rule="evenodd" fill="rgb(100%, 100%, 100%)" fill-opacity="1" stroke-width="67.09684" stroke-linecap="round" stroke-linejoin="miter" stroke="rgb(100%, 100%, 100%)" stroke-opacity="1" stroke-miterlimit="4" d="M 155.09697 243.050744 L 154.358451 164.841549 " transform="matrix(0.052893, 0, 0, 0.052893, -0.746512, 11.976349)"/>
</svg>
