<?xml version="1.0" encoding="UTF-8"?>
<svg xmlns="http://www.w3.org/2000/svg" xmlns:xlink="http://www.w3.org/1999/xlink" width="28" height="28" viewBox="0 0 28 28">
<path fill-rule="nonzero" fill="rgb(6.666667%, 6.666667%, 6.666667%)" fill-opacity="1" stroke-width="3.408" stroke-linecap="butt" stroke-linejoin="miter" stroke="rgb(93.333333%, 93.333333%, 93.333333%)" stroke-opacity="1" stroke-miterlimit="4" d="M 66.269531 1.780134 C 24.921875 1.780134 1.699219 23.141741 1.699219 66.835938 L 1.699219 516.967076 C 1.699219 557.748326 22.575335 579.190848 63.922991 579.190848 L 515.915179 579.190848 C 557.262835 579.190848 578.138951 558.881138 578.138951 516.967076 L 578.138951 66.835938 C 578.138951 24.193638 557.262835 1.780134 514.620536 1.780134 C 514.620536 1.780134 66.107701 1.618304 66.269531 1.780134 Z M 66.269531 1.780134 " transform="matrix(0.0482759, 0, 0, 0.0482759, 0, 0)"/>
<path fill-rule="nonzero" fill="rgb(100%, 100%, 100%)" fill-opacity="1" d="M 10.394531 17.054688 L 7.390625 11.820312 L 1.347656 11.820312 L 3.804688 13.242188 L 2.285156 15.859375 C 2.15625 16.097656 2.089844 16.34375 2.089844 16.601562 C 2.089844 16.859375 2.15625 17.109375 2.285156 17.347656 L 4.675781 21.511719 C 4.78125 21.210938 4.890625 20.953125 5 20.738281 L 7.972656 15.632812 Z M 5.902344 21.253906 C 5.730469 21.535156 5.644531 21.835938 5.644531 22.160156 C 5.644531 22.65625 5.824219 23.074219 6.179688 23.417969 C 6.535156 23.761719 6.957031 23.9375 7.453125 23.9375 L 13.398438 23.9375 L 13.398438 19.121094 L 7.132812 19.121094 C 7.089844 19.207031 6.925781 19.488281 6.644531 19.960938 Z M 13.949219 9.332031 L 19.957031 9.332031 L 22.992188 4.101562 L 20.539062 5.523438 L 19.019531 2.902344 C 18.738281 2.410156 18.308594 2.160156 17.726562 2.160156 L 12.945312 2.160156 C 13.140625 2.375 13.300781 2.59375 13.429688 2.808594 L 16.371094 7.910156 L 15.886719 8.203125 Z M 11.007812 2.421875 C 10.320312 2.421875 9.800781 2.722656 9.457031 3.324219 L 6.453125 8.492188 C 7.59375 9.160156 8.984375 9.957031 10.621094 10.882812 C 11.589844 9.226562 12.632812 7.417969 13.753906 5.457031 L 12.558594 3.324219 C 12.214844 2.722656 11.699219 2.421875 11.007812 2.421875 Z M 18.730469 19.058594 L 18.730469 16.246094 L 15.722656 21.480469 L 18.730469 26.683594 L 18.730469 23.871094 L 21.734375 23.871094 C 22.316406 23.871094 22.757812 23.625 23.058594 23.128906 L 25.449219 18.960938 C 25.125 19.046875 24.855469 19.089844 24.640625 19.089844 Z M 23.1875 10.207031 C 23.078125 10.269531 21.691406 11.066406 19.019531 12.597656 C 20.355469 14.902344 21.410156 16.722656 22.1875 18.054688 L 24.609375 18.054688 C 25.320312 18.054688 25.847656 17.753906 26.191406 17.152344 C 26.515625 16.570312 26.503906 15.976562 26.160156 15.375 Z M 23.1875 10.207031 "/>
</svg>
