<?xml version="1.0" encoding="UTF-8"?>
<svg xmlns="http://www.w3.org/2000/svg" xmlns:xlink="http://www.w3.org/1999/xlink" width="28" height="28" viewBox="0 0 28 28">
<path fill-rule="nonzero" fill="rgb(6.666667%, 6.666667%, 6.666667%)" fill-opacity="1" stroke-width="3.408" stroke-linecap="butt" stroke-linejoin="miter" stroke="rgb(93.333333%, 93.333333%, 93.333333%)" stroke-opacity="1" stroke-miterlimit="4" d="M 66.269531 1.780134 C 24.921875 1.780134 1.699219 23.141741 1.699219 66.835938 L 1.699219 516.967076 C 1.699219 557.748326 22.575335 579.190848 63.922991 579.190848 L 515.915179 579.190848 C 557.262835 579.190848 578.138951 558.881138 578.138951 516.967076 L 578.138951 66.835938 C 578.138951 24.193638 557.262835 1.780134 514.620536 1.780134 C 514.620536 1.780134 66.107701 1.618304 66.269531 1.780134 Z M 66.269531 1.780134 " transform="matrix(0.0482759, 0, 0, 0.0482759, 0, 0)"/>
<path fill-rule="nonzero" fill="rgb(100%, 100%, 100%)" fill-opacity="1" d="M 21.390625 2.648438 C 20.28125 2.046875 15.339844 1.144531 9.074219 9.898438 C 2.472656 19.121094 5.082031 23.847656 6.136719 24.550781 L 10.421875 18.410156 C 9.5625 17.8125 10.039062 16.757812 11.1875 14.695312 C 11.945312 13.328125 13.007812 11.726562 14.269531 10.273438 C 15.152344 9.257812 16.109375 8.324219 17.003906 8.949219 Z M 21.390625 2.648438 "/>
<path fill-rule="nonzero" fill="rgb(100%, 100%, 100%)" fill-opacity="1" d="M 8.339844 26.105469 C 8.738281 26.378906 9.246094 26.253906 9.5 25.894531 L 9.503906 25.890625 C 9.503906 25.890625 12.839844 21.101562 12.84375 21.097656 C 13.105469 20.71875 13.007812 20.207031 12.632812 19.945312 L 10.894531 18.730469 L 6.597656 24.890625 C 6.597656 24.890625 8.332031 26.105469 8.335938 26.101562 Z M 8.339844 26.105469 "/>
<path fill-rule="nonzero" fill="rgb(100%, 100%, 100%)" fill-opacity="1" d="M 19.222656 10.496094 C 19.617188 10.773438 20.128906 10.648438 20.382812 10.285156 L 20.386719 10.285156 C 20.386719 10.285156 23.820312 5.355469 23.820312 5.351562 C 24.085938 4.972656 23.984375 4.457031 23.613281 4.199219 L 21.871094 2.984375 L 17.480469 9.28125 C 17.480469 9.28125 19.214844 10.496094 19.21875 10.496094 Z M 19.222656 10.496094 "/>
</svg>
