<?xml version="1.0" encoding="UTF-8"?>
<svg xmlns="http://www.w3.org/2000/svg" xmlns:xlink="http://www.w3.org/1999/xlink" width="28" height="28" viewBox="0 0 28 28">
<path fill-rule="nonzero" fill="rgb(6.666667%, 6.666667%, 6.666667%)" fill-opacity="1" stroke-width="3.408" stroke-linecap="butt" stroke-linejoin="miter" stroke="rgb(93.333333%, 93.333333%, 93.333333%)" stroke-opacity="1" stroke-miterlimit="4" d="M 66.269531 1.780134 C 24.921875 1.780134 1.699219 23.141741 1.699219 66.835938 L 1.699219 516.967076 C 1.699219 557.748326 22.575335 579.190848 63.922991 579.190848 L 515.915179 579.190848 C 557.262835 579.190848 578.138951 558.881138 578.138951 516.967076 L 578.138951 66.835938 C 578.138951 24.193638 557.262835 1.780134 514.620536 1.780134 C 514.620536 1.780134 66.107701 1.618304 66.269531 1.780134 Z M 66.269531 1.780134 " transform="matrix(0.0482759, 0, 0, 0.0482759, 0, 0)"/>
<path fill-rule="nonzero" fill="rgb(100%, 100%, 100%)" fill-opacity="1" d="M 13.644531 24.738281 L 15.375 24.738281 L 15.375 2.953125 L 13.644531 2.953125 Z M 8.445312 6.933594 L 4.957031 6.933594 C 4.414062 6.933594 3.921875 7.128906 3.488281 7.519531 C 3.164062 7.824219 2.945312 8.160156 2.835938 8.53125 L 1.335938 13.519531 C 1.292969 13.628906 1.269531 13.726562 1.269531 13.8125 C 1.269531 14.3125 1.519531 14.5625 2.019531 14.5625 C 2.371094 14.5625 2.597656 14.367188 2.707031 13.976562 L 4.074219 9.410156 L 4.824219 9.410156 L 2.574219 17.53125 L 4.761719 17.53125 L 4.761719 23.859375 C 4.761719 24.425781 5.03125 24.707031 5.574219 24.707031 C 6.121094 24.707031 6.390625 24.425781 6.390625 23.859375 L 6.390625 17.5 L 7.207031 17.5 L 7.207031 23.890625 C 7.207031 24.433594 7.480469 24.707031 8.023438 24.707031 C 8.566406 24.707031 8.835938 24.433594 8.835938 23.890625 L 8.835938 17.53125 L 11.023438 17.53125 L 8.738281 9.410156 L 9.523438 9.410156 L 10.890625 13.976562 C 11 14.367188 11.230469 14.5625 11.578125 14.5625 C 12.078125 14.5625 12.328125 14.3125 12.328125 13.8125 C 12.328125 13.707031 12.304688 13.605469 12.261719 13.519531 L 10.761719 8.53125 C 10.652344 8.183594 10.402344 7.84375 10.011719 7.519531 C 9.535156 7.128906 9.011719 6.933594 8.445312 6.933594 Z M 6.785156 6.574219 C 7.28125 6.574219 7.707031 6.398438 8.054688 6.050781 C 8.402344 5.703125 8.578125 5.289062 8.578125 4.8125 C 8.578125 4.3125 8.402344 3.886719 8.054688 3.539062 C 7.707031 3.191406 7.28125 3.019531 6.785156 3.019531 C 6.304688 3.019531 5.890625 3.191406 5.542969 3.539062 C 5.195312 3.886719 5.023438 4.3125 5.023438 4.8125 C 5.023438 5.289062 5.195312 5.703125 5.542969 6.050781 C 5.890625 6.398438 6.304688 6.574219 6.785156 6.574219 Z M 22.039062 6.542969 C 22.519531 6.542969 22.929688 6.367188 23.277344 6.019531 C 23.625 5.671875 23.800781 5.257812 23.800781 4.78125 C 23.800781 4.28125 23.625 3.863281 23.277344 3.523438 C 22.929688 3.1875 22.519531 3.019531 22.039062 3.019531 C 21.5625 3.019531 21.148438 3.1875 20.800781 3.523438 C 20.453125 3.863281 20.277344 4.28125 20.277344 4.78125 C 20.277344 5.257812 20.453125 5.671875 20.800781 6.019531 C 21.148438 6.367188 21.5625 6.542969 22.039062 6.542969 Z M 24.355469 6.898438 L 19.691406 6.898438 C 19.0625 6.898438 18.523438 7.121094 18.078125 7.566406 C 17.632812 8.015625 17.40625 8.5625 17.40625 9.214844 L 17.40625 14.628906 C 17.40625 15.152344 17.648438 15.414062 18.125 15.414062 C 18.582031 15.414062 18.808594 15.152344 18.808594 14.628906 L 18.808594 9.347656 L 19.660156 9.347656 L 19.660156 23.695312 C 19.660156 24.347656 19.984375 24.675781 20.636719 24.675781 C 21.289062 24.675781 21.617188 24.347656 21.617188 23.695312 L 21.617188 15.378906 L 22.464844 15.378906 L 22.464844 23.695312 C 22.464844 24.347656 22.789062 24.675781 23.441406 24.675781 C 24.117188 24.675781 24.453125 24.347656 24.453125 23.695312 L 24.453125 9.347656 L 25.269531 9.347656 L 25.269531 14.628906 C 25.269531 15.171875 25.496094 15.445312 25.953125 15.445312 C 26.410156 15.445312 26.636719 15.171875 26.636719 14.628906 L 26.636719 9.246094 C 26.636719 8.617188 26.425781 8.066406 26.003906 7.601562 C 25.578125 7.132812 25.03125 6.898438 24.355469 6.898438 Z M 24.355469 6.898438 "/>
</svg>
