<?xml version="1.0" encoding="UTF-8"?>
<svg xmlns="http://www.w3.org/2000/svg" xmlns:xlink="http://www.w3.org/1999/xlink" width="28" height="28" viewBox="0 0 28 28">
<path fill-rule="nonzero" fill="rgb(6.666667%, 6.666667%, 6.666667%)" fill-opacity="1" stroke-width="3.408" stroke-linecap="butt" stroke-linejoin="miter" stroke="rgb(93.333333%, 93.333333%, 93.333333%)" stroke-opacity="1" stroke-miterlimit="4" d="M 66.269531 1.780134 C 24.921875 1.780134 1.699219 23.141741 1.699219 66.835938 L 1.699219 516.967076 C 1.699219 557.748326 22.575335 579.190848 63.922991 579.190848 L 515.915179 579.190848 C 557.262835 579.190848 578.138951 558.881138 578.138951 516.967076 L 578.138951 66.835938 C 578.138951 24.193638 557.262835 1.780134 514.620536 1.780134 C 514.620536 1.780134 66.107701 1.618304 66.269531 1.780134 Z M 66.269531 1.780134 " transform="matrix(0.0482759, 0, 0, 0.0482759, 0, 0)"/>
<path fill-rule="nonzero" fill="rgb(100%, 100%, 100%)" fill-opacity="1" d="M 9.457031 5.90625 L 5.367188 5.90625 C 4.726562 5.90625 4.15625 6.136719 3.644531 6.59375 C 3.261719 6.949219 3.007812 7.347656 2.878906 7.78125 L 1.121094 13.632812 C 1.070312 13.757812 1.042969 13.875 1.042969 13.976562 C 1.042969 14.5625 1.335938 14.855469 1.921875 14.855469 C 2.332031 14.855469 2.601562 14.625 2.726562 14.167969 L 4.332031 8.8125 L 5.210938 8.8125 L 2.574219 18.335938 L 5.136719 18.335938 L 5.136719 25.757812 C 5.136719 26.417969 5.453125 26.75 6.09375 26.75 C 6.730469 26.75 7.046875 26.417969 7.046875 25.757812 L 7.046875 18.296875 L 8.003906 18.296875 L 8.003906 25.792969 C 8.003906 26.433594 8.324219 26.75 8.960938 26.75 C 9.597656 26.75 9.917969 26.433594 9.917969 25.792969 L 9.917969 18.335938 L 12.480469 18.335938 L 9.804688 8.8125 L 10.71875 8.8125 L 12.328125 14.167969 C 12.453125 14.625 12.722656 14.855469 13.128906 14.855469 C 13.714844 14.855469 14.007812 14.5625 14.007812 13.976562 C 14.007812 13.847656 13.984375 13.734375 13.933594 13.632812 L 12.171875 7.78125 C 12.046875 7.371094 11.753906 6.976562 11.292969 6.59375 C 10.734375 6.136719 10.121094 5.90625 9.457031 5.90625 Z M 7.507812 5.484375 C 8.09375 5.484375 8.589844 5.28125 9 4.871094 C 9.40625 4.464844 9.613281 3.980469 9.613281 3.417969 C 9.613281 2.832031 9.40625 2.335938 9 1.929688 C 8.589844 1.519531 8.09375 1.316406 7.507812 1.316406 C 6.945312 1.316406 6.460938 1.519531 6.054688 1.929688 C 5.644531 2.335938 5.441406 2.832031 5.441406 3.417969 C 5.441406 3.980469 5.644531 4.464844 6.054688 4.871094 C 6.460938 5.28125 6.945312 5.484375 7.507812 5.484375 Z M 7.507812 5.484375 "/>
<path fill-rule="nonzero" fill="rgb(100%, 100%, 100%)" fill-opacity="1" d="M 11.851562 20.183594 L 13.636719 20.183594 L 14.28125 23.589844 L 15.222656 20.183594 L 17.003906 20.183594 L 17.949219 23.589844 L 18.59375 20.183594 L 20.371094 20.183594 L 19.03125 26.277344 L 17.183594 26.277344 L 16.117188 22.441406 L 15.050781 26.277344 L 13.207031 26.277344 Z M 25.050781 23.789062 L 26.699219 24.289062 C 26.589844 24.75 26.414062 25.136719 26.175781 25.445312 C 25.9375 25.757812 25.640625 25.992188 25.289062 26.148438 C 24.933594 26.308594 24.484375 26.386719 23.9375 26.386719 C 23.277344 26.386719 22.734375 26.289062 22.316406 26.097656 C 21.894531 25.90625 21.535156 25.566406 21.230469 25.082031 C 20.925781 24.597656 20.773438 23.976562 20.773438 23.21875 C 20.773438 22.210938 21.039062 21.433594 21.574219 20.894531 C 22.113281 20.351562 22.871094 20.082031 23.851562 20.082031 C 24.621094 20.082031 25.222656 20.234375 25.664062 20.546875 C 26.101562 20.855469 26.429688 21.332031 26.640625 21.976562 L 24.976562 22.347656 C 24.921875 22.160156 24.859375 22.023438 24.796875 21.9375 C 24.691406 21.792969 24.5625 21.683594 24.410156 21.605469 C 24.257812 21.527344 24.085938 21.488281 23.898438 21.488281 C 23.472656 21.488281 23.144531 21.660156 22.917969 22.003906 C 22.746094 22.261719 22.660156 22.660156 22.660156 23.207031 C 22.660156 23.882812 22.761719 24.347656 22.964844 24.597656 C 23.171875 24.847656 23.460938 24.972656 23.832031 24.972656 C 24.191406 24.972656 24.464844 24.871094 24.648438 24.667969 C 24.832031 24.46875 24.964844 24.171875 25.050781 23.789062 Z M 25.050781 23.789062 "/>
</svg>
