<?xml version="1.0" encoding="UTF-8"?>
<svg xmlns="http://www.w3.org/2000/svg" xmlns:xlink="http://www.w3.org/1999/xlink" width="28" height="28" viewBox="0 0 28 28">
<path fill-rule="nonzero" fill="rgb(6.666667%, 6.666667%, 6.666667%)" fill-opacity="1" stroke-width="3.408" stroke-linecap="butt" stroke-linejoin="miter" stroke="rgb(93.333333%, 93.333333%, 93.333333%)" stroke-opacity="1" stroke-miterlimit="4" d="M 66.269531 1.780134 C 24.921875 1.780134 1.699219 23.141741 1.699219 66.835938 L 1.699219 516.967076 C 1.699219 557.748326 22.575335 579.190848 63.922991 579.190848 L 515.915179 579.190848 C 557.262835 579.190848 578.138951 558.881138 578.138951 516.967076 L 578.138951 66.835938 C 578.138951 24.193638 557.262835 1.780134 514.620536 1.780134 C 514.620536 1.780134 66.107701 1.618304 66.269531 1.780134 Z M 66.269531 1.780134 " transform="matrix(0.0482759, 0, 0, 0.0482759, 0, 0)"/>
<path fill-rule="nonzero" fill="rgb(100%, 100%, 100%)" fill-opacity="1" d="M 15.679688 16.910156 C 14.65625 16.683594 9.3125 16.871094 7.765625 16.871094 C 7.71875 13.621094 7.707031 10.371094 7.675781 7.121094 C 6.714844 6.144531 7.21875 4.375 8.558594 3.996094 C 9.882812 3.46875 11.515625 4.65625 11.300781 6.050781 C 11.359375 7.148438 10.035156 7.417969 9.589844 8.023438 C 9.554688 9.3125 9.527344 10.601562 9.609375 11.886719 C 11.410156 12.023438 13.234375 11.921875 15.046875 11.945312 C 15.046875 12.511719 15.046875 13.074219 15.046875 13.640625 C 13.269531 13.640625 11.496094 13.640625 9.722656 13.640625 C 9.285156 14.617188 9.71875 15.425781 9.621094 15.335938 C 11.625 15.34375 14.90625 15.339844 16.910156 15.339844 C 18.058594 17.625 19.164062 19.941406 20.324219 22.210938 C 21.542969 22.070312 22.425781 21.402344 22.890625 21.375 C 23.398438 21.332031 23.410156 22.898438 23.355469 22.851562 C 22.265625 23.230469 20.550781 24.050781 19.457031 24.410156 C 19.179688 23.980469 16.707031 18.953125 15.679688 16.910156 Z M 9.476562 26.652344 C 7.089844 26.394531 5.417969 25.707031 4.140625 24.597656 C 2.320312 23.058594 1.265625 20.6875 1.546875 18.339844 C 1.683594 15.675781 3.519531 13.265625 5.953125 12.097656 C 6.339844 12.445312 6.078125 13.335938 6.148438 13.925781 C 6.25 14.433594 5.550781 14.574219 5.296875 14.929688 C 3.488281 16.601562 3.09375 19.457031 4.234375 21.59375 C 5.441406 24.015625 8.5 25.539062 11.226562 24.796875 C 13.269531 24.300781 14.890625 22.808594 15.964844 21.109375 C 16.417969 21.457031 17.375 22.933594 16.40625 23.585938 C 14.761719 25.582031 12.132812 26.832031 9.476562 26.652344 Z M 9.476562 26.652344 "/>
<path fill-rule="nonzero" fill="rgb(100%, 100%, 100%)" fill-opacity="1" d="M 11.992188 1.410156 L 13.777344 1.410156 L 14.421875 4.8125 L 15.363281 1.410156 L 17.144531 1.410156 L 18.089844 4.8125 L 18.734375 1.410156 L 20.511719 1.410156 L 19.171875 7.503906 L 17.324219 7.503906 L 16.257812 3.664062 L 15.191406 7.503906 L 13.347656 7.503906 Z M 25.1875 5.011719 L 26.839844 5.511719 C 26.730469 5.972656 26.554688 6.359375 26.316406 6.671875 C 26.078125 6.980469 25.78125 7.214844 25.429688 7.375 C 25.074219 7.53125 24.625 7.609375 24.078125 7.609375 C 23.417969 7.609375 22.875 7.515625 22.457031 7.320312 C 22.035156 7.128906 21.675781 6.789062 21.371094 6.304688 C 21.0625 5.820312 20.910156 5.199219 20.910156 4.441406 C 20.910156 3.433594 21.179688 2.660156 21.714844 2.117188 C 22.253906 1.574219 23.011719 1.304688 23.992188 1.304688 C 24.761719 1.304688 25.363281 1.460938 25.800781 1.769531 C 26.242188 2.082031 26.566406 2.558594 26.78125 3.199219 L 25.117188 3.570312 C 25.058594 3.382812 25 3.25 24.9375 3.164062 C 24.832031 3.019531 24.703125 2.90625 24.550781 2.832031 C 24.398438 2.753906 24.226562 2.714844 24.039062 2.714844 C 23.609375 2.714844 23.285156 2.886719 23.058594 3.230469 C 22.886719 3.484375 22.800781 3.882812 22.800781 4.429688 C 22.800781 5.105469 22.902344 5.570312 23.105469 5.820312 C 23.3125 6.070312 23.601562 6.195312 23.972656 6.195312 C 24.332031 6.195312 24.605469 6.097656 24.789062 5.894531 C 24.972656 5.691406 25.105469 5.398438 25.1875 5.011719 Z M 25.1875 5.011719 "/>
</svg>
