<?xml version="1.0" encoding="UTF-8"?>
<svg xmlns="http://www.w3.org/2000/svg" xmlns:xlink="http://www.w3.org/1999/xlink" width="28" height="28" viewBox="0 0 28 28">
<path fill-rule="nonzero" fill="rgb(6.666667%, 6.666667%, 6.666667%)" fill-opacity="1" stroke-width="3.408" stroke-linecap="butt" stroke-linejoin="miter" stroke="rgb(93.333333%, 93.333333%, 93.333333%)" stroke-opacity="1" stroke-miterlimit="4" d="M 66.269531 1.780134 C 24.921875 1.780134 1.699219 23.141741 1.699219 66.835938 L 1.699219 516.967076 C 1.699219 557.748326 22.575335 579.190848 63.922991 579.190848 L 515.915179 579.190848 C 557.262835 579.190848 578.138951 558.881138 578.138951 516.967076 L 578.138951 66.835938 C 578.138951 24.193638 557.262835 1.780134 514.620536 1.780134 C 514.620536 1.780134 66.107701 1.618304 66.269531 1.780134 Z M 66.269531 1.780134 " transform="matrix(0.0482759, 0, 0, 0.0482759, 0, 0)"/>
<path fill-rule="nonzero" fill="rgb(100%, 100%, 100%)" fill-opacity="1" d="M 7.277344 5.707031 C 7.820312 5.707031 8.285156 5.511719 8.679688 5.117188 C 9.074219 4.722656 9.269531 4.257812 9.269531 3.714844 C 9.269531 3.152344 9.074219 2.679688 8.679688 2.296875 C 8.285156 1.917969 7.820312 1.726562 7.277344 1.726562 C 6.738281 1.726562 6.269531 1.917969 5.878906 2.296875 C 5.484375 2.679688 5.289062 3.152344 5.289062 3.714844 C 5.289062 4.257812 5.484375 4.722656 5.878906 5.117188 C 6.269531 5.511719 6.738281 5.707031 7.277344 5.707031 Z M 9.898438 6.113281 L 4.625 6.113281 C 3.910156 6.113281 3.304688 6.363281 2.800781 6.867188 C 2.292969 7.375 2.042969 7.992188 2.042969 8.730469 L 2.042969 14.851562 C 2.042969 15.441406 2.3125 15.738281 2.855469 15.738281 C 3.371094 15.738281 3.628906 15.441406 3.628906 14.851562 L 3.628906 8.878906 L 4.585938 8.878906 L 4.585938 25.101562 C 4.585938 25.839844 4.957031 26.207031 5.691406 26.207031 C 6.429688 26.207031 6.800781 25.839844 6.800781 25.101562 L 6.800781 15.699219 L 7.757812 15.699219 L 7.757812 25.101562 C 7.757812 25.839844 8.125 26.207031 8.863281 26.207031 C 9.625 26.207031 10.007812 25.839844 10.007812 25.101562 L 10.007812 8.878906 L 10.929688 8.878906 L 10.929688 14.851562 C 10.929688 15.464844 11.1875 15.773438 11.703125 15.773438 C 12.21875 15.773438 12.476562 15.464844 12.476562 14.851562 L 12.476562 8.765625 C 12.476562 8.054688 12.238281 7.433594 11.757812 6.90625 C 11.28125 6.378906 10.660156 6.113281 9.898438 6.113281 Z M 9.898438 6.113281 "/>
<path fill-rule="nonzero" fill="rgb(100%, 100%, 100%)" fill-opacity="1" d="M 11.746094 20.027344 L 13.535156 20.027344 L 14.179688 23.433594 L 15.117188 20.027344 L 16.902344 20.027344 L 17.84375 23.433594 L 18.488281 20.027344 L 20.269531 20.027344 L 18.925781 26.121094 L 17.078125 26.121094 L 16.011719 22.285156 L 14.945312 26.121094 L 13.101562 26.121094 Z M 24.945312 23.632812 L 26.59375 24.128906 C 26.484375 24.59375 26.308594 24.980469 26.070312 25.289062 C 25.832031 25.601562 25.535156 25.835938 25.183594 25.992188 C 24.828125 26.152344 24.378906 26.230469 23.835938 26.230469 C 23.171875 26.230469 22.632812 26.132812 22.210938 25.941406 C 21.792969 25.746094 21.429688 25.410156 21.125 24.925781 C 20.820312 24.4375 20.667969 23.820312 20.667969 23.0625 C 20.667969 22.054688 20.933594 21.277344 21.472656 20.734375 C 22.007812 20.195312 22.765625 19.921875 23.746094 19.921875 C 24.515625 19.921875 25.117188 20.078125 25.558594 20.390625 C 25.996094 20.699219 26.324219 21.175781 26.535156 21.820312 L 24.875 22.1875 C 24.816406 22.003906 24.753906 21.867188 24.691406 21.78125 C 24.585938 21.636719 24.457031 21.527344 24.304688 21.449219 C 24.152344 21.371094 23.980469 21.332031 23.792969 21.332031 C 23.367188 21.332031 23.039062 21.503906 22.8125 21.847656 C 22.640625 22.101562 22.554688 22.503906 22.554688 23.050781 C 22.554688 23.726562 22.65625 24.1875 22.863281 24.441406 C 23.066406 24.691406 23.355469 24.816406 23.726562 24.816406 C 24.085938 24.816406 24.359375 24.714844 24.542969 24.511719 C 24.726562 24.308594 24.859375 24.015625 24.945312 23.632812 Z M 24.945312 23.632812 "/>
</svg>
