<?xml version="1.0" encoding="UTF-8"?>
<svg xmlns="http://www.w3.org/2000/svg" xmlns:xlink="http://www.w3.org/1999/xlink" width="28" height="28" viewBox="0 0 28 28">
<defs>
<filter id="filter-remove-color" x="0%" y="0%" width="100%" height="100%">
<feColorMatrix color-interpolation-filters="sRGB" values="0 0 0 0 1 0 0 0 0 1 0 0 0 0 1 0 0 0 1 0" />
</filter>
<mask id="mask-0">
<g filter="url(#filter-remove-color)">
<rect x="-2.8" y="-2.8" width="33.6" height="33.6" fill="rgb(0%, 0%, 0%)" fill-opacity="0.2"/>
</g>
</mask>
<clipPath id="clip-0">
<rect x="0" y="0" width="28" height="28"/>
</clipPath>
<g id="source-7" clip-path="url(#clip-0)">
<path fill-rule="evenodd" fill="rgb(100%, 100%, 100%)" fill-opacity="1" stroke-width="1.24142" stroke-linecap="butt" stroke-linejoin="miter" stroke="rgb(100%, 100%, 100%)" stroke-opacity="1" stroke-miterlimit="4" d="M 286.925223 44.017857 L 34.874442 235.948661 L 85.284598 235.948661 L 85.284598 543.75 L 488.565848 543.75 L 488.565848 235.948661 L 538.976004 235.948661 Z M 286.925223 44.017857 " transform="matrix(0.0482759, 0, 0, 0.0482759, 0, 0)"/>
</g>
<mask id="mask-1">
<g filter="url(#filter-remove-color)">
<rect x="-2.8" y="-2.8" width="33.6" height="33.6" fill="rgb(0%, 0%, 0%)" fill-opacity="0.5"/>
</g>
</mask>
<clipPath id="clip-1">
<rect x="0" y="0" width="28" height="28"/>
</clipPath>
<g id="source-12" clip-path="url(#clip-1)">
<path fill-rule="nonzero" fill="rgb(100%, 100%, 100%)" fill-opacity="1" stroke-width="10" stroke-linecap="round" stroke-linejoin="round" stroke="rgb(100%, 100%, 100%)" stroke-opacity="1" stroke-miterlimit="4" d="M 160.131138 353.27567 L 417.360491 353.27567 L 463.401228 393.085938 L 113.523996 393.085938 Z M 160.131138 353.27567 " transform="matrix(0.0482759, 0, 0, 0.0482759, 0, 0)"/>
</g>
<mask id="mask-2">
<g filter="url(#filter-remove-color)">
<rect x="-2.8" y="-2.8" width="33.6" height="33.6" fill="rgb(0%, 0%, 0%)" fill-opacity="0.5"/>
</g>
</mask>
<clipPath id="clip-2">
<rect x="0" y="0" width="28" height="28"/>
</clipPath>
<g id="source-16" clip-path="url(#clip-2)">
<path fill-rule="nonzero" fill="rgb(100%, 100%, 100%)" fill-opacity="1" stroke-width="10" stroke-linecap="round" stroke-linejoin="round" stroke="rgb(100%, 100%, 100%)" stroke-opacity="1" stroke-miterlimit="4" d="M 114.090402 515.267857 L 463.320312 515.267857 L 463.401228 415.094866 L 113.523996 415.094866 Z M 114.090402 515.267857 " transform="matrix(0.0482759, 0, 0, 0.0482759, 0, 0)"/>
</g>
</defs>
<path fill-rule="nonzero" fill="rgb(6.666667%, 6.666667%, 6.666667%)" fill-opacity="1" stroke-width="3.408" stroke-linecap="butt" stroke-linejoin="miter" stroke="rgb(93.333333%, 93.333333%, 93.333333%)" stroke-opacity="1" stroke-miterlimit="4" d="M 66.269531 1.780134 C 24.921875 1.780134 1.699219 23.141741 1.699219 66.835938 L 1.699219 516.967076 C 1.699219 557.748326 22.575335 579.190848 63.922991 579.190848 L 515.915179 579.190848 C 557.262835 579.190848 578.138951 558.881138 578.138951 516.967076 L 578.138951 66.835938 C 578.138951 24.193638 557.262835 1.780134 514.620536 1.780134 C 514.620536 1.780134 66.107701 1.618304 66.269531 1.780134 Z M 66.269531 1.780134 " transform="matrix(0.0482759, 0, 0, 0.0482759, 0, 0)"/>
<g mask="url(#mask-0)">
<use xlink:href="#source-7"/>
</g>
<path fill="none" stroke-width="20" stroke-linecap="butt" stroke-linejoin="round" stroke="rgb(100%, 100%, 100%)" stroke-opacity="1" stroke-miterlimit="4" d="M 286.925223 33.984375 L 34.874442 225.915179 L 85.284598 225.915179 L 85.284598 543.75 L 488.565848 543.75 L 488.565848 225.915179 L 538.976004 225.915179 Z M 286.925223 33.984375 " transform="matrix(0.0482759, 0, 0, 0.0482759, 0, 0)"/>
<g mask="url(#mask-1)">
<use xlink:href="#source-12"/>
</g>
<g mask="url(#mask-2)">
<use xlink:href="#source-16"/>
</g>
<path fill-rule="nonzero" fill="rgb(100%, 100%, 100%)" fill-opacity="1" stroke-width="1.388891" stroke-linecap="round" stroke-linejoin="round" stroke="rgb(100%, 100%, 100%)" stroke-opacity="1" stroke-miterlimit="4" d="M 209.327567 161.992188 C 199.779576 161.992188 191.445312 165.390625 184.405692 172.34933 C 177.285156 179.227121 173.724888 187.642299 173.724888 197.513951 C 173.724888 207.466518 177.285156 215.881696 184.405692 222.759487 C 191.445312 229.718192 199.779576 233.116629 209.327567 233.116629 C 209.651228 233.116629 210.055804 233.116629 210.379464 233.116629 C 210.703125 233.116629 211.107701 233.116629 211.431362 233.116629 C 220.979353 233.116629 229.313616 229.718192 236.434152 222.759487 C 243.473772 215.881696 247.03404 207.466518 247.03404 197.513951 C 247.03404 187.642299 243.473772 179.227121 236.434152 172.34933 C 229.313616 165.390625 220.979353 161.992188 211.431362 161.992188 C 211.107701 161.992188 210.703125 161.992188 210.379464 161.992188 C 210.055804 161.992188 209.651228 161.992188 209.327567 161.992188 Z M 182.220982 241.127232 C 180.117188 241.127232 178.094308 241.289062 176.395089 241.774554 C 175.262277 241.693638 174.048549 241.612723 172.915737 241.693638 C 164.986049 241.855469 157.137277 245.334821 151.71596 251.079799 C 146.213728 256.824777 143.138951 264.754464 143.300781 272.684152 L 143.948103 343.404018 C 143.948103 343.484933 143.948103 343.484933 143.948103 343.565848 C 147.18471 341.219308 150.583147 339.115513 154.22433 337.335379 C 193.791853 336.202567 233.521205 336.121652 273.250558 336.202567 L 272.684152 272.117746 C 272.684152 264.511719 269.69029 256.824777 264.430804 251.241629 C 259.171317 245.658482 251.808036 242.179129 244.121094 241.774554 C 242.50279 241.289062 240.641741 241.127232 238.537946 241.127232 Z M 182.220982 241.127232 " transform="matrix(0.0482759, 0, 0, 0.0482759, 0, 0)"/>
<path fill-rule="nonzero" fill="rgb(100%, 100%, 100%)" fill-opacity="1" stroke-width="1.388891" stroke-linecap="round" stroke-linejoin="round" stroke="rgb(100%, 100%, 100%)" stroke-opacity="1" stroke-miterlimit="4" d="M 367.273996 161.992188 C 376.821987 161.992188 385.075335 165.390625 392.195871 172.34933 C 399.235491 179.227121 402.795759 187.642299 402.795759 197.513951 C 402.795759 207.466518 399.235491 215.881696 392.195871 222.759487 C 385.075335 229.718192 376.821987 233.116629 367.273996 233.116629 C 366.86942 233.116629 366.545759 233.116629 366.141183 233.116629 C 365.817522 233.116629 365.493862 233.116629 365.089286 233.116629 C 355.541295 233.116629 347.207031 229.718192 340.167411 222.759487 C 333.046875 215.881696 329.567522 207.466518 329.567522 197.513951 C 329.567522 187.642299 333.046875 179.227121 340.167411 172.34933 C 347.207031 165.390625 355.541295 161.992188 365.089286 161.992188 C 365.493862 161.992188 365.817522 161.992188 366.141183 161.992188 C 366.545759 161.992188 366.86942 161.992188 367.273996 161.992188 Z M 394.299665 241.127232 C 396.484375 241.127232 398.426339 241.289062 400.206473 241.774554 C 401.339286 241.693638 402.472098 241.612723 403.685826 241.693638 C 411.615513 241.855469 419.383371 245.334821 424.885603 251.079799 C 430.30692 256.824777 433.462612 264.754464 433.219866 272.684152 L 432.572545 343.404018 C 432.572545 343.484933 432.572545 343.484933 432.572545 343.565848 C 429.335938 341.219308 426.018415 339.115513 422.377232 337.335379 C 382.728795 336.202567 342.999442 336.121652 303.270089 336.202567 L 303.917411 272.117746 C 303.836496 264.511719 306.911272 256.824777 312.089844 251.241629 C 317.34933 245.658482 324.793527 242.179129 332.399554 241.774554 C 334.098772 241.289062 335.959821 241.127232 337.982701 241.127232 Z M 394.299665 241.127232 " transform="matrix(0.0482759, 0, 0, 0.0482759, 0, 0)"/>
</svg>
