<?xml version="1.0" encoding="UTF-8"?>
<svg xmlns="http://www.w3.org/2000/svg" xmlns:xlink="http://www.w3.org/1999/xlink" width="28" height="28" viewBox="0 0 28 28">
<defs>
<filter id="filter-remove-color" x="0%" y="0%" width="100%" height="100%">
<feColorMatrix color-interpolation-filters="sRGB" values="0 0 0 0 1 0 0 0 0 1 0 0 0 0 1 0 0 0 1 0" />
</filter>
<mask id="mask-0">
<g filter="url(#filter-remove-color)">
<rect x="-2.8" y="-2.8" width="33.6" height="33.6" fill="rgb(0%, 0%, 0%)" fill-opacity="0.2"/>
</g>
</mask>
<clipPath id="clip-0">
<rect x="0" y="0" width="28" height="28"/>
</clipPath>
<g id="source-7" clip-path="url(#clip-0)">
<path fill-rule="evenodd" fill="rgb(100%, 100%, 100%)" fill-opacity="1" stroke-width="1.24142" stroke-linecap="butt" stroke-linejoin="miter" stroke="rgb(100%, 100%, 100%)" stroke-opacity="1" stroke-miterlimit="4" d="M 286.925223 44.017857 L 34.874442 235.948661 L 85.284598 235.948661 L 85.284598 543.75 L 488.565848 543.75 L 488.565848 235.948661 L 538.976004 235.948661 Z M 286.925223 44.017857 " transform="matrix(0.0482759, 0, 0, 0.0482759, 0, 0)"/>
</g>
</defs>
<path fill-rule="nonzero" fill="rgb(6.666667%, 6.666667%, 6.666667%)" fill-opacity="1" stroke-width="3.408" stroke-linecap="butt" stroke-linejoin="miter" stroke="rgb(93.333333%, 93.333333%, 93.333333%)" stroke-opacity="1" stroke-miterlimit="4" d="M 66.269531 1.780134 C 24.921875 1.780134 1.699219 23.141741 1.699219 66.835938 L 1.699219 516.967076 C 1.699219 557.748326 22.575335 579.190848 63.922991 579.190848 L 515.915179 579.190848 C 557.262835 579.190848 578.138951 558.881138 578.138951 516.967076 L 578.138951 66.835938 C 578.138951 24.193638 557.262835 1.780134 514.620536 1.780134 C 514.620536 1.780134 66.107701 1.618304 66.269531 1.780134 Z M 66.269531 1.780134 " transform="matrix(0.0482759, 0, 0, 0.0482759, 0, 0)"/>
<g mask="url(#mask-0)">
<use xlink:href="#source-7"/>
</g>
<path fill="none" stroke-width="20" stroke-linecap="butt" stroke-linejoin="round" stroke="rgb(100%, 100%, 100%)" stroke-opacity="1" stroke-miterlimit="4" d="M 286.925223 33.984375 L 34.874442 225.915179 L 85.284598 225.915179 L 85.284598 543.75 L 488.565848 543.75 L 488.565848 225.915179 L 538.976004 225.915179 Z M 286.925223 33.984375 " transform="matrix(0.0482759, 0, 0, 0.0482759, 0, 0)"/>
<path fill-rule="nonzero" fill="rgb(100%, 100%, 100%)" fill-opacity="1" d="M 13.570312 14.925781 C 13.324219 15.066406 12.359375 14.835938 11.273438 14.363281 C 10.203125 13.894531 9.386719 13.351562 9.300781 13.074219 L 8.164062 15.6875 C 8.152344 15.695312 8.144531 15.707031 8.140625 15.714844 C 8.039062 15.953125 8.910156 16.566406 10.089844 17.078125 C 11.261719 17.589844 12.292969 17.816406 12.410156 17.582031 L 12.410156 17.585938 L 12.414062 17.578125 Z M 13.570312 14.925781 "/>
<path fill-rule="nonzero" fill="rgb(100%, 100%, 100%)" fill-opacity="1" stroke-width="0.5" stroke-linecap="round" stroke-linejoin="miter" stroke="rgb(0%, 0%, 0%)" stroke-opacity="1" stroke-miterlimit="4" d="M 266.982367 279.226738 C 266.946088 286.015641 239.493129 291.551944 205.630002 291.557111 C 171.766876 291.562279 144.255642 286.0206 144.19864 279.272391 C 144.234919 272.483488 171.687878 266.947186 205.591698 267.0353 C 239.548106 266.989438 267.018646 272.437835 266.982367 279.226738 Z M 266.982367 279.226738 " transform="matrix(0.0351807, 0.0153475, -0.0153475, 0.0351807, 8.791245, 0.3174)"/>
<path fill-rule="nonzero" fill="rgb(100%, 100%, 100%)" fill-opacity="1" d="M 12.25 17.953125 C 12.003906 18.09375 11.039062 17.859375 9.953125 17.386719 C 8.882812 16.921875 8.066406 16.378906 7.980469 16.101562 L 7.855469 16.390625 C 7.847656 16.398438 7.839844 16.410156 7.835938 16.421875 C 7.730469 16.660156 8.601562 17.269531 9.78125 17.785156 C 10.953125 18.292969 11.988281 18.519531 12.101562 18.289062 L 12.105469 18.289062 L 12.105469 18.285156 Z M 12.25 17.953125 "/>
<path fill-rule="nonzero" fill="rgb(100%, 100%, 100%)" fill-opacity="1" d="M 13.878906 14.222656 C 13.632812 14.363281 12.664062 14.132812 11.582031 13.660156 C 10.511719 13.191406 9.691406 12.648438 9.609375 12.371094 L 9.480469 12.660156 C 9.472656 12.671875 9.464844 12.679688 9.460938 12.691406 C 9.355469 12.929688 10.226562 13.539062 11.40625 14.054688 C 12.578125 14.566406 13.613281 14.789062 13.730469 14.558594 L 13.734375 14.554688 Z M 13.878906 14.222656 "/>
<path fill-rule="nonzero" fill="rgb(100%, 100%, 100%)" fill-opacity="1" d="M 21.921875 20.128906 C 22.136719 20.472656 22.019531 20.984375 21.65625 21.273438 C 21.296875 21.5625 20.828125 21.519531 20.613281 21.179688 C 20.398438 20.835938 20.519531 20.324219 20.878906 20.035156 C 21.242188 19.746094 21.707031 19.785156 21.921875 20.128906 Z M 21.921875 20.128906 "/>
<path fill="none" stroke-width="35.799999" stroke-linecap="round" stroke-linejoin="round" stroke="rgb(100%, 100%, 100%)" stroke-opacity="1" stroke-miterlimit="4" d="M 422.713169 421.194569 L 230.135044 323.772694 " transform="matrix(0.0482759, 0, 0, 0.0482759, 0.710345, 0.236782)"/>
<path fill-rule="nonzero" fill="rgb(100%, 100%, 100%)" fill-opacity="1" stroke-width="0.5" stroke-linecap="round" stroke-linejoin="miter" stroke="rgb(0%, 0%, 0%)" stroke-opacity="1" stroke-miterlimit="4" d="M 266.966666 279.234876 C 266.992795 286.032612 239.483105 291.526817 205.612182 291.540826 C 171.682661 291.554555 144.225594 286.032192 144.258063 279.234736 C 144.231654 272.495599 171.682745 267.001115 205.612266 266.987386 C 239.483189 266.973376 266.998855 272.496019 266.966666 279.234876 Z M 266.966666 279.234876 " transform="matrix(0.0666594, -0.000318412, 0.000318412, 0.0666594, -4.056637, 2.330738)"/>
<path fill-rule="nonzero" fill="rgb(100%, 100%, 100%)" fill-opacity="1" d="M 13.785156 20.847656 C 13.496094 21.246094 11.792969 21.554688 9.742188 21.566406 C 7.714844 21.574219 6.03125 21.289062 5.703125 20.902344 L 5.707031 21.453125 C 5.699219 21.472656 5.695312 21.496094 5.695312 21.515625 C 5.695312 21.96875 7.507812 22.324219 9.742188 22.316406 C 11.964844 22.304688 13.765625 21.933594 13.785156 21.484375 L 13.789062 21.484375 L 13.789062 21.476562 Z M 13.785156 20.847656 "/>
</svg>
