<?xml version="1.0" encoding="UTF-8"?>
<svg xmlns="http://www.w3.org/2000/svg" xmlns:xlink="http://www.w3.org/1999/xlink" width="28" height="28" viewBox="0 0 28 28">
<path fill-rule="nonzero" fill="rgb(6.666667%, 6.666667%, 6.666667%)" fill-opacity="1" stroke-width="3.408" stroke-linecap="butt" stroke-linejoin="miter" stroke="rgb(93.333333%, 93.333333%, 93.333333%)" stroke-opacity="1" stroke-miterlimit="4" d="M 66.269531 1.780134 C 24.921875 1.780134 1.699219 23.141741 1.699219 66.835938 L 1.699219 516.967076 C 1.699219 557.748326 22.575335 579.190848 63.922991 579.190848 L 515.915179 579.190848 C 557.262835 579.190848 578.138951 558.800223 578.138951 516.967076 L 578.138951 66.835938 C 578.138951 24.193638 557.262835 1.780134 514.620536 1.780134 C 514.620536 1.780134 66.107701 1.618304 66.269531 1.780134 Z M 66.269531 1.780134 " transform="matrix(0.0482759, 0, 0, 0.0482759, 0, 0)"/>
<path fill-rule="nonzero" fill="rgb(100%, 100%, 100%)" fill-opacity="1" d="M 18.082031 6.078125 C 19.171875 6.078125 20.054688 5.195312 20.054688 4.105469 C 20.054688 3.015625 19.171875 2.132812 18.082031 2.132812 C 16.992188 2.132812 16.109375 3.015625 16.109375 4.105469 C 16.109375 5.195312 16.992188 6.078125 18.082031 6.078125 Z M 18.082031 6.078125 "/>
<path fill-rule="nonzero" fill="rgb(100%, 100%, 100%)" fill-opacity="1" d="M 15.550781 9.699219 L 15.5625 24.75 C 15.5625 26.253906 17.773438 26.242188 17.773438 24.714844 L 17.777344 15.960938 L 18.207031 15.957031 L 18.207031 24.710938 C 18.207031 26.238281 20.445312 26.277344 20.445312 24.75 L 20.445312 9.636719 L 20.835938 9.636719 L 20.835938 15.035156 C 20.835938 16.328125 22.59375 16.328125 22.59375 15.054688 L 22.59375 9.152344 C 22.59375 7.566406 21.414062 6.628906 20.164062 6.628906 L 16.65625 6.628906 C 15.828125 6.628906 15.222656 6.960938 14.714844 7.683594 L 12.941406 10.269531 L 9.863281 10.269531 C 8.625 10.269531 8.695312 12.023438 9.839844 12.023438 L 13.390625 12.023438 C 13.667969 12.023438 14.003906 11.921875 14.199219 11.628906 Z M 15.550781 9.699219 "/>
<path fill-rule="nonzero" fill="rgb(100%, 100%, 100%)" fill-opacity="1" d="M 9.765625 18.929688 L 9.765625 17.488281 L 8.324219 17.488281 L 8.324219 18.929688 Z M 9.765625 18.929688 "/>
<path fill-rule="nonzero" fill="rgb(100%, 100%, 100%)" fill-opacity="1" d="M 10.546875 15.730469 L 9.496094 14.679688 L 8.449219 15.730469 L 9.496094 16.78125 Z M 10.546875 15.730469 "/>
<path fill-rule="nonzero" fill="rgb(100%, 100%, 100%)" fill-opacity="1" d="M 9.566406 13.746094 L 8.519531 12.699219 L 7.46875 13.746094 L 8.519531 14.796875 Z M 9.566406 13.746094 "/>
<path fill-rule="nonzero" fill="rgb(100%, 100%, 100%)" fill-opacity="1" d="M 11.746094 25.863281 L 13.621094 15.910156 L 12.210938 15.910156 L 10.570312 24.476562 L 8.136719 24.476562 L 6.53125 15.914062 L 5.125 15.914062 L 6.960938 25.863281 Z M 11.746094 25.863281 "/>
</svg>
