<svg fill="none" xmlns="http://www.w3.org/2000/svg" viewBox="0 0 242 350">
  <g clip-path="url(#a)">
    <path d="M131 350H2c-1.7 0-2-.4-2-2V2c0-1.6.3-2 2-2h238c1.7 0 2 .4 2 2v64.3c-1.5-2.9-3.7-4-7-3.4-10.2 1.7-20.4 3.2-30.5 4.6-2 .3-4.1 1.2-6.2.5V13.4c0-5.5-2.9-8.1-8.4-7.7l-7.4.5-47 3.6-47.3 3.5V5.7c0-3.3-1.8-5.1-5.1-5a3122 3122 0 0 0-34.4 1.6 4 4 0 0 0-4 4.4L45.8 29c.2 3.1 2.2 4.6 5.4 4.5l2.8-.2c6-.5 12-1.5 18.2-1.7L74 80l1 32.8a37 37 0 0 1-3.3-1.6c-1.2-.7-1.7-.3-2.2.9-4.2 9.3-14.5 13.6-24.6 12-6-1-10.8-4.3-14.7-9-.5-.6-.6-1.7-2-1.1-6.8 3-13 6.5-15 14.5-1 3.8-2 7.7-2.5 11.6-1 8.2-1.2 16.6-1.6 24.8C3.3 167.3 1 171 1 177v28.2c0 5.4 2.7 9.3 7.9 11.4 0 3.4-.3 6.9 0 10.3.7 6.7 2.5 12.8 9.4 16 .6 7.4 2.4 14.5 8.3 19.8 0 .3.1.6.5.6 2.3 4.8 6.3 6.9 11.1 8 6 1.2 12.2 1 18.3 1.4l1.3 20.6 2 31.4c0 1.3-.2 1.8-1.6 1.9-1.8 0-3.6.1-5.3.4-5 .6-9.8 2.8-14.8 3.4a7.5 7.5 0 0 0-5.6 3.8A4.5 4.5 0 0 0 35 341a3.8 3.8 0 0 0 4.1-1.5c1-1.2.6-2.4-.3-3.6-1.9-2.6-1.2-4.2 1.9-5 1.3-.3 2.8-.8 3.9-.3 3.7 2 7.7 2.2 11.7 2.7-3.7 3-4.4 4.7-3.2 7.2a6.4 6.4 0 0 0 7 3.2 5.4 5.4 0 0 0 4.2-5.2c0-2.6-1.4-3.6-5.5-4.5.7-1 1.7-.6 2.6-.6 5.6 0 11-.3 16.5-2.1 2.8-1 5.8-.1 8.5 1.7-1.3.8-2.7 1.2-3.6 2.3-2.3 2.5-1.3 5.7 2 6.4a4.7 4.7 0 0 0 5.3-2 5 5 0 0 0 0-5.8 8.7 8.7 0 0 0-6-3.7c-2.8-.4-5.5-1-8.2-2-3-1.3-6.5-1.4-9.8-1.4-1.4 0-1.9-.5-2-2 0-3.2-.3-6.4-.5-9.7L61 272.7c2.7-.1 5.3-.1 8-.5 7.2-.9 14.3-2.4 19.6-8.1l31.4-.1c1.5 0 1.6.6 1.7 1.8l6.4 66.2c.2 2 .7 3 2.9 2.7l.1 15-.2.3ZM59.3 96.6c.6-.1 1.4.2 1.7-.4.2-.6-.5-1-.9-1.4l-1-1c.2-1.2 0-2.3-.5-3.3L54.3 79c2-2 2.5-4 1.3-5.5-1.5-1.9-3.4-1.6-5.3-.7-2 .9-4 1.6-6.1 2.1-1.4.4-2.6 1-2.6 2.6a2.8 2.8 0 0 1-1.4 2.4c-1.9 1.4-2 3.3-.9 5.3.7 1.1 1.9 1.9 2.2 3.2-.7.2-1.8-.2-2.2.8a2.6 2.6 0 0 0 .9 2.7c.9 1 2 1.8 3.2 2.3.7.4 1.3.8 1.4 1.7.2 3 .6 6 1 9 .1 2-.8 3-2.6 3.6-2.5.7-5 1.6-7.4 2.4-1.1.3-1.4.7-.6 1.8 4.2 5.7 9.9 7.8 16.7 6.8 4.5-.7 8.6-2.5 11.4-6.4 2.8-4 2.8-4.4-2-5.6l-2.5-.5c-.5-.5-1.2-.4-1.9-.4v-1.1c-1.1-3.1-1.4-6 1.9-8 .3 0 .3-.5.5-.9Zm150.3-66.1c-1.4.5-.5 2.8-2.7 2.3-1.3-.3-1 1-1 1.6-.2.7-1 1.7.6 2.2a2.2 2.2 0 0 1 .5 3.6c-1.1.8-.4 1.5 0 2.1.3.6.3 2 1.8 1.3 1.3-.5 3 1.3 2.5 2.6-.6 1.5.8 1.4 1.4 1.8.6.3 1.4 1 2.1-.1a2.1 2.1 0 0 1 3.8 0c.7 1.2 1.5.5 2 .2.7-.4 2-.2 1.5-1.8a2.1 2.1 0 0 1 1.5-2.5h1.1c1.3.5 1.4-.5 1.7-1 .2-.6 1.3-1.5.2-2.4a2.1 2.1 0 0 1 .6-3.7c1.3-.6.7-1.5.5-2.2-.2-.6.3-1.6-1-1.7a2.1 2.1 0 0 1-1.8-3.3c.8-1.3-.4-1.7-1-2.2-.5-.6-.7-1.4-1.8-.5a2.1 2.1 0 0 1-3.4-1.5c-.2-1.4-1.2-1-2-1-.6 0-1.7-.4-1.9 1-.3 1.8-2 2.5-3.6 1.3a.8.8 0 0 0-.9 0s-.2 0-.2.2c-1.2 1-2.9 1.9-.5 3.7Z" fill="#FEFDFD"/>
    <path d="M242 135.6V348c0 1.7-.4 2-2.2 2a22971.8 22971.8 0 0 0-94 0 .4.4 0 0 0-.2-.3h-.1c-.2-.7-.8-.8-1.2-1.1-2.3-1.7-5.6-3-6.8-5.3-1.2-2.3-.3-5.7-.4-8.6 2.5-.1 1.6-2.2 1.6-3.3 1.3-21 2.4-42.1 3.6-63.1.2-3.2-.1-6.5.8-9.6l18.6 26.1c2 2.9 2 2.9 5 1.3l8 11.2c2 2.8 2 2.8 4.8.6l11.7-9.9-9.6 2a2.2 2.2 0 0 1-2.7-1l-6-8c1-1 .8-2 .3-3.1-4.4-12-9-24-14.5-35.7-5.8-12.4-11.5-25-21.3-35.1v-31.6c0-2.7-1-3.5-3.8-3.2-2.3.4-4.7.5-7.1.7l-22.2 1.9c-3.2.3-3.2.4-3.3 3.6-.2 3.2.4 6.6-.4 10L97 166.6c-.2-1.1-.6-1.2-1.5-.7l-5.6 2.8-.8-4.1c1-.5 2-1.2 2.9-2l2.4-1.4a2.1 2.1 0 0 0 1.2-2.8l-5-20.1 1-.3 28.5-3.5 32.7-4 .2 18.1c0 4.8 2.4 6.7 7.2 5.8l75.9-15.1c2.6-.5 4.7-1.4 6-3.8Z" fill="#FEFEFE"/>
    <path d="M242 135.6c-1.3 2.4-3.4 3.3-6 3.8l-75.9 15.1c-4.7 1-7.2-1-7.2-5.7l-.1-18.1 10.6-1.2 21.3-2.7c2.7-.3 5.5-.5 8.3-1a6.7 6.7 0 0 0 5.1-6.9l.1-51c2.1.7 4.2-.1 6.2-.4 10.2-1.4 20.4-3 30.5-4.6 3.4-.6 5.5.5 7 3.3v69.4Zm-14.7-60.2-9.6 1.7-7 1.3a5 5 0 0 0-3.8 5.8c.5 2.3 2.1 3 5.3 2.5l14.4-2.5c2.4-.4 4.2-1.5 4.9-4 .7-2.6-1-4.9-4.2-4.8Zm-11.2 41 14.9-2.7c.9-.1 1.5-.6 1.3-1.5-.2-1-1-.9-1.7-.8l-5.2 1-9.4 1.6c-.8.2-1.5.6-1.3 1.6.1.7.7.9 1.4.8Zm.4 7.6 2.6-.5 11.9-2.1c.8-.2 1.6-.5 1.5-1.5-.1-1-.8-1-1.6-.9l-14.8 2.6c-.8.2-1.3.6-1.3 1.4.1.9.9 1 1.7 1Zm-.7-22.9 15.1-2.7c.8-.1 1.4-.6 1.2-1.4-.2-1-1-1-1.8-.9l-4.6.9-9.8 1.7c-.8.2-1.5.5-1.4 1.5 0 .8.7 1 1.3.9Zm.7 30.5 6.5-1.1 8.2-1.5c.8-.1 1.6-.6 1.3-1.5-.2-1-1-.8-1.7-.7l-3 .5-11.3 2c-.9.1-1.8.4-1.6 1.6.2.8.8.8 1.6.7Zm.2-23 5-1 9-1.5c.8-.1 1.6-.4 1.5-1.4 0-.9-.7-1-1.4-1l-15 2.7a1.3 1.3 0 0 0-1.2 1.5c.1.8.8.8 2.1.7ZM145.5 349.5a.4.4 0 0 1 .3.1.4.4 0 0 1 .1.4H131l.2-.5h14.3Z" fill="#6C507C"/>
    <path d="M198.2 68v51a6.7 6.7 0 0 1-5.2 6.7c-2.7.5-5.5.7-8.3 1.1l-21.3 2.6c-3.5.5-7 .8-10.6 1.2l-32.8 4-28.4 3.5-1 .3-6.5.6c-4.7.6-7.9-2-8-6.6l-1-19.5-1-32.7-1.8-48.6c3.4-.6 6.9-1 10.3-1.2 4.1-.4 5.6-1.8 5.6-5.9V13.4l47.4-3.6 46.9-3.5 7.5-.6c5.4-.4 8.3 2.3 8.3 7.7V68Zm-18.4 21.9c0-.6-1.7-1.8-2.4-1.3a1.5 1.5 0 0 1-2.5-.8c-.2-1.2-.7-1.2-1.5-1.2s-1.5 0-1.6 1.3a1.6 1.6 0 0 1-2.4.8c-.8-.8-1.2-.3-1.6.2-.4.4-1.3.7-.6 1.7.8 1.2 0 2-1 2.5-1.5.6-1.7 1.9-.4 2.9a1.8 1.8 0 0 1 .4 2.6c-.9 1.5-.4 2.5 1.2 2.6 1.2 0 2.1.8 1.9 2-.3 1.2.4 1.1 1 1.4.6.3 1.2.6 1.8-.3a1.6 1.6 0 0 1 2-.5c.3.1.5.3.6.5.7 1 1.3.5 2 .3.5-.3 1-.4.8-1.5a1.5 1.5 0 0 1 1.8-1.8c1.1.4 1.3-.3 1.5-.8.2-.6 1-1 0-1.8-1-.7-.7-2 .4-2.7a1.5 1.5 0 0 0 .1-2.6c-1.9-.7-2.6-1.5-1.5-3.5Zm-33-43 27.8-2.7c.8-.1 1.9-.3 1.7-1.4-.1-1.2-1.2-1-2.2-1L162 43l-15 1.5c-.9.1-2 .2-1.8 1.4 0 1 1 1.1 1.8 1Zm-55 33.7 21-2.1 6.5-.7c.8 0 1.4-.3 1.4-1.2 0-1-.8-1.2-1.6-1.1h-1.2l-26.4 2.8c-.9 0-2.1 0-2 1.2 0 1.7 1.3 1 2.2 1.1Zm55.5-41.4 26.8-2.8c1 0 2.2 0 2-1.3 0-1.3-1.3-1-2.2-1h-.9l-25.9 2.7c-1 .1-2.3 0-2.1 1.5.1 1.5 1.4.8 2.3.9Zm-1-7.7 28-2.7c.8 0 1.8-.3 1.7-1.4-.2-1-1.2-1-2.2-1-5.7.6-11.3 1-17 1.7l-10.6 1c-.8.1-1.8.4-1.6 1.6.2.8 1 1 1.7.8Zm-56 26.2h.4l27.5-2.7c1-.1 2.1-.3 1.9-1.6-.3-1.2-1.3-1-2.3-.9L101 54.2l-10.6 1c-.7.1-1.7.3-1.7 1.3s.8 1.2 1.6 1.2ZM119 68 106.6 69l-15 1.6c-1 0-2.6 0-2.4 1.5.2 1.5 1.6 1 2.7.9l16.4-1.7 10.6-1c.9-.1 1.7-.4 1.7-1.3 0-1-.9-1.3-1.7-1.1Zm-27-2.6 25.7-2.7c1-.2 2.8.4 2.5-1.5-.3-1.6-1.9-.7-3-.9h-.4L104 61.6l-13.4 1.3c-.8.1-1.6.4-1.5 1.4 0 1 1 1 1.7 1H92Zm55.7-10.7 10.2-1 17-1.8c.9 0 1.8-.2 1.7-1.2 0-1.1-1-1.2-1.8-1.1a7 7 0 0 0-1.2 0l-26.1 2.7c-1 .1-2.3.1-2.1 1.5.1 1.4 1.5.8 2.3.9Zm-1-30.8 15.2-1.4 12.4-1.4c.9 0 1.6-.3 1.5-1.3-.1-1-.8-1-1.6-1h-1.6l-25.9 2.8c-1 0-2.1 0-2 1.3 0 1.3 1.3.9 2 1ZM91 50l26-2.7c1-.1 3 .5 2.7-1.5-.3-1.7-2.1-.9-3.2-.8L91 47.6c-1 0-2.3-.2-2.2 1.3 0 1.5 1.3 1 2.3 1Zm33 49.5c.1-.7-.6-.7-1-1-1.1-.5-1.4.4-1.7 1-2.6 6-5.3 11.8-8 17.6-.2.7-1 1.4.3 2 1.4.7 1.6-.3 2-1.1l7.8-17.3.5-1.2Zm-16.1 3.8c0-.7-.6-1-1-1.3-.7-.6-1 0-1.3.4l-5.7 6.8c-.6.6-.7 1 0 1.6l7.2 5.4c.6.5 1 .2 1.5-.3 1-1.2 0-1.6-.8-2.2-1.6-1.3-4.6-2.5-4.7-4-.3-1.8 2.5-3.4 3.8-5.2l1-1.2Zm19.3-3.2c-.6 0-.8.7-1.1 1-.5.7 0 1 .4 1.4l4.8 3.6c.9.6 1 1 .2 1.8l-4 4.6c-.5.7-.8 1 0 1.9 1 .8 1.4.3 2-.4l5.4-6.4c.7-.8.8-1.2-.2-2-2.3-1.5-4.5-3.2-6.7-5l-.8-.5Z" fill="#3F2C48"/>
    <path d="m75 112.9 1 19.4c.2 4.7 3.4 7.3 8 6.7l6.5-.6 5 20a2.1 2.1 0 0 1-1.2 2.9c-.9.4-1.6.9-2.4 1.4a1.7 1.7 0 0 1-1-1.3L87.6 149l-1.8-6.4c-.2 1.5 0 3 .3 4.4l3 17.7.9 4.1 2 14.4c1 6 2.2 12 2.7 18.1v.9c-1.6 2.1-2 4.7-2.8 7.2l-2.3 1a8.5 8.5 0 0 1-4.7-2.3c-3-2.4-5.6-2-8.9-.7-14.2 6-28.5 11.6-42.8 17.3 0-7.1-.7-14.2-.8-21.3-.2-7.1-.6-14-.7-21.1l-.4-13.8c0-.5.2-1-.6-1.3-.6 2.2-.2 4.3-.3 6.3L9 174.8c-.3-3.2.2-6.5.2-9.7.3-8.3.5-16.6 1.6-24.9.6-3.9 1.4-7.8 2.5-11.6 2-8 8.2-11.5 15-14.5 1.3-.5 1.5.5 2 1 3.8 4.8 8.6 8.1 14.7 9.1 10 1.6 20.4-2.7 24.5-12 .6-1.2 1-1.6 2.3-.9 1 .6 2.1 1.1 3.3 1.6Zm-2.3 84.4.3-.8-10-3.8-.3.9 10 3.7ZM85.9 181c-.4 2.2-.2 4.6.5 6.7.5-2.2.3-4.6-.5-6.7Zm-8.3 7.6.7-.7-4.5-5-.7.7 4.5 5ZM30.7 160h-.2v5h.2v-5Zm54.4-19.8v.2h.1v-.2h-.1Z" fill="#E63A5E"/>
    <path d="M137.5 207c9.8 10 15.5 22.7 21.3 35a440.9 440.9 0 0 1 14.6 35.8c.4 1 .7 2.1-.4 3-2.3 1.4-4.5 3.2-6.3 5.2-3 1.5-3 1.5-5-1.4l-18.6-26a2.6 2.6 0 0 1-.3-2c.7-3.7.3-7.5.3-11.1-.2-1.9-1-3.6-2.4-5-2.3-2.3-5.1-4-8.3-4.9-1.4-.5-1.6-1-.7-2.3 1-1.2 2.3-2.3 2.6-4l-16.1 9c-13 7.5-26.1 14.8-39.4 21.7-2.6 1.4-5.5 2.2-8 3.7l-6.8 2c-8.7 2.5-17.9 3-26.8 1.3-3.6-.7-6.8-2.5-10.2-3.7l-.4-.7c-6-5.3-7.7-12.3-8.3-19.8 2.1.7 4.4.9 6.6.6 6.2-.9 11.7-3.6 17-6.5 8.6-4.4 16.5-9.9 24.6-15 4.2-1.3 8.3-2.7 12.3-4.3l2.7-.8c13.6-4.4 27.1-9 41.1-12 5.3-1.1 10.5-2.1 15 2.1Z" fill="#01A550"/>
    <path d="M134.3 229.3c-.3 1.7-1.7 2.7-2.6 4-1 1.3-.7 1.8.8 2.3 3 1 6 2.6 8.2 5 1.4 1.3 2.2 3 2.4 4.9 0 3.7.4 7.4-.3 11a2.6 2.6 0 0 0 .3 2c-.9 3.2-.6 6.5-.8 9.7l-3.5 63c-.1 1.2.9 3.3-1.6 3.4H131c-2.2.4-2.7-.8-2.9-2.7-2-22-4.3-44.2-6.4-66.2-.1-1.2-.2-1.8-1.7-1.8H88.7l-17.8-.1c2.4-1.6 5.3-2.3 8-3.7 13.2-7 26.3-14.2 39.3-21.7 5.3-3.1 10.7-6 16-9v-.1Z" fill="#018B44"/>
    <path d="M66.6 221.8c-8.1 5.2-16 10.8-24.6 15.2a54.3 54.3 0 0 1-17 6.4c-2.2.3-4.5 0-6.7-.6-6.9-3-8.6-9.2-9.3-16-.3-3.3-.1-6.8-.1-10.2-.1-12-.2-23.9.1-35.8l21.4-1.4v43.4c0 3 0 3 2.8 1.7 14.3-5.7 28.6-11.3 42.8-17.2 3.3-1.4 6-1.7 8.8.7 1.3 1.2 3 2 4.8 2.3.6 2.2-1.2 2-2.4 2.2a.8.8 0 0 0-1-.4c0-.4-.1-.5-.4-.5a.8.8 0 0 0-1-.5c0-.3-.1-.4-.4-.5a.8.8 0 0 0-1-.4c0-.3-.1-.4-.4-.5a.8.8 0 0 0-1-.4v-.3.2a.8.8 0 0 0 1 .5l.5.5a.8.8 0 0 0 .9.4c0 .3.2.5.5.5a.8.8 0 0 0 1 .5c0 .3.1.4.4.4l.6.8c-1.6 1.9-3.5.6-5.3.6-.6-1.1-1.5-1.6-2.6-.8l-12.4 9.2Z" fill="#F8B5A7"/>
    <path d="M88.2 13.4v11.1c0 4-1.5 5.5-5.6 5.9-3.5.2-7 .6-10.4 1.2-6 .2-12.1 1.2-18.2 1.8l-2.8.2c-3.2 0-5.1-1.4-5.3-4.5a873 873 0 0 1-1-24 4 4 0 0 1 3.8-2.8l12.8-.7L83.1.8c3.3-.2 5 1.6 5 4.9l.1 7.7ZM54 26l5.3-.5 21.3-2.1c.8-.1 2.1 0 2-1.4-.2-1.3-1.3-1-2.2-1L61.9 23l-8.5 1c-1 0-2.2 0-2 1.3.1 1.3 1.3 1 2.2 1h.4Zm-1.2-7.5 13.5-1.3 14.3-1.5c.9 0 1.9-.2 1.8-1.3 0-1.1-1.1-1-2-1L75 14l-22.2 2.3c-.8 0-1.7.2-1.6 1.3.1 1 .9 1.1 1.7 1Zm1.4-7.9 16-1.6 10.4-1c.9-.1 1.7-.3 1.5-1.4-.1-1-1-1-1.8-1l-.9.1-17.1 1.8-9.8 1c-.8 0-1.6.2-1.6 1.2s1 1 1.7 1h1.6Z" fill="#E63D60"/>
    <path d="m61.1 272.6 2.6 42.3c.1 3.2.5 6.5.6 9.8 0 1.4.5 1.8 1.8 1.8 3.4.1 6.8.2 9.9 1.5 2.6 1 5.4 1.6 8.2 2a8.7 8.7 0 0 1 6 3.6 5 5 0 0 1 0 6 4.7 4.7 0 0 1-5.3 1.9c-3.3-.7-4.3-3.9-2-6.4.9-1.1 2.2-1.5 3.6-2.3-2.7-1.9-5.7-2.7-8.5-1.7a51 51 0 0 1-16.5 2c-.9 0-2-.2-2.6.7 4.1.9 5.4 2 5.5 4.4a5.4 5.4 0 0 1-4.2 5.3 6.4 6.4 0 0 1-7-3.2c-1.3-2.5-.5-4.2 3.2-7.2-4-.6-8-.8-11.7-2.7-1-.5-2.6 0-4 .3-3 .8-3.7 2.4-1.8 5 .9 1.2 1.3 2.4.3 3.6a3.8 3.8 0 0 1-4.1 1.5 4.5 4.5 0 0 1-2.7-6.7 7.5 7.5 0 0 1 5.6-3.8c5-.6 9.7-2.8 14.7-3.4 1.8-.3 3.6-.4 5.4-.5 1.4 0 1.6-.6 1.5-1.8l-2-31.4-1.2-20.6h4.7Z" fill="#3E3F3D"/>
    <path d="m54.4 79.1 4.2 11.5c.5 1 .7 2.1.6 3.2l-2.3-.6c1.4-2.3-.7-3.7-1.4-5.4a1 1 0 0 0-1.4-.5c-.6.3-.4 1-.2 1.4.4 1.6 1 3 1.5 4.6-.6.7-1.2 1.3-1.6 2-.7 1-1.7 2.6-.7 3.3 1 .8 2.3-.5 3-1.5 1-1.7 2-1.5 3.3-.4l-.5 1c-3.3 2-3 4.9-2 8v1.1l.8 3.5c.6-1 1-2 1.2-3.1l2.5.5c4.7 1.2 4.8 1.4 2 5.6a15.7 15.7 0 0 1-11.4 6.3c-6.9 1.1-12.5-1-16.7-6.8-.8-1-.5-1.4.5-1.7l7.5-2.5c1.8-.5 2.7-1.6 2.5-3.6l-1-9c0-.9-.7-1.2-1.4-1.6-1.2-.6-2.3-1.4-3.2-2.3a2.6 2.6 0 0 1-.8-2.7c.4-1 1.4-.7 2.2-.8 0 .3.4.4.7.5l2.1 2a1.5 1.5 0 0 0 1.9.6c.7-.4.4-1 .3-1.7-.3-2.7-.9-5.3-1.8-7.8-.5-1.3 0-1.5 1.1-1.5 3 .2 5.8-.4 8.5-1.6Z" fill="#F8B5A7"/>
    <path d="M9 180.7c-.4 12-.3 24-.2 35.9-5-2.2-7.8-6-7.8-11.5v-28c0-6.3 2.4-9.8 8.2-12 0 3.2-.5 6.4-.2 9.7v6ZM61.1 272.6h-4.7c-6.1-.3-12.3-.1-18.3-1.4-4.8-1-8.8-3.2-11-7.9 3.3 1.2 6.5 3 10 3.7 9 1.7 18.2 1.2 26.9-1.3l6.9-2 17.8.2c-5.4 5.8-12.4 7.3-19.7 8.2-2.6.3-5.3.4-7.9.5Z" fill="#563E5F"/>
    <path d="M209.6 30.5c-2.4-1.8-.7-2.7.5-3.7a.8.8 0 0 1 .5-.4.8.8 0 0 1 .7.2c1.6 1.1 3.2.5 3.5-1.3.3-1.4 1.3-1 2-1s1.7-.4 2 1a2.1 2.1 0 0 0 3.3 1.5c1.1-.9 1.5 0 1.9.5.4.4 1.7 1 1 2.2a2.1 2.1 0 0 0 1.8 3.3c1.2.1.8 1.2 1 1.7 0 .6.7 1.6-.6 2.2a2.1 2.1 0 0 0-.6 3.7c1 1 0 1.7-.2 2.4-.3.7-.4 1.5-1.6 1a2.1 2.1 0 0 0-2.7 2.5c.6 1.6-.8 1.4-1.4 1.8-.7.3-1.4 1-2.1-.2a2.1 2.1 0 0 0-3.7 0c-.8 1.2-1.6.4-2.2 0-.6-.3-2-.2-1.3-1.7.5-1.3-1.3-3.1-2.5-2.6-1.6.7-1.6-.6-2-1.3-.3-.6-1-1.3.1-2a2.2 2.2 0 0 0-.5-3.7c-1.5-.5-.8-1.5-.7-2.2.1-.6-.2-1.9 1.1-1.6 2.2.6 1.3-1.8 2.7-2.3Zm.2 6.1c0 4.3 3 7.9 6.8 8 3.8 0 7.1-3.6 7.1-8s-3.2-8-7-8c-3.9.1-7 3.7-7 8Z" fill="#594364"/>
    <path d="M54.4 79.1a18 18 0 0 1-8.6 1.6c-1 0-1.5.2-1 1.4.8 2.6 1.4 5.2 1.7 8 0 .5.4 1.2-.3 1.6a1.5 1.5 0 0 1-1.9-.5L42.2 89c-.2-.2-.3-.5-.7-.5-.3-1.3-1.6-2-2.2-3.1-1.2-2.1-1-4 .9-5.4a2.8 2.8 0 0 0 1.4-2.3c0-1.6 1.2-2.3 2.6-2.6 2-.5 4.1-1.3 6.1-2.2 1.8-.9 3.8-1.1 5.3.7 1.3 1.6.8 3.6-1.2 5.5Z" fill="#FA9405"/>
    <path d="M131 334.6h6.2c0 3-.8 6.3.3 8.6 1.2 2.3 4.5 3.5 6.8 5.2.5.3 1 .5 1.2 1.1h-14.3l-.1-14.9Z" fill="#3E3F3D"/>
    <path d="m56.9 93.1 2.3.7 1 1c.2.5 1 .9.8 1.5-.3.6-1.1.2-1.7.4-1.3-1-2.3-1.3-3.3.4-.6 1-2 2.3-3 1.5-1-.7 0-2.3.7-3.3l1.6-2 1.6-.2Z" fill="#FA9405"/>
    <path d="M58.8 107.2a8 8 0 0 1-1.1 3l-.8-3.4c.7 0 1.4-.2 2 .4Z" fill="#DE395D"/>
    <path d="m26.6 262.7.5.6c-.4 0-.5-.3-.5-.6Z" fill="#563E5F"/>
    <path d="M87.2 212.5c1.2-.3 3 0 2.3-2.2l2.4-1 8-2.5a1.7 1.7 0 0 0 1.3-2c-.2-5.5.3-11-.4-16.6.8-3.2.2-6.5.3-9.9.1-3.3.1-3.3 3.4-3.6l22.1-1.9 7.2-.6c2.6-.4 3.7.4 3.7 3.1v31.6c-4.4-4.3-9.5-3.2-14.8-2.1-14 3-27.5 7.6-41.1 12l-2.7.8a6 6 0 0 1 2.7-4.3c1.8 0 3.7 1.3 5.3-.5l.3-.3Zm36.4-20.7a4.4 4.4 0 1 0-8.8 0 4.4 4.4 0 0 0 8.8 0Z" fill="#B2DFCF"/>
    <path d="M100.8 188.3c.7 5.5.2 11 .4 16.6a1.7 1.7 0 0 1-1.3 2l-8 2.4c.8-2.5 1.1-5 2.8-7.2 1.3-.1 2.6-.6 3.6-1.5-1.4-.4-2.3 1.2-3.6.6-.5-6-1.7-12-2.6-18.1L90 168.7l5.5-2.8c1-.4 1.3-.4 1.5.8l3.8 21.6ZM99 200H99h.1Z" fill="#F8B5A7"/>
    <path d="M166.7 286c1.8-2 4-3.7 6.3-5 2 2.6 4 5.1 6 7.9a2.2 2.2 0 0 0 2.7 1l9.6-2-11.7 9.9c-2.7 2.2-2.7 2.2-4.8-.6l-8-11.2Z" fill="#3E3F3D"/>
    <path d="m89.1 164.6-3-17.7c-.3-1.4-.4-2.9-.3-4.3.6 2.1 1.3 4.2 1.8 6.4a1157 1157 0 0 1 3.7 13.2c.1.2.3.3.6.4-.8.9-1.8 1.5-2.8 2Z" fill="#DE395D"/>
    <path d="M227.3 75.4c3.2 0 5 2.1 4.2 4.8-.7 2.5-2.5 3.6-4.9 4l-14.4 2.5c-3.2.6-4.8-.2-5.3-2.5a5 5 0 0 1 3.8-5.8l7-1.3 9.6-1.7Z" fill="#FEFDFD"/>
    <path d="M216.1 116.4c-.7.1-1.3-.1-1.4-.8-.2-1 .5-1.4 1.3-1.6l9.4-1.6 5.2-1c.7 0 1.5-.2 1.7.8.2.9-.4 1.4-1.3 1.5l-14.9 2.7ZM216.5 124c-.8 0-1.6 0-1.7-1 0-1 .5-1.2 1.3-1.3L231 119c.8-.1 1.5.1 1.6 1 0 .8-.7 1.3-1.5 1.4l-11.9 2.1-2.6.5ZM215.8 101.1c-.6 0-1.2-.1-1.3-.9-.1-1 .6-1.3 1.4-1.5l9.8-1.7 4.6-.9c.8-.1 1.6-.2 1.8.9.2.8-.4 1.3-1.2 1.4l-15 2.7ZM216.5 131.6c-.8.1-1.4 0-1.6-.7-.2-1.2.7-1.5 1.6-1.7l11.4-2 3-.4c.6-.1 1.5-.2 1.6.7.2.9-.5 1.4-1.3 1.5-2.7.6-5.5 1-8.2 1.5l-6.5 1.1ZM216.7 108.6c-1.3.1-2 0-2-.7a1.3 1.3 0 0 1 .6-1.3l.5-.2 15-2.6c.8-.1 1.4 0 1.4.9.1 1-.6 1.3-1.4 1.4l-9 1.6-5 .9ZM179.8 89.9c-1 2-.4 2.8 1.5 3.5a1.5 1.5 0 0 1-.2 2.6c-1 .7-1.4 1.9-.3 2.7 1 .9.1 1.3 0 1.8-.2.5-.4 1.1-1.5.8a1.5 1.5 0 0 0-1.9 1.8c.3 1.1-.3 1.2-.8 1.5-.6.2-1.3.8-2-.3a1.6 1.6 0 0 0-2-.5c-.3.1-.4.3-.6.5-.6.8-1.1.6-1.7.3-.7-.3-1.3-.3-1.1-1.4.2-1.1-.7-2-1.8-2-1.7-.1-2.2-1-1.3-2.6a1.9 1.9 0 0 0 .1-2c-.1-.3-.3-.5-.5-.6-1.3-1-1-2.3.3-2.9 1.1-.5 2-1.3 1.1-2.6-.6-1 .2-1.2.6-1.6.4-.5.8-1 1.7-.3a1.6 1.6 0 0 0 2.4-.7c0-1.4.7-1.3 1.6-1.3.8 0 1.3 0 1.5 1.2a1.6 1.6 0 0 0 2.5.8c.7-.5 2.4.7 2.4 1.3Zm-1.2 6.1c0-3.4-2.3-6.1-5.3-6-3 0-5.3 2.6-5.4 5.9 0 3.2 2.6 6.1 5.4 6.1 2.8 0 5.3-2.7 5.3-6Z" fill="#F4F3F4"/>
    <path d="M146.9 47c-.9 0-1.7 0-1.8-1-.1-1.3 1-1.4 1.8-1.5l15-1.5 12.2-1.2c1 0 2-.3 2.3 1 .1 1.3-1 1.3-1.8 1.4l-27.7 2.7Z" fill="#FA9405"/>
    <path d="M91.7 80.6c-.8 0-2.2.6-2.2-1 0-1.3 1.1-1.2 2-1.3l26.4-2.7h1.2c.8-.1 1.6 0 1.6 1s-.6 1.2-1.4 1.3l-6.5.6-21 2.1Z" fill="#F4F3F4"/>
    <path d="M147.3 39.2c-.9-.1-2.1.5-2.3-.9-.2-1.4 1-1.4 2.1-1.5l26-2.6h.9c.9 0 2.1-.4 2.2 1 0 1.2-1 1.1-2 1.2l-26.9 2.8Z" fill="#FA9405"/>
    <path d="M146.3 31.5c-.7.2-1.5 0-1.6-.8-.2-1.2.8-1.4 1.6-1.5 3.5-.5 7-.8 10.6-1.1l17-1.6c1-.2 2-.3 2.1 1 .2 1-.8 1.3-1.7 1.4l-28 2.6Z" fill="#DE395D"/>
    <path d="M90.4 57.7c-.8 0-1.6-.3-1.6-1.2 0-1 1-1.2 1.7-1.3l10.7-1c5.5-.6 11-1 16.6-1.7 1-.1 2-.2 2.3 1 .2 1-1 1.4-1.9 1.5l-27.5 2.7h-.3Z" fill="#01A550"/>
    <path d="M118.9 67.9c.8-.2 1.6.2 1.6 1 0 1-.8 1.3-1.6 1.4l-10.7 1L91.8 73c-1 .1-2.4.6-2.6-.9-.2-1.5 1.4-1.4 2.4-1.5l15-1.5 12.3-1.2Z" fill="#DE395D"/>
    <path d="M92 65.3h-1.2c-.7 0-1.7.2-1.7-1 0-1.1.7-1.2 1.5-1.3l13.4-1.4 12.7-1.3h.5c1 .1 2.7-.8 3 .9.2 1.8-1.6 1.3-2.6 1.4L92 65.3Z" fill="#01A550"/>
    <path d="M147.6 54.6c-.8-.1-2.2.4-2.3-.9 0-1.3 1-1.4 2.1-1.5l26.2-2.7h1.1c1 0 1.9 0 1.9 1.1 0 1-.9 1-1.7 1.2l-17 1.8-10.3 1ZM146.6 23.8c-.7-.1-2 .4-2-1 0-1.5 1-1.3 2-1.4l25.9-2.7h1.6c.8 0 1.5 0 1.6 1 .1.8-.6 1.2-1.5 1.3l-12.4 1.3c-5 .6-10 1-15.2 1.5ZM91 50c-1-.2-2.2.3-2.3-1.1-.1-1.4 1.2-1.3 2.2-1.4l25.6-2.6c1-.2 3-1 3.2.7.4 2-1.6 1.4-2.7 1.5-8.7 1-17.4 2-26 2.8Z" fill="#DE395D"/>
    <path d="m124 99.4-.6 1.2-7.8 17.3c-.4.8-.5 1.9-2 1.1-1.4-.7-.5-1.3-.2-2l8-17.5c.2-.7.5-1.6 1.6-1 .4.2 1.1.2 1 1ZM107.9 103.2l-1 1.2c-1.3 1.8-4 3.4-3.8 5.2.1 1.6 3 2.7 4.7 4 .7.6 1.8 1 .8 2.2-.5.6-.9.8-1.5.3l-7.1-5.3c-.8-.6-.7-1-.1-1.7l5.7-6.7c.3-.4.6-1 1.3-.4.4.3 1 .5 1 1.2ZM127.2 100l.8.6 6.7 5c1 .6.9 1 .2 1.9l-5.5 6.4c-.5.6-1 1-1.8.3-1-.7-.6-1.2 0-1.8l4-4.6c.6-.8.6-1.3-.3-1.8l-4.8-3.7c-.5-.3-1-.7-.4-1.3.3-.4.5-1 1.1-1Z" fill="#F4F3F4"/>
    <path d="M9 180.7v-6l21.3-1.3v6L9 180.7Z" fill="#FEFDFD"/>
    <path d="M30.3 179.4v-6c.2-2-.3-4.2.3-6.3.8.3.6.8.6 1.2l.4 13.9.7 21c.1 7 .7 14.2.8 21.4-2.8 1.3-2.8 1.3-2.8-1.7v-43.5Z" fill="#DE395D"/>
    <path d="m72.7 197.3-10-3.7.3-1 10 3.9-.3.8ZM86 180.9c.7 2.1.9 4.5.4 6.7-.7-2.1-.9-4.5-.5-6.7ZM77.6 188.5l-4.6-5 .7-.7 4.6 5-.7.7Z" fill="#F4F3F4"/>
    <path d="M94.7 201.2c1.3.6 2.2-1 3.6-.6-1 .9-2.3 1.4-3.6 1.5v-.9Z" fill="#E63D60"/>
    <path d="M30.7 160v5h-.2v-5h.2ZM85 140.2h.2v.2H85v-.2Z" fill="#DE395D"/>
    <path d="M81.6 213.4a6 6 0 0 0-2.7 4.2c-4 1.7-8.1 3-12.3 4.3l12.4-9.3c1-.8 2-.3 2.6.8ZM87.2 212.5c0 .2-.2.3-.3.3l-.6-.8a.8.8 0 0 1 1 .5ZM82 209.3a.8.8 0 0 1 1 .4.8.8 0 0 1-1-.4ZM84.4 210.6a.8.8 0 0 1-.9-.4.8.8 0 0 1 1 .4ZM85.8 211.6a.8.8 0 0 1-1-.4.8.8 0 0 1 1 .4Z" fill="#E63D60"/>
    <path d="M82 209.2c-.1-.1 0-.1 0-.2l.1.3ZM83.5 210.2l-.5-.5c.3 0 .5.2.5.5ZM84.9 211.1c-.3 0-.5-.2-.5-.5.3 0 .5.2.5.5ZM86.3 212c-.3 0-.5-.1-.5-.4.3 0 .5.1.5.4Z" fill="#E63D60"/>
    <path d="M54 26.2h-.5c-.8 0-2 .4-2.1-1-.1-1.4 1-1.3 2-1.4l8.5-.9 18.4-1.8c1 0 2-.3 2.2 1 .2 1.3-1 1.3-2 1.4l-21.2 2.1-5.3.5ZM52.8 18.6c-.8.1-1.6 0-1.7-1-.1-1 .7-1.3 1.6-1.3L74.8 14l5.6-.5c.8 0 1.9-.3 2 1 0 1.1-1 1.2-1.8 1.3l-14.3 1.5-13.5 1.3ZM54.2 10.8h-1.6c-.8 0-1.7 0-1.7-1s.8-1.2 1.6-1.3l9.8-1 17.1-1.7h1c.7 0 1.6 0 1.7.9.2 1-.6 1.3-1.5 1.3L70.2 9.1l-16 1.7Z" fill="#F4F3F4"/>
    <path d="m56.9 93.1-1.6.2-1.5-4.6c-.1-.5-.3-1 .3-1.4a1 1 0 0 1 1.3.5c.8 1.7 2.8 3 1.5 5.3Z" fill="#DE395D"/>
    <path d="M41.5 88.5c.4 0 .6.3.8.5-.3 0-.7 0-.8-.5Z" fill="#FEFDFD"/>
    <path d="M209.8 36.6c0-4.3 3-7.9 6.8-8 3.8 0 7.1 3.6 7.1 8s-3.2 8-7 8c-4-.1-7-3.7-7-8Zm7 5.5a5.5 5.5 0 1 0-5.1-5.5 5.3 5.3 0 0 0 5 5.5Z" fill="#F4F3F4"/>
    <path d="M123.6 191.8a4.3 4.3 0 1 1-4.3-4.4 4.4 4.4 0 0 1 4.3 4.4Z" fill="#FEFDFD"/>
    <path d="m99 200 .1.2H99v-.1Z" fill="#E63D60"/>
    <path d="M178.6 96c0 3.3-2.4 6-5.2 6-2.9 0-5.5-2.9-5.4-6.1.1-3.3 2.5-6 5.4-6 2.9 0 5.2 2.7 5.2 6.1Zm-5.2 4.2a4.1 4.1 0 0 0 3.8-4.2 4 4 0 0 0-4-4.2 4 4 0 0 0-3.7 4.2 4 4 0 0 0 3.9 4.2Z" fill="#563E5F"/>
    <path d="M216.8 42.1a5.5 5.5 0 0 1 0-11 5.5 5.5 0 0 1 0 11Zm2.8-5.6c-.3-1.6-1-3-2.9-3a3 3 0 0 0-2.7 3.3c.2 1.7 1 3 2.9 3 1.9-.2 2.4-1.6 2.7-3.3Z" fill="#594364"/>
    <path d="M173.4 100.2a4 4 0 0 1-4-4.2 4 4 0 0 1 3.8-4.2 4 4 0 0 1 4 4.2 4 4 0 0 1-3.8 4.2Zm2-4.3c-.1-1.3-.7-2.3-2-2.3-1.5 0-2.1 1-2.1 2.3 0 1.3.6 2.5 2.1 2.4 1.5 0 2-1.1 2-2.4Z" fill="#F4F3F4"/>
    <path d="M219.6 36.5c-.3 1.7-.8 3.1-2.7 3.2-2 .1-2.7-1.2-2.9-2.9a3 3 0 0 1 2.7-3.3c2 0 2.6 1.4 2.9 3Z" fill="#FEFDFD"/>
    <path d="M175.4 95.9c0 1.3-.5 2.3-2 2.4-1.4 0-2-1-2-2.4s.5-2.3 2-2.3c1.4 0 1.9 1 2 2.3Z" fill="#3F2C48"/>
  </g>
  <defs>
    <clipPath id="a">
      <path fill="#fff" d="M0 0h242v350H0z"/>
    </clipPath>
  </defs>
</svg>
