<?xml version="1.0" encoding="UTF-8"?>
<svg xmlns="http://www.w3.org/2000/svg" xmlns:xlink="http://www.w3.org/1999/xlink" width="24" height="24" viewBox="0 0 24 24">
<path fill-rule="nonzero" fill="rgb(0%, 0%, 0%)" fill-opacity="1" d="M 2.480469 11.742188 C -1.339844 4.386719 8.289062 -0.515625 12.003906 6.839844 C 15.71875 -0.515625 25.34375 4.386719 21.527344 11.742188 C 21.386719 12.007812 21.203125 12.292969 21.027344 12.574219 L 18.136719 12.574219 L 15.234375 8.21875 C 15.132812 8.070312 14.992188 7.949219 14.824219 7.871094 C 14.660156 7.792969 14.476562 7.761719 14.296875 7.78125 C 14.117188 7.800781 13.941406 7.867188 13.796875 7.976562 C 13.652344 8.085938 13.539062 8.234375 13.472656 8.402344 L 10.835938 14.996094 L 8.707031 12.867188 C 8.519531 12.679688 8.265625 12.574219 8 12.574219 L 2.976562 12.574219 C 2.804688 12.292969 2.617188 12.007812 2.480469 11.742188 Z M 17.601562 14.574219 C 17.433594 14.574219 17.273438 14.535156 17.128906 14.457031 C 16.984375 14.378906 16.859375 14.265625 16.765625 14.128906 L 14.621094 10.910156 L 12.128906 17.148438 C 12.066406 17.300781 11.96875 17.4375 11.839844 17.542969 C 11.714844 17.648438 11.5625 17.722656 11.402344 17.753906 C 11.335938 17.769531 11.265625 17.773438 11.199219 17.773438 C 10.933594 17.773438 10.679688 17.671875 10.492188 17.484375 L 7.585938 14.574219 L 4.378906 14.574219 C 6.5625 17.246094 8.949219 19.742188 11.511719 22.050781 C 11.648438 22.175781 11.828125 22.242188 12.011719 22.242188 C 12.195312 22.242188 12.371094 22.175781 12.507812 22.050781 C 15.066406 19.742188 17.445312 17.242188 19.628906 14.574219 Z M 17.601562 14.574219 "/>
</svg>
