<?xml version="1.0" encoding="UTF-8"?>
<svg xmlns="http://www.w3.org/2000/svg" xmlns:xlink="http://www.w3.org/1999/xlink" width="24" height="24" viewBox="0 0 24 24">
<path fill-rule="nonzero" fill="rgb(0%, 0%, 0%)" fill-opacity="1" d="M 6.976562 22.398438 C 5.375 22.398438 6.078125 18.128906 5.601562 14.398438 C 5.441406 13.183594 4 12.015625 3.808594 11.105469 C 3.199219 8 2.222656 2.304688 5.855469 1.601562 C 9.488281 0.894531 9.601562 4.800781 12.0625 4.800781 C 14.527344 4.800781 14.574219 1.023438 18.222656 1.601562 C 21.871094 2.175781 20.769531 7.839844 20.289062 11.039062 C 20.128906 11.761719 18.527344 13.40625 18.398438 14.335938 C 17.871094 18.175781 18.910156 22.335938 17.121094 22.335938 C 15.632812 22.335938 15.007812 17.984375 13.921875 15.136719 C 13.488281 13.808594 12.894531 12.800781 12.0625 12.800781 C 9.601562 12.800781 9.199219 22.398438 6.976562 22.398438 Z M 6.976562 22.398438 "/>
</svg>
