<?xml version="1.0" encoding="UTF-8"?>
<svg xmlns="http://www.w3.org/2000/svg" xmlns:xlink="http://www.w3.org/1999/xlink" width="24" height="24" viewBox="0 0 24 24">
<path fill-rule="nonzero" fill="rgb(0%, 0%, 0%)" fill-opacity="1" d="M 9.601562 1.601562 C 8.75 1.601562 7.9375 1.9375 7.335938 2.539062 C 6.738281 3.136719 6.398438 3.953125 6.398438 4.800781 L 6.398438 10.398438 C 6.398438 10.613281 6.484375 10.816406 6.632812 10.964844 C 6.785156 11.117188 6.988281 11.199219 7.199219 11.199219 L 10.398438 11.199219 C 10.613281 11.199219 10.816406 11.117188 10.964844 10.964844 C 11.117188 10.816406 11.199219 10.613281 11.199219 10.398438 L 11.199219 7.199219 C 11.199219 6.988281 11.285156 6.785156 11.433594 6.632812 C 11.585938 6.484375 11.789062 6.398438 12 6.398438 L 22.398438 6.398438 L 22.398438 1.601562 Z M 11.199219 24 L 6.398438 24 C 6.222656 24 6.050781 23.9375 5.910156 23.828125 C 5.773438 23.71875 5.675781 23.5625 5.632812 23.390625 L 3.199219 13.792969 C 3.175781 13.691406 3.167969 13.582031 3.183594 13.480469 C 3.199219 13.375 3.238281 13.277344 3.292969 13.1875 C 3.34375 13.097656 3.417969 13.019531 3.5 12.957031 C 3.585938 12.894531 3.683594 12.847656 3.785156 12.824219 C 3.855469 12.804688 3.925781 12.796875 4 12.800781 L 13.601562 12.800781 C 13.8125 12.792969 14.019531 12.871094 14.171875 13.019531 C 14.324219 13.164062 14.417969 13.363281 14.421875 13.574219 C 14.425781 13.648438 14.417969 13.722656 14.398438 13.792969 L 12 23.390625 C 11.957031 23.570312 11.851562 23.726562 11.707031 23.835938 C 11.5625 23.949219 11.382812 24.003906 11.199219 24 Z M 5.839844 17.601562 L 11.777344 17.601562 L 12.574219 14.398438 L 5.023438 14.398438 Z M 5.839844 17.601562 "/>
</svg>
