<?xml version="1.0" encoding="UTF-8"?>
<svg xmlns="http://www.w3.org/2000/svg" xmlns:xlink="http://www.w3.org/1999/xlink" width="24" height="24" viewBox="0 0 24 24">
<path fill-rule="nonzero" fill="rgb(0%, 0%, 0%)" fill-opacity="1" d="M 4.800781 1.839844 C 5.132812 0.558594 6.445312 -0.210938 7.726562 0.125 C 9.011719 0.457031 9.777344 1.769531 9.445312 3.050781 C 9.125 4.28125 7.902344 5.046875 6.65625 4.800781 C 5.355469 4.542969 4.511719 3.28125 4.769531 1.980469 C 4.777344 1.933594 4.789062 1.886719 4.800781 1.839844 Z M 22.398438 19.710938 C 22.566406 20.582031 21.996094 21.417969 21.128906 21.582031 C 21.125 21.582031 21.121094 21.582031 21.121094 21.585938 C 20.441406 21.722656 19.75 21.40625 19.40625 20.800781 L 16.71875 15.40625 L 14.398438 15.871094 L 14.046875 16 L 13.953125 16 L 13.953125 19.441406 L 14.945312 19.199219 L 15.167969 19.199219 C 15.628906 19.207031 15.992188 19.589844 15.984375 20.046875 C 15.976562 20.378906 15.777344 20.671875 15.472656 20.800781 L 7.472656 22.398438 C 7.382812 22.414062 7.289062 22.414062 7.199219 22.398438 C 6.742188 22.398438 6.367188 22.027344 6.367188 21.566406 C 6.367188 21.230469 6.570312 20.929688 6.878906 20.800781 L 13.519531 19.472656 L 13.519531 16 L 8.367188 16.929688 C 8.105469 16.996094 7.832031 16.996094 7.566406 16.929688 C 7.023438 16.789062 6.59375 16.375 6.433594 15.839844 L 6.398438 15.839844 L 4.800781 9.328125 C 4.75 9.101562 4.75 8.867188 4.800781 8.640625 C 4.949219 8.019531 5.453125 7.550781 6.078125 7.441406 L 13.601562 6.609375 L 13.601562 0 L 13.953125 0 L 13.953125 6.558594 L 14.046875 6.558594 L 14.398438 6.527344 L 15.039062 6.398438 L 15.375 6.398438 C 15.804688 6.503906 16.066406 6.933594 15.96875 7.359375 C 15.898438 7.734375 15.566406 8.007812 15.183594 8 L 14.398438 8.128906 L 13.953125 8.128906 L 13.953125 12.703125 L 14.046875 12.703125 L 14.398438 12.609375 L 17.296875 12.03125 C 17.980469 11.976562 18.625 12.363281 18.894531 12.992188 L 22.097656 19.296875 C 22.21875 19.417969 22.320312 19.558594 22.398438 19.710938 Z M 13.601562 8.207031 L 9.601562 8.640625 L 10.785156 13.34375 L 13.601562 12.800781 Z M 13.601562 8.207031 "/>
</svg>
