<?xml version="1.0" encoding="UTF-8"?>
<svg xmlns="http://www.w3.org/2000/svg" xmlns:xlink="http://www.w3.org/1999/xlink" width="24" height="24" viewBox="0 0 24 24">
<path fill-rule="nonzero" fill="rgb(0%, 0%, 0%)" fill-opacity="1" d="M 1.816406 13.722656 C 3.183594 9.835938 7.554688 3.199219 16 3.199219 C 20.242188 3.199219 22.398438 4.800781 22.398438 4.800781 C 22.398438 4.800781 18.699219 4.800781 16.992188 5.511719 C 16.863281 5.566406 16.757812 5.660156 16.691406 5.78125 C 16.390625 6.335938 15.605469 8.074219 16.515625 9.910156 C 16.667969 10.214844 17.019531 10.34375 17.339844 10.246094 C 18.15625 9.992188 19.726562 9.4375 20.921875 8.570312 C 21.277344 8.316406 21.785156 8.414062 21.886719 8.835938 C 22.304688 10.542969 22.304688 13.457031 21.886719 15.164062 C 21.785156 15.585938 21.277344 15.683594 20.921875 15.429688 C 19.726562 14.5625 18.15625 14.007812 17.339844 13.753906 C 17.019531 13.65625 16.667969 13.785156 16.515625 14.089844 C 15.605469 15.925781 16.390625 17.664062 16.691406 18.21875 C 16.757812 18.339844 16.863281 18.433594 16.992188 18.488281 C 18.699219 19.199219 22.398438 19.199219 22.398438 19.199219 C 21.601562 19.734375 18.878906 20.800781 14.398438 20.800781 C 7.226562 20.800781 3.242188 16.546875 2.015625 14.976562 C 1.738281 14.617188 1.664062 14.152344 1.816406 13.722656 Z M 8 14.398438 C 9.105469 14.398438 10 13.503906 10 12.398438 C 10 11.296875 9.105469 10.398438 8 10.398438 C 6.894531 10.398438 6 11.296875 6 12.398438 C 6 13.503906 6.894531 14.398438 8 14.398438 Z M 8 14.398438 "/>
</svg>
