<?xml version="1.0" encoding="UTF-8"?>
<svg xmlns="http://www.w3.org/2000/svg" xmlns:xlink="http://www.w3.org/1999/xlink" width="24" height="24" viewBox="0 0 24 24">
<path fill-rule="nonzero" fill="rgb(0%, 0%, 0%)" fill-opacity="1" d="M 17.476562 5.066406 C 17.476562 6.675781 16.9375 8.035156 16.367188 9.496094 C 15.703125 11.179688 14.992188 12.992188 14.992188 15.464844 C 14.992188 18.929688 16.089844 22.398438 17.246094 22.398438 L 19.554688 22.398438 C 20.710938 22.398438 21.808594 18.933594 21.808594 15.464844 C 21.808594 12.992188 21.097656 11.179688 20.433594 9.496094 C 19.859375 8.039062 19.324219 6.675781 19.324219 5.066406 C 19.324219 3.910156 19.554688 3.910156 19.554688 2.753906 C 19.546875 2.449219 19.421875 2.160156 19.207031 1.945312 C 18.992188 1.730469 18.703125 1.605469 18.398438 1.597656 C 18.097656 1.605469 17.808594 1.730469 17.59375 1.945312 C 17.378906 2.160156 17.253906 2.449219 17.246094 2.753906 C 17.246094 3.910156 17.476562 3.910156 17.476562 5.066406 Z M 13.390625 15.464844 C 13.390625 13.492188 13.796875 11.886719 14.273438 10.519531 C 13.328125 9.414062 12.070312 8.621094 10.664062 8.246094 C 9.257812 7.867188 7.773438 7.925781 6.402344 8.410156 C 5.03125 8.894531 3.835938 9.785156 2.980469 10.960938 C 2.125 12.136719 1.644531 13.542969 1.601562 14.996094 C 1.5625 16.453125 1.964844 17.882812 2.75 19.105469 C 3.539062 20.328125 4.679688 21.28125 6.023438 21.84375 C 7.363281 22.402344 8.84375 22.546875 10.269531 22.25 C 11.691406 21.953125 12.992188 21.230469 14 20.179688 C 13.621094 18.796875 13.390625 17.125 13.390625 15.464844 Z M 8.382812 11.390625 C 8.382812 11.523438 8.359375 11.652344 8.308594 11.773438 C 8.257812 11.890625 8.1875 12 8.09375 12.09375 C 8 12.1875 7.890625 12.257812 7.773438 12.308594 C 7.652344 12.359375 7.523438 12.382812 7.390625 12.382812 C 7.261719 12.382812 7.132812 12.359375 7.011719 12.308594 C 6.890625 12.257812 6.78125 12.1875 6.691406 12.09375 C 6.597656 12 6.523438 11.890625 6.476562 11.773438 C 6.425781 11.652344 6.398438 11.523438 6.398438 11.390625 C 6.398438 11.128906 6.503906 10.875 6.691406 10.691406 C 6.875 10.503906 7.128906 10.398438 7.390625 10.398438 C 7.65625 10.398438 7.90625 10.503906 8.09375 10.691406 C 8.28125 10.875 8.382812 11.128906 8.382812 11.390625 Z M 6.785156 14.59375 C 6.785156 14.855469 6.679688 15.109375 6.492188 15.292969 C 6.308594 15.480469 6.054688 15.585938 5.792969 15.585938 C 5.527344 15.585938 5.277344 15.480469 5.089844 15.292969 C 4.90625 15.109375 4.800781 14.855469 4.800781 14.59375 C 4.800781 14.328125 4.90625 14.078125 5.089844 13.890625 C 5.277344 13.703125 5.527344 13.601562 5.792969 13.601562 C 6.054688 13.601562 6.308594 13.703125 6.492188 13.890625 C 6.679688 14.078125 6.785156 14.328125 6.785156 14.59375 Z M 9.984375 14.59375 C 9.984375 14.855469 9.878906 15.109375 9.695312 15.292969 C 9.507812 15.480469 9.253906 15.585938 8.992188 15.585938 C 8.730469 15.585938 8.476562 15.480469 8.289062 15.292969 C 8.105469 15.109375 8 14.855469 8 14.59375 C 8 14.328125 8.105469 14.078125 8.289062 13.890625 C 8.476562 13.703125 8.730469 13.601562 8.992188 13.601562 C 9.253906 13.601562 9.507812 13.703125 9.695312 13.890625 C 9.878906 14.078125 9.984375 14.328125 9.984375 14.59375 Z M 9.984375 14.59375 "/>
</svg>
