<?xml version="1.0" encoding="UTF-8"?>
<svg xmlns="http://www.w3.org/2000/svg" xmlns:xlink="http://www.w3.org/1999/xlink" width="24" height="24" viewBox="0 0 24 24">
<path fill-rule="nonzero" fill="rgb(0%, 0%, 0%)" fill-opacity="1" d="M 4 5.144531 L 4 7.429688 L 9.714844 7.429688 L 9.714844 5.144531 L 8.570312 5.144531 L 8.570312 6.285156 L 7.429688 6.285156 L 7.429688 5.144531 L 6.285156 5.144531 L 6.285156 6.285156 L 5.144531 6.285156 L 5.144531 5.144531 Z M 14.285156 5.144531 L 14.285156 7.429688 L 20 7.429688 L 20 5.144531 L 18.855469 5.144531 L 18.855469 6.285156 L 17.714844 6.285156 L 17.714844 5.144531 L 16.570312 5.144531 L 16.570312 6.285156 L 15.429688 6.285156 L 15.429688 5.144531 Z M 4 8.570312 L 4 18.855469 L 9.714844 18.855469 C 9.714844 17.714844 9.714844 15.429688 12 15.429688 C 14.285156 15.429688 14.285156 17.714844 14.285156 18.855469 L 20 18.855469 L 20 8.570312 L 14.285156 8.570312 L 14.285156 10.855469 L 9.714844 10.855469 L 9.714844 8.570312 Z M 6.285156 10.855469 L 7.429688 10.855469 L 7.429688 12 L 6.855469 13.144531 L 6.285156 12 Z M 16.570312 10.855469 L 17.714844 10.855469 L 17.714844 12 L 17.144531 13.144531 L 16.570312 12 Z M 16.570312 10.855469 "/>
</svg>
