<?xml version="1.0" encoding="UTF-8"?>
<svg xmlns="http://www.w3.org/2000/svg" xmlns:xlink="http://www.w3.org/1999/xlink" width="24" height="24" viewBox="0 0 24 24">
<path fill-rule="nonzero" fill="rgb(0%, 0%, 0%)" fill-opacity="1" d="M 20.960938 18.398438 C 20 18.878906 18.71875 18.558594 18.078125 17.601562 L 16.320312 15.359375 L 7.679688 15.359375 L 5.921875 17.601562 C 5.121094 18.71875 3.679688 18.878906 2.558594 18.078125 C 1.761719 17.441406 1.441406 16.480469 1.601562 15.679688 L 2.71875 9.761719 C 3.039062 7.839844 4.800781 6.398438 6.71875 6.398438 L 11.199219 6.398438 L 11.199219 4 C 11.199219 2.71875 12.160156 1.601562 13.441406 1.601562 L 18.398438 1.601562 C 18.878906 1.601562 19.199219 1.921875 19.199219 2.398438 C 19.199219 2.878906 18.878906 3.199219 18.398438 3.199219 L 13.601562 3.199219 C 13.121094 3.199219 12.800781 3.519531 12.800781 3.839844 L 12.800781 6.398438 L 17.28125 6.398438 C 19.199219 6.398438 20.960938 7.839844 21.28125 9.761719 L 22.398438 15.679688 C 22.558594 16.800781 22.078125 17.921875 20.960938 18.398438 Z M 9.601562 10.398438 C 9.601562 9.121094 8.480469 8 7.199219 8 C 5.921875 8 4.800781 9.121094 4.800781 10.398438 C 4.800781 11.679688 5.921875 12.800781 7.199219 12.800781 C 8.480469 12.800781 9.601562 11.679688 9.601562 10.398438 Z M 19.199219 10.398438 C 19.199219 9.921875 18.878906 9.601562 18.398438 9.601562 L 17.601562 9.601562 L 17.601562 8.800781 C 17.601562 8.320312 17.28125 8 16.800781 8 C 16.320312 8 16 8.320312 16 8.800781 L 16 9.601562 L 15.199219 9.601562 C 14.71875 9.601562 14.398438 9.921875 14.398438 10.398438 C 14.398438 10.878906 14.71875 11.199219 15.199219 11.199219 L 16 11.199219 L 16 12 C 16 12.480469 16.320312 12.800781 16.800781 12.800781 C 17.28125 12.800781 17.601562 12.480469 17.601562 12 L 17.601562 11.199219 L 18.398438 11.199219 C 18.878906 11.199219 19.199219 10.878906 19.199219 10.398438 Z M 19.199219 10.398438 "/>
</svg>
