<?xml version="1.0" encoding="UTF-8"?>
<svg xmlns="http://www.w3.org/2000/svg" xmlns:xlink="http://www.w3.org/1999/xlink" width="24" height="24" viewBox="0 0 24 24">
<path fill-rule="nonzero" fill="rgb(0%, 0%, 0%)" fill-opacity="1" d="M 19.359375 4.722656 C 18.707031 4.0625 17.875 3.605469 16.964844 3.410156 C 16.058594 3.214844 15.113281 3.289062 14.242188 3.621094 C 13.375 3.957031 12.625 4.535156 12.082031 5.289062 C 11.539062 6.042969 11.226562 6.9375 11.183594 7.867188 L 16.210938 12.894531 C 17.140625 12.851562 18.035156 12.539062 18.789062 11.996094 C 19.542969 11.457031 20.121094 10.703125 20.457031 9.835938 C 20.789062 8.972656 20.863281 8.027344 20.667969 7.117188 C 20.472656 6.210938 20.019531 5.378906 19.359375 4.722656 Z M 7.476562 13.203125 L 4.078125 16.601562 C 3.78125 16.902344 3.613281 17.308594 3.613281 17.734375 C 3.613281 18.160156 3.78125 18.566406 4.078125 18.867188 L 5.210938 19.996094 C 5.511719 20.296875 5.917969 20.464844 6.34375 20.464844 C 6.765625 20.464844 7.171875 20.296875 7.472656 19.996094 L 14.261719 13.207031 L 10.867188 9.816406 Z M 8.660156 16.542969 L 7.53125 15.410156 L 10.867188 12.078125 L 12 13.207031 Z M 8.660156 16.542969 "/>
</svg>
