<?xml version="1.0" encoding="UTF-8"?>
<svg xmlns="http://www.w3.org/2000/svg" xmlns:xlink="http://www.w3.org/1999/xlink" width="24" height="24" viewBox="0 0 24 24">
<path fill-rule="nonzero" fill="rgb(0%, 0%, 0%)" fill-opacity="1" d="M 20 0 C 19.871094 0 19.746094 0.0351562 19.632812 0.0976562 L 5.601562 4 C 5.160156 4 4.800781 4.359375 4.800781 4.800781 L 4.800781 14.847656 C 4.316406 14.558594 3.761719 14.40625 3.199219 14.398438 C 1.433594 14.398438 0 15.832031 0 17.601562 C 0 19.367188 1.433594 20.800781 3.199219 20.800781 C 4.96875 20.800781 6.398438 19.367188 6.398438 17.601562 L 6.398438 10.175781 L 19.199219 6.625 L 19.199219 12.449219 C 18.714844 12.160156 18.164062 12.007812 17.601562 12 C 15.832031 12 14.398438 13.433594 14.398438 15.199219 C 14.398438 16.96875 15.832031 18.398438 17.601562 18.398438 C 19.367188 18.398438 20.800781 16.96875 20.800781 15.199219 L 20.800781 0.800781 C 20.800781 0.359375 20.441406 0 20 0 Z M 19.199219 5.023438 L 6.398438 8.574219 L 6.398438 5.375 L 19.199219 1.824219 Z M 19.199219 5.023438 "/>
</svg>
