<?xml version="1.0" encoding="UTF-8"?>
<svg xmlns="http://www.w3.org/2000/svg" xmlns:xlink="http://www.w3.org/1999/xlink" width="24" height="24" viewBox="0 0 24 24">
<path fill-rule="nonzero" fill="rgb(0%, 0%, 0%)" fill-opacity="1" d="M 12 5.144531 C 12 5.144531 8.570312 6.285156 8.570312 8.570312 L 15.429688 8.570312 C 15.429688 6.285156 12 5.144531 12 5.144531 Z M 5.714844 6.285156 C 5.714844 6.285156 4 7.429688 4 9.144531 L 4 9.714844 L 7.429688 9.714844 L 7.429688 9.144531 C 7.429688 7.429688 5.714844 6.285156 5.714844 6.285156 Z M 18.285156 6.285156 C 18.285156 6.285156 16.570312 7.429688 16.570312 9.144531 L 16.570312 9.714844 L 20 9.714844 L 20 9.144531 C 20 7.429688 18.285156 6.285156 18.285156 6.285156 Z M 8.570312 9.714844 L 8.570312 12 L 7.429688 12 L 7.429688 10.855469 L 4 10.855469 L 4 18.855469 L 9.714844 18.855469 C 9.714844 17.714844 9.714844 15.429688 12 15.429688 C 14.285156 15.429688 14.285156 17.714844 14.285156 18.855469 L 20 18.855469 L 20 10.855469 L 16.570312 10.855469 L 16.570312 12 L 15.429688 12 L 15.429688 9.714844 Z M 10.285156 10.855469 C 10.855469 10.855469 10.855469 11.761719 10.855469 12 L 10.855469 13.144531 L 9.714844 13.144531 L 9.714844 12 C 9.714844 11.695312 9.714844 10.855469 10.285156 10.855469 Z M 13.714844 10.855469 C 14.285156 10.855469 14.285156 11.761719 14.285156 12 L 14.285156 13.144531 L 13.144531 13.144531 L 13.144531 12 C 13.144531 11.695312 13.144531 10.855469 13.714844 10.855469 Z M 5.714844 12 C 6.300781 12 6.285156 12.773438 6.285156 13.144531 L 6.285156 14.285156 L 5.144531 14.285156 L 5.144531 13.144531 C 5.144531 12.773438 5.160156 12 5.714844 12 Z M 18.285156 12 C 18.871094 12 18.855469 12.773438 18.855469 13.144531 L 18.855469 14.285156 L 17.714844 14.285156 L 17.714844 13.144531 C 17.714844 12.773438 17.730469 12 18.285156 12 Z M 18.285156 12 "/>
</svg>
