<?xml version="1.0" encoding="UTF-8"?>
<svg xmlns="http://www.w3.org/2000/svg" xmlns:xlink="http://www.w3.org/1999/xlink" width="24" height="24" viewBox="0 0 24 24">
<path fill-rule="nonzero" fill="rgb(0%, 0%, 0%)" fill-opacity="1" d="M 21.601562 11.199219 C 21.601562 14.445312 19.992188 17.3125 17.527344 19.050781 L 19.199219 22.398438 L 4.800781 22.398438 L 6.472656 19.050781 C 4.011719 17.3125 2.398438 14.445312 2.398438 11.199219 C 2.398438 5.898438 6.699219 1.601562 12 1.601562 C 17.300781 1.601562 21.601562 5.898438 21.601562 11.199219 Z M 19.675781 11.398438 L 14.390625 11.398438 C 14.347656 11.914062 14.144531 12.378906 13.832031 12.75 L 17.570312 16.488281 C 18.835938 15.15625 19.628906 13.371094 19.675781 11.398438 Z M 17.289062 16.769531 L 13.550781 13.03125 C 13.332031 13.21875 13.078125 13.367188 12.800781 13.464844 L 12.800781 18.839844 C 14.53125 18.660156 16.09375 17.90625 17.289062 16.769531 Z M 9.609375 11.398438 L 4.324219 11.398438 C 4.371094 13.371094 5.164062 15.15625 6.429688 16.488281 L 10.167969 12.75 C 9.855469 12.378906 9.652344 11.914062 9.609375 11.398438 Z M 6.710938 16.769531 C 7.90625 17.90625 9.46875 18.660156 11.199219 18.839844 L 11.199219 13.464844 C 10.921875 13.367188 10.667969 13.21875 10.449219 13.03125 Z M 19.675781 11 C 19.628906 9.03125 18.835938 7.246094 17.570312 5.914062 L 13.832031 9.648438 C 14.144531 10.019531 14.347656 10.488281 14.390625 11 Z M 17.289062 5.628906 C 15.957031 4.363281 14.167969 3.574219 12.199219 3.523438 L 12.199219 8.808594 C 12.710938 8.851562 13.179688 9.054688 13.550781 9.367188 Z M 11.800781 8.808594 L 11.800781 3.523438 C 9.832031 3.574219 8.042969 4.363281 6.710938 5.628906 L 10.449219 9.367188 C 10.820312 9.054688 11.289062 8.851562 11.800781 8.808594 Z M 10.167969 9.648438 L 6.429688 5.914062 C 5.164062 7.246094 4.371094 9.03125 4.324219 11 L 9.609375 11 C 9.652344 10.488281 9.855469 10.019531 10.167969 9.648438 Z M 10.167969 9.648438 "/>
</svg>
