<?xml version="1.0" encoding="UTF-8"?>
<svg xmlns="http://www.w3.org/2000/svg" xmlns:xlink="http://www.w3.org/1999/xlink" width="24" height="24" viewBox="0 0 24 24">
<path fill-rule="nonzero" fill="rgb(0%, 0%, 0%)" fill-opacity="1" d="M 9.632812 13.480469 C 9.355469 13.679688 9.109375 13.917969 8.894531 14.183594 L 1.617188 8.582031 C 2.308594 7.675781 3.121094 6.863281 4.03125 6.167969 Z M 19.96875 6.183594 L 14.367188 13.464844 C 14.640625 13.671875 14.882812 13.914062 15.089844 14.183594 L 22.382812 8.582031 C 21.691406 7.679688 20.878906 6.871094 19.96875 6.183594 Z M 11.6875 16.019531 C 11.214844 16.082031 10.773438 16.28125 10.417969 16.59375 C 10.0625 16.910156 9.804688 17.320312 9.683594 17.777344 C 9.558594 18.238281 9.574219 18.722656 9.726562 19.171875 C 9.878906 19.621094 10.164062 20.015625 10.539062 20.304688 C 10.914062 20.59375 11.371094 20.765625 11.84375 20.792969 C 12.316406 20.824219 12.789062 20.714844 13.199219 20.480469 C 13.609375 20.242188 13.941406 19.886719 14.152344 19.460938 C 14.363281 19.035156 14.441406 18.558594 14.378906 18.085938 C 14.296875 17.457031 13.964844 16.882812 13.460938 16.496094 C 12.957031 16.109375 12.316406 15.9375 11.6875 16.019531 Z M 10.289062 3.574219 C 9.15625 3.71875 8.046875 4.015625 6.992188 4.457031 L 10.511719 12.96875 C 10.820312 12.828125 11.152344 12.734375 11.488281 12.695312 Z M 13.710938 3.59375 L 12.511719 12.695312 C 12.847656 12.738281 13.175781 12.824219 13.488281 12.953125 L 17.007812 4.472656 C 15.960938 4.015625 14.847656 3.71875 13.710938 3.59375 Z M 13.710938 3.59375 "/>
</svg>
