<?xml version="1.0" encoding="UTF-8"?>
<svg xmlns="http://www.w3.org/2000/svg" xmlns:xlink="http://www.w3.org/1999/xlink" width="24" height="24" viewBox="0 0 24 24">
<path fill-rule="nonzero" fill="rgb(0%, 0%, 0%)" fill-opacity="1" d="M 5.144531 0 L 5.144531 1.714844 L 6.855469 1.714844 C 7.882812 1.714844 8.300781 3.503906 8.464844 4.980469 C 6.796875 3.6875 5.1875 3.222656 3.804688 3.480469 C 2.039062 3.8125 0.855469 5.441406 0.855469 7.285156 C 0.855469 8.730469 1.390625 9.992188 2.304688 11.304688 C 3.101562 12.449219 4.222656 13.773438 5.625 15.375 C 6.253906 17.703125 7.410156 19.839844 8.570312 21 L 8.570312 22.285156 L 6.855469 23.144531 L 6.855469 24 L 17.144531 24 L 17.144531 23.144531 L 15.429688 22.285156 L 15.429688 21 C 16.589844 19.839844 17.746094 17.703125 18.375 15.375 C 19.777344 13.773438 20.898438 12.449219 21.695312 11.304688 C 22.609375 9.992188 23.144531 8.730469 23.144531 7.285156 C 23.144531 5.441406 21.960938 3.8125 20.195312 3.480469 C 18.8125 3.222656 17.203125 3.6875 15.535156 4.980469 C 15.699219 3.503906 16.117188 1.714844 17.144531 1.714844 L 18.855469 1.714844 L 18.855469 0 Z M 4.070312 5.195312 C 4.945312 5.03125 6.402344 5.371094 8.089844 6.910156 C 6.179688 7.148438 5.144531 8.828125 5.144531 12 C 5.144531 12.054688 5.140625 12.105469 5.144531 12.160156 C 4.558594 11.484375 4.074219 10.882812 3.695312 10.339844 C 2.894531 9.183594 2.570312 8.335938 2.570312 7.285156 C 2.570312 6.085938 3.105469 5.378906 4.070312 5.195312 Z M 19.070312 5.195312 C 19.394531 5.148438 19.6875 5.152344 19.929688 5.195312 C 20.894531 5.378906 21.429688 6.085938 21.429688 7.285156 C 21.429688 8.335938 21.105469 9.183594 20.304688 10.339844 C 19.925781 10.882812 19.441406 11.484375 18.855469 12.160156 C 18.859375 12.105469 18.855469 12.054688 18.855469 12 C 18.855469 8.828125 17.820312 7.148438 15.910156 6.910156 C 17.128906 5.796875 18.226562 5.316406 19.070312 5.195312 Z M 19.070312 5.195312 "/>
</svg>
