<?xml version="1.0" encoding="UTF-8"?>
<svg xmlns="http://www.w3.org/2000/svg" xmlns:xlink="http://www.w3.org/1999/xlink" width="24" height="24" viewBox="0 0 24 24">
<path fill-rule="nonzero" fill="rgb(0%, 0%, 0%)" fill-opacity="1" d="M 19.199219 20 L 18.398438 20 L 16 14.398438 L 16 11.199219 C 17.59375 11.199219 17.59375 10 17.59375 10 L 18.398438 4.800781 C 18.398438 4.800781 18.398438 4 17.601562 4 L 16 4 C 16 4 16 3.199219 15.199219 3.199219 L 13.601562 3.199219 L 13.601562 2.398438 C 13.601562 2.398438 13.601562 0.800781 12 0.800781 C 10.398438 0.800781 10.398438 2.398438 10.398438 2.398438 L 10.398438 3.199219 L 8.800781 3.199219 C 8 3.199219 8 4 8 4 L 6.398438 4 C 5.601562 4 5.601562 4.800781 5.601562 4.800781 L 6.40625 10 C 6.40625 10 6.40625 11.199219 8 11.199219 L 8 14.398438 L 5.601562 20 L 4.800781 20 C 4.800781 20 3.199219 20 3.199219 21.199219 C 3.199219 22.398438 4.800781 22.398438 4.800781 22.398438 L 19.199219 22.398438 C 19.199219 22.398438 20.800781 22.398438 20.800781 21.199219 C 20.800781 20 19.199219 20 19.199219 20 Z M 16.398438 5.601562 L 16 8 L 8 8 L 7.601562 5.59375 Z M 13.601562 11.199219 L 13.601562 12.800781 L 10.398438 12.800781 L 10.398438 11.199219 Z M 10.402344 15.195312 L 13.597656 15.195312 L 15.199219 20 L 8.800781 20 Z M 10.402344 15.195312 "/>
</svg>
