<?xml version="1.0" encoding="UTF-8"?>
<svg xmlns="http://www.w3.org/2000/svg" xmlns:xlink="http://www.w3.org/1999/xlink" width="28" height="28" viewBox="0 0 28 28">
<path fill-rule="nonzero" fill="rgb(6.666667%, 6.666667%, 6.666667%)" fill-opacity="1" stroke-width="3.408" stroke-linecap="butt" stroke-linejoin="miter" stroke="rgb(93.333333%, 93.333333%, 93.333333%)" stroke-opacity="1" stroke-miterlimit="4" d="M 66.269531 1.780134 C 24.921875 1.780134 1.699219 23.141741 1.699219 66.835938 L 1.699219 516.967076 C 1.699219 557.748326 22.575335 579.190848 63.922991 579.190848 L 515.915179 579.190848 C 557.262835 579.190848 578.138951 558.881138 578.138951 516.967076 L 578.138951 66.835938 C 578.138951 24.193638 557.262835 1.780134 514.620536 1.780134 C 514.620536 1.780134 66.107701 1.618304 66.269531 1.780134 Z M 66.269531 1.780134 " transform="matrix(0.0482759, 0, 0, 0.0482759, 0, 0)"/>
<path fill-rule="nonzero" fill="rgb(100%, 100%, 100%)" fill-opacity="1" stroke-width="5.2" stroke-linecap="butt" stroke-linejoin="miter" stroke="rgb(100%, 100%, 100%)" stroke-opacity="1" stroke-miterlimit="4" d="M 235.128022 477.445594 C 235.128022 491.524835 223.718982 502.933875 209.639741 502.933875 L 87.619652 502.933875 C 73.540411 502.933875 62.131371 491.524835 62.131371 477.445594 L 62.131371 216.413228 C 62.131371 202.333987 71.436616 186.555527 87.619652 190.924946 L 202.681036 228.712335 C 220.644206 234.700058 227.11742 242.872491 227.11742 256.951732 Z M 235.128022 477.445594 " transform="matrix(0.0482759, 0, 0, 0.0482759, 0.457586, -1.814723)"/>
<path fill-rule="nonzero" fill="rgb(100%, 100%, 100%)" fill-opacity="1" stroke-width="5.2" stroke-linecap="butt" stroke-linejoin="miter" stroke="rgb(100%, 100%, 100%)" stroke-opacity="1" stroke-miterlimit="4" d="M 522.134161 477.445594 C 522.134161 491.524835 510.725121 502.933875 496.64588 502.933875 L 374.62579 503.904857 C 360.546549 503.904857 349.137509 492.495817 349.137509 478.416576 L 363.621326 291.421598 C 363.621326 277.342357 375.030366 265.933317 389.109607 265.933317 L 494.623 273.458429 C 508.702241 273.458429 520.111281 284.867469 520.111281 298.94671 Z M 522.134161 477.445594 " transform="matrix(0.0482759, 0, 0, 0.0482759, 0.457586, -1.814723)"/>
</svg>
