<?xml version="1.0" encoding="UTF-8"?>
<svg xmlns="http://www.w3.org/2000/svg" xmlns:xlink="http://www.w3.org/1999/xlink" width="28" height="28" viewBox="0 0 28 28">
<path fill-rule="nonzero" fill="rgb(6.666667%, 6.666667%, 6.666667%)" fill-opacity="1" stroke-width="3.408" stroke-linecap="butt" stroke-linejoin="miter" stroke="rgb(93.333333%, 93.333333%, 93.333333%)" stroke-opacity="1" stroke-miterlimit="4" d="M 66.269531 1.780134 C 24.921875 1.780134 1.699219 23.141741 1.699219 66.835938 L 1.699219 516.967076 C 1.699219 557.748326 22.575335 579.190848 63.922991 579.190848 L 515.915179 579.190848 C 557.262835 579.190848 578.138951 558.800223 578.138951 516.967076 L 578.138951 66.835938 C 578.138951 24.193638 557.262835 1.780134 514.620536 1.780134 C 514.620536 1.780134 66.107701 1.618304 66.269531 1.780134 Z M 66.269531 1.780134 " transform="matrix(0.0482759, 0, 0, 0.0482759, 0, 0)"/>
<path fill-rule="nonzero" fill="rgb(100%, 100%, 100%)" fill-opacity="1" d="M 14 5.292969 C 12.890625 5.308594 11.792969 5.78125 11.019531 6.578125 C 10.246094 7.375 9.804688 8.484375 9.820312 9.59375 L 9.820312 20.929688 C 10.757812 21.953125 17.335938 22.046875 18.308594 20.929688 L 18.308594 9.59375 C 18.324219 8.464844 17.863281 7.332031 17.0625 6.53125 C 16.261719 5.734375 15.132812 5.273438 14 5.292969 Z M 14 5.292969 "/>
<path fill-rule="nonzero" fill="rgb(100%, 100%, 100%)" fill-opacity="1" d="M 14.148438 19.6875 C 12.535156 19.703125 10.78125 19.667969 9.371094 20.058594 C 8.902344 20.191406 8.707031 20.417969 8.695312 20.65625 C 8.6875 20.910156 8.722656 21.632812 8.707031 22.25 C 8.746094 22.660156 12.109375 21.554688 13.398438 21.605469 C 15.15625 21.625 19.492188 22.644531 19.472656 22.292969 C 19.46875 21.734375 19.476562 21.199219 19.46875 20.660156 C 19.464844 20.515625 19.398438 20.371094 19.183594 20.25 C 18.570312 19.863281 17.378906 19.785156 16.359375 19.730469 C 15.628906 19.691406 14.886719 19.683594 14.148438 19.6875 Z M 14.148438 19.6875 "/>
<path fill-rule="nonzero" fill="rgb(100%, 100%, 100%)" fill-opacity="1" d="M 14.148438 21.328125 C 12.535156 21.34375 10.78125 21.3125 9.371094 21.699219 C 8.390625 21.976562 8.496094 22.710938 9.566406 22.929688 C 10.695312 23.234375 12.109375 23.195312 13.398438 23.246094 C 15.15625 23.269531 16.996094 23.253906 18.613281 22.9375 C 19.390625 22.726562 19.769531 22.226562 19.183594 21.890625 C 18.570312 21.503906 17.378906 21.425781 16.359375 21.371094 C 15.628906 21.335938 14.886719 21.324219 14.148438 21.328125 Z M 14.148438 21.328125 "/>
</svg>
