<?xml version="1.0" encoding="UTF-8"?>
<svg xmlns="http://www.w3.org/2000/svg" xmlns:xlink="http://www.w3.org/1999/xlink" width="28" height="28" viewBox="0 0 28 28">
<path fill-rule="nonzero" fill="rgb(6.666667%, 6.666667%, 6.666667%)" fill-opacity="1" stroke-width="3.408" stroke-linecap="butt" stroke-linejoin="miter" stroke="rgb(93.333333%, 93.333333%, 93.333333%)" stroke-opacity="1" stroke-miterlimit="4" d="M 66.269531 1.780134 C 24.921875 1.780134 1.699219 23.141741 1.699219 66.835938 L 1.699219 516.967076 C 1.699219 557.748326 22.575335 579.190848 63.922991 579.190848 L 515.915179 579.190848 C 557.262835 579.190848 578.138951 558.881138 578.138951 516.967076 L 578.138951 66.835938 C 578.138951 24.193638 557.262835 1.780134 514.620536 1.780134 C 514.620536 1.780134 66.107701 1.618304 66.269531 1.780134 Z M 66.269531 1.780134 " transform="matrix(0.0482759, 0, 0, 0.0482759, 0, 0)"/>
<path fill="none" stroke-width="50" stroke-linecap="round" stroke-linejoin="round" stroke="rgb(100%, 100%, 100%)" stroke-opacity="1" stroke-miterlimit="4" d="M 221.765441 147.008172 L 155.738656 491.868663 " transform="matrix(0.0482759, 0, 0, 0.0482759, -0.444199, 0.215554)"/>
<path fill="none" stroke-width="35" stroke-linecap="round" stroke-linejoin="round" stroke="rgb(100%, 100%, 100%)" stroke-opacity="1" stroke-miterlimit="4" d="M 79.921133 499.47469 L 79.921133 211.902145 " transform="matrix(0.0482759, 0, 0, 0.0482759, -0.444199, 0.215554)"/>
<path fill="none" stroke-width="35" stroke-linecap="round" stroke-linejoin="round" stroke="rgb(100%, 100%, 100%)" stroke-opacity="1" stroke-miterlimit="4" d="M 82.105843 255.11085 L 207.52437 255.11085 " transform="matrix(0.0482759, 0, 0, 0.0482759, -0.444199, 0.215554)"/>
<path fill="none" stroke-width="50" stroke-linecap="round" stroke-linejoin="round" stroke="rgb(100%, 100%, 100%)" stroke-opacity="1" stroke-miterlimit="4" d="M 382.543901 147.008172 L 448.570687 491.868663 " transform="matrix(0.0482759, 0, 0, 0.0482759, -0.444199, 0.215554)"/>
<path fill="none" stroke-width="35" stroke-linecap="round" stroke-linejoin="round" stroke="rgb(100%, 100%, 100%)" stroke-opacity="1" stroke-miterlimit="4" d="M 524.307294 499.47469 L 524.307294 211.902145 " transform="matrix(0.0482759, 0, 0, 0.0482759, -0.444199, 0.215554)"/>
<path fill="none" stroke-width="35" stroke-linecap="round" stroke-linejoin="round" stroke="rgb(100%, 100%, 100%)" stroke-opacity="1" stroke-miterlimit="4" d="M 522.122584 255.11085 L 396.784973 255.11085 " transform="matrix(0.0482759, 0, 0, 0.0482759, -0.444199, 0.215554)"/>
</svg>
