<?xml version="1.0" encoding="UTF-8"?>
<svg xmlns="http://www.w3.org/2000/svg" xmlns:xlink="http://www.w3.org/1999/xlink" width="28" height="28" viewBox="0 0 28 28">
<path fill-rule="nonzero" fill="rgb(6.666667%, 6.666667%, 6.666667%)" fill-opacity="1" stroke-width="3.408" stroke-linecap="butt" stroke-linejoin="miter" stroke="rgb(93.333333%, 93.333333%, 93.333333%)" stroke-opacity="1" stroke-miterlimit="4" d="M 66.269531 1.780134 C 24.921875 1.780134 1.699219 23.141741 1.699219 66.835938 L 1.699219 516.967076 C 1.699219 557.748326 22.575335 579.190848 63.922991 579.190848 L 515.915179 579.190848 C 557.262835 579.190848 578.138951 558.881138 578.138951 516.967076 L 578.138951 66.835938 C 578.138951 24.193638 557.262835 1.780134 514.620536 1.780134 C 514.620536 1.780134 66.107701 1.618304 66.269531 1.780134 Z M 66.269531 1.780134 " transform="matrix(0.0482759, 0, 0, 0.0482759, 0, 0)"/>
<path fill="none" stroke-width="20" stroke-linecap="butt" stroke-linejoin="miter" stroke="rgb(49.803922%, 49.803922%, 49.803922%)" stroke-opacity="1" stroke-miterlimit="4" d="M 71.114992 445.931077 C 71.114992 410.571144 159.798027 381.92717 269.114434 381.92717 " transform="matrix(0.0482759, 0, 0, 0.0482759, -0.31595, 0.569949)"/>
<path fill="none" stroke-width="30" stroke-linecap="round" stroke-linejoin="round" stroke="rgb(100%, 100%, 100%)" stroke-opacity="1" stroke-miterlimit="4" d="M 519.142335 442.937215 L 328.182514 507.912104 L 328.182514 185.950608 L 519.142335 120.894804 Z M 519.142335 442.937215 " transform="matrix(0.0482759, 0, 0, 0.0482759, -0.31595, 0.569949)"/>
<path fill="none" stroke-width="20" stroke-linecap="butt" stroke-linejoin="miter" stroke="rgb(49.803922%, 49.803922%, 49.803922%)" stroke-opacity="1" stroke-miterlimit="4" d="M 71.114992 348.913778 C 71.114992 313.553845 159.798027 284.909871 269.114434 284.909871 " transform="matrix(0.0482759, 0, 0, 0.0482759, -0.31595, 0.569949)"/>
<path fill="none" stroke-width="20" stroke-linecap="butt" stroke-linejoin="miter" stroke="rgb(49.803922%, 49.803922%, 49.803922%)" stroke-opacity="1" stroke-miterlimit="4" d="M 71.114992 252.948376 C 71.114992 217.588443 159.798027 188.94447 269.114434 188.94447 " transform="matrix(0.0482759, 0, 0, 0.0482759, -0.31595, 0.569949)"/>
<path fill="none" stroke-width="30" stroke-linecap="round" stroke-linejoin="miter" stroke="rgb(100%, 100%, 100%)" stroke-opacity="1" stroke-miterlimit="4" d="M 269.114434 509.934983 C 159.798027 509.934983 71.114992 481.29101 71.114992 445.931077 " transform="matrix(0.0482759, 0, 0, 0.0482759, -0.31595, 0.569949)"/>
<path fill="none" stroke-width="30" stroke-linecap="round" stroke-linejoin="miter" stroke="rgb(100%, 100%, 100%)" stroke-opacity="1" stroke-miterlimit="4" d="M 71.114992 121.946702 L 71.114992 446.902059 " transform="matrix(0.0482759, 0, 0, 0.0482759, -0.31595, 0.569949)"/>
<path fill="none" stroke-width="30" stroke-linecap="round" stroke-linejoin="miter" stroke="rgb(100%, 100%, 100%)" stroke-opacity="1" stroke-miterlimit="4" d="M 268.143451 188.94447 L 268.143451 509.934983 " transform="matrix(0.0482759, 0, 0, 0.0482759, -0.31595, 0.569949)"/>
<path fill="none" stroke-width="30" stroke-linecap="butt" stroke-linejoin="miter" stroke="rgb(49.803922%, 49.803922%, 49.803922%)" stroke-opacity="1" stroke-miterlimit="4" d="M 268.143451 58.913778 L 268.143451 188.94447 " transform="matrix(0.0482759, 0, 0, 0.0482759, -0.31595, 0.569949)"/>
<path fill="none" stroke-width="20" stroke-linecap="butt" stroke-linejoin="miter" stroke="rgb(100%, 100%, 100%)" stroke-opacity="1" stroke-miterlimit="4" d="M 268.143451 395.925496 C 158.827045 395.925496 70.14401 367.281523 70.14401 331.92159 " transform="matrix(0.0482759, 0, 0, 0.0482759, -0.31595, 0.569949)"/>
<path fill="none" stroke-width="20" stroke-linecap="butt" stroke-linejoin="miter" stroke="rgb(100%, 100%, 100%)" stroke-opacity="1" stroke-miterlimit="4" d="M 270.166331 292.920474 C 160.76901 292.920474 72.166889 264.276501 72.166889 228.916568 " transform="matrix(0.0482759, 0, 0, 0.0482759, -0.31595, 0.569949)"/>
<path fill="none" stroke-width="30" stroke-linecap="round" stroke-linejoin="miter" stroke="rgb(100%, 100%, 100%)" stroke-opacity="1" stroke-miterlimit="4" d="M 269.114434 185.950608 C 159.798027 185.950608 71.114992 157.306635 71.114992 121.946702 C 71.114992 86.586769 159.798027 57.942795 269.114434 57.942795 " transform="matrix(0.0482759, 0, 0, 0.0482759, -0.31595, 0.569949)"/>
<path fill="none" stroke-width="30" stroke-linecap="round" stroke-linejoin="round" stroke="rgb(100%, 100%, 100%)" stroke-opacity="1" stroke-miterlimit="4" d="M 328.182514 292.920474 L 519.142335 227.945586 " transform="matrix(0.0482759, 0, 0, 0.0482759, -0.31595, 0.569949)"/>
<path fill="none" stroke-width="30" stroke-linecap="round" stroke-linejoin="round" stroke="rgb(100%, 100%, 100%)" stroke-opacity="1" stroke-miterlimit="4" d="M 328.182514 396.896479 L 519.142335 331.92159 " transform="matrix(0.0482759, 0, 0, 0.0482759, -0.31595, 0.569949)"/>
<path fill="none" stroke-width="20" stroke-linecap="round" stroke-linejoin="round" stroke="rgb(100%, 100%, 100%)" stroke-opacity="1" stroke-miterlimit="4" d="M 329.153496 503.94726 L 515.177492 122.917684 " transform="matrix(0.0482759, 0, 0, 0.0482759, -0.31595, 0.569949)"/>
</svg>
