<?xml version="1.0" encoding="UTF-8"?>
<svg xmlns="http://www.w3.org/2000/svg" xmlns:xlink="http://www.w3.org/1999/xlink" width="28" height="28" viewBox="0 0 28 28">
<defs>
<filter id="filter-remove-color" x="0%" y="0%" width="100%" height="100%">
<feColorMatrix color-interpolation-filters="sRGB" values="0 0 0 0 1 0 0 0 0 1 0 0 0 0 1 0 0 0 1 0" />
</filter>
<mask id="mask-0">
<g filter="url(#filter-remove-color)">
<rect x="-2.8" y="-2.8" width="33.6" height="33.6" fill="rgb(0%, 0%, 0%)" fill-opacity="0.75"/>
</g>
</mask>
<clipPath id="clip-0">
<rect x="0" y="0" width="28" height="28"/>
</clipPath>
<g id="source-8" clip-path="url(#clip-0)">
<path fill-rule="nonzero" fill="rgb(100%, 100%, 100%)" fill-opacity="1" d="M 22.121094 12.789062 C 21.941406 12.789062 21.765625 12.863281 21.636719 12.988281 C 21.511719 13.117188 21.4375 13.296875 21.4375 13.476562 L 21.4375 21.707031 C 21.4375 21.886719 21.511719 22.066406 21.636719 22.191406 C 21.765625 22.320312 21.941406 22.394531 22.121094 22.394531 L 24.625 22.394531 C 24.804688 22.394531 24.984375 22.320312 25.109375 22.191406 C 25.238281 22.066406 25.3125 21.886719 25.3125 21.707031 L 25.3125 13.476562 C 25.3125 13.296875 25.238281 13.117188 25.109375 12.988281 C 24.984375 12.863281 24.804688 12.789062 24.625 12.789062 Z M 22.121094 12.789062 "/>
</g>
<mask id="mask-1">
<g filter="url(#filter-remove-color)">
<rect x="-2.8" y="-2.8" width="33.6" height="33.6" fill="rgb(0%, 0%, 0%)" fill-opacity="0.75"/>
</g>
</mask>
<clipPath id="clip-1">
<rect x="0" y="0" width="28" height="28"/>
</clipPath>
<g id="source-12" clip-path="url(#clip-1)">
<path fill-rule="nonzero" fill="rgb(100%, 100%, 100%)" fill-opacity="1" d="M 3.945312 5.886719 C 3.722656 5.886719 3.5 5.976562 3.339844 6.136719 C 3.183594 6.292969 3.089844 6.515625 3.089844 6.742188 L 3.089844 21.539062 C 3.089844 21.761719 3.183594 21.984375 3.339844 22.144531 C 3.5 22.300781 3.722656 22.394531 3.945312 22.394531 L 6.113281 22.394531 C 6.335938 22.394531 6.558594 22.300781 6.714844 22.144531 C 6.875 21.984375 6.96875 21.761719 6.96875 21.539062 L 6.96875 14.082031 C 5.882812 14.414062 4.585938 14.121094 3.886719 13.199219 C 2.828125 11.933594 3.367188 9.691406 4.933594 9.101562 C 5.609375 8.941406 6.289062 8.789062 6.96875 8.628906 L 6.96875 6.742188 C 6.96875 6.515625 6.875 6.292969 6.714844 6.136719 C 6.558594 5.976562 6.335938 5.886719 6.113281 5.886719 Z M 3.945312 5.886719 "/>
</g>
</defs>
<path fill-rule="nonzero" fill="rgb(6.666667%, 6.666667%, 6.666667%)" fill-opacity="1" stroke-width="3.408" stroke-linecap="butt" stroke-linejoin="miter" stroke="rgb(93.333333%, 93.333333%, 93.333333%)" stroke-opacity="1" stroke-miterlimit="4" d="M 66.269531 1.780134 C 24.921875 1.780134 1.699219 23.141741 1.699219 66.835938 L 1.699219 516.967076 C 1.699219 557.748326 22.575335 579.190848 63.922991 579.190848 L 515.915179 579.190848 C 557.262835 579.190848 578.138951 558.800223 578.138951 516.967076 L 578.138951 66.835938 C 578.138951 24.193638 557.262835 1.780134 514.620536 1.780134 C 514.620536 1.780134 66.107701 1.618304 66.269531 1.780134 Z M 66.269531 1.780134 " transform="matrix(0.0482759, 0, 0, 0.0482759, 0, 0)"/>
<path fill="none" stroke-width="54.685024" stroke-linecap="round" stroke-linejoin="miter" stroke="rgb(100%, 100%, 100%)" stroke-opacity="1" stroke-miterlimit="4" d="M 124.69029 239.104353 L 494.229911 156.651786 " transform="matrix(0.0482759, 0, 0, 0.0482759, 0, 0)"/>
<g mask="url(#mask-0)">
<use xlink:href="#source-8"/>
</g>
<g mask="url(#mask-1)">
<use xlink:href="#source-12"/>
</g>
</svg>
