<?xml version="1.0" encoding="UTF-8"?>
<svg xmlns="http://www.w3.org/2000/svg" xmlns:xlink="http://www.w3.org/1999/xlink" width="28" height="28" viewBox="0 0 28 28">
<defs>
<filter id="filter-remove-color" x="0%" y="0%" width="100%" height="100%">
<feColorMatrix color-interpolation-filters="sRGB" values="0 0 0 0 1 0 0 0 0 1 0 0 0 0 1 0 0 0 1 0" />
</filter>
<mask id="mask-0">
<g filter="url(#filter-remove-color)">
<rect x="-2.8" y="-2.8" width="33.6" height="33.6" fill="rgb(0%, 0%, 0%)" fill-opacity="0.75"/>
</g>
</mask>
<clipPath id="clip-0">
<rect x="0" y="0" width="28" height="28"/>
</clipPath>
<g id="source-7" clip-path="url(#clip-0)">
<path fill-rule="nonzero" fill="rgb(100%, 100%, 100%)" fill-opacity="1" d="M 4.714844 6.679688 C 4.464844 6.683594 4.214844 6.792969 4.039062 6.972656 C 3.863281 7.152344 3.761719 7.40625 3.765625 7.660156 L 3.765625 9.050781 L 3.316406 9.050781 C 2.996094 9.046875 2.679688 9.175781 2.453125 9.398438 C 2.222656 9.621094 2.09375 9.941406 2.09375 10.257812 C 2.09375 10.578125 2.222656 10.894531 2.453125 11.117188 C 2.679688 11.34375 2.996094 11.46875 3.316406 11.464844 L 3.765625 11.464844 L 3.765625 15.113281 L 3.316406 15.113281 C 2.996094 15.109375 2.679688 15.238281 2.453125 15.460938 C 2.222656 15.683594 2.09375 16 2.09375 16.320312 C 2.09375 16.640625 2.222656 16.957031 2.453125 17.179688 C 2.679688 17.402344 2.996094 17.53125 3.316406 17.527344 L 3.765625 17.527344 L 3.765625 21.691406 L 5.695312 21.691406 L 5.695312 17.527344 L 10.25 17.527344 L 10.25 16.074219 L 18.714844 16.074219 L 18.714844 17.527344 L 22.882812 17.527344 L 22.882812 21.691406 L 24.8125 21.691406 L 24.8125 17.527344 L 25.125 17.527344 C 25.445312 17.53125 25.761719 17.402344 25.988281 17.179688 C 26.214844 16.957031 26.347656 16.640625 26.347656 16.320312 C 26.347656 16 26.214844 15.683594 25.988281 15.460938 C 25.761719 15.238281 25.445312 15.109375 25.125 15.113281 L 24.8125 15.113281 L 24.8125 11.464844 L 25.125 11.464844 C 25.445312 11.46875 25.761719 11.34375 25.988281 11.117188 C 26.214844 10.894531 26.347656 10.578125 26.347656 10.257812 C 26.347656 9.941406 26.214844 9.621094 25.988281 9.398438 C 25.761719 9.175781 25.445312 9.046875 25.125 9.050781 L 24.8125 9.050781 L 24.8125 7.660156 C 24.816406 7.402344 24.710938 7.144531 24.53125 6.960938 C 24.347656 6.78125 24.089844 6.675781 23.832031 6.679688 C 23.582031 6.683594 23.332031 6.792969 23.15625 6.972656 C 22.980469 7.152344 22.878906 7.40625 22.882812 7.660156 L 22.882812 9.050781 L 5.695312 9.050781 L 5.695312 7.660156 C 5.699219 7.402344 5.59375 7.144531 5.414062 6.960938 C 5.230469 6.78125 4.972656 6.675781 4.714844 6.679688 Z M 5.695312 11.464844 L 22.882812 11.464844 L 22.882812 15.113281 L 5.695312 15.113281 Z M 5.695312 11.464844 "/>
</g>
</defs>
<path fill-rule="nonzero" fill="rgb(6.666667%, 6.666667%, 6.666667%)" fill-opacity="1" stroke-width="3.408" stroke-linecap="butt" stroke-linejoin="miter" stroke="rgb(93.333333%, 93.333333%, 93.333333%)" stroke-opacity="1" stroke-miterlimit="4" d="M 66.269531 1.780134 C 24.921875 1.780134 1.699219 23.141741 1.699219 66.835938 L 1.699219 516.967076 C 1.699219 557.748326 22.575335 579.190848 63.922991 579.190848 L 515.915179 579.190848 C 557.262835 579.190848 578.138951 558.800223 578.138951 516.967076 L 578.138951 66.835938 C 578.138951 24.193638 557.262835 1.780134 514.620536 1.780134 C 514.620536 1.780134 66.107701 1.618304 66.269531 1.780134 Z M 66.269531 1.780134 " transform="matrix(0.0482759, 0, 0, 0.0482759, 0, 0)"/>
<g mask="url(#mask-0)">
<use xlink:href="#source-7"/>
</g>
<path fill="none" stroke-width="50" stroke-linecap="square" stroke-linejoin="miter" stroke="rgb(100%, 100%, 100%)" stroke-opacity="1" stroke-miterlimit="4" d="M 231.983817 468.013393 L 371.967076 468.013393 " transform="matrix(0.0482759, 0, 0, 0.0482759, 0, 0)"/>
<path fill="none" stroke-width="50" stroke-linecap="butt" stroke-linejoin="miter" stroke="rgb(100%, 100%, 100%)" stroke-opacity="1" stroke-miterlimit="4" d="M 240.31808 385.965402 L 359.667969 385.965402 " transform="matrix(0.0482759, 0, 0, 0.0482759, 0, 0)"/>
</svg>
