<?xml version="1.0" encoding="UTF-8"?>
<svg xmlns="http://www.w3.org/2000/svg" xmlns:xlink="http://www.w3.org/1999/xlink" width="28" height="28" viewBox="0 0 28 28">
<defs>
<filter id="filter-remove-color" x="0%" y="0%" width="100%" height="100%">
<feColorMatrix color-interpolation-filters="sRGB" values="0 0 0 0 1 0 0 0 0 1 0 0 0 0 1 0 0 0 1 0" />
</filter>
<mask id="mask-0">
<g filter="url(#filter-remove-color)">
<rect x="-2.8" y="-2.8" width="33.6" height="33.6" fill="rgb(0%, 0%, 0%)" fill-opacity="0.75"/>
</g>
</mask>
<clipPath id="clip-0">
<rect x="0" y="0" width="28" height="28"/>
</clipPath>
<g id="source-10" clip-path="url(#clip-0)">
<path fill-rule="nonzero" fill="rgb(100%, 100%, 100%)" fill-opacity="1" d="M 21.980469 9.785156 C 21.800781 9.785156 21.621094 9.859375 21.496094 9.984375 C 21.367188 10.113281 21.292969 10.289062 21.292969 10.46875 L 21.292969 18.703125 C 21.292969 18.882812 21.367188 19.0625 21.496094 19.1875 C 21.621094 19.316406 21.800781 19.390625 21.980469 19.390625 L 24.484375 19.390625 C 24.664062 19.390625 24.839844 19.316406 24.96875 19.1875 C 25.097656 19.0625 25.167969 18.882812 25.167969 18.703125 L 25.167969 10.46875 C 25.171875 10.289062 25.097656 10.113281 24.96875 9.984375 C 24.839844 9.859375 24.664062 9.785156 24.484375 9.785156 Z M 21.980469 9.785156 "/>
</g>
<mask id="mask-1">
<g filter="url(#filter-remove-color)">
<rect x="-2.8" y="-2.8" width="33.6" height="33.6" fill="rgb(0%, 0%, 0%)" fill-opacity="0.75"/>
</g>
</mask>
<clipPath id="clip-1">
<rect x="0" y="0" width="28" height="28"/>
</clipPath>
<g id="source-14" clip-path="url(#clip-1)">
<path fill-rule="nonzero" fill="rgb(100%, 100%, 100%)" fill-opacity="1" d="M 3.804688 2.878906 C 3.582031 2.878906 3.359375 2.972656 3.199219 3.128906 C 3.042969 3.289062 2.949219 3.511719 2.949219 3.734375 L 2.949219 18.535156 C 2.949219 18.757812 3.042969 18.980469 3.199219 19.140625 C 3.359375 19.296875 3.582031 19.390625 3.804688 19.390625 L 5.96875 19.390625 C 6.195312 19.390625 6.417969 19.296875 6.574219 19.140625 C 6.734375 18.980469 6.824219 18.757812 6.824219 18.535156 L 6.824219 11.078125 C 5.742188 11.410156 4.445312 11.113281 3.746094 10.195312 C 2.6875 8.925781 3.226562 6.6875 4.789062 6.09375 C 5.46875 5.9375 6.148438 5.78125 6.824219 5.625 L 6.824219 3.734375 C 6.824219 3.511719 6.734375 3.289062 6.574219 3.128906 C 6.417969 2.972656 6.195312 2.878906 5.96875 2.878906 Z M 3.804688 2.878906 "/>
</g>
</defs>
<path fill-rule="nonzero" fill="rgb(6.666667%, 6.666667%, 6.666667%)" fill-opacity="1" stroke-width="3.408" stroke-linecap="butt" stroke-linejoin="miter" stroke="rgb(93.333333%, 93.333333%, 93.333333%)" stroke-opacity="1" stroke-miterlimit="4" d="M 66.269531 1.780134 C 24.921875 1.780134 1.699219 23.141741 1.699219 66.835938 L 1.699219 516.967076 C 1.699219 557.748326 22.575335 579.190848 63.922991 579.190848 L 515.915179 579.190848 C 557.262835 579.190848 578.138951 558.800223 578.138951 516.967076 L 578.138951 66.835938 C 578.138951 24.193638 557.262835 1.780134 514.620536 1.780134 C 514.620536 1.780134 66.107701 1.618304 66.269531 1.780134 Z M 66.269531 1.780134 " transform="matrix(0.0482759, 0, 0, 0.0482759, 0, 0)"/>
<path fill-rule="nonzero" fill="rgb(100%, 100%, 100%)" fill-opacity="1" stroke-width="3.434087" stroke-linecap="round" stroke-linejoin="round" stroke="rgb(100%, 100%, 100%)" stroke-opacity="1" stroke-miterlimit="4" d="M 424.5081 167.160543 C 424.716886 167.324918 425.482437 167.489292 426.874347 167.818042 C 448.379359 172.009596 468.422864 179.735205 479.210168 190.830496 C 490.067067 202.007974 495.495516 216.63732 495.495516 234.718534 C 495.495516 253.210685 489.510303 269.237216 477.679067 282.798126 C 465.778235 296.441224 445.525943 303.755897 424.5081 304.90652 L 415.599875 318.713992 L 411.354549 318.713992 L 411.354549 305.235269 C 389.919133 302.851836 373.494594 295.865913 362.011335 284.359686 C 350.528077 272.853458 344.055695 256.662553 342.594189 235.951344 L 370.989156 230.937916 C 373.216212 246.471323 377.670324 258.470674 384.421088 266.93597 C 391.102257 275.319078 400.149673 280.085944 411.354549 281.236567 L 411.354549 190.830496 C 390.058324 186.228005 374.051358 178.502395 363.403246 167.653667 C 352.824729 156.804938 347.465875 142.915278 347.465875 125.820312 C 347.465875 108.889721 352.755133 94.342562 363.264055 82.178836 C 373.772976 70.097298 389.849538 63.029187 411.354549 61.138878 L 411.354549 47.577967 L 424.5081 47.577967 L 424.5081 61.138878 C 442.324549 62.946999 460.28019 68.617926 470.580325 78.151657 C 480.88046 87.767575 487.352842 101.164111 489.997471 118.423452 L 460.488977 122.697193 C 458.749089 111.930652 455.269314 103.465357 449.91046 97.219119 C 444.551606 90.972881 433.555516 86.945702 424.5081 85.13758 Z M 411.354549 163.708675 L 411.354549 84.808831 C 399.940886 86.781327 391.102257 91.383818 385.047448 98.616304 C 378.923043 105.848789 375.860841 114.14971 375.860841 123.601254 C 375.860841 134.449983 379.062234 142.997466 385.32583 149.243703 C 391.659021 155.489941 400.358459 160.338994 411.354549 163.708675 Z M 424.5081 281.236567 C 435.50419 279.59282 448.379359 274.743767 455.547696 266.853783 C 462.716033 258.881611 466.265404 248.854756 466.265404 236.773217 C 466.265404 226.171051 463.620774 217.623568 458.192325 211.130768 C 452.763875 204.637969 438.983965 199.131417 424.5081 194.611113 Z M 424.5081 281.236567 " transform="matrix(0.0561279, 0, 0, 0.0475286, -9.342376, 9.644935)"/>
<path fill="none" stroke-width="33.378365" stroke-linecap="round" stroke-linejoin="round" stroke="rgb(100%, 100%, 100%)" stroke-opacity="1" stroke-miterlimit="4" d="M 289.104177 123.768883 L 289.104177 385.707974 " transform="matrix(0.0490632, 0, 0, 0.0490632, 0.0226635, 5.950944)"/>
<path fill="none" stroke-width="54.685024" stroke-linecap="round" stroke-linejoin="miter" stroke="rgb(100%, 100%, 100%)" stroke-opacity="1" stroke-miterlimit="4" d="M 121.777344 156.799665 L 491.316964 74.428013 " transform="matrix(0.0482759, 0, 0, 0.0482759, 0, 0.965517)"/>
<g mask="url(#mask-0)">
<use xlink:href="#source-10"/>
</g>
<g mask="url(#mask-1)">
<use xlink:href="#source-14"/>
</g>
</svg>
