<?xml version="1.0" encoding="UTF-8"?>
<svg xmlns="http://www.w3.org/2000/svg" xmlns:xlink="http://www.w3.org/1999/xlink" width="24" height="24" viewBox="0 0 24 24">
<path fill-rule="nonzero" fill="rgb(0%, 0%, 0%)" fill-opacity="1" d="M 4.234375 12.480469 L 12.402344 1.339844 C 12.652344 1 13.046875 0.800781 13.46875 0.800781 C 14.339844 0.800781 14.972656 1.628906 14.746094 2.46875 L 12.9375 9.09375 C 12.867188 9.347656 13.058594 9.601562 13.324219 9.601562 L 18.792969 9.601562 C 19.460938 9.601562 20 10.140625 20 10.804688 C 20 11.0625 19.917969 11.3125 19.765625 11.519531 L 11.597656 22.660156 C 11.347656 23 10.953125 23.199219 10.53125 23.199219 C 9.660156 23.199219 9.027344 22.371094 9.253906 21.53125 L 11.0625 14.90625 C 11.132812 14.652344 10.941406 14.398438 10.675781 14.398438 L 5.207031 14.398438 C 4.539062 14.398438 4 13.859375 4 13.195312 C 4 12.9375 4.082031 12.6875 4.234375 12.480469 Z M 4.234375 12.480469 "/>
</svg>
