<?xml version="1.0" encoding="UTF-8"?>
<svg xmlns="http://www.w3.org/2000/svg" xmlns:xlink="http://www.w3.org/1999/xlink" width="24" height="24" viewBox="0 0 24 24">
<path fill-rule="nonzero" fill="rgb(0%, 0%, 0%)" fill-opacity="1" d="M 17.394531 4.570312 C 16.582031 4.457031 14.519531 5.734375 12.035156 8.105469 C 12.859375 8.152344 13.679688 8.992188 13.605469 9.75 C 16.058594 7.40625 17.480469 5.425781 17.394531 4.570312 Z M 6.214844 7.714844 C 5.515625 7.738281 5 7.832031 4.75 8.035156 C 5.097656 8.777344 7.257812 9.796875 10.605469 10.570312 C 10.191406 9.859375 10.46875 8.710938 11.144531 8.355469 C 9.078125 7.878906 7.375 7.671875 6.214844 7.714844 Z M 12 9.144531 C 11.683594 9.144531 11.429688 9.398438 11.429688 9.714844 C 11.429688 10.03125 11.683594 10.285156 12 10.285156 C 12.316406 10.285156 12.570312 10.03125 12.570312 9.714844 C 12.570312 9.398438 12.316406 9.144531 12 9.144531 Z M 13.5 10.320312 C 13.269531 11.046875 12.167969 11.5 11.394531 11.214844 C 12.738281 14.375 14.136719 16.320312 14.929688 16.535156 C 15.347656 15.785156 14.828125 13.441406 13.5 10.320312 Z M 11.320312 12.855469 L 10.855469 18.855469 L 8.570312 18.855469 L 8.570312 20 L 15.429688 20 L 15.429688 18.855469 L 13.144531 18.855469 L 12.894531 15.679688 C 12.378906 14.84375 11.859375 13.910156 11.320312 12.855469 Z M 11.320312 12.855469 "/>
</svg>
