<?xml version="1.0" encoding="UTF-8"?>
<svg xmlns="http://www.w3.org/2000/svg" xmlns:xlink="http://www.w3.org/1999/xlink" width="24" height="24" viewBox="0 0 24 24">
<path fill-rule="nonzero" fill="rgb(0%, 0%, 0%)" fill-opacity="1" d="M 12 22.398438 C 17.742188 22.398438 22.398438 17.601562 22.398438 12 C 22.398438 7.199219 18.398438 3.199219 18.398438 3.199219 L 16.800781 8.800781 L 12 1.601562 L 7.199219 8.800781 L 5.601562 3.199219 C 5.601562 3.199219 1.601562 7.199219 1.601562 12 C 1.601562 17.601562 6.257812 22.398438 12 22.398438 Z M 12 20 C 9.789062 20 8 18.210938 8 16 C 8 13.789062 12 8.800781 12 8.800781 C 12 8.800781 16 13.789062 16 16 C 16 18.210938 14.210938 20 12 20 Z M 12 20 "/>
</svg>
