<?xml version="1.0" encoding="UTF-8"?>
<svg xmlns="http://www.w3.org/2000/svg" xmlns:xlink="http://www.w3.org/1999/xlink" width="28" height="28" viewBox="0 0 28 28">
<defs>
<filter id="filter-remove-color" x="0%" y="0%" width="100%" height="100%">
<feColorMatrix color-interpolation-filters="sRGB" values="0 0 0 0 1 0 0 0 0 1 0 0 0 0 1 0 0 0 1 0" />
</filter>
<mask id="mask-0">
<g filter="url(#filter-remove-color)">
<rect x="-2.8" y="-2.8" width="33.6" height="33.6" fill="rgb(0%, 0%, 0%)" fill-opacity="0.25"/>
</g>
</mask>
<clipPath id="clip-0">
<rect x="0" y="0" width="28" height="28"/>
</clipPath>
<g id="source-8" clip-path="url(#clip-0)">
<path fill-rule="nonzero" fill="rgb(100%, 100%, 100%)" fill-opacity="1" d="M 13.988281 1.800781 C 12.824219 1.78125 12.234375 3.054688 12.230469 4.160156 C 12.21875 6.332031 12.253906 8.296875 12.210938 10.46875 C 11.421875 11.125 10.433594 11.476562 9.617188 12.101562 C 7.203125 13.609375 4.710938 15.007812 2.351562 16.59375 C 1.871094 17.519531 2.238281 18.585938 2.117188 19.574219 C 2.21875 20.113281 2.945312 20.269531 3.347656 19.960938 C 6.347656 19.035156 9.300781 17.945312 12.3125 17.0625 C 12.300781 18.207031 12.363281 19.355469 12.328125 20.5 C 12.304688 20.851562 12.359375 21.238281 12.257812 21.566406 C 11.585938 22.316406 10.472656 22.652344 10.050781 23.613281 C 9.910156 24.238281 10.027344 24.886719 9.988281 25.519531 C 10.039062 25.964844 10.511719 26.367188 10.953125 26.160156 C 11.832031 25.882812 12.722656 25.644531 13.582031 25.332031 C 14.035156 25.164062 14.527344 25.226562 14.957031 25.414062 C 15.925781 25.710938 16.894531 26.171875 17.917969 26.15625 C 18.414062 25.925781 18.332031 25.292969 18.285156 24.847656 C 18.371094 24.195312 18.390625 23.351562 17.761719 22.949219 C 17.167969 22.472656 16.523438 22.050781 15.972656 21.519531 C 15.9375 20.035156 15.890625 18.484375 15.984375 17.042969 C 17.140625 17.441406 18.320312 17.765625 19.472656 18.171875 C 21.511719 18.847656 23.542969 19.585938 25.625 20.117188 C 26.148438 20.027344 26.269531 19.355469 26.121094 18.921875 C 26.101562 18.15625 26.335938 17.300781 25.90625 16.613281 C 24.140625 15.339844 22.1875 14.367188 20.359375 13.191406 C 18.886719 12.304688 17.410156 11.417969 15.9375 10.527344 C 15.773438 9.570312 15.984375 8.59375 15.882812 7.632812 C 15.875 5.976562 16.003906 4.507812 15.734375 2.867188 C 15.4375 2.203125 14.714844 1.773438 13.988281 1.800781 Z M 13.988281 1.800781 "/>
</g>
</defs>
<path fill-rule="nonzero" fill="rgb(6.666667%, 6.666667%, 6.666667%)" fill-opacity="1" stroke-width="3.408" stroke-linecap="butt" stroke-linejoin="miter" stroke="rgb(93.333333%, 93.333333%, 93.333333%)" stroke-opacity="1" stroke-miterlimit="4" d="M 66.269531 1.780134 C 24.921875 1.780134 1.699219 23.141741 1.699219 66.835938 L 1.699219 516.967076 C 1.699219 557.748326 22.575335 579.190848 63.922991 579.190848 L 515.915179 579.190848 C 557.262835 579.190848 578.138951 558.881138 578.138951 516.967076 L 578.138951 66.835938 C 578.138951 24.193638 557.262835 1.780134 514.620536 1.780134 C 514.620536 1.780134 66.107701 1.618304 66.269531 1.780134 Z M 66.269531 1.780134 " transform="matrix(0.0482759, 0, 0, 0.0482759, 0, 0)"/>
<path fill="none" stroke-width="13.162256" stroke-linecap="round" stroke-linejoin="round" stroke="rgb(100%, 100%, 100%)" stroke-opacity="1" stroke-miterlimit="4" d="M 221.143167 -6.118746 C 198.47332 -6.499112 186.073371 14.801415 186.910177 39.829534 C 186.681957 82.126295 187.366617 120.39117 186.52981 162.687931 C 171.163002 175.468247 151.916454 182.314845 136.017132 194.486575 C 89.003826 223.850873 40.469053 251.085118 -5.479226 281.970883 C -14.836244 300.000257 -7.685352 320.768271 -10.043625 340.014819 C -8.065719 350.512936 6.083917 353.555868 13.919468 347.546077 C 72.343771 329.516702 129.855194 308.292248 188.507717 291.09968 C 188.279497 313.38916 189.49667 335.754714 188.81201 358.044194 C 188.35557 364.890792 189.420596 372.422049 187.44269 378.812208 C 174.358081 393.418283 152.677187 399.960588 144.46127 418.674622 C 141.72263 430.846352 144.00483 443.474522 143.244097 455.798398 C 144.23305 464.470756 153.43792 472.306307 162.034204 468.274421 C 179.150699 462.873216 196.495414 458.232744 213.231543 452.146879 C 222.056047 448.875727 231.641284 450.0929 240.009348 453.744419 C 258.875529 459.52599 277.74171 468.502641 297.672918 468.198348 C 307.334228 463.710023 305.736689 451.386146 304.823809 442.713789 C 306.497422 430.009546 306.877788 413.577711 294.629985 405.74216 C 283.066842 396.461216 270.514746 388.245298 259.788409 377.899328 C 259.103749 348.99147 258.190869 318.790365 260.016629 290.719313 C 282.534329 298.478791 305.508469 304.792876 327.950095 312.7045 C 367.660364 325.865183 407.218485 340.243039 447.76556 350.589009 C 457.959384 348.839323 460.317656 335.754714 457.426871 327.310576 C 457.046504 312.400207 461.610903 295.740152 453.242839 282.351249 C 418.857702 257.55135 380.821047 238.609095 345.218737 215.711029 C 316.539099 198.442387 287.783387 181.173746 259.103749 163.829031 C 255.90867 145.19107 260.016629 126.172742 258.038723 107.458707 C 257.886576 75.203624 260.396995 46.600059 255.147937 14.649268 C 249.366365 1.716805 235.292803 -6.651259 221.143167 -6.118746 Z M 221.143167 -6.118746 " transform="matrix(0.0513485, 0, 0, 0.0513485, 2.632913, 2.11497)"/>
<g mask="url(#mask-0)">
<use xlink:href="#source-8"/>
</g>
</svg>
