<?xml version="1.0" encoding="UTF-8"?>
<svg xmlns="http://www.w3.org/2000/svg" xmlns:xlink="http://www.w3.org/1999/xlink" width="28" height="28" viewBox="0 0 28 28">
<path fill-rule="nonzero" fill="rgb(6.666667%, 6.666667%, 6.666667%)" fill-opacity="1" stroke-width="3.408" stroke-linecap="butt" stroke-linejoin="miter" stroke="rgb(93.333333%, 93.333333%, 93.333333%)" stroke-opacity="1" stroke-miterlimit="4" d="M 66.269531 1.780134 C 24.921875 1.780134 1.699219 23.141741 1.699219 66.835938 L 1.699219 516.967076 C 1.699219 557.748326 22.575335 579.190848 63.922991 579.190848 L 515.915179 579.190848 C 557.262835 579.190848 578.138951 558.881138 578.138951 516.967076 L 578.138951 66.835938 C 578.138951 24.193638 557.262835 1.780134 514.620536 1.780134 C 514.620536 1.780134 66.107701 1.618304 66.269531 1.780134 Z M 66.269531 1.780134 " transform="matrix(0.0482759, 0, 0, 0.0482759, 0, 0)"/>
<path fill="none" stroke-width="20" stroke-linecap="butt" stroke-linejoin="round" stroke="rgb(100%, 100%, 100%)" stroke-opacity="1" stroke-miterlimit="4" d="M 221.119303 -6.119271 C 198.543968 -6.523847 181.551781 18.640773 186.892182 39.84055 C 186.730352 82.078273 187.377674 120.351153 186.568522 162.669791 C 171.194638 175.535304 151.936825 182.332179 135.996535 194.469456 C 88.984816 223.841666 40.516624 251.110081 -5.443197 281.938764 C -14.829358 300.063764 -7.708822 320.77805 -10.055362 340.035863 C -8.032483 350.473921 6.046758 353.548697 13.895531 347.560974 C 72.397205 329.516889 129.846982 308.317113 188.510486 291.082179 C 188.267741 313.414769 189.481468 335.747358 188.834147 358.079947 C 188.348656 364.876822 189.400553 372.401934 187.377674 378.794233 C 174.35033 393.358965 152.665062 399.913095 144.411714 418.685416 C 141.741513 430.822693 144.007138 443.445461 143.278901 455.744568 C 144.249883 464.402492 153.474214 472.332179 162.051223 468.286421 C 179.124325 462.865104 196.440174 458.252938 213.189616 452.103385 C 222.090285 448.866778 231.638276 450.080505 240.053455 453.802604 C 258.906691 459.547581 277.759928 468.529166 297.665062 468.205505 C 307.293968 463.674255 305.75658 451.375148 304.785598 442.717224 C 306.484816 430.013541 306.889392 413.58776 294.6712 405.738988 C 283.10033 396.433742 270.477562 388.261309 259.796758 377.904166 C 259.068522 349.017447 258.178455 318.755171 260.039504 290.758519 C 282.533924 298.445461 305.513834 304.756845 327.927339 312.767447 C 367.656691 325.875706 407.224214 340.278608 447.762718 350.554836 C 457.958031 348.855617 460.304571 335.747358 457.47254 327.251264 C 457.067964 312.443787 461.599214 295.77526 453.184035 282.34334 C 418.875999 257.583296 380.845866 238.568229 345.243187 215.669233 C 316.518299 198.4343 287.79341 181.199367 259.149437 163.802604 C 255.91283 145.192113 260.039504 126.177046 258.016624 107.404724 C 257.854794 75.200483 260.44408 46.637425 255.184593 14.675929 C 249.3587 1.729501 235.279459 -6.685678 221.119303 -6.119271 Z M 221.119303 -6.119271 " transform="matrix(0.0482759, 0, 0, 0.0482759, 3.321369, 2.826663)"/>
</svg>
