<?xml version="1.0" encoding="UTF-8"?>
<svg xmlns="http://www.w3.org/2000/svg" xmlns:xlink="http://www.w3.org/1999/xlink" width="28" height="28" viewBox="0 0 28 28">
<path fill-rule="nonzero" fill="rgb(6.666667%, 6.666667%, 6.666667%)" fill-opacity="1" stroke-width="3.408" stroke-linecap="butt" stroke-linejoin="miter" stroke="rgb(93.333333%, 93.333333%, 93.333333%)" stroke-opacity="1" stroke-miterlimit="4" d="M 66.269531 1.780134 C 24.921875 1.780134 1.699219 23.141741 1.699219 66.835938 L 1.699219 516.967076 C 1.699219 557.748326 22.575335 579.190848 63.922991 579.190848 L 515.915179 579.190848 C 557.262835 579.190848 578.138951 558.881138 578.138951 516.967076 L 578.138951 66.835938 C 578.138951 24.193638 557.262835 1.780134 514.620536 1.780134 C 514.620536 1.780134 66.107701 1.618304 66.269531 1.780134 Z M 66.269531 1.780134 " transform="matrix(0.0482759, 0, 0, 0.0482759, 0, 0)"/>
<path fill-rule="nonzero" fill="rgb(100%, 100%, 100%)" fill-opacity="1" d="M 12.828125 4.050781 C 12.832031 2.410156 15.304688 2.410156 15.300781 4.097656 L 15.300781 10.988281 L 24.945312 16.78125 L 24.945312 19.328125 L 15.347656 16.167969 L 15.347656 21.316406 L 17.570312 23.054688 L 17.570312 25.066406 L 14.144531 24 L 10.722656 25.066406 L 10.722656 23.054688 L 12.917969 21.316406 L 12.917969 16.167969 L 3.320312 19.328125 L 3.320312 16.78125 L 12.828125 10.988281 Z M 12.828125 4.050781 "/>
</svg>
