<?xml version="1.0" encoding="UTF-8"?>
<svg xmlns="http://www.w3.org/2000/svg" xmlns:xlink="http://www.w3.org/1999/xlink" width="28" height="28" viewBox="0 0 28 28">
<path fill-rule="nonzero" fill="rgb(6.666667%, 6.666667%, 6.666667%)" fill-opacity="1" stroke-width="3.408" stroke-linecap="butt" stroke-linejoin="miter" stroke="rgb(93.333333%, 93.333333%, 93.333333%)" stroke-opacity="1" stroke-miterlimit="4" d="M 66.269531 1.780134 C 24.921875 1.780134 1.699219 23.141741 1.699219 66.835938 L 1.699219 516.967076 C 1.699219 557.748326 22.575335 579.190848 63.922991 579.190848 L 515.915179 579.190848 C 557.262835 579.190848 578.138951 558.881138 578.138951 516.967076 L 578.138951 66.835938 C 578.138951 24.193638 557.262835 1.780134 514.620536 1.780134 C 514.620536 1.780134 66.107701 1.618304 66.269531 1.780134 Z M 66.269531 1.780134 " transform="matrix(0.0482759, 0, 0, 0.0482759, 0, 0)"/>
<path fill-rule="nonzero" fill="rgb(100%, 100%, 100%)" fill-opacity="1" stroke-width="30" stroke-linecap="round" stroke-linejoin="round" stroke="rgb(100%, 100%, 100%)" stroke-opacity="1" stroke-miterlimit="4" d="M 196.925665 25.356733 C 197.00658 -8.627642 248.225888 -8.627642 248.144973 26.327715 L 248.144973 169.06209 L 447.924549 289.0593 L 447.924549 341.815996 L 249.115955 276.355617 L 249.115955 383.001822 L 295.156691 419.009077 L 295.156691 460.680394 L 224.19408 438.59055 L 153.312383 460.680394 L 153.312383 419.009077 L 198.786714 383.001822 L 198.786714 276.355617 L -0.02188 341.815996 L -0.02188 289.0593 L 196.925665 169.06209 Z M 196.925665 25.356733 " transform="matrix(0.0482759, 0, 0, 0.0482759, 3.321369, 2.826663)"/>
<path fill-rule="nonzero" fill="rgb(100%, 100%, 100%)" fill-opacity="1" stroke-width="30" stroke-linecap="round" stroke-linejoin="round" stroke="rgb(100%, 100%, 100%)" stroke-opacity="1" stroke-miterlimit="4" d="M 248.144973 169.06209 L 447.924549 289.0593 L 447.924549 341.815996 L 249.115955 276.355617 L 198.786714 276.355617 L -0.02188 341.815996 L -0.02188 289.0593 L 196.925665 169.06209 Z M 248.144973 169.06209 " transform="matrix(0.0482759, 0, 0, 0.0482759, 3.321369, 2.826663)"/>
<path fill-rule="nonzero" fill="rgb(100%, 100%, 100%)" fill-opacity="1" stroke-width="40" stroke-linecap="round" stroke-linejoin="round" stroke="rgb(100%, 100%, 100%)" stroke-opacity="1" stroke-miterlimit="4" d="M 248.144973 169.06209 L 447.924549 289.0593 L 447.924549 341.815996 L 249.115955 276.355617 L 198.786714 276.355617 L -0.02188 341.815996 L -0.02188 289.0593 L 196.925665 169.06209 Z M 248.144973 169.06209 " transform="matrix(0.0482759, 0, 0, 0.0482759, 3.321369, 2.826663)"/>
<path fill-rule="nonzero" fill="rgb(100%, 100%, 100%)" fill-opacity="1" stroke-width="40" stroke-linecap="round" stroke-linejoin="round" stroke="rgb(100%, 100%, 100%)" stroke-opacity="1" stroke-miterlimit="4" d="M 248.144973 169.06209 L 447.924549 289.0593 L 447.924549 341.815996 L 249.115955 276.355617 L 198.786714 276.355617 L -0.02188 341.815996 L -0.02188 289.0593 L 196.925665 169.06209 Z M 248.144973 169.06209 " transform="matrix(0.0482759, 0, 0, 0.0482759, 3.321369, 2.826663)"/>
</svg>
