<?xml version="1.0" encoding="UTF-8"?>
<svg xmlns="http://www.w3.org/2000/svg" xmlns:xlink="http://www.w3.org/1999/xlink" width="28" height="28" viewBox="0 0 28 28">
<defs>
<filter id="filter-remove-color" x="0%" y="0%" width="100%" height="100%">
<feColorMatrix color-interpolation-filters="sRGB" values="0 0 0 0 1 0 0 0 0 1 0 0 0 0 1 0 0 0 1 0" />
</filter>
<mask id="mask-0">
<g filter="url(#filter-remove-color)">
<rect x="-2.8" y="-2.8" width="33.6" height="33.6" fill="rgb(0%, 0%, 0%)" fill-opacity="0.5"/>
</g>
</mask>
<clipPath id="clip-0">
<rect x="0" y="0" width="28" height="28"/>
</clipPath>
<g id="source-13" clip-path="url(#clip-0)">
<path fill-rule="nonzero" fill="rgb(100%, 100%, 100%)" fill-opacity="1" stroke-width="16.599285" stroke-linecap="round" stroke-linejoin="round" stroke="rgb(100%, 100%, 100%)" stroke-opacity="1" stroke-miterlimit="4" d="M 83.261719 217.257254 C 256.743862 217.257254 36.897321 217.257254 210.379464 217.257254 C 210.379464 192.901786 210.379464 187.075893 210.379464 162.720424 C 36.897321 162.720424 256.743862 162.720424 83.261719 162.720424 C 83.261719 187.075893 83.261719 192.901786 83.261719 217.257254 Z M 83.261719 217.257254 " transform="matrix(0.0482759, 0, 0, 0.0482759, 0, 0)"/>
</g>
<mask id="mask-1">
<g filter="url(#filter-remove-color)">
<rect x="-2.8" y="-2.8" width="33.6" height="33.6" fill="rgb(0%, 0%, 0%)" fill-opacity="0.25"/>
</g>
</mask>
<clipPath id="clip-1">
<rect x="0" y="0" width="28" height="28"/>
</clipPath>
<g id="source-18" clip-path="url(#clip-1)">
<path fill-rule="nonzero" fill="rgb(100%, 100%, 100%)" fill-opacity="1" stroke-width="20.767643" stroke-linecap="round" stroke-linejoin="round" stroke="rgb(100%, 100%, 100%)" stroke-opacity="1" stroke-miterlimit="4" d="M 39.082031 496.576451 C 206.171875 496.576451 373.180804 496.576451 540.270647 496.576451 C 540.270647 456.928013 540.270647 417.360491 540.270647 377.712054 C 373.180804 377.712054 206.171875 377.712054 39.082031 377.712054 C 39.082031 417.360491 39.082031 456.928013 39.082031 496.576451 Z M 39.082031 496.576451 " transform="matrix(0.0482759, 0, 0, 0.0482759, 0, 0)"/>
</g>
</defs>
<path fill-rule="nonzero" fill="rgb(6.666667%, 6.666667%, 6.666667%)" fill-opacity="1" stroke-width="3.408" stroke-linecap="butt" stroke-linejoin="miter" stroke="rgb(93.333333%, 93.333333%, 93.333333%)" stroke-opacity="1" stroke-miterlimit="4" d="M 66.269531 1.780134 C 24.921875 1.780134 1.699219 23.141741 1.699219 66.835938 L 1.699219 516.967076 C 1.699219 557.748326 22.575335 579.190848 63.922991 579.190848 L 515.915179 579.190848 C 557.262835 579.190848 578.138951 558.881138 578.138951 516.967076 L 578.138951 66.835938 C 578.138951 24.193638 557.262835 1.780134 514.620536 1.780134 C 514.620536 1.780134 66.107701 1.618304 66.269531 1.780134 Z M 66.269531 1.780134 " transform="matrix(0.0482759, 0, 0, 0.0482759, 0, 0)"/>
<path fill-rule="nonzero" fill="rgb(100%, 100%, 100%)" fill-opacity="1" d="M 24.859375 2.574219 C 25.660156 1.964844 26.578125 3.171875 25.757812 3.796875 L 22.402344 6.359375 L 23.167969 13.210938 L 21.929688 14.160156 L 19.894531 8.3125 L 17.390625 10.226562 L 17.371094 11.953125 L 16.390625 12.703125 L 15.632812 10.636719 L 13.84375 9.367188 L 14.824219 8.617188 L 16.484375 9.042969 L 18.992188 7.128906 L 13.882812 3.628906 L 15.121094 2.683594 L 21.480469 5.15625 Z M 24.859375 2.574219 "/>
<path fill-rule="nonzero" fill="rgb(100%, 100%, 100%)" fill-opacity="1" stroke-width="20.767643" stroke-linecap="round" stroke-linejoin="round" stroke="rgb(100%, 100%, 100%)" stroke-opacity="1" stroke-miterlimit="4" d="M 39.082031 377.712054 L 39.082031 496.576451 L 411.291853 496.576451 L 411.291853 428.526786 L 522.388393 428.526786 L 522.388393 496.576451 L 540.270647 496.576451 L 540.270647 377.712054 Z M 43.856027 381.434152 L 154.871652 381.434152 L 154.871652 422.458147 L 43.856027 422.458147 Z M 168.950893 381.434152 L 279.966518 381.434152 L 279.966518 422.458147 L 168.950893 422.458147 Z M 291.132812 381.434152 L 402.148438 381.434152 L 402.148438 422.458147 L 291.132812 422.458147 Z M 411.372768 381.434152 L 522.388393 381.434152 L 522.388393 422.458147 L 411.372768 422.458147 Z M 43.856027 428.526786 L 154.871652 428.526786 L 154.871652 492.368862 L 43.856027 492.368862 Z M 169.031808 428.526786 L 280.128348 428.526786 L 280.128348 492.368862 L 169.031808 492.368862 Z M 291.132812 428.526786 L 402.148438 428.526786 L 402.148438 492.368862 L 291.132812 492.368862 Z M 291.132812 428.526786 " transform="matrix(0.0482759, 0, 0, 0.0482759, 0, 0)"/>
<path fill-rule="nonzero" fill="rgb(100%, 100%, 100%)" fill-opacity="1" stroke-width="21.49099" stroke-linecap="round" stroke-linejoin="round" stroke="rgb(100%, 100%, 100%)" stroke-opacity="1" stroke-miterlimit="4" d="M 85.689174 376.498326 C 252.536272 376.498326 41.104911 382.486049 207.952009 382.486049 C 207.952009 340.00558 207.952009 329.810268 207.952009 287.329799 C 41.104911 287.329799 252.536272 287.329799 85.689174 287.329799 C 85.689174 329.810268 85.689174 334.017857 85.689174 376.498326 Z M 85.689174 376.498326 " transform="matrix(0.0482759, 0, 0, 0.0482759, 0, 0)"/>
<path fill-rule="nonzero" fill="rgb(100%, 100%, 100%)" fill-opacity="1" stroke-width="21.49099" stroke-linecap="round" stroke-linejoin="round" stroke="rgb(100%, 100%, 100%)" stroke-opacity="1" stroke-miterlimit="4" d="M 86.25558 232.873884 C 90.301339 253.992746 98.392857 278.105469 119.188058 288.138951 C 133.833705 295.259487 150.502232 290.16183 166.037946 292.022879 C 175.262277 290.728237 182.382812 283.445871 188.451451 276.972656 C 198.404018 264.835379 202.449777 249.21875 207.061942 234.815848 C 204.472656 231.498326 198.484933 234.977679 194.84375 233.763951 C 158.59375 233.44029 122.34375 233.116629 86.25558 232.873884 Z M 206.819196 234.168527 C 206.900112 234.168527 206.738281 234.087612 206.819196 234.168527 Z M 206.819196 234.168527 " transform="matrix(0.0482759, 0, 0, 0.0482759, 0, 0)"/>
<path fill-rule="nonzero" fill="rgb(100%, 100%, 100%)" fill-opacity="1" stroke-width="8.829962" stroke-linecap="round" stroke-linejoin="round" stroke="rgb(100%, 100%, 100%)" stroke-opacity="1" stroke-miterlimit="4" d="M 79.37779 171.378348 C 263.459821 171.378348 30.181362 171.378348 214.263393 171.378348 C 214.263393 164.905134 214.263393 163.28683 214.263393 156.813616 C 30.181362 156.813616 263.459821 156.813616 79.37779 156.813616 C 79.37779 163.28683 79.37779 164.905134 79.37779 171.378348 Z M 79.37779 171.378348 " transform="matrix(0.0482759, 0, 0, 0.0482759, 0, 0)"/>
<path fill-rule="nonzero" fill="rgb(100%, 100%, 100%)" fill-opacity="1" stroke-width="8.829962" stroke-linecap="round" stroke-linejoin="round" stroke="rgb(100%, 100%, 100%)" stroke-opacity="1" stroke-miterlimit="4" d="M 79.37779 232.792969 C 263.459821 232.792969 30.181362 232.792969 214.263393 232.792969 C 214.263393 226.319754 214.263393 224.701451 214.263393 218.228237 C 30.181362 218.228237 263.459821 218.228237 79.37779 218.228237 C 79.37779 224.701451 79.37779 226.319754 79.37779 232.792969 Z M 79.37779 232.792969 " transform="matrix(0.0482759, 0, 0, 0.0482759, 0, 0)"/>
<g mask="url(#mask-0)">
<use xlink:href="#source-13"/>
</g>
<path fill-rule="nonzero" fill="rgb(100%, 100%, 100%)" fill-opacity="1" stroke-width="14.077268" stroke-linecap="round" stroke-linejoin="round" stroke="rgb(100%, 100%, 100%)" stroke-opacity="1" stroke-miterlimit="4" d="M 342.02846 375.527344 C 550.789621 375.527344 286.196987 375.527344 494.958147 375.527344 C 494.958147 360.962612 494.958147 357.483259 494.958147 342.918527 C 286.196987 342.918527 550.789621 342.918527 342.02846 342.918527 C 342.02846 357.483259 342.02846 360.962612 342.02846 375.527344 Z M 342.02846 375.527344 " transform="matrix(0.0482759, 0, 0, 0.0482759, 0, 0)"/>
<g mask="url(#mask-1)">
<use xlink:href="#source-18"/>
</g>
<path fill-rule="nonzero" fill="rgb(100%, 100%, 100%)" fill-opacity="1" stroke-width="7.379349" stroke-linecap="round" stroke-linejoin="round" stroke="rgb(100%, 100%, 100%)" stroke-opacity="1" stroke-miterlimit="4" d="M 138.688616 68.292411 C 138.688616 185.295759 138.688616 36.978237 138.688616 153.981585 C 145.809152 153.981585 147.508371 153.981585 154.628906 153.981585 C 154.628906 36.978237 154.628906 185.295759 154.628906 68.292411 C 147.508371 68.292411 145.809152 68.292411 138.688616 68.292411 Z M 138.688616 68.292411 " transform="matrix(0.0482759, 0, 0, 0.0482759, 0, 0)"/>
</svg>
