<?xml version="1.0" encoding="UTF-8"?>
<svg xmlns="http://www.w3.org/2000/svg" xmlns:xlink="http://www.w3.org/1999/xlink" width="28" height="28" viewBox="0 0 28 28">
<path fill-rule="nonzero" fill="rgb(6.666667%, 6.666667%, 6.666667%)" fill-opacity="1" stroke-width="3.408" stroke-linecap="butt" stroke-linejoin="miter" stroke="rgb(93.333333%, 93.333333%, 93.333333%)" stroke-opacity="1" stroke-miterlimit="4" d="M 66.269531 1.780134 C 24.921875 1.780134 1.699219 23.141741 1.699219 66.835938 L 1.699219 516.967076 C 1.699219 557.748326 22.575335 579.190848 63.922991 579.190848 L 515.915179 579.190848 C 557.262835 579.190848 578.138951 558.881138 578.138951 516.967076 L 578.138951 66.835938 C 578.138951 24.193638 557.262835 1.780134 514.620536 1.780134 C 514.620536 1.780134 66.107701 1.618304 66.269531 1.780134 Z M 66.269531 1.780134 " transform="matrix(0.0482759, 0, 0, 0.0482759, 0, 0)"/>
<path fill-rule="nonzero" fill="rgb(100%, 100%, 100%)" fill-opacity="1" d="M 14.03125 1.667969 C 14.0625 1.667969 14.097656 1.667969 14.128906 1.671875 C 14.164062 1.667969 14.195312 1.667969 14.230469 1.667969 Z M 14.128906 1.671875 C 11.8125 1.6875 8.671875 2.339844 7.359375 2.886719 C 6.027344 3.441406 5.140625 3.996094 4.867188 5.382812 L 3.867188 13.0625 L 3.867188 23.644531 L 5.585938 23.644531 L 5.585938 25.300781 C 5.585938 27.324219 8.546875 27.324219 8.546875 25.300781 L 8.546875 23.644531 L 19.714844 23.644531 L 19.714844 25.300781 C 19.714844 27.324219 22.675781 27.324219 22.675781 25.300781 L 22.675781 23.644531 L 24.394531 23.644531 L 24.394531 13.0625 L 23.394531 5.382812 C 23.117188 3.996094 22.230469 3.441406 20.902344 2.886719 C 19.589844 2.339844 16.449219 1.6875 14.128906 1.671875 Z M 9.910156 3.609375 L 18.351562 3.609375 C 19.183594 3.609375 19.183594 4.855469 18.351562 4.855469 L 9.910156 4.855469 C 9.078125 4.855469 9.078125 3.609375 9.910156 3.609375 Z M 7.667969 6.113281 L 20.59375 6.113281 C 21.46875 6.113281 21.699219 6.558594 21.808594 7.238281 L 22.585938 12.808594 C 22.65625 13.339844 22.5 13.871094 21.761719 13.871094 L 6.496094 13.871094 C 5.757812 13.871094 5.605469 13.339844 5.675781 12.808594 L 6.453125 7.238281 C 6.558594 6.558594 6.789062 6.113281 7.667969 6.113281 Z M 7.066406 17.484375 C 7.851562 17.484375 8.488281 18.121094 8.488281 18.90625 C 8.488281 19.691406 7.851562 20.324219 7.066406 20.324219 C 6.285156 20.324219 5.648438 19.691406 5.648438 18.90625 C 5.648438 18.121094 6.285156 17.484375 7.066406 17.484375 Z M 21.191406 17.484375 C 21.976562 17.484375 22.613281 18.121094 22.613281 18.90625 C 22.613281 19.691406 21.976562 20.324219 21.191406 20.324219 C 20.410156 20.324219 19.773438 19.691406 19.773438 18.90625 C 19.773438 18.121094 20.410156 17.484375 21.191406 17.484375 Z M 21.191406 17.484375 "/>
</svg>
