<?xml version="1.0" encoding="UTF-8"?>
<svg xmlns="http://www.w3.org/2000/svg" xmlns:xlink="http://www.w3.org/1999/xlink" width="28" height="28" viewBox="0 0 28 28">
<defs>
<filter id="filter-remove-color" x="0%" y="0%" width="100%" height="100%">
<feColorMatrix color-interpolation-filters="sRGB" values="0 0 0 0 1 0 0 0 0 1 0 0 0 0 1 0 0 0 1 0" />
</filter>
<mask id="mask-0">
<g filter="url(#filter-remove-color)">
<rect x="-2.8" y="-2.8" width="33.6" height="33.6" fill="rgb(0%, 0%, 0%)" fill-opacity="0.1"/>
</g>
</mask>
<clipPath id="clip-0">
<path clip-rule="nonzero" d="M 0 0 L 28 0 L 28 28 L 0 28 Z M 0 0 "/>
</clipPath>
<clipPath id="clip-1">
<rect x="0" y="0" width="28" height="28"/>
</clipPath>
<g id="source-8" clip-path="url(#clip-1)">
<path fill-rule="nonzero" fill="rgb(100%, 100%, 100%)" fill-opacity="1" d="M 27.214844 14 C 27.214844 21.285156 21.308594 27.191406 14.023438 27.191406 C 6.738281 27.191406 0.832031 21.285156 0.832031 14 C 0.832031 6.714844 6.738281 0.808594 14.023438 0.808594 C 21.308594 0.808594 27.214844 6.714844 27.214844 14 Z M 27.214844 14 "/>
<g clip-path="url(#clip-0)">
<path fill="none" stroke-width="25.137615" stroke-linecap="butt" stroke-linejoin="miter" stroke="rgb(100%, 100%, 100%)" stroke-opacity="1" stroke-miterlimit="4" d="M 505.72481 305.71429 C 505.72481 465.076505 376.52606 594.275255 217.163845 594.275255 C 57.80163 594.275255 -71.39712 465.076505 -71.39712 305.71429 C -71.39712 146.352075 57.80163 17.153325 217.163845 17.153325 C 376.52606 17.153325 505.72481 146.352075 505.72481 305.71429 Z M 505.72481 305.71429 " transform="matrix(0.0457145, 0, 0, 0.0457145, 4.095911, 0.0244389)"/>
</g>
</g>
</defs>
<path fill-rule="nonzero" fill="rgb(6.666667%, 6.666667%, 6.666667%)" fill-opacity="1" stroke-width="3.408" stroke-linecap="butt" stroke-linejoin="miter" stroke="rgb(93.333333%, 93.333333%, 93.333333%)" stroke-opacity="1" stroke-miterlimit="4" d="M 66.269531 1.780134 C 24.921875 1.780134 1.699219 23.141741 1.699219 66.835938 L 1.699219 516.967076 C 1.699219 557.748326 22.575335 579.190848 63.922991 579.190848 L 515.915179 579.190848 C 557.262835 579.190848 578.138951 558.881138 578.138951 516.967076 L 578.138951 66.835938 C 578.138951 24.193638 557.262835 1.780134 514.620536 1.780134 C 514.620536 1.780134 66.107701 1.618304 66.269531 1.780134 Z M 66.269531 1.780134 " transform="matrix(0.0482759, 0, 0, 0.0482759, 0, 0)"/>
<path fill-rule="nonzero" fill="rgb(100%, 100%, 100%)" fill-opacity="1" d="M 13.957031 3.621094 C 13.980469 3.621094 14.007812 3.621094 14.035156 3.621094 C 14.058594 3.621094 14.085938 3.621094 14.113281 3.621094 Z M 14.035156 3.621094 C 12.21875 3.636719 9.757812 4.144531 8.730469 4.574219 C 7.6875 5.007812 6.992188 5.441406 6.773438 6.527344 L 5.992188 12.546875 L 5.992188 20.835938 L 7.339844 20.835938 L 7.339844 22.136719 C 7.339844 23.722656 9.660156 23.722656 9.660156 22.136719 L 9.660156 20.835938 L 18.40625 20.835938 L 18.40625 22.136719 C 18.40625 23.722656 20.726562 23.722656 20.726562 22.136719 L 20.726562 20.835938 L 22.074219 20.835938 L 22.074219 12.546875 L 21.292969 6.527344 C 21.074219 5.441406 20.382812 5.007812 19.339844 4.574219 C 18.3125 4.144531 15.851562 3.632812 14.035156 3.621094 Z M 10.726562 5.140625 L 17.339844 5.140625 C 17.992188 5.140625 17.992188 6.117188 17.339844 6.117188 L 10.726562 6.117188 C 10.074219 6.117188 10.074219 5.140625 10.726562 5.140625 Z M 8.96875 7.101562 L 19.097656 7.101562 C 19.785156 7.101562 19.964844 7.453125 20.046875 7.980469 L 20.65625 12.34375 C 20.714844 12.765625 20.59375 13.179688 20.015625 13.179688 L 8.050781 13.179688 C 7.476562 13.179688 7.355469 12.765625 7.410156 12.34375 L 8.019531 7.980469 C 8.101562 7.453125 8.28125 7.101562 8.96875 7.101562 Z M 8.5 16.011719 C 9.113281 16.011719 9.613281 16.507812 9.613281 17.125 C 9.613281 17.738281 9.113281 18.238281 8.5 18.238281 C 7.886719 18.238281 7.386719 17.738281 7.386719 17.125 C 7.386719 16.507812 7.886719 16.011719 8.5 16.011719 Z M 19.566406 16.011719 C 20.183594 16.011719 20.679688 16.507812 20.679688 17.125 C 20.679688 17.738281 20.183594 18.238281 19.566406 18.238281 C 18.953125 18.238281 18.453125 17.738281 18.453125 17.125 C 18.453125 16.507812 18.953125 16.011719 19.566406 16.011719 Z M 19.566406 16.011719 "/>
<g mask="url(#mask-0)">
<use xlink:href="#source-8"/>
</g>
<path fill="none" stroke-width="25.137615" stroke-linecap="butt" stroke-linejoin="miter" stroke="rgb(100%, 100%, 100%)" stroke-opacity="1" stroke-miterlimit="4" d="M 505.72481 305.71429 C 505.72481 465.076505 376.52606 594.275255 217.163845 594.275255 C 57.80163 594.275255 -71.39712 465.076505 -71.39712 305.71429 C -71.39712 146.352075 57.80163 17.153325 217.163845 17.153325 C 376.52606 17.153325 505.72481 146.352075 505.72481 305.71429 Z M 505.72481 305.71429 " transform="matrix(0.0457145, 0, 0, 0.0457145, 4.095911, 0.0244389)"/>
</svg>
