<?xml version="1.0" encoding="UTF-8"?>
<svg xmlns="http://www.w3.org/2000/svg" xmlns:xlink="http://www.w3.org/1999/xlink" width="28" height="28" viewBox="0 0 28 28">
<path fill-rule="nonzero" fill="rgb(6.666667%, 6.666667%, 6.666667%)" fill-opacity="1" stroke-width="3.408" stroke-linecap="butt" stroke-linejoin="miter" stroke="rgb(93.333333%, 93.333333%, 93.333333%)" stroke-opacity="1" stroke-miterlimit="4" d="M 66.269531 1.780134 C 24.921875 1.780134 1.699219 23.141741 1.699219 66.835938 L 1.699219 516.967076 C 1.699219 557.748326 22.575335 579.190848 63.922991 579.190848 L 515.915179 579.190848 C 557.262835 579.190848 578.138951 558.881138 578.138951 516.967076 L 578.138951 66.835938 C 578.138951 24.193638 557.262835 1.780134 514.620536 1.780134 C 514.620536 1.780134 66.107701 1.618304 66.269531 1.780134 Z M 66.269531 1.780134 " transform="matrix(0.0482759, 0, 0, 0.0482759, 0, 0)"/>
<path fill-rule="nonzero" fill="rgb(100%, 100%, 100%)" fill-opacity="1" d="M 14.273438 2.558594 C 14.289062 2.558594 14.304688 2.558594 14.320312 2.558594 C 14.335938 2.558594 14.351562 2.558594 14.367188 2.558594 Z M 14.320312 2.558594 C 13.210938 2.566406 11.710938 2.878906 11.082031 3.140625 C 10.449219 3.40625 10.023438 3.671875 9.890625 4.332031 L 9.414062 8.003906 L 9.414062 13.058594 L 10.238281 13.058594 L 10.238281 13.851562 C 10.238281 14.820312 11.652344 14.820312 11.652344 13.851562 L 11.652344 13.058594 L 16.988281 13.058594 L 16.988281 13.851562 C 16.988281 14.820312 18.402344 14.820312 18.402344 13.851562 L 18.402344 13.058594 L 19.222656 13.058594 L 19.222656 8.003906 L 18.746094 4.332031 C 18.617188 3.671875 18.191406 3.40625 17.554688 3.140625 C 16.929688 2.878906 15.425781 2.566406 14.320312 2.558594 Z M 12.300781 3.484375 L 16.335938 3.484375 C 16.734375 3.484375 16.734375 4.082031 16.335938 4.082031 L 12.300781 4.082031 C 11.90625 4.082031 11.90625 3.484375 12.300781 3.484375 Z M 11.425781 4.683594 L 17.117188 4.683594 C 17.539062 4.683594 17.648438 4.894531 17.699219 5.21875 L 18.070312 7.882812 C 18.105469 8.136719 18.03125 8.390625 17.679688 8.390625 L 10.863281 8.390625 C 10.511719 8.390625 10.4375 8.136719 10.472656 7.882812 L 10.84375 5.21875 C 10.894531 4.894531 11.003906 4.683594 11.425781 4.683594 Z M 10.945312 10.019531 C 11.320312 10.019531 11.71875 10.421875 11.71875 10.796875 C 11.71875 11.171875 11.320312 11.570312 10.945312 11.570312 C 10.570312 11.570312 10.167969 11.171875 10.167969 10.796875 C 10.167969 10.421875 10.570312 10.019531 10.945312 10.019531 Z M 17.695312 10.019531 C 18.070312 10.019531 18.46875 10.421875 18.46875 10.796875 C 18.46875 11.171875 18.070312 11.570312 17.695312 11.570312 C 17.320312 11.570312 16.917969 11.171875 16.917969 10.796875 C 16.917969 10.421875 17.320312 10.019531 17.695312 10.019531 Z M 17.695312 10.019531 "/>
<path fill="none" stroke-width="15" stroke-linecap="round" stroke-linejoin="round" stroke="rgb(100%, 100%, 100%)" stroke-opacity="1" stroke-miterlimit="4" d="M 166.685268 15.535714 L 421.891741 15.535714 C 432.977121 15.535714 442.039621 24.517299 442.039621 35.602679 L 442.039621 318.482143 C 442.039621 329.567522 432.977121 338.549107 421.891741 338.549107 L 166.685268 338.549107 C 155.599888 338.549107 146.618304 329.567522 146.618304 318.482143 L 146.618304 35.602679 C 146.618304 24.517299 155.599888 15.535714 166.685268 15.535714 Z M 166.685268 15.535714 " transform="matrix(0.0482759, 0, 0, 0.0482759, 0, 0)"/>
<path fill="none" stroke-width="28.799482" stroke-linecap="butt" stroke-linejoin="miter" stroke="rgb(100%, 100%, 100%)" stroke-opacity="1" stroke-miterlimit="4" d="M 294.612165 339.196429 L 294.612165 563.978795 " transform="matrix(0.0482759, 0, 0, 0.0482759, 0, 0)"/>
<path fill="none" stroke-width="30" stroke-linecap="round" stroke-linejoin="round" stroke="rgb(100%, 100%, 100%)" stroke-opacity="1" stroke-miterlimit="4" d="M 383.618862 551.275112 L 202.530692 551.275112 " transform="matrix(0.0482759, 0, 0, 0.0482759, 0, 0)"/>
</svg>
