<?xml version="1.0" encoding="UTF-8"?>
<svg xmlns="http://www.w3.org/2000/svg" xmlns:xlink="http://www.w3.org/1999/xlink" width="28" height="28" viewBox="0 0 28 28">
<path fill-rule="nonzero" fill="rgb(6.666667%, 6.666667%, 6.666667%)" fill-opacity="1" stroke-width="3.408" stroke-linecap="butt" stroke-linejoin="miter" stroke="rgb(93.333333%, 93.333333%, 93.333333%)" stroke-opacity="1" stroke-miterlimit="4" d="M 66.269531 1.780134 C 24.921875 1.780134 1.699219 23.141741 1.699219 66.835938 L 1.699219 516.967076 C 1.699219 557.748326 22.575335 579.190848 63.922991 579.190848 L 515.915179 579.190848 C 557.262835 579.190848 578.138951 558.800223 578.138951 516.967076 L 578.138951 66.835938 C 578.138951 24.193638 557.262835 1.780134 514.620536 1.780134 C 514.620536 1.780134 66.107701 1.618304 66.269531 1.780134 Z M 66.269531 1.780134 " transform="matrix(0.0482759, 0, 0, 0.0482759, 0, 0)"/>
<path fill-rule="nonzero" fill="rgb(100%, 100%, 100%)" fill-opacity="1" d="M 10.308594 13.613281 C 9.285156 13.613281 8.738281 14.171875 8.488281 14.828125 L 7.152344 18.273438 C 6.625 18.339844 5.6875 18.960938 5.6875 20.140625 L 5.6875 24.519531 L 6.984375 24.519531 L 6.984375 25.921875 C 6.984375 27.644531 9.425781 27.625 9.425781 25.921875 L 9.425781 24.519531 L 18.203125 24.519531 L 18.203125 25.921875 C 18.203125 27.625 20.644531 27.644531 20.644531 25.921875 L 20.644531 24.519531 L 21.941406 24.519531 L 21.941406 20.140625 C 21.941406 18.960938 21.003906 18.339844 20.476562 18.273438 L 19.140625 14.828125 C 18.890625 14.171875 18.34375 13.613281 17.316406 13.613281 Z M 10.292969 14.867188 L 17.332031 14.867188 C 17.773438 14.871094 17.960938 15.144531 18.085938 15.527344 L 19.09375 18.238281 L 8.535156 18.238281 L 9.539062 15.527344 C 9.667969 15.144531 9.855469 14.871094 10.292969 14.867188 Z M 8.246094 19.558594 C 8.867188 19.558594 9.371094 20.078125 9.371094 20.71875 C 9.371094 21.359375 8.867188 21.878906 8.246094 21.878906 C 7.621094 21.878906 7.117188 21.359375 7.117188 20.71875 C 7.117188 20.078125 7.621094 19.558594 8.246094 19.558594 Z M 19.386719 19.558594 C 20.007812 19.558594 20.511719 20.078125 20.511719 20.71875 C 20.511719 21.359375 20.007812 21.878906 19.386719 21.878906 C 18.761719 21.878906 18.257812 21.359375 18.257812 20.71875 C 18.257812 20.078125 18.761719 19.558594 19.386719 19.558594 Z M 19.386719 19.558594 "/>
<path fill-rule="nonzero" fill="rgb(100%, 100%, 100%)" fill-opacity="1" stroke-width="1.553479" stroke-linecap="round" stroke-linejoin="round" stroke="rgb(100%, 100%, 100%)" stroke-opacity="1" stroke-miterlimit="4" d="M 169.84096 21.037946 C 159.079241 21.037946 149.773996 24.921875 141.925223 32.608817 C 133.995536 40.376674 130.030692 49.762835 130.030692 60.848214 C 130.030692 71.933594 133.995536 81.319754 141.925223 89.087612 C 149.773996 96.774554 159.079241 100.658482 169.84096 100.658482 C 170.164621 100.658482 170.569196 100.577567 170.973772 100.577567 C 171.378348 100.577567 171.782924 100.658482 172.1875 100.658482 C 182.868304 100.658482 192.173549 96.774554 200.103237 89.087612 C 208.032924 81.319754 211.997768 71.933594 211.997768 60.848214 C 211.997768 49.762835 208.032924 40.376674 200.103237 32.608817 C 192.173549 24.921875 182.868304 21.037946 172.1875 21.037946 C 171.782924 21.037946 171.378348 21.037946 170.973772 21.037946 C 170.569196 21.037946 170.164621 21.037946 169.84096 21.037946 Z M 139.497768 109.559152 C 137.070312 109.559152 134.885603 109.801897 132.943638 110.368304 C 131.648996 110.206473 130.354353 110.125558 129.05971 110.206473 C 110.368304 110.611049 95.560826 126.146763 95.965402 144.919085 L 96.693638 223.973214 C 96.450893 239.104353 106.160714 252.536272 120.563616 256.986607 L 120.563616 269.933036 L 170.973772 268.476562 L 221.464844 269.933036 L 221.464844 255.530134 C 234.006696 249.866071 241.855469 237.162388 241.369978 223.406808 L 240.641741 144.271763 C 240.722656 126.308594 226.72433 111.339286 208.761161 110.287388 C 206.900112 109.801897 204.796317 109.559152 202.530692 109.559152 Z M 139.497768 109.559152 " transform="matrix(0.0482759, 0, 0, 0.0482759, 0, 0)"/>
<path fill-rule="nonzero" fill="rgb(100%, 100%, 100%)" fill-opacity="1" stroke-width="1.553479" stroke-linecap="round" stroke-linejoin="round" stroke="rgb(100%, 100%, 100%)" stroke-opacity="1" stroke-miterlimit="4" d="M 397.779018 21.037946 C 387.098214 21.037946 377.792969 24.921875 369.863281 32.608817 C 361.933594 40.376674 357.96875 49.762835 357.96875 60.848214 C 357.96875 71.933594 361.933594 81.319754 369.863281 89.087612 C 377.792969 96.774554 387.098214 100.658482 397.779018 100.658482 C 398.183594 100.658482 398.58817 100.577567 398.992746 100.577567 C 399.397321 100.577567 399.801897 100.658482 400.206473 100.658482 C 410.887277 100.658482 420.192522 96.774554 428.12221 89.087612 C 436.051897 81.319754 439.935826 71.933594 439.935826 60.848214 C 439.935826 49.762835 436.051897 40.376674 428.12221 32.608817 C 420.192522 24.921875 410.887277 21.037946 400.206473 21.037946 C 399.801897 21.037946 399.397321 21.037946 398.992746 21.037946 C 398.58817 21.037946 398.183594 21.037946 397.779018 21.037946 Z M 367.516741 109.559152 C 365.089286 109.559152 362.904576 109.801897 360.962612 110.368304 C 359.667969 110.206473 358.373326 110.125558 357.078683 110.206473 C 338.387277 110.611049 323.579799 126.146763 323.984375 144.919085 L 324.712612 223.973214 C 324.388951 239.104353 334.098772 252.536272 348.501674 256.986607 L 348.501674 269.933036 L 398.992746 268.476562 L 449.483817 269.933036 L 449.483817 255.530134 C 462.02567 249.866071 469.874442 237.162388 469.388951 223.406808 L 468.660714 144.271763 C 468.741629 126.308594 454.743304 111.339286 436.780134 110.287388 C 434.83817 109.801897 432.81529 109.559152 430.46875 109.559152 Z M 367.516741 109.559152 " transform="matrix(0.0482759, 0, 0, 0.0482759, 0, 0)"/>
</svg>
