<?xml version="1.0" encoding="UTF-8"?>
<svg xmlns="http://www.w3.org/2000/svg" xmlns:xlink="http://www.w3.org/1999/xlink" width="28" height="28" viewBox="0 0 28 28">
<path fill-rule="nonzero" fill="rgb(6.666667%, 6.666667%, 6.666667%)" fill-opacity="1" stroke-width="3.408" stroke-linecap="butt" stroke-linejoin="miter" stroke="rgb(93.333333%, 93.333333%, 93.333333%)" stroke-opacity="1" stroke-miterlimit="4" d="M 66.269531 1.780134 C 24.921875 1.780134 1.699219 23.141741 1.699219 66.835938 L 1.699219 516.967076 C 1.699219 557.748326 22.575335 579.190848 63.922991 579.190848 L 515.915179 579.190848 C 557.262835 579.190848 578.138951 558.881138 578.138951 516.967076 L 578.138951 66.835938 C 578.138951 24.193638 557.262835 1.780134 514.620536 1.780134 C 514.620536 1.780134 66.107701 1.618304 66.269531 1.780134 Z M 66.269531 1.780134 " transform="matrix(0.0482759, 0, 0, 0.0482759, 0, 0)"/>
<path fill-rule="nonzero" fill="rgb(100%, 100%, 100%)" fill-opacity="1" d="M 14.300781 2.199219 C 13.183594 2.320312 9.117188 4.179688 9 13.757812 C 8.871094 23.855469 13.183594 25.976562 14.3125 25.957031 L 14.3125 19.292969 C 13.382812 19.292969 13.195312 18.28125 12.980469 16.1875 C 12.84375 14.804688 12.800781 13.09375 12.980469 11.390625 C 13.113281 10.195312 13.332031 9.027344 14.308594 9.027344 Z M 14.300781 2.199219 "/>
<path fill-rule="nonzero" fill="rgb(100%, 100%, 100%)" fill-opacity="1" d="M 17.386719 25.96875 C 17.816406 25.96875 18.125 25.617188 18.125 25.222656 L 18.132812 25.21875 C 18.132812 25.21875 18.125 20.023438 18.125 20.019531 C 18.125 19.609375 17.792969 19.285156 17.386719 19.285156 L 15.496094 19.285156 L 15.496094 25.964844 C 15.496094 25.964844 17.378906 25.972656 17.378906 25.964844 L 17.386719 25.964844 Z M 17.386719 25.96875 "/>
<path fill-rule="nonzero" fill="rgb(100%, 100%, 100%)" fill-opacity="1" d="M 17.386719 9.027344 C 17.816406 9.027344 18.125 8.679688 18.125 8.28125 L 18.132812 8.28125 C 18.132812 8.28125 18.125 2.9375 18.125 2.933594 C 18.125 2.523438 17.792969 2.199219 17.386719 2.199219 L 15.496094 2.199219 L 15.496094 9.027344 L 17.378906 9.035156 Z M 17.386719 9.027344 "/>
</svg>
