<?xml version="1.0" encoding="UTF-8"?>
<svg xmlns="http://www.w3.org/2000/svg" xmlns:xlink="http://www.w3.org/1999/xlink" width="28" height="28" viewBox="0 0 28 28">
<path fill-rule="nonzero" fill="rgb(6.666667%, 6.666667%, 6.666667%)" fill-opacity="1" stroke-width="3.408" stroke-linecap="butt" stroke-linejoin="miter" stroke="rgb(93.333333%, 93.333333%, 93.333333%)" stroke-opacity="1" stroke-miterlimit="4" d="M 66.269531 1.780134 C 24.921875 1.780134 1.699219 23.141741 1.699219 66.835938 L 1.699219 516.967076 C 1.699219 557.748326 22.575335 579.190848 63.922991 579.190848 L 515.915179 579.190848 C 557.262835 579.190848 578.138951 558.800223 578.138951 516.967076 L 578.138951 66.835938 C 578.138951 24.193638 557.262835 1.780134 514.620536 1.780134 C 514.620536 1.780134 66.107701 1.618304 66.269531 1.780134 Z M 66.269531 1.780134 " transform="matrix(0.0482759, 0, 0, 0.0482759, 0, 0)"/>
<path fill-rule="nonzero" fill="rgb(100%, 100%, 100%)" fill-opacity="1" d="M 9.539062 2.40625 C 8.25 2.40625 7.570312 3.105469 7.253906 3.929688 L 5.582031 8.25 C 4.917969 8.335938 3.742188 9.113281 3.742188 10.589844 L 3.742188 16.082031 L 5.371094 16.082031 L 5.371094 17.839844 C 5.371094 20 8.429688 19.976562 8.429688 17.839844 L 8.429688 16.082031 L 19.4375 16.082031 L 19.4375 17.839844 C 19.4375 19.976562 22.496094 20 22.496094 17.839844 L 22.496094 16.082031 L 24.125 16.082031 L 24.125 10.589844 C 24.125 9.113281 22.949219 8.335938 22.285156 8.25 L 20.609375 3.929688 C 20.296875 3.105469 19.613281 2.40625 18.328125 2.40625 Z M 9.519531 3.976562 L 18.347656 3.976562 C 18.898438 3.984375 19.132812 4.328125 19.292969 4.804688 L 20.550781 8.207031 L 7.3125 8.207031 L 8.574219 4.804688 C 8.730469 4.328125 8.96875 3.984375 9.519531 3.976562 Z M 6.949219 9.859375 C 7.730469 9.859375 8.363281 10.511719 8.363281 11.316406 C 8.363281 12.121094 7.730469 12.773438 6.949219 12.773438 C 6.167969 12.773438 5.535156 12.121094 5.535156 11.316406 C 5.535156 10.511719 6.167969 9.859375 6.949219 9.859375 Z M 20.917969 9.859375 C 21.699219 9.859375 22.332031 10.511719 22.332031 11.316406 C 22.332031 12.121094 21.699219 12.773438 20.917969 12.773438 C 20.136719 12.773438 19.503906 12.121094 19.503906 11.316406 C 19.503906 10.511719 20.136719 9.859375 20.917969 9.859375 Z M 20.917969 9.859375 "/>
<path fill-rule="nonzero" fill="rgb(100%, 100%, 100%)" fill-opacity="1" stroke-width="3.71663" stroke-linecap="round" stroke-linejoin="round" stroke="rgb(100%, 100%, 100%)" stroke-opacity="1" stroke-miterlimit="4" d="M 295.058334 508.920397 C 282.365021 509.299737 267.716647 513.735102 249.829288 524.327453 L 257.007576 536.407985 C 275.828695 525.261213 288.988888 522.372391 299.522879 523.014351 C 310.08605 523.656312 318.664978 527.945776 328.294388 533.139821 C 337.894618 538.333867 348.457788 544.461673 362.114042 546.562635 C 375.770296 548.692777 392.111113 546.504275 412.566314 536.699785 L 406.467687 524.035652 C 387.850828 532.964741 374.953255 534.336203 364.273365 532.702121 C 353.622654 531.038859 344.781105 526.107434 334.976615 520.796669 C 325.142945 515.485904 314.258794 509.824978 300.3691 508.978757 C 298.647478 508.862037 296.867496 508.862037 295.058334 508.920397 Z M 295.058334 508.920397 " transform="matrix(0.133867, 0, 0, 0.133867, -30.350207, -47.315268)"/>
</svg>
