<?xml version="1.0" encoding="UTF-8"?>
<svg xmlns="http://www.w3.org/2000/svg" xmlns:xlink="http://www.w3.org/1999/xlink" width="28" height="28" viewBox="0 0 28 28">
<path fill-rule="nonzero" fill="rgb(6.666667%, 6.666667%, 6.666667%)" fill-opacity="1" stroke-width="3.408" stroke-linecap="butt" stroke-linejoin="miter" stroke="rgb(93.333333%, 93.333333%, 93.333333%)" stroke-opacity="1" stroke-miterlimit="4" d="M 66.269531 1.780134 C 24.921875 1.780134 1.699219 23.141741 1.699219 66.835938 L 1.699219 516.967076 C 1.699219 557.748326 22.575335 579.190848 63.922991 579.190848 L 515.915179 579.190848 C 557.262835 579.190848 578.138951 558.800223 578.138951 516.967076 L 578.138951 66.835938 C 578.138951 24.193638 557.262835 1.780134 514.620536 1.780134 C 514.620536 1.780134 66.107701 1.618304 66.269531 1.780134 Z M 66.269531 1.780134 " transform="matrix(0.0482759, 0, 0, 0.0482759, 0, 0)"/>
<path fill-rule="evenodd" fill="rgb(100%, 100%, 100%)" fill-opacity="1" d="M 11.054688 1.53125 C 10.644531 1.53125 10.238281 1.828125 10.238281 2.300781 L 10.226562 17.519531 L 11.070312 17.519531 L 11.078125 18.726562 L 18.804688 18.71875 L 18.8125 17.519531 L 19.535156 17.527344 L 19.535156 2.144531 C 19.535156 1.816406 19.347656 1.53125 18.988281 1.53125 Z M 12.347656 3.214844 L 17.414062 3.214844 C 17.691406 3.214844 17.914062 3.328125 17.914062 3.714844 L 17.914062 7.714844 C 17.914062 7.988281 17.769531 8.183594 17.460938 8.183594 L 12.363281 8.171875 C 12.066406 8.171875 11.8125 7.953125 11.8125 7.636719 L 11.839844 3.703125 C 11.839844 3.386719 12.058594 3.214844 12.347656 3.214844 Z M 12.347656 3.214844 "/>
<path fill-rule="evenodd" fill="rgb(100%, 100%, 100%)" fill-opacity="1" d="M 10.273438 6.765625 L 9.5 6.757812 C 9.496094 9.90625 9.519531 16.117188 9.53125 16.222656 C 9.558594 16.449219 9.542969 16.6875 9.484375 16.898438 C 8.273438 19.953125 4.347656 18.550781 4.90625 15.578125 C 6.128906 12.632812 7.84375 10.636719 8.699219 7.160156 L 8.773438 9.742188 C 8.007812 11.238281 6.652344 13.867188 5.601562 16.0625 C 5.511719 18.085938 7.921875 18.753906 8.675781 16.578125 C 9.015625 12.773438 8.664062 8.621094 8.660156 4.640625 C 9.148438 3.183594 9.691406 3.042969 10.238281 3.113281 "/>
<path fill-rule="nonzero" fill="rgb(100%, 100%, 100%)" fill-opacity="1" d="M 7.328125 20.867188 L 8.863281 20.867188 L 8.863281 24.617188 L 11.265625 24.617188 L 11.265625 25.84375 L 7.328125 25.84375 Z M 11.964844 20.867188 L 14.519531 20.867188 C 15.074219 20.867188 15.492188 21 15.769531 21.265625 C 16.046875 21.527344 16.1875 21.90625 16.1875 22.394531 C 16.1875 22.898438 16.035156 23.289062 15.734375 23.574219 C 15.429688 23.855469 14.96875 23.996094 14.351562 23.996094 L 13.507812 23.996094 L 13.507812 25.84375 L 11.964844 25.84375 Z M 13.507812 22.988281 L 13.882812 22.988281 C 14.179688 22.988281 14.390625 22.9375 14.507812 22.835938 C 14.628906 22.730469 14.6875 22.601562 14.6875 22.4375 C 14.6875 22.28125 14.636719 22.152344 14.53125 22.042969 C 14.429688 21.933594 14.234375 21.878906 13.945312 21.878906 L 13.507812 21.878906 Z M 19.496094 24.042969 L 19.496094 23.003906 L 21.871094 23.003906 L 21.871094 25.128906 C 21.417969 25.4375 21.015625 25.648438 20.664062 25.761719 C 20.316406 25.871094 19.902344 25.929688 19.421875 25.929688 C 18.832031 25.929688 18.347656 25.828125 17.976562 25.625 C 17.605469 25.425781 17.316406 25.125 17.109375 24.726562 C 16.90625 24.328125 16.804688 23.871094 16.804688 23.355469 C 16.804688 22.8125 16.914062 22.339844 17.140625 21.9375 C 17.363281 21.535156 17.691406 21.230469 18.125 21.023438 C 18.460938 20.863281 18.914062 20.78125 19.484375 20.78125 C 20.035156 20.78125 20.445312 20.832031 20.71875 20.933594 C 20.992188 21.03125 21.21875 21.1875 21.398438 21.394531 C 21.578125 21.605469 21.714844 21.871094 21.804688 22.191406 L 20.320312 22.457031 C 20.257812 22.269531 20.15625 22.125 20.011719 22.023438 C 19.863281 21.925781 19.679688 21.875 19.453125 21.875 C 19.113281 21.875 18.84375 21.992188 18.644531 22.226562 C 18.445312 22.460938 18.34375 22.832031 18.34375 23.339844 C 18.34375 23.878906 18.445312 24.261719 18.648438 24.492188 C 18.851562 24.722656 19.132812 24.839844 19.496094 24.839844 C 19.667969 24.839844 19.832031 24.8125 19.988281 24.765625 C 20.144531 24.714844 20.324219 24.628906 20.523438 24.507812 L 20.523438 24.042969 Z M 19.496094 24.042969 "/>
</svg>
