<?xml version="1.0" encoding="UTF-8"?>
<svg xmlns="http://www.w3.org/2000/svg" xmlns:xlink="http://www.w3.org/1999/xlink" width="28" height="28" viewBox="0 0 28 28">
<path fill-rule="nonzero" fill="rgb(6.666667%, 6.666667%, 6.666667%)" fill-opacity="1" stroke-width="3.408" stroke-linecap="butt" stroke-linejoin="miter" stroke="rgb(93.333333%, 93.333333%, 93.333333%)" stroke-opacity="1" stroke-miterlimit="4" d="M 66.269531 1.780134 C 24.921875 1.780134 1.699219 23.141741 1.699219 66.835938 L 1.699219 516.967076 C 1.699219 557.748326 22.575335 579.190848 63.922991 579.190848 L 515.915179 579.190848 C 557.262835 579.190848 578.138951 558.800223 578.138951 516.967076 L 578.138951 66.835938 C 578.138951 24.193638 557.262835 1.780134 514.620536 1.780134 C 514.620536 1.780134 66.107701 1.618304 66.269531 1.780134 Z M 66.269531 1.780134 " transform="matrix(0.0482759, 0, 0, 0.0482759, 0, 0)"/>
<path fill-rule="evenodd" fill="rgb(100%, 100%, 100%)" fill-opacity="1" d="M 12.019531 5.394531 C 11.609375 5.394531 11.203125 5.691406 11.203125 6.164062 L 11.195312 21.382812 L 12.035156 21.382812 L 12.042969 22.585938 L 19.773438 22.582031 L 19.777344 21.382812 L 20.503906 21.390625 L 20.503906 6.007812 C 20.503906 5.679688 20.3125 5.394531 19.953125 5.394531 Z M 13.3125 7.078125 L 18.378906 7.078125 C 18.660156 7.078125 18.878906 7.191406 18.878906 7.578125 L 18.878906 11.578125 C 18.878906 11.851562 18.734375 12.046875 18.425781 12.046875 L 13.328125 12.03125 C 13.03125 12.03125 12.78125 11.816406 12.78125 11.5 L 12.804688 7.5625 C 12.804688 7.25 13.023438 7.078125 13.3125 7.078125 Z M 13.3125 7.078125 "/>
<path fill-rule="evenodd" fill="rgb(100%, 100%, 100%)" fill-opacity="1" d="M 11.238281 10.625 L 10.464844 10.621094 C 10.460938 13.769531 10.484375 19.980469 10.496094 20.085938 C 10.527344 20.3125 10.507812 20.546875 10.449219 20.761719 C 9.238281 23.816406 5.316406 22.414062 5.871094 19.441406 C 7.09375 16.492188 8.8125 14.5 9.664062 11.019531 L 9.742188 13.605469 C 8.972656 15.101562 7.617188 17.726562 6.566406 19.921875 C 6.476562 21.949219 8.886719 22.617188 9.644531 20.441406 C 9.980469 16.632812 9.628906 12.484375 9.625 8.503906 C 10.113281 7.042969 10.65625 6.90625 11.207031 6.972656 "/>
</svg>
