<?xml version="1.0" encoding="UTF-8"?>
<svg xmlns="http://www.w3.org/2000/svg" xmlns:xlink="http://www.w3.org/1999/xlink" width="28" height="28" viewBox="0 0 28 28">
<path fill-rule="nonzero" fill="rgb(6.666667%, 6.666667%, 6.666667%)" fill-opacity="1" stroke-width="3.408" stroke-linecap="butt" stroke-linejoin="miter" stroke="rgb(93.333333%, 93.333333%, 93.333333%)" stroke-opacity="1" stroke-miterlimit="4" d="M 66.269531 1.780134 C 24.921875 1.780134 1.699219 23.141741 1.699219 66.835938 L 1.699219 516.967076 C 1.699219 557.748326 22.575335 579.190848 63.922991 579.190848 L 515.915179 579.190848 C 557.262835 579.190848 578.138951 558.881138 578.138951 516.967076 L 578.138951 66.835938 C 578.138951 24.193638 557.262835 1.780134 514.620536 1.780134 C 514.620536 1.780134 66.107701 1.618304 66.269531 1.780134 Z M 66.269531 1.780134 " transform="matrix(0.0482759, 0, 0, 0.0482759, 0, 0)"/>
<path fill="none" stroke-width="18.700001" stroke-linecap="round" stroke-linejoin="round" stroke="rgb(100%, 100%, 100%)" stroke-opacity="1" stroke-miterlimit="4" d="M 265.127519 398.2207 L 398.392839 398.2207 " transform="matrix(0.0716967, 0, 0, 0.0716967, -6.555651, -8.637059)"/>
<path fill-rule="nonzero" fill="rgb(100%, 100%, 100%)" fill-opacity="1" stroke-width="8.5" stroke-linecap="round" stroke-linejoin="round" stroke="rgb(100%, 100%, 100%)" stroke-opacity="1" stroke-miterlimit="4" d="M 325.385673 283.752001 C 298.307642 284.569245 272.046855 293.177553 244.859858 293.613417 C 209.936281 295.901701 167.875436 297.481707 132.951858 295.956184 C 134.913245 297.263775 144.502246 296.337565 144.39328 306.471395 C 147.226394 311.701759 138.236705 319.329374 141.99603 320.854897 C 186.454125 323.633528 246.821245 347.442581 294.548318 367.49231 C 318.847718 375.882686 345.489885 374.30268 370.769979 372.123362 C 384.009338 369.889561 400.681124 368.854384 407.927357 355.615025 C 411.141852 346.516371 407.927357 336.328057 404.603897 327.71975 C 392.89006 300.696201 363.414779 286.040285 335.138123 284.024416 C 331.869145 283.752001 328.65465 283.643035 325.385673 283.752001 Z M 351.374045 295.738252 C 363.469262 296.773428 375.673445 302.766554 383.464508 311.919691 C 392.072816 319.983169 396.649385 331.96942 397.466629 343.846706 C 381.830019 344.391535 368.645143 343.73774 353.771295 343.73774 C 346.034715 327.71975 337.317441 312.573487 329.635344 296.446531 C 336.881577 295.901701 342.602288 295.247905 351.374045 295.738252 Z M 316.777365 297.427224 C 323.969116 304.455526 333.885015 336.491506 337.698822 345.20878 C 324.840843 345.099814 304.791114 345.59016 291.933135 345.426712 C 291.82417 337.472199 291.333823 305.654151 291.224857 297.699639 C 299.288335 297.53619 308.659404 297.53619 316.777365 297.427224 Z M 316.777365 297.427224 " transform="matrix(0.0716967, 0, 0, 0.0716967, -6.555651, -8.637059)"/>
<path fill-rule="nonzero" fill="rgb(100%, 100%, 100%)" fill-opacity="1" stroke-width="3.7" stroke-linecap="butt" stroke-linejoin="miter" stroke="rgb(100%, 100%, 100%)" stroke-opacity="1" stroke-miterlimit="4" d="M 311.71045 272.310579 C 299.397301 270.076778 284.686902 281.027853 272.809616 286.149251 L 309.204234 288.655467 L 350.992664 283.643035 C 342.438839 279.175432 324.949809 270.621608 311.71045 272.310579 Z M 311.71045 272.310579 " transform="matrix(0.0716967, 0, 0, 0.0716967, -6.555651, -8.637059)"/>
<path fill-rule="nonzero" fill="rgb(100%, 100%, 100%)" fill-opacity="1" stroke-width="10.4" stroke-linecap="butt" stroke-linejoin="miter" stroke="rgb(100%, 100%, 100%)" stroke-opacity="1" stroke-miterlimit="4" d="M 311.71045 245.341514 L 311.111137 276.069904 " transform="matrix(0.0716967, 0, 0, 0.0716967, -6.555651, -8.637059)"/>
<path fill-rule="nonzero" fill="rgb(100%, 100%, 100%)" fill-opacity="1" stroke-width="5.1" stroke-linecap="round" stroke-linejoin="round" stroke="rgb(100%, 100%, 100%)" stroke-opacity="1" stroke-miterlimit="4" d="M 156.107116 228.996626 L 310.457342 243.43461 L 469.874483 229.595939 L 462.355834 238.422178 L 311.71045 246.594622 L 163.625765 239.675286 Z M 156.107116 228.996626 " transform="matrix(0.0716967, 0, 0, 0.0716967, -6.555651, -8.637059)"/>
<path fill-rule="nonzero" fill="rgb(100%, 100%, 100%)" fill-opacity="1" stroke-width="10.1" stroke-linecap="round" stroke-linejoin="round" stroke="rgb(100%, 100%, 100%)" stroke-opacity="1" stroke-miterlimit="4" d="M 124.343551 293.776866 C 120.747675 284.29683 117.315249 274.70783 113.828339 265.227794 L 107.235901 265.609175 C 111.866953 275.307142 116.280072 285.440973 120.965607 295.13894 " transform="matrix(0.0716967, 0, 0, 0.0716967, -6.555651, -8.637059)"/>
<path fill-rule="nonzero" fill="rgb(100%, 100%, 100%)" fill-opacity="1" stroke-width="10.1" stroke-linecap="round" stroke-linejoin="round" stroke="rgb(100%, 100%, 100%)" stroke-opacity="1" stroke-miterlimit="4" d="M 132.407029 323.796976 L 142.595342 352.94536 C 144.284314 352.40053 149.133297 353.926053 149.514678 351.910184 C 144.120865 342.484632 140.143609 332.187352 135.730489 322.162488 " transform="matrix(0.0716967, 0, 0, 0.0716967, -6.555651, -8.637059)"/>
<path fill-rule="nonzero" fill="rgb(100%, 100%, 100%)" fill-opacity="1" d="M 2.519531 12.25 C 1.613281 12.25 1 13.355469 1.460938 14.128906 C 1.867188 14.960938 3.164062 15.015625 3.644531 14.230469 C 4.222656 13.382812 3.558594 12.179688 2.519531 12.25 Z M 2.554688 12.820312 C 3.152344 12.765625 3.53125 13.578125 3.097656 13.996094 C 2.714844 14.457031 1.878906 14.148438 1.882812 13.550781 C 1.863281 13.171875 2.175781 12.832031 2.554688 12.820312 Z M 2.554688 12.820312 "/>
</svg>
