<?xml version="1.0" encoding="UTF-8"?>
<svg xmlns="http://www.w3.org/2000/svg" xmlns:xlink="http://www.w3.org/1999/xlink" width="28" height="28" viewBox="0 0 28 28">
<path fill-rule="nonzero" fill="rgb(6.666667%, 6.666667%, 6.666667%)" fill-opacity="1" stroke-width="3.408" stroke-linecap="butt" stroke-linejoin="miter" stroke="rgb(93.333333%, 93.333333%, 93.333333%)" stroke-opacity="1" stroke-miterlimit="4" d="M 66.269531 1.780134 C 24.921875 1.780134 1.699219 23.141741 1.699219 66.835938 L 1.699219 516.967076 C 1.699219 557.748326 22.575335 579.190848 63.922991 579.190848 L 515.915179 579.190848 C 557.262835 579.190848 578.138951 558.881138 578.138951 516.967076 L 578.138951 66.835938 C 578.138951 24.193638 557.262835 1.780134 514.620536 1.780134 C 514.620536 1.780134 66.107701 1.618304 66.269531 1.780134 Z M 66.269531 1.780134 " transform="matrix(0.0482759, 0, 0, 0.0482759, 0, 0)"/>
<path fill-rule="nonzero" fill="rgb(100%, 100%, 100%)" fill-opacity="1" stroke-width="1.582826" stroke-linecap="round" stroke-linejoin="round" stroke="rgb(100%, 100%, 100%)" stroke-opacity="1" stroke-miterlimit="4" d="M -35.136269 -75.478488 L -31.191748 -75.478488 L -31.191748 -63.527177 L -16.856063 -63.527177 L -16.856063 -75.478488 L -12.911542 -75.478488 L -12.911542 -46.314053 L -16.856063 -46.314053 L -16.856063 -60.200827 L -31.191748 -60.200827 L -31.191748 -46.314053 L -35.136269 -46.314053 L -35.136269 -75.478488 " transform="matrix(0.5308, 0, 0, 0.5308, 26.900316, 46.048322)"/>
<path fill="none" stroke-width="25.137615" stroke-linecap="butt" stroke-linejoin="miter" stroke="rgb(100%, 100%, 100%)" stroke-opacity="1" stroke-miterlimit="4" d="M 505.760519 305.750958 C 505.760519 465.06513 376.507414 594.318236 217.098411 594.318236 C 57.784238 594.318236 -71.468867 465.06513 -71.468867 305.750958 C -71.468867 146.341955 57.784238 17.088849 217.098411 17.088849 C 376.507414 17.088849 505.760519 146.341955 505.760519 305.750958 Z M 505.760519 305.750958 " transform="matrix(0.0411922, 0, 0, 0.0411922, 5.084584, 1.264823)"/>
</svg>
