<?xml version="1.0" encoding="UTF-8"?>
<svg xmlns="http://www.w3.org/2000/svg" xmlns:xlink="http://www.w3.org/1999/xlink" width="28" height="28" viewBox="0 0 28 28">
<defs>
<filter id="filter-remove-color" x="0%" y="0%" width="100%" height="100%">
<feColorMatrix color-interpolation-filters="sRGB" values="0 0 0 0 1 0 0 0 0 1 0 0 0 0 1 0 0 0 1 0" />
</filter>
<mask id="mask-0">
<g filter="url(#filter-remove-color)">
<rect x="-2.8" y="-2.8" width="33.6" height="33.6" fill="rgb(0%, 0%, 0%)" fill-opacity="0.5"/>
</g>
</mask>
<clipPath id="clip-0">
<rect x="0" y="0" width="28" height="28"/>
</clipPath>
<g id="source-8" clip-path="url(#clip-0)">
<path fill-rule="nonzero" fill="rgb(100%, 100%, 100%)" fill-opacity="1" stroke-width="10" stroke-linecap="butt" stroke-linejoin="round" stroke="rgb(100%, 100%, 100%)" stroke-opacity="1" stroke-miterlimit="4" d="M 239.185268 105.756138 L 35.926339 79.863281 L 36.492746 165.633371 L 239.185268 140.387835 Z M 345.912388 139.821429 L 548.523996 165.633371 L 548.523996 79.863281 L 345.912388 105.756138 Z M 345.912388 139.821429 " transform="matrix(0.0482759, 0, 0, 0.0482759, 0, 0)"/>
</g>
</defs>
<path fill-rule="nonzero" fill="rgb(6.666667%, 6.666667%, 6.666667%)" fill-opacity="1" stroke-width="3.408" stroke-linecap="butt" stroke-linejoin="miter" stroke="rgb(93.333333%, 93.333333%, 93.333333%)" stroke-opacity="1" stroke-miterlimit="4" d="M 66.269531 1.780134 C 24.921875 1.780134 1.699219 23.141741 1.699219 66.835938 L 1.699219 516.967076 C 1.699219 557.748326 22.575335 579.190848 63.922991 579.190848 L 515.915179 579.190848 C 557.262835 579.190848 578.138951 558.881138 578.138951 516.967076 L 578.138951 66.835938 C 578.138951 24.193638 557.262835 1.780134 514.620536 1.780134 C 514.620536 1.780134 66.107701 1.618304 66.269531 1.780134 Z M 66.269531 1.780134 " transform="matrix(0.0482759, 0, 0, 0.0482759, 0, 0)"/>
<path fill-rule="nonzero" fill="rgb(100%, 100%, 100%)" fill-opacity="1" stroke-width="10" stroke-linecap="butt" stroke-linejoin="round" stroke="rgb(100%, 100%, 100%)" stroke-opacity="1" stroke-miterlimit="4" d="M 361.690848 80.753348 C 364.037388 80.753348 365.251116 79.701451 365.251116 77.759487 C 365.251116 76.626674 364.68471 75.655692 363.470982 74.84654 L 291.213728 34.874442 L 219.603795 74.84654 C 218.390067 75.655692 217.823661 76.626674 217.823661 77.759487 C 217.823661 79.701451 218.794643 80.753348 220.736607 80.753348 Z M 365.251116 180.602679 C 369.539621 180.602679 371.72433 178.417969 371.72433 174.129464 C 371.72433 169.84096 369.539621 167.65625 365.251116 167.65625 L 217.823661 167.65625 C 213.454241 167.65625 211.350446 169.84096 211.350446 174.129464 C 211.350446 178.417969 213.454241 180.602679 217.823661 180.602679 L 230.122768 180.602679 L 181.978237 543.669085 L 400.530134 543.669085 L 352.952009 180.602679 Z M 365.251116 180.602679 " transform="matrix(0.0482759, 0, 0, 0.0482759, 0, 0)"/>
<g mask="url(#mask-0)">
<use xlink:href="#source-8"/>
</g>
<path fill-rule="nonzero" fill="rgb(100%, 100%, 100%)" fill-opacity="1" stroke-width="10" stroke-linecap="round" stroke-linejoin="round" stroke="rgb(100%, 100%, 100%)" stroke-opacity="1" stroke-miterlimit="4" d="M 323.32883 125.395905 C 323.32883 145.75264 306.783173 162.298296 286.426439 162.298296 C 266.069704 162.298296 249.524047 145.75264 249.524047 125.395905 C 249.524047 105.03917 266.069704 88.493514 286.426439 88.493514 C 306.783173 88.493514 323.32883 105.03917 323.32883 125.395905 Z M 323.32883 125.395905 " transform="matrix(0.0420239, 0, 0, 0.0420239, 2.08044, 0.68741)"/>
</svg>
