<?xml version="1.0" encoding="UTF-8"?>
<svg xmlns="http://www.w3.org/2000/svg" xmlns:xlink="http://www.w3.org/1999/xlink" width="28" height="28" viewBox="0 0 28 28">
<path fill-rule="nonzero" fill="rgb(6.666667%, 6.666667%, 6.666667%)" fill-opacity="1" stroke-width="3.408" stroke-linecap="butt" stroke-linejoin="miter" stroke="rgb(93.333333%, 93.333333%, 93.333333%)" stroke-opacity="1" stroke-miterlimit="4" d="M 66.269531 1.780134 C 24.921875 1.780134 1.699219 23.141741 1.699219 66.835938 L 1.699219 516.967076 C 1.699219 557.748326 22.575335 579.190848 63.922991 579.190848 L 515.915179 579.190848 C 557.262835 579.190848 578.138951 558.881138 578.138951 516.967076 L 578.138951 66.835938 C 578.138951 24.193638 557.262835 1.780134 514.620536 1.780134 C 514.620536 1.780134 66.107701 1.618304 66.269531 1.780134 Z M 66.269531 1.780134 " transform="matrix(0.0482759, 0, 0, 0.0482759, 0, 0)"/>
<path fill-rule="nonzero" fill="rgb(100%, 100%, 100%)" fill-opacity="1" d="M 13.796875 7.265625 C 13.457031 7.269531 13.160156 7.140625 12.90625 6.882812 C 12.648438 6.628906 12.523438 6.320312 12.523438 5.960938 C 12.523438 5.621094 12.648438 5.324219 12.90625 5.070312 C 13.160156 4.8125 13.457031 4.6875 13.796875 4.6875 C 14.15625 4.6875 14.464844 4.8125 14.71875 5.070312 C 14.976562 5.324219 15.101562 5.621094 15.101562 5.960938 C 15.101562 6.320312 14.976562 6.628906 14.71875 6.882812 C 14.464844 7.140625 14.15625 7.269531 13.796875 7.265625 Z M 23.496094 14.214844 C 23.421875 13.761719 23.136719 13.535156 22.644531 13.535156 C 22.417969 13.535156 22.210938 13.628906 22.023438 13.816406 L 18.875 16.765625 C 18.648438 16.957031 18.535156 17.183594 18.535156 17.449219 C 18.535156 17.902344 18.742188 18.195312 19.15625 18.328125 L 19.953125 18.582031 C 19.554688 19.660156 18.921875 20.582031 18.050781 21.347656 C 17.183594 22.113281 16.179688 22.609375 15.046875 22.835938 L 15.046875 8.855469 C 16.3125 8.308594 16.945312 7.34375 16.945312 5.960938 C 16.945312 5.113281 16.636719 4.378906 16.023438 3.765625 C 15.410156 3.152344 14.667969 2.84375 13.796875 2.84375 C 12.945312 2.84375 12.214844 3.152344 11.601562 3.765625 C 10.984375 4.378906 10.679688 5.113281 10.679688 5.960938 C 10.679688 7.34375 11.320312 8.308594 12.605469 8.855469 L 12.605469 22.863281 C 11.453125 22.636719 10.421875 22.140625 9.515625 21.375 C 8.609375 20.609375 7.957031 19.679688 7.558594 18.582031 L 8.355469 18.328125 C 8.769531 18.195312 8.976562 17.902344 8.976562 17.449219 C 8.976562 17.203125 8.871094 16.976562 8.664062 16.765625 L 5.488281 13.816406 C 5.300781 13.628906 5.089844 13.535156 4.863281 13.535156 C 4.375 13.535156 4.089844 13.761719 4.015625 14.214844 L 3.335938 18.496094 C 3.316406 18.589844 3.304688 18.65625 3.304688 18.695312 C 3.304688 19.300781 3.617188 19.605469 4.242188 19.605469 C 4.335938 19.605469 4.421875 19.59375 4.496094 19.574219 L 5.234375 19.320312 C 5.839844 21.136719 6.921875 22.617188 8.480469 23.773438 C 10.039062 24.925781 11.804688 25.5 13.769531 25.5 C 15.714844 25.5 17.484375 24.914062 19.074219 23.742188 C 20.605469 22.609375 21.671875 21.136719 22.277344 19.320312 L 23.015625 19.574219 C 23.089844 19.59375 23.175781 19.605469 23.269531 19.605469 C 23.894531 19.605469 24.207031 19.300781 24.207031 18.695312 C 24.207031 18.65625 24.195312 18.589844 24.175781 18.496094 Z M 23.496094 14.214844 "/>
</svg>
