<?xml version="1.0" encoding="UTF-8"?>
<svg xmlns="http://www.w3.org/2000/svg" xmlns:xlink="http://www.w3.org/1999/xlink" width="28" height="28" viewBox="0 0 28 28">
<path fill-rule="nonzero" fill="rgb(6.666667%, 6.666667%, 6.666667%)" fill-opacity="1" stroke-width="3.408" stroke-linecap="butt" stroke-linejoin="miter" stroke="rgb(93.333333%, 93.333333%, 93.333333%)" stroke-opacity="1" stroke-miterlimit="4" d="M 66.269531 1.780134 C 24.921875 1.780134 1.699219 23.141741 1.699219 66.835938 L 1.699219 516.967076 C 1.699219 557.748326 22.575335 579.190848 63.922991 579.190848 L 515.915179 579.190848 C 557.262835 579.190848 578.138951 558.881138 578.138951 516.967076 L 578.138951 66.835938 C 578.138951 24.193638 557.262835 1.780134 514.620536 1.780134 C 514.620536 1.780134 66.107701 1.618304 66.269531 1.780134 Z M 66.269531 1.780134 " transform="matrix(0.0482759, 0, 0, 0.0482759, 0, 0)"/>
<path fill-rule="evenodd" fill="rgb(100%, 100%, 100%)" fill-opacity="1" d="M 5.773438 16.460938 L 9.253906 12.917969 L 9.238281 10.851562 L 6.675781 13.355469 C 6.589844 9.347656 10.042969 5.980469 13.285156 5.546875 L 13 3.8125 C 7.304688 4.9375 5.011719 9.390625 4.902344 13.34375 L 2.3125 10.828125 L 2.300781 12.976562 Z M 5.773438 16.460938 "/>
<path fill-rule="evenodd" fill="rgb(100%, 100%, 100%)" fill-opacity="1" d="M 21.75 19.625 L 16.933594 18.402344 L 15.15625 19.457031 L 18.613281 20.410156 C 15.191406 22.5 10.542969 21.214844 8.535156 18.628906 L 7.179688 19.75 C 11.023438 24.105469 16.023438 23.84375 19.492188 21.949219 L 18.621094 25.453125 L 20.484375 24.378906 Z M 21.75 19.625 "/>
<path fill-rule="evenodd" fill="rgb(100%, 100%, 100%)" fill-opacity="1" d="M 16.488281 4.253906 L 17.84375 9.03125 L 19.648438 10.039062 L 18.738281 6.570312 C 22.265625 8.480469 23.484375 13.148438 22.257812 16.179688 L 23.910156 16.789062 C 25.746094 11.28125 23.007812 7.085938 19.628906 5.039062 L 23.09375 4.03125 L 21.230469 2.957031 Z M 16.488281 4.253906 "/>
</svg>
