<?xml version="1.0" encoding="UTF-8"?>
<svg xmlns="http://www.w3.org/2000/svg" xmlns:xlink="http://www.w3.org/1999/xlink" width="28" height="28" viewBox="0 0 28 28">
<path fill-rule="nonzero" fill="rgb(6.666667%, 6.666667%, 6.666667%)" fill-opacity="1" stroke-width="3.408" stroke-linecap="butt" stroke-linejoin="miter" stroke="rgb(93.333333%, 93.333333%, 93.333333%)" stroke-opacity="1" stroke-miterlimit="4" d="M 66.269531 1.780134 C 24.921875 1.780134 1.699219 23.141741 1.699219 66.835938 L 1.699219 516.967076 C 1.699219 557.748326 22.575335 579.190848 63.922991 579.190848 L 515.915179 579.190848 C 557.262835 579.190848 578.138951 558.881138 578.138951 516.967076 L 578.138951 66.835938 C 578.138951 24.193638 557.262835 1.780134 514.620536 1.780134 C 514.620536 1.780134 66.107701 1.618304 66.269531 1.780134 Z M 66.269531 1.780134 " transform="matrix(0.0482759, 0, 0, 0.0482759, 0, 0)"/>
<path fill-rule="evenodd" fill="rgb(100%, 100%, 100%)" fill-opacity="1" d="M 22.378906 16.460938 L 18.898438 12.917969 L 18.914062 10.851562 L 21.476562 13.355469 C 21.5625 9.347656 18.109375 5.980469 14.867188 5.546875 L 15.152344 3.8125 C 20.847656 4.9375 23.140625 9.390625 23.25 13.34375 L 25.839844 10.828125 L 25.851562 12.976562 Z M 22.378906 16.460938 "/>
<path fill-rule="evenodd" fill="rgb(100%, 100%, 100%)" fill-opacity="1" d="M 6.402344 19.625 L 11.21875 18.402344 L 12.996094 19.457031 L 9.539062 20.410156 C 12.960938 22.5 17.609375 21.214844 19.617188 18.628906 L 20.972656 19.75 C 17.128906 24.105469 12.128906 23.84375 8.660156 21.949219 L 9.53125 25.453125 L 7.667969 24.378906 Z M 6.402344 19.625 "/>
<path fill-rule="evenodd" fill="rgb(100%, 100%, 100%)" fill-opacity="1" d="M 11.667969 4.253906 L 10.308594 9.03125 L 8.503906 10.039062 L 9.414062 6.570312 C 5.886719 8.480469 4.667969 13.148438 5.894531 16.179688 L 4.242188 16.789062 C 2.410156 11.28125 5.144531 7.085938 8.527344 5.039062 L 5.058594 4.03125 L 6.921875 2.957031 Z M 11.667969 4.253906 "/>
</svg>
