<?xml version="1.0" encoding="UTF-8"?>
<svg xmlns="http://www.w3.org/2000/svg" xmlns:xlink="http://www.w3.org/1999/xlink" width="28" height="28" viewBox="0 0 28 28">
<path fill-rule="nonzero" fill="rgb(6.666667%, 6.666667%, 6.666667%)" fill-opacity="1" stroke-width="3.408" stroke-linecap="butt" stroke-linejoin="miter" stroke="rgb(93.333333%, 93.333333%, 93.333333%)" stroke-opacity="1" stroke-miterlimit="4" d="M 66.269531 1.780134 C 24.921875 1.780134 1.699219 23.141741 1.699219 66.835938 L 1.699219 516.967076 C 1.699219 557.748326 22.575335 579.190848 63.922991 579.190848 L 515.915179 579.190848 C 557.262835 579.190848 578.138951 558.800223 578.138951 516.967076 L 578.138951 66.835938 C 578.138951 24.193638 557.262835 1.780134 514.620536 1.780134 C 514.620536 1.780134 66.107701 1.618304 66.269531 1.780134 Z M 66.269531 1.780134 " transform="matrix(0.0482759, 0, 0, 0.0482759, 0, 0)"/>
<path fill-rule="nonzero" fill="rgb(100%, 100%, 100%)" fill-opacity="1" d="M 13.402344 15.890625 C 12.574219 15.890625 12.132812 16.34375 11.929688 16.871094 L 10.855469 19.652344 C 10.425781 19.707031 9.671875 20.207031 9.671875 21.15625 L 9.671875 24.691406 L 10.71875 24.691406 L 10.71875 25.824219 C 10.71875 27.214844 12.6875 27.195312 12.6875 25.824219 L 12.6875 24.691406 L 19.769531 24.691406 L 19.769531 25.824219 C 19.769531 27.195312 21.738281 27.214844 21.738281 25.824219 L 21.738281 24.691406 L 22.785156 24.691406 L 22.785156 21.15625 C 22.785156 20.207031 22.03125 19.707031 21.601562 19.652344 L 20.523438 16.871094 C 20.320312 16.34375 19.882812 15.890625 19.054688 15.890625 Z M 13.386719 16.902344 L 19.066406 16.902344 C 19.421875 16.90625 19.574219 17.128906 19.675781 17.4375 L 20.488281 19.625 L 11.96875 19.625 L 12.78125 17.4375 C 12.882812 17.128906 13.035156 16.90625 13.386719 16.902344 Z M 11.734375 20.6875 C 12.238281 20.6875 12.644531 21.105469 12.644531 21.625 C 12.644531 22.140625 12.238281 22.5625 11.734375 22.5625 C 11.230469 22.5625 10.824219 22.140625 10.824219 21.625 C 10.824219 21.105469 11.230469 20.6875 11.734375 20.6875 Z M 20.722656 20.6875 C 21.226562 20.6875 21.632812 21.105469 21.632812 21.625 C 21.632812 22.140625 21.226562 22.5625 20.722656 22.5625 C 20.21875 22.5625 19.8125 22.140625 19.8125 21.625 C 19.8125 21.105469 20.21875 20.6875 20.722656 20.6875 Z M 20.722656 20.6875 "/>
<path fill-rule="nonzero" fill="rgb(100%, 100%, 100%)" fill-opacity="1" d="M 2.3125 20.710938 L 2.3125 2.855469 L 9.046875 2.855469 C 10.234375 2.855469 11.136719 2.914062 11.761719 3.027344 C 12.640625 3.171875 13.375 3.449219 13.96875 3.859375 C 14.558594 4.269531 15.039062 4.847656 15.398438 5.585938 C 15.761719 6.324219 15.941406 7.136719 15.941406 8.019531 C 15.941406 9.539062 15.457031 10.824219 14.492188 11.875 C 13.523438 12.925781 11.78125 13.453125 9.253906 13.453125 L 4.675781 13.453125 L 4.675781 20.710938 Z M 4.675781 11.347656 L 9.289062 11.347656 C 10.816406 11.347656 11.902344 11.0625 12.542969 10.492188 C 13.183594 9.925781 13.503906 9.125 13.503906 8.09375 C 13.503906 7.347656 13.316406 6.707031 12.9375 6.175781 C 12.5625 5.644531 12.0625 5.292969 11.445312 5.121094 C 11.046875 5.015625 10.3125 4.964844 9.242188 4.964844 L 4.675781 4.964844 Z M 4.675781 11.347656 "/>
</svg>
