<?xml version="1.0" encoding="UTF-8"?>
<svg xmlns="http://www.w3.org/2000/svg" xmlns:xlink="http://www.w3.org/1999/xlink" width="28" height="28" viewBox="0 0 28 28">
<path fill-rule="nonzero" fill="rgb(6.666667%, 6.666667%, 6.666667%)" fill-opacity="1" stroke-width="3.408" stroke-linecap="butt" stroke-linejoin="miter" stroke="rgb(93.333333%, 93.333333%, 93.333333%)" stroke-opacity="1" stroke-miterlimit="4" d="M 66.269531 1.780134 C 24.921875 1.780134 1.699219 23.141741 1.699219 66.835938 L 1.699219 516.967076 C 1.699219 557.748326 22.575335 579.190848 63.922991 579.190848 L 515.915179 579.190848 C 557.262835 579.190848 578.138951 558.800223 578.138951 516.967076 L 578.138951 66.835938 C 578.138951 24.193638 557.262835 1.780134 514.620536 1.780134 C 514.620536 1.780134 66.107701 1.618304 66.269531 1.780134 Z M 66.269531 1.780134 " transform="matrix(0.0482759, 0, 0, 0.0482759, 0, 0)"/>
<path fill-rule="nonzero" fill="rgb(100%, 100%, 100%)" fill-opacity="1" stroke-width="22.687862" stroke-linecap="round" stroke-linejoin="round" stroke="rgb(100%, 100%, 100%)" stroke-opacity="1" stroke-miterlimit="4" d="M 145.323661 505.15346 L 145.323661 85.527344 L 303.59375 85.527344 C 331.509487 85.527344 352.790179 86.902902 367.435826 89.573103 C 388.069196 92.97154 405.304129 99.52567 419.22154 109.154576 C 433.219866 118.783482 444.386161 132.296317 452.882254 149.69308 C 461.378348 167.008929 465.666853 186.104911 465.666853 206.900112 C 465.666853 242.583705 454.257812 272.765067 431.601562 297.525112 C 408.864397 322.204241 367.840402 334.584263 308.529576 334.584263 L 200.912388 334.584263 L 200.912388 505.15346 Z M 200.912388 285.064174 L 309.338728 285.064174 C 345.265067 285.064174 370.672433 278.348214 385.803571 264.99721 C 400.853795 251.646205 408.378906 232.873884 408.378906 208.59933 C 408.378906 191.121652 403.928571 176.071429 395.108817 163.529576 C 386.208147 151.068638 374.556362 142.81529 359.991629 138.769531 C 350.686384 136.342076 333.370536 135.047433 308.205915 135.047433 L 200.912388 135.047433 Z M 200.912388 285.064174 " transform="matrix(0.0482759, 0, 0, 0.0482759, 0, 0)"/>
</svg>
