<?xml version="1.0" encoding="UTF-8"?>
<svg xmlns="http://www.w3.org/2000/svg" xmlns:xlink="http://www.w3.org/1999/xlink" width="28" height="28" viewBox="0 0 28 28">
<defs>
<filter id="filter-remove-color" x="0%" y="0%" width="100%" height="100%">
<feColorMatrix color-interpolation-filters="sRGB" values="0 0 0 0 1 0 0 0 0 1 0 0 0 0 1 0 0 0 1 0" />
</filter>
<mask id="mask-0">
<g filter="url(#filter-remove-color)">
<rect x="-2.8" y="-2.8" width="33.6" height="33.6" fill="rgb(0%, 0%, 0%)" fill-opacity="0.25"/>
</g>
</mask>
<clipPath id="clip-0">
<rect x="0" y="0" width="28" height="28"/>
</clipPath>
<g id="source-7" clip-path="url(#clip-0)">
<path fill-rule="nonzero" fill="rgb(100%, 100%, 100%)" fill-opacity="1" stroke-width="22.687862" stroke-linecap="round" stroke-linejoin="round" stroke="rgb(100%, 100%, 100%)" stroke-opacity="1" stroke-miterlimit="4" d="M 145.323661 505.15346 L 145.323661 85.527344 L 303.59375 85.527344 C 331.509487 85.527344 352.790179 86.902902 367.435826 89.573103 C 388.069196 92.97154 405.304129 99.52567 419.22154 109.154576 C 433.219866 118.783482 444.386161 132.296317 452.882254 149.69308 C 461.378348 167.008929 465.666853 186.104911 465.666853 206.900112 C 465.666853 242.583705 454.257812 272.765067 431.601562 297.525112 C 408.864397 322.204241 367.840402 334.584263 308.529576 334.584263 L 200.912388 334.584263 L 200.912388 505.15346 Z M 200.912388 285.064174 L 309.338728 285.064174 C 345.265067 285.064174 370.672433 278.348214 385.803571 264.99721 C 400.853795 251.646205 408.378906 232.873884 408.378906 208.59933 C 408.378906 191.121652 403.928571 176.071429 395.108817 163.529576 C 386.208147 151.068638 374.556362 142.81529 359.991629 138.769531 C 350.686384 136.342076 333.370536 135.047433 308.205915 135.047433 L 200.912388 135.047433 Z M 200.912388 285.064174 " transform="matrix(0.0482759, 0, 0, 0.0482759, 0, 0)"/>
</g>
<mask id="mask-1">
<g filter="url(#filter-remove-color)">
<rect x="-2.8" y="-2.8" width="33.6" height="33.6" fill="rgb(0%, 0%, 0%)" fill-opacity="0.25"/>
</g>
</mask>
<clipPath id="clip-1">
<rect x="0" y="0" width="28" height="28"/>
</clipPath>
<g id="source-11" clip-path="url(#clip-1)">
<path fill-rule="nonzero" fill="rgb(100%, 100%, 100%)" fill-opacity="1" d="M 7.015625 3.390625 C 6.714844 3.390625 6.46875 3.636719 6.46875 3.9375 L 6.46875 24.195312 C 6.46875 24.496094 6.714844 24.742188 7.015625 24.742188 L 9.699219 24.742188 C 10 24.742188 10.246094 24.496094 10.246094 24.195312 L 10.246094 16.503906 L 14.894531 16.503906 C 17.832031 16.503906 19.980469 15.90625 21.238281 14.539062 C 22.421875 13.25 23.027344 11.632812 23.027344 9.796875 C 23.027344 8.71875 22.804688 7.707031 22.355469 6.792969 C 21.910156 5.882812 21.308594 5.148438 20.550781 4.625 C 19.804688 4.109375 18.890625 3.769531 17.839844 3.59375 C 17.835938 3.589844 17.832031 3.589844 17.828125 3.589844 C 17.058594 3.453125 16.015625 3.390625 14.65625 3.390625 Z M 7.5625 4.484375 L 14.65625 4.484375 C 15.984375 4.484375 16.992188 4.550781 17.640625 4.667969 C 17.644531 4.667969 17.648438 4.671875 17.648438 4.671875 C 18.582031 4.824219 19.335938 5.117188 19.929688 5.527344 C 20.515625 5.933594 20.996094 6.503906 21.371094 7.273438 C 21.742188 8.035156 21.929688 8.867188 21.929688 9.796875 C 21.929688 11.402344 21.4375 12.703125 20.429688 13.800781 C 19.496094 14.816406 17.683594 15.410156 14.894531 15.410156 L 9.699219 15.410156 C 9.394531 15.410156 9.148438 15.65625 9.148438 15.957031 L 9.148438 23.644531 L 7.5625 23.644531 Z M 9.699219 5.78125 C 9.394531 5.78125 9.148438 6.027344 9.148438 6.328125 L 9.148438 13.570312 C 9.148438 13.871094 9.394531 14.117188 9.699219 14.117188 L 14.933594 14.117188 C 16.734375 14.117188 18.097656 13.796875 18.988281 13.011719 C 19.839844 12.257812 20.261719 11.160156 20.261719 9.878906 C 20.261719 8.9375 20.015625 8.089844 19.519531 7.386719 C 19.023438 6.691406 18.339844 6.203125 17.527344 5.980469 C 17.523438 5.980469 17.523438 5.980469 17.519531 5.980469 C 16.953125 5.828125 16.113281 5.78125 14.878906 5.78125 Z M 10.246094 6.875 L 14.878906 6.875 C 16.074219 6.875 16.898438 6.949219 17.234375 7.035156 C 17.234375 7.035156 17.238281 7.039062 17.238281 7.039062 C 17.824219 7.199219 18.261719 7.511719 18.625 8.019531 C 18.984375 8.523438 19.167969 9.125 19.167969 9.878906 C 19.167969 10.933594 18.863281 11.65625 18.261719 12.191406 C 17.695312 12.691406 16.597656 13.019531 14.933594 13.019531 L 10.246094 13.019531 Z M 10.246094 6.875 "/>
</g>
</defs>
<path fill-rule="nonzero" fill="rgb(6.666667%, 6.666667%, 6.666667%)" fill-opacity="1" stroke-width="3.408" stroke-linecap="butt" stroke-linejoin="miter" stroke="rgb(93.333333%, 93.333333%, 93.333333%)" stroke-opacity="1" stroke-miterlimit="4" d="M 66.269531 1.780134 C 24.921875 1.780134 1.699219 23.141741 1.699219 66.835938 L 1.699219 516.967076 C 1.699219 557.748326 22.575335 579.190848 63.922991 579.190848 L 515.915179 579.190848 C 557.262835 579.190848 578.138951 558.800223 578.138951 516.967076 L 578.138951 66.835938 C 578.138951 24.193638 557.262835 1.780134 514.620536 1.780134 C 514.620536 1.780134 66.107701 1.618304 66.269531 1.780134 Z M 66.269531 1.780134 " transform="matrix(0.0482759, 0, 0, 0.0482759, 0, 0)"/>
<g mask="url(#mask-0)">
<use xlink:href="#source-7"/>
</g>
<g mask="url(#mask-1)">
<use xlink:href="#source-11"/>
</g>
</svg>
