<?xml version="1.0" encoding="UTF-8"?>
<svg xmlns="http://www.w3.org/2000/svg" xmlns:xlink="http://www.w3.org/1999/xlink" width="28" height="28" viewBox="0 0 28 28">
<path fill-rule="nonzero" fill="rgb(6.666667%, 6.666667%, 6.666667%)" fill-opacity="1" stroke-width="3.408" stroke-linecap="butt" stroke-linejoin="miter" stroke="rgb(93.333333%, 93.333333%, 93.333333%)" stroke-opacity="1" stroke-miterlimit="4" d="M 66.269531 1.780134 C 24.921875 1.780134 1.699219 23.141741 1.699219 66.835938 L 1.699219 516.967076 C 1.699219 557.748326 22.575335 579.190848 63.922991 579.190848 L 515.915179 579.190848 C 557.262835 579.190848 578.138951 558.800223 578.138951 516.967076 L 578.138951 66.835938 C 578.138951 24.193638 557.262835 1.780134 514.620536 1.780134 C 514.620536 1.780134 66.107701 1.618304 66.269531 1.780134 Z M 66.269531 1.780134 " transform="matrix(0.0482759, 0, 0, 0.0482759, 0, 0)"/>
<path fill="none" stroke-width="26" stroke-linecap="butt" stroke-linejoin="miter" stroke="rgb(100%, 100%, 100%)" stroke-opacity="1" stroke-miterlimit="4" d="M 278.947739 461.97601 C 278.947739 505.225901 243.813388 540.360251 200.563497 540.360251 C 157.214637 540.360251 122.179256 505.225901 122.179256 461.97601 C 122.179256 418.627149 157.214637 383.591769 200.563497 383.591769 C 243.813388 383.591769 278.947739 418.627149 278.947739 461.97601 Z M 278.947739 461.97601 " transform="matrix(-0.039469, 0, 0, 0.039469, 17.685578, 4.539692)"/>
<path fill="none" stroke-width="26" stroke-linecap="butt" stroke-linejoin="miter" stroke="rgb(100%, 100%, 100%)" stroke-opacity="1" stroke-miterlimit="4" d="M 278.960707 461.919418 C 278.960707 505.268279 243.826357 540.303659 200.576466 540.303659 C 157.227605 540.303659 122.192225 505.268279 122.192225 461.919418 C 122.192225 418.669527 157.227605 383.535177 200.576466 383.535177 C 243.826357 383.535177 278.960707 418.669527 278.960707 461.919418 Z M 278.960707 461.919418 " transform="matrix(-0.039469, 0, 0, 0.039469, 30.943902, 4.479426)"/>
<path fill="none" stroke-width="17.066832" stroke-linecap="butt" stroke-linejoin="round" stroke="rgb(100%, 100%, 100%)" stroke-opacity="1" stroke-miterlimit="4" d="M 426.261161 361.448103 L 261.517857 362.257254 L 203.258929 470.440848 L 314.760045 470.440848 L 431.277902 391.386719 " transform="matrix(0.0482759, 0, 0, 0.0482759, 0, 0)"/>
<path fill-rule="evenodd" fill="rgb(100%, 100%, 100%)" fill-opacity="1" d="M 20.273438 14.320312 C 20.703125 14.320312 21.03125 14.308594 21.367188 14.820312 C 21.460938 14.992188 21.507812 15.199219 21.472656 15.40625 C 21.429688 15.644531 21.289062 15.875 21.125 16.011719 C 20.90625 16.191406 20.699219 16.179688 20.734375 16.339844 C 20.777344 16.550781 20.90625 16.84375 21.046875 17.3125 C 21.191406 17.792969 21.363281 18.378906 21.53125 18.957031 C 21.695312 19.535156 21.859375 20.105469 21.992188 20.550781 C 22.054688 20.769531 22.113281 20.960938 22.15625 21.105469 C 22.199219 21.242188 22.234375 21.351562 22.230469 21.34375 C 22.367188 21.582031 22.386719 21.738281 22.613281 21.941406 C 22.867188 22.164062 23.074219 22.328125 23.148438 22.378906 C 23.328125 22.511719 23.414062 22.789062 23.316406 22.929688 C 23.195312 23.117188 22.945312 23.144531 22.761719 23.089844 C 22.585938 23.035156 22.3125 22.941406 21.992188 22.675781 L 21.984375 22.667969 C 21.539062 22.285156 21.375 21.824219 21.359375 21.796875 L 21.335938 21.761719 L 21.320312 21.722656 C 21.28125 21.625 21.257812 21.542969 21.210938 21.394531 C 21.167969 21.242188 21.109375 21.050781 21.042969 20.828125 C 20.914062 20.378906 20.75 19.808594 20.582031 19.230469 C 20.414062 18.65625 20.246094 18.070312 20.101562 17.597656 C 19.960938 17.125 19.871094 16.734375 19.839844 16.652344 C 19.757812 16.453125 19.71875 16.234375 19.773438 16.015625 C 19.828125 15.800781 19.992188 15.621094 20.140625 15.582031 C 20.476562 15.488281 20.386719 15.246094 20.214844 15.246094 L 18.769531 15.242188 L 18.765625 14.320312 C 18.765625 14.320312 19.703125 14.320312 20.273438 14.320312 Z M 20.273438 14.320312 "/>
<path fill-rule="evenodd" fill="rgb(100%, 100%, 100%)" fill-opacity="1" stroke-width="20.43932" stroke-linecap="butt" stroke-linejoin="miter" stroke="rgb(100%, 100%, 100%)" stroke-opacity="1" stroke-miterlimit="4" d="M 312.575335 467.123326 L 256.09654 328.758371 " transform="matrix(0.0482759, 0, 0, 0.0482759, 0, 0)"/>
<path fill-rule="evenodd" fill="rgb(100%, 100%, 100%)" fill-opacity="1" stroke-width="7.460352" stroke-linecap="round" stroke-linejoin="miter" stroke="rgb(100%, 100%, 100%)" stroke-opacity="1" stroke-miterlimit="4" d="M 331.994978 431.763393 L 297.929688 511.222098 " transform="matrix(0.0482759, 0, 0, 0.0482759, 0, 0)"/>
<path fill-rule="evenodd" fill="rgb(100%, 100%, 100%)" fill-opacity="1" stroke-width="31.305" stroke-linecap="butt" stroke-linejoin="miter" stroke="rgb(100%, 100%, 100%)" stroke-opacity="1" stroke-miterlimit="4" d="M 278.847886 461.962313 C 278.847886 505.280619 243.746505 540.253196 200.571806 540.253196 C 157.397107 540.253196 122.295727 505.280619 122.295727 461.962313 C 122.295727 418.644007 157.397107 383.671429 200.571806 383.671429 C 243.746505 383.671429 278.847886 418.644007 278.847886 461.962313 Z M 278.847886 461.962313 " transform="matrix(-0.0111285, 0, 0, 0.00982913, 17.396122, 18.181969)"/>
<path fill-rule="evenodd" fill="rgb(100%, 100%, 100%)" fill-opacity="1" stroke-width="10.424451" stroke-linecap="round" stroke-linejoin="miter" stroke="rgb(100%, 100%, 100%)" stroke-opacity="1" stroke-miterlimit="4" d="M 347.207031 431.844308 L 317.106585 432.087054 " transform="matrix(0.0482759, 0, 0, 0.0482759, 0, 0)"/>
<path fill-rule="evenodd" fill="rgb(100%, 100%, 100%)" fill-opacity="1" stroke-width="10.424052" stroke-linecap="round" stroke-linejoin="miter" stroke="rgb(100%, 100%, 100%)" stroke-opacity="1" stroke-miterlimit="4" d="M 313.303571 510.089286 L 283.12221 510.332031 " transform="matrix(0.0482759, 0, 0, 0.0482759, 0, 0)"/>
<path fill-rule="evenodd" fill="rgb(100%, 100%, 100%)" fill-opacity="1" d="M 11.027344 15.277344 L 14.453125 15.277344 C 14.582031 15.277344 14.746094 15.503906 14.582031 15.652344 C 14.402344 15.824219 12.796875 16.171875 12.796875 16.171875 C 12.796875 16.171875 12.355469 16.292969 12.121094 16.261719 C 11.886719 16.234375 11.078125 16.164062 11.027344 15.277344 Z M 11.027344 15.277344 "/>
<path fill-rule="nonzero" fill="rgb(100%, 100%, 100%)" fill-opacity="1" d="M 2.402344 20.496094 L 2.402344 2.640625 L 9.136719 2.640625 C 10.324219 2.640625 11.226562 2.699219 11.855469 2.8125 C 12.730469 2.957031 13.464844 3.238281 14.058594 3.648438 C 14.652344 4.058594 15.128906 4.632812 15.488281 5.371094 C 15.851562 6.109375 16.03125 6.921875 16.03125 7.804688 C 16.03125 9.324219 15.546875 10.609375 14.582031 11.660156 C 13.617188 12.710938 11.871094 13.238281 9.34375 13.238281 L 4.765625 13.238281 L 4.765625 20.496094 Z M 4.765625 11.132812 L 9.382812 11.132812 C 10.90625 11.132812 11.992188 10.847656 12.632812 10.277344 C 13.273438 9.710938 13.59375 8.910156 13.59375 7.878906 C 13.59375 7.132812 13.40625 6.492188 13.027344 5.960938 C 12.652344 5.429688 12.152344 5.078125 11.535156 4.90625 C 11.140625 4.800781 10.40625 4.75 9.332031 4.75 L 4.765625 4.75 Z M 4.765625 11.132812 "/>
</svg>
