<?xml version="1.0" encoding="UTF-8"?>
<svg xmlns="http://www.w3.org/2000/svg" xmlns:xlink="http://www.w3.org/1999/xlink" width="28" height="28" viewBox="0 0 28 28">
<defs>
<filter id="filter-remove-color" x="0%" y="0%" width="100%" height="100%">
<feColorMatrix color-interpolation-filters="sRGB" values="0 0 0 0 1 0 0 0 0 1 0 0 0 0 1 0 0 0 1 0" />
</filter>
<mask id="mask-0">
<g filter="url(#filter-remove-color)">
<rect x="-2.8" y="-2.8" width="33.6" height="33.6" fill="rgb(0%, 0%, 0%)" fill-opacity="0.25"/>
</g>
</mask>
<clipPath id="clip-0">
<rect x="0" y="0" width="28" height="28"/>
</clipPath>
<g id="source-7" clip-path="url(#clip-0)">
<path fill-rule="nonzero" fill="rgb(100%, 100%, 100%)" fill-opacity="1" d="M 7.015625 3.582031 C 6.875 3.582031 6.730469 3.640625 6.628906 3.742188 C 6.527344 3.84375 6.46875 3.988281 6.46875 4.128906 L 6.46875 7.96875 L 10.246094 7.96875 L 10.246094 7.070312 L 10.855469 7.070312 L 10.855469 3.582031 Z M 15.402344 4.792969 L 15.402344 7.074219 C 16.3125 7.089844 16.949219 7.15625 17.234375 7.230469 C 17.234375 7.230469 17.238281 7.230469 17.238281 7.230469 C 17.71875 7.363281 18.101562 7.597656 18.421875 7.960938 L 19.949219 7.960938 L 19.949219 4.457031 C 19.328125 4.140625 18.621094 3.917969 17.839844 3.785156 C 17.835938 3.785156 17.832031 3.785156 17.828125 3.785156 C 17.210938 3.671875 16.410156 3.609375 15.414062 3.589844 Z M 19.964844 7.972656 L 19.964844 12.519531 L 22.59375 12.519531 C 22.878906 11.738281 23.027344 10.890625 23.027344 9.988281 C 23.027344 9.285156 22.933594 8.613281 22.742188 7.972656 Z M 18.109375 12.503906 C 17.570312 12.890625 16.675781 13.152344 15.402344 13.203125 L 15.402344 16.691406 C 17.269531 16.644531 18.796875 16.335938 19.949219 15.71875 L 19.949219 12.503906 Z M 6.46875 12.515625 L 6.46875 17.0625 L 10.246094 17.0625 L 10.246094 16.699219 L 10.855469 16.699219 L 10.855469 13.214844 L 10.246094 13.214844 L 10.246094 12.515625 Z M 6.46875 21.605469 L 6.46875 24.386719 C 6.46875 24.53125 6.527344 24.671875 6.628906 24.773438 C 6.730469 24.875 6.875 24.933594 7.015625 24.933594 L 9.699219 24.933594 C 9.839844 24.933594 9.984375 24.875 10.085938 24.773438 C 10.1875 24.671875 10.246094 24.53125 10.246094 24.386719 L 10.246094 21.605469 Z M 6.46875 21.605469 "/>
</g>
<mask id="mask-1">
<g filter="url(#filter-remove-color)">
<rect x="-2.8" y="-2.8" width="33.6" height="33.6" fill="rgb(0%, 0%, 0%)" fill-opacity="0.25"/>
</g>
</mask>
<clipPath id="clip-1">
<rect x="0" y="0" width="28" height="28"/>
</clipPath>
<g id="source-11" clip-path="url(#clip-1)">
<path fill-rule="nonzero" fill="rgb(100%, 100%, 100%)" fill-opacity="1" d="M 6.980469 3.601562 C 6.679688 3.601562 6.433594 3.847656 6.433594 4.148438 L 6.433594 24.40625 C 6.433594 24.707031 6.679688 24.953125 6.980469 24.953125 L 9.660156 24.953125 C 9.964844 24.953125 10.207031 24.707031 10.207031 24.40625 L 10.207031 16.71875 L 14.855469 16.71875 C 17.796875 16.71875 19.945312 16.121094 21.203125 14.75 C 22.386719 13.460938 22.988281 11.847656 22.988281 10.007812 C 22.988281 8.929688 22.769531 7.921875 22.320312 7.003906 C 21.875 6.097656 21.273438 5.363281 20.515625 4.839844 C 19.765625 4.320312 18.855469 3.980469 17.800781 3.804688 C 17.800781 3.804688 17.796875 3.804688 17.792969 3.804688 C 17.023438 3.664062 15.980469 3.601562 14.621094 3.601562 Z M 7.53125 4.699219 L 14.621094 4.699219 C 15.949219 4.699219 16.957031 4.765625 17.605469 4.882812 C 17.609375 4.882812 17.609375 4.882812 17.613281 4.882812 C 18.546875 5.039062 19.300781 5.328125 19.894531 5.742188 C 20.480469 6.148438 20.960938 6.71875 21.335938 7.484375 C 21.707031 8.246094 21.894531 9.078125 21.894531 10.007812 C 21.894531 11.613281 21.402344 12.914062 20.394531 14.011719 C 19.460938 15.027344 17.644531 15.625 14.855469 15.625 L 9.660156 15.625 C 9.359375 15.625 9.113281 15.867188 9.113281 16.171875 L 9.113281 23.855469 L 7.53125 23.855469 Z M 9.660156 5.992188 C 9.359375 5.992188 9.113281 6.238281 9.113281 6.539062 L 9.113281 13.78125 C 9.113281 14.082031 9.359375 14.328125 9.660156 14.328125 L 14.898438 14.328125 C 16.699219 14.328125 18.0625 14.011719 18.953125 13.222656 C 19.800781 12.46875 20.226562 11.375 20.226562 10.089844 C 20.226562 9.152344 19.980469 8.300781 19.484375 7.597656 C 18.988281 6.902344 18.300781 6.417969 17.488281 6.191406 C 17.488281 6.191406 17.488281 6.191406 17.484375 6.191406 C 16.914062 6.039062 16.078125 5.992188 14.84375 5.992188 Z M 10.207031 7.085938 L 14.84375 7.085938 C 16.035156 7.085938 16.863281 7.160156 17.199219 7.246094 C 17.199219 7.246094 17.203125 7.25 17.203125 7.25 C 17.789062 7.410156 18.230469 7.722656 18.589844 8.230469 C 18.949219 8.734375 19.128906 9.335938 19.128906 10.089844 C 19.128906 11.148438 18.828125 11.867188 18.222656 12.402344 C 17.65625 12.902344 16.5625 13.230469 14.898438 13.230469 L 10.207031 13.230469 Z M 10.207031 7.085938 "/>
</g>
</defs>
<path fill-rule="nonzero" fill="rgb(6.666667%, 6.666667%, 6.666667%)" fill-opacity="1" stroke-width="3.408" stroke-linecap="butt" stroke-linejoin="miter" stroke="rgb(93.333333%, 93.333333%, 93.333333%)" stroke-opacity="1" stroke-miterlimit="4" d="M 66.269531 1.780134 C 24.921875 1.780134 1.699219 23.141741 1.699219 66.835938 L 1.699219 516.967076 C 1.699219 557.748326 22.575335 579.190848 63.922991 579.190848 L 515.915179 579.190848 C 557.262835 579.190848 578.138951 558.800223 578.138951 516.967076 L 578.138951 66.835938 C 578.138951 24.193638 557.262835 1.780134 514.620536 1.780134 C 514.620536 1.780134 66.107701 1.618304 66.269531 1.780134 Z M 66.269531 1.780134 " transform="matrix(0.0482759, 0, 0, 0.0482759, 0, 0)"/>
<g mask="url(#mask-0)">
<use xlink:href="#source-7"/>
</g>
<g mask="url(#mask-1)">
<use xlink:href="#source-11"/>
</g>
</svg>
