<?xml version="1.0" encoding="UTF-8"?>
<svg xmlns="http://www.w3.org/2000/svg" xmlns:xlink="http://www.w3.org/1999/xlink" width="28" height="28" viewBox="0 0 28 28">
<path fill-rule="nonzero" fill="rgb(6.666667%, 6.666667%, 6.666667%)" fill-opacity="1" stroke-width="3.408" stroke-linecap="butt" stroke-linejoin="miter" stroke="rgb(93.333333%, 93.333333%, 93.333333%)" stroke-opacity="1" stroke-miterlimit="4" d="M 66.269531 1.780134 C 24.921875 1.780134 1.699219 23.141741 1.699219 66.835938 L 1.699219 516.967076 C 1.699219 557.748326 22.575335 579.190848 63.922991 579.190848 L 515.915179 579.190848 C 557.262835 579.190848 578.138951 558.800223 578.138951 516.967076 L 578.138951 66.835938 C 578.138951 24.193638 557.262835 1.780134 514.620536 1.780134 C 514.620536 1.780134 66.107701 1.618304 66.269531 1.780134 Z M 66.269531 1.780134 " transform="matrix(0.0482759, 0, 0, 0.0482759, 0, 0)"/>
<path fill-rule="nonzero" fill="rgb(100%, 100%, 100%)" fill-opacity="1" d="M 13.402344 15.890625 C 12.574219 15.890625 12.132812 16.34375 11.929688 16.871094 L 10.855469 19.652344 C 10.425781 19.707031 9.671875 20.207031 9.671875 21.15625 L 9.671875 24.691406 L 10.71875 24.691406 L 10.71875 25.824219 C 10.71875 27.214844 12.6875 27.195312 12.6875 25.824219 L 12.6875 24.691406 L 19.769531 24.691406 L 19.769531 25.824219 C 19.769531 27.195312 21.738281 27.214844 21.738281 25.824219 L 21.738281 24.691406 L 22.785156 24.691406 L 22.785156 21.15625 C 22.785156 20.207031 22.03125 19.707031 21.601562 19.652344 L 20.523438 16.871094 C 20.320312 16.34375 19.882812 15.890625 19.054688 15.890625 Z M 13.386719 16.902344 L 19.066406 16.902344 C 19.421875 16.90625 19.574219 17.128906 19.675781 17.4375 L 20.488281 19.625 L 11.96875 19.625 L 12.78125 17.4375 C 12.882812 17.128906 13.035156 16.90625 13.386719 16.902344 Z M 11.734375 20.6875 C 12.238281 20.6875 12.644531 21.105469 12.644531 21.625 C 12.644531 22.140625 12.238281 22.5625 11.734375 22.5625 C 11.230469 22.5625 10.824219 22.140625 10.824219 21.625 C 10.824219 21.105469 11.230469 20.6875 11.734375 20.6875 Z M 20.722656 20.6875 C 21.226562 20.6875 21.632812 21.105469 21.632812 21.625 C 21.632812 22.140625 21.226562 22.5625 20.722656 22.5625 C 20.21875 22.5625 19.8125 22.140625 19.8125 21.625 C 19.8125 21.105469 20.21875 20.6875 20.722656 20.6875 Z M 20.722656 20.6875 "/>
<path fill-rule="nonzero" fill="rgb(100%, 100%, 100%)" fill-opacity="1" d="M 2.3125 20.710938 L 2.3125 2.855469 L 9.046875 2.855469 C 10.234375 2.855469 11.136719 2.914062 11.761719 3.027344 C 12.640625 3.171875 13.375 3.449219 13.96875 3.859375 C 14.558594 4.269531 15.039062 4.847656 15.398438 5.585938 C 15.761719 6.324219 15.941406 7.136719 15.941406 8.019531 C 15.941406 9.539062 15.457031 10.824219 14.492188 11.875 C 13.523438 12.925781 11.78125 13.453125 9.253906 13.453125 L 4.675781 13.453125 L 4.675781 20.710938 Z M 4.675781 11.347656 L 9.289062 11.347656 C 10.816406 11.347656 11.902344 11.0625 12.542969 10.492188 C 13.183594 9.925781 13.503906 9.125 13.503906 8.09375 C 13.503906 7.347656 13.316406 6.707031 12.9375 6.175781 C 12.5625 5.644531 12.0625 5.292969 11.445312 5.121094 C 11.046875 5.015625 10.3125 4.964844 9.242188 4.964844 L 4.675781 4.964844 Z M 4.675781 11.347656 "/>
<path fill-rule="nonzero" fill="rgb(100%, 100%, 100%)" fill-opacity="1" d="M 22.46875 7.425781 C 22.480469 7.429688 22.519531 7.441406 22.59375 7.453125 C 23.722656 7.640625 24.574219 7.984375 25.140625 8.476562 C 25.710938 8.972656 25.992188 9.625 25.992188 10.425781 C 25.992188 11.25 25.683594 11.960938 25.058594 12.566406 C 24.433594 13.167969 23.570312 13.496094 22.46875 13.546875 L 22.46875 14.820312 L 21.582031 14.820312 L 21.582031 13.558594 C 20.457031 13.453125 19.59375 13.144531 18.992188 12.632812 C 18.390625 12.121094 18.050781 11.402344 17.972656 10.484375 L 19.460938 10.257812 C 19.578125 10.949219 19.8125 11.484375 20.167969 11.855469 C 20.519531 12.230469 20.992188 12.441406 21.582031 12.496094 L 21.582031 8.476562 C 20.460938 8.273438 19.621094 7.929688 19.066406 7.449219 C 18.507812 6.964844 18.230469 6.347656 18.230469 5.589844 C 18.230469 4.839844 18.503906 4.191406 19.058594 3.652344 C 19.609375 3.113281 20.449219 2.800781 21.582031 2.714844 L 21.582031 2.113281 L 22.46875 2.113281 L 22.46875 2.714844 C 23.40625 2.796875 24.144531 3.046875 24.6875 3.472656 C 25.226562 3.898438 25.566406 4.496094 25.703125 5.261719 L 24.15625 5.449219 C 24.066406 4.972656 23.882812 4.597656 23.601562 4.316406 C 23.320312 4.039062 22.941406 3.859375 22.46875 3.78125 Z M 21.582031 7.273438 L 21.582031 3.769531 C 20.980469 3.855469 20.519531 4.0625 20.199219 4.382812 C 19.878906 4.703125 19.71875 5.070312 19.71875 5.492188 C 19.71875 5.972656 19.886719 6.351562 20.214844 6.632812 C 20.546875 6.910156 21.003906 7.121094 21.582031 7.273438 Z M 22.46875 12.496094 C 23.046875 12.417969 23.523438 12.207031 23.898438 11.851562 C 24.273438 11.5 24.460938 11.054688 24.460938 10.519531 C 24.460938 10.046875 24.320312 9.667969 24.035156 9.378906 C 23.753906 9.089844 23.230469 8.847656 22.46875 8.644531 Z M 22.46875 12.496094 "/>
<path fill="none" stroke-width="30" stroke-linecap="round" stroke-linejoin="round" stroke="rgb(100%, 100%, 100%)" stroke-opacity="1" stroke-miterlimit="4" d="M 455.390625 43.451451 L 455.390625 308.448661 " transform="matrix(0.0482759, 0, 0, 0.0482759, 0, 0)"/>
</svg>
