<?xml version="1.0" encoding="UTF-8"?>
<svg xmlns="http://www.w3.org/2000/svg" xmlns:xlink="http://www.w3.org/1999/xlink" width="28" height="28" viewBox="0 0 28 28">
<defs>
<filter id="filter-remove-color" x="0%" y="0%" width="100%" height="100%">
<feColorMatrix color-interpolation-filters="sRGB" values="0 0 0 0 1 0 0 0 0 1 0 0 0 0 1 0 0 0 1 0" />
</filter>
<mask id="mask-0">
<g filter="url(#filter-remove-color)">
<rect x="-2.8" y="-2.8" width="33.6" height="33.6" fill="rgb(0%, 0%, 0%)" fill-opacity="0.75"/>
</g>
</mask>
<clipPath id="clip-0">
<rect x="0" y="0" width="28" height="28"/>
</clipPath>
<g id="source-7" clip-path="url(#clip-0)">
<path fill-rule="nonzero" fill="rgb(100%, 100%, 100%)" fill-opacity="1" d="M 7.015625 3.582031 C 6.875 3.582031 6.730469 3.640625 6.628906 3.742188 C 6.527344 3.84375 6.46875 3.988281 6.46875 4.128906 L 6.46875 5.214844 L 8.175781 5.214844 L 8.175781 3.582031 Z M 10.25 3.582031 L 10.25 5.140625 L 12.273438 5.140625 L 12.273438 3.582031 Z M 14.371094 3.582031 L 14.371094 5.101562 L 16.394531 5.101562 L 16.394531 3.628906 C 15.882812 3.597656 15.308594 3.582031 14.65625 3.582031 Z M 18.59375 3.945312 L 18.59375 5.023438 L 20.617188 5.023438 L 20.617188 4.867188 C 20.59375 4.851562 20.574219 4.835938 20.550781 4.820312 C 19.988281 4.429688 19.332031 4.140625 18.59375 3.945312 Z M 20.628906 4.972656 L 20.628906 6.996094 L 22.363281 6.996094 C 22.359375 6.992188 22.359375 6.988281 22.355469 6.984375 C 21.953125 6.160156 21.417969 5.480469 20.757812 4.972656 Z M 12.308594 5.0625 L 12.308594 7.070312 L 14.332031 7.070312 L 14.332031 5.0625 Z M 16.488281 5.070312 L 16.488281 7.09375 L 18.515625 7.09375 L 18.515625 5.070312 Z M 8.210938 5.191406 L 8.210938 7.214844 L 10.234375 7.214844 L 10.234375 5.191406 Z M 18.59375 7.050781 L 18.59375 8.167969 C 18.601562 8.183594 18.613281 8.199219 18.625 8.214844 C 18.808594 8.472656 18.949219 8.757812 19.039062 9.074219 L 20.617188 9.074219 L 20.617188 7.050781 Z M 6.46875 7.238281 L 6.46875 9.265625 L 8.175781 9.265625 L 8.175781 7.238281 Z M 22.628906 7.636719 L 22.628906 9.023438 L 20.628906 9.023438 L 20.628906 11.046875 L 22.652344 11.046875 L 22.652344 9.078125 L 22.96875 9.078125 C 22.910156 8.578125 22.796875 8.097656 22.628906 7.636719 Z M 8.210938 9.238281 L 8.210938 11.261719 L 10.234375 11.261719 L 10.234375 9.238281 Z M 19.046875 11.101562 C 18.953125 11.457031 18.800781 11.765625 18.59375 12.03125 L 18.59375 13.125 L 20.617188 13.125 L 20.617188 11.101562 Z M 22.628906 11.101562 L 22.628906 12.417969 C 22.777344 11.996094 22.882812 11.558594 22.949219 11.101562 Z M 6.46875 11.289062 L 6.46875 13.3125 L 8.175781 13.3125 L 8.175781 11.289062 Z M 20.628906 13.070312 L 20.628906 15.097656 L 20.859375 15.097656 C 20.992188 14.980469 21.121094 14.859375 21.238281 14.734375 C 21.703125 14.226562 22.074219 13.671875 22.359375 13.070312 Z M 16.394531 13.113281 C 16.128906 13.152344 15.84375 13.183594 15.53125 13.199219 L 16.394531 13.199219 Z M 16.488281 13.171875 L 16.488281 15.195312 L 18.515625 15.195312 L 18.515625 13.171875 Z M 10.25 13.214844 L 10.25 13.242188 L 12.273438 13.242188 L 12.273438 13.214844 Z M 12.308594 13.214844 L 12.308594 15.1875 L 14.332031 15.1875 L 14.332031 13.214844 Z M 8.210938 13.289062 L 8.210938 15.3125 L 10.234375 15.3125 L 10.234375 13.289062 Z M 18.59375 15.148438 L 18.59375 16.261719 C 19.382812 16.03125 20.058594 15.710938 20.617188 15.292969 L 20.617188 15.148438 Z M 14.371094 15.222656 L 14.371094 16.699219 L 14.894531 16.699219 C 15.417969 16.699219 15.917969 16.679688 16.394531 16.640625 L 16.394531 15.222656 Z M 10.25 15.265625 L 10.25 16.699219 L 12.273438 16.699219 L 12.273438 15.265625 Z M 6.46875 15.339844 L 6.46875 17.363281 L 8.175781 17.363281 L 8.175781 15.339844 Z M 8.210938 17.339844 L 8.210938 19.363281 L 10.234375 19.363281 L 10.234375 17.339844 Z M 6.46875 19.390625 L 6.46875 21.414062 L 8.175781 21.414062 L 8.175781 19.390625 Z M 8.210938 21.386719 L 8.210938 23.414062 L 10.234375 23.414062 L 10.234375 21.386719 Z M 6.46875 23.4375 L 6.46875 24.386719 C 6.46875 24.53125 6.527344 24.671875 6.628906 24.773438 C 6.730469 24.875 6.875 24.933594 7.015625 24.933594 L 8.175781 24.933594 L 8.175781 23.4375 Z M 6.46875 23.4375 "/>
</g>
<mask id="mask-1">
<g filter="url(#filter-remove-color)">
<rect x="-2.8" y="-2.8" width="33.6" height="33.6" fill="rgb(0%, 0%, 0%)" fill-opacity="0.5"/>
</g>
</mask>
<clipPath id="clip-1">
<rect x="0" y="0" width="28" height="28"/>
</clipPath>
<g id="source-11" clip-path="url(#clip-1)">
<path fill-rule="nonzero" fill="rgb(100%, 100%, 100%)" fill-opacity="1" d="M 7.015625 3.515625 C 6.714844 3.515625 6.46875 3.761719 6.46875 4.0625 L 6.46875 24.320312 C 6.46875 24.621094 6.714844 24.867188 7.015625 24.867188 L 9.695312 24.867188 C 10 24.867188 10.246094 24.621094 10.246094 24.320312 L 10.246094 16.632812 L 14.890625 16.632812 C 17.832031 16.632812 19.980469 16.035156 21.234375 14.667969 C 22.421875 13.378906 23.023438 11.761719 23.023438 9.921875 C 23.023438 8.84375 22.804688 7.835938 22.355469 6.917969 C 21.910156 6.011719 21.308594 5.277344 20.550781 4.753906 C 19.800781 4.234375 18.890625 3.894531 17.835938 3.71875 C 17.835938 3.71875 17.832031 3.71875 17.828125 3.71875 C 17.058594 3.578125 16.015625 3.515625 14.65625 3.515625 Z M 7.5625 4.613281 L 14.65625 4.613281 C 15.984375 4.613281 16.992188 4.679688 17.640625 4.796875 C 17.644531 4.796875 17.644531 4.796875 17.648438 4.796875 C 18.582031 4.953125 19.335938 5.242188 19.929688 5.65625 C 20.515625 6.0625 20.996094 6.632812 21.371094 7.398438 C 21.742188 8.160156 21.929688 8.992188 21.929688 9.921875 C 21.929688 11.527344 21.4375 12.828125 20.429688 13.925781 C 19.496094 14.945312 17.679688 15.539062 14.890625 15.539062 L 9.695312 15.539062 C 9.394531 15.539062 9.148438 15.78125 9.148438 16.085938 L 9.148438 23.773438 L 7.5625 23.773438 Z M 9.695312 5.90625 C 9.394531 5.90625 9.148438 6.152344 9.148438 6.457031 L 9.148438 13.695312 C 9.148438 13.996094 9.394531 14.242188 9.695312 14.242188 L 14.933594 14.242188 C 16.734375 14.242188 18.097656 13.925781 18.988281 13.136719 C 19.835938 12.382812 20.261719 11.289062 20.261719 10.003906 C 20.261719 9.066406 20.015625 8.214844 19.519531 7.511719 C 19.023438 6.816406 18.339844 6.332031 17.523438 6.105469 C 17.523438 6.105469 17.523438 6.105469 17.519531 6.105469 C 16.953125 5.953125 16.113281 5.90625 14.878906 5.90625 Z M 10.246094 7.003906 L 14.878906 7.003906 C 16.074219 7.003906 16.898438 7.074219 17.234375 7.164062 C 17.234375 7.164062 17.238281 7.164062 17.238281 7.164062 C 17.824219 7.328125 18.261719 7.636719 18.625 8.148438 C 18.984375 8.652344 19.167969 9.25 19.167969 10.003906 C 19.167969 11.0625 18.863281 11.78125 18.257812 12.316406 C 17.691406 12.820312 16.597656 13.148438 14.933594 13.148438 L 10.246094 13.148438 Z M 10.246094 7.003906 "/>
</g>
</defs>
<path fill-rule="nonzero" fill="rgb(6.666667%, 6.666667%, 6.666667%)" fill-opacity="1" stroke-width="3.408" stroke-linecap="butt" stroke-linejoin="miter" stroke="rgb(93.333333%, 93.333333%, 93.333333%)" stroke-opacity="1" stroke-miterlimit="4" d="M 66.269531 1.780134 C 24.921875 1.780134 1.699219 23.141741 1.699219 66.835938 L 1.699219 516.967076 C 1.699219 557.748326 22.575335 579.190848 63.922991 579.190848 L 515.915179 579.190848 C 557.262835 579.190848 578.138951 558.800223 578.138951 516.967076 L 578.138951 66.835938 C 578.138951 24.193638 557.262835 1.780134 514.620536 1.780134 C 514.620536 1.780134 66.107701 1.618304 66.269531 1.780134 Z M 66.269531 1.780134 " transform="matrix(0.0482759, 0, 0, 0.0482759, 0, 0)"/>
<g mask="url(#mask-0)">
<use xlink:href="#source-7"/>
</g>
<g mask="url(#mask-1)">
<use xlink:href="#source-11"/>
</g>
</svg>
