<?xml version="1.0" encoding="UTF-8"?>
<svg xmlns="http://www.w3.org/2000/svg" xmlns:xlink="http://www.w3.org/1999/xlink" width="28" height="28" viewBox="0 0 28 28">
<path fill-rule="nonzero" fill="rgb(6.666667%, 6.666667%, 6.666667%)" fill-opacity="1" stroke-width="3.408" stroke-linecap="butt" stroke-linejoin="miter" stroke="rgb(93.333333%, 93.333333%, 93.333333%)" stroke-opacity="1" stroke-miterlimit="4" d="M 66.269531 1.780134 C 24.921875 1.780134 1.699219 23.141741 1.699219 66.835938 L 1.699219 516.967076 C 1.699219 557.748326 22.575335 579.190848 63.922991 579.190848 L 515.915179 579.190848 C 557.262835 579.190848 578.138951 558.800223 578.138951 516.967076 L 578.138951 66.835938 C 578.138951 24.193638 557.262835 1.780134 514.620536 1.780134 C 514.620536 1.780134 66.107701 1.618304 66.269531 1.780134 Z M 66.269531 1.780134 " transform="matrix(0.0482759, 0, 0, 0.0482759, 0, 0)"/>
<path fill-rule="nonzero" fill="rgb(100%, 100%, 100%)" fill-opacity="1" d="M 21.78125 20.378906 C 21.167969 20.246094 17.957031 20.359375 17.03125 20.359375 C 17 18.40625 16.996094 16.457031 16.976562 14.503906 C 16.398438 13.917969 16.703125 12.859375 17.503906 12.628906 C 18.300781 12.3125 19.28125 13.023438 19.152344 13.863281 C 19.1875 14.523438 18.394531 14.683594 18.125 15.046875 C 18.105469 15.820312 18.085938 16.59375 18.136719 17.363281 C 19.21875 17.449219 20.3125 17.386719 21.402344 17.402344 C 21.402344 17.742188 21.402344 18.078125 21.402344 18.417969 C 20.335938 18.417969 19.269531 18.417969 18.203125 18.417969 C 17.941406 19.007812 18.203125 19.492188 18.144531 19.4375 C 19.347656 19.441406 21.316406 19.4375 22.519531 19.441406 C 23.210938 20.8125 23.875 22.199219 24.570312 23.5625 C 25.300781 23.480469 25.832031 23.078125 26.109375 23.0625 C 26.414062 23.035156 26.421875 23.976562 26.386719 23.949219 C 25.734375 24.175781 24.703125 24.667969 24.046875 24.882812 C 23.882812 24.625 22.398438 21.605469 21.78125 20.378906 Z M 18.058594 26.230469 C 16.625 26.074219 15.621094 25.660156 14.855469 24.996094 C 13.761719 24.074219 13.128906 22.648438 13.296875 21.238281 C 13.378906 19.640625 14.480469 18.195312 15.941406 17.492188 C 16.171875 17.699219 16.019531 18.238281 16.058594 18.589844 C 16.121094 18.894531 15.699219 18.980469 15.546875 19.191406 C 14.460938 20.195312 14.226562 21.910156 14.910156 23.191406 C 15.636719 24.648438 17.472656 25.5625 19.109375 25.117188 C 20.335938 24.816406 21.308594 23.921875 21.953125 22.902344 C 22.222656 23.109375 22.800781 24 22.214844 24.390625 C 21.230469 25.585938 19.652344 26.335938 18.058594 26.230469 Z M 18.058594 26.230469 "/>
<path fill-rule="nonzero" fill="rgb(100%, 100%, 100%)" fill-opacity="1" d="M 2.46875 20.40625 L 2.46875 2.550781 L 9.207031 2.550781 C 10.390625 2.550781 11.296875 2.605469 11.921875 2.71875 C 12.800781 2.867188 13.535156 3.144531 14.125 3.554688 C 14.71875 3.964844 15.195312 4.539062 15.558594 5.277344 C 15.917969 6.015625 16.101562 6.828125 16.101562 7.714844 C 16.101562 9.234375 15.617188 10.519531 14.648438 11.570312 C 13.683594 12.621094 11.9375 13.148438 9.414062 13.148438 L 4.832031 13.148438 L 4.832031 20.40625 Z M 4.832031 11.039062 L 9.449219 11.039062 C 10.976562 11.039062 12.058594 10.753906 12.703125 10.1875 C 13.34375 9.617188 13.664062 8.820312 13.664062 7.789062 C 13.664062 7.039062 13.476562 6.402344 13.097656 5.867188 C 12.71875 5.335938 12.222656 4.984375 11.605469 4.816406 C 11.207031 4.710938 10.472656 4.65625 9.402344 4.65625 L 4.832031 4.65625 Z M 4.832031 11.039062 "/>
</svg>
