<?xml version="1.0" encoding="UTF-8"?>
<svg xmlns="http://www.w3.org/2000/svg" xmlns:xlink="http://www.w3.org/1999/xlink" width="28" height="28" viewBox="0 0 28 28">
<path fill-rule="nonzero" fill="rgb(6.666667%, 6.666667%, 6.666667%)" fill-opacity="1" stroke-width="3.408" stroke-linecap="butt" stroke-linejoin="miter" stroke="rgb(93.333333%, 93.333333%, 93.333333%)" stroke-opacity="1" stroke-miterlimit="4" d="M 66.269531 1.780134 C 24.921875 1.780134 1.699219 23.141741 1.699219 66.835938 L 1.699219 516.967076 C 1.699219 557.748326 22.575335 579.190848 63.922991 579.190848 L 515.915179 579.190848 C 557.262835 579.190848 578.138951 558.881138 578.138951 516.967076 L 578.138951 66.835938 C 578.138951 24.193638 557.262835 1.780134 514.620536 1.780134 C 514.620536 1.780134 66.107701 1.618304 66.269531 1.780134 Z M 66.269531 1.780134 " transform="matrix(0.0482759, 0, 0, 0.0482759, 0, 0)"/>
<path fill-rule="nonzero" fill="rgb(100%, 100%, 100%)" fill-opacity="1" d="M 15.671875 25.398438 C 16.851562 24.886719 17.40625 24.957031 18.378906 25.464844 C 19.351562 25.972656 20.324219 25.972656 21.46875 25.386719 C 22.617188 24.800781 23.550781 25.136719 24.070312 25.449219 C 24.503906 25.714844 24.9375 25.816406 25.585938 25.816406 L 25.585938 23.476562 C 24.609375 23.480469 24.1875 23.148438 24.1875 23.148438 C 23.179688 22.523438 22.253906 22.644531 20.980469 23.308594 C 20.253906 23.683594 19.105469 23.585938 18.289062 23.160156 C 17.167969 22.578125 16.53125 22.71875 15.355469 23.242188 C 14.445312 23.648438 13.621094 23.648438 12.714844 23.242188 C 11.539062 22.71875 10.933594 22.578125 9.808594 23.160156 C 8.996094 23.585938 7.828125 23.683594 7.101562 23.308594 C 5.832031 22.644531 4.921875 22.523438 3.910156 23.148438 C 3.910156 23.148438 3.476562 23.476562 2.515625 23.476562 L 2.515625 25.816406 C 3.121094 25.816406 3.59375 25.699219 4 25.449219 C 4.519531 25.132812 5.484375 24.800781 6.628906 25.386719 C 7.777344 25.972656 8.75 25.972656 9.722656 25.464844 C 10.695312 24.957031 11.234375 24.863281 12.417969 25.375 C 13.5625 25.960938 14.699219 25.90625 15.671875 25.398438 Z M 15.671875 25.398438 "/>
<path fill-rule="nonzero" fill="rgb(100%, 100%, 100%)" fill-opacity="1" d="M 12.378906 1.789062 L 12.378906 4.105469 L 9.6875 4.105469 L 9.6875 5.832031 L 7.765625 5.832031 L 7.765625 9.117188 L 6.769531 9.523438 C 6.167969 9.777344 5.917969 10.3125 6.167969 10.898438 L 7.816406 14.6875 L 7.816406 19.964844 C 6.75 19.964844 5.839844 18.671875 3.898438 19.753906 C 3.898438 19.753906 3.34375 20.0625 2.503906 20.082031 L 2.503906 22.34375 C 3.160156 22.296875 3.476562 22.191406 3.972656 21.914062 C 4.503906 21.617188 5.472656 21.328125 6.617188 21.914062 C 7.765625 22.5 8.738281 22.5 9.710938 21.992188 C 10.683594 21.480469 11.53125 21.457031 12.441406 21.914062 C 13.589844 22.5 14.488281 22.507812 15.644531 21.929688 C 16.578125 21.453125 17.417969 21.480469 18.390625 21.992188 C 19.363281 22.5 20.335938 22.5 21.484375 21.914062 C 22.628906 21.328125 23.59375 21.625 24.125 21.914062 C 24.59375 22.164062 24.921875 22.296875 25.597656 22.34375 L 25.597656 20.0625 C 24.738281 20.042969 24.203125 19.730469 24.203125 19.730469 C 22.214844 18.648438 21.351562 19.964844 20.285156 19.964844 L 20.285156 14.6875 L 21.933594 10.898438 C 22.183594 10.3125 21.933594 9.777344 21.332031 9.523438 L 20.335938 9.117188 L 20.335938 5.832031 L 18.414062 5.832031 L 18.414062 4.105469 L 15.722656 4.105469 L 15.722656 1.789062 Z M 11.109375 5.476562 L 16.992188 5.476562 L 16.992188 7.179688 L 18.914062 7.179688 L 18.914062 8.503906 L 14.050781 6.5 L 9.1875 8.503906 L 9.1875 7.179688 L 11.109375 7.179688 Z M 11.109375 5.476562 "/>
</svg>
