<?xml version="1.0" encoding="UTF-8"?>
<svg xmlns="http://www.w3.org/2000/svg" xmlns:xlink="http://www.w3.org/1999/xlink" width="28" height="28" viewBox="0 0 28 28">
<path fill-rule="nonzero" fill="rgb(6.666667%, 6.666667%, 6.666667%)" fill-opacity="1" stroke-width="3.408" stroke-linecap="butt" stroke-linejoin="miter" stroke="rgb(93.333333%, 93.333333%, 93.333333%)" stroke-opacity="1" stroke-miterlimit="4" d="M 66.269531 1.780134 C 24.921875 1.780134 1.699219 23.141741 1.699219 66.835938 L 1.699219 516.967076 C 1.699219 557.748326 22.575335 579.190848 63.922991 579.190848 L 515.915179 579.190848 C 557.262835 579.190848 578.138951 558.800223 578.138951 516.967076 L 578.138951 66.835938 C 578.138951 24.193638 557.262835 1.780134 514.620536 1.780134 C 514.620536 1.780134 66.107701 1.618304 66.269531 1.780134 Z M 66.269531 1.780134 " transform="matrix(0.0482759, 0, 0, 0.0482759, 0, 0)"/>
<path fill-rule="nonzero" fill="rgb(100%, 100%, 100%)" fill-opacity="1" stroke-width="10.000001" stroke-linecap="round" stroke-linejoin="round" stroke="rgb(100%, 100%, 100%)" stroke-opacity="1" stroke-miterlimit="4" d="M 100.258859 5.763067 C 60.345424 5.483464 26.792974 47.074521 35.320888 86.079244 C 40.912963 118.722982 72.508187 145.564942 106.130538 142.279598 C 128.63864 140.881579 149.678822 127.5305 161.002774 108.167941 C 171.208311 100.129333 186.516616 110.824176 196.652252 102.15646 C 203.502544 94.956664 209.304322 85.520037 219.020552 82.304594 C 226.779556 84.471523 230.274603 92.929536 236.705489 96.843989 C 243.206276 92.719834 246.911026 82.863801 255.718544 82.933702 C 262.009629 86.638452 265.993982 93.279041 271.865661 97.263394 C 278.576151 92.929536 282.560504 82.723999 291.717527 82.654099 C 298.078512 86.288947 301.573559 93.768348 308.284049 96.634286 C 317.510973 88.316074 327.0175 79.648358 334.706604 69.722425 C 334.706604 64.13035 327.087401 60.984808 324.081661 56.371346 C 317.790577 50.849172 312.478105 40.573734 302.622073 42.740663 C 289.201093 43.789177 275.57041 42.391159 262.07953 42.950366 C 229.365891 42.950366 196.442549 43.719276 163.868712 42.111555 C 154.991293 34.492353 150.238029 22.469391 139.263582 17.087019 C 127.869729 9.467817 114.029344 5.343662 100.258859 5.763067 Z M 73.067394 50.499667 C 92.639657 50.010361 104.313114 77.761033 90.123223 91.251914 C 78.589569 103.903984 54.054339 99.849729 49.231175 82.863801 C 43.848803 67.695298 56.36107 48.822045 73.067394 50.499667 Z M 73.067394 50.499667 " transform="matrix(0.0558827, 0, 0, 0.0558827, 4.0418, 1.873257)"/>
<path fill-rule="nonzero" fill="rgb(100%, 100%, 100%)" fill-opacity="1" d="M 10.40625 11.546875 C 9.257812 11.546875 8.648438 12.175781 8.367188 12.90625 L 6.878906 16.761719 C 6.285156 16.835938 5.238281 17.53125 5.238281 18.84375 L 5.238281 23.746094 L 6.6875 23.746094 L 6.6875 25.3125 C 6.6875 27.238281 9.417969 27.214844 9.417969 25.3125 L 9.417969 23.746094 L 19.234375 23.746094 L 19.234375 25.3125 C 19.234375 27.214844 21.960938 27.238281 21.960938 25.3125 L 21.960938 23.746094 L 23.414062 23.746094 L 23.414062 18.84375 C 23.414062 17.53125 22.367188 16.835938 21.773438 16.761719 L 20.28125 12.90625 C 20 12.175781 19.390625 11.546875 18.242188 11.546875 Z M 10.390625 12.949219 L 18.261719 12.949219 C 18.75 12.953125 18.960938 13.261719 19.101562 13.6875 L 20.226562 16.71875 L 8.421875 16.71875 L 9.546875 13.6875 C 9.6875 13.261719 9.898438 12.953125 10.390625 12.949219 Z M 8.097656 18.195312 C 8.792969 18.195312 9.355469 18.777344 9.355469 19.492188 C 9.355469 20.210938 8.792969 20.792969 8.097656 20.792969 C 7.402344 20.792969 6.835938 20.210938 6.835938 19.492188 C 6.835938 18.777344 7.402344 18.195312 8.097656 18.195312 Z M 20.554688 18.195312 C 21.25 18.195312 21.8125 18.777344 21.8125 19.492188 C 21.8125 20.210938 21.25 20.792969 20.554688 20.792969 C 19.859375 20.792969 19.292969 20.210938 19.292969 19.492188 C 19.292969 18.777344 19.859375 18.195312 20.554688 18.195312 Z M 20.554688 18.195312 "/>
</svg>
