<?xml version="1.0" encoding="UTF-8"?>
<svg xmlns="http://www.w3.org/2000/svg" xmlns:xlink="http://www.w3.org/1999/xlink" width="28" height="28" viewBox="0 0 28 28">
<path fill-rule="nonzero" fill="rgb(6.666667%, 6.666667%, 6.666667%)" fill-opacity="1" stroke-width="3.408" stroke-linecap="butt" stroke-linejoin="miter" stroke="rgb(93.333333%, 93.333333%, 93.333333%)" stroke-opacity="1" stroke-miterlimit="4" d="M 66.269531 1.780134 C 24.921875 1.780134 1.699219 23.141741 1.699219 66.835938 L 1.699219 516.967076 C 1.699219 557.748326 22.575335 579.190848 63.922991 579.190848 L 515.915179 579.190848 C 557.262835 579.190848 578.138951 558.800223 578.138951 516.967076 L 578.138951 66.835938 C 578.138951 24.193638 557.262835 1.780134 514.620536 1.780134 C 514.620536 1.780134 66.107701 1.618304 66.269531 1.780134 Z M 66.269531 1.780134 " transform="matrix(0.0482759, 0, 0, 0.0482759, 0, 0)"/>
<path fill="none" stroke-width="26" stroke-linecap="butt" stroke-linejoin="miter" stroke="rgb(100%, 100%, 100%)" stroke-opacity="1" stroke-miterlimit="4" d="M 278.893347 461.978427 C 278.893347 505.249238 243.842439 540.377692 200.494082 540.377692 C 157.223271 540.377692 122.172363 505.249238 122.172363 461.978427 C 122.172363 418.707616 157.223271 383.579162 200.494082 383.579162 C 243.842439 383.579162 278.893347 418.707616 278.893347 461.978427 Z M 278.893347 461.978427 " transform="matrix(-0.0503732, 0, 0, 0.0503732, 15.611239, -0.865063)"/>
<path fill="none" stroke-width="26" stroke-linecap="butt" stroke-linejoin="miter" stroke="rgb(100%, 100%, 100%)" stroke-opacity="1" stroke-miterlimit="4" d="M 278.880052 461.954435 C 278.880052 505.225246 243.829144 540.3537 200.558333 540.3537 C 157.209976 540.3537 122.159069 505.225246 122.159069 461.954435 C 122.159069 418.683624 157.209976 383.55517 200.558333 383.55517 C 243.829144 383.55517 278.880052 418.683624 278.880052 461.954435 Z M 278.880052 461.954435 " transform="matrix(-0.0503732, 0, 0, 0.0503732, 32.532445, -0.94198)"/>
<path fill="none" stroke-width="21.781893" stroke-linecap="butt" stroke-linejoin="round" stroke="rgb(100%, 100%, 100%)" stroke-opacity="1" stroke-miterlimit="4" d="M 399.882812 323.417969 L 189.584263 324.469866 L 115.223214 462.511161 L 257.553013 462.511161 L 406.194196 361.609933 " transform="matrix(0.0482759, 0, 0, 0.0482759, 0, 0)"/>
<path fill-rule="evenodd" fill="rgb(100%, 100%, 100%)" fill-opacity="1" d="M 18.914062 11.617188 C 19.464844 11.617188 19.882812 11.605469 20.308594 12.257812 C 20.429688 12.472656 20.488281 12.738281 20.441406 13.003906 C 20.386719 13.304688 20.210938 13.601562 20 13.777344 C 19.722656 14.007812 19.457031 13.988281 19.5 14.199219 C 19.554688 14.464844 19.722656 14.835938 19.902344 15.4375 C 20.085938 16.050781 20.304688 16.800781 20.515625 17.535156 C 20.730469 18.273438 20.941406 19 21.105469 19.566406 C 21.1875 19.851562 21.261719 20.09375 21.316406 20.277344 C 21.371094 20.453125 21.417969 20.589844 21.414062 20.582031 C 21.585938 20.886719 21.609375 21.082031 21.898438 21.34375 C 22.226562 21.625 22.488281 21.835938 22.582031 21.902344 C 22.816406 22.070312 22.921875 22.429688 22.800781 22.605469 C 22.644531 22.84375 22.324219 22.882812 22.089844 22.808594 C 21.867188 22.738281 21.515625 22.617188 21.105469 22.28125 L 21.105469 22.273438 L 21.097656 22.273438 C 20.53125 21.785156 20.320312 21.195312 20.300781 21.160156 L 20.269531 21.113281 L 20.25 21.0625 C 20.199219 20.941406 20.171875 20.835938 20.113281 20.644531 C 20.054688 20.453125 19.980469 20.207031 19.898438 19.921875 C 19.730469 19.351562 19.519531 18.625 19.308594 17.886719 C 19.09375 17.148438 18.878906 16.40625 18.695312 15.800781 C 18.515625 15.195312 18.402344 14.699219 18.359375 14.59375 C 18.257812 14.339844 18.203125 14.0625 18.273438 13.78125 C 18.34375 13.503906 18.554688 13.28125 18.742188 13.226562 C 19.171875 13.109375 19.058594 12.796875 18.839844 12.796875 L 16.996094 12.792969 L 16.992188 11.617188 C 16.992188 11.617188 18.1875 11.617188 18.914062 11.617188 Z M 18.914062 11.617188 "/>
<path fill-rule="evenodd" fill="rgb(100%, 100%, 100%)" fill-opacity="1" stroke-width="26.0861" stroke-linecap="butt" stroke-linejoin="miter" stroke="rgb(100%, 100%, 100%)" stroke-opacity="1" stroke-miterlimit="4" d="M 254.801897 458.222656 L 182.706473 281.665737 " transform="matrix(0.0482759, 0, 0, 0.0482759, 0, 0)"/>
<path fill-rule="evenodd" fill="rgb(100%, 100%, 100%)" fill-opacity="1" stroke-width="9.521427" stroke-linecap="round" stroke-linejoin="miter" stroke="rgb(100%, 100%, 100%)" stroke-opacity="1" stroke-miterlimit="4" d="M 279.561942 413.152902 L 236.029576 514.539621 " transform="matrix(0.0482759, 0, 0, 0.0482759, 0, 0)"/>
<path fill-rule="evenodd" fill="rgb(100%, 100%, 100%)" fill-opacity="1" stroke-width="31.305" stroke-linecap="butt" stroke-linejoin="miter" stroke="rgb(100%, 100%, 100%)" stroke-opacity="1" stroke-miterlimit="4" d="M 278.85502 461.844996 C 278.85502 505.127966 243.926101 540.314841 200.471225 540.314841 C 157.291379 540.314841 122.087429 505.127966 122.087429 461.844996 C 122.087429 418.562026 157.291379 383.68654 200.471225 383.68654 C 243.926101 383.68654 278.85502 418.562026 278.85502 461.844996 Z M 278.85502 461.844996 " transform="matrix(-0.014203, 0, 0, 0.0125446, 15.241814, 16.54617)"/>
<path fill-rule="evenodd" fill="rgb(100%, 100%, 100%)" fill-opacity="1" stroke-width="13.304419" stroke-linecap="round" stroke-linejoin="miter" stroke="rgb(100%, 100%, 100%)" stroke-opacity="1" stroke-miterlimit="4" d="M 298.981585 413.152902 L 260.46596 413.557478 " transform="matrix(0.0482759, 0, 0, 0.0482759, 0, 0)"/>
<path fill-rule="evenodd" fill="rgb(100%, 100%, 100%)" fill-opacity="1" stroke-width="13.30391" stroke-linecap="round" stroke-linejoin="miter" stroke="rgb(100%, 100%, 100%)" stroke-opacity="1" stroke-miterlimit="4" d="M 255.611049 513.083147 L 217.176339 513.406808 " transform="matrix(0.0482759, 0, 0, 0.0482759, 0, 0)"/>
<path fill-rule="evenodd" fill="rgb(100%, 100%, 100%)" fill-opacity="1" d="M 7.117188 12.835938 L 11.484375 12.835938 C 11.648438 12.835938 11.859375 13.125 11.648438 13.316406 C 11.421875 13.535156 9.371094 13.980469 9.371094 13.980469 C 9.371094 13.980469 8.8125 14.132812 8.511719 14.097656 C 8.210938 14.0625 7.179688 13.972656 7.117188 12.835938 Z M 7.117188 12.835938 "/>
<path fill-rule="nonzero" fill="rgb(100%, 100%, 100%)" fill-opacity="1" stroke-width="10.000001" stroke-linecap="round" stroke-linejoin="round" stroke="rgb(100%, 100%, 100%)" stroke-opacity="1" stroke-miterlimit="4" d="M 100.219329 5.722091 C 60.305894 5.512388 26.823345 47.103446 35.351259 86.108169 C 40.873433 118.682006 72.538558 145.593867 106.160909 142.308523 C 128.669011 140.910504 149.639292 127.489524 160.963244 108.196865 C 171.238681 100.158257 186.546987 110.7832 196.612722 102.115484 C 203.532915 94.985588 209.264792 85.479061 218.981022 82.263617 C 226.809927 84.500447 230.304974 92.958461 236.73586 96.872913 C 243.166746 92.678857 246.941397 82.892726 255.748915 82.892726 C 261.970098 86.667376 265.954452 93.307966 271.896032 97.222418 C 278.606522 92.958461 282.590875 82.683023 291.677997 82.683023 C 298.038982 86.317872 301.60393 93.797272 308.244519 96.663211 C 317.541344 88.275098 326.97797 79.677283 334.736974 69.75135 C 334.667073 64.089374 327.047871 61.013732 324.042131 56.400271 C 317.751047 50.808196 312.508476 40.602659 302.582543 42.699687 C 289.231464 43.818102 275.53088 42.420083 262.039999 42.90939 C 229.396262 42.90939 196.403019 43.748201 163.899083 42.140479 C 154.951763 34.451376 150.198499 22.498316 139.224052 17.046043 C 127.9001 9.496741 114.059715 5.302685 100.219329 5.722091 Z M 73.097765 50.528592 C 92.600127 50.039285 104.273583 77.789957 90.083693 91.280838 C 78.619939 103.863007 54.014809 99.808753 49.191645 82.892726 C 43.879173 67.724222 56.32154 48.850969 73.097765 50.528592 Z M 73.097765 50.528592 " transform="matrix(0.0558827, 0, 0, 0.0558827, 3.848697, 2.356016)"/>
</svg>
