<?xml version="1.0" encoding="UTF-8"?>
<svg xmlns="http://www.w3.org/2000/svg" xmlns:xlink="http://www.w3.org/1999/xlink" width="28" height="28" viewBox="0 0 28 28">
<path fill-rule="nonzero" fill="rgb(6.666667%, 6.666667%, 6.666667%)" fill-opacity="1" stroke-width="3.408" stroke-linecap="butt" stroke-linejoin="miter" stroke="rgb(93.333333%, 93.333333%, 93.333333%)" stroke-opacity="1" stroke-miterlimit="4" d="M 66.269531 1.780134 C 24.921875 1.780134 1.699219 23.141741 1.699219 66.835938 L 1.699219 516.967076 C 1.699219 557.748326 22.575335 579.190848 63.922991 579.190848 L 515.915179 579.190848 C 557.262835 579.190848 578.138951 558.881138 578.138951 516.967076 L 578.138951 66.835938 C 578.138951 24.193638 557.262835 1.780134 514.620536 1.780134 C 514.620536 1.780134 66.107701 1.618304 66.269531 1.780134 Z M 66.269531 1.780134 " transform="matrix(0.0482759, 0, 0, 0.0482759, 0, 0)"/>
<path fill-rule="nonzero" fill="rgb(100%, 100%, 100%)" fill-opacity="1" d="M 10.433594 14.085938 C 10.433594 16.117188 12.082031 17.765625 14.113281 17.765625 C 16.148438 17.765625 17.796875 16.117188 17.796875 14.085938 C 17.796875 12.050781 16.148438 10.402344 14.113281 10.402344 C 12.082031 10.402344 10.433594 12.050781 10.433594 14.085938 Z M 10.433594 14.085938 "/>
<path fill="none" stroke-width="13.098592" stroke-linecap="butt" stroke-linejoin="miter" stroke="rgb(100%, 100%, 100%)" stroke-opacity="1" stroke-miterlimit="4" d="M 383.605344 119.69783 C 383.605344 172.24762 341.022591 214.830373 288.4728 214.830373 C 235.923009 214.830373 193.340257 172.24762 193.340257 119.69783 C 193.340257 67.148039 235.923009 24.52477 288.4728 24.52477 C 341.022591 24.52477 383.605344 67.148039 383.605344 119.69783 Z M 383.605344 119.69783 " transform="matrix(-0.0964115, 0, 0, 0.0964115, 41.925388, 2.545685)"/>
<path fill-rule="nonzero" fill="rgb(100%, 100%, 100%)" fill-opacity="1" stroke-width="12.355635" stroke-linecap="round" stroke-linejoin="round" stroke="rgb(100%, 100%, 100%)" stroke-opacity="1" stroke-miterlimit="4" d="M 326.007254 401.339286 L 326.007254 557.748326 L 247.276786 479.098772 Z M 326.007254 401.339286 " transform="matrix(0.0482759, 0, 0, 0.0482759, 0, 0)"/>
<path fill-rule="nonzero" fill="rgb(100%, 100%, 100%)" fill-opacity="1" stroke-width="12.355635" stroke-linecap="round" stroke-linejoin="round" stroke="rgb(100%, 100%, 100%)" stroke-opacity="1" stroke-miterlimit="4" d="M 402.472098 260.870536 L 558.881138 260.870536 L 480.231585 339.601004 Z M 402.472098 260.870536 " transform="matrix(0.0482759, 0, 0, 0.0482759, 0, 0)"/>
<path fill-rule="nonzero" fill="rgb(100%, 100%, 100%)" fill-opacity="1" stroke-width="12.355635" stroke-linecap="round" stroke-linejoin="round" stroke="rgb(100%, 100%, 100%)" stroke-opacity="1" stroke-miterlimit="4" d="M 268.719308 183.111049 L 268.719308 26.702009 L 347.368862 105.351562 Z M 268.719308 183.111049 " transform="matrix(0.0482759, 0, 0, 0.0482759, 0, 0)"/>
<path fill-rule="nonzero" fill="rgb(100%, 100%, 100%)" fill-opacity="1" stroke-width="12.355635" stroke-linecap="round" stroke-linejoin="round" stroke="rgb(100%, 100%, 100%)" stroke-opacity="1" stroke-miterlimit="4" d="M 184.243862 327.544643 L 27.834821 327.544643 L 106.484375 248.814174 Z M 184.243862 327.544643 " transform="matrix(0.0482759, 0, 0, 0.0482759, 0, 0)"/>
</svg>
