<?xml version="1.0" encoding="UTF-8"?>
<svg xmlns="http://www.w3.org/2000/svg" xmlns:xlink="http://www.w3.org/1999/xlink" width="28" height="28" viewBox="0 0 28 28">
<path fill-rule="nonzero" fill="rgb(6.666667%, 6.666667%, 6.666667%)" fill-opacity="1" stroke-width="3.408" stroke-linecap="butt" stroke-linejoin="miter" stroke="rgb(93.333333%, 93.333333%, 93.333333%)" stroke-opacity="1" stroke-miterlimit="4" d="M 66.269531 1.780134 C 24.921875 1.780134 1.699219 23.141741 1.699219 66.835938 L 1.699219 516.967076 C 1.699219 557.748326 22.575335 579.190848 63.922991 579.190848 L 515.915179 579.190848 C 557.262835 579.190848 578.138951 558.881138 578.138951 516.967076 L 578.138951 66.835938 C 578.138951 24.193638 557.262835 1.780134 514.620536 1.780134 C 514.620536 1.780134 66.107701 1.618304 66.269531 1.780134 Z M 66.269531 1.780134 " transform="matrix(0.0482759, 0, 0, 0.0482759, 0, 0)"/>
<path fill-rule="nonzero" fill="rgb(100%, 100%, 100%)" fill-opacity="1" d="M 5.867188 6.382812 L 10.722656 7.707031 L 13.417969 5.835938 L 14.355469 6.058594 L 11.683594 7.9375 L 26.398438 11.972656 L 25.320312 15.921875 L 10.550781 11.894531 C 4.832031 10.195312 5.871094 6.378906 5.871094 6.378906 "/>
<path fill-rule="nonzero" fill="rgb(100%, 100%, 100%)" fill-opacity="1" d="M 18.628906 16.488281 C 18.609375 16.15625 18.550781 15.84375 18.441406 15.546875 L 25.101562 17.402344 L 24.886719 18.21875 Z M 18.628906 16.488281 "/>
<path fill-rule="nonzero" fill="rgb(100%, 100%, 100%)" fill-opacity="1" d="M 12.582031 14.816406 C 12.765625 14.554688 12.976562 14.316406 13.21875 14.117188 L 2.113281 11.050781 L 2.113281 11.929688 Z M 12.582031 14.816406 "/>
<path fill-rule="nonzero" fill="rgb(100%, 100%, 100%)" fill-opacity="1" d="M 15.328125 17.734375 C 15.925781 17.734375 16.410156 17.253906 16.410156 16.65625 C 16.410156 16.058594 15.925781 15.574219 15.328125 15.574219 C 14.730469 15.574219 14.246094 16.058594 14.246094 16.65625 C 14.246094 17.253906 14.730469 17.734375 15.328125 17.734375 Z M 26.171875 24.371094 C 25.644531 24.371094 25.140625 24.25 24.695312 24.050781 C 24.230469 23.835938 23.710938 23.710938 23.167969 23.710938 C 22.625 23.710938 22.105469 23.835938 21.648438 24.050781 C 21.195312 24.25 20.695312 24.371094 20.167969 24.371094 C 19.636719 24.371094 19.136719 24.25 18.683594 24.050781 C 18.222656 23.835938 17.703125 23.710938 17.164062 23.710938 C 16.617188 23.710938 16.101562 23.835938 15.636719 24.050781 C 15.191406 24.25 14.683594 24.371094 14.160156 24.371094 C 13.632812 24.371094 13.128906 24.25 12.679688 24.050781 C 12.214844 23.835938 11.695312 23.710938 11.152344 23.710938 C 10.613281 23.710938 10.089844 23.835938 9.632812 24.050781 C 9.183594 24.25 8.675781 24.371094 8.152344 24.371094 C 7.625 24.371094 7.121094 24.25 6.667969 24.050781 C 6.210938 23.835938 5.6875 23.710938 5.148438 23.710938 C 4.609375 23.710938 4.085938 23.835938 3.625 24.050781 C 3.175781 24.25 2.667969 24.371094 2.148438 24.371094 L 2.113281 15.554688 L 14.257812 18.898438 C 13.421875 18.496094 12.839844 17.644531 12.839844 16.65625 C 12.839844 15.277344 13.957031 14.160156 15.335938 14.160156 C 16.710938 14.160156 17.828125 15.28125 17.828125 16.65625 C 17.828125 18.035156 16.707031 19.152344 15.335938 19.152344 C 15.253906 19.152344 15.167969 19.132812 15.089844 19.125 L 26.160156 22.175781 Z M 26.171875 24.371094 "/>
</svg>
