<?xml version="1.0" encoding="UTF-8"?>
<svg xmlns="http://www.w3.org/2000/svg" xmlns:xlink="http://www.w3.org/1999/xlink" width="28" height="28" viewBox="0 0 28 28">
<defs>
<filter id="filter-remove-color" x="0%" y="0%" width="100%" height="100%">
<feColorMatrix color-interpolation-filters="sRGB" values="0 0 0 0 1 0 0 0 0 1 0 0 0 0 1 0 0 0 1 0" />
</filter>
<mask id="mask-0">
<g filter="url(#filter-remove-color)">
<rect x="-2.8" y="-2.8" width="33.6" height="33.6" fill="rgb(0%, 0%, 0%)" fill-opacity="0.5"/>
</g>
</mask>
<clipPath id="clip-0">
<rect x="0" y="0" width="28" height="28"/>
</clipPath>
<g id="source-8" clip-path="url(#clip-0)">
<path fill="none" stroke-width="5.000045" stroke-linecap="round" stroke-linejoin="round" stroke="rgb(100%, 100%, 100%)" stroke-opacity="1" stroke-miterlimit="4" d="M 56.644812 29.294305 C 56.644812 42.968831 45.551305 54.062338 31.867039 54.062338 C 18.192514 54.062338 7.099006 42.968831 7.099006 29.294305 C 7.099006 15.61004 18.192514 4.516532 31.867039 4.516532 C 45.551305 4.516532 56.644812 15.61004 56.644812 29.294305 Z M 56.644812 29.294305 " transform="matrix(0.401065, 0, 0, 0.401065, 1.293461, 4.008889)"/>
</g>
<mask id="mask-1">
<g filter="url(#filter-remove-color)">
<rect x="-2.8" y="-2.8" width="33.6" height="33.6" fill="rgb(0%, 0%, 0%)" fill-opacity="0.5"/>
</g>
</mask>
<clipPath id="clip-1">
<rect x="0" y="0" width="28" height="28"/>
</clipPath>
<g id="source-12" clip-path="url(#clip-1)">
<path fill-rule="evenodd" fill="rgb(100%, 100%, 100%)" fill-opacity="1" d="M 2.5625 1.859375 L 25.589844 1.859375 L 25.589844 3.777344 L 2.5625 3.777344 Z M 2.5625 1.859375 "/>
</g>
</defs>
<path fill-rule="nonzero" fill="rgb(6.666667%, 6.666667%, 6.666667%)" fill-opacity="1" stroke-width="3.408" stroke-linecap="butt" stroke-linejoin="miter" stroke="rgb(93.333333%, 93.333333%, 93.333333%)" stroke-opacity="1" stroke-miterlimit="4" d="M 66.269531 1.780134 C 24.921875 1.780134 1.699219 23.141741 1.699219 66.835938 L 1.699219 516.967076 C 1.699219 557.748326 22.575335 579.190848 63.922991 579.190848 L 515.915179 579.190848 C 557.262835 579.190848 578.138951 558.800223 578.138951 516.967076 L 578.138951 66.835938 C 578.138951 24.193638 557.262835 1.780134 514.620536 1.780134 C 514.620536 1.780134 66.107701 1.618304 66.269531 1.780134 Z M 66.269531 1.780134 " transform="matrix(0.0482759, 0, 0, 0.0482759, 0, 0)"/>
<path fill-rule="nonzero" fill="rgb(100%, 100%, 100%)" fill-opacity="1" d="M 11.570312 9.429688 L 10.214844 9.429688 C 8.558594 9.429688 7.238281 10.785156 7.238281 12.4375 L 7.238281 18.566406 C 7.238281 19.890625 8.089844 21.003906 9.277344 21.398438 L 9.277344 22.347656 L 10.332031 22.347656 L 10.332031 21.589844 L 17.710938 21.589844 L 17.710938 22.347656 L 18.765625 22.347656 L 18.765625 21.433594 C 20.007812 21.066406 20.914062 19.933594 20.914062 18.566406 L 20.914062 12.4375 C 20.914062 10.785156 19.59375 9.429688 17.9375 9.429688 Z M 15.191406 9.429688 L 12.78125 9.429688 Z M 9.542969 10.890625 L 18.382812 10.890625 C 19.011719 10.890625 19.558594 11.390625 19.558594 12.019531 L 19.558594 16.191406 C 19.558594 16.824219 19.011719 17.320312 18.382812 17.320312 L 9.542969 17.320312 C 8.914062 17.320312 8.378906 16.824219 8.378906 16.191406 L 8.378906 12.019531 C 8.378906 11.390625 8.914062 10.890625 9.542969 10.890625 Z M 9.867188 18.171875 C 10.386719 18.171875 10.800781 18.601562 10.800781 19.121094 C 10.800781 19.640625 10.386719 20.054688 9.867188 20.054688 C 9.347656 20.054688 8.929688 19.640625 8.929688 19.121094 C 8.929688 18.601562 9.347656 18.171875 9.867188 18.171875 Z M 18.058594 18.171875 C 18.578125 18.171875 19.003906 18.601562 19.003906 19.121094 C 19.003906 19.640625 18.578125 20.054688 18.058594 20.054688 C 17.539062 20.054688 17.121094 19.640625 17.121094 19.121094 C 17.121094 18.601562 17.539062 18.171875 18.058594 18.171875 Z M 18.058594 18.171875 "/>
<g mask="url(#mask-0)">
<use xlink:href="#source-8"/>
</g>
<g mask="url(#mask-1)">
<use xlink:href="#source-12"/>
</g>
</svg>
