<?xml version="1.0" encoding="UTF-8"?>
<svg xmlns="http://www.w3.org/2000/svg" xmlns:xlink="http://www.w3.org/1999/xlink" width="28" height="28" viewBox="0 0 28 28">
<path fill-rule="nonzero" fill="rgb(6.666667%, 6.666667%, 6.666667%)" fill-opacity="1" stroke-width="3.408" stroke-linecap="butt" stroke-linejoin="miter" stroke="rgb(93.333333%, 93.333333%, 93.333333%)" stroke-opacity="1" stroke-miterlimit="4" d="M 66.269531 1.780134 C 24.921875 1.780134 1.699219 23.141741 1.699219 66.835938 L 1.699219 516.967076 C 1.699219 557.748326 22.575335 579.190848 63.922991 579.190848 L 515.915179 579.190848 C 557.262835 579.190848 578.138951 558.800223 578.138951 516.967076 L 578.138951 66.835938 C 578.138951 24.193638 557.262835 1.780134 514.620536 1.780134 C 514.620536 1.780134 66.107701 1.618304 66.269531 1.780134 Z M 66.269531 1.780134 " transform="matrix(0.0482759, 0, 0, 0.0482759, 0, 0)"/>
<path fill-rule="nonzero" fill="rgb(100%, 100%, 100%)" fill-opacity="1" d="M 12.917969 1.285156 C 12.554688 1.285156 12.332031 1.492188 12.332031 1.902344 L 12.332031 2.929688 L 10.136719 2.929688 C 8.953125 2.929688 8.324219 3.570312 8.035156 4.316406 L 6.496094 8.246094 C 5.886719 8.324219 4.808594 9.03125 4.808594 10.375 L 4.808594 15.375 L 6.304688 15.375 L 6.304688 16.972656 C 6.304688 18.9375 9.113281 18.914062 9.113281 16.972656 L 9.113281 15.375 L 19.230469 15.375 L 19.230469 16.972656 C 19.230469 18.914062 22.042969 18.9375 22.042969 16.972656 L 22.042969 15.375 L 23.539062 15.375 L 23.539062 10.375 C 23.539062 9.03125 22.457031 8.324219 21.847656 8.246094 L 20.308594 4.316406 C 20.019531 3.570312 19.390625 2.929688 18.210938 2.929688 L 16.035156 2.929688 L 16.035156 1.902344 C 16.035156 1.492188 15.8125 1.285156 15.453125 1.285156 Z M 10.117188 4.363281 L 18.226562 4.363281 C 18.734375 4.367188 18.953125 4.679688 19.097656 5.113281 L 20.253906 8.152344 L 8.089844 8.152344 L 9.246094 5.113281 C 9.394531 4.679688 9.609375 4.367188 10.117188 4.363281 Z M 7.753906 9.667969 C 8.472656 9.667969 9.054688 10.261719 9.054688 10.992188 C 9.054688 11.726562 8.472656 12.320312 7.753906 12.320312 C 7.035156 12.320312 6.457031 11.726562 6.457031 10.992188 C 6.457031 10.261719 7.035156 9.667969 7.753906 9.667969 Z M 20.589844 9.667969 C 21.308594 9.667969 21.886719 10.261719 21.886719 10.992188 C 21.886719 11.726562 21.308594 12.320312 20.589844 12.320312 C 19.871094 12.320312 19.292969 11.726562 19.292969 10.992188 C 19.292969 10.261719 19.871094 9.667969 20.589844 9.667969 Z M 20.589844 9.667969 "/>
<path fill-rule="nonzero" fill="rgb(100%, 100%, 100%)" fill-opacity="1" d="M 5.066406 20.609375 L 9.742188 20.609375 L 9.742188 21.835938 L 8.171875 21.835938 L 8.171875 25.585938 L 6.636719 25.585938 L 6.636719 21.835938 L 5.066406 21.835938 Z M 13.503906 24.761719 L 11.75 24.761719 L 11.511719 25.585938 L 9.9375 25.585938 L 11.808594 20.609375 L 13.484375 20.609375 L 15.355469 25.585938 L 13.746094 25.585938 Z M 13.179688 23.6875 L 12.628906 21.898438 L 12.082031 23.6875 Z M 15.5 20.609375 L 17.195312 20.609375 L 18.078125 22.140625 L 18.933594 20.609375 L 20.609375 20.609375 L 19.0625 23.019531 L 20.757812 25.585938 L 19.027344 25.585938 L 18.046875 23.984375 L 17.0625 25.585938 L 15.34375 25.585938 L 17.0625 22.992188 Z M 21.308594 20.609375 L 22.851562 20.609375 L 22.851562 25.585938 L 21.308594 25.585938 Z M 21.308594 20.609375 "/>
</svg>
