<?xml version="1.0" encoding="UTF-8"?>
<svg xmlns="http://www.w3.org/2000/svg" xmlns:xlink="http://www.w3.org/1999/xlink" width="28" height="28" viewBox="0 0 28 28">
<defs>
<filter id="filter-remove-color" x="0%" y="0%" width="100%" height="100%">
<feColorMatrix color-interpolation-filters="sRGB" values="0 0 0 0 1 0 0 0 0 1 0 0 0 0 1 0 0 0 1 0" />
</filter>
<mask id="mask-0">
<g filter="url(#filter-remove-color)">
<rect x="-2.8" y="-2.8" width="33.6" height="33.6" fill="rgb(0%, 0%, 0%)" fill-opacity="0.6"/>
</g>
</mask>
<clipPath id="clip-0">
<rect x="0" y="0" width="28" height="28"/>
</clipPath>
<g id="source-7" clip-path="url(#clip-0)">
<path fill-rule="nonzero" fill="rgb(100%, 100%, 100%)" fill-opacity="1" d="M 18.4375 5.777344 C 18.4375 8.109375 16.546875 10 14.214844 10 C 11.882812 10 9.992188 8.109375 9.992188 5.777344 C 9.992188 3.445312 11.882812 1.554688 14.214844 1.554688 C 16.546875 1.554688 18.4375 3.445312 18.4375 5.777344 Z M 18.4375 5.777344 "/>
</g>
<mask id="mask-1">
<g filter="url(#filter-remove-color)">
<rect x="-2.8" y="-2.8" width="33.6" height="33.6" fill="rgb(0%, 0%, 0%)" fill-opacity="0.2"/>
</g>
</mask>
<clipPath id="clip-1">
<rect x="0" y="0" width="28" height="28"/>
</clipPath>
<g id="source-11" clip-path="url(#clip-1)">
<path fill-rule="nonzero" fill="rgb(100%, 100%, 100%)" fill-opacity="1" d="M 18.4375 14.082031 C 18.4375 16.414062 16.546875 18.304688 14.214844 18.304688 C 11.882812 18.304688 9.992188 16.414062 9.992188 14.082031 C 9.992188 11.75 11.882812 9.859375 14.214844 9.859375 C 16.546875 9.859375 18.4375 11.75 18.4375 14.082031 Z M 18.4375 14.082031 "/>
</g>
<mask id="mask-2">
<g filter="url(#filter-remove-color)">
<rect x="-2.8" y="-2.8" width="33.6" height="33.6" fill="rgb(0%, 0%, 0%)" fill-opacity="0.3"/>
</g>
</mask>
<clipPath id="clip-2">
<rect x="0" y="0" width="28" height="28"/>
</clipPath>
<g id="source-15" clip-path="url(#clip-2)">
<path fill-rule="nonzero" fill="rgb(100%, 100%, 100%)" fill-opacity="1" d="M 18.4375 22.289062 C 18.4375 24.621094 16.546875 26.511719 14.214844 26.511719 C 11.882812 26.511719 9.992188 24.621094 9.992188 22.289062 C 9.992188 19.957031 11.882812 18.066406 14.214844 18.066406 C 16.546875 18.066406 18.4375 19.957031 18.4375 22.289062 Z M 18.4375 22.289062 "/>
</g>
</defs>
<path fill-rule="nonzero" fill="rgb(6.666667%, 6.666667%, 6.666667%)" fill-opacity="1" stroke-width="3.408" stroke-linecap="butt" stroke-linejoin="miter" stroke="rgb(93.333333%, 93.333333%, 93.333333%)" stroke-opacity="1" stroke-miterlimit="4" d="M 66.269531 1.780134 C 24.921875 1.780134 1.699219 23.141741 1.699219 66.835938 L 1.699219 516.967076 C 1.699219 557.748326 22.575335 579.190848 63.922991 579.190848 L 515.915179 579.190848 C 557.262835 579.190848 578.138951 558.881138 578.138951 516.967076 L 578.138951 66.835938 C 578.138951 24.193638 557.262835 1.780134 514.620536 1.780134 C 514.620536 1.780134 66.107701 1.618304 66.269531 1.780134 Z M 66.269531 1.780134 " transform="matrix(0.0482759, 0, 0, 0.0482759, 0, 0)"/>
<g mask="url(#mask-0)">
<use xlink:href="#source-7"/>
</g>
<g mask="url(#mask-1)">
<use xlink:href="#source-11"/>
</g>
<g mask="url(#mask-2)">
<use xlink:href="#source-15"/>
</g>
<path fill-rule="nonzero" fill="rgb(100%, 100%, 100%)" fill-opacity="1" stroke-width="8" stroke-linecap="butt" stroke-linejoin="miter" stroke="rgb(100%, 100%, 100%)" stroke-opacity="1" stroke-miterlimit="4" d="M 296.068638 17.801339 C 294.935826 17.801339 293.803013 17.801339 292.589286 17.882254 C 242.907366 17.801339 197.271205 60.281808 194.762835 110.125558 C 193.144531 135.77567 194.924665 161.425781 194.277344 187.075893 C 194.439174 282.960379 193.630022 378.844866 194.762835 474.648438 C 198.889509 520.446429 238.133371 560.256696 284.093192 564.302455 C 327.463728 569.157366 372.371652 543.021763 387.988281 501.997768 C 396.241629 482.092634 396.160714 460.164621 395.432478 438.964844 C 395.108817 328.59654 396.079799 218.228237 394.866071 107.940848 C 390.739397 62.466518 352.061942 22.81808 306.425781 18.448661 C 303.027344 18.125 299.547991 17.882254 296.068638 17.801339 Z M 296.068638 42.804129 C 338.710938 42.804129 373.261719 77.354911 373.261719 119.99721 C 373.261719 162.639509 338.710938 197.19029 296.068638 197.19029 C 253.426339 197.19029 218.875558 162.639509 218.875558 119.99721 C 218.875558 77.354911 253.426339 42.804129 296.068638 42.804129 Z M 296.068638 213.616071 C 338.710938 213.616071 373.261719 248.247768 373.261719 290.809152 C 373.261719 333.451451 338.710938 368.002232 296.068638 368.002232 C 253.426339 368.002232 218.875558 333.451451 218.875558 290.809152 C 218.875558 248.247768 253.426339 213.616071 296.068638 213.616071 Z M 296.068638 384.508929 C 338.710938 384.508929 373.261719 419.05971 373.261719 461.702009 C 373.261719 504.263393 338.710938 538.814174 296.068638 538.814174 C 253.426339 538.814174 218.875558 504.263393 218.875558 461.702009 C 218.875558 419.05971 253.426339 384.508929 296.068638 384.508929 Z M 296.068638 384.508929 " transform="matrix(0.0482759, 0, 0, 0.0482759, 0, 0)"/>
</svg>
