<?xml version="1.0" encoding="UTF-8"?>
<svg xmlns="http://www.w3.org/2000/svg" xmlns:xlink="http://www.w3.org/1999/xlink" width="28" height="28" viewBox="0 0 28 28">
<path fill-rule="nonzero" fill="rgb(6.666667%, 6.666667%, 6.666667%)" fill-opacity="1" stroke-width="3.408" stroke-linecap="butt" stroke-linejoin="miter" stroke="rgb(93.333333%, 93.333333%, 93.333333%)" stroke-opacity="1" stroke-miterlimit="4" d="M 66.269531 1.780134 C 24.921875 1.780134 1.699219 23.141741 1.699219 66.835938 L 1.699219 516.967076 C 1.699219 557.748326 22.575335 579.190848 63.922991 579.190848 L 515.915179 579.190848 C 557.262835 579.190848 578.138951 558.881138 578.138951 516.967076 L 578.138951 66.835938 C 578.138951 24.193638 557.262835 1.780134 514.620536 1.780134 C 514.620536 1.780134 66.107701 1.618304 66.269531 1.780134 Z M 66.269531 1.780134 " transform="matrix(0.0482759, 0, 0, 0.0482759, 0, 0)"/>
<path fill-rule="evenodd" fill="rgb(100%, 100%, 100%)" fill-opacity="1" stroke-width="9.068248" stroke-linecap="butt" stroke-linejoin="miter" stroke="rgb(100%, 100%, 100%)" stroke-opacity="1" stroke-miterlimit="4" d="M 80.520615 104.89535 C 70.468118 104.89535 65.478558 113.113449 61.369508 121.551676 C 44.56643 161.908415 27.689975 191.405523 21.526401 246.217312 C 20.27901 284.886405 18.371237 323.188619 18.811493 362.738223 C 18.811493 386.071756 46.107323 421.952566 68.927225 421.952566 L 504.486502 421.952566 L 504.486502 378.293912 C 503.605991 378.073784 502.798856 377.853656 501.918346 377.560153 L 501.918346 338.157301 L 504.486502 338.670932 L 504.486502 326.417158 C 414.38091 297.727186 338.363489 239.393354 296.392481 136.153478 C 289.128268 117.516002 274.893345 106.216116 255.962366 104.89535 Z M 79.126473 130.870414 L 248.624777 130.870414 C 259.704536 130.870414 269.390153 172.474543 277.388125 193.753551 C 279.882906 200.650885 277.901757 211.730644 272.545317 211.730644 L 51.977394 211.730644 C 46.914458 211.730644 44.786557 202.70541 46.914458 194.267182 C 57.627338 173.134926 69.881111 130.870414 79.126473 130.870414 Z M 315.32346 222.296772 C 327.723985 234.330418 341.078397 250.839993 352.598412 258.397709 L 352.598412 331.700222 L 318.992254 316.291286 C 315.837091 285.400036 315.470212 253.848404 315.32346 222.296772 Z M 371.749519 275.494291 C 385.617562 287.307809 391.340881 289.582462 403.301151 298.387569 L 403.814782 354.813627 L 371.749519 341.312464 C 371.01576 310.421215 371.969646 307.045924 371.749519 275.494291 Z M 70.908374 296.993427 C 71.275253 296.920051 71.568757 296.993427 71.935636 296.993427 C 83.088771 296.993427 92.114006 305.945285 92.114006 317.09842 C 92.114006 328.251556 83.088771 337.27679 71.935636 337.27679 C 60.782501 337.27679 51.757267 328.251556 51.757267 317.09842 C 51.757267 306.312165 60.26887 297.507058 70.908374 296.993427 Z M 237.251514 296.993427 C 237.618394 296.920051 237.985273 296.993427 238.278777 296.993427 C 249.431912 296.993427 258.457146 305.945285 258.457146 317.09842 C 258.457146 328.251556 249.431912 337.27679 238.278777 337.27679 C 227.199017 337.27679 218.173783 328.251556 218.173783 317.09842 C 218.173783 306.312165 226.61201 297.507058 237.251514 296.993427 Z M 419.884102 308.440066 L 451.215606 321.20747 L 451.215606 367.581032 C 439.695592 366.333642 429.056088 363.69211 419.884102 358.702549 Z M 464.203139 327.444421 L 489.077565 333.828123 L 489.077565 375.872507 C 480.565962 375.505628 472.20111 374.551741 464.203139 371.396578 Z M 464.203139 327.444421 " transform="matrix(0.0532362, 0, 0, 0.0532362, 0.221205, -1.510006)"/>
<path fill-rule="evenodd" fill="rgb(100%, 100%, 100%)" fill-opacity="1" d="M 11.726562 21.503906 L 11.726562 22.609375 L 6.808594 22.609375 L 6.808594 21.507812 L 3.453125 21.507812 L 3.453125 22.621094 L 1.226562 22.621094 L 1.222656 24.191406 L 16.898438 24.191406 C 19.105469 23.199219 22.957031 21.945312 27.078125 21.773438 L 27.078125 21.503906 Z M 11.726562 21.503906 "/>
</svg>
