<?xml version="1.0" encoding="UTF-8"?>
<svg xmlns="http://www.w3.org/2000/svg" xmlns:xlink="http://www.w3.org/1999/xlink" width="28" height="28" viewBox="0 0 28 28">
<path fill-rule="nonzero" fill="rgb(6.666667%, 6.666667%, 6.666667%)" fill-opacity="1" stroke-width="3.408" stroke-linecap="butt" stroke-linejoin="miter" stroke="rgb(93.333333%, 93.333333%, 93.333333%)" stroke-opacity="1" stroke-miterlimit="4" d="M 66.269531 1.780134 C 24.921875 1.780134 1.699219 23.141741 1.699219 66.835938 L 1.699219 516.967076 C 1.699219 557.748326 22.575335 579.190848 63.922991 579.190848 L 515.915179 579.190848 C 557.262835 579.190848 578.138951 558.800223 578.138951 516.967076 L 578.138951 66.835938 C 578.138951 24.193638 557.262835 1.780134 514.620536 1.780134 C 514.620536 1.780134 66.107701 1.618304 66.269531 1.780134 Z M 66.269531 1.780134 " transform="matrix(0.0482759, 0, 0, 0.0482759, 0, 0)"/>
<path fill-rule="nonzero" fill="rgb(100%, 100%, 100%)" fill-opacity="1" d="M 14.269531 1.433594 L 9.863281 1.4375 C 7.8125 1.4375 6.304688 3.085938 6.304688 4.882812 L 6.304688 17.597656 C 6.304688 19.335938 7.664062 20.761719 9.03125 20.984375 L 4.929688 27.140625 L 7.296875 27.140625 L 10.230469 22.835938 L 18.273438 22.835938 L 21.210938 27.140625 L 23.578125 27.140625 L 19.476562 20.984375 C 20.84375 20.761719 22.207031 19.335938 22.207031 17.597656 L 22.207031 4.882812 C 22.207031 3.085938 20.695312 1.4375 18.640625 1.4375 Z M 12.523438 2.171875 L 15.980469 2.171875 C 16.292969 2.171875 16.566406 2.433594 16.566406 2.746094 L 16.566406 3.757812 C 16.566406 4.070312 16.308594 4.335938 15.980469 4.335938 L 12.523438 4.335938 C 12.199219 4.335938 11.941406 4.070312 11.941406 3.757812 L 11.941406 2.746094 C 11.941406 2.433594 12.214844 2.171875 12.523438 2.171875 Z M 9.984375 5.023438 L 18.523438 5.023438 C 19.683594 5.023438 20.296875 5.855469 20.296875 6.804688 L 20.296875 9.09375 C 20.308594 10.195312 19.503906 10.867188 18.523438 10.867188 L 9.984375 10.867188 C 9 10.867188 8.199219 10.195312 8.207031 9.09375 L 8.207031 6.804688 C 8.207031 5.855469 8.824219 5.023438 9.984375 5.023438 Z M 9.789062 16.007812 C 10.652344 16.007812 11.351562 16.707031 11.351562 17.566406 C 11.351562 18.429688 10.652344 19.128906 9.789062 19.128906 C 8.925781 19.128906 8.226562 18.429688 8.226562 17.566406 C 8.226562 16.707031 8.925781 16.007812 9.789062 16.007812 Z M 18.679688 16.007812 C 19.542969 16.007812 20.242188 16.707031 20.242188 17.566406 C 20.242188 18.429688 19.542969 19.128906 18.679688 19.128906 C 17.816406 19.128906 17.121094 18.429688 17.121094 17.566406 C 17.121094 16.707031 17.816406 16.007812 18.679688 16.007812 Z M 18.679688 16.007812 "/>
</svg>
