<?xml version="1.0" encoding="UTF-8"?>
<svg xmlns="http://www.w3.org/2000/svg" xmlns:xlink="http://www.w3.org/1999/xlink" width="28" height="28" viewBox="0 0 28 28">
<path fill-rule="nonzero" fill="rgb(6.666667%, 6.666667%, 6.666667%)" fill-opacity="1" stroke-width="3.408" stroke-linecap="butt" stroke-linejoin="miter" stroke="rgb(93.333333%, 93.333333%, 93.333333%)" stroke-opacity="1" stroke-miterlimit="4" d="M 66.269531 1.780134 C 24.921875 1.780134 1.699219 23.141741 1.699219 66.835938 L 1.699219 516.967076 C 1.699219 557.748326 22.575335 579.190848 63.922991 579.190848 L 515.915179 579.190848 C 557.262835 579.190848 578.138951 558.881138 578.138951 516.967076 L 578.138951 66.835938 C 578.138951 24.193638 557.262835 1.780134 514.620536 1.780134 C 514.620536 1.780134 66.107701 1.618304 66.269531 1.780134 Z M 66.269531 1.780134 " transform="matrix(0.0482759, 0, 0, 0.0482759, 0, 0)"/>
<path fill="none" stroke-width="10.202519" stroke-linecap="butt" stroke-linejoin="miter" stroke="rgb(100%, 100%, 100%)" stroke-opacity="1" stroke-miterlimit="4" d="M 139.880464 59.422023 L 264.247093 -22.545053 L 385.943522 59.341108 L 264.328008 141.227269 Z M 139.880464 59.422023 " transform="matrix(0.0482759, 0, 0, 0.0482759, 3.321369, 2.826663)"/>
<path fill-rule="evenodd" fill="rgb(100%, 100%, 100%)" fill-opacity="1" d="M 7.746094 23.738281 C 7.765625 27 12.4375 27 12.4375 23.769531 "/>
<path fill-rule="evenodd" fill="rgb(100%, 100%, 100%)" fill-opacity="1" d="M 17.425781 23.738281 C 17.445312 27 22.117188 27 22.117188 23.769531 "/>
<path fill-rule="evenodd" fill="rgb(100%, 100%, 100%)" fill-opacity="1" d="M 12.945312 25.226562 L 16.875 25.226562 C 16.675781 24.882812 16.582031 24.515625 16.59375 23.761719 L 13.289062 23.761719 C 13.265625 24.523438 13.144531 24.878906 12.945312 25.226562 Z M 12.945312 25.226562 "/>
<path fill-rule="evenodd" fill="rgb(100%, 100%, 100%)" fill-opacity="1" d="M 6.363281 9.898438 L 6.375 11.382812 L 24.574219 11.382812 L 24.574219 9.898438 Z M 6.363281 9.898438 "/>
<path fill-rule="evenodd" fill="rgb(100%, 100%, 100%)" fill-opacity="1" d="M 23.191406 11.316406 C 23.558594 11.574219 23.898438 11.792969 23.898438 12.015625 L 23.890625 16.957031 C 23.808594 17.445312 23.460938 17.523438 23.191406 17.792969 L 24.574219 17.792969 L 24.574219 11.316406 Z M 23.191406 11.316406 "/>
<path fill-rule="evenodd" fill="rgb(100%, 100%, 100%)" fill-opacity="1" d="M 13.070312 11.332031 C 13.4375 11.589844 13.773438 11.808594 13.773438 12.03125 L 13.769531 21.113281 C 13.683594 21.601562 13.339844 21.679688 13.070312 21.949219 L 14.742188 21.9375 L 14.761719 12.011719 C 14.761719 11.816406 15.109375 11.585938 15.46875 11.332031 Z M 13.070312 11.332031 "/>
<path fill-rule="evenodd" fill="rgb(100%, 100%, 100%)" fill-opacity="1" d="M 10.839844 11.324219 C 10.472656 11.582031 10.136719 11.800781 10.136719 12.023438 L 10.140625 21.105469 C 10.226562 21.59375 10.570312 21.671875 10.839844 21.941406 L 9.167969 21.941406 L 9.179688 11.328125 Z M 10.839844 11.324219 "/>
<path fill-rule="evenodd" fill="rgb(100%, 100%, 100%)" fill-opacity="1" d="M 6.359375 11.304688 L 3.175781 17.640625 L 3.175781 21.484375 C 3.175781 22.179688 3.996094 22.902344 4.621094 22.898438 L 24.574219 22.898438 L 24.574219 17.765625 L 14.695312 17.765625 L 14.695312 21.933594 L 9.214844 21.933594 L 9.214844 17.773438 L 6.457031 17.773438 C 5.832031 17.773438 4.777344 17.019531 5.15625 15.609375 L 7.273438 11.304688 Z M 6.359375 11.304688 "/>
<path fill-rule="evenodd" fill="rgb(100%, 100%, 100%)" fill-opacity="1" d="M 14.796875 16.964844 C 14.882812 17.449219 15.238281 17.507812 15.503906 17.777344 C 14.953125 17.777344 14.054688 17.769531 14.054688 17.71875 L 14.023438 16.972656 Z M 14.796875 16.964844 "/>
<path fill-rule="evenodd" fill="rgb(100%, 100%, 100%)" fill-opacity="1" d="M 21.160156 9.929688 L 20.65625 9.402344 L 11.351562 9.402344 L 10.921875 9.917969 Z M 21.160156 9.929688 "/>
</svg>
