<?xml version="1.0" encoding="UTF-8"?>
<svg xmlns="http://www.w3.org/2000/svg" xmlns:xlink="http://www.w3.org/1999/xlink" width="28" height="28" viewBox="0 0 28 28">
<path fill-rule="nonzero" fill="rgb(6.666667%, 6.666667%, 6.666667%)" fill-opacity="1" stroke-width="3.408" stroke-linecap="butt" stroke-linejoin="miter" stroke="rgb(93.333333%, 93.333333%, 93.333333%)" stroke-opacity="1" stroke-miterlimit="4" d="M 66.269531 1.780134 C 24.921875 1.780134 1.699219 23.141741 1.699219 66.835938 L 1.699219 516.967076 C 1.699219 557.748326 22.575335 579.190848 63.922991 579.190848 L 515.915179 579.190848 C 557.262835 579.190848 578.138951 558.881138 578.138951 516.967076 L 578.138951 66.835938 C 578.138951 24.193638 557.262835 1.780134 514.620536 1.780134 C 514.620536 1.780134 66.107701 1.618304 66.269531 1.780134 Z M 66.269531 1.780134 " transform="matrix(0.0482759, 0, 0, 0.0482759, 0, 0)"/>
<path fill="none" stroke-width="74.199997" stroke-linecap="round" stroke-linejoin="round" stroke="rgb(100%, 100%, 100%)" stroke-opacity="1" stroke-miterlimit="4" d="M 256.036646 237.128788 L 241.688846 317.332389 " transform="matrix(0.0650688, 0, 0, 0.0650688, -3.523272, -6.67968)"/>
<path fill="none" stroke-width="32.599998" stroke-linecap="round" stroke-linejoin="round" stroke="rgb(100%, 100%, 100%)" stroke-opacity="1" stroke-miterlimit="4" d="M 330.537147 307.727167 L 296.138447 278.071045 L 273.686241 225.722587 " transform="matrix(0.0650688, 0, 0, 0.0650688, -3.523272, -6.67968)"/>
<path fill="none" stroke-width="41.299999" stroke-linecap="round" stroke-linejoin="round" stroke="rgb(100%, 100%, 100%)" stroke-opacity="1" stroke-miterlimit="4" d="M 313.547911 487.76504 L 302.14171 393.393738 " transform="matrix(0.0650688, 0, 0, 0.0650688, -3.523272, -6.67968)"/>
<path fill="none" stroke-width="45.099998" stroke-linecap="round" stroke-linejoin="round" stroke="rgb(100%, 100%, 100%)" stroke-opacity="1" stroke-miterlimit="4" d="M 245.230772 315.831573 L 299.440242 390.692269 " transform="matrix(0.0650688, 0, 0, 0.0650688, -3.523272, -6.67968)"/>
<path fill="none" stroke-width="45.099998" stroke-linecap="round" stroke-linejoin="round" stroke="rgb(100%, 100%, 100%)" stroke-opacity="1" stroke-miterlimit="4" d="M 226.74072 316.91216 L 228.361601 404.259645 " transform="matrix(0.0650688, 0, 0, 0.0650688, -3.523272, -6.67968)"/>
<path fill="none" stroke-width="45.306122" stroke-linecap="round" stroke-linejoin="round" stroke="rgb(100%, 100%, 100%)" stroke-opacity="1" stroke-miterlimit="4" d="M 192.041857 489.385921 L 229.502221 408.581994 " transform="matrix(0.0650688, 0, 0, 0.0650688, -3.523272, -6.67968)"/>
<path fill-rule="nonzero" fill="rgb(100%, 100%, 100%)" fill-opacity="1" stroke-width="45.099998" stroke-linecap="round" stroke-linejoin="round" stroke="rgb(100%, 100%, 100%)" stroke-opacity="1" stroke-miterlimit="4" d="M 278.90908 151.402185 C 269.483957 151.822413 265.761933 165.449821 273.566176 170.612628 C 280.650027 176.495826 292.416423 169.411975 290.495379 160.287015 C 289.654922 154.884078 284.37205 150.801858 278.90908 151.402185 Z M 278.90908 151.402185 " transform="matrix(0.0650688, 0, 0, 0.0650688, -3.523272, -6.67968)"/>
<path fill="none" stroke-width="32.599998" stroke-linecap="round" stroke-linejoin="round" stroke="rgb(100%, 100%, 100%)" stroke-opacity="1" stroke-miterlimit="4" d="M 177.573992 312.589811 L 193.902869 257.119656 L 245.470902 218.458638 " transform="matrix(0.0650688, 0, 0, 0.0650688, -3.523272, -6.67968)"/>
</svg>
