<?xml version="1.0" encoding="UTF-8"?>
<svg xmlns="http://www.w3.org/2000/svg" xmlns:xlink="http://www.w3.org/1999/xlink" width="24" height="24" viewBox="0 0 24 24">
<path fill-rule="nonzero" fill="rgb(0%, 0%, 0%)" fill-opacity="1" d="M 12 1.601562 L 0 7.199219 L 3.199219 8.640625 L 3.199219 11.359375 C 2.238281 11.679688 1.601562 12.640625 1.601562 13.601562 C 1.601562 14.558594 2.238281 15.519531 3.199219 15.839844 L 3.199219 16 L 1.761719 19.359375 C 1.28125 20.800781 1.601562 22.398438 4 22.398438 C 6.398438 22.398438 6.71875 20.800781 6.238281 19.359375 L 4.800781 16 C 5.761719 15.519531 6.398438 14.71875 6.398438 13.601562 C 6.398438 12.480469 5.761719 11.679688 4.800781 11.359375 L 4.800781 9.441406 L 12 12.800781 L 24 7.199219 Z M 19.039062 12 L 11.839844 15.199219 L 8 13.441406 L 8 13.601562 C 8 14.71875 7.519531 15.679688 6.71875 16.480469 L 7.679688 18.71875 L 7.679688 18.878906 C 7.839844 19.519531 8 20.160156 7.839844 20.800781 C 8.960938 21.28125 10.238281 21.601562 11.839844 21.601562 C 17.121094 21.601562 19.039062 18.398438 19.039062 16.800781 Z M 19.039062 12 "/>
</svg>
