<?xml version="1.0" encoding="UTF-8"?>
<svg xmlns="http://www.w3.org/2000/svg" xmlns:xlink="http://www.w3.org/1999/xlink" width="24" height="24" viewBox="0 0 24 24">
<path fill-rule="nonzero" fill="rgb(0%, 0%, 0%)" fill-opacity="1" d="M 8.867188 5.835938 L 4.96875 4.800781 L 5.679688 2.191406 C 5.734375 1.988281 5.871094 1.8125 6.058594 1.707031 C 6.242188 1.601562 6.460938 1.574219 6.667969 1.628906 L 9.003906 2.257812 C 9.105469 2.28125 9.199219 2.328125 9.285156 2.394531 C 9.367188 2.457031 9.4375 2.539062 9.492188 2.628906 C 9.542969 2.71875 9.578125 2.820312 9.589844 2.925781 C 9.605469 3.027344 9.597656 3.136719 9.570312 3.238281 Z M 1.636719 17.605469 C 1.589844 17.460938 1.589844 17.308594 1.628906 17.164062 L 4.539062 6.402344 L 8.433594 7.4375 L 5.523438 18.199219 C 5.484375 18.34375 5.40625 18.476562 5.292969 18.578125 L 2.964844 20.734375 C 2.933594 20.761719 2.898438 20.78125 2.855469 20.789062 C 2.816406 20.796875 2.777344 20.796875 2.738281 20.789062 C 2.699219 20.777344 2.660156 20.757812 2.632812 20.730469 C 2.601562 20.699219 2.582031 20.664062 2.566406 20.628906 Z M 16 8 C 12.398438 8 11.199219 6.800781 11.199219 3.199219 C 14.800781 3.199219 16 4.398438 16 8 Z M 13.761719 20.773438 C 11.566406 21.109375 8.757812 18.042969 8.128906 14.695312 L 9.550781 9.441406 C 10.1875 8.878906 10.996094 8.585938 11.820312 8.585938 C 12.714844 8.582031 13.589844 8.855469 14.324219 9.371094 C 14.582031 9.542969 14.886719 9.632812 15.195312 9.632812 C 15.507812 9.628906 15.8125 9.53125 16.066406 9.355469 C 16.742188 8.851562 17.5625 8.585938 18.402344 8.585938 C 19.632812 8.585938 21.03125 9.371094 21.679688 10.507812 C 24.140625 14.824219 19.769531 21.242188 16.652344 20.777344 C 16.507812 20.75 16.371094 20.699219 16.242188 20.628906 C 15.921875 20.460938 15.5625 20.375 15.203125 20.375 C 14.839844 20.375 14.480469 20.460938 14.160156 20.628906 C 14.035156 20.695312 13.898438 20.746094 13.761719 20.773438 Z M 13.761719 20.773438 "/>
</svg>
