<?xml version="1.0" encoding="UTF-8"?>
<svg xmlns="http://www.w3.org/2000/svg" xmlns:xlink="http://www.w3.org/1999/xlink" width="24" height="24" viewBox="0 0 24 24">
<path fill-rule="nonzero" fill="rgb(0%, 0%, 0%)" fill-opacity="1" d="M 6.285156 5.429688 C 7.027344 6.285156 6.625 6.878906 6.285156 7.429688 C 6.003906 7.882812 5.144531 9.414062 5.144531 9.714844 C 5.285156 10.246094 5.78125 10.605469 6.285156 10.605469 C 6.71875 10.355469 7.0625 9.792969 7.429688 9.429688 C 7.429688 9.429688 8.570312 10.855469 8.570312 12 C 8.570312 12.695312 7.429688 15.285156 7.429688 15.285156 C 7.558594 15.417969 8.277344 15.777344 8.570312 15.855469 C 8.570312 15.855469 9.738281 13.441406 10.855469 13.144531 C 11.570312 12.953125 12.472656 12.964844 13.144531 13.144531 C 14.265625 13.445312 15.429688 15.855469 15.429688 15.855469 C 15.71875 15.78125 16.371094 15.398438 16.570312 15.285156 C 16.570312 15.285156 15.578125 13.132812 15.429688 12.570312 C 15.429688 12.570312 14.949219 11.117188 15.429688 10.285156 C 16.902344 9.433594 18.285156 10.175781 18.285156 12.570312 C 18.890625 12.222656 19.445312 10.855469 19.429688 10.285156 C 18.882812 8.257812 16.570312 7.429688 14.855469 9.144531 C 13.753906 8.503906 11.847656 8.4375 10.285156 8.855469 C 10.285156 6.285156 7.953125 5.429688 6.285156 5.429688 Z M 7 7.429688 C 7.238281 7.429688 7.429688 7.621094 7.429688 7.855469 C 7.429688 8.09375 7.238281 8.285156 7 8.285156 C 6.761719 8.285156 6.570312 8.09375 6.570312 7.855469 C 6.570312 7.621094 6.761719 7.429688 7 7.429688 Z M 6 15.429688 L 5.144531 16.570312 C 5.144531 16.570312 7.429688 19.144531 12 19.144531 C 16.570312 19.144531 18.855469 16.570312 18.855469 16.570312 L 18 15.429688 C 18 15.429688 15.429688 17.714844 12 17.714844 C 8.570312 17.714844 6 15.429688 6 15.429688 Z M 6 15.429688 "/>
</svg>
