<?xml version="1.0" encoding="UTF-8"?>
<svg xmlns="http://www.w3.org/2000/svg" xmlns:xlink="http://www.w3.org/1999/xlink" width="28" height="28" viewBox="0 0 28 28">
<path fill-rule="nonzero" fill="rgb(6.666667%, 6.666667%, 6.666667%)" fill-opacity="1" stroke-width="3.408" stroke-linecap="butt" stroke-linejoin="miter" stroke="rgb(93.333333%, 93.333333%, 93.333333%)" stroke-opacity="1" stroke-miterlimit="4" d="M 66.269531 1.780134 C 24.921875 1.780134 1.699219 23.141741 1.699219 66.835938 L 1.699219 516.967076 C 1.699219 557.748326 22.575335 579.190848 63.922991 579.190848 L 515.915179 579.190848 C 557.262835 579.190848 578.138951 558.881138 578.138951 516.967076 L 578.138951 66.835938 C 578.138951 24.193638 557.262835 1.780134 514.620536 1.780134 C 514.620536 1.780134 66.107701 1.618304 66.269531 1.780134 Z M 66.269531 1.780134 " transform="matrix(0.0482759, 0, 0, 0.0482759, 0, 0)"/>
<path fill-rule="nonzero" fill="rgb(100%, 100%, 100%)" fill-opacity="1" d="M 1.578125 21.132812 L 10.21875 21.132812 L 10.21875 22.824219 L 1.578125 22.824219 Z M 1.578125 21.132812 "/>
<path fill-rule="nonzero" fill="rgb(100%, 100%, 100%)" fill-opacity="1" d="M 1.578125 18.574219 L 10.21875 18.574219 L 10.21875 20.265625 L 1.578125 20.265625 Z M 1.578125 18.574219 "/>
<path fill-rule="nonzero" fill="rgb(100%, 100%, 100%)" fill-opacity="1" d="M 1.578125 16.003906 L 10.21875 16.003906 L 10.21875 17.699219 L 1.578125 17.699219 Z M 1.578125 16.003906 "/>
<path fill-rule="nonzero" fill="rgb(100%, 100%, 100%)" fill-opacity="1" d="M 1.578125 13.433594 L 10.21875 13.433594 L 10.21875 15.125 L 1.578125 15.125 Z M 1.578125 13.433594 "/>
<path fill-rule="nonzero" fill="rgb(100%, 100%, 100%)" fill-opacity="1" d="M 13.714844 4.832031 C 13.554688 4.457031 13.183594 4.191406 12.753906 4.191406 L 11.363281 4.199219 L 11.363281 22.824219 L 17.941406 22.824219 Z M 13.714844 4.832031 "/>
<path fill-rule="nonzero" fill="rgb(100%, 100%, 100%)" fill-opacity="1" d="M 1.578125 10.875 L 10.21875 10.875 L 10.21875 12.558594 L 1.578125 12.558594 Z M 1.578125 10.875 "/>
<path fill-rule="nonzero" fill="rgb(100%, 100%, 100%)" fill-opacity="1" d="M 1.578125 8.304688 L 10.21875 8.304688 L 10.21875 10 L 1.578125 10 Z M 1.578125 8.304688 "/>
<path fill-rule="nonzero" fill="rgb(100%, 100%, 100%)" fill-opacity="1" d="M 1.578125 5.738281 L 10.21875 5.738281 L 10.21875 7.429688 L 1.578125 7.429688 Z M 1.578125 5.738281 "/>
<path fill-rule="nonzero" fill="rgb(100%, 100%, 100%)" fill-opacity="1" d="M 18.746094 21.351562 C 18.875 21.375 19 21.386719 19.128906 21.386719 C 19.464844 21.386719 19.785156 21.308594 20.070312 21.183594 C 20.367188 21.042969 20.691406 20.964844 21.042969 20.964844 C 21.386719 20.964844 21.714844 21.042969 22.011719 21.183594 C 22.292969 21.308594 22.621094 21.386719 22.953125 21.386719 C 23.289062 21.386719 23.605469 21.308594 23.898438 21.183594 C 24.1875 21.042969 24.519531 20.964844 24.863281 20.964844 C 25.210938 20.964844 25.542969 21.042969 25.835938 21.183594 C 26.121094 21.308594 26.4375 21.386719 26.78125 21.386719 L 26.78125 22.792969 C 26.441406 22.792969 26.121094 22.722656 25.835938 22.597656 C 25.539062 22.457031 25.207031 22.378906 24.863281 22.378906 C 24.523438 22.378906 24.1875 22.457031 23.898438 22.597656 C 23.605469 22.722656 23.289062 22.792969 22.953125 22.792969 C 22.621094 22.792969 22.292969 22.722656 22.011719 22.597656 C 21.714844 22.457031 21.386719 22.378906 21.042969 22.378906 C 20.691406 22.378906 20.363281 22.457031 20.070312 22.597656 C 19.785156 22.722656 19.46875 22.792969 19.128906 22.792969 C 19.109375 22.792969 19.089844 22.792969 19.070312 22.792969 Z M 18.746094 21.351562 "/>
<path fill-rule="nonzero" fill="rgb(100%, 100%, 100%)" fill-opacity="1" d="M 18.183594 18.589844 C 18.472656 18.714844 18.792969 18.792969 19.128906 18.792969 C 19.464844 18.792969 19.785156 18.714844 20.070312 18.589844 C 20.367188 18.449219 20.691406 18.371094 21.042969 18.371094 C 21.386719 18.371094 21.714844 18.449219 22.011719 18.589844 C 22.292969 18.714844 22.621094 18.792969 22.953125 18.792969 C 23.289062 18.792969 23.605469 18.714844 23.898438 18.589844 C 24.1875 18.449219 24.519531 18.371094 24.863281 18.371094 C 25.210938 18.371094 25.542969 18.449219 25.835938 18.589844 C 26.121094 18.714844 26.4375 18.792969 26.78125 18.792969 L 26.78125 20.199219 C 26.441406 20.199219 26.121094 20.128906 25.835938 20 C 25.539062 19.863281 25.207031 19.785156 24.863281 19.785156 C 24.523438 19.785156 24.1875 19.863281 23.898438 20 C 23.605469 20.128906 23.289062 20.199219 22.953125 20.199219 C 22.621094 20.199219 22.292969 20.128906 22.011719 20 C 21.714844 19.863281 21.386719 19.785156 21.042969 19.785156 C 20.691406 19.785156 20.363281 19.863281 20.070312 20 C 19.785156 20.128906 19.46875 20.199219 19.128906 20.199219 C 18.921875 20.199219 18.722656 20.175781 18.53125 20.121094 Z M 18.183594 18.589844 "/>
</svg>
