<?xml version="1.0" encoding="UTF-8"?>
<svg xmlns="http://www.w3.org/2000/svg" xmlns:xlink="http://www.w3.org/1999/xlink" width="28" height="28" viewBox="0 0 28 28">
<path fill-rule="nonzero" fill="rgb(6.666667%, 6.666667%, 6.666667%)" fill-opacity="1" stroke-width="3.408" stroke-linecap="butt" stroke-linejoin="miter" stroke="rgb(93.333333%, 93.333333%, 93.333333%)" stroke-opacity="1" stroke-miterlimit="4" d="M 66.269531 1.780134 C 24.921875 1.780134 1.699219 23.141741 1.699219 66.835938 L 1.699219 516.967076 C 1.699219 557.748326 22.575335 579.190848 63.922991 579.190848 L 515.915179 579.190848 C 557.262835 579.190848 578.138951 558.800223 578.138951 516.967076 L 578.138951 66.835938 C 578.138951 24.193638 557.262835 1.780134 514.620536 1.780134 C 514.620536 1.780134 66.107701 1.618304 66.269531 1.780134 Z M 66.269531 1.780134 " transform="matrix(0.0482759, 0, 0, 0.0482759, 0, 0)"/>
<path fill-rule="evenodd" fill="rgb(100%, 100%, 100%)" fill-opacity="1" d="M 9.601562 3.222656 C 8.863281 3.253906 8.054688 3.824219 7.335938 3.859375 C 7.320312 3.859375 7.308594 3.859375 7.296875 3.859375 L 7.296875 5.367188 C 7.308594 5.367188 7.320312 5.371094 7.335938 5.371094 C 8.054688 5.339844 8.863281 4.753906 9.601562 4.734375 C 10.320312 4.707031 10.960938 5.238281 11.683594 5.25 C 12.417969 5.253906 13.164062 4.769531 13.949219 4.785156 C 14.726562 4.796875 15.515625 5.324219 16.308594 5.320312 C 17.085938 5.304688 17.820312 4.742188 18.632812 4.734375 C 19.230469 4.734375 19.875 5.03125 20.492188 5.195312 L 20.492188 3.679688 C 19.875 3.519531 19.230469 3.222656 18.632812 3.222656 C 17.820312 3.230469 17.085938 3.792969 16.308594 3.808594 C 15.515625 3.8125 14.726562 3.285156 13.949219 3.273438 C 13.164062 3.253906 12.417969 3.742188 11.683594 3.734375 C 10.960938 3.722656 10.320312 3.199219 9.601562 3.222656 Z M 9.601562 3.222656 "/>
<path fill-rule="evenodd" fill="rgb(100%, 100%, 100%)" fill-opacity="1" d="M 9.667969 6.042969 C 9.644531 6.042969 9.625 6.042969 9.601562 6.042969 C 8.863281 6.070312 8.054688 6.640625 7.335938 6.675781 C 7.320312 6.675781 7.308594 6.675781 7.296875 6.675781 L 7.296875 8.1875 C 7.308594 8.1875 7.320312 8.1875 7.335938 8.1875 C 8.054688 8.152344 8.863281 7.582031 9.601562 7.554688 C 10.320312 7.53125 10.960938 8.050781 11.683594 8.066406 C 12.417969 8.070312 13.164062 7.582031 13.949219 7.601562 C 14.726562 7.613281 15.515625 8.140625 16.308594 8.140625 C 17.085938 8.121094 17.820312 7.558594 18.632812 7.554688 C 19.230469 7.554688 19.875 7.847656 20.492188 8.007812 L 20.492188 6.5 C 19.875 6.335938 19.230469 6.042969 18.632812 6.042969 C 17.820312 6.050781 17.085938 6.609375 16.308594 6.628906 C 15.515625 6.628906 14.726562 6.101562 13.949219 6.09375 C 13.164062 6.070312 12.417969 6.558594 11.683594 6.554688 C 10.984375 6.539062 10.359375 6.050781 9.667969 6.042969 Z M 9.667969 6.042969 "/>
<path fill="none" stroke-width="15" stroke-linecap="round" stroke-linejoin="miter" stroke="rgb(100%, 100%, 100%)" stroke-opacity="1" stroke-miterlimit="4" d="M 246.386719 285.145089 L 351.09096 382.081473 " transform="matrix(0.0482759, 0, 0, 0.0482759, 0, 0)"/>
<path fill="none" stroke-width="20" stroke-linecap="square" stroke-linejoin="round" stroke="rgb(100%, 100%, 100%)" stroke-opacity="1" stroke-miterlimit="4" d="M 451.102121 70.719866 L 451.102121 251.727121 L 124.447545 251.727121 L 124.447545 70.719866 " transform="matrix(0.0482759, 0, 0, 0.0482759, 0, 0)"/>
<path fill="none" stroke-width="15" stroke-linecap="round" stroke-linejoin="miter" stroke="rgb(100%, 100%, 100%)" stroke-opacity="1" stroke-miterlimit="4" d="M 323.094308 285.145089 L 218.390067 382.081473 " transform="matrix(0.0482759, 0, 0, 0.0482759, 0, 0)"/>
<path fill="none" stroke-width="15.525762" stroke-linecap="round" stroke-linejoin="miter" stroke="rgb(100%, 100%, 100%)" stroke-opacity="1" stroke-miterlimit="4" d="M 231.498326 371.72433 L 402.795759 501.269531 " transform="matrix(0.0482759, 0, 0, 0.0482759, 0, 0)"/>
<path fill="none" stroke-width="15.525762" stroke-linecap="round" stroke-linejoin="miter" stroke="rgb(100%, 100%, 100%)" stroke-opacity="1" stroke-miterlimit="4" d="M 340.814732 371.72433 L 169.517299 501.269531 " transform="matrix(0.0482759, 0, 0, 0.0482759, 0, 0)"/>
<path fill="none" stroke-width="19.809278" stroke-linecap="round" stroke-linejoin="round" stroke="rgb(100%, 100%, 100%)" stroke-opacity="1" stroke-miterlimit="4" d="M 322.527902 253.345424 C 322.527902 277.700893 358.616071 446.166295 425.9375 531.369978 " transform="matrix(0.0482759, 0, 0, 0.0482759, 0, 0)"/>
<path fill="none" stroke-width="19.809278" stroke-linecap="round" stroke-linejoin="round" stroke="rgb(100%, 100%, 100%)" stroke-opacity="1" stroke-miterlimit="4" d="M 247.924107 253.345424 C 247.924107 277.700893 211.835938 446.166295 144.514509 531.369978 " transform="matrix(0.0482759, 0, 0, 0.0482759, 0, 0)"/>
</svg>
