<?xml version="1.0" encoding="UTF-8"?>
<svg xmlns="http://www.w3.org/2000/svg" xmlns:xlink="http://www.w3.org/1999/xlink" width="28" height="28" viewBox="0 0 28 28">
<defs>
<filter id="filter-remove-color" x="0%" y="0%" width="100%" height="100%">
<feColorMatrix color-interpolation-filters="sRGB" values="0 0 0 0 1 0 0 0 0 1 0 0 0 0 1 0 0 0 1 0" />
</filter>
<mask id="mask-0">
<g filter="url(#filter-remove-color)">
<rect x="-2.8" y="-2.8" width="33.6" height="33.6" fill="rgb(0%, 0%, 0%)" fill-opacity="0.75"/>
</g>
</mask>
<clipPath id="clip-0">
<rect x="0" y="0" width="28" height="28"/>
</clipPath>
<g id="source-9" clip-path="url(#clip-0)">
<path fill-rule="nonzero" fill="rgb(100%, 100%, 100%)" fill-opacity="1" stroke-width="11.040513" stroke-linecap="round" stroke-linejoin="round" stroke="rgb(100%, 100%, 100%)" stroke-opacity="1" stroke-miterlimit="4" d="M 140.549665 233.844866 C 119.835379 233.844866 65.703125 234.573103 39.082031 235.301339 L 39.082031 476.590402 L 276.487165 476.590402 C 260.789621 231.012835 268.800223 207.061942 140.549665 233.844866 Z M 140.549665 233.844866 " transform="matrix(0.0482759, 0, 0, 0.0482759, 0, 0)"/>
</g>
</defs>
<path fill-rule="nonzero" fill="rgb(6.666667%, 6.666667%, 6.666667%)" fill-opacity="1" stroke-width="3.408" stroke-linecap="butt" stroke-linejoin="miter" stroke="rgb(93.333333%, 93.333333%, 93.333333%)" stroke-opacity="1" stroke-miterlimit="4" d="M 66.269531 1.780134 C 24.921875 1.780134 1.699219 23.141741 1.699219 66.835938 L 1.699219 516.967076 C 1.699219 557.748326 22.575335 579.190848 63.922991 579.190848 L 515.915179 579.190848 C 557.262835 579.190848 578.138951 558.881138 578.138951 516.967076 L 578.138951 66.835938 C 578.138951 24.193638 557.262835 1.780134 514.620536 1.780134 C 514.620536 1.780134 66.107701 1.618304 66.269531 1.780134 Z M 66.269531 1.780134 " transform="matrix(0.0482759, 0, 0, 0.0482759, 0, 0)"/>
<path fill-rule="evenodd" fill="rgb(100%, 100%, 100%)" fill-opacity="1" d="M 5.070312 6.6875 C 3.980469 6.710938 2.964844 7.417969 1.914062 7.414062 C 1.90625 7.414062 1.894531 7.414062 1.886719 7.410156 L 1.886719 9.519531 C 2.960938 9.511719 4 8.769531 5.117188 8.792969 C 6.25 8.824219 7.472656 9.609375 8.582031 9.664062 C 9.675781 9.695312 10.828125 9.007812 11.632812 9 C 12.414062 8.992188 12.832031 9.507812 13.296875 9.625 C 13.757812 9.738281 14.113281 9.761719 14.386719 9.6875 L 14.394531 8.203125 C 14.578125 8.300781 15.460938 8.398438 13.921875 7.46875 C 13.246094 6.992188 12.472656 6.882812 11.6875 6.898438 C 10.886719 6.90625 9.734375 7.59375 8.640625 7.5625 C 7.53125 7.507812 6.304688 6.71875 5.175781 6.6875 C 5.140625 6.6875 5.105469 6.6875 5.070312 6.6875 Z M 5.070312 6.6875 "/>
<path fill-rule="evenodd" fill="rgb(100%, 100%, 100%)" fill-opacity="1" d="M 13.171875 9.8125 C 13.433594 10.664062 13.253906 11.871094 13.578125 12.828125 C 13.929688 13.769531 14.128906 14.160156 14.480469 15.125 C 14.5 15.179688 14.875 16.082031 14.890625 16.136719 C 16.292969 16.125 17.644531 17.277344 16.84375 14.921875 C 16.492188 13.957031 15.929688 13.128906 15.582031 12.1875 C 15.257812 11.230469 15.695312 10.128906 15.429688 9.277344 C 14.984375 7.691406 13.832031 7.636719 13.433594 7.546875 C 11.847656 7.179688 10.714844 6.683594 11.546875 8.328125 C 11.734375 8.695312 12.402344 8.960938 13.171875 9.8125 Z M 13.171875 9.8125 "/>
<g mask="url(#mask-0)">
<use xlink:href="#source-9"/>
</g>
<path fill-rule="evenodd" fill="rgb(100%, 100%, 100%)" fill-opacity="1" d="M 17.910156 15.449219 C 16.886719 15.472656 15.898438 16.042969 14.9375 16.007812 C 14.898438 16.007812 14.863281 16.003906 14.824219 16 L 14.824219 18.113281 C 14.84375 18.113281 14.863281 18.113281 14.882812 18.117188 C 15.902344 18.152344 16.957031 17.507812 18.050781 17.554688 C 19.128906 17.601562 20.210938 18.367188 21.3125 18.390625 C 22.394531 18.398438 23.441406 17.644531 24.566406 17.667969 C 25.09375 17.679688 25.644531 17.859375 26.191406 18.054688 L 26.191406 15.929688 C 25.664062 15.742188 25.136719 15.578125 24.625 15.5625 C 23.5 15.539062 22.453125 16.296875 21.367188 16.289062 C 20.265625 16.265625 19.1875 15.5 18.109375 15.453125 C 18.074219 15.453125 18.042969 15.449219 18.007812 15.449219 C 17.976562 15.449219 17.941406 15.449219 17.910156 15.449219 Z M 17.910156 15.449219 "/>
<path fill-rule="evenodd" fill="rgb(100%, 100%, 100%)" fill-opacity="1" d="M 18.28125 19.71875 C 17.222656 19.703125 16.199219 20.3125 15.210938 20.277344 C 15.171875 20.277344 15.132812 20.273438 15.09375 20.269531 L 15.09375 22.378906 C 15.113281 22.382812 15.132812 22.382812 15.152344 22.386719 C 16.175781 22.421875 17.230469 21.773438 18.324219 21.824219 C 19.402344 21.867188 20.480469 22.632812 21.582031 22.660156 C 22.664062 22.664062 23.710938 21.914062 24.839844 21.933594 C 25.28125 21.945312 25.734375 22.074219 26.191406 22.226562 L 26.191406 20.105469 C 25.753906 19.960938 25.320312 19.84375 24.898438 19.832031 C 23.769531 19.808594 22.722656 20.5625 21.640625 20.558594 C 20.539062 20.53125 19.460938 19.765625 18.382812 19.722656 C 18.347656 19.71875 18.3125 19.71875 18.28125 19.71875 Z M 18.28125 19.71875 "/>
</svg>
